<?xml version="1.0" standalone="no"?>
<!DOCTYPE svg PUBLIC "-//W3C//DTD SVG 1.1//EN" "http://www.w3.org/Graphics/SVG/1.1/DTD/svg11.dtd">
<!--Generator: Xara Designer (www.xara.com), SVG filter version: 6.3.0.31-->
<svg fill="none" fill-rule="evenodd" stroke="black" stroke-width="0.501" stroke-linejoin="bevel" stroke-miterlimit="10" font-family="Times New Roman" font-size="16" style="font-variant-ligatures:none" xmlns:xlink="http://www.w3.org/1999/xlink" xmlns="http://www.w3.org/2000/svg" version="1.1" overflow="visible" width="59.727pt" height="59.727pt" viewBox="578.699 -115.423 59.727 59.727">
 <defs>
	</defs>
 <g id="Layer 1" transform="scale(1 -1)">
  <g id="Group" stroke="none">
   <path d="M 578.699,66.903 L 578.699,104.216 C 578.699,110.403 583.718,115.423 589.906,115.423 L 627.219,115.423 C 633.406,115.423 638.426,110.403 638.426,104.216 L 638.426,66.903 C 638.426,60.715 633.406,55.696 627.219,55.696 L 589.906,55.696 C 583.718,55.696 578.699,60.715 578.699,66.903 Z" stroke-width="0.5" stroke-opacity="0.117647" fill="#000000" stroke-linejoin="miter" marker-start="none" marker-end="none" fill-opacity="0.117647"/>
   <path d="M 579.661,66.903 L 579.661,104.216 C 579.661,109.871 584.25,114.46 589.906,114.46 L 627.219,114.46 C 632.874,114.46 637.463,109.871 637.463,104.216 L 637.463,66.903 C 637.463,61.247 632.874,56.658 627.219,56.658 L 589.906,56.658 C 584.25,56.658 579.661,61.247 579.661,66.903 Z" stroke-width="0.5" stroke-opacity="0.117647" fill="#000000" stroke-linejoin="miter" marker-start="none" marker-end="none" fill-opacity="0.117647"/>
   <path d="M 580.624,66.903 L 580.624,104.216 C 580.624,109.34 584.781,113.498 589.906,113.498 L 627.219,113.498 C 632.343,113.498 636.501,109.34 636.501,104.216 L 636.501,66.903 C 636.501,61.778 632.343,57.621 627.219,57.621 L 589.906,57.621 C 584.781,57.621 580.624,61.778 580.624,66.903 Z" stroke-width="0.5" stroke-opacity="0.117647" fill="#000000" stroke-linejoin="miter" marker-start="none" marker-end="none" fill-opacity="0.117647"/>
   <path d="M 581.586,66.903 L 581.586,104.216 C 581.586,108.808 585.313,112.535 589.906,112.535 L 627.219,112.535 C 631.811,112.535 635.538,108.808 635.538,104.216 L 635.538,66.903 C 635.538,62.31 631.811,58.583 627.219,58.583 L 589.906,58.583 C 585.313,58.583 581.586,62.31 581.586,66.903 Z" stroke-width="0.5" stroke-opacity="0.231373" fill="#000000" stroke-linejoin="miter" stroke-linecap="round" marker-start="none" marker-end="none" fill-opacity="0.231373"/>
   <rect x="582.55" y="59.547" width="52.027" height="52.027" rx="7.3578" ry="7.3578" stroke-width="0.5" fill="#ffffff" stroke-linejoin="miter" stroke-linecap="round"/>
   <path d="M 603.195,59.546 L 603.195,89.019 C 603.195,94.672 608.363,99.154 613.666,99.154 L 634.576,99.154 L 634.576,93.179 L 613.666,93.179 C 611.307,93.179 609.169,91.025 609.169,89.019 L 609.169,59.546 L 603.195,59.546 Z" stroke-width="0.747" fill-rule="evenodd" fill="#0064ae" marker-start="none" marker-end="none"/>
   <path d="M 595.493,59.546 L 595.493,89.202 C 595.515,99.214 604.031,106.686 613.667,106.645 L 634.161,106.655 C 634.429,105.891 634.576,105.07 634.576,104.216 L 634.576,100.679 L 613.657,100.669 C 606.969,100.697 601.483,95.565 601.468,89.194 L 601.468,59.546 L 595.493,59.546 Z" stroke-width="0.747" fill-rule="evenodd" fill="#ec6825" marker-start="none" marker-end="none"/>
   <path d="M 634.574,71.394 L 582.547,71.419 L 582.549,71.419 L 582.548,77.393 L 634.574,77.37 L 634.576,71.394 L 634.574,71.394 Z" stroke-width="0.747" fill-rule="evenodd" fill="#c20831" marker-start="none" marker-end="none"/>
   <path d="M 593.844,74.458 C 593.881,76.969 595.954,78.977 598.465,78.94 C 600.107,78.914 601.535,78.018 602.315,76.701 C 603.12,78.06 604.614,78.964 606.307,78.94 C 608.818,78.902 610.826,76.829 610.789,74.318 C 610.751,71.807 608.678,69.8 606.167,69.837 C 604.524,69.861 603.096,70.757 602.316,72.074 C 601.511,70.715 600.017,69.811 598.325,69.837 C 595.814,69.874 593.806,71.948 593.844,74.458 Z" stroke-width="0.747" fill="#ffffff" marker-start="none" marker-end="none"/>
   <path d="M 591.856,74.402 C 591.856,77.94 594.731,80.811 598.268,80.814 C 599.698,80.814 601.02,80.344 602.086,79.551 L 602.224,79.436 L 602.362,79.549 C 603.431,80.341 604.752,80.811 606.182,80.814 C 609.722,80.814 612.595,77.942 612.595,74.402 C 612.595,70.862 609.718,67.991 606.18,67.989 C 604.748,67.989 603.426,68.457 602.361,69.25 L 602.222,69.363 L 602.083,69.25 C 601.017,68.458 599.695,67.989 598.267,67.989 C 594.727,67.989 591.856,70.86 591.856,74.402 Z M 601.386,71.632 L 602.224,72.573 L 603.06,71.631 C 603.826,70.769 604.939,70.23 606.179,70.23 C 608.482,70.23 610.354,72.1 610.354,74.402 C 610.354,76.704 608.484,78.574 606.183,78.574 C 604.944,78.572 603.829,78.03 603.062,77.168 L 602.224,76.227 L 601.387,77.17 C 600.621,78.032 599.508,78.574 598.27,78.574 C 595.966,78.572 594.096,76.702 594.096,74.402 C 594.096,72.098 595.965,70.23 598.267,70.23 C 599.503,70.23 600.618,70.77 601.386,71.632 Z" stroke-width="0.747" fill-rule="evenodd" fill="#000000" marker-start="none" marker-end="none"/>
  </g>
 </g>
</svg>
