<?xml version="1.0" standalone="no"?>
<!DOCTYPE svg PUBLIC "-//W3C//DTD SVG 1.1//EN" "http://www.w3.org/Graphics/SVG/1.1/DTD/svg11.dtd">
<!--Generator: Xara Designer (www.xara.com), SVG filter version: 6.3.0.31-->
<svg fill="none" fill-rule="evenodd" stroke="black" stroke-width="0.501" stroke-linejoin="bevel" stroke-miterlimit="10" font-family="Times New Roman" font-size="16" style="font-variant-ligatures:none" xmlns:xlink="http://www.w3.org/1999/xlink" xmlns="http://www.w3.org/2000/svg" version="1.1" overflow="visible" width="251.495pt" height="251.495pt" viewBox="340.004 -2362.87 251.495 251.495">
 <defs>
	</defs>
 <g id="Layer 1" transform="scale(1 -1)">
  <g id="Group" stroke-linejoin="miter" stroke-linecap="round" stroke="none">
   <path d="M 465.751,2361.62 C 534.477,2361.62 590.255,2305.84 590.255,2237.12 C 590.255,2168.39 534.477,2112.61 465.751,2112.61 C 397.025,2112.61 341.247,2168.39 341.247,2237.12 C 341.247,2305.84 397.025,2361.62 465.751,2361.62 Z" fill="#ffffff" stroke-width="0.485" marker-start="none" marker-end="none"/>
   <path d="M 401.238,2145.12 C 350.454,2180.73 338.139,2250.85 373.75,2301.63 C 409.361,2352.41 479.48,2364.73 530.264,2329.12 C 581.048,2293.51 593.363,2223.39 557.752,2172.6 C 522.141,2121.82 452.022,2109.51 401.238,2145.12 Z M 498.706,2225.87 L 498.706,2276.56 L 483.631,2276.56 L 483.631,2226.82 C 483.631,2216.95 481.014,2207.96 470.244,2207.96 C 459.593,2207.96 456.859,2216.95 456.859,2226.82 L 456.859,2276.56 L 441.781,2276.56 L 441.781,2225.87 C 441.781,2207.06 450.954,2195.86 470.244,2195.86 C 488.938,2195.86 498.706,2207.06 498.706,2225.87 Z M 560.064,2220.52 C 560.064,2247.5 528.323,2238.35 528.323,2255.83 C 528.323,2264.57 534.22,2266.48 541.821,2266.48 C 546.334,2266.48 550.73,2265.76 554.763,2263.98 L 557.767,2275.61 C 552.296,2277.04 546.702,2277.87 540.994,2277.87 C 526.474,2277.87 513.122,2270.84 513.122,2254.76 C 513.122,2227.17 544.389,2237.4 544.389,2219.45 C 544.389,2209.75 536.706,2207.14 528.51,2207.14 C 523.522,2207.14 517.941,2208.08 513.435,2210.22 L 513.156,2198.12 C 518.751,2196.33 524.704,2195.86 530.649,2195.86 C 545.878,2195.86 560.064,2203.47 560.064,2220.52 Z M 427.342,2220.76 C 427.342,2231.1 419.614,2237.76 410.223,2239.18 C 418.78,2242.51 424.489,2247.62 424.489,2257.01 C 424.368,2271.4 413.668,2276.51 400.71,2276.51 L 375.388,2276.51 L 375.388,2197.21 L 402.375,2197.21 C 416.525,2197.21 427.342,2206.25 427.342,2220.76 Z M 390.368,2208.63 L 390.368,2232.52 L 400.592,2232.52 C 407.368,2232.52 412.006,2228.01 412.006,2221.11 C 412.006,2213.74 408.08,2208.63 400.236,2208.63 L 390.368,2208.63 Z M 390.368,2243.7 L 390.368,2265.22 L 398.808,2265.22 C 405.585,2265.22 409.509,2261.77 409.509,2255.11 C 409.509,2247.86 404.874,2243.7 397.737,2243.7 L 390.368,2243.7 Z" fill="#00586a" stroke-width="0.5" marker-start="none" marker-end="none"/>
   <path d="M 340.004,2362.87 L 340.004,2111.37 L 591.499,2111.37 L 591.499,2362.87 L 340.004,2362.87 Z" stroke-width="0.499" marker-start="none" marker-end="none"/>
  </g>
 </g>
</svg>
