<?xml version="1.0" standalone="no"?>
<!DOCTYPE svg PUBLIC "-//W3C//DTD SVG 1.1//EN" "http://www.w3.org/Graphics/SVG/1.1/DTD/svg11.dtd">
<!--Generator: Xara Designer (www.xara.com), SVG filter version: 6.3.0.31-->
<svg fill="none" fill-rule="evenodd" stroke="black" stroke-width="0.501" stroke-linejoin="bevel" stroke-miterlimit="10" font-family="Times New Roman" font-size="16" style="font-variant-ligatures:none" xmlns:xlink="http://www.w3.org/1999/xlink" xmlns="http://www.w3.org/2000/svg" version="1.1" overflow="visible" width="249.008pt" height="249.008pt" viewBox="341.247 -2361.61 249.008 249.008">
 <defs>
	</defs>
 <g id="Layer 1" transform="scale(1 -1)">
  <g id="Group" stroke-linejoin="miter" stroke-linecap="round" stroke="none">
   <path d="M 465.751,2361.61 C 534.477,2361.61 590.255,2305.84 590.255,2237.11 C 590.255,2168.38 534.477,2112.61 465.751,2112.61 C 397.025,2112.61 341.247,2168.38 341.247,2237.11 C 341.247,2305.84 397.025,2361.61 465.751,2361.61 Z" fill="#ffffff" stroke-width="0.485" marker-start="none" marker-end="none"/>
   <path d="M 401.238,2145.11 C 350.454,2180.72 338.139,2250.84 373.75,2301.62 C 409.361,2352.41 479.48,2364.72 530.264,2329.11 C 581.048,2293.5 593.363,2223.38 557.752,2172.6 C 522.141,2121.81 452.022,2109.5 401.238,2145.11 Z M 498.706,2225.86 L 498.706,2276.55 L 483.631,2276.55 L 483.631,2226.81 C 483.631,2216.94 481.014,2207.95 470.244,2207.95 C 459.593,2207.95 456.859,2216.94 456.859,2226.81 L 456.859,2276.55 L 441.781,2276.55 L 441.781,2225.86 C 441.781,2207.05 450.954,2195.85 470.244,2195.85 C 488.938,2195.85 498.706,2207.05 498.706,2225.86 Z M 560.064,2220.51 C 560.064,2247.49 528.323,2238.34 528.323,2255.82 C 528.323,2264.57 534.22,2266.47 541.821,2266.47 C 546.334,2266.47 550.73,2265.76 554.763,2263.98 L 557.767,2275.6 C 552.296,2277.03 546.702,2277.86 540.994,2277.86 C 526.474,2277.86 513.122,2270.84 513.122,2254.75 C 513.122,2227.16 544.389,2237.39 544.389,2219.44 C 544.389,2209.74 536.706,2207.13 528.51,2207.13 C 523.522,2207.13 517.941,2208.08 513.435,2210.21 L 513.156,2198.11 C 518.751,2196.33 524.704,2195.85 530.649,2195.85 C 545.878,2195.85 560.064,2203.47 560.064,2220.51 Z M 427.342,2220.75 C 427.342,2231.09 419.614,2237.75 410.223,2239.18 C 418.78,2242.5 424.489,2247.61 424.489,2257.01 C 424.368,2271.39 413.668,2276.5 400.71,2276.5 L 375.388,2276.5 L 375.388,2197.21 L 402.375,2197.21 C 416.525,2197.21 427.342,2206.24 427.342,2220.75 Z M 390.368,2208.62 L 390.368,2232.51 L 400.592,2232.51 C 407.368,2232.51 412.006,2228 412.006,2221.11 C 412.006,2213.73 408.08,2208.62 400.236,2208.62 L 390.368,2208.62 Z M 390.368,2243.69 L 390.368,2265.21 L 398.808,2265.21 C 405.585,2265.21 409.509,2261.76 409.509,2255.1 C 409.509,2247.85 404.874,2243.69 397.737,2243.69 L 390.368,2243.69 Z" fill="#00586a" stroke-width="0.5" marker-start="none" marker-end="none"/>
  </g>
 </g>
</svg>
