<?xml version="1.0" standalone="no"?>
<!DOCTYPE svg PUBLIC "-//W3C//DTD SVG 1.1//EN" "http://www.w3.org/Graphics/SVG/1.1/DTD/svg11.dtd">
<!--Generator: Xara Designer (www.xara.com), SVG filter version: 6.3.0.31-->
<svg fill="none" fill-rule="evenodd" stroke="black" stroke-width="0.501" stroke-linejoin="bevel" stroke-miterlimit="10" font-family="Times New Roman" font-size="16" style="font-variant-ligatures:none" xmlns:xlink="http://www.w3.org/1999/xlink" xmlns="http://www.w3.org/2000/svg" version="1.1" overflow="visible" width="29.491pt" height="55.759pt" viewBox="1111.33 -663.724 29.491 55.759">
 <defs>
	</defs>
 <g id="Layer 1" transform="scale(1 -1)">
  <g id="Group" stroke-linejoin="miter" stroke-linecap="round" stroke="none" stroke-width="0.5">
   <rect x="1111.332" y="607.966" width="29.49" height="55.758" stroke-opacity="0.501961" fill-opacity="0.501961"/>
   <path d="M 1119.08,643.984 L 1117.66,638.679 L 1119.08,633.373 L 1122.96,629.489 L 1128.27,628.068 L 1133.57,629.49 L 1137.46,633.373 L 1138.88,638.679 L 1137.46,643.984 L 1133.57,647.868 L 1128.27,649.29 L 1128.27,638.68 L 1119.08,643.984 Z" stroke-opacity="0.498039" fill="#ffffff" marker-start="none" marker-end="none" fill-opacity="0.498039"/>
   <path d="M 1116.65,638.68 C 1116.65,645.092 1121.86,650.296 1128.27,650.296 C 1134.68,650.296 1139.88,645.092 1139.88,638.68 C 1139.88,632.268 1134.68,627.064 1128.27,627.064 C 1121.86,627.064 1116.65,632.268 1116.65,638.68 Z M 1137.86,638.68 C 1137.86,643.974 1133.56,648.271 1128.27,648.271 C 1122.97,648.271 1118.68,643.974 1118.68,638.68 C 1118.68,633.386 1122.97,629.089 1128.27,629.089 C 1133.56,629.089 1137.86,633.386 1137.86,638.68 Z" fill="#ffffff" marker-start="none" marker-end="none"/>
  </g>
 </g>
</svg>
