<?xml version="1.0" standalone="no"?>
<!DOCTYPE svg PUBLIC "-//W3C//DTD SVG 1.1//EN" "http://www.w3.org/Graphics/SVG/1.1/DTD/svg11.dtd">
<!--Generator: Xara Designer (www.xara.com), SVG filter version: 6.3.0.31-->
<svg fill="none" fill-rule="evenodd" stroke="black" stroke-width="0.501" stroke-linejoin="bevel" stroke-miterlimit="10" font-family="Times New Roman" font-size="16" style="font-variant-ligatures:none" xmlns:xlink="http://www.w3.org/1999/xlink" xmlns="http://www.w3.org/2000/svg" version="1.1" overflow="visible" width="29.491pt" height="55.759pt" viewBox="1046.41 -722.597 29.491 55.759">
 <defs>
	</defs>
 <g id="Layer 1" transform="scale(1 -1)">
  <g id="Group" stroke-linecap="round" stroke="none" stroke-width="0.5">
   <rect x="1046.412" y="666.839" width="29.49" height="55.758" stroke-linejoin="miter" stroke-opacity="0.501961" fill-opacity="0.501961"/>
   <path d="M 1051.74,697.763 C 1051.86,704.168 1057.15,709.273 1063.56,709.158 C 1069.96,709.043 1075.07,703.748 1074.95,697.343 C 1074.84,690.938 1069.54,685.833 1063.14,685.948 C 1056.73,686.063 1051.63,691.358 1051.74,697.763 Z M 1072.93,697.38 C 1073.01,701.985 1069.89,705.537 1066.25,706.694 L 1063.35,697.553 L 1063.35,707.134 C 1058.14,707.135 1053.86,702.956 1053.77,697.726 C 1053.67,692.439 1057.89,688.068 1063.17,687.973 C 1068.46,687.878 1072.83,692.092 1072.93,697.38 Z" fill="#ffffff" stroke-linejoin="round" marker-start="none" marker-end="none"/>
  </g>
 </g>
</svg>
