<?xml version="1.0" standalone="no"?>
<!DOCTYPE svg PUBLIC "-//W3C//DTD SVG 1.1//EN" "http://www.w3.org/Graphics/SVG/1.1/DTD/svg11.dtd">
<!--Generator: Xara Designer (www.xara.com), SVG filter version: 6.3.0.31-->
<svg fill="none" fill-rule="evenodd" stroke="black" stroke-width="0.501" stroke-linejoin="bevel" stroke-miterlimit="10" font-family="Times New Roman" font-size="16" style="font-variant-ligatures:none" xmlns:xlink="http://www.w3.org/1999/xlink" xmlns="http://www.w3.org/2000/svg" version="1.1" overflow="visible" width="65.851pt" height="249.007pt" viewBox="3292.37 -2967.15 65.851 249.007">
 <defs>
	</defs>
 <g id="Layer 1" transform="scale(1 -1)">
  <g id="Group" stroke-linejoin="miter" stroke="none">
   <rect x="3292.375" y="2718.147" width="65.85" height="249.007" stroke-linecap="round" stroke-width="0.5"/>
   <path d="M 3319.25,2779.35 L 3319.25,2798.91 L 3299.68,2798.91 L 3299.68,2811.02 L 3319.25,2811.02 L 3319.25,2830.59 L 3331.36,2830.59 L 3331.36,2811.02 L 3350.92,2811.02 L 3350.92,2798.91 L 3331.36,2798.91 L 3331.36,2779.35 L 3319.25,2779.35 Z" fill="#ffffff" stroke-width="0" stroke-opacity="0.501961" fill-rule="evenodd" marker-start="none" marker-end="none" fill-opacity="0.501961"/>
   <path d="M 3319.25,2848.24 L 3319.25,2867.81 L 3299.68,2867.81 L 3299.68,2879.92 L 3319.25,2879.92 L 3319.25,2899.48 L 3331.36,2899.48 L 3331.36,2879.92 L 3350.92,2879.92 L 3350.92,2867.81 L 3331.36,2867.81 L 3331.36,2848.24 L 3319.25,2848.24 Z" fill="#ffffff" stroke-width="0" stroke-opacity="0.501961" fill-rule="evenodd" marker-start="none" marker-end="none" fill-opacity="0.501961"/>
  </g>
 </g>
</svg>
