<?xml version="1.0" standalone="no"?>
<!DOCTYPE svg PUBLIC "-//W3C//DTD SVG 1.1//EN" "http://www.w3.org/Graphics/SVG/1.1/DTD/svg11.dtd">
<!--Generator: Xara Designer (www.xara.com), SVG filter version: 6.3.0.31-->
<svg fill="none" fill-rule="evenodd" stroke="black" stroke-width="0.501" stroke-linejoin="bevel" stroke-miterlimit="10" font-family="Times New Roman" font-size="16" style="font-variant-ligatures:none" xmlns:xlink="http://www.w3.org/1999/xlink" xmlns="http://www.w3.org/2000/svg" version="1.1" overflow="visible" width="29.491pt" height="55.759pt" viewBox="1111.33 -425.927 29.491 55.759">
 <defs>
	</defs>
 <g id="Layer 1" transform="scale(1 -1)">
  <g id="Group" stroke-linejoin="miter" stroke-linecap="round" stroke="none" stroke-width="0.5">
   <rect x="1111.332" y="370.169" width="29.49" height="55.758" stroke-opacity="0.501961" fill-opacity="0.501961"/>
   <path d="M 1128.27,390.271 L 1133.57,391.693 L 1137.46,395.576 L 1138.88,400.882 L 1137.46,406.187 L 1133.57,410.071 L 1128.27,411.493 L 1128.27,400.883 L 1128.27,390.271 Z" stroke-opacity="0.498039" fill="#ffffff" marker-start="none" marker-end="none" fill-opacity="0.498039"/>
   <path d="M 1116.65,400.883 C 1116.65,407.295 1121.86,412.499 1128.27,412.499 C 1134.68,412.499 1139.88,407.295 1139.88,400.883 C 1139.88,394.471 1134.68,389.267 1128.27,389.267 C 1121.86,389.267 1116.65,394.471 1116.65,400.883 Z M 1137.86,400.883 C 1137.86,406.177 1133.56,410.474 1128.27,410.474 C 1122.97,410.474 1118.68,406.177 1118.68,400.883 C 1118.68,395.589 1122.97,391.292 1128.27,391.292 C 1133.56,391.292 1137.86,395.589 1137.86,400.883 Z" fill="#ffffff" marker-start="none" marker-end="none"/>
  </g>
 </g>
</svg>
