<?xml version="1.0" standalone="no"?>
<!DOCTYPE svg PUBLIC "-//W3C//DTD SVG 1.1//EN" "http://www.w3.org/Graphics/SVG/1.1/DTD/svg11.dtd">
<!--Generator: Xara Designer (www.xara.com), SVG filter version: 6.3.0.31-->
<svg fill="none" fill-rule="evenodd" stroke="black" stroke-width="0.501" stroke-linejoin="bevel" stroke-miterlimit="10" font-family="Times New Roman" font-size="16" style="font-variant-ligatures:none" xmlns:xlink="http://www.w3.org/1999/xlink" xmlns="http://www.w3.org/2000/svg" version="1.1" overflow="visible" width="65.851pt" height="249.007pt" viewBox="3367.67 -2967.15 65.851 249.007">
 <defs>
	</defs>
 <g id="Layer 1" transform="scale(1 -1)">
  <g id="Group" stroke-linejoin="miter" stroke="none">
   <rect x="3367.675" y="2718.147" width="65.85" height="249.007" stroke-linecap="round" stroke-width="0.5"/>
   <path d="M 3394.55,2745.1 L 3394.55,2764.67 L 3374.98,2764.67 L 3374.98,2776.78 L 3394.55,2776.78 L 3394.55,2796.34 L 3406.66,2796.34 L 3406.66,2776.78 L 3426.22,2776.78 L 3426.22,2764.67 L 3406.66,2764.67 L 3406.66,2745.1 L 3394.55,2745.1 Z" fill="#ffffff" stroke-width="0" stroke-opacity="0.501961" fill-rule="evenodd" marker-start="none" marker-end="none" fill-opacity="0.501961"/>
   <path d="M 3394.55,2814 L 3394.55,2833.56 L 3374.98,2833.56 L 3374.98,2845.67 L 3394.55,2845.67 L 3394.55,2865.24 L 3406.66,2865.24 L 3406.66,2845.67 L 3426.22,2845.67 L 3426.22,2833.56 L 3406.66,2833.56 L 3406.66,2814 L 3394.55,2814 Z" fill="#ffffff" stroke-width="0" stroke-opacity="0.501961" fill-rule="evenodd" marker-start="none" marker-end="none" fill-opacity="0.501961"/>
   <path d="M 3394.55,2882.89 L 3394.55,2902.46 L 3374.98,2902.46 L 3374.98,2914.57 L 3394.55,2914.57 L 3394.55,2934.13 L 3406.66,2934.13 L 3406.66,2914.57 L 3426.22,2914.57 L 3426.22,2902.46 L 3406.66,2902.46 L 3406.66,2882.89 L 3394.55,2882.89 Z" fill="#ffffff" stroke-width="0" stroke-opacity="0.501961" fill-rule="evenodd" marker-start="none" marker-end="none" fill-opacity="0.501961"/>
  </g>
 </g>
</svg>
