<?xml version="1.0" standalone="no"?>
<!DOCTYPE svg PUBLIC "-//W3C//DTD SVG 1.1//EN" "http://www.w3.org/Graphics/SVG/1.1/DTD/svg11.dtd">
<!--Generator: Xara Designer (www.xara.com), SVG filter version: 6.3.0.31-->
<svg fill="none" fill-rule="evenodd" stroke="black" stroke-width="0.501" stroke-linejoin="bevel" stroke-miterlimit="10" font-family="Times New Roman" font-size="16" style="font-variant-ligatures:none" xmlns:xlink="http://www.w3.org/1999/xlink" xmlns="http://www.w3.org/2000/svg" version="1.1" overflow="visible" width="29.491pt" height="55.759pt" viewBox="1111.33 -604.895 29.491 55.759">
 <defs>
	</defs>
 <g id="Layer 1" transform="scale(1 -1)">
  <g id="Group" stroke-linejoin="miter" stroke-linecap="round" stroke="none" stroke-width="0.5">
   <rect x="1111.332" y="549.137" width="29.49" height="55.758" stroke-opacity="0.501961" fill-opacity="0.501961"/>
   <path d="M 1117.66,579.85 L 1119.08,574.544 L 1122.96,570.66 L 1128.27,569.239 L 1133.57,570.661 L 1137.46,574.544 L 1138.88,579.85 L 1137.46,585.155 L 1133.57,589.039 L 1128.27,590.461 L 1128.27,579.851 L 1117.66,579.85 Z" stroke-opacity="0.498039" fill="#ffffff" marker-start="none" marker-end="none" fill-opacity="0.498039"/>
   <path d="M 1116.65,579.851 C 1116.65,586.263 1121.86,591.467 1128.27,591.467 C 1134.68,591.467 1139.88,586.263 1139.88,579.851 C 1139.88,573.439 1134.68,568.235 1128.27,568.235 C 1121.86,568.235 1116.65,573.439 1116.65,579.851 Z M 1137.86,579.851 C 1137.86,585.145 1133.56,589.442 1128.27,589.442 C 1122.97,589.442 1118.68,585.145 1118.68,579.851 C 1118.68,574.557 1122.97,570.26 1128.27,570.26 C 1133.56,570.26 1137.86,574.557 1137.86,579.851 Z" fill="#ffffff" marker-start="none" marker-end="none"/>
  </g>
 </g>
</svg>
