<?xml version="1.0" standalone="no"?>
<!DOCTYPE svg PUBLIC "-//W3C//DTD SVG 1.1//EN" "http://www.w3.org/Graphics/SVG/1.1/DTD/svg11.dtd">
<!--Generator: Xara Designer (www.xara.com), SVG filter version: 6.3.0.31-->
<svg fill="none" fill-rule="evenodd" stroke="black" stroke-width="0.501" stroke-linejoin="bevel" stroke-miterlimit="10" font-family="Times New Roman" font-size="16" style="font-variant-ligatures:none" xmlns:xlink="http://www.w3.org/1999/xlink" xmlns="http://www.w3.org/2000/svg" version="1.1" overflow="visible" width="29.491pt" height="55.759pt" viewBox="1111.33 -545.645 29.491 55.759">
 <defs>
	</defs>
 <g id="Layer 1" transform="scale(1 -1)">
  <g id="Group" stroke-linejoin="miter" stroke-linecap="round" stroke="none" stroke-width="0.5">
   <rect x="1111.332" y="489.887" width="29.49" height="55.758" stroke-opacity="0.501961" fill-opacity="0.501961"/>
   <path d="M 1119.08,515.294 L 1122.96,511.41 L 1128.27,509.989 L 1133.57,511.411 L 1137.46,515.294 L 1138.88,520.6 L 1137.46,525.905 L 1133.57,529.789 L 1128.27,531.211 L 1128.27,520.601 L 1119.08,515.294 Z" stroke-opacity="0.498039" fill="#ffffff" marker-start="none" marker-end="none" fill-opacity="0.498039"/>
   <path d="M 1116.65,520.601 C 1116.65,527.013 1121.86,532.217 1128.27,532.217 C 1134.68,532.217 1139.88,527.013 1139.88,520.601 C 1139.88,514.189 1134.68,508.985 1128.27,508.985 C 1121.86,508.985 1116.65,514.189 1116.65,520.601 Z M 1137.86,520.601 C 1137.86,525.895 1133.56,530.192 1128.27,530.192 C 1122.97,530.192 1118.68,525.895 1118.68,520.601 C 1118.68,515.307 1122.97,511.01 1128.27,511.01 C 1133.56,511.01 1137.86,515.307 1137.86,520.601 Z" fill="#ffffff" marker-start="none" marker-end="none"/>
  </g>
 </g>
</svg>
