<?xml version="1.0" standalone="no"?>
<!DOCTYPE svg PUBLIC "-//W3C//DTD SVG 1.1//EN" "http://www.w3.org/Graphics/SVG/1.1/DTD/svg11.dtd">
<!--Generator: Xara Designer (www.xara.com), SVG filter version: 6.3.0.31-->
<svg fill="none" fill-rule="evenodd" stroke="black" stroke-width="0.501" stroke-linejoin="bevel" stroke-miterlimit="10" font-family="Times New Roman" font-size="16" style="font-variant-ligatures:none" xmlns:xlink="http://www.w3.org/1999/xlink" xmlns="http://www.w3.org/2000/svg" version="1.1" overflow="visible" width="29.491pt" height="55.759pt" viewBox="1111.33 -189.627 29.491 55.759">
 <defs>
	</defs>
 <g id="Layer 1" transform="scale(1 -1)">
  <g id="Group" stroke-linejoin="miter" stroke-linecap="round" stroke="none" stroke-width="0.5">
   <rect x="1111.332" y="133.869" width="29.49" height="55.758" stroke-opacity="0.501961" fill-opacity="0.501961"/>
   <path d="M 1128.27,164.583 L 1137.46,169.887 L 1133.57,173.771 L 1128.27,175.193 L 1128.27,164.583 Z" stroke-opacity="0.498039" fill="#ffffff" marker-start="none" marker-end="none" fill-opacity="0.498039"/>
   <path d="M 1116.65,164.583 C 1116.65,170.995 1121.86,176.199 1128.27,176.199 C 1134.68,176.199 1139.88,170.995 1139.88,164.583 C 1139.88,158.171 1134.68,152.967 1128.27,152.967 C 1121.86,152.967 1116.65,158.171 1116.65,164.583 Z M 1137.86,164.583 C 1137.86,169.877 1133.56,174.174 1128.27,174.174 C 1122.97,174.174 1118.68,169.877 1118.68,164.583 C 1118.68,159.289 1122.97,154.992 1128.27,154.992 C 1133.56,154.992 1137.86,159.289 1137.86,164.583 Z" fill="#ffffff" marker-start="none" marker-end="none"/>
  </g>
 </g>
</svg>
