<?xml version="1.0" standalone="no"?>
<!DOCTYPE svg PUBLIC "-//W3C//DTD SVG 1.1//EN" "http://www.w3.org/Graphics/SVG/1.1/DTD/svg11.dtd">
<!--Generator: Xara Designer (www.xara.com), SVG filter version: 6.3.0.31-->
<svg fill="none" fill-rule="evenodd" stroke="black" stroke-width="0.501" stroke-linejoin="bevel" stroke-miterlimit="10" font-family="Times New Roman" font-size="16" style="font-variant-ligatures:none" xmlns:xlink="http://www.w3.org/1999/xlink" xmlns="http://www.w3.org/2000/svg" version="1.1" overflow="visible" width="29.491pt" height="55.759pt" viewBox="1111.33 -247.827 29.491 55.759">
 <defs>
	</defs>
 <g id="Layer 1" transform="scale(1 -1)">
  <g id="Group" stroke-linejoin="miter" stroke-linecap="round" stroke="none" stroke-width="0.5">
   <rect x="1111.332" y="192.069" width="29.49" height="55.758" stroke-opacity="0.501961" fill-opacity="0.501961"/>
   <path d="M 1128.27,222.783 L 1138.88,222.782 L 1137.46,228.087 L 1133.57,231.971 L 1128.27,233.393 L 1128.27,222.783 Z" stroke-opacity="0.498039" fill="#ffffff" marker-start="none" marker-end="none" fill-opacity="0.498039"/>
   <path d="M 1116.65,222.783 C 1116.65,229.195 1121.86,234.399 1128.27,234.399 C 1134.68,234.399 1139.88,229.195 1139.88,222.783 C 1139.88,216.371 1134.68,211.167 1128.27,211.167 C 1121.86,211.167 1116.65,216.371 1116.65,222.783 Z M 1137.86,222.783 C 1137.86,228.077 1133.56,232.374 1128.27,232.374 C 1122.97,232.374 1118.68,228.077 1118.68,222.783 C 1118.68,217.489 1122.97,213.192 1128.27,213.192 C 1133.56,213.192 1137.86,217.489 1137.86,222.783 Z" fill="#ffffff" marker-start="none" marker-end="none"/>
  </g>
 </g>
</svg>
