<?xml version="1.0" standalone="no"?>
<!DOCTYPE svg PUBLIC "-//W3C//DTD SVG 1.1//EN" "http://www.w3.org/Graphics/SVG/1.1/DTD/svg11.dtd">
<!--Generator: Xara Designer (www.xara.com), SVG filter version: 6.3.0.31-->
<svg fill="none" fill-rule="evenodd" stroke="black" stroke-width="0.501" stroke-linejoin="bevel" stroke-miterlimit="10" font-family="Times New Roman" font-size="16" style="font-variant-ligatures:none" xmlns:xlink="http://www.w3.org/1999/xlink" xmlns="http://www.w3.org/2000/svg" version="1.1" overflow="visible" width="29.491pt" height="55.759pt" viewBox="1111.33 -306.773 29.491 55.759">
 <defs>
	</defs>
 <g id="Layer 1" transform="scale(1 -1)">
  <g id="Group" stroke-linejoin="miter" stroke-linecap="round" stroke="none" stroke-width="0.5">
   <rect x="1111.332" y="251.015" width="29.49" height="55.758" stroke-opacity="0.501961" fill-opacity="0.501961"/>
   <path d="M 1137.46,276.422 L 1138.88,281.728 L 1137.46,287.033 L 1133.57,290.917 L 1128.27,292.339 L 1128.27,281.729 L 1137.46,276.422 Z" stroke-opacity="0.498039" fill="#ffffff" marker-start="none" marker-end="none" fill-opacity="0.498039"/>
   <path d="M 1116.65,281.729 C 1116.65,288.141 1121.86,293.345 1128.27,293.345 C 1134.68,293.345 1139.88,288.141 1139.88,281.729 C 1139.88,275.317 1134.68,270.113 1128.27,270.113 C 1121.86,270.113 1116.65,275.317 1116.65,281.729 Z M 1137.86,281.729 C 1137.86,287.023 1133.56,291.32 1128.27,291.32 C 1122.97,291.32 1118.68,287.023 1118.68,281.729 C 1118.68,276.435 1122.97,272.138 1128.27,272.138 C 1133.56,272.138 1137.86,276.435 1137.86,281.729 Z" fill="#ffffff" marker-start="none" marker-end="none"/>
  </g>
 </g>
</svg>
