<?xml version="1.0" standalone="no"?>
<!DOCTYPE svg PUBLIC "-//W3C//DTD SVG 1.1//EN" "http://www.w3.org/Graphics/SVG/1.1/DTD/svg11.dtd">
<!--Generator: Xara Designer (www.xara.com), SVG filter version: 6.3.0.31-->
<svg fill="none" fill-rule="evenodd" stroke="black" stroke-width="0.501" stroke-linejoin="bevel" stroke-miterlimit="10" font-family="Times New Roman" font-size="16" style="font-variant-ligatures:none" xmlns:xlink="http://www.w3.org/1999/xlink" xmlns="http://www.w3.org/2000/svg" version="1.1" overflow="visible" width="29.491pt" height="55.759pt" viewBox="1077.35 -722.597 29.491 55.759">
 <defs>
	</defs>
 <g id="Layer 1" transform="scale(1 -1)">
  <g id="Group" stroke-linejoin="miter" stroke-linecap="round" stroke="none" stroke-width="0.5">
   <rect x="1077.35" y="666.839" width="29.49" height="55.758" stroke-opacity="0.501961" fill-opacity="0.501961"/>
   <path d="M 1082.68,697.763 C 1082.8,704.168 1088.09,709.273 1094.5,709.158 C 1100.9,709.043 1106.01,703.748 1105.89,697.343 C 1105.78,690.938 1100.48,685.833 1094.08,685.948 C 1087.67,686.063 1082.57,691.358 1082.68,697.763 Z M 1103.87,697.38 C 1103.9,699.496 1103.25,701.466 1102.11,703.073 L 1094.29,697.553 L 1094.28,707.134 C 1089.08,707.135 1084.8,702.956 1084.7,697.726 C 1084.61,692.439 1088.82,688.068 1094.11,687.973 C 1099.4,687.878 1103.77,692.092 1103.87,697.38 Z" fill="#ffffff" marker-start="none" marker-end="none"/>
  </g>
 </g>
</svg>
