<?xml version="1.0" standalone="no"?>
<!DOCTYPE svg PUBLIC "-//W3C//DTD SVG 1.1//EN" "http://www.w3.org/Graphics/SVG/1.1/DTD/svg11.dtd">
<!--Generator: Xara Designer (www.xara.com), SVG filter version: 6.3.0.31-->
<svg fill="none" fill-rule="evenodd" stroke="black" stroke-width="0.501" stroke-linejoin="bevel" stroke-miterlimit="10" font-family="Times New Roman" font-size="16" style="font-variant-ligatures:none" xmlns:xlink="http://www.w3.org/1999/xlink" xmlns="http://www.w3.org/2000/svg" version="1.1" overflow="visible" width="29.491pt" height="55.759pt" viewBox="1111.33 -128.877 29.491 55.759">
 <defs>
	</defs>
 <g id="Layer 1" transform="scale(1 -1)">
  <g id="Group" stroke-linejoin="miter" stroke-linecap="round" stroke="none" stroke-width="0.5">
   <rect x="1111.332" y="73.119" width="29.49" height="55.758" stroke-opacity="0.501961" fill-opacity="0.501961"/>
   <path d="M 1128.27,103.833 L 1133.57,113.021 L 1128.27,114.443 L 1128.27,103.833 Z" stroke-opacity="0.498039" fill="#ffffff" marker-start="none" marker-end="none" fill-opacity="0.498039"/>
   <path d="M 1116.65,103.833 C 1116.65,110.245 1121.86,115.449 1128.27,115.449 C 1134.68,115.449 1139.88,110.245 1139.88,103.833 C 1139.88,97.421 1134.68,92.217 1128.27,92.217 C 1121.86,92.217 1116.65,97.421 1116.65,103.833 Z M 1137.86,103.833 C 1137.86,109.127 1133.56,113.424 1128.27,113.424 C 1122.97,113.424 1118.68,109.127 1118.68,103.833 C 1118.68,98.539 1122.97,94.242 1128.27,94.242 C 1133.56,94.242 1137.86,98.539 1137.86,103.833 Z" fill="#ffffff" marker-start="none" marker-end="none"/>
  </g>
 </g>
</svg>
