<?xml version="1.0" standalone="no"?>
<!DOCTYPE svg PUBLIC "-//W3C//DTD SVG 1.1//EN" "http://www.w3.org/Graphics/SVG/1.1/DTD/svg11.dtd">
<!--Generator: Xara Designer (www.xara.com), SVG filter version: 6.3.0.31-->
<svg fill="none" fill-rule="evenodd" stroke="black" stroke-width="0.501" stroke-linejoin="bevel" stroke-miterlimit="10" font-family="Times New Roman" font-size="16" style="font-variant-ligatures:none" xmlns:xlink="http://www.w3.org/1999/xlink" xmlns="http://www.w3.org/2000/svg" version="1.1" overflow="visible" width="29.491pt" height="55.759pt" viewBox="1111.33 -722.599 29.491 55.759">
 <defs>
	</defs>
 <g id="Layer 1" transform="scale(1 -1)">
  <g id="Group" stroke-linejoin="miter" stroke-linecap="round" stroke="none" stroke-width="0.5">
   <rect x="1111.332" y="666.841" width="29.49" height="55.758" stroke-opacity="0.501961" fill-opacity="0.501961"/>
   <path d="M 1122.96,706.743 L 1119.08,702.859 L 1117.66,697.554 L 1119.08,692.248 L 1122.96,688.364 L 1128.27,686.943 L 1133.57,688.365 L 1137.46,692.248 L 1138.88,697.554 L 1137.46,702.859 L 1133.57,706.743 L 1128.27,708.165 L 1128.27,697.555 L 1122.96,706.743 Z" stroke-opacity="0.498039" fill="#ffffff" marker-start="none" marker-end="none" fill-opacity="0.498039"/>
   <path d="M 1116.65,697.555 C 1116.65,703.967 1121.86,709.171 1128.27,709.171 C 1134.68,709.171 1139.88,703.967 1139.88,697.555 C 1139.88,691.143 1134.68,685.939 1128.27,685.939 C 1121.86,685.939 1116.65,691.143 1116.65,697.555 Z M 1137.86,697.555 C 1137.86,702.849 1133.56,707.146 1128.27,707.146 C 1122.97,707.146 1118.68,702.849 1118.68,697.555 C 1118.68,692.261 1122.97,687.964 1128.27,687.964 C 1133.56,687.964 1137.86,692.261 1137.86,697.555 Z" fill="#ffffff" marker-start="none" marker-end="none"/>
  </g>
 </g>
</svg>
