<?xml version="1.0" standalone="no"?>
<!DOCTYPE svg PUBLIC "-//W3C//DTD SVG 1.1//EN" "http://www.w3.org/Graphics/SVG/1.1/DTD/svg11.dtd">
<!--Generator: Xara Designer (www.xara.com), SVG filter version: 6.3.0.31-->
<svg fill="none" fill-rule="evenodd" stroke="black" stroke-width="0.501" stroke-linejoin="bevel" stroke-miterlimit="10" font-family="Times New Roman" font-size="16" style="font-variant-ligatures:none" xmlns:xlink="http://www.w3.org/1999/xlink" xmlns="http://www.w3.org/2000/svg" version="1.1" overflow="visible" width="29.491pt" height="55.759pt" viewBox="1111.33 -485.176 29.491 55.759">
 <defs>
	</defs>
 <g id="Layer 1" transform="scale(1 -1)">
  <g id="Group" stroke-linejoin="miter" stroke-linecap="round" stroke="none" stroke-width="0.5">
   <path d="M 1122.96,450.941 L 1128.27,449.52 L 1133.57,450.942 L 1137.46,454.825 L 1138.88,460.131 L 1137.46,465.436 L 1133.57,469.32 L 1128.27,470.742 L 1128.27,460.132 L 1122.96,450.941 Z" stroke-opacity="0.498039" fill="#ffffff" marker-start="none" marker-end="none" fill-opacity="0.498039"/>
   <rect x="1111.332" y="429.418" width="29.49" height="55.758" stroke-opacity="0.501961" fill-opacity="0.501961"/>
   <path d="M 1116.65,460.132 C 1116.65,466.544 1121.86,471.748 1128.27,471.748 C 1134.68,471.748 1139.88,466.544 1139.88,460.132 C 1139.88,453.72 1134.68,448.516 1128.27,448.516 C 1121.86,448.516 1116.65,453.72 1116.65,460.132 Z M 1137.86,460.132 C 1137.86,465.426 1133.56,469.723 1128.27,469.723 C 1122.97,469.723 1118.68,465.426 1118.68,460.132 C 1118.68,454.838 1122.97,450.541 1128.27,450.541 C 1133.56,450.541 1137.86,454.838 1137.86,460.132 Z" fill="#ffffff" marker-start="none" marker-end="none"/>
  </g>
 </g>
</svg>
