<?xml version="1.0" standalone="no"?>
<!DOCTYPE svg PUBLIC "-//W3C//DTD SVG 1.1//EN" "http://www.w3.org/Graphics/SVG/1.1/DTD/svg11.dtd">
<!--Generator: Xara Designer (www.xara.com), SVG filter version: 6.3.0.31-->
<svg fill="none" fill-rule="evenodd" stroke="black" stroke-width="0.501" stroke-linejoin="bevel" stroke-miterlimit="10" font-family="Times New Roman" font-size="16" style="font-variant-ligatures:none" xmlns:xlink="http://www.w3.org/1999/xlink" xmlns="http://www.w3.org/2000/svg" version="1.1" overflow="visible" width="29.491pt" height="55.759pt" viewBox="1111.33 -366.398 29.491 55.759">
 <defs>
	</defs>
 <g id="Layer 1" transform="scale(1 -1)">
  <g id="Group" stroke-linejoin="miter" stroke-linecap="round" stroke="none" stroke-width="0.5">
   <rect x="1111.332" y="310.64" width="29.49" height="55.758" stroke-opacity="0.501961" fill-opacity="0.501961"/>
   <path d="M 1133.57,332.164 L 1137.46,336.047 L 1138.88,341.353 L 1137.46,346.658 L 1133.57,350.542 L 1128.27,351.964 L 1128.27,341.354 L 1133.57,332.164 Z" stroke-opacity="0.498039" fill="#ffffff" marker-start="none" marker-end="none" fill-opacity="0.498039"/>
   <path d="M 1116.65,341.354 C 1116.65,347.766 1121.86,352.97 1128.27,352.97 C 1134.68,352.97 1139.88,347.766 1139.88,341.354 C 1139.88,334.942 1134.68,329.738 1128.27,329.738 C 1121.86,329.738 1116.65,334.942 1116.65,341.354 Z M 1137.86,341.354 C 1137.86,346.648 1133.56,350.945 1128.27,350.945 C 1122.97,350.945 1118.68,346.648 1118.68,341.354 C 1118.68,336.06 1122.97,331.763 1128.27,331.763 C 1133.56,331.763 1137.86,336.06 1137.86,341.354 Z" fill="#ffffff" marker-start="none" marker-end="none"/>
  </g>
 </g>
</svg>
