<?xml version="1.0" standalone="no"?>
<!DOCTYPE svg PUBLIC "-//W3C//DTD SVG 1.1//EN" "http://www.w3.org/Graphics/SVG/1.1/DTD/svg11.dtd">
<!--Generator: Xara Designer (www.xara.com), SVG filter version: 6.3.0.31-->
<svg fill="none" fill-rule="evenodd" stroke="black" stroke-width="0.501" stroke-linejoin="bevel" stroke-miterlimit="10" font-family="Times New Roman" font-size="16" style="font-variant-ligatures:none" xmlns:xlink="http://www.w3.org/1999/xlink" xmlns="http://www.w3.org/2000/svg" version="1.1" overflow="visible" width="251.495pt" height="251.495pt" viewBox="16.003 -300.745 251.495 251.495">
 <defs>
	</defs>
 <g id="Layer 1" transform="scale(1 -1)">
  <g id="Group" stroke-linejoin="miter" stroke="none">
   <path d="M 141.75,299.501 C 210.476,299.501 266.254,243.723 266.254,174.997 C 266.254,106.271 210.476,50.493 141.75,50.493 C 73.024,50.493 17.246,106.271 17.246,174.997 C 17.246,243.723 73.024,299.501 141.75,299.501 Z" stroke-linecap="round" fill="#ffffff" stroke-width="0.485" marker-start="none" marker-end="none"/>
   <path d="M 29.439,174.997 C 29.439,237.013 79.758,287.356 141.75,287.356 C 203.742,287.356 254.061,237.013 254.061,174.997 C 254.061,112.981 203.742,62.638 141.75,62.638 C 79.758,62.638 29.439,112.981 29.439,174.997 Z M 111.051,115.145 L 114.3,119.884 L 61.921,117.934 L 59.638,115.145 L 111.051,115.145 Z M 194.264,115.145 L 191.61,122.776 L 141.053,120.89 L 142.122,115.145 L 194.264,115.145 Z M 191.166,124.052 L 187.378,134.94 L 138.778,133.117 L 140.102,125.977 L 191.166,124.052 Z M 119.007,126.778 L 122.946,132.539 L 72.365,130.645 L 70.685,128.6 L 119.007,126.778 Z M 186.768,136.699 L 183.147,147.096 L 136.496,145.352 L 137.764,138.553 L 186.768,136.699 Z M 127.336,138.957 L 131.583,145.17 L 82.809,143.355 L 80.646,140.724 L 127.336,138.957 Z M 182.37,149.338 L 178.923,159.251 L 93.253,156.058 L 90.591,152.817 L 182.37,149.338 Z M 177.972,161.993 L 174.691,171.415 L 103.69,168.769 L 100.536,164.925 L 177.972,161.993 Z M 173.574,174.656 L 171.537,180.496 L 174.113,183.722 L 112.985,181.439 L 113.326,180.496 L 110.489,177.041 L 173.574,174.656 Z M 176.744,187.01 L 184.24,196.416 L 108.571,193.587 L 110.045,189.546 L 176.744,187.01 Z M 186.403,199.134 L 194.367,209.119 L 104.157,205.751 L 105.441,202.201 L 186.403,199.134 Z M 196.063,211.259 L 204.495,221.806 L 156.6,220.023 L 152.091,212.923 L 196.063,211.259 Z M 147.21,213.097 L 146.061,219.627 L 99.735,217.899 L 100.845,214.856 L 147.21,213.097 Z M 205.739,223.367 L 214.63,234.508 L 164.604,232.638 L 159.825,225.11 L 205.739,223.367 Z M 144.999,225.665 L 143.897,231.862 L 95.329,230.047 L 96.257,227.511 L 144.999,225.665 Z M 215.406,235.491 L 221.104,242.631 L 170.927,242.631 L 167.552,237.298 L 215.406,235.491 Z M 142.78,238.233 L 142.004,242.623 L 90.757,242.623 L 91.661,240.166 L 142.78,238.233 Z" stroke-width="0.25" fill="#4d9380" marker-start="none" marker-end="none"/>
   <path d="M 16.003,300.745 L 16.003,49.25 L 267.498,49.25 L 267.498,300.745 L 16.003,300.745 Z" stroke-width="0.499" stroke-linecap="round" marker-start="none" marker-end="none"/>
  </g>
 </g>
</svg>
