<?xml version="1.0" standalone="no"?>
<!DOCTYPE svg PUBLIC "-//W3C//DTD SVG 1.1//EN" "http://www.w3.org/Graphics/SVG/1.1/DTD/svg11.dtd">
<!--Generator: Xara Designer (www.xara.com), SVG filter version: 6.3.0.31-->
<svg fill="none" fill-rule="evenodd" stroke="black" stroke-width="0.501" stroke-linejoin="bevel" stroke-miterlimit="10" font-family="Times New Roman" font-size="16" style="font-variant-ligatures:none" xmlns:xlink="http://www.w3.org/1999/xlink" xmlns="http://www.w3.org/2000/svg" version="1.1" overflow="visible" width="249.008pt" height="249.008pt" viewBox="17.246 -299.493 249.008 249.008">
 <defs>
	</defs>
 <g id="Layer 1" transform="scale(1 -1)">
  <g id="Group" stroke-linejoin="miter" stroke="none">
   <path d="M 141.75,299.493 C 210.476,299.493 266.254,243.715 266.254,174.989 C 266.254,106.263 210.476,50.485 141.75,50.485 C 73.024,50.485 17.246,106.263 17.246,174.989 C 17.246,243.715 73.024,299.493 141.75,299.493 Z" stroke-linecap="round" fill="#ffffff" stroke-width="0.485" marker-start="none" marker-end="none"/>
   <path d="M 29.439,174.989 C 29.439,237.005 79.758,287.348 141.75,287.348 C 203.742,287.348 254.061,237.005 254.061,174.989 C 254.061,112.973 203.742,62.63 141.75,62.63 C 79.758,62.63 29.439,112.973 29.439,174.989 Z M 111.051,115.137 L 114.3,119.876 L 61.921,117.926 L 59.638,115.137 L 111.051,115.137 Z M 194.264,115.137 L 191.61,122.768 L 141.053,120.882 L 142.122,115.137 L 194.264,115.137 Z M 191.166,124.044 L 187.378,134.932 L 138.778,133.109 L 140.102,125.969 L 191.166,124.044 Z M 119.007,126.77 L 122.946,132.531 L 72.365,130.637 L 70.685,128.592 L 119.007,126.77 Z M 186.768,136.691 L 183.147,147.088 L 136.496,145.344 L 137.764,138.545 L 186.768,136.691 Z M 127.336,138.949 L 131.583,145.162 L 82.809,143.347 L 80.646,140.716 L 127.336,138.949 Z M 182.37,149.33 L 178.923,159.243 L 93.253,156.05 L 90.591,152.809 L 182.37,149.33 Z M 177.972,161.985 L 174.691,171.407 L 103.69,168.761 L 100.536,164.917 L 177.972,161.985 Z M 173.574,174.648 L 171.537,180.488 L 174.113,183.714 L 112.985,181.431 L 113.326,180.488 L 110.489,177.033 L 173.574,174.648 Z M 176.744,187.002 L 184.24,196.408 L 108.571,193.579 L 110.045,189.538 L 176.744,187.002 Z M 186.403,199.126 L 194.367,209.111 L 104.157,205.743 L 105.441,202.193 L 186.403,199.126 Z M 196.063,211.251 L 204.495,221.798 L 156.6,220.015 L 152.091,212.915 L 196.063,211.251 Z M 147.21,213.089 L 146.061,219.619 L 99.735,217.891 L 100.845,214.848 L 147.21,213.089 Z M 205.739,223.359 L 214.63,234.5 L 164.604,232.63 L 159.825,225.102 L 205.739,223.359 Z M 144.999,225.657 L 143.897,231.854 L 95.329,230.039 L 96.257,227.503 L 144.999,225.657 Z M 215.406,235.483 L 221.104,242.623 L 170.927,242.623 L 167.552,237.29 L 215.406,235.483 Z M 142.78,238.225 L 142.004,242.615 L 90.757,242.615 L 91.661,240.158 L 142.78,238.225 Z" stroke-width="0.25" fill="#4d9380" marker-start="none" marker-end="none"/>
  </g>
 </g>
</svg>
