<?xml version="1.0" standalone="no"?>
<!DOCTYPE svg PUBLIC "-//W3C//DTD SVG 1.1//EN" "http://www.w3.org/Graphics/SVG/1.1/DTD/svg11.dtd">
<!--Generator: Xara Designer (www.xara.com), SVG filter version: 6.3.0.31-->
<svg fill="none" fill-rule="evenodd" stroke="black" stroke-width="0.501" stroke-linejoin="bevel" stroke-miterlimit="10" font-family="Times New Roman" font-size="16" style="font-variant-ligatures:none" xmlns:xlink="http://www.w3.org/1999/xlink" xmlns="http://www.w3.org/2000/svg" version="1.1" overflow="visible" width="56.315pt" height="56.314pt" viewBox="217.388 -192.068 56.315 56.314">
 <defs>
	</defs>
 <g id="Layer 1" transform="scale(1 -1)">
  <g id="Group" stroke-linejoin="miter" stroke="none">
   <path d="M 245.545,191.79 C 260.934,191.79 273.424,179.3 273.424,163.911 C 273.424,148.522 260.934,136.032 245.545,136.032 C 230.156,136.032 217.666,148.522 217.666,163.911 C 217.666,179.3 230.156,191.79 245.545,191.79 Z" stroke-linecap="round" fill="#ffffff" stroke-width="0.485" marker-start="none" marker-end="none"/>
   <path d="M 217.388,192.068 L 217.388,135.754 L 273.703,135.754 L 273.703,192.068 L 217.388,192.068 Z" stroke-linecap="round" stroke-width="0.499" marker-start="none" marker-end="none"/>
   <path d="M 220.397,163.912 C 220.397,177.798 231.665,189.071 245.546,189.071 C 259.427,189.071 270.694,177.798 270.694,163.912 C 270.694,150.025 259.427,138.752 245.546,138.752 C 231.665,138.752 220.397,150.025 220.397,163.912 Z M 238.671,150.509 L 239.618,151.894 L 227.939,151.459 L 227.158,150.509 L 238.671,150.509 Z M 257.304,150.509 L 256.602,152.525 L 245.33,152.106 L 245.628,150.509 L 257.304,150.509 Z M 256.285,153.437 L 255.007,157.111 L 244.473,156.719 L 245,153.884 L 256.285,153.437 Z M 241.085,154.039 L 242.878,156.66 L 231.875,156.251 L 230.406,154.462 L 241.085,154.039 Z M 254.617,158.233 L 253.412,161.698 L 235.812,161.043 L 234.169,159.043 L 254.617,158.233 Z M 252.949,163.03 L 252.215,165.142 L 253.165,166.333 L 238.939,165.804 L 239.18,165.142 L 237.933,163.625 L 252.949,163.03 Z M 254.262,167.708 L 256.985,171.121 L 237.274,170.388 L 238.014,168.351 L 254.262,167.708 Z M 257.92,172.293 L 260.804,175.909 L 249.818,175.501 L 248.029,172.685 L 257.92,172.293 Z M 246.714,172.737 L 246.251,175.368 L 235.609,174.972 L 236.27,173.151 L 246.714,172.737 Z M 261.578,176.879 L 263.314,179.055 L 252.078,179.055 L 250.962,177.3 L 261.578,176.879 Z M 245.875,177.501 L 245.602,179.053 L 234.127,179.053 L 234.527,177.951 L 245.875,177.501 Z" stroke-width="0.25" fill="#4d9380" marker-start="none" marker-end="none"/>
  </g>
 </g>
</svg>
