<?xml version="1.0" standalone="no"?>
<!DOCTYPE svg PUBLIC "-//W3C//DTD SVG 1.1//EN" "http://www.w3.org/Graphics/SVG/1.1/DTD/svg11.dtd">
<!--Generator: Xara Designer (www.xara.com), SVG filter version: 6.3.0.31-->
<svg fill="none" fill-rule="evenodd" stroke="black" stroke-width="0.501" stroke-linejoin="bevel" stroke-miterlimit="10" font-family="Times New Roman" font-size="16" style="font-variant-ligatures:none" xmlns:xlink="http://www.w3.org/1999/xlink" xmlns="http://www.w3.org/2000/svg" version="1.1" overflow="visible" width="620.248pt" height="249.007pt" viewBox="3926.19 -2684.4 620.248 249.007">
 <defs>
	</defs>
 <g id="Layer 1" transform="scale(1 -1)">
  <g id="Group" stroke-linejoin="miter" stroke="none">
   <path d="M 3926.19,2684.4 L 3926.19,2435.4 L 4546.44,2435.4 L 4546.44,2684.4 L 3926.19,2684.4 Z" stroke-width="0.494" stroke-linecap="round" marker-start="none" marker-end="none"/>
   <path d="M 4357.52,2619.14 L 4396.01,2619.14 L 4396.01,2683.9 L 4429.28,2683.9 L 4429.28,2619.14 L 4467.77,2619.14 L 4412.64,2572.66 L 4357.52,2619.14 Z" fill="#ffffff" stroke-width="0.742" stroke-linecap="round" marker-start="none" marker-end="none"/>
   <path d="M 4294.48,2478.17 L 4294.48,2550 L 4309.52,2550 L 4309.52,2478.17 L 4294.48,2478.17 Z" stroke-opacity="0.600000" fill="#ffffff" stroke-width="0.436" marker-start="none" marker-end="none" fill-opacity="0.600000"/>
   <path d="M 3935.91,2480.42 L 4054.41,2488.26 L 4054.41,2472.76 L 3935.91,2480.42 Z M 3935.91,2515.32 L 4054.41,2522.92 L 4054.41,2507.43 L 3935.91,2515.32 Z M 3935.91,2548.26 L 4054.41,2556.19 L 4054.41,2540.69 L 3935.91,2548.26 Z" stroke-opacity="0.600000" fill="#ffffff" stroke-width="0.5" stroke-linecap="round" marker-start="none" marker-end="none" fill-opacity="0.600000"/>
   <path d="M 4094.22,2462.58 C 4089.85,2463.88 4086.59,2467.7 4085.32,2472.38 L 4061.53,2472.38 L 4061.53,2556.19 L 4285.52,2556.19 L 4285.52,2472.38 L 4264.22,2472.38 C 4262.23,2465.02 4255.62,2460.66 4249.13,2462.58 C 4244.76,2463.88 4241.5,2467.7 4240.23,2472.38 L 4222.69,2472.38 C 4220.7,2465.02 4214.09,2460.66 4207.6,2462.58 C 4203.23,2463.88 4199.97,2467.7 4198.7,2472.38 L 4150.84,2472.38 C 4148.85,2465.02 4142.24,2460.66 4135.75,2462.58 C 4131.38,2463.88 4128.12,2467.7 4126.85,2472.38 L 4109.31,2472.38 C 4107.32,2465.02 4100.71,2460.66 4094.22,2462.58 Z M 4166,2518 L 4166,2543.13 L 4076.39,2543.13 C 4074.22,2543.13 4072.45,2541.07 4072.45,2538.53 L 4072.45,2522.6 C 4072.45,2520.06 4074.22,2518 4076.39,2518 L 4166,2518 Z M 4274.7,2522.6 L 4274.7,2538.53 C 4274.7,2541.07 4272.94,2543.13 4270.76,2543.13 L 4181.05,2543.13 L 4181.05,2518 L 4270.76,2518 C 4272.94,2518 4274.7,2520.06 4274.7,2522.6 Z" stroke-opacity="0.600000" stroke-width="0.436" fill="#ffffff" marker-start="none" marker-end="none" fill-opacity="0.600000"/>
   <path d="M 4348.3,2462.39 C 4343.93,2463.68 4340.67,2467.51 4339.4,2472.18 L 4318.43,2472.18 L 4318.43,2555.99 L 4476.94,2555.99 C 4481.17,2555.99 4485.68,2554.8 4489.2,2552.05 L 4537.93,2513.88 C 4540.59,2511.8 4542.42,2507.69 4542.42,2503.94 L 4542.42,2472.18 L 4510.86,2472.18 C 4508.86,2464.82 4502.26,2460.46 4495.77,2462.39 C 4491.39,2463.68 4488.14,2467.51 4486.86,2472.18 L 4469.33,2472.18 C 4467.34,2464.82 4460.73,2460.46 4454.23,2462.39 C 4449.86,2463.68 4446.61,2467.51 4445.33,2472.18 L 4404.92,2472.18 C 4402.93,2464.82 4396.32,2460.46 4389.83,2462.39 C 4385.45,2463.68 4382.2,2467.51 4380.93,2472.18 L 4363.39,2472.18 C 4361.4,2464.82 4354.79,2460.46 4348.3,2462.39 Z M 4416.46,2517.8 L 4416.46,2542.95 L 4333.43,2542.95 C 4331.16,2542.95 4329.32,2540.8 4329.32,2538.16 L 4329.32,2522.6 C 4329.32,2519.95 4331.16,2517.8 4333.43,2517.8 L 4416.46,2517.8 Z M 4511.74,2520.55 L 4484.53,2541.24 C 4483.02,2542.4 4481.12,2542.95 4479.31,2542.95 L 4431.51,2542.95 L 4431.51,2517.8 L 4511.44,2517.8 C 4512.23,2517.8 4512.41,2520.05 4511.74,2520.55 Z" stroke-width="0.436" fill="#ffffff" marker-start="none" marker-end="none"/>
  </g>
 </g>
</svg>
