<?xml version="1.0" standalone="no"?>
<!DOCTYPE svg PUBLIC "-//W3C//DTD SVG 1.1//EN" "http://www.w3.org/Graphics/SVG/1.1/DTD/svg11.dtd">
<!--Generator: Xara Designer (www.xara.com), SVG filter version: 6.3.0.31-->
<svg fill="none" fill-rule="evenodd" stroke="black" stroke-width="0.501" stroke-linejoin="bevel" stroke-miterlimit="10" font-family="Times New Roman" font-size="16" style="font-variant-ligatures:none" xmlns:xlink="http://www.w3.org/1999/xlink" xmlns="http://www.w3.org/2000/svg" version="1.1" overflow="visible" width="193.353pt" height="249.007pt" viewBox="3055.38 -2361.62 193.353 249.007">
 <defs>
	</defs>
 <g id="Layer 1" transform="scale(1 -1)">
  <g id="Group" stroke="none">
   <path d="M 3059.39,2233.4 C 3059.39,2284.55 3100.9,2326.07 3152.06,2326.07 C 3203.21,2326.07 3244.72,2284.55 3244.72,2233.4 C 3244.72,2182.25 3203.21,2140.73 3152.06,2140.73 C 3100.9,2140.73 3059.39,2182.25 3059.39,2233.4 Z M 3237.45,2230.4 C 3239.1,2277.53 3202.19,2317.13 3155.06,2318.79 C 3107.92,2320.45 3068.32,2283.53 3066.67,2236.4 C 3065.01,2189.26 3101.92,2149.66 3149.06,2148.01 C 3196.19,2146.35 3235.79,2183.26 3237.45,2230.4 Z M 3142.47,2154.12 C 3145.82,2155.38 3149.6,2157.27 3151.68,2159.52 C 3164.71,2158.45 3175.43,2161.04 3185.11,2165.12 C 3187.3,2164.49 3189.47,2164.1 3191.63,2163.93 C 3182.81,2158.9 3172.87,2155.47 3162.18,2154.11 C 3155.47,2153.25 3148.86,2153.25 3142.47,2154.12 Z M 3151.43,2164.6 C 3144.27,2169.84 3139.1,2175.39 3133.79,2182.7 L 3133.81,2182.73 L 3147.02,2207.24 C 3157.81,2208.61 3168.46,2210.39 3178.98,2212.59 C 3185.62,2206.16 3191.41,2199.96 3196.96,2193.81 C 3194.58,2185.87 3189.41,2177.32 3183.4,2169.87 C 3174.07,2165.9 3163.9,2163.46 3151.43,2164.6 Z M 3073.05,2221 C 3075.88,2218.51 3078.83,2216.64 3081.83,2215.12 C 3085.87,2204.14 3091.55,2194.44 3097.92,2185.39 C 3097.88,2182.25 3097.85,2178.08 3098.45,2174.1 C 3085.29,2185.98 3075.99,2202.25 3073.05,2221 Z M 3102.09,2188.23 C 3095.85,2197.09 3090.4,2206.42 3086.54,2216.9 C 3089.63,2224.68 3093.6,2232.52 3098.44,2240.4 L 3127.45,2238.17 L 3142.56,2209.59 L 3129.31,2185 L 3129.29,2184.98 C 3120.58,2184.72 3110.6,2184.93 3102.09,2188.23 Z M 3182.45,2216.25 L 3187.1,2248.21 L 3210.05,2259.07 C 3216.85,2253.75 3220.6,2248.2 3225.64,2241.04 C 3225.6,2230.31 3224.08,2219.56 3221.18,2208.79 C 3213.98,2203.27 3208.94,2199.49 3200.63,2197.28 C 3195.05,2203.45 3189.19,2209.73 3182.45,2216.25 Z M 3226,2207.31 C 3229.04,2218.53 3230.63,2229.76 3230.68,2241.01 C 3230.96,2241.39 3231.24,2241.81 3231.52,2242.25 C 3232.99,2229.04 3231.14,2216.2 3226.63,2204.58 C 3226.45,2205.49 3226.24,2206.41 3226,2207.31 Z M 3128.05,2243.18 L 3099.53,2245.37 C 3096.99,2253.22 3095.35,2261.82 3094.81,2271.34 C 3100.55,2279.7 3108.52,2287.37 3118.13,2294.58 C 3127.57,2294.8 3136.92,2294.95 3145.29,2291.78 L 3150.97,2266.48 L 3128.05,2243.18 Z M 3184.84,2252.72 L 3155.93,2267.41 L 3150.26,2292.63 C 3156.55,2297.47 3162.88,2300.2 3171.9,2302.6 C 3183.33,2300.38 3191.67,2294.61 3201.21,2287.3 C 3203.76,2281.87 3207.56,2274.72 3207.82,2263.59 L 3184.84,2252.72 Z M 3117.52,2305.57 C 3116.33,2303.41 3115.49,2301.25 3114.96,2298.5 C 3105.13,2291.11 3096.76,2283.09 3090.65,2274.19 C 3087.28,2273.08 3083.96,2271.63 3080.76,2269.64 C 3088.66,2285.15 3101.51,2297.91 3117.52,2305.57 Z M 3204.14,2291.41 C 3194.68,2298.65 3185.64,2304.98 3173.21,2307.49 C 3172.08,2308.91 3170.85,2310.24 3169.51,2311.48 C 3183.92,2308.25 3197.02,2301.09 3207.48,2291.04 C 3206.4,2291.22 3205.28,2291.34 3204.14,2291.41 Z" stroke-width="0.296" fill="#ffffff" marker-start="none" marker-end="none"/>
   <path d="M 3055.38,2361.62 L 3055.38,2112.61 L 3248.73,2112.61 L 3248.73,2361.62 L 3055.38,2361.62 Z" stroke-width="0.494" stroke-linejoin="miter" stroke-linecap="round" marker-start="none" marker-end="none"/>
  </g>
 </g>
</svg>
