<?xml version="1.0" standalone="no"?>
<!DOCTYPE svg PUBLIC "-//W3C//DTD SVG 1.1//EN" "http://www.w3.org/Graphics/SVG/1.1/DTD/svg11.dtd">
<!--Generator: Xara Designer (www.xara.com), SVG filter version: 6.3.0.31-->
<svg fill="none" fill-rule="evenodd" stroke="black" stroke-width="0.501" stroke-linejoin="bevel" stroke-miterlimit="10" font-family="Times New Roman" font-size="16" style="font-variant-ligatures:none" xmlns:xlink="http://www.w3.org/1999/xlink" xmlns="http://www.w3.org/2000/svg" version="1.1" overflow="visible" width="202.721pt" height="249.007pt" viewBox="3055.38 -2361.61 202.721 249.007">
 <defs>
	</defs>
 <g id="Layer 1" transform="scale(1 -1)">
  <g id="Group" stroke="none">
   <path d="M 3064.08,2216.01 C 3064.08,2267.16 3105.59,2308.68 3156.74,2308.68 C 3207.89,2308.68 3249.41,2267.16 3249.41,2216.01 C 3249.41,2164.86 3207.89,2123.34 3156.74,2123.34 C 3105.59,2123.34 3064.08,2164.86 3064.08,2216.01 Z M 3242.13,2213.01 C 3243.79,2260.15 3206.88,2299.74 3159.74,2301.4 C 3112.61,2303.06 3073.01,2266.15 3071.35,2219.01 C 3069.69,2171.87 3106.61,2132.28 3153.74,2130.62 C 3200.88,2128.96 3240.47,2165.87 3242.13,2213.01 Z M 3147.16,2136.73 C 3150.51,2137.99 3154.29,2139.88 3156.36,2142.13 C 3169.39,2141.06 3180.12,2143.65 3189.8,2147.73 C 3191.99,2147.1 3194.16,2146.71 3196.31,2146.54 C 3187.49,2141.51 3177.55,2138.09 3166.86,2136.72 C 3160.16,2135.86 3153.55,2135.87 3147.16,2136.73 Z M 3156.12,2147.21 C 3148.95,2152.45 3143.79,2158 3138.48,2165.31 L 3138.5,2165.35 L 3151.71,2189.85 C 3162.49,2191.22 3173.15,2193 3183.66,2195.2 C 3190.31,2188.77 3196.1,2182.57 3201.65,2176.43 C 3199.26,2168.48 3194.09,2159.93 3188.09,2152.48 C 3178.76,2148.51 3168.58,2146.07 3156.12,2147.21 Z M 3077.74,2203.61 C 3080.57,2201.13 3083.51,2199.25 3086.51,2197.73 C 3090.56,2186.76 3096.24,2177.05 3102.61,2168 C 3102.56,2164.86 3102.54,2160.69 3103.13,2156.72 C 3089.97,2168.59 3080.68,2184.86 3077.74,2203.61 Z M 3106.77,2170.84 C 3100.54,2179.7 3095.09,2189.03 3091.23,2199.51 C 3094.32,2207.3 3098.28,2215.13 3103.13,2223.01 L 3132.14,2220.78 L 3147.25,2192.2 L 3133.99,2167.61 L 3133.98,2167.59 C 3125.26,2167.33 3115.28,2167.54 3106.77,2170.84 Z M 3187.13,2198.86 L 3191.79,2230.82 L 3214.74,2241.68 C 3221.54,2236.36 3225.28,2230.81 3230.33,2223.65 C 3230.28,2212.92 3228.77,2202.17 3225.86,2191.4 C 3218.66,2185.88 3213.63,2182.11 3205.31,2179.89 C 3199.74,2186.07 3193.87,2192.34 3187.13,2198.86 Z M 3230.69,2189.92 C 3233.72,2201.14 3235.32,2212.37 3235.37,2223.62 C 3235.64,2224 3235.93,2224.42 3236.21,2224.86 C 3237.68,2211.65 3235.83,2198.82 3231.32,2187.2 C 3231.14,2188.11 3230.93,2189.02 3230.69,2189.92 Z M 3132.74,2225.79 L 3104.22,2227.98 C 3101.67,2235.83 3100.04,2244.43 3099.5,2253.95 C 3105.23,2262.31 3113.2,2269.98 3122.82,2277.19 C 3132.25,2277.41 3141.61,2277.57 3149.97,2274.39 L 3155.66,2249.09 L 3132.74,2225.79 Z M 3189.53,2235.33 L 3160.62,2250.02 L 3154.95,2275.24 C 3161.23,2280.08 3167.56,2282.81 3176.58,2285.22 C 3188.01,2282.99 3196.36,2277.22 3205.9,2269.91 C 3208.45,2264.48 3212.25,2257.33 3212.51,2246.2 L 3189.53,2235.33 Z M 3122.2,2288.18 C 3121.02,2286.02 3120.18,2283.86 3119.65,2281.11 C 3109.81,2273.72 3101.45,2265.7 3095.34,2256.8 C 3091.97,2255.69 3088.65,2254.24 3085.44,2252.26 C 3093.34,2267.76 3106.2,2280.52 3122.2,2288.18 Z M 3208.82,2274.02 C 3199.37,2281.26 3190.33,2287.59 3177.9,2290.1 C 3176.77,2291.52 3175.53,2292.85 3174.19,2294.09 C 3188.6,2290.86 3201.71,2283.7 3212.16,2273.65 C 3211.08,2273.83 3209.97,2273.95 3208.82,2274.02 Z" stroke-width="0.296" fill="#ffffff" marker-start="none" marker-end="none"/>
   <path d="M 3055.38,2361.61 L 3055.38,2112.61 L 3258.1,2112.61 L 3258.1,2361.61 L 3055.38,2361.61 Z" stroke-width="0.494" stroke-linejoin="miter" stroke-linecap="round" marker-start="none" marker-end="none"/>
  </g>
 </g>
</svg>
