<?xml version="1.0" standalone="no"?>
<!DOCTYPE svg PUBLIC "-//W3C//DTD SVG 1.1//EN" "http://www.w3.org/Graphics/SVG/1.1/DTD/svg11.dtd">
<!--Generator: Xara Designer (www.xara.com), SVG filter version: 6.3.0.31-->
<svg fill="none" fill-rule="evenodd" stroke="black" stroke-width="0.501" stroke-linejoin="bevel" stroke-miterlimit="10" font-family="Times New Roman" font-size="16" style="font-variant-ligatures:none" xmlns:xlink="http://www.w3.org/1999/xlink" xmlns="http://www.w3.org/2000/svg" version="1.1" overflow="visible" width="251.495pt" height="251.495pt" viewBox="3617.67 -2078.87 251.495 251.495">
 <defs>
	</defs>
 <g id="Layer 1" transform="scale(1 -1)">
  <g id="Group" stroke="none">
   <path d="M 3618.91,1953.12 C 3618.91,2021.84 3674.69,2077.62 3743.42,2077.62 C 3812.14,2077.62 3867.92,2021.84 3867.92,1953.12 C 3867.92,1884.39 3812.14,1828.61 3743.42,1828.61 C 3674.69,1828.61 3618.91,1884.39 3618.91,1953.12 Z" fill="#ffe600" stroke-linejoin="miter" marker-start="none" marker-end="none"/>
   <path d="M 3622.82,1953.12 C 3622.82,2019.69 3676.84,2073.72 3743.42,2073.72 C 3809.99,2073.72 3864.01,2019.69 3864.01,1953.12 C 3864.01,1886.55 3809.99,1832.52 3743.42,1832.52 C 3676.84,1832.52 3622.82,1886.55 3622.82,1953.12 Z M 3847.14,1953.12 C 3847.14,2010.38 3800.67,2056.85 3743.42,2056.85 C 3686.16,2056.85 3639.69,2010.38 3639.69,1953.12 C 3639.69,1895.86 3686.16,1849.39 3743.42,1849.39 C 3800.67,1849.39 3847.14,1895.86 3847.14,1953.12 Z" fill="#009642" stroke-linejoin="miter" marker-start="none" marker-end="none"/>
   <path d="M 3746.43,2004.38 L 3744.29,2004.38 L 3710.34,1939.89 L 3746.43,1939.89 L 3746.43,2004.38 Z M 3771.84,1920.89 L 3771.84,1886.08 L 3746.43,1886.08 L 3746.43,1920.89 L 3689.41,1920.89 L 3689.41,1937.54 L 3737.88,2026.16 L 3771.2,2026.16 L 3771.2,1939.89 L 3787.64,1939.89 L 3787.64,1920.89 L 3771.84,1920.89 Z" fill-rule="nonzero" stroke-linejoin="round" stroke-width="0.25" fill="#009642" marker-start="none" marker-end="none"/>
   <path d="M 3617.67,2078.87 L 3617.67,1827.37 L 3869.16,1827.37 L 3869.16,2078.87 L 3617.67,2078.87 Z" stroke-width="0.499" stroke-linejoin="miter" stroke-linecap="round" marker-start="none" marker-end="none"/>
  </g>
 </g>
</svg>
