<?xml version="1.0" standalone="no"?>
<!DOCTYPE svg PUBLIC "-//W3C//DTD SVG 1.1//EN" "http://www.w3.org/Graphics/SVG/1.1/DTD/svg11.dtd">
<!--Generator: Xara Designer (www.xara.com), SVG filter version: 6.3.0.31-->
<svg fill="none" fill-rule="evenodd" stroke="black" stroke-width="0.501" stroke-linejoin="bevel" stroke-miterlimit="10" font-family="Times New Roman" font-size="16" style="font-variant-ligatures:none" xmlns:xlink="http://www.w3.org/1999/xlink" xmlns="http://www.w3.org/2000/svg" version="1.1" overflow="visible" width="251.495pt" height="251.495pt" viewBox="3340.17 -374.865 251.495 251.495">
 <defs>
	</defs>
 <g id="Layer 1" transform="scale(1 -1)">
  <g id="Group" stroke="none">
   <path d="M 3341.41,249.118 C 3341.41,317.843 3397.19,373.621 3465.92,373.621 C 3534.64,373.621 3590.42,317.843 3590.42,249.118 C 3590.42,180.392 3534.64,124.614 3465.92,124.614 C 3397.19,124.614 3341.41,180.392 3341.41,249.118 Z" fill="#ffe600" stroke-linejoin="miter" marker-start="none" marker-end="none"/>
   <path d="M 3345.32,249.119 C 3345.32,315.689 3399.34,369.716 3465.92,369.716 C 3532.49,369.716 3586.51,315.689 3586.51,249.119 C 3586.51,182.546 3532.49,128.519 3465.92,128.519 C 3399.34,128.519 3345.32,182.546 3345.32,249.119 Z M 3569.64,249.119 C 3569.64,306.375 3523.17,352.845 3465.92,352.845 C 3408.66,352.845 3362.19,306.375 3362.19,249.119 C 3362.19,191.86 3408.66,145.39 3465.92,145.39 C 3523.17,145.39 3569.64,191.86 3569.64,249.119 Z" fill="#009642" stroke-linejoin="miter" marker-start="none" marker-end="none"/>
   <path d="M 3389.28,191.668 L 3389.28,208.768 L 3415.02,208.768 L 3415.02,289.948 L 3387.3,274.468 L 3385.68,293.368 L 3415.74,309.749 L 3437.34,309.749 L 3437.34,208.768 L 3461.28,208.768 L 3461.28,191.668 L 3389.28,191.668 Z" fill-rule="nonzero" stroke-linejoin="round" stroke-width="0.25" fill="#009642" marker-start="none" marker-end="none"/>
   <path d="M 3546.15,230.368 C 3546.15,217.408 3541.98,207.388 3533.64,200.308 C 3525.3,193.228 3513.45,189.688 3498.09,189.688 C 3494.49,189.688 3490.74,189.958 3486.84,190.498 C 3482.94,191.038 3478.71,191.968 3474.15,193.288 L 3476.13,210.568 C 3479.97,208.888 3483.93,207.778 3488.01,207.238 C 3492.09,206.698 3495.51,206.428 3498.27,206.428 C 3506.19,206.428 3512.37,208.408 3516.81,212.368 C 3521.25,216.328 3523.47,221.968 3523.47,229.288 C 3523.47,236.128 3521.37,241.348 3517.17,244.948 C 3512.97,248.548 3507.39,250.348 3500.43,250.348 C 3497.31,250.348 3493.77,250.138 3489.81,249.718 C 3485.85,249.298 3481.65,248.608 3477.21,247.648 L 3479.19,309.749 L 3540.57,309.749 L 3540.57,292.828 L 3498.45,292.828 L 3497.73,264.928 C 3499.53,265.168 3501.54,265.378 3503.76,265.558 C 3505.98,265.738 3508.11,265.828 3510.15,265.828 C 3514.83,265.828 3519.33,265.108 3523.65,263.668 C 3527.97,262.228 3531.78,260.038 3535.08,257.098 C 3538.38,254.158 3541.05,250.468 3543.09,246.028 C 3545.13,241.588 3546.15,236.368 3546.15,230.368 Z" fill-rule="nonzero" stroke-linejoin="round" stroke-width="0.25" fill="#009642" marker-start="none" marker-end="none"/>
   <path d="M 3340.17,374.865 L 3340.17,123.37 L 3591.66,123.37 L 3591.66,374.865 L 3340.17,374.865 Z" stroke-width="0.499" stroke-linejoin="miter" stroke-linecap="round" marker-start="none" marker-end="none"/>
  </g>
 </g>
</svg>
