<?xml version="1.0" standalone="no"?>
<!DOCTYPE svg PUBLIC "-//W3C//DTD SVG 1.1//EN" "http://www.w3.org/Graphics/SVG/1.1/DTD/svg11.dtd">
<!--Generator: Xara Designer (www.xara.com), SVG filter version: 6.3.0.31-->
<svg fill="none" fill-rule="evenodd" stroke="black" stroke-width="0.501" stroke-linejoin="bevel" stroke-miterlimit="10" font-family="Times New Roman" font-size="16" style="font-variant-ligatures:none" xmlns:xlink="http://www.w3.org/1999/xlink" xmlns="http://www.w3.org/2000/svg" version="1.1" overflow="visible" width="251.495pt" height="251.495pt" viewBox="3617.67 -374.865 251.495 251.495">
 <defs>
	</defs>
 <g id="Layer 1" transform="scale(1 -1)">
  <g id="Group" stroke="none">
   <path d="M 3618.91,249.118 C 3618.91,317.844 3674.69,373.621 3743.42,373.621 C 3812.14,373.621 3867.92,317.844 3867.92,249.118 C 3867.92,180.391 3812.14,124.614 3743.42,124.614 C 3674.69,124.614 3618.91,180.391 3618.91,249.118 Z" fill="#fff068" stroke-linejoin="miter" marker-start="none" marker-end="none"/>
   <path d="M 3628.87,249.119 C 3628.87,312.347 3680.18,363.66 3743.42,363.66 C 3806.64,363.66 3857.96,312.347 3857.96,249.119 C 3857.96,185.888 3806.64,134.574 3743.42,134.574 C 3680.18,134.574 3628.87,185.888 3628.87,249.119 Z M 3841.93,249.119 C 3841.93,303.5 3797.8,347.637 3743.42,347.637 C 3689.03,347.637 3644.9,303.5 3644.9,249.119 C 3644.9,194.735 3689.03,150.598 3743.42,150.598 C 3797.8,150.598 3841.93,194.735 3841.93,249.119 Z" fill="#007f38" stroke-linejoin="miter" marker-start="none" marker-end="none"/>
   <path d="M 3675.01,191.098 L 3675.01,208.198 L 3700.75,208.198 L 3700.75,289.378 L 3673.03,273.898 L 3671.41,292.798 L 3701.47,309.179 L 3723.07,309.179 L 3723.07,208.198 L 3747.01,208.198 L 3747.01,191.098 L 3675.01,191.098 Z" fill="#007f38" fill-rule="nonzero" stroke-linejoin="round" stroke-width="0.25" marker-start="none" marker-end="none"/>
   <path d="M 3798.82,227.098 C 3798.82,229.858 3798.52,232.528 3797.92,235.108 C 3797.32,237.688 3796.39,239.938 3795.13,241.858 C 3793.87,243.778 3792.19,245.308 3790.09,246.448 C 3787.99,247.588 3785.5,248.158 3782.62,248.158 C 3777.22,248.158 3773.14,246.088 3770.38,241.948 C 3767.62,237.808 3766.24,232.858 3766.24,227.098 C 3766.24,224.338 3766.51,221.608 3767.05,218.908 C 3767.59,216.208 3768.49,213.778 3769.75,211.618 C 3771.01,209.458 3772.66,207.718 3774.7,206.398 C 3776.74,205.078 3779.32,204.418 3782.44,204.418 C 3785.44,204.418 3787.99,205.048 3790.09,206.308 C 3792.19,207.568 3793.9,209.278 3795.22,211.438 C 3796.54,213.598 3797.47,216.028 3798.01,218.728 C 3798.55,221.428 3798.82,224.218 3798.82,227.098 Z M 3821.14,227.818 C 3821.14,222.658 3820.3,217.738 3818.62,213.058 C 3816.94,208.378 3814.48,204.268 3811.24,200.728 C 3808,197.188 3803.98,194.368 3799.18,192.268 C 3794.38,190.168 3788.86,189.118 3782.62,189.118 C 3775.54,189.118 3769.57,190.228 3764.71,192.448 C 3759.85,194.668 3755.92,197.698 3752.92,201.538 C 3749.92,205.378 3747.73,209.878 3746.35,215.038 C 3744.97,220.198 3744.28,225.778 3744.28,231.778 C 3744.28,239.818 3745.54,247.888 3748.06,255.988 C 3750.58,264.088 3754,271.798 3758.32,279.118 C 3762.64,286.438 3767.74,293.188 3773.62,299.368 C 3779.5,305.549 3785.8,310.799 3792.52,315.119 L 3810.34,303.779 C 3806.14,301.259 3801.82,297.988 3797.38,293.968 C 3792.94,289.948 3788.77,285.598 3784.87,280.918 C 3780.97,276.238 3777.55,271.378 3774.61,266.338 C 3771.67,261.298 3769.66,256.438 3768.58,251.758 C 3771.46,255.718 3774.82,258.658 3778.66,260.578 C 3782.5,262.498 3786.58,263.458 3790.9,263.458 C 3795.94,263.458 3800.35,262.528 3804.13,260.668 C 3807.91,258.808 3811.06,256.258 3813.58,253.018 C 3816.1,249.778 3817.99,245.998 3819.25,241.678 C 3820.51,237.358 3821.14,232.738 3821.14,227.818 Z" fill="#007f38" fill-rule="nonzero" stroke-linejoin="round" stroke-width="0.25" marker-start="none" marker-end="none"/>
   <path d="M 3617.67,374.865 L 3617.67,123.37 L 3869.16,123.37 L 3869.16,374.865 L 3617.67,374.865 Z" stroke-width="0.499" stroke-linejoin="miter" stroke-linecap="round" marker-start="none" marker-end="none"/>
  </g>
 </g>
</svg>
