<?xml version="1.0" standalone="no"?>
<!DOCTYPE svg PUBLIC "-//W3C//DTD SVG 1.1//EN" "http://www.w3.org/Graphics/SVG/1.1/DTD/svg11.dtd">
<!--Generator: Xara Designer (www.xara.com), SVG filter version: 6.3.0.31-->
<svg fill="none" fill-rule="evenodd" stroke="black" stroke-width="0.501" stroke-linejoin="bevel" stroke-miterlimit="10" font-family="Times New Roman" font-size="16" style="font-variant-ligatures:none" xmlns:xlink="http://www.w3.org/1999/xlink" xmlns="http://www.w3.org/2000/svg" version="1.1" overflow="visible" width="251.495pt" height="251.495pt" viewBox="3340.17 -374.865 251.495 251.495">
 <defs>
	</defs>
 <g id="Layer 1" transform="scale(1 -1)">
  <g id="Group" stroke="none">
   <path d="M 3341.41,249.118 C 3341.41,317.844 3397.19,373.621 3465.92,373.621 C 3534.64,373.621 3590.42,317.844 3590.42,249.118 C 3590.42,180.391 3534.64,124.614 3465.92,124.614 C 3397.19,124.614 3341.41,180.391 3341.41,249.118 Z" fill="#fff068" stroke-linejoin="miter" marker-start="none" marker-end="none"/>
   <path d="M 3351.37,249.119 C 3351.37,312.347 3402.69,363.66 3465.92,363.66 C 3529.15,363.66 3580.46,312.347 3580.46,249.119 C 3580.46,185.888 3529.15,134.574 3465.92,134.574 C 3402.69,134.574 3351.37,185.888 3351.37,249.119 Z M 3564.43,249.119 C 3564.43,303.5 3520.3,347.637 3465.92,347.637 C 3411.53,347.637 3367.4,303.5 3367.4,249.119 C 3367.4,194.735 3411.53,150.598 3465.92,150.598 C 3520.3,150.598 3564.43,194.735 3564.43,249.119 Z" fill="#007f38" stroke-linejoin="miter" marker-start="none" marker-end="none"/>
   <path d="M 3394.95,191.668 L 3394.95,208.768 L 3420.69,208.768 L 3420.69,289.948 L 3392.97,274.468 L 3391.35,293.368 L 3421.41,309.749 L 3443.01,309.749 L 3443.01,208.768 L 3466.95,208.768 L 3466.95,191.668 L 3394.95,191.668 Z" fill="#007f38" fill-rule="nonzero" stroke-linejoin="round" stroke-width="0.25" marker-start="none" marker-end="none"/>
   <path d="M 3543.32,230.368 C 3543.32,217.408 3539.15,207.388 3530.81,200.308 C 3522.47,193.228 3510.62,189.688 3495.26,189.688 C 3491.66,189.688 3487.91,189.958 3484.01,190.498 C 3480.11,191.038 3475.88,191.968 3471.32,193.288 L 3473.3,210.568 C 3477.14,208.888 3481.1,207.778 3485.18,207.238 C 3489.26,206.698 3492.68,206.428 3495.43,206.428 C 3503.36,206.428 3509.53,208.408 3513.97,212.368 C 3518.42,216.328 3520.64,221.968 3520.64,229.288 C 3520.64,236.128 3518.53,241.348 3514.34,244.948 C 3510.14,248.548 3504.56,250.348 3497.6,250.348 C 3494.47,250.348 3490.93,250.138 3486.97,249.718 C 3483.01,249.298 3478.82,248.608 3474.38,247.648 L 3476.36,309.749 L 3537.74,309.749 L 3537.74,292.828 L 3495.62,292.828 L 3494.9,264.928 C 3496.7,265.168 3498.7,265.378 3500.93,265.558 C 3503.15,265.738 3505.28,265.828 3507.32,265.828 C 3511.99,265.828 3516.49,265.108 3520.82,263.668 C 3525.14,262.228 3528.95,260.038 3532.24,257.098 C 3535.55,254.158 3538.22,250.468 3540.26,246.028 C 3542.3,241.588 3543.32,236.368 3543.32,230.368 Z" fill="#007f38" fill-rule="nonzero" stroke-linejoin="round" stroke-width="0.25" marker-start="none" marker-end="none"/>
   <path d="M 3340.17,374.865 L 3340.17,123.37 L 3591.66,123.37 L 3591.66,374.865 L 3340.17,374.865 Z" stroke-width="0.499" stroke-linejoin="miter" stroke-linecap="round" marker-start="none" marker-end="none"/>
  </g>
 </g>
</svg>
