<?xml version="1.0" standalone="no"?>
<!DOCTYPE svg PUBLIC "-//W3C//DTD SVG 1.1//EN" "http://www.w3.org/Graphics/SVG/1.1/DTD/svg11.dtd">
<!--Generator: Xara Designer (www.xara.com), SVG filter version: 6.3.0.31-->
<svg fill="none" fill-rule="evenodd" stroke="black" stroke-width="0.501" stroke-linejoin="bevel" stroke-miterlimit="10" font-family="Times New Roman" font-size="16" style="font-variant-ligatures:none" xmlns:xlink="http://www.w3.org/1999/xlink" xmlns="http://www.w3.org/2000/svg" version="1.1" overflow="visible" width="251.495pt" height="251.495pt" viewBox="3340.17 -2078.87 251.495 251.495">
 <defs>
	</defs>
 <g id="Layer 1" transform="scale(1 -1)">
  <g id="Group" stroke="none">
   <path d="M 3341.41,1953.12 C 3341.41,2021.84 3397.19,2077.62 3465.92,2077.62 C 3534.64,2077.62 3590.42,2021.84 3590.42,1953.12 C 3590.42,1884.39 3534.64,1828.61 3465.92,1828.61 C 3397.19,1828.61 3341.41,1884.39 3341.41,1953.12 Z" fill="#fff068" stroke-linejoin="miter" marker-start="none" marker-end="none"/>
   <path d="M 3351.37,1953.12 C 3351.37,2016.35 3402.69,2067.66 3465.92,2067.66 C 3529.15,2067.66 3580.46,2016.35 3580.46,1953.12 C 3580.46,1889.89 3529.15,1838.57 3465.92,1838.57 C 3402.69,1838.57 3351.37,1889.89 3351.37,1953.12 Z M 3564.43,1953.12 C 3564.43,2007.5 3520.3,2051.64 3465.92,2051.64 C 3411.53,2051.64 3367.4,2007.5 3367.4,1953.12 C 3367.4,1898.74 3411.53,1854.6 3465.92,1854.6 C 3520.3,1854.6 3564.43,1898.74 3564.43,1953.12 Z" fill="#007f38" stroke-linejoin="miter" marker-start="none" marker-end="none"/>
   <path d="M 3514.88,1927.51 C 3514.88,1920.25 3513.64,1913.88 3511.15,1908.4 C 3508.66,1902.91 3505.1,1898.36 3500.47,1894.73 C 3495.84,1891.1 3490.29,1888.36 3483.81,1886.51 C 3477.34,1884.66 3470.04,1883.73 3461.93,1883.73 C 3459.93,1883.73 3457.44,1883.84 3454.45,1884.05 C 3451.46,1884.27 3448.4,1884.59 3445.27,1885.01 C 3442.14,1885.44 3439.15,1885.97 3436.3,1886.61 C 3433.45,1887.26 3431.11,1888.07 3429.26,1889.07 L 3431.39,1909.14 C 3433.53,1908 3435.91,1907.08 3438.55,1906.37 C 3441.18,1905.65 3443.81,1905.09 3446.45,1904.66 C 3449.08,1904.23 3451.64,1903.95 3454.13,1903.8 C 3456.62,1903.66 3458.8,1903.59 3460.65,1903.59 C 3469.61,1903.59 3476.45,1905.55 3481.15,1909.46 C 3485.84,1913.38 3488.19,1919.61 3488.19,1928.15 C 3488.19,1931.56 3487.52,1934.62 3486.16,1937.33 C 3484.81,1940.03 3482.96,1942.28 3480.61,1944.06 C 3478.26,1945.84 3475.59,1947.19 3472.6,1948.11 C 3469.61,1949.04 3466.41,1949.5 3462.99,1949.5 L 3443.99,1949.5 L 3443.99,1969.15 L 3463.42,1969.15 C 3470.68,1969.15 3476.31,1971.1 3480.29,1975.02 C 3484.28,1978.93 3486.27,1984.31 3486.27,1991.14 C 3486.27,1997.12 3484.28,2001.53 3480.29,2004.38 C 3476.31,2007.23 3471.25,2008.65 3465.13,2008.65 C 3460.15,2008.65 3455.2,2008.26 3450.29,2007.48 C 3445.38,2006.69 3440.5,2005.31 3435.66,2003.31 L 3431.82,2022.96 C 3437.8,2024.81 3443.67,2026.2 3449.43,2027.12 C 3455.2,2028.05 3461.14,2028.51 3467.26,2028.51 C 3473.53,2028.51 3479.4,2027.87 3484.88,2026.59 C 3490.36,2025.31 3495.13,2023.24 3499.19,2020.4 C 3503.25,2017.55 3506.41,2013.88 3508.69,2009.4 C 3510.97,2004.91 3512.11,1999.4 3512.11,1992.85 C 3512.11,1988.58 3511.33,1984.73 3509.76,1981.32 C 3508.19,1977.9 3506.13,1974.88 3503.57,1972.24 C 3501,1969.61 3498.05,1967.37 3494.7,1965.52 C 3491.36,1963.67 3487.98,1962.24 3484.56,1961.25 C 3488.97,1960.53 3493.03,1959.22 3496.73,1957.3 C 3500.43,1955.37 3503.64,1952.95 3506.34,1950.03 C 3509.05,1947.12 3511.15,1943.74 3512.64,1939.89 C 3514.14,1936.05 3514.88,1931.92 3514.88,1927.51 Z" fill="#007f38" fill-rule="nonzero" stroke-linejoin="round" stroke-width="0.25" marker-start="none" marker-end="none"/>
   <path d="M 3340.17,2078.87 L 3340.17,1827.37 L 3591.66,1827.37 L 3591.66,2078.87 L 3340.17,2078.87 Z" stroke-width="0.499" stroke-linejoin="miter" stroke-linecap="round" marker-start="none" marker-end="none"/>
  </g>
 </g>
</svg>
