<?xml version="1.0" standalone="no"?>
<!DOCTYPE svg PUBLIC "-//W3C//DTD SVG 1.1//EN" "http://www.w3.org/Graphics/SVG/1.1/DTD/svg11.dtd">
<!--Generator: Xara Designer (www.xara.com), SVG filter version: 6.3.0.31-->
<svg fill="none" fill-rule="evenodd" stroke="black" stroke-width="0.501" stroke-linejoin="bevel" stroke-miterlimit="10" font-family="Times New Roman" font-size="16" style="font-variant-ligatures:none" xmlns:xlink="http://www.w3.org/1999/xlink" xmlns="http://www.w3.org/2000/svg" version="1.1" overflow="visible" width="251.495pt" height="251.495pt" viewBox="3340.17 -658.865 251.495 251.495">
 <defs>
	</defs>
 <g id="Layer 1" transform="scale(1 -1)">
  <g id="Group" stroke="none">
   <path d="M 3341.41,533.118 C 3341.41,601.844 3397.19,657.621 3465.92,657.621 C 3534.64,657.621 3590.42,601.844 3590.42,533.118 C 3590.42,464.391 3534.64,408.614 3465.92,408.614 C 3397.19,408.614 3341.41,464.391 3341.41,533.118 Z" fill="#fff068" stroke-linejoin="miter" marker-start="none" marker-end="none"/>
   <path d="M 3351.37,533.119 C 3351.37,596.347 3402.69,647.66 3465.92,647.66 C 3529.15,647.66 3580.46,596.347 3580.46,533.119 C 3580.46,469.888 3529.15,418.574 3465.92,418.574 C 3402.69,418.574 3351.37,469.888 3351.37,533.119 Z M 3564.43,533.119 C 3564.43,587.5 3520.3,631.637 3465.92,631.637 C 3411.53,631.637 3367.4,587.5 3367.4,533.119 C 3367.4,478.735 3411.53,434.598 3465.92,434.598 C 3520.3,434.598 3564.43,478.735 3564.43,533.119 Z" fill="#007f38" stroke-linejoin="miter" marker-start="none" marker-end="none"/>
   <path d="M 3398.16,477.255 L 3398.16,494.355 L 3423.9,494.355 L 3423.9,575.535 L 3396.18,560.055 L 3394.56,578.955 L 3424.62,595.335 L 3446.22,595.335 L 3446.22,494.355 L 3470.16,494.355 L 3470.16,477.255 L 3398.16,477.255 Z" fill="#007f38" fill-rule="nonzero" stroke-linejoin="round" stroke-width="0.25" marker-start="none" marker-end="none"/>
   <path d="M 3545.26,512.175 C 3545.26,506.055 3544.21,500.685 3542.11,496.065 C 3540.01,491.445 3537.01,487.605 3533.11,484.545 C 3529.21,481.485 3524.53,479.175 3519.07,477.615 C 3513.61,476.055 3507.46,475.275 3500.62,475.275 C 3498.94,475.275 3496.84,475.365 3494.32,475.545 C 3491.8,475.725 3489.22,475.995 3486.58,476.355 C 3483.94,476.715 3481.42,477.165 3479.02,477.705 C 3476.62,478.245 3474.64,478.935 3473.08,479.775 L 3474.88,496.695 C 3476.68,495.735 3478.69,494.955 3480.91,494.355 C 3483.13,493.755 3485.35,493.275 3487.57,492.915 C 3489.79,492.555 3491.95,492.315 3494.05,492.195 C 3496.15,492.075 3497.98,492.015 3499.54,492.015 C 3507.1,492.015 3512.86,493.665 3516.82,496.965 C 3520.78,500.265 3522.76,505.515 3522.76,512.715 C 3522.76,515.595 3522.19,518.175 3521.05,520.455 C 3519.91,522.735 3518.35,524.625 3516.37,526.125 C 3514.39,527.625 3512.14,528.765 3509.62,529.545 C 3507.1,530.325 3504.4,530.715 3501.52,530.715 L 3485.5,530.715 L 3485.5,547.275 L 3501.88,547.275 C 3508,547.275 3512.74,548.925 3516.1,552.225 C 3519.46,555.525 3521.14,560.055 3521.14,565.815 C 3521.14,570.855 3519.46,574.575 3516.1,576.975 C 3512.74,579.375 3508.48,580.575 3503.32,580.575 C 3499.12,580.575 3494.95,580.245 3490.81,579.585 C 3486.67,578.925 3482.56,577.755 3478.48,576.075 L 3475.24,592.635 C 3480.28,594.195 3485.23,595.365 3490.09,596.145 C 3494.95,596.925 3499.96,597.315 3505.12,597.315 C 3510.4,597.315 3515.35,596.775 3519.97,595.695 C 3524.59,594.615 3528.61,592.875 3532.03,590.475 C 3535.45,588.075 3538.12,584.985 3540.04,581.205 C 3541.96,577.425 3542.92,572.775 3542.92,567.255 C 3542.92,563.655 3542.26,560.415 3540.94,557.535 C 3539.62,554.655 3537.88,552.105 3535.72,549.885 C 3533.56,547.665 3531.07,545.775 3528.25,544.215 C 3525.43,542.655 3522.58,541.455 3519.7,540.615 C 3523.42,540.015 3526.84,538.905 3529.96,537.285 C 3533.08,535.665 3535.78,533.625 3538.06,531.165 C 3540.34,528.705 3542.11,525.855 3543.37,522.615 C 3544.63,519.375 3545.26,515.895 3545.26,512.175 Z" fill="#007f38" fill-rule="nonzero" stroke-linejoin="round" stroke-width="0.25" marker-start="none" marker-end="none"/>
   <path d="M 3340.17,658.865 L 3340.17,407.37 L 3591.66,407.37 L 3591.66,658.865 L 3340.17,658.865 Z" stroke-width="0.499" stroke-linejoin="miter" stroke-linecap="round" marker-start="none" marker-end="none"/>
  </g>
 </g>
</svg>
