<?xml version="1.0" standalone="no"?>
<!DOCTYPE svg PUBLIC "-//W3C//DTD SVG 1.1//EN" "http://www.w3.org/Graphics/SVG/1.1/DTD/svg11.dtd">
<!--Generator: Xara Designer (www.xara.com), SVG filter version: 6.3.0.31-->
<svg fill="none" fill-rule="evenodd" stroke="black" stroke-width="0.501" stroke-linejoin="bevel" stroke-miterlimit="10" font-family="Times New Roman" font-size="16" style="font-variant-ligatures:none" xmlns:xlink="http://www.w3.org/1999/xlink" xmlns="http://www.w3.org/2000/svg" version="1.1" overflow="visible" width="251.495pt" height="251.495pt" viewBox="3617.67 -1794.87 251.495 251.495">
 <defs>
	</defs>
 <g id="Layer 1" transform="scale(1 -1)">
  <g id="Group" stroke="none">
   <path d="M 3618.91,1669.12 C 3618.91,1737.84 3674.69,1793.62 3743.42,1793.62 C 3812.14,1793.62 3867.92,1737.84 3867.92,1669.12 C 3867.92,1600.39 3812.14,1544.61 3743.42,1544.61 C 3674.69,1544.61 3618.91,1600.39 3618.91,1669.12 Z" fill="#ffe600" stroke-linejoin="miter" marker-start="none" marker-end="none"/>
   <path d="M 3622.82,1669.12 C 3622.82,1735.69 3676.84,1789.72 3743.42,1789.72 C 3809.99,1789.72 3864.01,1735.69 3864.01,1669.12 C 3864.01,1602.55 3809.99,1548.52 3743.42,1548.52 C 3676.84,1548.52 3622.82,1602.55 3622.82,1669.12 Z M 3847.14,1669.12 C 3847.14,1726.38 3800.67,1772.85 3743.42,1772.85 C 3686.16,1772.85 3639.69,1726.38 3639.69,1669.12 C 3639.69,1611.86 3686.16,1565.39 3743.42,1565.39 C 3800.67,1565.39 3847.14,1611.86 3847.14,1669.12 Z" fill="#009642" stroke-linejoin="miter" marker-start="none" marker-end="none"/>
   <path d="M 3761.22,1644.79 C 3761.22,1648.06 3760.87,1651.23 3760.16,1654.29 C 3759.44,1657.35 3758.34,1660.02 3756.85,1662.3 C 3755.35,1664.58 3753.36,1666.39 3750.87,1667.74 C 3748.38,1669.1 3745.42,1669.77 3742.01,1669.77 C 3735.6,1669.77 3730.76,1667.32 3727.48,1662.4 C 3724.21,1657.49 3722.57,1651.62 3722.57,1644.79 C 3722.57,1641.51 3722.89,1638.28 3723.53,1635.07 C 3724.17,1631.87 3725.24,1628.99 3726.74,1626.42 C 3728.23,1623.86 3730.19,1621.8 3732.61,1620.23 C 3735.03,1618.67 3738.09,1617.88 3741.79,1617.88 C 3745.35,1617.88 3748.38,1618.63 3750.87,1620.12 C 3753.36,1621.62 3755.39,1623.65 3756.95,1626.21 C 3758.52,1628.77 3759.62,1631.66 3760.26,1634.86 C 3760.9,1638.06 3761.22,1641.37 3761.22,1644.79 Z M 3787.7,1645.64 C 3787.7,1639.52 3786.7,1633.68 3784.71,1628.13 C 3782.72,1622.58 3779.8,1617.7 3775.96,1613.5 C 3772.11,1609.31 3767.34,1605.96 3761.65,1603.47 C 3755.96,1600.98 3749.41,1599.73 3742.01,1599.73 C 3733.61,1599.73 3726.52,1601.05 3720.76,1603.68 C 3714.99,1606.32 3710.33,1609.91 3706.77,1614.47 C 3703.21,1619.02 3700.61,1624.36 3698.98,1630.48 C 3697.34,1636.6 3696.52,1643.22 3696.52,1650.34 C 3696.52,1659.88 3698.02,1669.45 3701.01,1679.06 C 3703.99,1688.67 3708.05,1697.82 3713.18,1706.5 C 3718.3,1715.18 3724.35,1723.19 3731.33,1730.52 C 3738.3,1737.85 3745.78,1744.08 3753.75,1749.21 L 3774.89,1735.75 C 3769.91,1732.76 3764.78,1728.89 3759.51,1724.12 C 3754.25,1719.35 3749.3,1714.19 3744.67,1708.64 C 3740.05,1703.08 3735.99,1697.32 3732.5,1691.34 C 3729.01,1685.36 3726.63,1679.59 3725.35,1674.04 C 3728.76,1678.74 3732.75,1682.23 3737.31,1684.51 C 3741.86,1686.78 3746.7,1687.92 3751.83,1687.92 C 3757.81,1687.92 3763.04,1686.82 3767.52,1684.61 C 3772.01,1682.41 3775.74,1679.38 3778.73,1675.54 C 3781.72,1671.69 3783.97,1667.21 3785.46,1662.08 C 3786.95,1656.96 3787.7,1651.48 3787.7,1645.64 Z" fill-rule="nonzero" stroke-linejoin="round" stroke-width="0.25" fill="#009642" marker-start="none" marker-end="none"/>
   <path d="M 3617.67,1794.87 L 3617.67,1543.37 L 3869.16,1543.37 L 3869.16,1794.87 L 3617.67,1794.87 Z" stroke-width="0.499" stroke-linejoin="miter" stroke-linecap="round" marker-start="none" marker-end="none"/>
  </g>
 </g>
</svg>
