<?xml version="1.0" standalone="no"?>
<!DOCTYPE svg PUBLIC "-//W3C//DTD SVG 1.1//EN" "http://www.w3.org/Graphics/SVG/1.1/DTD/svg11.dtd">
<!--Generator: Xara Designer (www.xara.com), SVG filter version: 6.3.0.31-->
<svg fill="none" fill-rule="evenodd" stroke="black" stroke-width="0.501" stroke-linejoin="bevel" stroke-miterlimit="10" font-family="Times New Roman" font-size="16" style="font-variant-ligatures:none" xmlns:xlink="http://www.w3.org/1999/xlink" xmlns="http://www.w3.org/2000/svg" version="1.1" overflow="visible" width="251.495pt" height="251.495pt" viewBox="3617.67 -2362.87 251.495 251.495">
 <defs>
	</defs>
 <g id="Layer 1" transform="scale(1 -1)">
  <g id="Group" stroke="none">
   <path d="M 3618.91,2237.12 C 3618.91,2305.84 3674.69,2361.62 3743.42,2361.62 C 3812.14,2361.62 3867.92,2305.84 3867.92,2237.12 C 3867.92,2168.39 3812.14,2112.61 3743.42,2112.61 C 3674.69,2112.61 3618.91,2168.39 3618.91,2237.12 Z" fill="#ffe600" stroke-linejoin="miter" marker-start="none" marker-end="none"/>
   <path d="M 3622.82,2237.12 C 3622.82,2303.69 3676.84,2357.72 3743.42,2357.72 C 3809.99,2357.72 3864.01,2303.69 3864.01,2237.12 C 3864.01,2170.55 3809.99,2116.52 3743.42,2116.52 C 3676.84,2116.52 3622.82,2170.55 3622.82,2237.12 Z M 3847.14,2237.12 C 3847.14,2294.38 3800.67,2340.85 3743.42,2340.85 C 3686.16,2340.85 3639.69,2294.38 3639.69,2237.12 C 3639.69,2179.86 3686.16,2133.39 3743.42,2133.39 C 3800.67,2133.39 3847.14,2179.86 3847.14,2237.12 Z" fill="#009642" stroke-linejoin="miter" marker-start="none" marker-end="none"/>
   <path d="M 3703,2170.08 L 3703,2182.89 C 3703,2190.72 3704.46,2197.59 3707.38,2203.5 C 3710.3,2209.41 3713.96,2214.78 3718.38,2219.62 C 3722.79,2224.46 3727.56,2228.95 3732.68,2233.07 C 3737.81,2237.2 3742.58,2241.33 3746.99,2245.46 C 3751.4,2249.59 3755.07,2253.96 3757.99,2258.59 C 3760.91,2263.22 3762.37,2268.52 3762.37,2274.5 C 3762.37,2280.48 3760.59,2285 3757.03,2288.06 C 3753.47,2291.12 3748.49,2292.65 3742.08,2292.65 C 3737.24,2292.65 3732.4,2292.15 3727.56,2291.16 C 3722.72,2290.16 3717.52,2287.95 3711.97,2284.54 L 3705.56,2303.75 C 3711.54,2307.03 3717.88,2309.31 3724.57,2310.59 C 3731.26,2311.87 3738.09,2312.51 3745.07,2312.51 C 3751.19,2312.51 3756.92,2311.83 3762.26,2310.48 C 3767.6,2309.13 3772.26,2306.99 3776.24,2304.07 C 3780.23,2301.16 3783.36,2297.38 3785.64,2292.76 C 3787.92,2288.13 3789.06,2282.54 3789.06,2275.99 C 3789.06,2268.73 3787.6,2262.15 3784.68,2256.24 C 3781.76,2250.33 3778.1,2244.93 3773.68,2240.01 C 3769.27,2235.1 3764.5,2230.55 3759.38,2226.35 C 3754.25,2222.15 3749.48,2218.09 3745.07,2214.18 C 3740.66,2210.26 3736.99,2206.38 3734.07,2202.54 C 3731.15,2198.69 3729.69,2194.71 3729.69,2190.58 L 3790.76,2190.58 L 3790.76,2170.08 L 3703,2170.08 Z" fill-rule="nonzero" stroke-linejoin="round" stroke-width="0.25" fill="#009642" marker-start="none" marker-end="none"/>
   <path d="M 3617.67,2362.87 L 3617.67,2111.37 L 3869.16,2111.37 L 3869.16,2362.87 L 3617.67,2362.87 Z" stroke-width="0.499" stroke-linejoin="miter" stroke-linecap="round" marker-start="none" marker-end="none"/>
  </g>
 </g>
</svg>
