<?xml version="1.0" standalone="no"?>
<!DOCTYPE svg PUBLIC "-//W3C//DTD SVG 1.1//EN" "http://www.w3.org/Graphics/SVG/1.1/DTD/svg11.dtd">
<!--Generator: Xara Designer (www.xara.com), SVG filter version: 6.3.0.31-->
<svg fill="none" fill-rule="evenodd" stroke="black" stroke-width="0.501" stroke-linejoin="bevel" stroke-miterlimit="10" font-family="Times New Roman" font-size="16" style="font-variant-ligatures:none" xmlns:xlink="http://www.w3.org/1999/xlink" xmlns="http://www.w3.org/2000/svg" version="1.1" overflow="visible" width="251.495pt" height="251.495pt" viewBox="3617.67 -1226.87 251.495 251.495">
 <defs>
	</defs>
 <g id="Layer 1" transform="scale(1 -1)">
  <g id="Group" stroke="none">
   <path d="M 3618.91,1101.12 C 3618.91,1169.84 3674.69,1225.62 3743.42,1225.62 C 3812.14,1225.62 3867.92,1169.84 3867.92,1101.12 C 3867.92,1032.39 3812.14,976.614 3743.42,976.614 C 3674.69,976.614 3618.91,1032.39 3618.91,1101.12 Z" fill="#fff068" stroke-linejoin="miter" marker-start="none" marker-end="none"/>
   <path d="M 3628.87,1101.12 C 3628.87,1164.35 3680.18,1215.66 3743.42,1215.66 C 3806.64,1215.66 3857.96,1164.35 3857.96,1101.12 C 3857.96,1037.89 3806.64,986.574 3743.42,986.574 C 3680.18,986.574 3628.87,1037.89 3628.87,1101.12 Z M 3841.93,1101.12 C 3841.93,1155.5 3797.8,1199.64 3743.42,1199.64 C 3689.03,1199.64 3644.9,1155.5 3644.9,1101.12 C 3644.9,1046.74 3689.03,1002.6 3743.42,1002.6 C 3797.8,1002.6 3841.93,1046.74 3841.93,1101.12 Z" fill="#007f38" stroke-linejoin="miter" marker-start="none" marker-end="none"/>
   <path d="M 3673.53,1045.33 L 3673.53,1062.43 L 3699.27,1062.43 L 3699.27,1143.61 L 3671.55,1128.13 L 3669.93,1147.03 L 3699.99,1163.41 L 3721.59,1163.41 L 3721.59,1062.43 L 3745.53,1062.43 L 3745.53,1045.33 L 3673.53,1045.33 Z" fill="#007f38" fill-rule="nonzero" stroke-linejoin="round" stroke-width="0.25" marker-start="none" marker-end="none"/>
   <path d="M 3802.14,1107.25 C 3802.14,1110.25 3801.93,1114.09 3801.51,1118.77 C 3801.09,1123.45 3800.25,1128.01 3798.99,1132.45 C 3797.73,1136.89 3795.9,1140.7 3793.5,1143.88 C 3791.1,1147.06 3787.92,1148.65 3783.96,1148.65 C 3779.76,1148.65 3776.46,1147.06 3774.06,1143.88 C 3771.66,1140.7 3769.83,1136.92 3768.57,1132.54 C 3767.31,1128.16 3766.5,1123.6 3766.14,1118.86 C 3765.78,1114.12 3765.6,1110.25 3765.6,1107.25 C 3765.6,1105.09 3765.63,1102.42 3765.69,1099.24 C 3765.75,1096.06 3765.99,1092.73 3766.41,1089.25 C 3766.83,1085.77 3767.4,1082.29 3768.12,1078.81 C 3768.84,1075.33 3769.89,1072.21 3771.27,1069.45 C 3772.65,1066.69 3774.36,1064.44 3776.4,1062.7 C 3778.44,1060.96 3780.9,1060.09 3783.78,1060.09 C 3787.98,1060.09 3791.31,1061.95 3793.77,1065.67 C 3796.23,1069.39 3798.09,1073.8 3799.35,1078.9 C 3800.61,1084 3801.39,1089.19 3801.69,1094.47 C 3801.99,1099.75 3802.14,1104.01 3802.14,1107.25 Z M 3824.1,1107.25 C 3824.1,1102.93 3823.95,1098.34 3823.65,1093.48 C 3823.35,1088.62 3822.72,1083.82 3821.76,1079.08 C 3820.8,1074.34 3819.39,1069.81 3817.53,1065.49 C 3815.67,1061.17 3813.27,1057.36 3810.33,1054.06 C 3807.39,1050.76 3803.76,1048.15 3799.44,1046.23 C 3795.12,1044.31 3789.96,1043.35 3783.96,1043.35 C 3777.72,1043.35 3772.38,1044.31 3767.94,1046.23 C 3763.5,1048.15 3759.78,1050.73 3756.78,1053.97 C 3753.78,1057.21 3751.41,1060.96 3749.67,1065.22 C 3747.93,1069.48 3746.61,1073.98 3745.71,1078.72 C 3744.81,1083.46 3744.24,1088.29 3744,1093.21 C 3743.76,1098.13 3743.64,1102.81 3743.64,1107.25 C 3743.64,1113.49 3744.18,1120.03 3745.26,1126.87 C 3746.34,1133.71 3748.35,1139.98 3751.29,1145.68 C 3754.23,1151.38 3758.31,1156.09 3763.53,1159.81 C 3768.75,1163.53 3775.5,1165.39 3783.78,1165.39 C 3792.42,1165.39 3799.38,1163.56 3804.66,1159.9 C 3809.94,1156.24 3814.02,1151.59 3816.9,1145.95 C 3819.78,1140.31 3821.7,1134.07 3822.66,1127.23 C 3823.62,1120.39 3824.1,1113.73 3824.1,1107.25 Z" fill="#007f38" fill-rule="nonzero" stroke-linejoin="round" stroke-width="0.25" marker-start="none" marker-end="none"/>
   <path d="M 3617.67,1226.87 L 3617.67,975.37 L 3869.16,975.37 L 3869.16,1226.87 L 3617.67,1226.87 Z" stroke-width="0.499" stroke-linejoin="miter" stroke-linecap="round" marker-start="none" marker-end="none"/>
  </g>
 </g>
</svg>
