<?xml version="1.0" standalone="no"?>
<!DOCTYPE svg PUBLIC "-//W3C//DTD SVG 1.1//EN" "http://www.w3.org/Graphics/SVG/1.1/DTD/svg11.dtd">
<!--Generator: Xara Designer (www.xara.com), SVG filter version: 6.3.0.31-->
<svg fill="none" fill-rule="evenodd" stroke="black" stroke-width="0.501" stroke-linejoin="bevel" stroke-miterlimit="10" font-family="Times New Roman" font-size="16" style="font-variant-ligatures:none" xmlns:xlink="http://www.w3.org/1999/xlink" xmlns="http://www.w3.org/2000/svg" version="1.1" overflow="visible" width="251.495pt" height="251.495pt" viewBox="3340.17 -2362.87 251.495 251.495">
 <defs>
	</defs>
 <g id="Layer 1" transform="scale(1 -1)">
  <g id="Group" stroke="none">
   <path d="M 3341.41,2237.12 C 3341.41,2305.84 3397.19,2361.62 3465.92,2361.62 C 3534.64,2361.62 3590.42,2305.84 3590.42,2237.12 C 3590.42,2168.39 3534.64,2112.61 3465.92,2112.61 C 3397.19,2112.61 3341.41,2168.39 3341.41,2237.12 Z" fill="#ffe600" stroke-linejoin="miter" marker-start="none" marker-end="none"/>
   <path d="M 3345.32,2237.12 C 3345.32,2303.69 3399.34,2357.72 3465.92,2357.72 C 3532.49,2357.72 3586.51,2303.69 3586.51,2237.12 C 3586.51,2170.55 3532.49,2116.52 3465.92,2116.52 C 3399.34,2116.52 3345.32,2170.55 3345.32,2237.12 Z M 3569.64,2237.12 C 3569.64,2294.38 3523.17,2340.85 3465.92,2340.85 C 3408.66,2340.85 3362.19,2294.38 3362.19,2237.12 C 3362.19,2179.86 3408.66,2133.39 3465.92,2133.39 C 3523.17,2133.39 3569.64,2179.86 3569.64,2237.12 Z" fill="#009642" stroke-linejoin="miter" marker-start="none" marker-end="none"/>
   <path d="M 3426.33,2170.08 L 3426.33,2190.37 L 3456.87,2190.37 L 3456.87,2286.67 L 3423.98,2268.31 L 3422.06,2290.73 L 3457.72,2310.16 L 3483.35,2310.16 L 3483.35,2190.37 L 3511.75,2190.37 L 3511.75,2170.08 L 3426.33,2170.08 Z" fill-rule="nonzero" stroke-linejoin="round" stroke-width="0.25" fill="#009642" marker-start="none" marker-end="none"/>
   <path d="M 3340.17,2362.87 L 3340.17,2111.37 L 3591.66,2111.37 L 3591.66,2362.87 L 3340.17,2362.87 Z" stroke-width="0.499" stroke-linejoin="miter" stroke-linecap="round" marker-start="none" marker-end="none"/>
  </g>
 </g>
</svg>
