<?xml version="1.0" standalone="no"?>
<!DOCTYPE svg PUBLIC "-//W3C//DTD SVG 1.1//EN" "http://www.w3.org/Graphics/SVG/1.1/DTD/svg11.dtd">
<!--Generator: Xara Designer (www.xara.com), SVG filter version: 6.3.0.31-->
<svg fill="none" fill-rule="evenodd" stroke="black" stroke-width="0.501" stroke-linejoin="bevel" stroke-miterlimit="10" font-family="Times New Roman" font-size="16" style="font-variant-ligatures:none" xmlns:xlink="http://www.w3.org/1999/xlink" xmlns="http://www.w3.org/2000/svg" version="1.1" overflow="visible" width="251.495pt" height="251.495pt" viewBox="3340.17 -1794.87 251.495 251.495">
 <defs>
	</defs>
 <g id="Layer 1" transform="scale(1 -1)">
  <g id="Group" stroke="none">
   <path d="M 3341.41,1669.12 C 3341.41,1737.84 3397.19,1793.62 3465.92,1793.62 C 3534.64,1793.62 3590.42,1737.84 3590.42,1669.12 C 3590.42,1600.39 3534.64,1544.61 3465.92,1544.61 C 3397.19,1544.61 3341.41,1600.39 3341.41,1669.12 Z" fill="#fff068" stroke-linejoin="miter" marker-start="none" marker-end="none"/>
   <path d="M 3351.37,1669.12 C 3351.37,1732.35 3402.69,1783.66 3465.92,1783.66 C 3529.15,1783.66 3580.46,1732.35 3580.46,1669.12 C 3580.46,1605.89 3529.15,1554.57 3465.92,1554.57 C 3402.69,1554.57 3351.37,1605.89 3351.37,1669.12 Z M 3564.43,1669.12 C 3564.43,1723.5 3520.3,1767.64 3465.92,1767.64 C 3411.53,1767.64 3367.4,1723.5 3367.4,1669.12 C 3367.4,1614.74 3411.53,1570.6 3465.92,1570.6 C 3520.3,1570.6 3564.43,1614.74 3564.43,1669.12 Z" fill="#007f38" stroke-linejoin="miter" marker-start="none" marker-end="none"/>
   <path d="M 3514.13,1647.99 C 3514.13,1632.62 3509.18,1620.73 3499.29,1612.33 C 3489.39,1603.93 3475.34,1599.73 3457.12,1599.73 C 3452.84,1599.73 3448.4,1600.05 3443.77,1600.69 C 3439.14,1601.33 3434.12,1602.44 3428.71,1604 L 3431.06,1624.5 C 3435.62,1622.51 3440.32,1621.19 3445.16,1620.55 C 3450,1619.91 3454.05,1619.59 3457.33,1619.59 C 3466.72,1619.59 3474.06,1621.94 3479.32,1626.64 C 3484.59,1631.34 3487.22,1638.03 3487.22,1646.71 C 3487.22,1654.82 3484.73,1661.02 3479.75,1665.29 C 3474.77,1669.56 3468.15,1671.69 3459.89,1671.69 C 3456.19,1671.69 3451.99,1671.44 3447.29,1670.95 C 3442.59,1670.45 3437.61,1669.63 3432.34,1668.49 L 3434.69,1742.16 L 3507.51,1742.16 L 3507.51,1722.09 L 3457.54,1722.09 L 3456.69,1688.99 C 3458.82,1689.27 3461.21,1689.52 3463.84,1689.74 C 3466.47,1689.95 3469,1690.06 3471.42,1690.06 C 3476.97,1690.06 3482.31,1689.2 3487.44,1687.5 C 3492.56,1685.79 3497.08,1683.19 3501,1679.7 C 3504.91,1676.21 3508.08,1671.84 3510.5,1666.57 C 3512.92,1661.3 3514.13,1655.11 3514.13,1647.99 Z" fill="#007f38" fill-rule="nonzero" stroke-linejoin="round" stroke-width="0.25" marker-start="none" marker-end="none"/>
   <path d="M 3340.17,1794.87 L 3340.17,1543.37 L 3591.66,1543.37 L 3591.66,1794.87 L 3340.17,1794.87 Z" stroke-width="0.499" stroke-linejoin="miter" stroke-linecap="round" marker-start="none" marker-end="none"/>
  </g>
 </g>
</svg>
