<?xml version="1.0" standalone="no"?>
<!DOCTYPE svg PUBLIC "-//W3C//DTD SVG 1.1//EN" "http://www.w3.org/Graphics/SVG/1.1/DTD/svg11.dtd">
<!--Generator: Xara Designer (www.xara.com), SVG filter version: 6.3.0.31-->
<svg fill="none" fill-rule="evenodd" stroke="black" stroke-width="0.501" stroke-linejoin="bevel" stroke-miterlimit="10" font-family="Times New Roman" font-size="16" style="font-variant-ligatures:none" xmlns:xlink="http://www.w3.org/1999/xlink" xmlns="http://www.w3.org/2000/svg" version="1.1" overflow="visible" width="251.495pt" height="251.495pt" viewBox="3617.67 -942.865 251.495 251.495">
 <defs>
	</defs>
 <g id="Layer 1" transform="scale(1 -1)">
  <g id="Group" stroke="none">
   <path d="M 3618.91,817.118 C 3618.91,885.844 3674.69,941.621 3743.42,941.621 C 3812.14,941.621 3867.92,885.844 3867.92,817.118 C 3867.92,748.391 3812.14,692.614 3743.42,692.614 C 3674.69,692.614 3618.91,748.391 3618.91,817.118 Z" fill="#fff068" stroke-linejoin="miter" marker-start="none" marker-end="none"/>
   <path d="M 3628.87,817.119 C 3628.87,880.347 3680.18,931.66 3743.42,931.66 C 3806.64,931.66 3857.96,880.347 3857.96,817.119 C 3857.96,753.888 3806.64,702.574 3743.42,702.574 C 3680.18,702.574 3628.87,753.888 3628.87,817.119 Z M 3841.93,817.119 C 3841.93,871.5 3797.8,915.637 3743.42,915.637 C 3689.03,915.637 3644.9,871.5 3644.9,817.119 C 3644.9,762.735 3689.03,718.598 3743.42,718.598 C 3797.8,718.598 3841.93,762.735 3841.93,817.119 Z" fill="#007f38" stroke-linejoin="miter" marker-start="none" marker-end="none"/>
   <path d="M 3670.28,760.454 L 3670.28,777.554 L 3696.02,777.554 L 3696.02,858.734 L 3668.3,843.254 L 3666.68,862.154 L 3696.74,878.534 L 3718.34,878.534 L 3718.34,777.554 L 3742.28,777.554 L 3742.28,760.454 L 3670.28,760.454 Z" fill="#007f38" fill-rule="nonzero" stroke-linejoin="round" stroke-width="0.25" marker-start="none" marker-end="none"/>
   <path d="M 3745.73,760.454 L 3745.73,771.254 C 3745.73,777.854 3746.96,783.644 3749.42,788.624 C 3751.88,793.604 3754.97,798.134 3758.69,802.214 C 3762.41,806.294 3766.43,810.074 3770.75,813.554 C 3775.07,817.034 3779.09,820.514 3782.81,823.994 C 3786.53,827.474 3789.62,831.164 3792.08,835.064 C 3794.54,838.964 3795.77,843.434 3795.77,848.474 C 3795.77,853.514 3794.27,857.324 3791.27,859.904 C 3788.27,862.484 3784.07,863.774 3778.67,863.774 C 3774.59,863.774 3770.51,863.354 3766.43,862.514 C 3762.35,861.674 3757.97,859.814 3753.29,856.934 L 3747.89,873.134 C 3752.93,875.894 3758.27,877.814 3763.91,878.894 C 3769.55,879.974 3775.31,880.514 3781.19,880.514 C 3786.35,880.514 3791.18,879.944 3795.68,878.804 C 3800.18,877.664 3804.11,875.864 3807.47,873.404 C 3810.83,870.944 3813.47,867.764 3815.39,863.864 C 3817.31,859.964 3818.27,855.254 3818.27,849.734 C 3818.27,843.614 3817.04,838.064 3814.58,833.084 C 3812.12,828.104 3809.03,823.544 3805.31,819.404 C 3801.59,815.264 3797.57,811.424 3793.25,807.884 C 3788.93,804.344 3784.91,800.924 3781.19,797.624 C 3777.47,794.324 3774.38,791.054 3771.92,787.814 C 3769.46,784.574 3768.23,781.214 3768.23,777.734 L 3819.71,777.734 L 3819.71,760.454 L 3745.73,760.454 Z" fill="#007f38" fill-rule="nonzero" stroke-linejoin="round" stroke-width="0.25" marker-start="none" marker-end="none"/>
   <path d="M 3617.67,942.865 L 3617.67,691.37 L 3869.16,691.37 L 3869.16,942.865 L 3617.67,942.865 Z" stroke-width="0.499" stroke-linejoin="miter" stroke-linecap="round" marker-start="none" marker-end="none"/>
  </g>
 </g>
</svg>
