<?xml version="1.0" standalone="no"?>
<!DOCTYPE svg PUBLIC "-//W3C//DTD SVG 1.1//EN" "http://www.w3.org/Graphics/SVG/1.1/DTD/svg11.dtd">
<!--Generator: Xara Designer (www.xara.com), SVG filter version: 6.3.0.31-->
<svg fill="none" fill-rule="evenodd" stroke="black" stroke-width="0.501" stroke-linejoin="bevel" stroke-miterlimit="10" font-family="Times New Roman" font-size="16" style="font-variant-ligatures:none" xmlns:xlink="http://www.w3.org/1999/xlink" xmlns="http://www.w3.org/2000/svg" version="1.1" overflow="visible" width="251.495pt" height="251.495pt" viewBox="3617.67 -2078.87 251.495 251.495">
 <defs>
	</defs>
 <g id="Layer 1" transform="scale(1 -1)">
  <g id="Group" stroke="none">
   <path d="M 3618.91,1953.12 C 3618.91,2021.84 3674.69,2077.62 3743.42,2077.62 C 3812.14,2077.62 3867.92,2021.84 3867.92,1953.12 C 3867.92,1884.39 3812.14,1828.61 3743.42,1828.61 C 3674.69,1828.61 3618.91,1884.39 3618.91,1953.12 Z" fill="#fff068" stroke-linejoin="miter" marker-start="none" marker-end="none"/>
   <path d="M 3628.87,1953.12 C 3628.87,2016.35 3680.18,2067.66 3743.42,2067.66 C 3806.64,2067.66 3857.96,2016.35 3857.96,1953.12 C 3857.96,1889.89 3806.64,1838.57 3743.42,1838.57 C 3680.18,1838.57 3628.87,1889.89 3628.87,1953.12 Z M 3841.93,1953.12 C 3841.93,2007.5 3797.8,2051.64 3743.42,2051.64 C 3689.03,2051.64 3644.9,2007.5 3644.9,1953.12 C 3644.9,1898.74 3689.03,1854.6 3743.42,1854.6 C 3797.8,1854.6 3841.93,1898.74 3841.93,1953.12 Z" fill="#007f38" stroke-linejoin="miter" marker-start="none" marker-end="none"/>
   <path d="M 3746.43,2004.38 L 3744.29,2004.38 L 3710.34,1939.89 L 3746.43,1939.89 L 3746.43,2004.38 Z M 3771.84,1920.89 L 3771.84,1886.08 L 3746.43,1886.08 L 3746.43,1920.89 L 3689.41,1920.89 L 3689.41,1937.54 L 3737.88,2026.16 L 3771.2,2026.16 L 3771.2,1939.89 L 3787.64,1939.89 L 3787.64,1920.89 L 3771.84,1920.89 Z" fill="#007f38" fill-rule="nonzero" stroke-linejoin="round" stroke-width="0.25" marker-start="none" marker-end="none"/>
   <path d="M 3617.67,2078.87 L 3617.67,1827.37 L 3869.16,1827.37 L 3869.16,2078.87 L 3617.67,2078.87 Z" stroke-width="0.499" stroke-linejoin="miter" stroke-linecap="round" marker-start="none" marker-end="none"/>
  </g>
 </g>
</svg>
