<?xml version="1.0" standalone="no"?>
<!DOCTYPE svg PUBLIC "-//W3C//DTD SVG 1.1//EN" "http://www.w3.org/Graphics/SVG/1.1/DTD/svg11.dtd">
<!--Generator: Xara Designer (www.xara.com), SVG filter version: 6.3.0.31-->
<svg fill="none" fill-rule="evenodd" stroke="black" stroke-width="0.501" stroke-linejoin="bevel" stroke-miterlimit="10" font-family="Times New Roman" font-size="16" style="font-variant-ligatures:none" xmlns:xlink="http://www.w3.org/1999/xlink" xmlns="http://www.w3.org/2000/svg" version="1.1" overflow="visible" width="251.495pt" height="251.495pt" viewBox="3617.67 -1226.87 251.495 251.495">
 <defs>
	</defs>
 <g id="Layer 1" transform="scale(1 -1)">
  <g id="Group" stroke="none">
   <path d="M 3618.91,1101.12 C 3618.91,1169.84 3674.69,1225.62 3743.42,1225.62 C 3812.14,1225.62 3867.92,1169.84 3867.92,1101.12 C 3867.92,1032.39 3812.14,976.614 3743.42,976.614 C 3674.69,976.614 3618.91,1032.39 3618.91,1101.12 Z" fill="#ffe600" stroke-linejoin="miter" marker-start="none" marker-end="none"/>
   <path d="M 3622.82,1101.12 C 3622.82,1167.69 3676.84,1221.72 3743.42,1221.72 C 3809.99,1221.72 3864.01,1167.69 3864.01,1101.12 C 3864.01,1034.55 3809.99,980.519 3743.42,980.519 C 3676.84,980.519 3622.82,1034.55 3622.82,1101.12 Z M 3847.14,1101.12 C 3847.14,1158.38 3800.67,1204.85 3743.42,1204.85 C 3686.16,1204.85 3639.69,1158.38 3639.69,1101.12 C 3639.69,1043.86 3686.16,997.39 3743.42,997.39 C 3800.67,997.39 3847.14,1043.86 3847.14,1101.12 Z" fill="#009642" stroke-linejoin="miter" marker-start="none" marker-end="none"/>
   <path d="M 3667.86,1045.33 L 3667.86,1062.43 L 3693.6,1062.43 L 3693.6,1143.61 L 3665.88,1128.13 L 3664.26,1147.03 L 3694.32,1163.41 L 3715.92,1163.41 L 3715.92,1062.43 L 3739.86,1062.43 L 3739.86,1045.33 L 3667.86,1045.33 Z" fill-rule="nonzero" stroke-linejoin="round" stroke-width="0.25" fill="#009642" marker-start="none" marker-end="none"/>
   <path d="M 3807.81,1107.25 C 3807.81,1110.25 3807.6,1114.09 3807.18,1118.77 C 3806.76,1123.45 3805.92,1128.01 3804.66,1132.45 C 3803.4,1136.89 3801.57,1140.7 3799.17,1143.88 C 3796.77,1147.06 3793.59,1148.65 3789.63,1148.65 C 3785.43,1148.65 3782.13,1147.06 3779.73,1143.88 C 3777.33,1140.7 3775.5,1136.92 3774.24,1132.54 C 3772.98,1128.16 3772.17,1123.6 3771.81,1118.86 C 3771.45,1114.12 3771.27,1110.25 3771.27,1107.25 C 3771.27,1105.09 3771.3,1102.42 3771.36,1099.24 C 3771.42,1096.06 3771.66,1092.73 3772.08,1089.25 C 3772.5,1085.77 3773.07,1082.29 3773.79,1078.81 C 3774.51,1075.33 3775.56,1072.21 3776.94,1069.45 C 3778.32,1066.69 3780.03,1064.44 3782.07,1062.7 C 3784.11,1060.96 3786.57,1060.09 3789.45,1060.09 C 3793.65,1060.09 3796.98,1061.95 3799.44,1065.67 C 3801.9,1069.39 3803.76,1073.8 3805.02,1078.9 C 3806.28,1084 3807.06,1089.19 3807.36,1094.47 C 3807.66,1099.75 3807.81,1104.01 3807.81,1107.25 Z M 3829.77,1107.25 C 3829.77,1102.93 3829.62,1098.34 3829.32,1093.48 C 3829.02,1088.62 3828.39,1083.82 3827.43,1079.08 C 3826.47,1074.34 3825.06,1069.81 3823.2,1065.49 C 3821.34,1061.17 3818.94,1057.36 3816,1054.06 C 3813.06,1050.76 3809.43,1048.15 3805.11,1046.23 C 3800.79,1044.31 3795.63,1043.35 3789.63,1043.35 C 3783.39,1043.35 3778.05,1044.31 3773.61,1046.23 C 3769.17,1048.15 3765.45,1050.73 3762.45,1053.97 C 3759.45,1057.21 3757.08,1060.96 3755.34,1065.22 C 3753.6,1069.48 3752.28,1073.98 3751.38,1078.72 C 3750.48,1083.46 3749.91,1088.29 3749.67,1093.21 C 3749.43,1098.13 3749.31,1102.81 3749.31,1107.25 C 3749.31,1113.49 3749.85,1120.03 3750.93,1126.87 C 3752.01,1133.71 3754.02,1139.98 3756.96,1145.68 C 3759.9,1151.38 3763.98,1156.09 3769.2,1159.81 C 3774.42,1163.53 3781.17,1165.39 3789.45,1165.39 C 3798.09,1165.39 3805.05,1163.56 3810.33,1159.9 C 3815.61,1156.24 3819.69,1151.59 3822.57,1145.95 C 3825.45,1140.31 3827.37,1134.07 3828.33,1127.23 C 3829.29,1120.39 3829.77,1113.73 3829.77,1107.25 Z" fill-rule="nonzero" stroke-linejoin="round" stroke-width="0.25" fill="#009642" marker-start="none" marker-end="none"/>
   <path d="M 3617.67,1226.87 L 3617.67,975.37 L 3869.16,975.37 L 3869.16,1226.87 L 3617.67,1226.87 Z" stroke-width="0.499" stroke-linejoin="miter" stroke-linecap="round" marker-start="none" marker-end="none"/>
  </g>
 </g>
</svg>
