<?xml version="1.0" standalone="no"?>
<!DOCTYPE svg PUBLIC "-//W3C//DTD SVG 1.1//EN" "http://www.w3.org/Graphics/SVG/1.1/DTD/svg11.dtd">
<!--Generator: Xara Designer (www.xara.com), SVG filter version: 6.3.0.31-->
<svg fill="none" fill-rule="evenodd" stroke="black" stroke-width="0.501" stroke-linejoin="bevel" stroke-miterlimit="10" font-family="Times New Roman" font-size="16" style="font-variant-ligatures:none" xmlns:xlink="http://www.w3.org/1999/xlink" xmlns="http://www.w3.org/2000/svg" version="1.1" overflow="visible" width="251.495pt" height="251.495pt" viewBox="3340.17 -942.865 251.495 251.495">
 <defs>
	</defs>
 <g id="Layer 1" transform="scale(1 -1)">
  <g id="Group" stroke="none">
   <path d="M 3341.41,817.118 C 3341.41,885.844 3397.19,941.621 3465.92,941.621 C 3534.64,941.621 3590.42,885.844 3590.42,817.118 C 3590.42,748.391 3534.64,692.614 3465.92,692.614 C 3397.19,692.614 3341.41,748.391 3341.41,817.118 Z" fill="#fff068" stroke-linejoin="miter" marker-start="none" marker-end="none"/>
   <path d="M 3351.37,817.119 C 3351.37,880.347 3402.69,931.66 3465.92,931.66 C 3529.15,931.66 3580.46,880.347 3580.46,817.119 C 3580.46,753.888 3529.15,702.574 3465.92,702.574 C 3402.69,702.574 3351.37,753.888 3351.37,817.119 Z M 3564.43,817.119 C 3564.43,871.5 3520.3,915.637 3465.92,915.637 C 3411.53,915.637 3367.4,871.5 3367.4,817.119 C 3367.4,762.735 3411.53,718.598 3465.92,718.598 C 3520.3,718.598 3564.43,762.735 3564.43,817.119 Z" fill="#007f38" stroke-linejoin="miter" marker-start="none" marker-end="none"/>
   <path d="M 3395,759.28 L 3395,776.38 L 3420.74,776.38 L 3420.74,857.56 L 3393.02,842.08 L 3391.4,860.98 L 3421.46,877.36 L 3443.06,877.36 L 3443.06,776.38 L 3467,776.38 L 3467,759.28 L 3395,759.28 Z" fill="#007f38" fill-rule="nonzero" stroke-linejoin="round" stroke-width="0.25" marker-start="none" marker-end="none"/>
   <path d="M 3470.57,759.28 L 3470.57,776.38 L 3496.31,776.38 L 3496.31,857.56 L 3468.59,842.08 L 3466.97,860.98 L 3497.03,877.36 L 3518.63,877.36 L 3518.63,776.38 L 3542.57,776.38 L 3542.57,759.28 L 3470.57,759.28 Z" fill="#007f38" fill-rule="nonzero" stroke-linejoin="round" stroke-width="0.25" marker-start="none" marker-end="none"/>
   <path d="M 3340.17,942.865 L 3340.17,691.37 L 3591.66,691.37 L 3591.66,942.865 L 3340.17,942.865 Z" stroke-width="0.499" stroke-linejoin="miter" stroke-linecap="round" marker-start="none" marker-end="none"/>
  </g>
 </g>
</svg>
