<?xml version="1.0" standalone="no"?>
<!DOCTYPE svg PUBLIC "-//W3C//DTD SVG 1.1//EN" "http://www.w3.org/Graphics/SVG/1.1/DTD/svg11.dtd">
<!--Generator: Xara Designer (www.xara.com), SVG filter version: 6.3.0.31-->
<svg fill="none" fill-rule="evenodd" stroke="black" stroke-width="0.501" stroke-linejoin="bevel" stroke-miterlimit="10" font-family="Times New Roman" font-size="16" style="font-variant-ligatures:none" xmlns:xlink="http://www.w3.org/1999/xlink" xmlns="http://www.w3.org/2000/svg" version="1.1" overflow="visible" width="251.495pt" height="251.495pt" viewBox="3340.17 -1226.87 251.495 251.495">
 <defs>
	</defs>
 <g id="Layer 1" transform="scale(1 -1)">
  <g id="Group" stroke="none">
   <path d="M 3341.41,1101.12 C 3341.41,1169.84 3397.19,1225.62 3465.92,1225.62 C 3534.64,1225.62 3590.42,1169.84 3590.42,1101.12 C 3590.42,1032.39 3534.64,976.614 3465.92,976.614 C 3397.19,976.614 3341.41,1032.39 3341.41,1101.12 Z" fill="#fff068" stroke-linejoin="miter" marker-start="none" marker-end="none"/>
   <path d="M 3351.37,1101.12 C 3351.37,1164.35 3402.69,1215.66 3465.92,1215.66 C 3529.15,1215.66 3580.46,1164.35 3580.46,1101.12 C 3580.46,1037.89 3529.15,986.574 3465.92,986.574 C 3402.69,986.574 3351.37,1037.89 3351.37,1101.12 Z M 3564.43,1101.12 C 3564.43,1155.5 3520.3,1199.64 3465.92,1199.64 C 3411.53,1199.64 3367.4,1155.5 3367.4,1101.12 C 3367.4,1046.74 3411.53,1002.6 3465.92,1002.6 C 3520.3,1002.6 3564.43,1046.74 3564.43,1101.12 Z" fill="#007f38" stroke-linejoin="miter" marker-start="none" marker-end="none"/>
   <path d="M 3489.24,1132.09 C 3489.24,1135.23 3488.92,1138.36 3488.28,1141.49 C 3487.64,1144.62 3486.57,1147.43 3485.08,1149.92 C 3483.58,1152.42 3481.59,1154.44 3479.1,1156.01 C 3476.61,1157.58 3473.58,1158.36 3470.02,1158.36 C 3466.61,1158.36 3463.65,1157.61 3461.16,1156.12 C 3458.67,1154.62 3456.64,1152.63 3455.08,1150.14 C 3453.51,1147.65 3452.37,1144.83 3451.66,1141.7 C 3450.95,1138.57 3450.59,1135.37 3450.59,1132.09 C 3450.59,1128.82 3450.95,1125.65 3451.66,1122.59 C 3452.37,1119.53 3453.47,1116.79 3454.97,1114.37 C 3456.46,1111.95 3458.46,1110.03 3460.95,1108.6 C 3463.44,1107.18 3466.39,1106.47 3469.81,1106.47 C 3472.94,1106.47 3475.72,1107.15 3478.14,1108.5 C 3480.56,1109.85 3482.59,1111.7 3484.22,1114.05 C 3485.86,1116.4 3487.11,1119.14 3487.96,1122.27 C 3488.81,1125.4 3489.24,1128.68 3489.24,1132.09 Z M 3515.29,1125.9 C 3515.29,1116.36 3513.83,1106.83 3510.92,1097.29 C 3508,1087.75 3504.01,1078.64 3498.96,1069.95 C 3493.9,1061.27 3487.92,1053.23 3481.02,1045.83 C 3474.12,1038.42 3466.68,1032.16 3458.7,1027.03 L 3436.93,1040.49 C 3441.62,1043.33 3446.61,1047.07 3451.87,1051.7 C 3457.14,1056.32 3462.12,1061.41 3466.82,1066.96 C 3471.52,1072.52 3475.65,1078.32 3479.2,1084.37 C 3482.76,1090.42 3485.18,1096.36 3486.47,1102.2 C 3482.76,1097.07 3478.6,1093.48 3473.97,1091.42 C 3469.35,1089.35 3464.68,1088.32 3459.99,1088.32 C 3454.15,1088.32 3449.03,1089.35 3444.61,1091.42 C 3440.2,1093.48 3436.46,1096.4 3433.4,1100.17 C 3430.34,1103.94 3428.03,1108.39 3426.46,1113.52 C 3424.9,1118.64 3424.11,1124.26 3424.11,1130.39 C 3424.11,1136.36 3425.11,1142.13 3427.1,1147.68 C 3429.1,1153.23 3432.01,1158.15 3435.86,1162.42 C 3439.7,1166.69 3444.47,1170.1 3450.16,1172.67 C 3455.86,1175.23 3462.41,1176.51 3469.81,1176.51 C 3478.07,1176.51 3485.11,1175.16 3490.95,1172.45 C 3496.79,1169.75 3501.48,1166.12 3505.04,1161.56 C 3508.6,1157.01 3511.2,1151.67 3512.84,1145.55 C 3514.47,1139.43 3515.29,1132.88 3515.29,1125.9 Z" fill="#007f38" fill-rule="nonzero" stroke-linejoin="round" stroke-width="0.25" marker-start="none" marker-end="none"/>
   <path d="M 3340.17,1226.87 L 3340.17,975.37 L 3591.66,975.37 L 3591.66,1226.87 L 3340.17,1226.87 Z" stroke-width="0.499" stroke-linejoin="miter" stroke-linecap="round" marker-start="none" marker-end="none"/>
  </g>
 </g>
</svg>
