<?xml version="1.0" standalone="no"?>
<!DOCTYPE svg PUBLIC "-//W3C//DTD SVG 1.1//EN" "http://www.w3.org/Graphics/SVG/1.1/DTD/svg11.dtd">
<!--Generator: Xara Designer (www.xara.com), SVG filter version: 6.3.0.31-->
<svg fill="none" fill-rule="evenodd" stroke="black" stroke-width="0.501" stroke-linejoin="bevel" stroke-miterlimit="10" font-family="Times New Roman" font-size="16" style="font-variant-ligatures:none" xmlns:xlink="http://www.w3.org/1999/xlink" xmlns="http://www.w3.org/2000/svg" version="1.1" overflow="visible" width="251.495pt" height="251.495pt" viewBox="3617.67 -1510.87 251.495 251.495">
 <defs>
	</defs>
 <g id="Layer 1" transform="scale(1 -1)">
  <g id="Group" stroke="none">
   <path d="M 3618.91,1385.12 C 3618.91,1453.84 3674.69,1509.62 3743.42,1509.62 C 3812.14,1509.62 3867.92,1453.84 3867.92,1385.12 C 3867.92,1316.39 3812.14,1260.61 3743.42,1260.61 C 3674.69,1260.61 3618.91,1316.39 3618.91,1385.12 Z" fill="#ffe600" stroke-linejoin="miter" marker-start="none" marker-end="none"/>
   <path d="M 3622.82,1385.12 C 3622.82,1451.69 3676.84,1505.72 3743.42,1505.72 C 3809.99,1505.72 3864.01,1451.69 3864.01,1385.12 C 3864.01,1318.55 3809.99,1264.52 3743.42,1264.52 C 3676.84,1264.52 3622.82,1318.55 3622.82,1385.12 Z M 3847.14,1385.12 C 3847.14,1442.38 3800.67,1488.85 3743.42,1488.85 C 3686.16,1488.85 3639.69,1442.38 3639.69,1385.12 C 3639.69,1327.86 3686.16,1281.39 3743.42,1281.39 C 3800.67,1281.39 3847.14,1327.86 3847.14,1385.12 Z" fill="#009642" stroke-linejoin="miter" marker-start="none" marker-end="none"/>
   <path d="M 3763.63,1359.08 C 3763.63,1362.5 3763.24,1365.7 3762.46,1368.69 C 3761.67,1371.68 3760.46,1374.31 3758.83,1376.59 C 3757.19,1378.87 3755.09,1380.68 3752.53,1382.03 C 3749.96,1383.39 3746.97,1384.06 3743.56,1384.06 C 3740.14,1384.06 3737.15,1383.39 3734.59,1382.03 C 3732.03,1380.68 3729.89,1378.87 3728.18,1376.59 C 3726.47,1374.31 3725.23,1371.64 3724.45,1368.58 C 3723.66,1365.52 3723.27,1362.35 3723.27,1359.08 C 3723.27,1355.66 3723.63,1352.39 3724.34,1349.26 C 3725.05,1346.13 3726.19,1343.42 3727.76,1341.14 C 3729.32,1338.86 3731.39,1337.05 3733.95,1335.7 C 3736.51,1334.34 3739.64,1333.67 3743.35,1333.67 C 3747.33,1333.67 3750.61,1334.34 3753.17,1335.7 C 3755.73,1337.05 3757.79,1338.86 3759.36,1341.14 C 3760.93,1343.42 3762.03,1346.13 3762.67,1349.26 C 3763.31,1352.39 3763.63,1355.66 3763.63,1359.08 Z M 3760.43,1422.29 C 3760.43,1427.98 3759.11,1432.79 3756.48,1436.7 C 3753.84,1440.61 3749.54,1442.57 3743.56,1442.57 C 3737.58,1442.57 3733.2,1440.58 3730.43,1436.59 C 3727.65,1432.61 3726.26,1427.91 3726.26,1422.5 C 3726.26,1419.65 3726.55,1416.91 3727.12,1414.28 C 3727.68,1411.65 3728.61,1409.3 3729.89,1407.23 C 3731.17,1405.17 3732.92,1403.53 3735.12,1402.32 C 3737.33,1401.11 3740.07,1400.51 3743.35,1400.51 C 3746.48,1400.51 3749.11,1401.11 3751.24,1402.32 C 3753.38,1403.53 3755.13,1405.17 3756.48,1407.23 C 3757.83,1409.3 3758.83,1411.61 3759.47,1414.17 C 3760.11,1416.73 3760.43,1419.44 3760.43,1422.29 Z M 3789.68,1357.16 C 3789.68,1351.04 3788.54,1345.45 3786.26,1340.4 C 3783.99,1335.34 3780.78,1331 3776.66,1327.37 C 3772.53,1323.74 3767.65,1320.89 3762.03,1318.83 C 3756.41,1316.76 3750.25,1315.73 3743.56,1315.73 C 3736.58,1315.73 3730.25,1316.62 3724.55,1318.4 C 3718.86,1320.18 3713.98,1322.81 3709.93,1326.3 C 3705.87,1329.79 3702.74,1334.13 3700.53,1339.33 C 3698.32,1344.52 3697.22,1350.47 3697.22,1357.16 C 3697.22,1361.71 3698,1365.95 3699.57,1369.86 C 3701.14,1373.78 3703.16,1377.27 3705.66,1380.33 C 3708.15,1383.39 3711.03,1385.95 3714.3,1388.01 C 3717.58,1390.08 3720.92,1391.54 3724.34,1392.39 C 3721.35,1393.53 3718.47,1395.02 3715.69,1396.88 C 3712.92,1398.73 3710.46,1401 3708.33,1403.71 C 3706.19,1406.41 3704.45,1409.47 3703.09,1412.89 C 3701.74,1416.31 3701.06,1420.15 3701.06,1424.42 C 3701.06,1429.97 3702.24,1434.99 3704.59,1439.48 C 3706.94,1443.96 3710.07,1447.73 3713.98,1450.79 C 3717.9,1453.85 3722.38,1456.24 3727.44,1457.95 C 3732.49,1459.66 3737.79,1460.51 3743.35,1460.51 C 3749.04,1460.51 3754.48,1459.73 3759.68,1458.16 C 3764.88,1456.59 3769.4,1454.28 3773.24,1451.22 C 3777.08,1448.16 3780.14,1444.39 3782.42,1439.9 C 3784.7,1435.42 3785.84,1430.26 3785.84,1424.42 C 3785.84,1420.15 3785.13,1416.27 3783.7,1412.78 C 3782.28,1409.3 3780.46,1406.27 3778.26,1403.71 C 3776.05,1401.15 3773.52,1399.01 3770.68,1397.3 C 3767.83,1395.59 3764.98,1394.31 3762.14,1393.46 C 3770.25,1391.61 3776.87,1387.55 3781.99,1381.29 C 3787.12,1375.02 3789.68,1366.98 3789.68,1357.16 Z" fill-rule="nonzero" stroke-linejoin="round" stroke-width="0.25" fill="#009642" marker-start="none" marker-end="none"/>
   <path d="M 3617.67,1510.87 L 3617.67,1259.37 L 3869.16,1259.37 L 3869.16,1510.87 L 3617.67,1510.87 Z" stroke-width="0.499" stroke-linejoin="miter" stroke-linecap="round" marker-start="none" marker-end="none"/>
  </g>
 </g>
</svg>
