<?xml version="1.0" standalone="no"?>
<!DOCTYPE svg PUBLIC "-//W3C//DTD SVG 1.1//EN" "http://www.w3.org/Graphics/SVG/1.1/DTD/svg11.dtd">
<!--Generator: Xara Designer (www.xara.com), SVG filter version: 6.3.0.31-->
<svg fill="none" fill-rule="evenodd" stroke="black" stroke-width="0.501" stroke-linejoin="bevel" stroke-miterlimit="10" font-family="Times New Roman" font-size="16" style="font-variant-ligatures:none" xmlns:xlink="http://www.w3.org/1999/xlink" xmlns="http://www.w3.org/2000/svg" version="1.1" overflow="visible" width="251.495pt" height="251.495pt" viewBox="3617.67 -658.865 251.495 251.495">
 <defs>
	</defs>
 <g id="Layer 1" transform="scale(1 -1)">
  <g id="Group" stroke="none">
   <path d="M 3618.91,533.118 C 3618.91,601.844 3674.69,657.621 3743.42,657.621 C 3812.14,657.621 3867.92,601.844 3867.92,533.118 C 3867.92,464.391 3812.14,408.614 3743.42,408.614 C 3674.69,408.614 3618.91,464.391 3618.91,533.118 Z" fill="#fff068" stroke-linejoin="miter" marker-start="none" marker-end="none"/>
   <path d="M 3628.87,533.119 C 3628.87,596.347 3680.18,647.66 3743.42,647.66 C 3806.64,647.66 3857.96,596.347 3857.96,533.119 C 3857.96,469.888 3806.64,418.574 3743.42,418.574 C 3680.18,418.574 3628.87,469.888 3628.87,533.119 Z M 3841.93,533.119 C 3841.93,587.5 3797.8,631.637 3743.42,631.637 C 3689.03,631.637 3644.9,587.5 3644.9,533.119 C 3644.9,478.735 3689.03,434.598 3743.42,434.598 C 3797.8,434.598 3841.93,478.735 3841.93,533.119 Z" fill="#007f38" stroke-linejoin="miter" marker-start="none" marker-end="none"/>
   <path d="M 3675.32,477.255 L 3675.32,494.355 L 3701.06,494.355 L 3701.06,575.535 L 3673.34,560.055 L 3671.72,578.955 L 3701.78,595.336 L 3723.38,595.336 L 3723.38,494.355 L 3747.32,494.355 L 3747.32,477.255 L 3675.32,477.255 Z" fill="#007f38" fill-rule="nonzero" stroke-linejoin="round" stroke-width="0.25" marker-start="none" marker-end="none"/>
   <path d="M 3789.05,576.975 L 3787.25,576.975 L 3758.63,522.615 L 3789.05,522.615 L 3789.05,576.975 Z M 3810.47,506.595 L 3810.47,477.255 L 3789.05,477.255 L 3789.05,506.595 L 3740.99,506.595 L 3740.99,520.635 L 3781.85,595.336 L 3809.93,595.336 L 3809.93,522.615 L 3823.79,522.615 L 3823.79,506.595 L 3810.47,506.595 Z" fill="#007f38" fill-rule="nonzero" stroke-linejoin="round" stroke-width="0.25" marker-start="none" marker-end="none"/>
   <path d="M 3617.67,658.865 L 3617.67,407.37 L 3869.16,407.37 L 3869.16,658.865 L 3617.67,658.865 Z" stroke-width="0.499" stroke-linejoin="miter" stroke-linecap="round" marker-start="none" marker-end="none"/>
  </g>
 </g>
</svg>
