<?xml version="1.0" standalone="no"?>
<!DOCTYPE svg PUBLIC "-//W3C//DTD SVG 1.1//EN" "http://www.w3.org/Graphics/SVG/1.1/DTD/svg11.dtd">
<!--Generator: Xara Designer (www.xara.com), SVG filter version: 6.3.0.31-->
<svg fill="none" fill-rule="evenodd" stroke="black" stroke-width="0.501" stroke-linejoin="bevel" stroke-miterlimit="10" font-family="Times New Roman" font-size="16" style="font-variant-ligatures:none" xmlns:xlink="http://www.w3.org/1999/xlink" xmlns="http://www.w3.org/2000/svg" version="1.1" overflow="visible" width="251.495pt" height="251.495pt" viewBox="3340.17 -942.865 251.495 251.495">
 <defs>
	</defs>
 <g id="Layer 1" transform="scale(1 -1)">
  <g id="Group" stroke="none">
   <path d="M 3341.41,817.118 C 3341.41,885.843 3397.19,941.621 3465.92,941.621 C 3534.64,941.621 3590.42,885.843 3590.42,817.118 C 3590.42,748.392 3534.64,692.614 3465.92,692.614 C 3397.19,692.614 3341.41,748.392 3341.41,817.118 Z" fill="#ffe600" stroke-linejoin="miter" marker-start="none" marker-end="none"/>
   <path d="M 3345.32,817.119 C 3345.32,883.689 3399.34,937.716 3465.92,937.716 C 3532.49,937.716 3586.51,883.689 3586.51,817.119 C 3586.51,750.546 3532.49,696.519 3465.92,696.519 C 3399.34,696.519 3345.32,750.546 3345.32,817.119 Z M 3569.64,817.119 C 3569.64,874.375 3523.17,920.845 3465.92,920.845 C 3408.66,920.845 3362.19,874.375 3362.19,817.119 C 3362.19,759.86 3408.66,713.39 3465.92,713.39 C 3523.17,713.39 3569.64,759.86 3569.64,817.119 Z" fill="#009642" stroke-linejoin="miter" marker-start="none" marker-end="none"/>
   <path d="M 3387.8,759.28 L 3387.8,776.38 L 3413.54,776.38 L 3413.54,857.56 L 3385.82,842.08 L 3384.2,860.98 L 3414.26,877.36 L 3435.86,877.36 L 3435.86,776.38 L 3459.8,776.38 L 3459.8,759.28 L 3387.8,759.28 Z" fill-rule="nonzero" stroke-linejoin="round" stroke-width="0.25" fill="#009642" marker-start="none" marker-end="none"/>
   <path d="M 3475.07,759.28 L 3475.07,776.38 L 3500.81,776.38 L 3500.81,857.56 L 3473.09,842.08 L 3471.47,860.98 L 3501.53,877.36 L 3523.13,877.36 L 3523.13,776.38 L 3547.07,776.38 L 3547.07,759.28 L 3475.07,759.28 Z" fill-rule="nonzero" stroke-linejoin="round" stroke-width="0.25" fill="#009642" marker-start="none" marker-end="none"/>
   <path d="M 3340.17,942.865 L 3340.17,691.37 L 3591.66,691.37 L 3591.66,942.865 L 3340.17,942.865 Z" stroke-width="0.499" stroke-linejoin="miter" stroke-linecap="round" marker-start="none" marker-end="none"/>
  </g>
 </g>
</svg>
