<?xml version="1.0" standalone="no"?>
<!DOCTYPE svg PUBLIC "-//W3C//DTD SVG 1.1//EN" "http://www.w3.org/Graphics/SVG/1.1/DTD/svg11.dtd">
<!--Generator: Xara Designer (www.xara.com), SVG filter version: 6.3.0.31-->
<svg fill="none" fill-rule="evenodd" stroke="black" stroke-width="0.501" stroke-linejoin="bevel" stroke-miterlimit="10" font-family="Times New Roman" font-size="16" style="font-variant-ligatures:none" xmlns:xlink="http://www.w3.org/1999/xlink" xmlns="http://www.w3.org/2000/svg" version="1.1" overflow="visible" width="251.495pt" height="251.495pt" viewBox="3617.67 -374.865 251.495 251.495">
 <defs>
	</defs>
 <g id="Layer 1" transform="scale(1 -1)">
  <g id="Group" stroke="none">
   <path d="M 3618.91,249.118 C 3618.91,317.843 3674.69,373.621 3743.42,373.621 C 3812.14,373.621 3867.92,317.843 3867.92,249.118 C 3867.92,180.392 3812.14,124.614 3743.42,124.614 C 3674.69,124.614 3618.91,180.392 3618.91,249.118 Z" fill="#ffe600" stroke-linejoin="miter" marker-start="none" marker-end="none"/>
   <path d="M 3622.82,249.119 C 3622.82,315.689 3676.84,369.716 3743.42,369.716 C 3809.99,369.716 3864.01,315.689 3864.01,249.119 C 3864.01,182.546 3809.99,128.519 3743.42,128.519 C 3676.84,128.519 3622.82,182.546 3622.82,249.119 Z M 3847.14,249.119 C 3847.14,306.375 3800.67,352.845 3743.42,352.845 C 3686.16,352.845 3639.69,306.375 3639.69,249.119 C 3639.69,191.86 3686.16,145.39 3743.42,145.39 C 3800.67,145.39 3847.14,191.86 3847.14,249.119 Z" fill="#009642" stroke-linejoin="miter" marker-start="none" marker-end="none"/>
   <path d="M 3669.34,191.098 L 3669.34,208.198 L 3695.08,208.198 L 3695.08,289.378 L 3667.36,273.898 L 3665.74,292.798 L 3695.8,309.179 L 3717.4,309.179 L 3717.4,208.198 L 3741.34,208.198 L 3741.34,191.098 L 3669.34,191.098 Z" fill-rule="nonzero" stroke-linejoin="round" stroke-width="0.25" fill="#009642" marker-start="none" marker-end="none"/>
   <path d="M 3804.49,227.098 C 3804.49,229.858 3804.19,232.528 3803.59,235.108 C 3802.99,237.688 3802.06,239.938 3800.8,241.858 C 3799.54,243.778 3797.86,245.308 3795.76,246.448 C 3793.66,247.588 3791.17,248.158 3788.29,248.158 C 3782.89,248.158 3778.81,246.088 3776.05,241.948 C 3773.29,237.808 3771.91,232.858 3771.91,227.098 C 3771.91,224.338 3772.18,221.608 3772.72,218.908 C 3773.26,216.208 3774.16,213.778 3775.42,211.618 C 3776.68,209.458 3778.33,207.718 3780.37,206.398 C 3782.41,205.078 3784.99,204.418 3788.11,204.418 C 3791.11,204.418 3793.66,205.048 3795.76,206.308 C 3797.86,207.568 3799.57,209.278 3800.89,211.438 C 3802.21,213.598 3803.14,216.028 3803.68,218.728 C 3804.22,221.428 3804.49,224.218 3804.49,227.098 Z M 3826.81,227.818 C 3826.81,222.658 3825.97,217.738 3824.29,213.058 C 3822.61,208.378 3820.15,204.268 3816.91,200.728 C 3813.67,197.188 3809.65,194.368 3804.85,192.268 C 3800.05,190.168 3794.53,189.118 3788.29,189.118 C 3781.21,189.118 3775.24,190.228 3770.38,192.448 C 3765.52,194.668 3761.59,197.698 3758.59,201.538 C 3755.59,205.378 3753.4,209.878 3752.02,215.038 C 3750.64,220.198 3749.95,225.778 3749.95,231.778 C 3749.95,239.818 3751.21,247.888 3753.73,255.988 C 3756.25,264.088 3759.67,271.798 3763.99,279.118 C 3768.31,286.438 3773.41,293.188 3779.29,299.368 C 3785.17,305.549 3791.47,310.799 3798.19,315.119 L 3816.01,303.779 C 3811.81,301.259 3807.49,297.988 3803.05,293.968 C 3798.61,289.948 3794.44,285.598 3790.54,280.918 C 3786.64,276.238 3783.22,271.378 3780.28,266.338 C 3777.34,261.298 3775.33,256.438 3774.25,251.758 C 3777.13,255.718 3780.49,258.658 3784.33,260.578 C 3788.17,262.498 3792.25,263.458 3796.57,263.458 C 3801.61,263.458 3806.02,262.528 3809.8,260.668 C 3813.58,258.808 3816.73,256.258 3819.25,253.018 C 3821.77,249.778 3823.66,245.998 3824.92,241.678 C 3826.18,237.358 3826.81,232.738 3826.81,227.818 Z" fill-rule="nonzero" stroke-linejoin="round" stroke-width="0.25" fill="#009642" marker-start="none" marker-end="none"/>
   <path d="M 3617.67,374.865 L 3617.67,123.37 L 3869.16,123.37 L 3869.16,374.865 L 3617.67,374.865 Z" stroke-width="0.499" stroke-linejoin="miter" stroke-linecap="round" marker-start="none" marker-end="none"/>
  </g>
 </g>
</svg>
