<?xml version="1.0" standalone="no"?>
<!DOCTYPE svg PUBLIC "-//W3C//DTD SVG 1.1//EN" "http://www.w3.org/Graphics/SVG/1.1/DTD/svg11.dtd">
<!--Generator: Xara Designer (www.xara.com), SVG filter version: 6.3.0.31-->
<svg fill="none" fill-rule="evenodd" stroke="black" stroke-width="0.501" stroke-linejoin="bevel" stroke-miterlimit="10" font-family="Times New Roman" font-size="16" style="font-variant-ligatures:none" xmlns:xlink="http://www.w3.org/1999/xlink" xmlns="http://www.w3.org/2000/svg" version="1.1" overflow="visible" width="251.495pt" height="251.495pt" viewBox="3617.67 -942.865 251.495 251.495">
 <defs>
	</defs>
 <g id="Layer 1" transform="scale(1 -1)">
  <g id="Group" stroke="none">
   <path d="M 3618.91,817.118 C 3618.91,885.843 3674.69,941.621 3743.42,941.621 C 3812.14,941.621 3867.92,885.843 3867.92,817.118 C 3867.92,748.392 3812.14,692.614 3743.42,692.614 C 3674.69,692.614 3618.91,748.392 3618.91,817.118 Z" fill="#ffe600" stroke-linejoin="miter" marker-start="none" marker-end="none"/>
   <path d="M 3622.82,817.119 C 3622.82,883.689 3676.84,937.716 3743.42,937.716 C 3809.99,937.716 3864.01,883.689 3864.01,817.119 C 3864.01,750.546 3809.99,696.519 3743.42,696.519 C 3676.84,696.519 3622.82,750.546 3622.82,817.119 Z M 3847.14,817.119 C 3847.14,874.375 3800.67,920.845 3743.42,920.845 C 3686.16,920.845 3639.69,874.375 3639.69,817.119 C 3639.69,759.86 3686.16,713.39 3743.42,713.39 C 3800.67,713.39 3847.14,759.86 3847.14,817.119 Z" fill="#009642" stroke-linejoin="miter" marker-start="none" marker-end="none"/>
   <path d="M 3664.61,760.454 L 3664.61,777.554 L 3690.35,777.554 L 3690.35,858.734 L 3662.63,843.254 L 3661.01,862.154 L 3691.07,878.534 L 3712.67,878.534 L 3712.67,777.554 L 3736.61,777.554 L 3736.61,760.454 L 3664.61,760.454 Z" fill-rule="nonzero" stroke-linejoin="round" stroke-width="0.25" fill="#009642" marker-start="none" marker-end="none"/>
   <path d="M 3748.4,760.454 L 3748.4,771.254 C 3748.4,777.854 3749.63,783.644 3752.09,788.624 C 3754.55,793.604 3757.64,798.134 3761.36,802.214 C 3765.08,806.294 3769.1,810.074 3773.42,813.554 C 3777.74,817.034 3781.76,820.514 3785.48,823.994 C 3789.2,827.474 3792.29,831.164 3794.75,835.064 C 3797.21,838.964 3798.44,843.434 3798.44,848.474 C 3798.44,853.514 3796.94,857.324 3793.94,859.904 C 3790.94,862.484 3786.74,863.774 3781.34,863.774 C 3777.26,863.774 3773.18,863.354 3769.1,862.514 C 3765.02,861.674 3760.64,859.814 3755.96,856.934 L 3750.56,873.134 C 3755.6,875.894 3760.94,877.814 3766.58,878.894 C 3772.22,879.974 3777.98,880.514 3783.86,880.514 C 3789.02,880.514 3793.85,879.944 3798.35,878.804 C 3802.85,877.664 3806.78,875.864 3810.14,873.404 C 3813.5,870.944 3816.14,867.764 3818.06,863.864 C 3819.98,859.964 3820.94,855.254 3820.94,849.734 C 3820.94,843.614 3819.71,838.064 3817.25,833.084 C 3814.79,828.104 3811.7,823.544 3807.98,819.404 C 3804.26,815.264 3800.24,811.424 3795.92,807.884 C 3791.6,804.344 3787.58,800.924 3783.86,797.624 C 3780.14,794.324 3777.05,791.054 3774.59,787.814 C 3772.13,784.574 3770.9,781.214 3770.9,777.734 L 3822.38,777.734 L 3822.38,760.454 L 3748.4,760.454 Z" fill-rule="nonzero" stroke-linejoin="round" stroke-width="0.25" fill="#009642" marker-start="none" marker-end="none"/>
   <path d="M 3617.67,942.865 L 3617.67,691.37 L 3869.16,691.37 L 3869.16,942.865 L 3617.67,942.865 Z" stroke-width="0.499" stroke-linejoin="miter" stroke-linecap="round" marker-start="none" marker-end="none"/>
  </g>
 </g>
</svg>
