<?xml version="1.0" standalone="no"?>
<!DOCTYPE svg PUBLIC "-//W3C//DTD SVG 1.1//EN" "http://www.w3.org/Graphics/SVG/1.1/DTD/svg11.dtd">
<!--Generator: Xara Designer (www.xara.com), SVG filter version: 6.3.0.31-->
<svg fill="none" fill-rule="evenodd" stroke="black" stroke-width="0.501" stroke-linejoin="bevel" stroke-miterlimit="10" font-family="Times New Roman" font-size="16" style="font-variant-ligatures:none" xmlns:xlink="http://www.w3.org/1999/xlink" xmlns="http://www.w3.org/2000/svg" version="1.1" overflow="visible" width="251.495pt" height="251.495pt" viewBox="3340.17 -1510.87 251.495 251.495">
 <defs>
	</defs>
 <g id="Layer 1" transform="scale(1 -1)">
  <g id="Group" stroke="none">
   <path d="M 3341.41,1385.12 C 3341.41,1453.84 3397.19,1509.62 3465.92,1509.62 C 3534.64,1509.62 3590.42,1453.84 3590.42,1385.12 C 3590.42,1316.39 3534.64,1260.61 3465.92,1260.61 C 3397.19,1260.61 3341.41,1316.39 3341.41,1385.12 Z" fill="#ffe600" stroke-linejoin="miter" marker-start="none" marker-end="none"/>
   <path d="M 3345.32,1385.12 C 3345.32,1451.69 3399.34,1505.72 3465.92,1505.72 C 3532.49,1505.72 3586.51,1451.69 3586.51,1385.12 C 3586.51,1318.55 3532.49,1264.52 3465.92,1264.52 C 3399.34,1264.52 3345.32,1318.55 3345.32,1385.12 Z M 3569.64,1385.12 C 3569.64,1442.38 3523.17,1488.85 3465.92,1488.85 C 3408.66,1488.85 3362.19,1442.38 3362.19,1385.12 C 3362.19,1327.86 3408.66,1281.39 3465.92,1281.39 C 3523.17,1281.39 3569.64,1327.86 3569.64,1385.12 Z" fill="#009642" stroke-linejoin="miter" marker-start="none" marker-end="none"/>
   <path d="M 3512.52,1444.28 C 3508.39,1434.03 3504.08,1423.03 3499.6,1411.29 C 3495.11,1399.54 3490.74,1387.87 3486.47,1376.27 C 3482.19,1364.67 3478.07,1353.53 3474.08,1342.85 C 3470.09,1332.17 3466.61,1322.92 3463.62,1315.09 C 3463.47,1314.52 3463.33,1314.02 3463.19,1313.6 C 3463.05,1313.17 3462.83,1312.67 3462.55,1312.1 L 3437.35,1322.35 C 3440.77,1331.32 3444.54,1340.96 3448.67,1351.29 C 3452.8,1361.61 3457.03,1371.89 3461.37,1382.14 C 3465.72,1392.39 3469.95,1402.36 3474.08,1412.04 C 3478.21,1421.72 3481.98,1430.4 3485.4,1438.09 L 3425.18,1438.09 L 3425.18,1458.16 L 3512.52,1458.16 L 3512.52,1444.28 Z" fill-rule="nonzero" stroke-linejoin="round" stroke-width="0.25" fill="#009642" marker-start="none" marker-end="none"/>
   <path d="M 3340.17,1510.87 L 3340.17,1259.37 L 3591.66,1259.37 L 3591.66,1510.87 L 3340.17,1510.87 Z" stroke-width="0.499" stroke-linejoin="miter" stroke-linecap="round" marker-start="none" marker-end="none"/>
  </g>
 </g>
</svg>
