<?xml version="1.0" standalone="no"?>
<!DOCTYPE svg PUBLIC "-//W3C//DTD SVG 1.1//EN" "http://www.w3.org/Graphics/SVG/1.1/DTD/svg11.dtd">
<!--Generator: Xara Designer (www.xara.com), SVG filter version: 6.3.0.31-->
<svg fill="none" fill-rule="evenodd" stroke="black" stroke-width="0.501" stroke-linejoin="bevel" stroke-miterlimit="10" font-family="Times New Roman" font-size="16" style="font-variant-ligatures:none" xmlns:xlink="http://www.w3.org/1999/xlink" xmlns="http://www.w3.org/2000/svg" version="1.1" overflow="visible" width="664.605pt" height="249.007pt" viewBox="639.384 -596.492 664.605 249.007">
 <defs>
	</defs>
 <g id="Layer 1" transform="scale(1 -1)">
  <g id="Group" stroke="none">
   <path d="M 639.384,596.492 L 639.384,347.485 L 1303.99,347.485 L 1303.99,596.492 L 639.384,596.492 Z" stroke-width="0.597" stroke-linejoin="miter" marker-start="none" marker-end="none"/>
   <path d="M 769.568,377.614 C 762.976,377.614 757.458,378.455 753.016,380.138 L 753.016,400.428 C 758.666,399.012 763.579,398.306 767.75,398.306 C 780.94,398.306 787.535,406.649 787.535,423.339 L 787.535,566.365 L 811.761,566.365 L 811.761,424.146 C 811.759,409.073 808.175,397.548 801.009,389.575 C 793.843,381.599 783.363,377.614 769.568,377.614 Z M 892.432,416.779 C 875.07,416.779 861.493,421.84 851.702,431.97 C 841.912,442.096 837.017,456.044 837.017,473.807 C 837.017,492.044 841.559,506.377 850.643,516.808 C 859.727,527.238 872.211,532.452 888.091,532.452 C 902.828,532.452 914.47,527.979 923.015,519.027 C 931.562,510.078 935.834,497.764 935.834,482.085 L 935.834,469.265 L 861.444,469.265 C 861.78,458.43 864.708,450.103 870.224,444.284 C 875.742,438.464 883.514,435.553 893.54,435.553 C 900.138,435.553 906.276,436.176 911.961,437.419 C 917.646,438.665 923.752,440.735 930.281,443.626 L 930.281,424.35 C 924.493,421.591 918.639,419.638 912.719,418.496 C 906.796,417.35 900.034,416.779 892.432,416.779 Z M 888.091,514.485 C 880.554,514.485 874.513,512.096 869.971,507.319 C 865.429,502.541 862.722,495.579 861.846,486.426 L 912.518,486.426 C 912.383,495.645 910.164,502.624 905.857,507.37 C 901.55,512.113 895.627,514.485 888.091,514.485 Z M 1000.56,435.958 C 1006.34,435.955 1012.13,436.865 1017.92,438.682 L 1017.92,420.815 C 1015.29,419.67 1011.91,418.711 1007.77,417.939 C 1003.63,417.163 999.344,416.779 994.902,416.779 C 972.427,416.779 961.19,428.622 961.19,452.308 L 961.19,512.466 L 945.947,512.466 L 945.947,522.963 L 962.298,531.645 L 970.375,555.263 L 985.011,555.263 L 985.011,530.434 L 1016.81,530.434 L 1016.81,512.466 L 985.011,512.466 L 985.011,452.713 C 985.009,446.994 986.438,442.771 989.301,440.043 C 992.16,437.318 995.913,435.955 1000.56,435.958 Z M 1111,418.797 L 1026.32,418.797 L 1026.32,433.434 L 1082.74,512.265 L 1029.75,512.265 L 1029.75,530.434 L 1109.39,530.434 L 1109.39,513.879 L 1054.17,436.965 L 1111,436.965 L 1111,418.797 Z M 1173,435.958 C 1178.78,435.955 1184.57,436.865 1190.36,438.682 L 1190.36,420.815 C 1187.74,419.67 1184.35,418.711 1180.21,417.939 C 1176.08,417.163 1171.79,416.779 1167.34,416.779 C 1144.87,416.779 1133.63,428.622 1133.63,452.308 L 1133.63,512.466 L 1118.39,512.466 L 1118.39,522.963 L 1134.74,531.645 L 1142.82,555.263 L 1157.45,555.263 L 1157.45,530.434 L 1189.25,530.434 L 1189.25,512.466 L 1157.45,512.466 L 1157.45,452.713 C 1157.45,446.994 1158.88,442.771 1161.74,440.043 C 1164.6,437.318 1168.36,435.955 1173,435.958 Z" stroke-width="5.169" stroke-linecap="round" fill-rule="nonzero" fill="#fffc00" stroke-linejoin="round" marker-start="none" marker-end="none"/>
  </g>
 </g>
</svg>
