<?xml version="1.0" standalone="no"?>
<!DOCTYPE svg PUBLIC "-//W3C//DTD SVG 1.1//EN" "http://www.w3.org/Graphics/SVG/1.1/DTD/svg11.dtd">
<!--Generator: Xara Designer (www.xara.com), SVG filter version: 6.3.0.31-->
<svg fill="none" fill-rule="evenodd" stroke="black" stroke-width="0.501" stroke-linejoin="bevel" stroke-miterlimit="10" font-family="Times New Roman" font-size="16" style="font-variant-ligatures:none" xmlns:xlink="http://www.w3.org/1999/xlink" xmlns="http://www.w3.org/2000/svg" version="1.1" overflow="visible" width="102.013pt" height="55.758pt" viewBox="298.624 -191.762 102.013 55.758">
 <defs>
	</defs>
 <g id="Layer 1" transform="scale(1 -1)">
  <g id="Group" stroke="none">
   <path d="M 298.624,191.762 L 298.624,136.004 L 400.637,136.004 L 400.637,191.762 L 298.624,191.762 Z" stroke-width="0.597" stroke-linejoin="miter" marker-start="none" marker-end="none"/>
   <path d="M 302.929,142.751 C 301.453,142.751 300.217,142.939 299.222,143.316 L 299.222,147.859 C 300.487,147.542 301.588,147.384 302.522,147.384 C 305.475,147.384 306.952,149.252 306.952,152.989 L 306.952,185.016 L 312.377,185.016 L 312.377,153.17 C 312.376,149.795 311.573,147.214 309.969,145.429 C 308.364,143.643 306.018,142.751 302.929,142.751 Z M 330.44,151.52 C 326.553,151.52 323.513,152.654 321.32,154.922 C 319.128,157.189 318.032,160.312 318.032,164.29 C 318.032,168.374 319.049,171.583 321.083,173.919 C 323.117,176.254 325.912,177.422 329.468,177.422 C 332.768,177.422 335.375,176.42 337.289,174.416 C 339.202,172.412 340.159,169.654 340.159,166.144 L 340.159,163.273 L 323.501,163.273 C 323.577,160.847 324.232,158.982 325.468,157.679 C 326.703,156.376 328.443,155.724 330.688,155.724 C 332.166,155.724 333.54,155.864 334.813,156.142 C 336.086,156.421 337.453,156.885 338.916,157.532 L 338.916,153.215 C 337.619,152.598 336.309,152.161 334.983,151.905 C 333.657,151.648 332.142,151.52 330.44,151.52 Z M 329.468,173.399 C 327.781,173.399 326.428,172.864 325.411,171.794 C 324.394,170.724 323.788,169.165 323.591,167.116 L 334.938,167.116 C 334.908,169.18 334.411,170.743 333.446,171.805 C 332.482,172.867 331.156,173.399 329.468,173.399 Z M 354.651,155.815 C 355.947,155.814 357.243,156.018 358.539,156.425 L 358.539,152.424 C 357.951,152.168 357.194,151.953 356.267,151.78 C 355.341,151.607 354.38,151.52 353.385,151.52 C 348.353,151.52 345.837,154.172 345.837,159.476 L 345.837,172.947 L 342.423,172.947 L 342.423,175.297 L 346.084,177.241 L 347.893,182.53 L 351.171,182.53 L 351.171,176.97 L 358.29,176.97 L 358.29,172.947 L 351.171,172.947 L 351.171,159.567 C 351.17,158.286 351.49,157.341 352.131,156.73 C 352.771,156.119 353.612,155.814 354.651,155.815 Z M 379.382,151.972 L 360.42,151.972 L 360.42,155.25 L 373.054,172.901 L 361.188,172.901 L 361.188,176.97 L 379.02,176.97 L 379.02,173.263 L 366.658,156.04 L 379.382,156.04 L 379.382,151.972 Z M 393.264,155.815 C 394.56,155.814 395.856,156.018 397.152,156.425 L 397.152,152.424 C 396.565,152.168 395.807,151.953 394.88,151.78 C 393.953,151.607 392.993,151.52 391.998,151.52 C 386.966,151.52 384.45,154.172 384.45,159.476 L 384.45,172.947 L 381.037,172.947 L 381.037,175.297 L 384.698,177.241 L 386.506,182.53 L 389.784,182.53 L 389.784,176.97 L 396.903,176.97 L 396.903,172.947 L 389.784,172.947 L 389.784,159.567 C 389.783,158.286 390.103,157.341 390.744,156.73 C 391.385,156.119 392.225,155.814 393.264,155.815 Z" fill="#ffffff" stroke-width="5.169" stroke-linecap="round" fill-rule="nonzero" stroke-linejoin="round" marker-start="none" marker-end="none"/>
  </g>
 </g>
</svg>
