<?xml version="1.0" standalone="no"?>
<!DOCTYPE svg PUBLIC "-//W3C//DTD SVG 1.1//EN" "http://www.w3.org/Graphics/SVG/1.1/DTD/svg11.dtd">
<!--Generator: Xara Designer (www.xara.com), SVG filter version: 6.3.0.31-->
<svg fill="none" fill-rule="evenodd" stroke="black" stroke-width="0.501" stroke-linejoin="bevel" stroke-miterlimit="10" font-family="Times New Roman" font-size="16" style="font-variant-ligatures:none" xmlns:xlink="http://www.w3.org/1999/xlink" xmlns="http://www.w3.org/2000/svg" version="1.1" overflow="visible" width="455.578pt" height="249.007pt" viewBox="1015.18 -596.5 455.578 249.007">
 <defs>
	</defs>
 <g id="Layer 1" transform="scale(1 -1)">
  <g id="Group" stroke="none">
   <path d="M 1015.18,596.5 L 1015.18,347.493 L 1470.76,347.493 L 1470.76,596.5 L 1015.18,596.5 Z" stroke-width="0.597" stroke-linejoin="miter" marker-start="none" marker-end="none"/>
   <path d="M 1034.4,377.622 C 1027.81,377.622 1022.29,378.463 1017.85,380.146 L 1017.85,400.436 C 1023.5,399.02 1028.42,398.314 1032.59,398.314 C 1045.78,398.314 1052.37,406.657 1052.37,423.347 L 1052.37,566.373 L 1076.6,566.373 L 1076.6,424.154 C 1076.6,409.081 1073.01,397.556 1065.85,389.583 C 1058.68,381.607 1048.2,377.622 1034.4,377.622 Z M 1157.27,416.787 C 1139.91,416.787 1126.33,421.848 1116.54,431.978 C 1106.75,442.104 1101.85,456.052 1101.85,473.815 C 1101.85,492.052 1106.4,506.385 1115.48,516.816 C 1124.56,527.246 1137.05,532.46 1152.93,532.46 C 1167.66,532.46 1179.31,527.987 1187.85,519.035 C 1196.4,510.086 1200.67,497.772 1200.67,482.093 L 1200.67,469.273 L 1126.28,469.273 C 1126.62,458.438 1129.54,450.111 1135.06,444.292 C 1140.58,438.472 1148.35,435.561 1158.38,435.561 C 1164.97,435.561 1171.11,436.184 1176.8,437.427 C 1182.48,438.673 1188.59,440.743 1195.12,443.634 L 1195.12,424.358 C 1189.33,421.599 1183.48,419.646 1177.56,418.504 C 1171.63,417.358 1164.87,416.787 1157.27,416.787 Z M 1152.93,514.493 C 1145.39,514.493 1139.35,512.104 1134.81,507.327 C 1130.27,502.549 1127.56,495.587 1126.68,486.434 L 1177.35,486.434 C 1177.22,495.653 1175,502.632 1170.69,507.378 C 1166.39,512.121 1160.46,514.493 1152.93,514.493 Z M 1265.39,435.966 C 1271.18,435.963 1276.96,436.873 1282.75,438.69 L 1282.75,420.823 C 1280.13,419.678 1276.75,418.719 1272.61,417.947 C 1268.47,417.171 1264.18,416.787 1259.74,416.787 C 1237.26,416.787 1226.03,428.63 1226.03,452.316 L 1226.03,512.474 L 1210.78,512.474 L 1210.78,522.971 L 1227.13,531.653 L 1235.21,555.271 L 1249.85,555.271 L 1249.85,530.442 L 1281.64,530.442 L 1281.64,512.474 L 1249.85,512.474 L 1249.85,452.721 C 1249.85,447.002 1251.27,442.779 1254.14,440.051 C 1257,437.326 1260.75,435.963 1265.39,435.966 Z M 1375.84,418.805 L 1291.15,418.805 L 1291.15,433.442 L 1347.57,512.273 L 1294.58,512.273 L 1294.58,530.442 L 1374.22,530.442 L 1374.22,513.887 L 1319.01,436.973 L 1375.84,436.973 L 1375.84,418.805 Z M 1437.83,435.966 C 1443.62,435.963 1449.41,436.873 1455.2,438.69 L 1455.2,420.823 C 1452.57,419.678 1449.19,418.719 1445.05,417.947 C 1440.91,417.171 1436.62,416.787 1432.18,416.787 C 1409.7,416.787 1398.47,428.63 1398.47,452.316 L 1398.47,512.474 L 1383.23,512.474 L 1383.23,522.971 L 1399.58,531.653 L 1407.65,555.271 L 1422.29,555.271 L 1422.29,530.442 L 1454.08,530.442 L 1454.08,512.474 L 1422.29,512.474 L 1422.29,452.721 C 1422.29,447.002 1423.72,442.779 1426.58,440.051 C 1429.44,437.326 1433.19,435.963 1437.83,435.966 Z" stroke-width="5.169" stroke-linecap="round" fill-rule="nonzero" fill="#fffc00" stroke-linejoin="round" marker-start="none" marker-end="none"/>
  </g>
 </g>
</svg>
