<?xml version="1.0" standalone="no"?>
<!DOCTYPE svg PUBLIC "-//W3C//DTD SVG 1.1//EN" "http://www.w3.org/Graphics/SVG/1.1/DTD/svg11.dtd">
<!--Generator: Xara Designer (www.xara.com), SVG filter version: 6.3.0.31-->
<svg fill="none" fill-rule="evenodd" stroke="black" stroke-width="0.501" stroke-linejoin="bevel" stroke-miterlimit="10" font-family="Times New Roman" font-size="16" style="font-variant-ligatures:none" xmlns:xlink="http://www.w3.org/1999/xlink" xmlns="http://www.w3.org/2000/svg" version="1.1" overflow="visible" width="620.248pt" height="249.007pt" viewBox="3248.42 -2684.4 620.248 249.007">
 <defs>
	</defs>
 <g id="Layer 1" transform="scale(1 -1)">
  <g id="Group" stroke-linejoin="miter" stroke="none">
   <path d="M 3248.42,2684.4 L 3248.42,2435.4 L 3868.67,2435.4 L 3868.67,2684.4 L 3248.42,2684.4 Z" stroke-width="0.494" stroke-linecap="round" marker-start="none" marker-end="none"/>
   <path d="M 3616.71,2478.17 L 3616.71,2550 L 3631.76,2550 L 3631.76,2478.17 L 3616.71,2478.17 Z" stroke-opacity="0.600000" fill="#ffffff" stroke-width="0.436" marker-start="none" marker-end="none" fill-opacity="0.600000"/>
   <path d="M 3258.14,2480.42 L 3376.64,2488.26 L 3376.64,2472.76 L 3258.14,2480.42 Z M 3258.14,2515.32 L 3376.64,2522.92 L 3376.64,2507.43 L 3258.14,2515.32 Z M 3258.14,2548.26 L 3376.64,2556.19 L 3376.64,2540.69 L 3258.14,2548.26 Z" stroke-opacity="0.600000" fill="#ffffff" stroke-width="0.5" stroke-linecap="round" marker-start="none" marker-end="none" fill-opacity="0.600000"/>
   <path d="M 3443.04,2619.14 L 3481.53,2619.14 L 3481.53,2683.9 L 3514.79,2683.9 L 3514.79,2619.14 L 3553.28,2619.14 L 3498.16,2572.66 L 3443.04,2619.14 Z" fill="#ffffff" stroke-width="0.742" stroke-linecap="round" marker-start="none" marker-end="none"/>
   <path d="M 3416.45,2462.58 C 3412.08,2463.88 3408.83,2467.7 3407.55,2472.38 L 3383.76,2472.38 L 3383.76,2556.19 L 3607.76,2556.19 L 3607.76,2472.38 L 3586.46,2472.38 C 3584.46,2465.02 3577.86,2460.66 3571.36,2462.58 C 3566.99,2463.88 3563.74,2467.7 3562.46,2472.38 L 3544.93,2472.38 C 3542.93,2465.02 3536.33,2460.66 3529.83,2462.58 C 3525.46,2463.88 3522.21,2467.7 3520.93,2472.38 L 3473.07,2472.38 C 3471.08,2465.02 3464.47,2460.66 3457.98,2462.58 C 3453.61,2463.88 3450.36,2467.7 3449.08,2472.38 L 3431.55,2472.38 C 3429.55,2465.02 3422.95,2460.66 3416.45,2462.58 Z M 3490.64,2518 L 3490.64,2543.13 L 3398.63,2543.13 C 3396.45,2543.13 3394.68,2541.07 3394.68,2538.53 L 3394.68,2522.6 C 3394.68,2520.06 3396.45,2518 3398.63,2518 L 3490.64,2518 Z M 3596.94,2522.6 L 3596.94,2538.53 C 3596.94,2541.07 3595.17,2543.13 3593,2543.13 L 3505.68,2543.13 L 3505.68,2518 L 3593,2518 C 3595.17,2518 3596.94,2520.06 3596.94,2522.6 Z" stroke-width="0.436" fill="#ffffff" marker-start="none" marker-end="none"/>
   <path d="M 3670.53,2462.39 C 3666.16,2463.68 3662.91,2467.51 3661.63,2472.18 L 3640.67,2472.18 L 3640.67,2555.99 L 3799.17,2555.99 C 3803.41,2555.99 3807.91,2554.8 3811.43,2552.05 L 3860.16,2513.88 C 3862.83,2511.8 3864.65,2507.69 3864.65,2503.94 L 3864.65,2472.18 L 3833.09,2472.18 C 3831.1,2464.82 3824.49,2460.46 3818,2462.39 C 3813.63,2463.68 3810.37,2467.51 3809.1,2472.18 L 3791.56,2472.18 C 3789.57,2464.82 3782.96,2460.46 3776.47,2462.39 C 3772.1,2463.68 3768.84,2467.51 3767.57,2472.18 L 3727.15,2472.18 C 3725.16,2464.82 3718.55,2460.46 3712.06,2462.39 C 3707.69,2463.68 3704.43,2467.51 3703.16,2472.18 L 3685.63,2472.18 C 3683.63,2464.82 3677.03,2460.46 3670.53,2462.39 Z M 3740.64,2517.8 L 3740.64,2542.95 L 3655.67,2542.95 C 3653.4,2542.95 3651.56,2540.8 3651.56,2538.16 L 3651.56,2522.6 C 3651.56,2519.95 3653.4,2517.8 3655.67,2517.8 L 3740.64,2517.8 Z M 3833.98,2520.55 L 3806.77,2541.24 C 3805.26,2542.4 3803.35,2542.95 3801.55,2542.95 L 3755.68,2542.95 L 3755.68,2517.8 L 3833.67,2517.8 C 3834.46,2517.8 3834.64,2520.05 3833.98,2520.55 Z" stroke-opacity="0.600000" stroke-width="0.436" fill="#ffffff" marker-start="none" marker-end="none" fill-opacity="0.600000"/>
  </g>
 </g>
</svg>
