<?xml version="1.0" standalone="no"?>
<!DOCTYPE svg PUBLIC "-//W3C//DTD SVG 1.1//EN" "http://www.w3.org/Graphics/SVG/1.1/DTD/svg11.dtd">
<!--Generator: Xara Designer (www.xara.com), SVG filter version: 6.3.0.31-->
<svg fill="none" fill-rule="evenodd" stroke="black" stroke-width="0.501" stroke-linejoin="bevel" stroke-miterlimit="10" font-family="Times New Roman" font-size="16" style="font-variant-ligatures:none" xmlns:xlink="http://www.w3.org/1999/xlink" xmlns="http://www.w3.org/2000/svg" version="1.1" overflow="visible" width="139.835pt" height="56.314pt" viewBox="184.852 -192.039 139.835 56.314">
 <defs>
	</defs>
 <g id="Layer 1" transform="scale(1 -1)">
  <g id="Group" stroke-linejoin="miter" stroke="none">
   <path d="M 184.852,192.039 L 184.852,135.725 L 324.687,135.725 L 324.687,192.039 L 184.852,192.039 Z" stroke-width="0.603" marker-start="none" marker-end="none"/>
   <path d="M 296.19,191.761 C 311.579,191.761 324.069,179.271 324.069,163.882 C 324.069,148.493 311.579,136.003 296.19,136.003 C 280.801,136.003 268.311,148.493 268.311,163.882 C 268.311,179.271 280.801,191.761 296.19,191.761 Z" stroke-linecap="round" fill="#ffffff" stroke-width="0.485" marker-start="none" marker-end="none"/>
   <path d="M 281.745,143.281 C 270.373,151.255 267.615,166.956 275.589,178.328 C 283.564,189.699 299.264,192.457 310.636,184.483 C 322.008,176.509 324.765,160.808 316.791,149.436 C 308.817,138.065 293.116,135.307 281.745,143.281 Z M 303.57,161.362 L 303.57,172.714 L 300.194,172.714 L 300.194,161.576 C 300.194,159.366 299.608,157.354 297.196,157.354 C 294.811,157.354 294.199,159.366 294.199,161.576 L 294.199,172.714 L 290.823,172.714 L 290.823,161.362 C 290.823,157.152 292.877,154.643 297.196,154.643 C 301.382,154.643 303.57,157.152 303.57,161.362 Z M 317.309,160.165 C 317.309,166.208 310.201,164.157 310.201,168.072 C 310.201,170.03 311.522,170.456 313.224,170.456 C 314.234,170.456 315.219,170.296 316.122,169.898 L 316.794,172.501 C 315.569,172.821 314.317,173.007 313.039,173.007 C 309.787,173.007 306.798,171.434 306.798,167.833 C 306.798,161.655 313.799,163.945 313.799,159.926 C 313.799,157.753 312.078,157.168 310.243,157.168 C 309.126,157.168 307.877,157.381 306.868,157.86 L 306.805,155.149 C 308.058,154.75 309.391,154.643 310.722,154.643 C 314.132,154.643 317.309,156.349 317.309,160.165 Z M 287.59,160.219 C 287.59,162.535 285.859,164.025 283.757,164.345 C 285.673,165.089 286.951,166.234 286.951,168.337 C 286.924,171.559 284.528,172.703 281.626,172.703 L 275.956,172.703 L 275.956,154.947 L 281.999,154.947 C 285.168,154.947 287.59,156.97 287.59,160.219 Z M 279.31,157.502 L 279.31,162.853 L 281.6,162.853 C 283.117,162.853 284.156,161.843 284.156,160.299 C 284.156,158.648 283.276,157.502 281.52,157.502 L 279.31,157.502 Z M 279.31,165.356 L 279.31,170.175 L 281.2,170.175 C 282.718,170.175 283.596,169.403 283.596,167.911 C 283.596,166.287 282.559,165.356 280.961,165.356 L 279.31,165.356 Z" stroke-linecap="round" fill="#00586a" stroke-width="0.5" marker-start="none" marker-end="none"/>
   <path d="M 184.852,135.727 L 184.852,192.039 L 234.222,192.039 L 251.577,163.881 L 234.223,135.727 L 184.852,135.727 Z" fill="#ffffff" stroke-width="0.091" marker-start="none" marker-end="none"/>
   <path d="M 221.663,168.024 C 221.505,168.024 221.371,168.022 221.297,168.013 C 221.209,167.854 221.078,167.642 220.888,167.346 C 223.871,167.346 226.58,167.1 229.576,166.563 L 228.73,165.746 C 226.025,166.225 223.779,166.416 220.917,166.416 C 220.5,166.416 220.414,166.416 220.312,166.414 C 220.212,166.263 219.988,165.971 219.763,165.701 C 220.017,165.717 220.508,165.725 221.189,165.725 C 223.542,165.725 225.742,165.551 228.128,165.166 L 227.284,164.346 C 225.467,164.63 223.247,164.792 221.254,164.792 C 220.546,164.792 219.742,164.767 219.021,164.725 C 218.86,164.538 218.433,164.08 218.304,163.939 C 219.259,164.038 220.308,164.084 221.559,164.084 C 223.338,164.084 225.037,163.968 226.647,163.73 L 225.8,162.916 C 224.653,163.059 223.261,163.142 222.034,163.142 C 218.862,163.142 216.362,162.453 213.779,160.874 C 216.243,158.233 220.275,156.563 224.184,156.563 L 224.551,156.563 L 223.183,155.242 C 217.546,156.3 211.613,158.78 206.6,162.176 C 201.78,165.43 200.093,166.392 196.331,168.054 L 196.305,169.021 L 198.852,167.929 L 199.717,168.616 L 208.029,164.809 L 207.488,164.376 L 203.222,166.23 L 202.8,165.9 L 205.017,164.662 C 206.889,163.621 208.313,163.155 209.631,163.155 C 212.508,163.155 215.093,165.196 216.759,168.784 C 218.013,168.946 219.351,169.021 220.959,169.021 C 224.259,169.021 227.462,168.705 231.091,168.024 L 230.209,167.171 C 227.949,167.642 224.113,168.024 221.663,168.024 M 213.583,144.297 C 202.77,144.297 193.998,153.068 193.998,163.883 C 193.998,174.696 202.77,183.468 213.583,183.468 C 224.398,183.468 233.169,174.696 233.169,163.883 C 233.169,153.068 224.398,144.297 213.583,144.297 M 213.583,184.718 C 202.062,184.718 192.748,175.404 192.748,163.883 C 192.748,152.36 202.062,143.046 213.583,143.046 C 225.105,143.046 234.42,152.36 234.42,163.883 C 234.42,175.404 225.105,184.718 213.583,184.718" fill-rule="nonzero" fill="#0a1d3d" stroke-width="0.091"/>
   <path d="M 232.269,135.725 L 249.624,163.881 L 232.269,192.039 L 247.511,192.039 L 264.866,163.881 L 247.511,135.725 L 232.269,135.725 Z" fill="#f3b735" stroke-width="0.091" marker-start="none" marker-end="none"/>
  </g>
 </g>
</svg>
