<?xml version="1.0" standalone="no"?>
<!DOCTYPE svg PUBLIC "-//W3C//DTD SVG 1.1//EN" "http://www.w3.org/Graphics/SVG/1.1/DTD/svg11.dtd">
<!--Generator: Xara Designer (www.xara.com), SVG filter version: 6.3.0.31-->
<svg fill="none" fill-rule="evenodd" stroke="black" stroke-width="0.501" stroke-linejoin="bevel" stroke-miterlimit="10" font-family="Times New Roman" font-size="16" style="font-variant-ligatures:none" xmlns:xlink="http://www.w3.org/1999/xlink" xmlns="http://www.w3.org/2000/svg" version="1.1" overflow="visible" width="228.986pt" height="249.007pt" viewBox="3055.38 -2009.25 228.986 249.007">
 <defs>
	</defs>
 <g id="Layer 1" transform="scale(1 -1)">
  <g id="Group" stroke-linejoin="miter" stroke="none">
   <path d="M 3169.87,1824.14 L 3169.87,1799.86 L 3274.31,1860.2 L 3274.31,1884.43 L 3169.87,1824.14 Z M 3065.44,1824.14 L 3065.44,1799.85 L 3169.87,1860.19 L 3169.87,1884.43 L 3065.44,1824.14 Z M 3065.44,1854.27 L 3065.44,1829.99 L 3169.87,1890.32 L 3169.87,1914.56 L 3065.44,1854.27 Z M 3169.87,1794.01 L 3169.87,1769.73 L 3274.31,1830.07 L 3274.31,1854.3 L 3169.87,1794.01 Z M 3065.46,1794.26 L 3065.46,1770.09 L 3273.76,1890.35 L 3273.76,1914.54 L 3065.46,1794.26 Z" stroke-width="0.25" fill-rule="nonzero" fill="#ffffff" marker-start="none" marker-end="none"/>
   <path d="M 3055.38,2009.25 L 3055.38,1760.24 L 3284.37,1760.24 L 3284.37,2009.25 L 3055.38,2009.25 Z" stroke-width="0.494" stroke-linecap="round" marker-start="none" marker-end="none"/>
  </g>
 </g>
</svg>
