<?xml version="1.0" standalone="no"?>
<!DOCTYPE svg PUBLIC "-//W3C//DTD SVG 1.1//EN" "http://www.w3.org/Graphics/SVG/1.1/DTD/svg11.dtd">
<!--Generator: Xara Designer (www.xara.com), SVG filter version: 6.3.0.31-->
<svg fill="none" fill-rule="evenodd" stroke="black" stroke-width="0.501" stroke-linejoin="bevel" stroke-miterlimit="10" font-family="Times New Roman" font-size="16" style="font-variant-ligatures:none" xmlns:xlink="http://www.w3.org/1999/xlink" xmlns="http://www.w3.org/2000/svg" version="1.1" overflow="visible" width="228.986pt" height="249.007pt" viewBox="3055.38 -2009.26 228.986 249.007">
 <defs>
	</defs>
 <g id="Layer 1" transform="scale(1 -1)">
  <g id="Group" stroke-linejoin="miter" stroke="none">
   <path d="M 3169.87,1846.73 L 3169.87,1822.46 L 3274.31,1882.8 L 3274.31,1907.03 L 3169.87,1846.73 Z M 3065.44,1846.73 L 3065.44,1822.44 L 3169.87,1882.79 L 3169.87,1907.03 L 3065.44,1846.73 Z M 3065.44,1876.86 L 3065.44,1852.59 L 3169.87,1912.92 L 3169.87,1937.16 L 3065.44,1876.86 Z M 3169.87,1816.6 L 3169.87,1792.33 L 3274.31,1852.67 L 3274.31,1876.9 L 3169.87,1816.6 Z M 3065.46,1816.86 L 3065.46,1792.68 L 3273.76,1912.95 L 3273.76,1937.14 L 3065.46,1816.86 Z" stroke-width="0.25" fill-rule="nonzero" fill="#ffffff" marker-start="none" marker-end="none"/>
   <path d="M 3055.38,2009.26 L 3055.38,1760.25 L 3284.37,1760.25 L 3284.37,2009.26 L 3055.38,2009.26 Z" stroke-width="0.494" stroke-linecap="round" marker-start="none" marker-end="none"/>
  </g>
 </g>
</svg>
