<?xml version="1.0" standalone="no"?>
<!DOCTYPE svg PUBLIC "-//W3C//DTD SVG 1.1//EN" "http://www.w3.org/Graphics/SVG/1.1/DTD/svg11.dtd">
<!--Generator: Xara Designer (www.xara.com), SVG filter version: 6.3.0.31-->
<svg fill="none" fill-rule="evenodd" stroke="black" stroke-width="0.501" stroke-linejoin="bevel" stroke-miterlimit="10" font-family="Times New Roman" font-size="16" style="font-variant-ligatures:none" xmlns:xlink="http://www.w3.org/1999/xlink" xmlns="http://www.w3.org/2000/svg" version="1.1" overflow="visible" width="249.011pt" height="249.011pt" viewBox="2675.58 -1170.07 249.011 249.011">
 <defs>
	</defs>
 <g id="Layer 1" transform="scale(1 -1)">
  <g id="Group" stroke-linejoin="miter" stroke="none" stroke-width="0.713">
   <rect x="2675.585" y="921.055" width="249.01" height="249.01" fill="#000000"/>
   <path d="M 2924.22,990.083 L 2881.99,990.083 C 2874.95,970.636 2864.45,951.789 2850.78,937.775 C 2849.2,936.15 2845.99,933.537 2843.75,933.266 C 2842.96,933.171 2837.45,931.77 2829.29,949.021 C 2818.48,940.283 2806.73,934.446 2800.75,934.098 L 2799.79,934.098 C 2793.8,934.446 2782.06,940.283 2771.25,949.021 C 2763.09,931.77 2757.58,933.171 2756.79,933.266 C 2754.55,933.537 2751.35,936.15 2749.76,937.775 C 2736.09,951.789 2725.59,970.636 2718.55,990.083 L 2675.97,990.083 L 2675.97,1011.8 L 2712.14,1011.8 C 2709.47,1023.47 2708.1,1034.78 2708.1,1044.8 C 2708.1,1071.96 2714,1095.38 2725.21,1113.4 L 2741.14,1157.92 L 2752.31,1140.46 C 2765.46,1148.4 2781.37,1152.75 2799.79,1152.83 L 2799.79,1152.83 L 2800.75,1152.83 L 2800.75,1152.83 C 2819.17,1152.75 2835.08,1148.4 2848.23,1140.46 L 2859.4,1157.92 L 2875.33,1113.4 C 2886.54,1095.38 2892.44,1071.96 2892.44,1044.8 C 2892.44,1034.78 2891.07,1023.47 2888.4,1011.8 L 2924.22,1011.8 L 2924.22,990.083 Z M 2758.11,988.536 L 2758.15,1011.71 C 2758.16,1013.68 2756.56,1015.28 2754.59,1015.28 C 2752.62,1015.29 2751.01,1013.69 2751.01,1011.72 L 2750.97,988.549 C 2750.96,986.578 2752.56,984.975 2754.53,984.971 C 2756.5,984.968 2758.11,986.565 2758.11,988.536 Z M 2773.05,988.536 L 2773.09,1011.71 C 2773.1,1013.68 2771.5,1015.28 2769.53,1015.28 C 2767.55,1015.29 2765.95,1013.69 2765.95,1011.72 L 2765.91,988.549 C 2765.9,986.578 2767.5,984.975 2769.47,984.971 C 2771.44,984.968 2773.04,986.565 2773.05,988.536 Z M 2787.81,988.536 L 2787.86,1011.71 C 2787.86,1013.68 2786.26,1015.28 2784.29,1015.28 C 2782.32,1015.29 2780.72,1013.69 2780.71,1011.72 L 2780.67,988.549 C 2780.67,986.578 2782.26,984.975 2784.24,984.971 C 2786.21,984.968 2787.81,986.565 2787.81,988.536 Z M 2819.62,988.536 L 2819.66,1011.71 C 2819.66,1013.68 2818.07,1015.28 2816.1,1015.28 C 2814.12,1015.29 2812.52,1013.69 2812.52,1011.72 L 2812.47,988.549 C 2812.47,986.578 2814.07,984.975 2816.04,984.971 C 2818.01,984.968 2819.61,986.565 2819.62,988.536 Z M 2834.55,988.536 L 2834.6,1011.71 C 2834.6,1013.68 2833,1015.28 2831.03,1015.28 C 2829.06,1015.29 2827.46,1013.69 2827.45,1011.72 L 2827.41,988.549 C 2827.41,986.578 2829,984.975 2830.98,984.971 C 2832.95,984.968 2834.55,986.565 2834.55,988.536 Z M 2849.32,988.536 L 2849.36,1011.71 C 2849.37,1013.68 2847.77,1015.28 2845.8,1015.28 C 2843.83,1015.29 2842.22,1013.69 2842.22,1011.72 L 2842.18,988.549 C 2842.17,986.578 2843.77,984.975 2845.74,984.971 C 2847.71,984.968 2849.32,986.565 2849.32,988.536 Z M 2872.5,1087.5 C 2872.5,1117.74 2840.11,1142.28 2800.2,1142.28 C 2760.29,1142.28 2727.91,1117.74 2727.91,1087.5 C 2727.91,1057.26 2760.29,1032.72 2800.2,1032.72 C 2840.11,1032.72 2872.5,1057.26 2872.5,1087.5 Z M 2734.95,1087.5 C 2734.95,1113.95 2764.18,1135.41 2800.2,1135.41 C 2836.22,1135.41 2865.46,1113.95 2865.46,1087.5 C 2865.46,1061.05 2836.22,1039.58 2800.2,1039.58 C 2764.18,1039.58 2734.95,1061.05 2734.95,1087.5 Z M 2813.37,1080.6 C 2813.01,1082.08 2812.17,1082.48 2811.58,1083.15 C 2811.56,1083.17 2811.55,1083.18 2811.54,1083.19 C 2809.4,1085.58 2804.22,1089.45 2800.2,1089.45 C 2796.18,1089.45 2791.01,1085.58 2788.86,1083.19 C 2788.85,1083.18 2788.84,1083.17 2788.83,1083.15 C 2788.23,1082.48 2787.39,1082.08 2787.03,1080.6 C 2785.87,1075.84 2793.33,1061.15 2800.2,1050.99 C 2807.07,1061.15 2814.53,1075.84 2813.37,1080.6 Z M 2788.6,1099.24 C 2788.6,1109.5 2780.27,1117.83 2770.01,1117.83 C 2759.76,1117.83 2751.43,1109.5 2751.43,1099.24 C 2751.43,1088.98 2759.76,1080.65 2770.01,1080.65 C 2780.27,1080.65 2788.6,1088.98 2788.6,1099.24 Z M 2757.91,1099.24 C 2757.91,1105.92 2763.33,1111.35 2770.01,1111.35 C 2776.7,1111.35 2782.12,1105.92 2782.12,1099.24 C 2782.12,1092.56 2776.7,1087.14 2770.01,1087.14 C 2763.33,1087.14 2757.91,1092.56 2757.91,1099.24 Z M 2773.59,1094.91 L 2773.59,1103.57 C 2773.59,1105.54 2771.99,1107.14 2770.01,1107.14 C 2768.04,1107.14 2766.44,1105.54 2766.44,1103.57 L 2766.44,1094.91 C 2766.44,1092.94 2768.04,1091.34 2770.01,1091.34 C 2771.99,1091.34 2773.59,1092.94 2773.59,1094.91 Z M 2842.96,1097.25 C 2843.1,1099.21 2841.63,1100.93 2839.66,1101.07 L 2816.31,1102.8 C 2814.34,1102.95 2812.63,1101.47 2812.48,1099.5 C 2812.34,1097.54 2813.82,1095.82 2815.78,1095.68 L 2839.13,1093.95 C 2841.1,1093.8 2842.81,1095.28 2842.96,1097.25 Z" fill="#fcb900" marker-start="none" marker-end="none"/>
  </g>
 </g>
</svg>
