<?xml version="1.0" standalone="no"?>
<!DOCTYPE svg PUBLIC "-//W3C//DTD SVG 1.1//EN" "http://www.w3.org/Graphics/SVG/1.1/DTD/svg11.dtd">
<!--Generator: Xara Designer (www.xara.com), SVG filter version: 6.3.0.31-->
<svg fill="none" fill-rule="evenodd" stroke="black" stroke-width="0.501" stroke-linejoin="bevel" stroke-miterlimit="10" font-family="Times New Roman" font-size="16" style="font-variant-ligatures:none" xmlns:xlink="http://www.w3.org/1999/xlink" xmlns="http://www.w3.org/2000/svg" version="1.1" overflow="visible" width="249.011pt" height="249.011pt" viewBox="2675.82 -1170.06 249.011 249.011">
 <defs>
	</defs>
 <g id="Layer 1" transform="scale(1 -1)">
  <g id="Group" stroke-linejoin="miter" stroke="none" stroke-width="0.713">
   <rect x="2675.817" y="921.047" width="249.01" height="249.01" fill="#fcb900"/>
   <path d="M 2675.82,921.05 L 2675.82,1170.06 L 2924.83,1170.06 L 2924.83,1011.8 L 2888.63,1011.8 C 2891.3,1023.46 2892.67,1034.77 2892.67,1044.79 C 2892.67,1071.95 2886.78,1095.37 2875.57,1113.4 L 2859.64,1157.91 L 2848.46,1140.46 C 2835.31,1148.39 2819.41,1152.74 2800.98,1152.83 L 2800.98,1152.83 L 2800.03,1152.83 L 2800.03,1152.83 C 2781.6,1152.74 2765.7,1148.39 2752.55,1140.46 L 2741.37,1157.91 L 2725.44,1113.4 C 2714.23,1095.37 2708.34,1071.95 2708.34,1044.79 C 2708.34,1034.77 2709.7,1023.46 2712.38,1011.8 L 2675.83,1011.8 L 2675.83,990.077 L 2718.78,990.077 C 2725.82,970.63 2736.32,951.783 2749.99,937.769 C 2751.58,936.144 2754.78,933.531 2757.03,933.26 C 2757.82,933.165 2763.33,931.764 2771.48,949.015 C 2782.29,940.277 2794.04,934.44 2800.03,934.092 L 2800.98,934.092 C 2806.97,934.44 2818.72,940.277 2829.53,949.015 C 2837.68,931.764 2843.19,933.165 2843.98,933.26 C 2846.23,933.531 2849.43,936.144 2851.01,937.769 C 2864.68,951.783 2875.19,970.63 2882.23,990.077 L 2924.83,990.077 L 2924.83,921.05 L 2675.82,921.05 Z M 2787.26,1080.6 C 2787.62,1082.07 2788.47,1082.48 2789.06,1083.15 C 2789.07,1083.16 2789.08,1083.17 2789.1,1083.18 C 2791.24,1085.58 2796.42,1089.45 2800.44,1089.45 C 2804.45,1089.45 2809.63,1085.58 2811.78,1083.18 C 2811.79,1083.17 2811.8,1083.16 2811.81,1083.15 C 2812.41,1082.48 2813.25,1082.07 2813.61,1080.6 C 2814.77,1075.83 2807.3,1061.14 2800.44,1050.99 C 2793.57,1061.14 2786.1,1075.83 2787.26,1080.6 Z M 2751.66,1099.23 C 2751.66,1109.49 2759.99,1117.82 2770.25,1117.82 C 2780.51,1117.82 2788.84,1109.49 2788.84,1099.23 C 2788.84,1088.97 2780.51,1080.65 2770.25,1080.65 C 2759.99,1080.65 2751.66,1088.97 2751.66,1099.23 Z M 2782.35,1099.23 C 2782.35,1105.92 2776.93,1111.34 2770.25,1111.34 C 2763.57,1111.34 2758.15,1105.92 2758.15,1099.23 C 2758.15,1092.55 2763.57,1087.13 2770.25,1087.13 C 2776.93,1087.13 2782.35,1092.55 2782.35,1099.23 Z M 2766.68,1094.9 L 2766.68,1103.57 C 2766.68,1105.54 2768.28,1107.14 2770.25,1107.14 C 2772.22,1107.14 2773.82,1105.54 2773.82,1103.57 L 2773.82,1094.9 C 2773.82,1092.93 2772.22,1091.33 2770.25,1091.33 C 2768.28,1091.33 2766.68,1092.93 2766.68,1094.9 Z M 2839.37,1093.94 L 2816.02,1095.67 C 2814.05,1095.82 2812.57,1097.53 2812.72,1099.5 C 2812.86,1101.46 2814.58,1102.94 2816.54,1102.8 L 2839.9,1101.06 C 2841.86,1100.92 2843.34,1099.2 2843.19,1097.24 C 2843.05,1095.27 2841.33,1093.8 2839.37,1093.94 Z M 2751.2,988.543 L 2751.24,1011.71 C 2751.25,1013.68 2752.85,1015.28 2754.82,1015.28 C 2756.79,1015.27 2758.39,1013.67 2758.39,1011.7 L 2758.34,988.53 C 2758.34,986.559 2756.74,984.962 2754.77,984.965 C 2752.8,984.969 2751.2,986.572 2751.2,988.543 Z M 2766.14,988.543 L 2766.18,1011.71 C 2766.19,1013.68 2767.79,1015.28 2769.76,1015.28 C 2771.73,1015.27 2773.33,1013.67 2773.33,1011.7 L 2773.28,988.53 C 2773.28,986.559 2771.68,984.962 2769.7,984.965 C 2767.73,984.969 2766.14,986.572 2766.14,988.543 Z M 2780.91,988.543 L 2780.95,1011.71 C 2780.95,1013.68 2782.55,1015.28 2784.53,1015.28 C 2786.5,1015.27 2788.1,1013.67 2788.09,1011.7 L 2788.05,988.53 C 2788.04,986.559 2786.44,984.962 2784.47,984.965 C 2782.5,984.969 2780.9,986.572 2780.91,988.543 Z M 2812.71,988.543 L 2812.75,1011.71 C 2812.76,1013.68 2814.36,1015.28 2816.33,1015.28 C 2818.3,1015.27 2819.9,1013.67 2819.89,1011.7 L 2819.85,988.53 C 2819.85,986.559 2818.24,984.962 2816.27,984.965 C 2814.3,984.969 2812.7,986.572 2812.71,988.543 Z M 2827.65,988.543 L 2827.69,1011.71 C 2827.69,1013.68 2829.3,1015.28 2831.27,1015.28 C 2833.24,1015.27 2834.84,1013.67 2834.83,1011.7 L 2834.79,988.53 C 2834.78,986.559 2833.18,984.962 2831.21,984.965 C 2829.24,984.969 2827.64,986.572 2827.65,988.543 Z M 2842.41,988.543 L 2842.45,1011.71 C 2842.46,1013.68 2844.06,1015.28 2846.03,1015.28 C 2848,1015.27 2849.6,1013.67 2849.6,1011.7 L 2849.55,988.53 C 2849.55,986.559 2847.95,984.962 2845.98,984.965 C 2844.01,984.969 2842.41,986.572 2842.41,988.543 Z M 2728.14,1087.49 C 2728.14,1117.73 2760.53,1142.28 2800.44,1142.28 C 2840.34,1142.28 2872.73,1117.73 2872.73,1087.49 C 2872.73,1057.25 2840.34,1032.71 2800.44,1032.71 C 2760.53,1032.71 2728.14,1057.25 2728.14,1087.49 Z M 2865.69,1087.49 C 2865.69,1113.94 2836.46,1135.41 2800.44,1135.41 C 2764.42,1135.41 2735.18,1113.94 2735.18,1087.49 C 2735.18,1061.04 2764.42,1039.58 2800.44,1039.58 C 2836.46,1039.58 2865.69,1061.04 2865.69,1087.49 Z" fill="#000000" marker-start="none" marker-end="none"/>
  </g>
 </g>
</svg>
