<?xml version="1.0" standalone="no"?>
<!DOCTYPE svg PUBLIC "-//W3C//DTD SVG 1.1//EN" "http://www.w3.org/Graphics/SVG/1.1/DTD/svg11.dtd">
<!--Generator: Xara Designer (www.xara.com), SVG filter version: 6.3.0.31-->
<svg fill="none" fill-rule="evenodd" stroke="black" stroke-width="0.501" stroke-linejoin="bevel" stroke-miterlimit="10" font-family="Times New Roman" font-size="16" style="font-variant-ligatures:none" xmlns:xlink="http://www.w3.org/1999/xlink" xmlns="http://www.w3.org/2000/svg" version="1.1" overflow="visible" width="513.462pt" height="251.495pt" viewBox="2675.81 -597.868 513.462 251.495">
 <defs>
	</defs>
 <g id="Layer 1" transform="scale(1 -1)">
  <g id="Group" stroke-linejoin="miter" stroke="none">
   <path d="M 3063.18,596.503 C 3131.91,596.503 3187.69,540.725 3187.69,471.999 C 3187.69,403.273 3131.91,347.495 3063.18,347.495 C 2994.46,347.495 2938.68,403.273 2938.68,471.999 C 2938.68,540.725 2994.46,596.503 3063.18,596.503 Z" stroke-linecap="round" fill="#ffffff" stroke-width="0.485" marker-start="none" marker-end="none"/>
   <path d="M 2998.67,379.998 C 2947.89,415.609 2935.57,485.728 2971.18,536.512 C 3006.79,587.296 3076.91,599.611 3127.7,564 C 3178.48,528.389 3190.79,458.27 3155.18,407.486 C 3119.57,356.702 3049.45,344.387 2998.67,379.998 Z M 3096.14,460.747 L 3096.14,511.443 L 3081.06,511.443 L 3081.06,461.701 C 3081.06,451.829 3078.45,442.844 3067.68,442.844 C 3057.02,442.844 3054.29,451.83 3054.29,461.701 L 3054.29,511.443 L 3039.21,511.443 L 3039.21,460.747 C 3039.21,441.943 3048.39,430.739 3067.68,430.739 C 3086.37,430.739 3096.14,441.942 3096.14,460.747 Z M 3157.49,455.398 C 3157.49,482.385 3125.75,473.228 3125.75,490.708 C 3125.75,499.456 3131.65,501.358 3139.25,501.358 C 3143.76,501.358 3148.16,500.645 3152.19,498.866 L 3155.2,510.49 C 3149.73,511.919 3144.13,512.749 3138.43,512.749 C 3123.91,512.749 3110.55,505.726 3110.55,489.641 C 3110.55,462.054 3141.82,472.28 3141.82,454.332 C 3141.82,444.629 3134.14,442.017 3125.94,442.017 C 3120.95,442.017 3115.37,442.966 3110.87,445.103 L 3110.59,432.999 C 3116.18,431.216 3122.14,430.739 3128.08,430.739 C 3143.31,430.739 3157.49,438.357 3157.49,455.398 Z M 3024.77,455.638 C 3024.77,465.983 3017.05,472.638 3007.65,474.066 C 3016.21,477.39 3021.92,482.502 3021.92,491.896 C 3021.8,506.281 3011.1,511.393 2998.14,511.393 L 2972.82,511.393 L 2972.82,432.096 L 2999.81,432.096 C 3013.96,432.096 3024.77,441.129 3024.77,455.638 Z M 2987.8,443.507 L 2987.8,467.405 L 2998.02,467.405 C 3004.8,467.405 3009.44,462.891 3009.44,455.996 C 3009.44,448.622 3005.51,443.507 2997.67,443.507 L 2987.8,443.507 Z M 2987.8,478.58 L 2987.8,500.102 L 2996.24,500.102 C 3003.02,500.102 3006.94,496.654 3006.94,489.994 C 3006.94,482.741 3002.3,478.58 2995.17,478.58 L 2987.8,478.58 Z" stroke-linecap="round" fill="#00586a" stroke-width="0.5" marker-start="none" marker-end="none"/>
   <path d="M 2675.81,597.868 L 2675.81,346.373 L 3189.28,346.373 L 3189.28,597.868 L 2675.81,597.868 Z" stroke-width="0.603" marker-start="none" marker-end="none"/>
   <rect x="2675.928" y="347.497" width="249.01" height="249.01" fill="#000000" stroke-width="0.713"/>
   <path d="M 2924.56,416.525 L 2882.34,416.525 C 2875.3,397.078 2864.79,378.231 2851.12,364.217 C 2849.54,362.592 2846.34,359.979 2844.09,359.708 C 2843.3,359.613 2837.79,358.212 2829.63,375.463 C 2818.83,366.725 2807.08,360.888 2801.09,360.54 L 2800.13,360.54 C 2794.15,360.888 2782.4,366.725 2771.59,375.463 C 2763.44,358.212 2757.93,359.613 2757.14,359.708 C 2754.89,359.979 2751.69,362.592 2750.1,364.217 C 2736.43,378.231 2725.93,397.078 2718.89,416.525 L 2676.31,416.525 L 2676.31,438.245 L 2712.49,438.245 C 2709.81,449.911 2708.44,461.219 2708.44,471.238 C 2708.44,498.403 2714.34,521.821 2725.55,539.845 L 2741.48,584.361 L 2752.65,566.907 C 2765.8,574.838 2781.71,579.19 2800.13,579.274 L 2800.13,579.275 L 2801.09,579.275 L 2801.09,579.274 C 2819.51,579.19 2835.42,574.838 2848.57,566.907 L 2859.75,584.361 L 2875.68,539.845 C 2886.89,521.821 2892.78,498.403 2892.78,471.238 C 2892.78,461.219 2891.41,449.911 2888.74,438.245 L 2924.56,438.245 L 2924.56,416.525 Z M 2758.45,414.978 L 2758.5,438.148 C 2758.5,440.119 2756.9,441.722 2754.93,441.725 C 2752.96,441.729 2751.36,440.132 2751.35,438.161 L 2751.31,414.991 C 2751.31,413.02 2752.9,411.417 2754.87,411.413 C 2756.85,411.41 2758.45,413.007 2758.45,414.978 Z M 2773.39,414.978 L 2773.43,438.148 C 2773.44,440.119 2771.84,441.722 2769.87,441.725 C 2767.9,441.729 2766.3,440.132 2766.29,438.161 L 2766.25,414.991 C 2766.24,413.02 2767.84,411.417 2769.81,411.413 C 2771.78,411.41 2773.39,413.007 2773.39,414.978 Z M 2788.16,414.978 L 2788.2,438.148 C 2788.2,440.119 2786.61,441.722 2784.64,441.725 C 2782.66,441.729 2781.06,440.132 2781.06,438.161 L 2781.01,414.991 C 2781.01,413.02 2782.61,411.417 2784.58,411.413 C 2786.55,411.41 2788.15,413.007 2788.16,414.978 Z M 2819.96,414.978 L 2820,438.148 C 2820.01,440.119 2818.41,441.722 2816.44,441.725 C 2814.47,441.729 2812.86,440.132 2812.86,438.161 L 2812.82,414.991 C 2812.81,413.02 2814.41,411.417 2816.38,411.413 C 2818.35,411.41 2819.95,413.007 2819.96,414.978 Z M 2834.9,414.978 L 2834.94,438.148 C 2834.94,440.119 2833.35,441.722 2831.38,441.725 C 2829.4,441.729 2827.8,440.132 2827.8,438.161 L 2827.75,414.991 C 2827.75,413.02 2829.35,411.417 2831.32,411.413 C 2833.29,411.41 2834.89,413.007 2834.9,414.978 Z M 2849.66,414.978 L 2849.7,438.148 C 2849.71,440.119 2848.11,441.722 2846.14,441.725 C 2844.17,441.729 2842.57,440.132 2842.56,438.161 L 2842.52,414.991 C 2842.51,413.02 2844.11,411.417 2846.08,411.413 C 2848.05,411.41 2849.66,413.007 2849.66,414.978 Z M 2872.84,513.94 C 2872.84,544.18 2840.45,568.723 2800.54,568.723 C 2760.64,568.723 2728.25,544.18 2728.25,513.94 C 2728.25,483.701 2760.64,459.158 2800.54,459.158 C 2840.45,459.158 2872.84,483.701 2872.84,513.94 Z M 2735.29,513.94 C 2735.29,540.388 2764.52,561.854 2800.54,561.854 C 2836.57,561.854 2865.8,540.388 2865.8,513.94 C 2865.8,487.491 2836.57,466.025 2800.54,466.025 C 2764.52,466.025 2735.29,487.491 2735.29,513.94 Z M 2813.72,507.043 C 2813.36,508.521 2812.51,508.925 2811.92,509.595 C 2811.91,509.607 2811.9,509.618 2811.89,509.63 C 2809.74,512.023 2804.56,515.895 2800.54,515.895 C 2796.53,515.895 2791.35,512.023 2789.2,509.63 C 2789.19,509.618 2789.18,509.607 2789.17,509.595 C 2788.57,508.925 2787.73,508.521 2787.37,507.043 C 2786.21,502.282 2793.68,487.59 2800.54,477.434 C 2807.41,487.59 2814.88,502.282 2813.72,507.043 Z M 2788.94,525.681 C 2788.94,535.941 2780.62,544.268 2770.36,544.268 C 2760.1,544.268 2751.77,535.941 2751.77,525.681 C 2751.77,515.423 2760.1,507.095 2770.36,507.095 C 2780.62,507.095 2788.94,515.423 2788.94,525.681 Z M 2758.25,525.681 C 2758.25,532.364 2763.68,537.787 2770.36,537.787 C 2777.04,537.787 2782.46,532.364 2782.46,525.681 C 2782.46,519 2777.04,513.577 2770.36,513.577 C 2763.68,513.577 2758.25,519 2758.25,525.681 Z M 2773.93,521.351 L 2773.93,530.013 C 2773.93,531.984 2772.33,533.585 2770.36,533.585 C 2768.39,533.585 2766.79,531.984 2766.79,530.013 L 2766.79,521.351 C 2766.79,519.379 2768.39,517.779 2770.36,517.779 C 2772.33,517.779 2773.93,519.379 2773.93,521.351 Z M 2843.3,523.687 C 2843.45,525.652 2841.97,527.367 2840,527.512 L 2816.65,529.243 C 2814.69,529.389 2812.97,527.912 2812.83,525.945 C 2812.68,523.98 2814.16,522.266 2816.12,522.12 L 2839.47,520.388 C 2841.44,520.243 2843.15,521.72 2843.3,523.687 Z" stroke-width="0.713" fill="#fcb900" marker-start="none" marker-end="none"/>
  </g>
 </g>
</svg>
