<?xml version="1.0" standalone="no"?>
<!DOCTYPE svg PUBLIC "-//W3C//DTD SVG 1.1//EN" "http://www.w3.org/Graphics/SVG/1.1/DTD/svg11.dtd">
<!--Generator: Xara Designer (www.xara.com), SVG filter version: 6.3.0.31-->
<svg fill="none" fill-rule="evenodd" stroke="black" stroke-width="0.501" stroke-linejoin="bevel" stroke-miterlimit="10" font-family="Times New Roman" font-size="16" style="font-variant-ligatures:none" xmlns:xlink="http://www.w3.org/1999/xlink" xmlns="http://www.w3.org/2000/svg" version="1.1" overflow="visible" width="513.465pt" height="251.495pt" viewBox="2675.81 -597.868 513.465 251.495">
 <defs>
	</defs>
 <g id="Layer 1" transform="scale(1 -1)">
  <g id="Group" stroke-linejoin="miter" stroke="none">
   <path d="M 3063.18,596.503 C 3131.91,596.503 3187.69,540.725 3187.69,471.999 C 3187.69,403.273 3131.91,347.495 3063.18,347.495 C 2994.46,347.495 2938.68,403.273 2938.68,471.999 C 2938.68,540.725 2994.46,596.503 3063.18,596.503 Z" stroke-linecap="round" fill="#ffffff" stroke-width="0.485" marker-start="none" marker-end="none"/>
   <path d="M 2998.67,379.998 C 2947.89,415.609 2935.57,485.728 2971.18,536.512 C 3006.79,587.296 3076.91,599.611 3127.7,564 C 3178.48,528.389 3190.79,458.27 3155.18,407.486 C 3119.57,356.702 3049.45,344.387 2998.67,379.998 Z M 3096.14,460.747 L 3096.14,511.443 L 3081.06,511.443 L 3081.06,461.701 C 3081.06,451.829 3078.45,442.844 3067.68,442.844 C 3057.02,442.844 3054.29,451.83 3054.29,461.701 L 3054.29,511.443 L 3039.21,511.443 L 3039.21,460.747 C 3039.21,441.943 3048.39,430.739 3067.68,430.739 C 3086.37,430.739 3096.14,441.942 3096.14,460.747 Z M 3157.49,455.398 C 3157.49,482.385 3125.75,473.228 3125.75,490.708 C 3125.75,499.456 3131.65,501.358 3139.25,501.358 C 3143.76,501.358 3148.16,500.645 3152.19,498.866 L 3155.2,510.49 C 3149.73,511.919 3144.13,512.749 3138.43,512.749 C 3123.91,512.749 3110.55,505.726 3110.55,489.641 C 3110.55,462.054 3141.82,472.28 3141.82,454.332 C 3141.82,444.629 3134.14,442.017 3125.94,442.017 C 3120.95,442.017 3115.37,442.966 3110.87,445.103 L 3110.59,432.999 C 3116.18,431.216 3122.14,430.739 3128.08,430.739 C 3143.31,430.739 3157.49,438.357 3157.49,455.398 Z M 3024.77,455.638 C 3024.77,465.983 3017.05,472.638 3007.65,474.066 C 3016.21,477.39 3021.92,482.502 3021.92,491.896 C 3021.8,506.281 3011.1,511.393 2998.14,511.393 L 2972.82,511.393 L 2972.82,432.096 L 2999.81,432.096 C 3013.96,432.096 3024.77,441.129 3024.77,455.638 Z M 2987.8,443.507 L 2987.8,467.405 L 2998.02,467.405 C 3004.8,467.405 3009.44,462.891 3009.44,455.996 C 3009.44,448.622 3005.51,443.507 2997.67,443.507 L 2987.8,443.507 Z M 2987.8,478.58 L 2987.8,500.102 L 2996.24,500.102 C 3003.02,500.102 3006.94,496.654 3006.94,489.994 C 3006.94,482.741 3002.3,478.58 2995.17,478.58 L 2987.8,478.58 Z" stroke-linecap="round" fill="#00586a" stroke-width="0.5" marker-start="none" marker-end="none"/>
   <rect x="2675.812" y="347.495" width="249.01" height="249.01" fill="#fcb900" stroke-width="0.713"/>
   <path d="M 2675.81,347.498 L 2675.81,596.505 L 2924.82,596.505 L 2924.82,438.245 L 2888.63,438.245 C 2891.3,449.911 2892.67,461.219 2892.67,471.238 C 2892.67,498.403 2886.77,521.821 2875.56,539.845 L 2859.63,584.361 L 2848.46,566.907 C 2835.31,574.838 2819.4,579.19 2800.98,579.274 L 2800.98,579.275 L 2800.02,579.275 L 2800.02,579.274 C 2781.6,579.19 2765.69,574.838 2752.54,566.907 L 2741.37,584.361 L 2725.44,539.845 C 2714.23,521.821 2708.33,498.403 2708.33,471.238 C 2708.33,461.219 2709.7,449.911 2712.37,438.245 L 2675.82,438.245 L 2675.82,416.525 L 2718.78,416.525 C 2725.82,397.078 2736.32,378.231 2749.99,364.217 C 2751.58,362.592 2754.78,359.979 2757.02,359.708 C 2757.81,359.613 2763.32,358.212 2771.48,375.463 C 2782.29,366.725 2794.03,360.888 2800.02,360.54 L 2800.98,360.54 C 2806.96,360.888 2818.71,366.725 2829.52,375.463 C 2837.68,358.212 2843.19,359.613 2843.98,359.708 C 2846.22,359.979 2849.43,362.592 2851.01,364.217 C 2864.68,378.231 2875.18,397.078 2882.22,416.525 L 2924.82,416.525 L 2924.82,347.498 L 2675.81,347.498 Z M 2787.26,507.043 C 2787.62,508.521 2788.46,508.925 2789.06,509.595 C 2789.07,509.607 2789.08,509.618 2789.09,509.63 C 2791.24,512.023 2796.41,515.895 2800.43,515.895 C 2804.45,515.895 2809.63,512.023 2811.77,509.63 C 2811.78,509.618 2811.79,509.607 2811.8,509.595 C 2812.4,508.925 2813.24,508.521 2813.6,507.043 C 2814.76,502.282 2807.3,487.59 2800.43,477.434 C 2793.56,487.59 2786.1,502.282 2787.26,507.043 Z M 2751.66,525.681 C 2751.66,535.941 2759.99,544.268 2770.24,544.268 C 2780.5,544.268 2788.83,535.941 2788.83,525.681 C 2788.83,515.423 2780.5,507.095 2770.24,507.095 C 2759.99,507.095 2751.66,515.423 2751.66,525.681 Z M 2782.35,525.681 C 2782.35,532.364 2776.93,537.787 2770.24,537.787 C 2763.56,537.787 2758.14,532.364 2758.14,525.681 C 2758.14,519 2763.56,513.577 2770.24,513.577 C 2776.93,513.577 2782.35,519 2782.35,525.681 Z M 2766.67,521.351 L 2766.67,530.013 C 2766.67,531.984 2768.27,533.585 2770.24,533.585 C 2772.22,533.585 2773.82,531.984 2773.82,530.013 L 2773.82,521.351 C 2773.82,519.379 2772.22,517.779 2770.24,517.779 C 2768.27,517.779 2766.67,519.379 2766.67,521.351 Z M 2839.36,520.388 L 2816.01,522.12 C 2814.05,522.266 2812.57,523.98 2812.71,525.945 C 2812.86,527.912 2814.57,529.389 2816.54,529.243 L 2839.89,527.512 C 2841.86,527.367 2843.33,525.652 2843.19,523.687 C 2843.04,521.72 2841.33,520.243 2839.36,520.388 Z M 2751.2,414.991 L 2751.24,438.161 C 2751.24,440.132 2752.85,441.729 2754.82,441.725 C 2756.79,441.722 2758.39,440.119 2758.38,438.148 L 2758.34,414.978 C 2758.34,413.007 2756.73,411.41 2754.76,411.413 C 2752.79,411.417 2751.19,413.02 2751.2,414.991 Z M 2766.14,414.991 L 2766.18,438.161 C 2766.18,440.132 2767.78,441.729 2769.76,441.725 C 2771.73,441.722 2773.33,440.119 2773.32,438.148 L 2773.28,414.978 C 2773.27,413.007 2771.67,411.41 2769.7,411.413 C 2767.73,411.417 2766.13,413.02 2766.14,414.991 Z M 2780.9,414.991 L 2780.94,438.161 C 2780.95,440.132 2782.55,441.729 2784.52,441.725 C 2786.49,441.722 2788.09,440.119 2788.09,438.148 L 2788.04,414.978 C 2788.04,413.007 2786.44,411.41 2784.47,411.413 C 2782.49,411.417 2780.9,413.02 2780.9,414.991 Z M 2812.7,414.991 L 2812.75,438.161 C 2812.75,440.132 2814.35,441.729 2816.33,441.725 C 2818.3,441.722 2819.89,440.119 2819.89,438.148 L 2819.85,414.978 C 2819.84,413.007 2818.24,411.41 2816.27,411.413 C 2814.3,411.417 2812.7,413.02 2812.7,414.991 Z M 2827.64,414.991 L 2827.68,438.161 C 2827.69,440.132 2829.29,441.729 2831.26,441.725 C 2833.23,441.722 2834.83,440.119 2834.83,438.148 L 2834.78,414.978 C 2834.78,413.007 2833.18,411.41 2831.21,411.413 C 2829.23,411.417 2827.64,413.02 2827.64,414.991 Z M 2842.41,414.991 L 2842.45,438.161 C 2842.45,440.132 2844.06,441.729 2846.03,441.725 C 2848,441.722 2849.6,440.119 2849.59,438.148 L 2849.55,414.978 C 2849.55,413.007 2847.94,411.41 2845.97,411.413 C 2844,411.417 2842.4,413.02 2842.41,414.991 Z M 2728.14,513.94 C 2728.14,544.18 2760.52,568.723 2800.43,568.723 C 2840.34,568.723 2872.73,544.18 2872.73,513.94 C 2872.73,483.701 2840.34,459.158 2800.43,459.158 C 2760.52,459.158 2728.14,483.701 2728.14,513.94 Z M 2865.69,513.94 C 2865.69,540.388 2836.45,561.854 2800.43,561.854 C 2764.41,561.854 2735.18,540.388 2735.18,513.94 C 2735.18,487.491 2764.41,466.025 2800.43,466.025 C 2836.45,466.025 2865.69,487.491 2865.69,513.94 Z" stroke-width="0.713" fill="#000000" marker-start="none" marker-end="none"/>
   <path d="M 2675.81,597.868 L 2675.81,346.373 L 3189.28,346.373 L 3189.28,597.868 L 2675.81,597.868 Z" stroke-width="0.603" marker-start="none" marker-end="none"/>
  </g>
 </g>
</svg>
