<?xml version="1.0" standalone="no"?>
<!DOCTYPE svg PUBLIC "-//W3C//DTD SVG 1.1//EN" "http://www.w3.org/Graphics/SVG/1.1/DTD/svg11.dtd">
<!--Generator: Xara Designer (www.xara.com), SVG filter version: 6.3.0.31-->
<svg fill="none" fill-rule="evenodd" stroke="black" stroke-width="0.501" stroke-linejoin="bevel" stroke-miterlimit="10" font-family="Times New Roman" font-size="16" style="font-variant-ligatures:none" xmlns:xlink="http://www.w3.org/1999/xlink" xmlns="http://www.w3.org/2000/svg" version="1.1" overflow="visible" width="511.875pt" height="249.011pt" viewBox="2675.81 -596.497 511.875 249.011">
 <defs>
	</defs>
 <g id="Layer 1" transform="scale(1 -1)">
  <g id="Group" stroke-linejoin="miter" stroke="none">
   <path d="M 3063.18,596.495 C 3131.91,596.495 3187.69,540.717 3187.69,471.991 C 3187.69,403.265 3131.91,347.487 3063.18,347.487 C 2994.46,347.487 2938.68,403.265 2938.68,471.991 C 2938.68,540.717 2994.46,596.495 3063.18,596.495 Z" stroke-linecap="round" fill="#ffffff" stroke-width="0.485" marker-start="none" marker-end="none"/>
   <path d="M 2998.67,379.99 C 2947.89,415.601 2935.57,485.72 2971.18,536.504 C 3006.79,587.288 3076.91,599.603 3127.7,563.992 C 3178.48,528.381 3190.79,458.262 3155.18,407.478 C 3119.57,356.694 3049.45,344.379 2998.67,379.99 Z M 3096.14,460.739 L 3096.14,511.435 L 3081.06,511.435 L 3081.06,461.693 C 3081.06,451.821 3078.45,442.836 3067.68,442.836 C 3057.02,442.836 3054.29,451.822 3054.29,461.693 L 3054.29,511.435 L 3039.21,511.435 L 3039.21,460.739 C 3039.21,441.935 3048.39,430.731 3067.68,430.731 C 3086.37,430.731 3096.14,441.934 3096.14,460.739 Z M 3157.49,455.39 C 3157.49,482.377 3125.75,473.22 3125.75,490.7 C 3125.75,499.448 3131.65,501.35 3139.25,501.35 C 3143.76,501.35 3148.16,500.637 3152.19,498.858 L 3155.2,510.482 C 3149.73,511.911 3144.13,512.741 3138.43,512.741 C 3123.91,512.741 3110.55,505.718 3110.55,489.633 C 3110.55,462.046 3141.82,472.272 3141.82,454.324 C 3141.82,444.621 3134.14,442.009 3125.94,442.009 C 3120.95,442.009 3115.37,442.958 3110.87,445.095 L 3110.59,432.991 C 3116.18,431.208 3122.14,430.731 3128.08,430.731 C 3143.31,430.731 3157.49,438.349 3157.49,455.39 Z M 3024.77,455.63 C 3024.77,465.975 3017.05,472.63 3007.65,474.058 C 3016.21,477.382 3021.92,482.494 3021.92,491.888 C 3021.8,506.273 3011.1,511.385 2998.14,511.385 L 2972.82,511.385 L 2972.82,432.088 L 2999.81,432.088 C 3013.96,432.088 3024.77,441.121 3024.77,455.63 Z M 2987.8,443.499 L 2987.8,467.397 L 2998.02,467.397 C 3004.8,467.397 3009.44,462.883 3009.44,455.988 C 3009.44,448.614 3005.51,443.499 2997.67,443.499 L 2987.8,443.499 Z M 2987.8,478.572 L 2987.8,500.094 L 2996.24,500.094 C 3003.02,500.094 3006.94,496.646 3006.94,489.986 C 3006.94,482.733 3002.3,478.572 2995.17,478.572 L 2987.8,478.572 Z" stroke-linecap="round" fill="#00586a" stroke-width="0.5" marker-start="none" marker-end="none"/>
   <rect x="2675.812" y="347.487" width="249.01" height="249.01" fill="#fcb900" stroke-width="0.713"/>
   <path d="M 2675.81,347.49 L 2675.81,596.497 L 2924.82,596.497 L 2924.82,438.237 L 2888.63,438.237 C 2891.3,449.903 2892.67,461.211 2892.67,471.23 C 2892.67,498.395 2886.77,521.813 2875.56,539.837 L 2859.63,584.353 L 2848.46,566.899 C 2835.31,574.83 2819.4,579.182 2800.98,579.266 L 2800.98,579.267 L 2800.02,579.267 L 2800.02,579.266 C 2781.6,579.182 2765.69,574.83 2752.54,566.899 L 2741.37,584.353 L 2725.44,539.837 C 2714.23,521.813 2708.33,498.395 2708.33,471.23 C 2708.33,461.211 2709.7,449.903 2712.37,438.237 L 2675.82,438.237 L 2675.82,416.517 L 2718.78,416.517 C 2725.82,397.07 2736.32,378.223 2749.99,364.209 C 2751.58,362.584 2754.78,359.971 2757.02,359.7 C 2757.81,359.605 2763.32,358.204 2771.48,375.455 C 2782.29,366.717 2794.03,360.88 2800.02,360.532 L 2800.98,360.532 C 2806.96,360.88 2818.71,366.717 2829.52,375.455 C 2837.68,358.204 2843.19,359.605 2843.98,359.7 C 2846.22,359.971 2849.43,362.584 2851.01,364.209 C 2864.68,378.223 2875.18,397.07 2882.22,416.517 L 2924.82,416.517 L 2924.82,347.49 L 2675.81,347.49 Z M 2787.26,507.035 C 2787.62,508.513 2788.46,508.917 2789.06,509.587 C 2789.07,509.599 2789.08,509.61 2789.09,509.622 C 2791.24,512.015 2796.41,515.887 2800.43,515.887 C 2804.45,515.887 2809.63,512.015 2811.77,509.622 C 2811.78,509.61 2811.79,509.599 2811.8,509.587 C 2812.4,508.917 2813.24,508.513 2813.6,507.035 C 2814.76,502.274 2807.3,487.582 2800.43,477.426 C 2793.56,487.582 2786.1,502.274 2787.26,507.035 Z M 2751.66,525.673 C 2751.66,535.933 2759.99,544.26 2770.24,544.26 C 2780.5,544.26 2788.83,535.933 2788.83,525.673 C 2788.83,515.415 2780.5,507.087 2770.24,507.087 C 2759.99,507.087 2751.66,515.415 2751.66,525.673 Z M 2782.35,525.673 C 2782.35,532.356 2776.93,537.779 2770.24,537.779 C 2763.56,537.779 2758.14,532.356 2758.14,525.673 C 2758.14,518.992 2763.56,513.569 2770.24,513.569 C 2776.93,513.569 2782.35,518.992 2782.35,525.673 Z M 2766.67,521.343 L 2766.67,530.005 C 2766.67,531.976 2768.27,533.577 2770.24,533.577 C 2772.22,533.577 2773.82,531.976 2773.82,530.005 L 2773.82,521.343 C 2773.82,519.371 2772.22,517.771 2770.24,517.771 C 2768.27,517.771 2766.67,519.371 2766.67,521.343 Z M 2839.36,520.38 L 2816.01,522.112 C 2814.05,522.258 2812.57,523.972 2812.71,525.937 C 2812.86,527.904 2814.57,529.381 2816.54,529.235 L 2839.89,527.504 C 2841.86,527.359 2843.33,525.644 2843.19,523.679 C 2843.04,521.712 2841.33,520.235 2839.36,520.38 Z M 2751.2,414.983 L 2751.24,438.153 C 2751.24,440.124 2752.85,441.721 2754.82,441.717 C 2756.79,441.714 2758.39,440.111 2758.38,438.14 L 2758.34,414.97 C 2758.34,412.999 2756.73,411.402 2754.76,411.405 C 2752.79,411.409 2751.19,413.012 2751.2,414.983 Z M 2766.14,414.983 L 2766.18,438.153 C 2766.18,440.124 2767.78,441.721 2769.76,441.717 C 2771.73,441.714 2773.33,440.111 2773.32,438.14 L 2773.28,414.97 C 2773.27,412.999 2771.67,411.402 2769.7,411.405 C 2767.73,411.409 2766.13,413.012 2766.14,414.983 Z M 2780.9,414.983 L 2780.94,438.153 C 2780.95,440.124 2782.55,441.721 2784.52,441.717 C 2786.49,441.714 2788.09,440.111 2788.09,438.14 L 2788.04,414.97 C 2788.04,412.999 2786.44,411.402 2784.47,411.405 C 2782.49,411.409 2780.9,413.012 2780.9,414.983 Z M 2812.7,414.983 L 2812.75,438.153 C 2812.75,440.124 2814.35,441.721 2816.33,441.717 C 2818.3,441.714 2819.89,440.111 2819.89,438.14 L 2819.85,414.97 C 2819.84,412.999 2818.24,411.402 2816.27,411.405 C 2814.3,411.409 2812.7,413.012 2812.7,414.983 Z M 2827.64,414.983 L 2827.68,438.153 C 2827.69,440.124 2829.29,441.721 2831.26,441.717 C 2833.23,441.714 2834.83,440.111 2834.83,438.14 L 2834.78,414.97 C 2834.78,412.999 2833.18,411.402 2831.21,411.405 C 2829.23,411.409 2827.64,413.012 2827.64,414.983 Z M 2842.41,414.983 L 2842.45,438.153 C 2842.45,440.124 2844.06,441.721 2846.03,441.717 C 2848,441.714 2849.6,440.111 2849.59,438.14 L 2849.55,414.97 C 2849.55,412.999 2847.94,411.402 2845.97,411.405 C 2844,411.409 2842.4,413.012 2842.41,414.983 Z M 2728.14,513.932 C 2728.14,544.172 2760.52,568.715 2800.43,568.715 C 2840.34,568.715 2872.73,544.172 2872.73,513.932 C 2872.73,483.693 2840.34,459.15 2800.43,459.15 C 2760.52,459.15 2728.14,483.693 2728.14,513.932 Z M 2865.69,513.932 C 2865.69,540.38 2836.45,561.846 2800.43,561.846 C 2764.41,561.846 2735.18,540.38 2735.18,513.932 C 2735.18,487.483 2764.41,466.017 2800.43,466.017 C 2836.45,466.017 2865.69,487.483 2865.69,513.932 Z" stroke-width="0.713" fill="#000000" marker-start="none" marker-end="none"/>
  </g>
 </g>
</svg>
