<?xml version="1.0" standalone="no"?>
<!DOCTYPE svg PUBLIC "-//W3C//DTD SVG 1.1//EN" "http://www.w3.org/Graphics/SVG/1.1/DTD/svg11.dtd">
<!--Generator: Xara Designer (www.xara.com), SVG filter version: 6.3.0.31-->
<svg fill="none" fill-rule="evenodd" stroke="black" stroke-width="0.501" stroke-linejoin="bevel" stroke-miterlimit="10" font-family="Times New Roman" font-size="16" style="font-variant-ligatures:none" xmlns:xlink="http://www.w3.org/1999/xlink" xmlns="http://www.w3.org/2000/svg" version="1.1" overflow="visible" width="470.726pt" height="249.007pt" viewBox="1135.89 -299.493 470.726 249.007">
 <defs>
  <linearGradient id="LinearGradient" gradientUnits="userSpaceOnUse" x1="0" y1="0" x2="0" y2="-43.861" gradientTransform="translate(1429.68 192.887) scale(0.5)" spreadMethod="reflect">
   <stop offset="0" stop-color="#ffffff"/>
   <stop offset="1" stop-color="#dddddd"/>
  </linearGradient>
  <linearGradient id="LinearGradient_1" gradientUnits="userSpaceOnUse" x1="0" y1="0" x2="75.081" y2="0" gradientTransform="translate(1411.59 193.931) rotate(-90) scale(0.5)" spreadMethod="reflect">
   <stop offset="0" stop-color="#ffffff"/>
   <stop offset="1" stop-color="#c3c3c3"/>
  </linearGradient>
  <linearGradient id="LinearGradient_2" gradientUnits="userSpaceOnUse" x1="0" y1="0" x2="70.524" y2="0" gradientTransform="translate(1404.18 222.748) rotate(-90) scale(0.5)" spreadMethod="reflect">
   <stop offset="0" stop-color="#fded73"/>
   <stop offset="1" stop-color="#c1870a"/>
  </linearGradient>
  <radialGradient id="RadialGradient" gradientUnits="userSpaceOnUse" cx="0" cy="0" r="209.718" gradientTransform="translate(1186.68 245.03) rotate(0.995056) scale(1 0.771274)">
   <stop offset="0" stop-color="#00364a"/>
   <stop offset="0.837652802467346" stop-color="#20576c"/>
   <stop offset="1" stop-color="#537691"/>
  </radialGradient>
  <radialGradient id="RadialGradient_1" gradientUnits="userSpaceOnUse" cx="0" cy="0" r="217.308" gradientTransform="translate(1184.24 247.479) rotate(0.995633) scale(1 0.771868)">
   <stop offset="0" stop-color="#d3ebf4"/>
   <stop offset="0.837652802467346" stop-color="#007eae"/>
   <stop offset="1" stop-color="#076ec1"/>
  </radialGradient>
  <linearGradient id="LinearGradient_3" gradientUnits="userSpaceOnUse" x1="0" y1="0" x2="0" y2="-114.168" gradientTransform="translate(1520.3 232.545)">
   <stop offset="0" stop-color="#ff9797"/>
   <stop offset="1" stop-color="#fd0000"/>
  </linearGradient>
  <linearGradient id="LinearGradient_4" gradientUnits="userSpaceOnUse" x1="0" y1="0" x2="0" y2="-100.6" gradientTransform="translate(1524.26 224.82)">
   <stop offset="0" stop-color="#ef2c07"/>
   <stop offset="1" stop-color="#9a1900"/>
  </linearGradient>
 </defs>
 <g id="Layer 1" transform="scale(1 -1)">
  <g id="Group" stroke="none">
   <path d="M 1439.74,161.757 L 1439.74,188.221 L 1483.1,188.221 L 1496.33,174.989 L 1483.1,161.757 L 1439.74,161.757 Z M 1561.18,161.757 L 1547.95,174.989 L 1561.18,188.221 L 1606.49,188.221 L 1606.49,161.757 L 1561.18,161.757 Z" stroke-linejoin="miter" stroke-width="0.574" marker-start="none" marker-end="none" fill="url(#LinearGradient)"/>
   <path d="M 1135.89,299.493 L 1135.89,50.486 L 1606.61,50.486 L 1606.61,299.493 L 1135.89,299.493 Z" stroke-width="0.597" stroke-linejoin="miter" marker-start="none" marker-end="none"/>
   <rect x="1396.757" y="147.405" width="42.997" height="55.164" stroke-width="0.5" stroke-linejoin="miter" fill="url(#LinearGradient_1)"/>
   <rect x="1396.757" y="158.453" width="21.498" height="33.067" stroke-width="0.5" stroke-linejoin="miter" fill="url(#LinearGradient_2)"/>
   <path d="M 1281.95,61.379 C 1280.87,65.376 1283.24,69.495 1287.24,70.573 C 1288.32,70.865 1290.59,72.291 1292.74,78.078 C 1294.81,83.646 1296.15,91.762 1296.46,102.121 C 1296.65,108.62 1296.43,115.829 1295.78,123.589 C 1281.08,125.433 1265.14,128.539 1248.74,132.905 C 1232.35,137.27 1216.97,142.5 1203.3,148.212 C 1198.88,141.8 1195.1,135.655 1192.03,129.921 C 1187.15,120.781 1184.28,113.07 1183.31,107.211 C 1182.3,101.121 1183.56,98.756 1184.35,97.963 C 1187.28,95.041 1187.29,90.289 1184.37,87.357 C 1181.45,84.425 1176.69,84.417 1173.76,87.34 C 1162.6,98.461 1169.19,119.004 1178.81,136.991 C 1181.78,142.558 1185.33,148.414 1189.4,154.46 C 1182.85,157.639 1176.83,160.915 1171.46,164.231 C 1154.08,174.964 1138.09,189.405 1142.14,204.615 C 1143.2,208.615 1147.31,210.998 1151.31,209.933 C 1155.31,208.868 1157.69,204.757 1156.63,200.756 C 1156.34,199.672 1156.44,196.994 1160.38,192.238 C 1164.17,187.663 1170.52,182.439 1179.34,176.995 C 1184.87,173.579 1191.23,170.166 1198.27,166.846 C 1207.22,178.658 1217.88,190.908 1229.86,202.925 C 1241.84,214.942 1254.05,225.64 1265.84,234.628 C 1262.49,241.662 1259.06,248.006 1255.63,253.528 C 1250.15,262.329 1244.91,268.667 1240.32,272.44 C 1235.55,276.361 1232.87,276.452 1231.79,276.16 C 1227.79,275.082 1223.67,277.452 1222.6,281.449 C 1221.52,285.446 1223.89,289.565 1227.89,290.643 C 1243.1,294.745 1257.59,278.769 1268.36,261.45 C 1271.7,256.088 1274.99,250.083 1278.19,243.536 C 1284.23,247.625 1290.07,251.196 1295.63,254.19 C 1313.45,263.79 1334.12,270.505 1345.27,259.393 C 1348.2,256.471 1348.2,251.719 1345.28,248.787 C 1342.36,245.855 1337.61,245.847 1334.68,248.77 C 1333.88,249.562 1331.51,250.814 1325.43,249.783 C 1319.57,248.79 1311.87,245.899 1302.74,240.984 C 1297.02,237.9 1290.89,234.103 1284.49,229.663 C 1290.24,216.006 1295.52,200.651 1299.94,184.27 C 1304.36,167.887 1307.52,151.957 1309.41,137.258 C 1317.17,136.636 1324.38,136.438 1330.88,136.651 C 1341.24,136.991 1349.35,138.363 1354.91,140.45 C 1360.69,142.619 1362.11,144.893 1362.4,145.977 C 1363.46,149.977 1367.57,152.36 1371.57,151.295 C 1375.57,150.23 1377.96,146.118 1376.89,142.118 C 1372.84,126.895 1351.76,122.327 1331.37,121.659 C 1325.06,121.452 1318.21,121.6 1310.94,122.102 C 1311.47,114.834 1311.64,107.988 1311.45,101.679 C 1310.85,81.257 1306.34,60.189 1291.14,56.09 C 1287.15,55.012 1283.03,57.382 1281.95,61.379 Z M 1285.46,180.365 C 1281.55,194.855 1276.97,208.385 1272.06,220.477 C 1261.77,212.431 1251.08,202.966 1240.48,192.336 C 1229.88,181.705 1220.45,170.978 1212.44,160.672 C 1224.55,155.792 1238.1,151.261 1252.6,147.4 C 1267.11,143.538 1281.11,140.734 1294.04,138.948 C 1292.21,151.874 1289.37,165.871 1285.46,180.365 Z" stroke-width="0.5" marker-start="none" marker-end="none" fill="url(#RadialGradient)"/>
   <path d="M 1137.43,173.366 C 1137.43,240.758 1192.12,295.454 1259.51,295.453 C 1326.91,295.453 1381.6,240.761 1381.6,173.368 C 1381.6,105.973 1326.91,51.28 1259.52,51.28 C 1192.12,51.28 1137.43,105.971 1137.43,173.366 Z M 1264.17,67.38 C 1259.25,72.504 1254.69,78.799 1250.66,85.283 C 1247.33,90.644 1244.03,96.649 1240.83,103.196 C 1234.8,99.107 1228.95,95.536 1223.4,92.543 C 1216.7,88.936 1209.61,85.737 1202.76,83.737 C 1219.18,73.316 1238.65,67.28 1259.52,67.28 C 1261.07,67.28 1262.62,67.313 1264.17,67.38 Z M 1362.43,147.561 C 1362.21,149.026 1361.3,151.288 1358.65,154.495 C 1354.86,159.07 1348.51,164.294 1339.69,169.738 C 1334.15,173.153 1327.8,176.566 1320.76,179.886 C 1311.81,168.074 1301.15,155.824 1289.17,143.808 C 1277.19,131.79 1264.97,121.092 1253.19,112.104 C 1256.53,105.07 1259.97,98.726 1263.4,93.205 C 1268.87,84.404 1274.12,78.066 1278.71,74.293 C 1281.92,71.649 1284.18,70.747 1285.65,70.528 C 1323.33,80.089 1352.99,109.833 1362.43,147.561 Z M 1193.6,96.95 C 1199.46,97.943 1207.16,100.834 1216.28,105.749 C 1222.01,108.832 1228.14,112.629 1234.54,117.069 C 1228.78,130.726 1223.51,146.081 1219.09,162.463 C 1214.67,178.845 1211.51,194.775 1209.62,209.474 C 1201.86,210.096 1194.65,210.294 1188.15,210.082 C 1177.79,209.742 1169.68,208.37 1164.12,206.283 C 1160.22,204.821 1158.31,203.312 1157.39,202.152 C 1154.81,192.995 1153.43,183.34 1153.43,173.365 C 1153.43,143.439 1165.84,116.394 1185.79,97.102 C 1187.19,96.583 1189.59,96.27 1193.6,96.95 Z M 1278.55,154.397 C 1289.14,165.027 1298.57,175.754 1306.59,186.06 C 1294.48,190.94 1280.93,195.471 1266.43,199.333 C 1251.92,203.194 1237.92,205.998 1224.98,207.784 C 1226.81,194.858 1229.66,180.861 1233.57,166.368 C 1237.48,151.877 1242.05,138.347 1246.97,126.255 C 1257.25,134.301 1267.95,143.766 1278.55,154.397 Z M 1365.6,173.368 C 1365.6,194.349 1359.5,213.914 1348.97,230.385 C 1346.99,223.565 1343.82,216.474 1340.22,209.742 C 1337.25,204.174 1333.69,198.318 1329.62,192.272 C 1336.18,189.093 1342.19,185.817 1347.57,182.502 C 1354.07,178.486 1360.38,173.953 1365.51,169.054 C 1365.57,170.483 1365.6,171.922 1365.6,173.368 Z M 1326.99,216.812 C 1331.88,225.952 1334.75,233.663 1335.72,239.522 C 1336.39,243.54 1336.06,245.937 1335.54,247.33 C 1316.26,267.141 1289.31,279.453 1259.51,279.453 C 1249.42,279.453 1239.65,278.04 1230.4,275.402 C 1229.24,274.477 1227.74,272.557 1226.29,268.655 C 1224.22,263.087 1222.87,254.971 1222.57,244.612 C 1222.38,238.112 1222.6,230.903 1223.24,223.143 C 1237.95,221.299 1253.89,218.193 1270.28,213.828 C 1286.68,209.462 1302.06,204.232 1315.73,198.52 C 1320.15,204.932 1323.93,211.077 1326.99,216.812 Z M 1187.66,225.074 C 1193.96,225.28 1200.81,225.132 1208.08,224.63 C 1207.56,231.898 1207.39,238.744 1207.57,245.054 C 1207.8,252.696 1208.57,260.429 1210.25,267.33 C 1191.1,257.262 1175.4,241.513 1165.39,222.327 C 1172.29,224.026 1180.02,224.823 1187.66,225.074 Z" stroke-width="0.5" marker-start="none" marker-end="none" fill="url(#RadialGradient_1)"/>
   <path d="M 1561.43,116.849 L 1522.14,156.134 L 1482.86,116.849 L 1464,135.704 L 1503.29,174.989 L 1464,214.274 L 1482.86,233.129 L 1522.14,193.844 L 1561.43,233.129 L 1580.28,214.274 L 1541,174.989 L 1580.28,135.704 L 1561.43,116.849 Z" stroke-linejoin="miter" stroke-linecap="round" stroke-width="0.353" marker-start="none" marker-end="none" fill="url(#LinearGradient_3)"/>
   <path d="M 1561.43,123.699 L 1522.14,162.983 L 1482.86,123.698 L 1470.85,135.703 L 1510.14,174.988 L 1470.85,214.274 L 1482.86,226.279 L 1522.14,186.994 L 1561.43,226.279 L 1573.43,214.274 L 1534.15,174.988 L 1573.43,135.703 L 1561.43,123.699 Z" stroke-width="0.353" stroke-linecap="round" stroke-linejoin="miter" marker-start="none" marker-end="none" fill="url(#LinearGradient_4)"/>
  </g>
 </g>
</svg>
