<?xml version="1.0" standalone="no"?>
<!DOCTYPE svg PUBLIC "-//W3C//DTD SVG 1.1//EN" "http://www.w3.org/Graphics/SVG/1.1/DTD/svg11.dtd">
<!--Generator: Xara Designer (www.xara.com), SVG filter version: 6.3.0.31-->
<svg fill="none" fill-rule="evenodd" stroke="black" stroke-width="0.501" stroke-linejoin="bevel" stroke-miterlimit="10" font-family="Times New Roman" font-size="16" style="font-variant-ligatures:none" xmlns:xlink="http://www.w3.org/1999/xlink" xmlns="http://www.w3.org/2000/svg" version="1.1" overflow="visible" width="415.011pt" height="249.007pt" viewBox="1135.89 -299.493 415.011 249.007">
 <defs>
	</defs>
 <g id="Layer 1" transform="scale(1 -1)">
  <g id="Group" stroke-linejoin="miter" stroke-linecap="round" stroke="none" stroke-width="0.485">
   <path d="M 1188.44,59.719 C 1142.32,82.056 1122.88,137.899 1145.05,184.363 C 1161.95,219.778 1198.18,239.575 1234.87,237.095 C 1235.84,239.638 1236.91,242.161 1238.1,244.658 C 1261.07,292.784 1318.49,313.065 1366.26,289.927 C 1383.93,281.368 1397.82,268.06 1407.14,252.25 C 1419.61,257.12 1433.96,256.985 1446.95,250.695 C 1465.64,241.64 1476.22,222.392 1475.27,202.741 C 1486.29,202.761 1497.48,200.344 1508.07,195.215 C 1545.66,177.011 1561.5,131.498 1543.43,93.632 C 1530.88,67.336 1505.26,51.606 1478.19,50.541 L 1478.19,50.486 L 1228.61,50.486 C 1215.11,50.472 1201.41,53.438 1188.44,59.719 Z" fill="#ffffff" marker-start="none" marker-end="none"/>
   <path d="M 1273.59,106.351 L 1279.23,98.203 C 1321.68,134.573 1364.13,132.744 1406.58,98.704 L 1413.19,106.351 C 1364.46,148.245 1318.03,146.484 1273.59,106.351 Z" fill="#000000" marker-start="none" marker-end="none"/>
   <path d="M 1316.47,161.711 L 1295.57,182.609 L 1274.67,161.711 L 1265.34,171.047 L 1286.24,191.946 L 1265.34,212.845 L 1274.67,222.181 L 1295.57,201.282 L 1316.47,222.18 L 1325.81,212.844 L 1304.91,191.946 L 1325.81,171.047 L 1316.47,161.711 Z" fill="#bf0000" marker-start="none" marker-end="none"/>
   <path d="M 1412.44,161.711 L 1391.55,182.609 L 1370.65,161.711 L 1361.31,171.047 L 1382.21,191.946 L 1361.31,212.845 L 1370.65,222.181 L 1391.55,201.282 L 1412.44,222.18 L 1421.78,212.844 L 1400.88,191.946 L 1421.78,171.047 L 1412.44,161.711 Z" fill="#bf0000" marker-start="none" marker-end="none"/>
  </g>
 </g>
</svg>
