<?xml version="1.0" standalone="no"?>
<!DOCTYPE svg PUBLIC "-//W3C//DTD SVG 1.1//EN" "http://www.w3.org/Graphics/SVG/1.1/DTD/svg11.dtd">
<!--Generator: Xara Designer (www.xara.com), SVG filter version: 6.3.0.31-->
<svg fill="none" fill-rule="evenodd" stroke="black" stroke-width="0.501" stroke-linejoin="bevel" stroke-miterlimit="10" font-family="Times New Roman" font-size="16" style="font-variant-ligatures:none" xmlns:xlink="http://www.w3.org/1999/xlink" xmlns="http://www.w3.org/2000/svg" version="1.1" overflow="visible" width="474.926pt" height="249.007pt" viewBox="1630.88 -303.101 474.926 249.007">
 <defs>
  <linearGradient id="LinearGradient" gradientUnits="userSpaceOnUse" x1="0" y1="0" x2="142.404" y2="-137.729" gradientTransform="translate(1875.68 217.249)">
   <stop offset="0" stop-color="#e9e9e9"/>
   <stop offset="1" stop-color="#cfcfcf"/>
  </linearGradient>
  <linearGradient id="LinearGradient_1" gradientUnits="userSpaceOnUse" x1="0" y1="0" x2="106.102" y2="-162.25" gradientTransform="translate(1955.47 271.671)">
   <stop offset="0" stop-color="#ff6f53"/>
   <stop offset="1" stop-color="#d62908"/>
  </linearGradient>
  <linearGradient id="LinearGradient_2" gradientUnits="userSpaceOnUse" x1="0" y1="0" x2="183.389" y2="-280.435" gradientTransform="translate(1648.89 338.661)">
   <stop offset="0" stop-color="#53f2ff"/>
   <stop offset="1" stop-color="#087fd6"/>
  </linearGradient>
 </defs>
 <g id="Layer 1" transform="scale(1 -1)">
  <g id="Group" stroke-linejoin="miter" stroke="none">
   <path d="M 1630.88,303.101 L 1630.88,54.094 L 2105.81,54.094 L 2105.81,303.101 L 1630.88,303.101 Z" stroke-width="0.597" marker-start="none" marker-end="none"/>
   <path d="M 1858.98,152.111 L 1858.98,205.22 L 1920.92,205.22 L 1920.92,190.592 L 1967.76,190.592 L 1979.66,178.666 L 1967.76,166.741 L 1920.92,166.741 L 1920.92,152.111 L 1858.98,152.111 Z M 1879.9,152.124 L 1879.9,166.744 L 1906.79,166.744 L 1906.79,190.59 L 1879.9,190.59 L 1879.9,205.205 L 1873.8,205.205 L 1873.8,186.007 L 1873.8,186.007 L 1873.8,171.199 L 1873.8,171.199 L 1873.8,152.124 L 1879.9,152.124 Z M 2053.72,166.741 L 2041.86,178.666 L 2053.72,190.592 L 2100.19,190.592 L 2100.2,166.741 L 2053.72,166.741 Z M 1879.9,172.844 L 1879.9,184.489 L 1900.69,184.489 L 1900.69,172.844 L 1879.9,172.844 Z" stroke-linecap="round" stroke-width="0.353" marker-start="none" marker-end="none" fill="url(#LinearGradient)"/>
   <path d="M 1967.37,114.658 L 1946.61,135.416 L 1989.86,178.666 L 1946.61,221.916 L 1967.37,242.674 L 2010.62,199.424 L 2053.87,242.674 L 2074.63,221.916 L 2031.38,178.666 L 2074.63,135.416 L 2053.87,114.658 L 2010.62,157.908 L 1967.37,114.658 Z" stroke-linecap="round" stroke-width="0.353" marker-start="none" marker-end="none" fill="url(#LinearGradient_1)"/>
   <path d="M 1633.68,182.857 C 1636.41,243.866 1688.14,291.161 1749.15,288.43 C 1810.16,285.7 1857.45,233.971 1854.72,172.964 C 1851.99,111.955 1800.26,64.66 1739.25,67.391 C 1678.25,70.121 1630.95,121.849 1633.68,182.857 Z M 1793.61,95.926 C 1787.66,97.329 1781.51,99.631 1775.52,102.41 C 1770.57,104.708 1765.4,107.482 1760.09,110.693 C 1756.79,105.446 1753.41,100.652 1750.01,96.377 C 1745.89,91.199 1741.41,86.386 1736.74,82.481 C 1739.2,82.291 1741.69,82.193 1744.2,82.193 C 1762.27,82.193 1779.18,87.211 1793.61,95.926 Z M 1738.86,105.246 C 1741.96,109.147 1745.08,113.58 1748.16,118.484 C 1741.01,123.495 1733.71,129.203 1726.45,135.514 C 1704.13,137.244 1684.01,141.407 1668.43,147.243 C 1667.83,147.468 1667.23,147.699 1666.63,147.931 C 1661.13,139.082 1660.21,132.929 1661.52,129.68 C 1673.05,109.962 1691.44,94.732 1713.4,87.264 C 1717.96,86.312 1726.99,90.331 1738.86,105.246 Z M 1812.14,110.505 C 1821.74,120.177 1829.28,131.887 1834.08,144.939 C 1834.73,147 1835.22,149.128 1835.55,151.296 C 1830.42,148.444 1824.61,146.059 1818.62,144.095 C 1806.05,139.977 1790.65,137.038 1773.62,135.607 C 1771.57,131.233 1769.44,127.023 1767.27,123.001 C 1772.22,119.997 1777,117.43 1781.52,115.331 C 1798.43,107.485 1808.31,107.722 1812.14,110.505 Z M 1764.14,149.243 C 1766.77,155.329 1769.26,161.731 1771.58,168.398 C 1779.06,189.928 1783.38,210.478 1784.66,227.51 C 1768.24,222.832 1748.97,214.475 1729.38,202.823 C 1718.77,196.512 1709.06,189.824 1700.48,183.08 C 1707.25,174.522 1715.14,165.753 1723.98,157.144 C 1726.73,154.466 1729.49,151.88 1732.26,149.393 C 1735.97,149.17 1739.75,149.014 1743.59,148.935 C 1750.65,148.786 1757.52,148.898 1764.14,149.243 Z M 1814.18,157.634 C 1824.43,160.987 1831.11,164.714 1835.1,168.162 C 1831.57,186.395 1818.64,205.533 1798.33,220.6 C 1796.48,203.403 1792.02,183.815 1785.04,163.721 C 1783.48,159.234 1781.84,154.845 1780.12,150.572 C 1793.08,152.075 1804.66,154.515 1814.18,157.634 Z M 1689.56,173.92 C 1684.23,169.133 1679.53,164.39 1675.55,159.811 C 1685.02,156.462 1696.43,153.702 1709.16,151.791 C 1701.98,159.113 1695.41,166.553 1689.56,173.92 Z M 1663.16,167.23 C 1668.13,173.173 1674.14,179.284 1681.01,185.38 C 1675.75,192.916 1671.33,200.259 1667.88,207.197 C 1665.13,212.732 1662.8,218.409 1661.24,223.933 C 1659.16,221.223 1657.41,218.312 1656.04,215.22 C 1651.32,204.086 1648.65,191.889 1648.49,179.092 C 1648.96,175.644 1652.76,170.745 1661.93,165.743 C 1662.34,166.243 1662.75,166.737 1663.16,167.23 Z M 1722.1,215.067 C 1737.96,224.502 1753.83,231.999 1768.51,237.261 C 1768.47,237.275 1768.43,237.291 1768.4,237.307 C 1731.36,252.369 1695.35,249.732 1673.51,235.239 C 1673.96,230.034 1676.01,222.855 1680.64,213.539 C 1683.61,207.573 1687.42,201.173 1692,194.532 C 1701.04,201.622 1711.17,208.566 1722.1,215.067 Z M 1826.05,227.533 C 1823.81,230.259 1817.84,232.439 1807.08,231.733 C 1819.62,222.338 1830.01,211.31 1837.47,199.513 C 1835.15,209.548 1831.25,218.978 1826.05,227.533 Z M 1811.34,246.115 C 1807.1,250.283 1802.48,254.062 1797.53,257.389 C 1798.34,253.522 1798.84,249.413 1799.1,245.206 C 1803.28,245.795 1807.39,246.129 1811.34,246.115 Z M 1776.28,268.114 C 1766.25,271.684 1755.45,273.63 1744.2,273.63 C 1725.29,273.63 1707.65,268.134 1692.8,258.655 C 1716.96,264.343 1746.07,261.767 1773.76,250.504 C 1777.54,248.967 1781.23,247.294 1784.81,245.494 C 1783.77,259.47 1779.9,266.287 1776.28,268.114 Z" stroke-linecap="round" stroke-width="0.353" marker-start="none" marker-end="none" fill="url(#LinearGradient_2)"/>
  </g>
 </g>
</svg>
