<?xml version="1.0" standalone="no"?>
<!DOCTYPE svg PUBLIC "-//W3C//DTD SVG 1.1//EN" "http://www.w3.org/Graphics/SVG/1.1/DTD/svg11.dtd">
<!--Generator: Xara Designer (www.xara.com), SVG filter version: 6.3.0.31-->
<svg fill="none" fill-rule="evenodd" stroke="black" stroke-width="0.501" stroke-linejoin="bevel" stroke-miterlimit="10" font-family="Times New Roman" font-size="16" style="font-variant-ligatures:none" xmlns:xlink="http://www.w3.org/1999/xlink" xmlns="http://www.w3.org/2000/svg" version="1.1" overflow="visible" width="111.976pt" height="57.402pt" viewBox="433.304 -126.804 111.976 57.402">
 <defs>
  <linearGradient id="LinearGradient" gradientUnits="userSpaceOnUse" x1="0" y1="0" x2="20.976" y2="-27.891" gradientTransform="matrix(-0.707108 -0.707108 0.707108 -0.707108 15.151 -4.481)">
   <stop offset="0" stop-color="#ffffff"/>
   <stop offset="1" stop-color="#1097be"/>
  </linearGradient>
  <linearGradient id="LinearGradient_1" gradientUnits="userSpaceOnUse" x1="0" y1="0" x2="27.225" y2="-39.45" gradientTransform="translate(449.286 117.94)">
   <stop offset="0" stop-color="#beffd3"/>
   <stop offset="0.426141113042831" stop-color="#00ecff"/>
   <stop offset="1" stop-color="#006dff"/>
  </linearGradient>
  <linearGradient id="LinearGradient_2" gradientUnits="userSpaceOnUse" x1="0" y1="0" x2="26.28" y2="-9.9" gradientTransform="translate(496.649 100.262)">
   <stop offset="0" stop-color="#f9f8e8"/>
   <stop offset="1" stop-color="#d5e3f3"/>
  </linearGradient>
  <linearGradient id="LinearGradient_3" gradientUnits="userSpaceOnUse" x1="0" y1="0" x2="20.325" y2="-25.5" gradientTransform="translate(510.861 110.59)">
   <stop offset="0" stop-color="#fa6d00"/>
   <stop offset="0.387166172266006" stop-color="#ef6135"/>
   <stop offset="1" stop-color="#ce0909"/>
  </linearGradient>
 </defs>
 <g id="Layer 1" transform="scale(1 -1)">
  <g id="Group" stroke-linejoin="miter" stroke="none">
   <path d="M 460.599,69.753 C 444.989,70.451 432.889,83.686 433.587,99.297 C 434.286,114.907 447.52,127.007 463.131,126.309 C 474.944,125.78 484.747,118.072 488.514,107.589 L 503.813,107.589 C 504.281,107.589 504.88,107.142 504.88,106.674 L 504.88,104.904 C 504.88,104.641 505.14,104.313 505.403,104.313 L 508.171,104.313 L 504.599,107.885 L 511.838,115.122 L 521.522,105.437 L 531.205,115.122 L 538.444,107.885 L 534.872,104.313 L 543.908,104.313 C 544.383,104.313 545.021,103.894 545.021,103.419 L 545.026,93.069 C 545.026,92.543 544.315,92.086 543.789,92.086 L 534.873,92.086 L 538.444,88.515 L 531.205,81.278 L 521.522,90.962 L 511.838,81.278 L 504.599,88.515 L 508.17,92.086 L 505.622,92.086 C 505.298,92.086 504.88,91.778 504.88,91.454 L 504.88,89.842 C 504.88,89.304 504.173,88.811 503.635,88.811 L 488.634,88.811 C 484.655,77.249 473.429,69.178 460.599,69.753 Z M 484.965,96.531 C 485.793,109.282 476.116,120.303 463.365,121.131 C 450.614,121.959 439.593,112.282 438.765,99.531 C 437.937,86.78 447.614,75.759 460.365,74.931 C 473.116,74.103 484.137,83.78 484.965,96.531 Z" stroke-opacity="0.117647" stroke-width="0.353" fill="#000000" marker-start="none" marker-end="none" fill-opacity="0.117647"/>
   <path d="M 460.639,70.636 C 445.516,71.312 433.793,84.134 434.47,99.257 C 435.147,114.38 447.968,126.103 463.091,125.426 C 474.746,124.904 484.382,117.169 487.878,106.728 L 503.048,106.728 C 503.487,106.728 504.019,106.273 504.019,105.834 L 504.019,104.259 C 504.019,103.908 504.347,103.452 504.698,103.452 L 510.327,103.452 L 505.894,107.885 L 511.838,113.827 L 521.522,104.142 L 531.205,113.827 L 537.149,107.885 L 532.716,103.452 L 543.221,103.452 C 543.631,103.452 544.161,103.068 544.161,102.658 L 544.164,93.892 C 544.164,93.441 543.644,92.947 543.193,92.947 L 532.717,92.947 L 537.149,88.515 L 531.205,82.573 L 521.522,92.257 L 511.838,82.573 L 505.894,88.515 L 510.326,92.947 L 504.721,92.947 C 504.403,92.947 504.019,92.617 504.019,92.299 L 504.019,90.353 C 504.019,89.98 503.501,89.672 503.128,89.672 L 487.988,89.672 C 484.312,78.166 473.279,70.069 460.639,70.636 Z M 484.965,96.531 C 485.793,109.282 476.116,120.303 463.365,121.131 C 450.614,121.959 439.593,112.282 438.765,99.531 C 437.937,86.78 447.614,75.759 460.365,74.931 C 473.116,74.103 484.137,83.78 484.965,96.531 Z" stroke-opacity="0.117647" stroke-width="0.353" fill="#000000" marker-start="none" marker-end="none" fill-opacity="0.117647"/>
   <path d="M 460.678,71.518 C 446.043,72.173 434.698,84.582 435.352,99.218 C 436.008,113.853 448.416,125.198 463.052,124.544 C 474.546,124.028 484.01,116.264 487.227,105.867 L 502.163,105.867 C 502.594,105.867 503.158,105.47 503.158,105.039 L 503.157,103.359 C 503.157,103.032 503.441,102.591 503.768,102.591 L 542.443,102.591 C 542.831,102.591 543.3,102.19 543.3,101.802 L 543.304,94.549 C 543.304,94.183 542.857,93.807 542.491,93.807 L 503.694,93.807 C 503.457,93.807 503.158,93.576 503.158,93.339 L 503.158,91.404 C 503.158,90.937 502.526,90.532 502.059,90.532 L 487.328,90.532 C 483.964,79.085 473.126,70.96 460.678,71.518 Z M 484.965,96.531 C 485.793,109.282 476.116,120.303 463.365,121.131 C 450.614,121.959 439.593,112.282 438.765,99.531 C 437.937,86.78 447.614,75.759 460.365,74.931 C 473.116,74.103 484.137,83.78 484.965,96.531 Z" stroke-opacity="0.117647" stroke-width="0.353" fill="#000000" marker-start="none" marker-end="none" fill-opacity="0.117647"/>
   <path d="M 460.718,72.401 C 446.57,73.034 435.602,85.03 436.235,99.178 C 436.869,113.326 448.864,124.294 463.012,123.661 C 474.342,123.153 483.631,115.36 486.559,105.01 L 502.297,105.006 L 502.297,101.731 L 514.214,101.73 L 542.44,101.73 L 542.442,94.668 L 509.954,94.668 L 502.297,94.669 L 502.297,91.393 L 486.652,91.393 C 483.612,80.006 472.972,71.851 460.718,72.401 Z M 484.965,96.531 C 485.793,109.282 476.116,120.303 463.365,121.131 C 450.614,121.959 439.593,112.282 438.765,99.531 C 437.937,86.78 447.614,75.759 460.365,74.931 C 473.116,74.103 484.137,83.78 484.965,96.531 Z" stroke-opacity="0.227451" stroke-width="0.353" stroke-linecap="round" fill="#000000" marker-start="none" marker-end="none" fill-opacity="0.227451"/>
   <path d="M 433.304,126.804 L 433.304,69.402 L 545.28,69.402 L 545.28,126.804 L 433.304,126.804 Z" stroke-width="0.597" marker-start="none" marker-end="none"/>
   <ellipse rx="22.224" ry="22.224" transform="translate(461.565 97.78) rotate(135)" stroke-opacity="0.200000" stroke-linecap="round" stroke-width="0.353" fill-opacity="0.200000" fill="url(#LinearGradient)"/>
   <path d="M 437.118,99.139 C 437.73,112.8 449.312,123.39 462.973,122.779 C 476.635,122.167 487.225,110.584 486.613,96.924 C 486.002,83.262 474.419,72.672 460.758,73.284 C 447.097,73.895 436.507,85.478 437.118,99.139 Z M 472.929,79.673 C 471.598,79.988 470.219,80.503 468.88,81.125 C 467.77,81.64 466.613,82.261 465.424,82.98 C 464.684,81.805 463.927,80.732 463.166,79.774 C 462.244,78.615 461.242,77.537 460.195,76.663 C 460.747,76.62 461.304,76.598 461.866,76.598 C 465.912,76.598 469.699,77.722 472.929,79.673 Z M 460.67,81.76 C 461.364,82.634 462.063,83.626 462.753,84.724 C 461.151,85.846 459.517,87.125 457.891,88.538 C 452.894,88.925 448.389,89.857 444.899,91.164 C 444.765,91.214 444.63,91.266 444.496,91.318 C 443.266,89.337 443.059,87.959 443.352,87.231 C 445.935,82.816 450.051,79.406 454.969,77.734 C 455.99,77.52 458.013,78.42 460.67,81.76 Z M 477.078,82.938 C 479.228,85.104 480.917,87.726 481.992,90.648 C 482.137,91.11 482.247,91.586 482.322,92.072 C 481.173,91.433 479.872,90.899 478.53,90.459 C 475.714,89.537 472.266,88.879 468.454,88.559 C 467.994,87.579 467.519,86.636 467.032,85.736 C 468.14,85.063 469.21,84.488 470.222,84.018 C 474.008,82.262 476.221,82.315 477.078,82.938 Z M 466.331,91.612 C 466.919,92.975 467.478,94.408 467.997,95.901 C 469.672,100.722 470.639,105.324 470.927,109.138 C 467.248,108.09 462.934,106.219 458.548,103.61 C 456.172,102.196 453.997,100.699 452.077,99.189 C 453.592,97.272 455.358,95.309 457.338,93.381 C 457.954,92.782 458.573,92.202 459.192,91.646 C 460.023,91.596 460.87,91.561 461.73,91.543 C 463.31,91.51 464.849,91.535 466.331,91.612 Z M 477.537,93.491 C 479.83,94.242 481.326,95.076 482.219,95.848 C 481.43,99.931 478.535,104.217 473.987,107.59 C 473.572,103.739 472.574,99.354 471.01,94.854 C 470.661,93.849 470.293,92.866 469.909,91.909 C 472.812,92.246 475.403,92.793 477.537,93.491 Z M 449.632,97.138 C 448.438,96.066 447.385,95.004 446.494,93.978 C 448.615,93.229 451.169,92.61 454.021,92.183 C 452.411,93.822 450.94,95.488 449.632,97.138 Z M 443.719,95.64 C 444.832,96.97 446.177,98.339 447.717,99.704 C 446.538,101.391 445.549,103.035 444.777,104.589 C 444.161,105.829 443.639,107.099 443.289,108.336 C 442.823,107.73 442.432,107.078 442.124,106.386 C 441.067,103.892 440.469,101.161 440.435,98.296 C 440.54,97.524 441.391,96.427 443.445,95.307 C 443.535,95.419 443.627,95.529 443.719,95.64 Z M 456.917,106.351 C 460.468,108.464 464.022,110.143 467.309,111.321 C 467.301,111.324 467.292,111.328 467.284,111.331 C 458.992,114.704 450.927,114.113 446.037,110.868 C 446.137,109.703 446.596,108.095 447.633,106.009 C 448.297,104.673 449.152,103.24 450.177,101.753 C 452.202,103.341 454.469,104.896 456.917,106.351 Z M 480.194,109.143 C 479.691,109.753 478.355,110.241 475.946,110.083 C 478.755,107.979 481.08,105.51 482.75,102.868 C 482.231,105.115 481.359,107.227 480.194,109.143 Z M 476.899,113.303 C 475.951,114.237 474.916,115.083 473.808,115.828 C 473.988,114.962 474.101,114.042 474.16,113.1 C 475.094,113.232 476.016,113.307 476.899,113.303 Z M 469.049,118.23 C 466.803,119.029 464.385,119.465 461.866,119.465 C 457.631,119.465 453.682,118.234 450.356,116.111 C 455.767,117.385 462.285,116.808 468.486,114.286 C 469.332,113.942 470.157,113.568 470.959,113.164 C 470.727,116.294 469.86,117.821 469.049,118.23 Z" stroke-linecap="round" stroke-width="0.353" marker-start="none" marker-end="none" fill="url(#LinearGradient_1)"/>
   <path d="M 487.567,92.254 L 487.567,104.146 L 501.437,104.146 L 501.437,100.871 L 514.214,100.871 L 514.214,100.87 L 528.833,100.87 L 528.834,100.871 L 541.579,100.871 L 541.581,95.53 L 536.519,95.53 L 536.519,95.529 L 506.166,95.529 L 506.166,95.53 L 501.437,95.53 L 501.437,92.254 L 487.567,92.254 Z M 492.251,92.257 L 492.251,95.531 L 498.273,95.531 L 498.273,100.871 L 492.251,100.871 L 492.251,104.143 L 490.885,104.143 L 490.885,92.257 L 492.251,92.257 Z M 492.251,96.897 L 492.251,99.504 L 496.907,99.504 L 496.907,96.897 L 492.251,96.897 Z" stroke-width="0.353" stroke-linecap="round" marker-start="none" marker-end="none" fill="url(#LinearGradient_2)"/>
   <path d="M 510.761,95.525 L 513.435,98.197 L 510.761,100.869 L 532.262,100.869 L 529.588,98.197 L 532.262,95.525 L 510.761,95.525 Z" stroke-opacity="0.145098" fill="#000000" stroke-width="0.353" stroke-linecap="round" marker-start="none" marker-end="none" fill-opacity="0.145098"/>
   <path d="M 511.754,95.525 L 514.428,98.197 L 511.754,100.869 L 531.269,100.869 L 528.595,98.197 L 531.269,95.525 L 511.754,95.525 Z" stroke-opacity="0.145098" fill="#000000" stroke-width="0.353" stroke-linecap="round" marker-start="none" marker-end="none" fill-opacity="0.145098"/>
   <path d="M 512.656,95.525 L 515.33,98.197 L 512.656,100.869 L 530.366,100.869 L 527.692,98.197 L 530.366,95.525 L 512.656,95.525 Z" stroke-opacity="0.145098" fill="#000000" stroke-width="0.353" stroke-linecap="round" marker-start="none" marker-end="none" fill-opacity="0.145098"/>
   <path d="M 513.428,95.527 L 516.102,98.199 L 513.428,100.871 L 529.594,100.871 L 526.92,98.199 L 529.594,95.527 L 513.428,95.527 Z" stroke-opacity="0.145098" fill="#000000" stroke-width="0.353" stroke-linecap="round" marker-start="none" marker-end="none" fill-opacity="0.145098"/>
   <path d="M 511.838,83.868 L 507.189,88.516 L 516.874,98.2 L 507.189,107.885 L 511.838,112.533 L 521.522,102.848 L 531.206,112.533 L 535.855,107.885 L 526.17,98.2 L 535.855,88.516 L 531.206,83.868 L 521.522,93.552 L 511.838,83.868 Z" stroke-linecap="round" stroke-width="0.353" marker-start="none" marker-end="none" fill="url(#LinearGradient_3)"/>
  </g>
 </g>
</svg>
