<?xml version="1.0" standalone="no"?>
<!DOCTYPE svg PUBLIC "-//W3C//DTD SVG 1.1//EN" "http://www.w3.org/Graphics/SVG/1.1/DTD/svg11.dtd">
<!--Generator: Xara Designer (www.xara.com), SVG filter version: 6.3.0.31-->
<svg fill="none" fill-rule="evenodd" stroke="black" stroke-width="0.501" stroke-linejoin="bevel" stroke-miterlimit="10" font-family="Times New Roman" font-size="16" style="font-variant-ligatures:none" xmlns:xlink="http://www.w3.org/1999/xlink" xmlns="http://www.w3.org/2000/svg" version="1.1" overflow="visible" width="814.693pt" height="249.012pt" viewBox="1630.88 -596.495 814.693 249.012">
 <defs>
	</defs>
 <g id="Layer 1" transform="scale(1 -1)">
  <g id="Group" stroke-linejoin="miter" stroke="none">
   <rect x="1630.883" y="347.484" width="249.01" height="249.01" fill="#fcb900" stroke-width="0.713"/>
   <path d="M 1630.89,347.487 L 1630.89,596.494 L 1879.89,596.494 L 1879.89,438.234 L 1843.7,438.234 C 1846.37,449.9 1847.74,461.208 1847.74,471.227 C 1847.74,498.392 1841.84,521.81 1830.63,539.834 L 1814.7,584.35 L 1803.53,566.896 C 1790.38,574.827 1774.47,579.179 1756.05,579.263 L 1756.05,579.264 L 1755.09,579.264 L 1755.09,579.263 C 1736.67,579.179 1720.76,574.827 1707.61,566.896 L 1696.44,584.35 L 1680.51,539.834 C 1669.3,521.81 1663.4,498.392 1663.4,471.227 C 1663.4,461.208 1664.77,449.9 1667.44,438.234 L 1630.89,438.234 L 1630.89,416.514 L 1673.85,416.514 C 1680.89,397.067 1691.39,378.22 1705.06,364.206 C 1706.65,362.581 1709.85,359.968 1712.09,359.697 C 1712.89,359.602 1718.39,358.201 1726.55,375.452 C 1737.36,366.714 1749.11,360.877 1755.09,360.529 L 1756.05,360.529 C 1762.03,360.877 1773.78,366.714 1784.59,375.452 C 1792.75,358.201 1798.26,359.602 1799.05,359.697 C 1801.3,359.968 1804.5,362.581 1806.08,364.206 C 1819.75,378.22 1830.25,397.067 1837.3,416.514 L 1879.89,416.514 L 1879.89,347.487 L 1630.89,347.487 Z M 1742.33,507.032 C 1742.69,508.51 1743.53,508.914 1744.13,509.584 C 1744.14,509.596 1744.15,509.607 1744.16,509.619 C 1746.31,512.012 1751.48,515.884 1755.5,515.884 C 1759.52,515.884 1764.7,512.012 1766.84,509.619 C 1766.85,509.607 1766.87,509.596 1766.88,509.584 C 1767.47,508.914 1768.31,508.51 1768.68,507.032 C 1769.84,502.271 1762.37,487.579 1755.5,477.423 C 1748.63,487.579 1741.17,502.271 1742.33,507.032 Z M 1706.73,525.67 C 1706.73,535.93 1715.06,544.257 1725.32,544.257 C 1735.58,544.257 1743.9,535.93 1743.9,525.67 C 1743.9,515.412 1735.58,507.084 1725.32,507.084 C 1715.06,507.084 1706.73,515.412 1706.73,525.67 Z M 1737.42,525.67 C 1737.42,532.353 1732,537.776 1725.32,537.776 C 1718.63,537.776 1713.21,532.353 1713.21,525.67 C 1713.21,518.989 1718.63,513.566 1725.32,513.566 C 1732,513.566 1737.42,518.989 1737.42,525.67 Z M 1721.75,521.34 L 1721.75,530.002 C 1721.75,531.973 1723.34,533.574 1725.32,533.574 C 1727.29,533.574 1728.89,531.973 1728.89,530.002 L 1728.89,521.34 C 1728.89,519.368 1727.29,517.768 1725.32,517.768 C 1723.34,517.768 1721.75,519.368 1721.75,521.34 Z M 1794.43,520.377 L 1771.08,522.109 C 1769.12,522.255 1767.64,523.969 1767.78,525.934 C 1767.93,527.901 1769.64,529.378 1771.61,529.232 L 1794.96,527.501 C 1796.93,527.356 1798.4,525.641 1798.26,523.676 C 1798.11,521.709 1796.4,520.232 1794.43,520.377 Z M 1706.27,414.98 L 1706.31,438.15 C 1706.32,440.121 1707.92,441.718 1709.89,441.714 C 1711.86,441.711 1713.46,440.108 1713.45,438.137 L 1713.41,414.967 C 1713.41,412.996 1711.8,411.399 1709.83,411.402 C 1707.86,411.406 1706.26,413.009 1706.27,414.98 Z M 1721.21,414.98 L 1721.25,438.15 C 1721.25,440.121 1722.86,441.718 1724.83,441.714 C 1726.8,441.711 1728.4,440.108 1728.39,438.137 L 1728.35,414.967 C 1728.35,412.996 1726.74,411.399 1724.77,411.402 C 1722.8,411.406 1721.2,413.009 1721.21,414.98 Z M 1735.97,414.98 L 1736.02,438.15 C 1736.02,440.121 1737.62,441.718 1739.59,441.714 C 1741.56,441.711 1743.16,440.108 1743.16,438.137 L 1743.11,414.967 C 1743.11,412.996 1741.51,411.399 1739.54,411.402 C 1737.57,411.406 1735.97,413.009 1735.97,414.98 Z M 1767.77,414.98 L 1767.82,438.15 C 1767.82,440.121 1769.42,441.718 1771.4,441.714 C 1773.37,441.711 1774.96,440.108 1774.96,438.137 L 1774.92,414.967 C 1774.91,412.996 1773.31,411.399 1771.34,411.402 C 1769.37,411.406 1767.77,413.009 1767.77,414.98 Z M 1782.71,414.98 L 1782.76,438.15 C 1782.76,440.121 1784.36,441.718 1786.33,441.714 C 1788.3,441.711 1789.9,440.108 1789.9,438.137 L 1789.86,414.967 C 1789.85,412.996 1788.25,411.399 1786.28,411.402 C 1784.31,411.406 1782.71,413.009 1782.71,414.98 Z M 1797.48,414.98 L 1797.52,438.15 C 1797.53,440.121 1799.13,441.718 1801.1,441.714 C 1803.07,441.711 1804.67,440.108 1804.66,438.137 L 1804.62,414.967 C 1804.62,412.996 1803.01,411.399 1801.04,411.402 C 1799.07,411.406 1797.47,413.009 1797.48,414.98 Z M 1683.21,513.929 C 1683.21,544.169 1715.6,568.712 1755.5,568.712 C 1795.41,568.712 1827.8,544.169 1827.8,513.929 C 1827.8,483.69 1795.41,459.147 1755.5,459.147 C 1715.6,459.147 1683.21,483.69 1683.21,513.929 Z M 1820.76,513.929 C 1820.76,540.377 1791.52,561.843 1755.5,561.843 C 1719.48,561.843 1690.25,540.377 1690.25,513.929 C 1690.25,487.48 1719.48,466.014 1755.5,466.014 C 1791.52,466.014 1820.76,487.48 1820.76,513.929 Z" stroke-width="0.713" fill="#000000" marker-start="none" marker-end="none"/>
   <path d="M 1893.76,471.863 L 1965.71,347.485 L 2109.41,347.61 L 2181.14,472.115 L 2109.19,596.494 L 1965.49,596.368 L 1893.76,471.863 Z" fill="#ffffff" stroke-width="0.811" marker-start="none" marker-end="none"/>
   <path d="M 1972.71,359.632 L 1907.77,471.875 L 1972.51,584.233 L 2102.19,584.347 L 2167.12,472.103 L 2102.39,359.744 L 1972.71,359.632 Z M 1980.75,436.068 C 1984.21,436.972 1987.3,438.366 1990.02,440.25 C 1992.73,442.134 1994.9,444.565 1996.52,447.541 C 1998.14,450.518 1998.95,454.116 1998.95,458.336 C 1998.95,462.556 1998.19,465.985 1996.68,468.623 C 1995.18,471.26 1993.31,473.389 1991.09,475.009 C 1988.87,476.63 1986.44,477.948 1983.8,478.966 C 1981.16,479.983 1978.73,481 1976.51,482.018 C 1974.29,483.035 1972.42,484.222 1970.91,485.578 C 1969.41,486.935 1968.65,488.819 1968.65,491.23 C 1968.65,492.963 1968.95,494.395 1969.56,495.526 C 1970.16,496.656 1970.97,497.541 1971.99,498.182 C 1973,498.823 1974.19,499.275 1975.55,499.538 C 1976.9,499.802 1978.34,499.934 1979.84,499.934 C 1982.18,499.934 1984.48,499.727 1986.74,499.312 C 1989,498.898 1991.18,498.239 1993.29,497.334 L 1996.57,510.22 C 1993.41,511.049 1990.26,511.652 1987.13,512.029 C 1984.01,512.406 1980.82,512.594 1977.58,512.594 C 1974.12,512.594 1970.74,512.123 1967.47,511.181 C 1964.19,510.239 1961.29,508.826 1958.76,506.942 C 1956.24,505.058 1954.2,502.703 1952.66,499.878 C 1951.11,497.052 1950.34,493.717 1950.34,489.874 C 1950.34,485.578 1951.08,482.168 1952.54,479.644 C 1954.01,477.119 1955.84,475.085 1958.03,473.54 C 1960.21,471.995 1962.59,470.789 1965.15,469.923 C 1967.71,469.056 1970.08,468.114 1972.27,467.097 C 1974.45,466.079 1976.28,464.874 1977.75,463.48 C 1979.22,462.085 1979.96,460.07 1979.96,457.432 C 1979.96,455.322 1979.52,453.589 1978.66,452.232 C 1977.79,450.876 1976.68,449.821 1975.32,449.067 C 1973.97,448.314 1972.42,447.805 1970.69,447.541 C 1968.95,447.278 1967.22,447.146 1965.49,447.146 C 1963.08,447.146 1960.53,447.391 1957.86,447.88 C 1955.18,448.37 1952.75,449.143 1950.57,450.198 L 1950.34,436.859 C 1953.51,435.88 1956.75,435.277 1960.06,435.051 C 1963.38,434.825 1966.69,434.712 1970.01,434.712 C 1973.7,434.712 1977.28,435.164 1980.75,436.068 Z M 2057.95,435.955 L 2057.95,448.954 L 2030.71,448.954 L 2030.71,468.51 L 2054.56,468.51 L 2054.56,481.17 L 2030.71,481.17 L 2030.71,498.465 L 2056.59,498.465 L 2056.59,511.351 L 2012.51,511.351 L 2012.51,435.955 L 2057.95,435.955 Z M 2106.91,435.955 L 2128.16,511.349 L 2109.62,511.349 L 2096.05,450.763 L 2082.49,511.349 L 2063.27,511.349 L 2084.52,435.955 L 2106.91,435.955 Z" stroke-width="0.732" fill="#933588" marker-start="none" marker-end="none"/>
   <path d="M 2321.07,596.495 C 2389.8,596.495 2445.58,540.717 2445.58,471.991 C 2445.58,403.265 2389.8,347.487 2321.07,347.487 C 2252.35,347.487 2196.57,403.265 2196.57,471.991 C 2196.57,540.717 2252.35,596.495 2321.07,596.495 Z" stroke-linecap="round" fill="#ffffff" stroke-width="0.485" marker-start="none" marker-end="none"/>
   <path d="M 2256.56,379.99 C 2205.77,415.601 2193.46,485.72 2229.07,536.504 C 2264.68,587.288 2334.8,599.603 2385.58,563.992 C 2436.37,528.381 2448.68,458.262 2413.07,407.478 C 2377.46,356.694 2307.34,344.379 2256.56,379.99 Z M 2354.03,460.739 L 2354.03,511.435 L 2338.95,511.435 L 2338.95,461.693 C 2338.95,451.821 2336.33,442.836 2325.56,442.836 C 2314.91,442.836 2312.18,451.822 2312.18,461.693 L 2312.18,511.435 L 2297.1,511.435 L 2297.1,460.739 C 2297.1,441.935 2306.27,430.731 2325.56,430.731 C 2344.26,430.731 2354.03,441.934 2354.03,460.739 Z M 2415.38,455.39 C 2415.38,482.377 2383.64,473.22 2383.64,490.7 C 2383.64,499.448 2389.54,501.35 2397.14,501.35 C 2401.65,501.35 2406.05,500.637 2410.08,498.858 L 2413.09,510.482 C 2407.62,511.911 2402.02,512.741 2396.31,512.741 C 2381.79,512.741 2368.44,505.718 2368.44,489.633 C 2368.44,462.046 2399.71,472.272 2399.71,454.324 C 2399.71,444.621 2392.03,442.009 2383.83,442.009 C 2378.84,442.009 2373.26,442.958 2368.76,445.095 L 2368.48,432.991 C 2374.07,431.208 2380.02,430.731 2385.97,430.731 C 2401.2,430.731 2415.38,438.349 2415.38,455.39 Z M 2282.66,455.63 C 2282.66,465.975 2274.93,472.63 2265.54,474.058 C 2274.1,477.382 2279.81,482.494 2279.81,491.888 C 2279.69,506.273 2268.99,511.385 2256.03,511.385 L 2230.71,511.385 L 2230.71,432.088 L 2257.7,432.088 C 2271.85,432.088 2282.66,441.121 2282.66,455.63 Z M 2245.69,443.499 L 2245.69,467.397 L 2255.91,467.397 C 2262.69,467.397 2267.33,462.883 2267.33,455.988 C 2267.33,448.614 2263.4,443.499 2255.56,443.499 L 2245.69,443.499 Z M 2245.69,478.572 L 2245.69,500.094 L 2254.13,500.094 C 2260.91,500.094 2264.83,496.646 2264.83,489.986 C 2264.83,482.733 2260.19,478.572 2253.06,478.572 L 2245.69,478.572 Z" stroke-linecap="round" fill="#00586a" stroke-width="0.5" marker-start="none" marker-end="none"/>
  </g>
 </g>
</svg>
