<?xml version="1.0" standalone="no"?>
<!DOCTYPE svg PUBLIC "-//W3C//DTD SVG 1.1//EN" "http://www.w3.org/Graphics/SVG/1.1/DTD/svg11.dtd">
<!--Generator: Xara Designer (www.xara.com), SVG filter version: 6.3.0.31-->
<svg fill="none" fill-rule="evenodd" stroke="black" stroke-width="0.501" stroke-linejoin="bevel" stroke-miterlimit="10" font-family="Times New Roman" font-size="16" style="font-variant-ligatures:none" xmlns:xlink="http://www.w3.org/1999/xlink" xmlns="http://www.w3.org/2000/svg" version="1.1" overflow="visible" width="816.555pt" height="251.495pt" viewBox="1630.87 -597.745 816.555 251.495">
 <defs>
	</defs>
 <g id="Layer 1" transform="scale(1 -1)">
  <g id="Group" stroke-linejoin="miter" stroke="none">
   <rect x="1630.883" y="347.492" width="249.01" height="249.01" fill="#fcb900" stroke-width="0.713"/>
   <path d="M 1630.89,347.495 L 1630.89,596.502 L 1879.89,596.502 L 1879.89,438.242 L 1843.7,438.242 C 1846.37,449.908 1847.74,461.216 1847.74,471.235 C 1847.74,498.4 1841.84,521.818 1830.63,539.842 L 1814.7,584.358 L 1803.53,566.904 C 1790.38,574.835 1774.47,579.187 1756.05,579.271 L 1756.05,579.272 L 1755.09,579.272 L 1755.09,579.271 C 1736.67,579.187 1720.76,574.835 1707.61,566.904 L 1696.44,584.358 L 1680.51,539.842 C 1669.3,521.818 1663.4,498.4 1663.4,471.235 C 1663.4,461.216 1664.77,449.908 1667.44,438.242 L 1630.89,438.242 L 1630.89,416.522 L 1673.85,416.522 C 1680.89,397.075 1691.39,378.228 1705.06,364.214 C 1706.65,362.589 1709.85,359.976 1712.09,359.705 C 1712.89,359.61 1718.39,358.209 1726.55,375.46 C 1737.36,366.722 1749.11,360.885 1755.09,360.537 L 1756.05,360.537 C 1762.03,360.885 1773.78,366.722 1784.59,375.46 C 1792.75,358.209 1798.26,359.61 1799.05,359.705 C 1801.3,359.976 1804.5,362.589 1806.08,364.214 C 1819.75,378.228 1830.25,397.075 1837.3,416.522 L 1879.89,416.522 L 1879.89,347.495 L 1630.89,347.495 Z M 1742.33,507.04 C 1742.69,508.518 1743.53,508.922 1744.13,509.592 C 1744.14,509.604 1744.15,509.615 1744.16,509.627 C 1746.31,512.02 1751.48,515.892 1755.5,515.892 C 1759.52,515.892 1764.7,512.02 1766.84,509.627 C 1766.85,509.615 1766.87,509.604 1766.88,509.592 C 1767.47,508.922 1768.31,508.518 1768.68,507.04 C 1769.84,502.279 1762.37,487.587 1755.5,477.431 C 1748.63,487.587 1741.17,502.279 1742.33,507.04 Z M 1706.73,525.678 C 1706.73,535.938 1715.06,544.265 1725.32,544.265 C 1735.58,544.265 1743.9,535.938 1743.9,525.678 C 1743.9,515.42 1735.58,507.092 1725.32,507.092 C 1715.06,507.092 1706.73,515.42 1706.73,525.678 Z M 1737.42,525.678 C 1737.42,532.361 1732,537.784 1725.32,537.784 C 1718.63,537.784 1713.21,532.361 1713.21,525.678 C 1713.21,518.997 1718.63,513.574 1725.32,513.574 C 1732,513.574 1737.42,518.997 1737.42,525.678 Z M 1721.75,521.348 L 1721.75,530.01 C 1721.75,531.981 1723.34,533.582 1725.32,533.582 C 1727.29,533.582 1728.89,531.981 1728.89,530.01 L 1728.89,521.348 C 1728.89,519.376 1727.29,517.776 1725.32,517.776 C 1723.34,517.776 1721.75,519.376 1721.75,521.348 Z M 1794.43,520.385 L 1771.08,522.117 C 1769.12,522.263 1767.64,523.977 1767.78,525.942 C 1767.93,527.909 1769.64,529.386 1771.61,529.24 L 1794.96,527.509 C 1796.93,527.364 1798.4,525.649 1798.26,523.684 C 1798.11,521.717 1796.4,520.24 1794.43,520.385 Z M 1706.27,414.988 L 1706.31,438.158 C 1706.32,440.129 1707.92,441.726 1709.89,441.722 C 1711.86,441.719 1713.46,440.116 1713.45,438.145 L 1713.41,414.975 C 1713.41,413.004 1711.8,411.407 1709.83,411.41 C 1707.86,411.414 1706.26,413.017 1706.27,414.988 Z M 1721.21,414.988 L 1721.25,438.158 C 1721.25,440.129 1722.86,441.726 1724.83,441.722 C 1726.8,441.719 1728.4,440.116 1728.39,438.145 L 1728.35,414.975 C 1728.35,413.004 1726.74,411.407 1724.77,411.41 C 1722.8,411.414 1721.2,413.017 1721.21,414.988 Z M 1735.97,414.988 L 1736.02,438.158 C 1736.02,440.129 1737.62,441.726 1739.59,441.722 C 1741.56,441.719 1743.16,440.116 1743.16,438.145 L 1743.11,414.975 C 1743.11,413.004 1741.51,411.407 1739.54,411.41 C 1737.57,411.414 1735.97,413.017 1735.97,414.988 Z M 1767.77,414.988 L 1767.82,438.158 C 1767.82,440.129 1769.42,441.726 1771.4,441.722 C 1773.37,441.719 1774.96,440.116 1774.96,438.145 L 1774.92,414.975 C 1774.91,413.004 1773.31,411.407 1771.34,411.41 C 1769.37,411.414 1767.77,413.017 1767.77,414.988 Z M 1782.71,414.988 L 1782.76,438.158 C 1782.76,440.129 1784.36,441.726 1786.33,441.722 C 1788.3,441.719 1789.9,440.116 1789.9,438.145 L 1789.86,414.975 C 1789.85,413.004 1788.25,411.407 1786.28,411.41 C 1784.31,411.414 1782.71,413.017 1782.71,414.988 Z M 1797.48,414.988 L 1797.52,438.158 C 1797.53,440.129 1799.13,441.726 1801.1,441.722 C 1803.07,441.719 1804.67,440.116 1804.66,438.145 L 1804.62,414.975 C 1804.62,413.004 1803.01,411.407 1801.04,411.41 C 1799.07,411.414 1797.47,413.017 1797.48,414.988 Z M 1683.21,513.937 C 1683.21,544.177 1715.6,568.72 1755.5,568.72 C 1795.41,568.72 1827.8,544.177 1827.8,513.937 C 1827.8,483.698 1795.41,459.155 1755.5,459.155 C 1715.6,459.155 1683.21,483.698 1683.21,513.937 Z M 1820.76,513.937 C 1820.76,540.385 1791.52,561.851 1755.5,561.851 C 1719.48,561.851 1690.25,540.385 1690.25,513.937 C 1690.25,487.488 1719.48,466.022 1755.5,466.022 C 1791.52,466.022 1820.76,487.488 1820.76,513.937 Z" stroke-width="0.713" fill="#000000" marker-start="none" marker-end="none"/>
   <path d="M 1893.76,471.871 L 1965.71,347.493 L 2109.41,347.618 L 2181.14,472.123 L 2109.19,596.502 L 1965.49,596.376 L 1893.76,471.871 Z" fill="#ffffff" stroke-width="0.811" marker-start="none" marker-end="none"/>
   <path d="M 1972.71,359.64 L 1907.77,471.883 L 1972.51,584.241 L 2102.19,584.355 L 2167.12,472.111 L 2102.39,359.752 L 1972.71,359.64 Z M 1980.75,436.076 C 1984.21,436.98 1987.3,438.374 1990.02,440.258 C 1992.73,442.142 1994.9,444.573 1996.52,447.549 C 1998.14,450.526 1998.95,454.124 1998.95,458.344 C 1998.95,462.564 1998.19,465.993 1996.68,468.631 C 1995.18,471.268 1993.31,473.397 1991.09,475.017 C 1988.87,476.638 1986.44,477.956 1983.8,478.974 C 1981.16,479.991 1978.73,481.008 1976.51,482.026 C 1974.29,483.043 1972.42,484.23 1970.91,485.586 C 1969.41,486.943 1968.65,488.827 1968.65,491.238 C 1968.65,492.971 1968.95,494.403 1969.56,495.534 C 1970.16,496.664 1970.97,497.549 1971.99,498.19 C 1973,498.831 1974.19,499.283 1975.55,499.546 C 1976.9,499.81 1978.34,499.942 1979.84,499.942 C 1982.18,499.942 1984.48,499.735 1986.74,499.32 C 1989,498.906 1991.18,498.247 1993.29,497.342 L 1996.57,510.228 C 1993.41,511.057 1990.26,511.66 1987.13,512.037 C 1984.01,512.414 1980.82,512.602 1977.58,512.602 C 1974.12,512.602 1970.74,512.131 1967.47,511.189 C 1964.19,510.247 1961.29,508.834 1958.76,506.95 C 1956.24,505.066 1954.2,502.711 1952.66,499.886 C 1951.11,497.06 1950.34,493.725 1950.34,489.882 C 1950.34,485.586 1951.08,482.176 1952.54,479.652 C 1954.01,477.127 1955.84,475.093 1958.03,473.548 C 1960.21,472.003 1962.59,470.797 1965.15,469.931 C 1967.71,469.064 1970.08,468.122 1972.27,467.105 C 1974.45,466.087 1976.28,464.882 1977.75,463.488 C 1979.22,462.093 1979.96,460.078 1979.96,457.44 C 1979.96,455.33 1979.52,453.597 1978.66,452.24 C 1977.79,450.884 1976.68,449.829 1975.32,449.075 C 1973.97,448.322 1972.42,447.813 1970.69,447.549 C 1968.95,447.286 1967.22,447.154 1965.49,447.154 C 1963.08,447.154 1960.53,447.399 1957.86,447.888 C 1955.18,448.378 1952.75,449.151 1950.57,450.206 L 1950.34,436.867 C 1953.51,435.888 1956.75,435.285 1960.06,435.059 C 1963.38,434.833 1966.69,434.72 1970.01,434.72 C 1973.7,434.72 1977.28,435.172 1980.75,436.076 Z M 2057.95,435.963 L 2057.95,448.962 L 2030.71,448.962 L 2030.71,468.518 L 2054.56,468.518 L 2054.56,481.178 L 2030.71,481.178 L 2030.71,498.473 L 2056.59,498.473 L 2056.59,511.359 L 2012.51,511.359 L 2012.51,435.963 L 2057.95,435.963 Z M 2106.91,435.963 L 2128.16,511.357 L 2109.62,511.357 L 2096.05,450.771 L 2082.49,511.357 L 2063.27,511.357 L 2084.52,435.963 L 2106.91,435.963 Z" stroke-width="0.732" fill="#933588" marker-start="none" marker-end="none"/>
   <path d="M 2321.07,596.503 C 2389.8,596.503 2445.58,540.725 2445.58,471.999 C 2445.58,403.273 2389.8,347.495 2321.07,347.495 C 2252.35,347.495 2196.57,403.273 2196.57,471.999 C 2196.57,540.725 2252.35,596.503 2321.07,596.503 Z" stroke-linecap="round" fill="#ffffff" stroke-width="0.485" marker-start="none" marker-end="none"/>
   <path d="M 2256.56,379.998 C 2205.77,415.609 2193.46,485.728 2229.07,536.512 C 2264.68,587.296 2334.8,599.611 2385.58,564 C 2436.37,528.389 2448.68,458.27 2413.07,407.486 C 2377.46,356.702 2307.34,344.387 2256.56,379.998 Z M 2354.03,460.747 L 2354.03,511.443 L 2338.95,511.443 L 2338.95,461.701 C 2338.95,451.829 2336.33,442.844 2325.56,442.844 C 2314.91,442.844 2312.18,451.83 2312.18,461.701 L 2312.18,511.443 L 2297.1,511.443 L 2297.1,460.747 C 2297.1,441.943 2306.27,430.739 2325.56,430.739 C 2344.26,430.739 2354.03,441.942 2354.03,460.747 Z M 2415.38,455.398 C 2415.38,482.385 2383.64,473.228 2383.64,490.708 C 2383.64,499.456 2389.54,501.358 2397.14,501.358 C 2401.65,501.358 2406.05,500.645 2410.08,498.866 L 2413.09,510.49 C 2407.62,511.919 2402.02,512.749 2396.31,512.749 C 2381.79,512.749 2368.44,505.726 2368.44,489.641 C 2368.44,462.054 2399.71,472.28 2399.71,454.332 C 2399.71,444.629 2392.03,442.017 2383.83,442.017 C 2378.84,442.017 2373.26,442.966 2368.76,445.103 L 2368.48,432.999 C 2374.07,431.216 2380.02,430.739 2385.97,430.739 C 2401.2,430.739 2415.38,438.357 2415.38,455.398 Z M 2282.66,455.638 C 2282.66,465.983 2274.93,472.638 2265.54,474.066 C 2274.1,477.39 2279.81,482.502 2279.81,491.896 C 2279.69,506.281 2268.99,511.393 2256.03,511.393 L 2230.71,511.393 L 2230.71,432.096 L 2257.7,432.096 C 2271.85,432.096 2282.66,441.129 2282.66,455.638 Z M 2245.69,443.507 L 2245.69,467.405 L 2255.91,467.405 C 2262.69,467.405 2267.33,462.891 2267.33,455.996 C 2267.33,448.622 2263.4,443.507 2255.56,443.507 L 2245.69,443.507 Z M 2245.69,478.58 L 2245.69,500.102 L 2254.13,500.102 C 2260.91,500.102 2264.83,496.654 2264.83,489.994 C 2264.83,482.741 2260.19,478.58 2253.06,478.58 L 2245.69,478.58 Z" stroke-linecap="round" fill="#00586a" stroke-width="0.5" marker-start="none" marker-end="none"/>
   <path d="M 1630.87,597.745 L 1630.87,346.25 L 2447.42,346.25 L 2447.42,597.745 L 1630.87,597.745 Z" stroke-width="0.603" marker-start="none" marker-end="none"/>
  </g>
 </g>
</svg>
