<?xml version="1.0" standalone="no"?>
<!DOCTYPE svg PUBLIC "-//W3C//DTD SVG 1.1//EN" "http://www.w3.org/Graphics/SVG/1.1/DTD/svg11.dtd">
<!--Generator: Xara Designer (www.xara.com), SVG filter version: 6.3.0.31-->
<svg fill="none" fill-rule="evenodd" stroke="black" stroke-width="0.501" stroke-linejoin="bevel" stroke-miterlimit="10" font-family="Times New Roman" font-size="16" style="font-variant-ligatures:none" xmlns:xlink="http://www.w3.org/1999/xlink" xmlns="http://www.w3.org/2000/svg" version="1.1" overflow="visible" width="511.87pt" height="249.011pt" viewBox="2675.82 -893.496 511.87 249.011">
 <defs>
	</defs>
 <g id="Layer 1" transform="scale(1 -1)">
  <g id="Group" stroke-linejoin="miter" stroke="none">
   <path d="M 2938.68,893.492 L 2938.68,644.485 L 3187.69,644.485 L 3187.69,893.492 L 2938.68,893.492 Z" stroke-width="0.485" stroke-linecap="round" fill="#ffffff" marker-start="none" marker-end="none"/>
   <path d="M 2950.83,656.631 L 2950.83,881.35 L 3175.54,881.35 L 3175.54,656.631 L 2950.83,656.631 Z M 3068.73,746.681 L 3069.71,740.31 L 3081.91,740.309 C 3081.47,743.6 3080.92,747.008 3080.92,750.309 L 3080.92,779.968 C 3080.92,789.418 3074.44,795.351 3061.81,795.351 C 3056.09,795.351 3049.39,794.693 3044.12,792.275 L 3046.31,783.155 C 3050.05,785.129 3055.21,786.009 3059.17,786.009 C 3064.88,786.009 3068.28,783.485 3068.28,777.88 L 3068.28,771.839 C 3066.31,772.17 3063.78,772.719 3059.94,772.719 C 3047.63,772.719 3039.17,766.678 3039.17,755.471 C 3039.17,745.479 3044.55,739.324 3055.1,739.324 C 3061.14,739.324 3065.65,741.956 3068.73,746.681 Z M 2986.5,740.309 L 2986.5,802.378 L 3002.33,802.378 L 3002.33,813.699 L 2956.84,813.699 L 2956.84,802.378 L 2972.66,802.378 L 2972.66,740.309 L 2986.5,740.309 Z M 3136.38,740.309 L 3136.38,774.471 C 3136.38,779.86 3138.36,786.009 3144.17,786.009 C 3149.12,786.009 3151.1,782.169 3151.1,777.444 L 3151.1,740.31 L 3164.17,740.309 L 3164.17,778.43 C 3164.17,787.88 3159.56,795.351 3149.45,795.351 C 3142.2,795.351 3137.48,791.725 3135.5,787.114 C 3133.74,790.954 3130.33,795.351 3121.77,795.351 C 3115.4,795.351 3110.34,792.061 3108.14,787.114 L 3107.15,794.363 L 3095.62,794.363 L 3095.62,740.31 L 3108.7,740.31 L 3108.7,774.257 C 3108.7,779.64 3110.78,786.009 3116.49,786.009 C 3121.44,786.009 3123.41,782.605 3123.41,777.444 L 3123.41,740.309 L 3136.38,740.309 Z M 3018.78,740.31 L 3018.78,769.862 C 3018.78,776.678 3020.54,783.705 3028.34,783.705 C 3029.55,783.705 3030.76,783.485 3031.97,783.155 L 3035.7,794.693 C 3034.71,795.129 3032.63,795.351 3031.64,795.351 C 3025.93,795.351 3021.97,792.933 3018.57,787.222 L 3017.58,794.363 L 3005.71,794.363 L 3005.71,740.31 L 3018.78,740.31 Z M 3052.36,756.133 C 3052.36,760.858 3055.1,765.137 3061.26,765.137 C 3064.44,765.137 3066.86,764.693 3068.28,764.149 L 3068.28,756.572 C 3068.28,751.733 3064.11,748.11 3059.17,748.11 C 3054.33,748.11 3052.36,751.517 3052.36,756.133 Z" stroke-width="0" fill-rule="evenodd" fill="#d82020" marker-start="none" marker-end="none"/>
   <rect x="2675.817" y="644.486" width="249.01" height="249.01" fill="#fcb900" stroke-width="0.713"/>
   <path d="M 2675.82,644.489 L 2675.82,893.496 L 2924.83,893.496 L 2924.83,735.236 L 2888.63,735.236 C 2891.3,746.902 2892.67,758.21 2892.67,768.229 C 2892.67,795.394 2886.78,818.812 2875.57,836.836 L 2859.64,881.352 L 2848.46,863.898 C 2835.31,871.829 2819.41,876.181 2800.98,876.265 L 2800.98,876.266 L 2800.03,876.266 L 2800.03,876.265 C 2781.6,876.181 2765.7,871.829 2752.55,863.898 L 2741.37,881.352 L 2725.44,836.836 C 2714.23,818.812 2708.34,795.394 2708.34,768.229 C 2708.34,758.21 2709.7,746.902 2712.38,735.236 L 2675.83,735.236 L 2675.83,713.516 L 2718.78,713.516 C 2725.82,694.069 2736.32,675.222 2749.99,661.208 C 2751.58,659.583 2754.78,656.97 2757.03,656.699 C 2757.82,656.604 2763.33,655.203 2771.48,672.454 C 2782.29,663.716 2794.04,657.879 2800.03,657.531 L 2800.98,657.531 C 2806.97,657.879 2818.72,663.716 2829.53,672.454 C 2837.68,655.203 2843.19,656.604 2843.98,656.699 C 2846.23,656.97 2849.43,659.583 2851.01,661.208 C 2864.68,675.222 2875.19,694.069 2882.23,713.516 L 2924.83,713.516 L 2924.83,644.489 L 2675.82,644.489 Z M 2787.26,804.034 C 2787.62,805.512 2788.47,805.916 2789.06,806.586 C 2789.07,806.598 2789.08,806.609 2789.1,806.621 C 2791.24,809.014 2796.42,812.886 2800.44,812.886 C 2804.45,812.886 2809.63,809.014 2811.78,806.621 C 2811.79,806.609 2811.8,806.598 2811.81,806.586 C 2812.41,805.916 2813.25,805.512 2813.61,804.034 C 2814.77,799.273 2807.3,784.581 2800.44,774.425 C 2793.57,784.581 2786.1,799.273 2787.26,804.034 Z M 2751.66,822.672 C 2751.66,832.932 2759.99,841.259 2770.25,841.259 C 2780.51,841.259 2788.84,832.932 2788.84,822.672 C 2788.84,812.414 2780.51,804.086 2770.25,804.086 C 2759.99,804.086 2751.66,812.414 2751.66,822.672 Z M 2782.35,822.672 C 2782.35,829.355 2776.93,834.778 2770.25,834.778 C 2763.57,834.778 2758.15,829.355 2758.15,822.672 C 2758.15,815.991 2763.57,810.568 2770.25,810.568 C 2776.93,810.568 2782.35,815.991 2782.35,822.672 Z M 2766.68,818.342 L 2766.68,827.004 C 2766.68,828.975 2768.28,830.576 2770.25,830.576 C 2772.22,830.576 2773.82,828.975 2773.82,827.004 L 2773.82,818.342 C 2773.82,816.37 2772.22,814.77 2770.25,814.77 C 2768.28,814.77 2766.68,816.37 2766.68,818.342 Z M 2839.37,817.379 L 2816.02,819.111 C 2814.05,819.257 2812.57,820.971 2812.72,822.936 C 2812.86,824.903 2814.58,826.38 2816.54,826.234 L 2839.9,824.503 C 2841.86,824.358 2843.34,822.643 2843.19,820.678 C 2843.05,818.711 2841.33,817.234 2839.37,817.379 Z M 2751.2,711.982 L 2751.24,735.152 C 2751.25,737.123 2752.85,738.72 2754.82,738.716 C 2756.79,738.713 2758.39,737.11 2758.39,735.139 L 2758.34,711.969 C 2758.34,709.998 2756.74,708.401 2754.77,708.404 C 2752.8,708.408 2751.2,710.011 2751.2,711.982 Z M 2766.14,711.982 L 2766.18,735.152 C 2766.19,737.123 2767.79,738.72 2769.76,738.716 C 2771.73,738.713 2773.33,737.11 2773.33,735.139 L 2773.28,711.969 C 2773.28,709.998 2771.68,708.401 2769.7,708.404 C 2767.73,708.408 2766.14,710.011 2766.14,711.982 Z M 2780.91,711.982 L 2780.95,735.152 C 2780.95,737.123 2782.55,738.72 2784.53,738.716 C 2786.5,738.713 2788.1,737.11 2788.09,735.139 L 2788.05,711.969 C 2788.04,709.998 2786.44,708.401 2784.47,708.404 C 2782.5,708.408 2780.9,710.011 2780.91,711.982 Z M 2812.71,711.982 L 2812.75,735.152 C 2812.76,737.123 2814.36,738.72 2816.33,738.716 C 2818.3,738.713 2819.9,737.11 2819.89,735.139 L 2819.85,711.969 C 2819.85,709.998 2818.24,708.401 2816.27,708.404 C 2814.3,708.408 2812.7,710.011 2812.71,711.982 Z M 2827.65,711.982 L 2827.69,735.152 C 2827.69,737.123 2829.3,738.72 2831.27,738.716 C 2833.24,738.713 2834.84,737.11 2834.83,735.139 L 2834.79,711.969 C 2834.78,709.998 2833.18,708.401 2831.21,708.404 C 2829.24,708.408 2827.64,710.011 2827.65,711.982 Z M 2842.41,711.982 L 2842.45,735.152 C 2842.46,737.123 2844.06,738.72 2846.03,738.716 C 2848,738.713 2849.6,737.11 2849.6,735.139 L 2849.55,711.969 C 2849.55,709.998 2847.95,708.401 2845.98,708.404 C 2844.01,708.408 2842.41,710.011 2842.41,711.982 Z M 2728.14,810.931 C 2728.14,841.171 2760.53,865.714 2800.44,865.714 C 2840.34,865.714 2872.73,841.171 2872.73,810.931 C 2872.73,780.692 2840.34,756.149 2800.44,756.149 C 2760.53,756.149 2728.14,780.692 2728.14,810.931 Z M 2865.69,810.931 C 2865.69,837.379 2836.46,858.845 2800.44,858.845 C 2764.42,858.845 2735.18,837.379 2735.18,810.931 C 2735.18,784.482 2764.42,763.016 2800.44,763.016 C 2836.46,763.016 2865.69,784.482 2865.69,810.931 Z" stroke-width="0.713" fill="#000000" marker-start="none" marker-end="none"/>
  </g>
 </g>
</svg>
