<?xml version="1.0" standalone="no"?>
<!DOCTYPE svg PUBLIC "-//W3C//DTD SVG 1.1//EN" "http://www.w3.org/Graphics/SVG/1.1/DTD/svg11.dtd">
<!--Generator: Xara Designer (www.xara.com), SVG filter version: 6.3.0.31-->
<svg fill="none" fill-rule="evenodd" stroke="black" stroke-width="0.501" stroke-linejoin="bevel" stroke-miterlimit="10" font-family="Times New Roman" font-size="16" style="font-variant-ligatures:none" xmlns:xlink="http://www.w3.org/1999/xlink" xmlns="http://www.w3.org/2000/svg" version="1.1" overflow="visible" width="511.871pt" height="249.015pt" viewBox="2675.82 -893.508 511.871 249.015">
 <defs>
	</defs>
 <g id="Layer 1" transform="scale(1 -1)">
  <g id="Group" stroke-linejoin="miter" stroke="none">
   <path d="M 2938.68,893.5 L 2938.68,644.493 L 3187.69,644.493 L 3187.69,893.5 L 2938.68,893.5 Z" stroke-width="0.485" stroke-linecap="round" fill="#ffffff" marker-start="none" marker-end="none"/>
   <path d="M 2950.83,656.639 L 2950.83,881.358 L 3175.54,881.358 L 3175.54,656.639 L 2950.83,656.639 Z M 3068.73,746.689 L 3069.71,740.318 L 3081.91,740.317 C 3081.47,743.608 3080.92,747.016 3080.92,750.317 L 3080.92,779.976 C 3080.92,789.426 3074.44,795.359 3061.81,795.359 C 3056.09,795.359 3049.39,794.701 3044.12,792.283 L 3046.31,783.163 C 3050.05,785.137 3055.21,786.017 3059.17,786.017 C 3064.88,786.017 3068.28,783.493 3068.28,777.888 L 3068.28,771.847 C 3066.31,772.178 3063.78,772.727 3059.94,772.727 C 3047.63,772.727 3039.17,766.686 3039.17,755.479 C 3039.17,745.487 3044.55,739.332 3055.1,739.332 C 3061.14,739.332 3065.65,741.964 3068.73,746.689 Z M 2986.5,740.317 L 2986.5,802.386 L 3002.33,802.386 L 3002.33,813.707 L 2956.84,813.707 L 2956.84,802.386 L 2972.66,802.386 L 2972.66,740.317 L 2986.5,740.317 Z M 3136.38,740.317 L 3136.38,774.479 C 3136.38,779.868 3138.36,786.017 3144.17,786.017 C 3149.12,786.017 3151.1,782.177 3151.1,777.452 L 3151.1,740.318 L 3164.17,740.317 L 3164.17,778.438 C 3164.17,787.888 3159.56,795.359 3149.45,795.359 C 3142.2,795.359 3137.48,791.733 3135.5,787.122 C 3133.74,790.962 3130.33,795.359 3121.77,795.359 C 3115.4,795.359 3110.34,792.069 3108.14,787.122 L 3107.15,794.371 L 3095.62,794.371 L 3095.62,740.318 L 3108.7,740.318 L 3108.7,774.265 C 3108.7,779.648 3110.78,786.017 3116.49,786.017 C 3121.44,786.017 3123.41,782.613 3123.41,777.452 L 3123.41,740.317 L 3136.38,740.317 Z M 3018.78,740.318 L 3018.78,769.87 C 3018.78,776.686 3020.54,783.713 3028.34,783.713 C 3029.55,783.713 3030.76,783.493 3031.97,783.163 L 3035.7,794.701 C 3034.71,795.137 3032.63,795.359 3031.64,795.359 C 3025.93,795.359 3021.97,792.941 3018.57,787.23 L 3017.58,794.371 L 3005.71,794.371 L 3005.71,740.318 L 3018.78,740.318 Z M 3052.36,756.141 C 3052.36,760.866 3055.1,765.145 3061.26,765.145 C 3064.44,765.145 3066.86,764.701 3068.28,764.157 L 3068.28,756.58 C 3068.28,751.741 3064.11,748.118 3059.17,748.118 C 3054.33,748.118 3052.36,751.525 3052.36,756.141 Z" stroke-width="0" fill-rule="evenodd" fill="#d82020" marker-start="none" marker-end="none"/>
   <rect x="2675.816" y="644.498" width="249.01" height="249.01" fill="#000000" stroke-width="0.713"/>
   <path d="M 2924.45,713.526 L 2882.22,713.526 C 2875.18,694.079 2864.68,675.232 2851.01,661.218 C 2849.43,659.593 2846.23,656.98 2843.98,656.709 C 2843.19,656.614 2837.68,655.213 2829.52,672.464 C 2818.71,663.726 2806.96,657.889 2800.98,657.541 L 2800.02,657.541 C 2794.04,657.889 2782.29,663.726 2771.48,672.464 C 2763.32,655.213 2757.82,656.614 2757.02,656.709 C 2754.78,656.98 2751.58,659.593 2749.99,661.218 C 2736.32,675.232 2725.82,694.079 2718.78,713.526 L 2676.2,713.526 L 2676.2,735.246 L 2712.38,735.246 C 2709.7,746.912 2708.33,758.22 2708.33,768.239 C 2708.33,795.404 2714.23,818.822 2725.44,836.846 L 2741.37,881.362 L 2752.54,863.908 C 2765.69,871.839 2781.6,876.191 2800.02,876.275 L 2800.02,876.276 L 2800.98,876.276 L 2800.98,876.275 C 2819.4,876.191 2835.31,871.839 2848.46,863.908 L 2859.64,881.362 L 2875.56,836.846 C 2886.77,818.822 2892.67,795.404 2892.67,768.239 C 2892.67,758.22 2891.3,746.912 2888.63,735.246 L 2924.45,735.246 L 2924.45,713.526 Z M 2758.34,711.979 L 2758.38,735.149 C 2758.39,737.12 2756.79,738.723 2754.82,738.726 C 2752.85,738.73 2751.24,737.133 2751.24,735.162 L 2751.2,711.992 C 2751.19,710.021 2752.79,708.418 2754.76,708.414 C 2756.73,708.411 2758.34,710.008 2758.34,711.979 Z M 2773.28,711.979 L 2773.32,735.149 C 2773.33,737.12 2771.73,738.723 2769.76,738.726 C 2767.78,738.73 2766.18,737.133 2766.18,735.162 L 2766.14,711.992 C 2766.13,710.021 2767.73,708.418 2769.7,708.414 C 2771.67,708.411 2773.28,710.008 2773.28,711.979 Z M 2788.04,711.979 L 2788.09,735.149 C 2788.09,737.12 2786.49,738.723 2784.52,738.726 C 2782.55,738.73 2780.95,737.133 2780.95,735.162 L 2780.9,711.992 C 2780.9,710.021 2782.49,708.418 2784.47,708.414 C 2786.44,708.411 2788.04,710.008 2788.04,711.979 Z M 2819.85,711.979 L 2819.89,735.149 C 2819.89,737.12 2818.3,738.723 2816.33,738.726 C 2814.35,738.73 2812.75,737.133 2812.75,735.162 L 2812.7,711.992 C 2812.7,710.021 2814.3,708.418 2816.27,708.414 C 2818.24,708.411 2819.84,710.008 2819.85,711.979 Z M 2834.78,711.979 L 2834.83,735.149 C 2834.83,737.12 2833.23,738.723 2831.26,738.726 C 2829.29,738.73 2827.69,737.133 2827.68,735.162 L 2827.64,711.992 C 2827.64,710.021 2829.24,708.418 2831.21,708.414 C 2833.18,708.411 2834.78,710.008 2834.78,711.979 Z M 2849.55,711.979 L 2849.59,735.149 C 2849.6,737.12 2848,738.723 2846.03,738.726 C 2844.06,738.73 2842.45,737.133 2842.45,735.162 L 2842.41,711.992 C 2842.4,710.021 2844,708.418 2845.97,708.414 C 2847.94,708.411 2849.55,710.008 2849.55,711.979 Z M 2872.73,810.941 C 2872.73,841.181 2840.34,865.724 2800.43,865.724 C 2760.53,865.724 2728.14,841.181 2728.14,810.941 C 2728.14,780.702 2760.53,756.159 2800.43,756.159 C 2840.34,756.159 2872.73,780.702 2872.73,810.941 Z M 2735.18,810.941 C 2735.18,837.389 2764.41,858.855 2800.43,858.855 C 2836.45,858.855 2865.69,837.389 2865.69,810.941 C 2865.69,784.492 2836.45,763.026 2800.43,763.026 C 2764.41,763.026 2735.18,784.492 2735.18,810.941 Z M 2813.61,804.044 C 2813.24,805.522 2812.4,805.926 2811.81,806.596 C 2811.8,806.608 2811.78,806.619 2811.77,806.631 C 2809.63,809.024 2804.45,812.896 2800.43,812.896 C 2796.41,812.896 2791.24,809.024 2789.09,806.631 C 2789.08,806.619 2789.07,806.608 2789.06,806.596 C 2788.46,805.926 2787.62,805.522 2787.26,804.044 C 2786.1,799.283 2793.56,784.591 2800.43,774.435 C 2807.3,784.591 2814.77,799.283 2813.61,804.044 Z M 2788.83,822.682 C 2788.83,832.942 2780.51,841.269 2770.25,841.269 C 2759.99,841.269 2751.66,832.942 2751.66,822.682 C 2751.66,812.424 2759.99,804.096 2770.25,804.096 C 2780.51,804.096 2788.83,812.424 2788.83,822.682 Z M 2758.14,822.682 C 2758.14,829.365 2763.56,834.788 2770.25,834.788 C 2776.93,834.788 2782.35,829.365 2782.35,822.682 C 2782.35,816.001 2776.93,810.578 2770.25,810.578 C 2763.56,810.578 2758.14,816.001 2758.14,822.682 Z M 2773.82,818.352 L 2773.82,827.014 C 2773.82,828.985 2772.22,830.586 2770.25,830.586 C 2768.27,830.586 2766.68,828.985 2766.68,827.014 L 2766.68,818.352 C 2766.68,816.38 2768.27,814.78 2770.25,814.78 C 2772.22,814.78 2773.82,816.38 2773.82,818.352 Z M 2843.19,820.688 C 2843.33,822.653 2841.86,824.368 2839.89,824.513 L 2816.54,826.244 C 2814.57,826.39 2812.86,824.913 2812.71,822.946 C 2812.57,820.981 2814.05,819.267 2816.01,819.121 L 2839.36,817.389 C 2841.33,817.244 2843.04,818.721 2843.19,820.688 Z" stroke-width="0.713" fill="#fcb900" marker-start="none" marker-end="none"/>
  </g>
 </g>
</svg>
