<?xml version="1.0" standalone="no"?>
<!DOCTYPE svg PUBLIC "-//W3C//DTD SVG 1.1//EN" "http://www.w3.org/Graphics/SVG/1.1/DTD/svg11.dtd">
<!--Generator: Xara Designer (www.xara.com), SVG filter version: 6.3.0.31-->
<svg fill="none" fill-rule="evenodd" stroke="black" stroke-width="0.501" stroke-linejoin="bevel" stroke-miterlimit="10" font-family="Times New Roman" font-size="16" style="font-variant-ligatures:none" xmlns:xlink="http://www.w3.org/1999/xlink" xmlns="http://www.w3.org/2000/svg" version="1.1" overflow="visible" width="325.792pt" height="249.007pt" viewBox="2675.82 -2009.25 325.792 249.007">
 <defs>
	</defs>
 <g id="Layer 1" transform="scale(1 -1)">
  <g id="Group" stroke="none">
   <path d="M 2734.17,1817.81 L 2731.26,1817.67 C 2703.73,1817.67 2680.58,1839.41 2680.58,1868.08 C 2680.58,1895.55 2703.66,1918.46 2731.26,1918.46 C 2757.12,1918.46 2779.01,1898.32 2781.65,1873.17 L 2781.8,1870.37 L 2784.71,1870.52 L 2786.54,1870.43 L 2786.74,1874.2 C 2789.38,1899.38 2811.28,1919.51 2837.15,1919.51 C 2863.01,1919.51 2884.9,1899.37 2887.54,1874.2 L 2887.63,1872.5 L 2889.57,1872.6 C 2891.29,1872.6 2893,1872.51 2894.68,1872.34 L 2895.68,1872.18 L 2895.79,1874.2 C 2898.43,1899.38 2920.34,1919.51 2946.2,1919.51 C 2973.78,1919.51 2996.86,1896.6 2996.86,1869.11 C 2996.86,1840.47 2973.71,1818.7 2946.2,1818.7 C 2944.48,1818.7 2942.78,1818.79 2941.1,1818.95 L 2940.09,1819.1 L 2939.98,1816.93 C 2937.34,1790.92 2915.35,1771.81 2889.57,1771.81 C 2863.8,1771.81 2841.81,1790.92 2839.16,1816.93 L 2839.07,1818.8 L 2837.15,1818.7 L 2835.34,1818.79 L 2835.14,1814.84 C 2832.49,1788.84 2810.49,1769.73 2784.71,1769.73 C 2758.93,1769.73 2736.96,1788.84 2734.32,1814.84 L 2734.17,1817.81 Z M 2825.8,1820.01 L 2822.25,1820.9 C 2804.91,1826.15 2791.3,1840.37 2787.52,1858.72 L 2787.21,1860.78 L 2784.71,1860.92 L 2781.34,1860.74 L 2780.87,1857.68 C 2777.09,1839.32 2763.48,1825.11 2746.15,1819.87 L 2743.7,1819.25 L 2743.87,1815.86 C 2746,1794.84 2763.71,1779.34 2784.71,1779.34 C 2805.72,1779.34 2823.45,1794.85 2825.59,1815.86 L 2825.8,1820.01 Z M 2930.59,1821.16 L 2926.68,1822.55 C 2911.58,1828.77 2900.01,1842.04 2896.57,1858.72 L 2896,1862.43 L 2893.71,1862.78 C 2892.35,1862.93 2890.97,1863 2889.57,1863 L 2887.4,1862.89 L 2886.76,1858.72 C 2882.98,1840.37 2869.37,1826.15 2852.04,1820.9 L 2848.61,1820.04 L 2848.71,1817.95 C 2850.85,1796.93 2868.58,1781.42 2889.57,1781.42 C 2910.57,1781.42 2928.3,1796.93 2930.43,1817.95 L 2930.59,1821.16 Z M 2734.67,1827.44 L 2735.1,1830.19 C 2738.87,1848.1 2752.44,1862.76 2769.8,1868.22 L 2772.27,1868.87 L 2772.1,1872.18 C 2769.95,1892.45 2752.19,1908.86 2731.26,1908.86 C 2708.91,1908.86 2690.19,1890.19 2690.19,1868.08 C 2690.19,1844.92 2708.84,1827.28 2731.26,1827.28 L 2734.67,1827.44 Z M 2839.33,1828.41 L 2839.94,1832.28 C 2843.71,1850.18 2857.31,1864.85 2874.66,1870.31 L 2878.09,1871.2 L 2877.99,1873.22 C 2875.85,1893.51 2858.08,1909.91 2837.15,1909.91 C 2816.2,1909.91 2798.43,1893.5 2796.29,1873.21 L 2796.08,1869.15 L 2799.63,1868.22 C 2816.99,1862.76 2830.59,1848.1 2834.36,1830.19 L 2834.64,1828.43 L 2837.15,1828.31 L 2839.33,1828.41 Z M 2987.25,1869.11 C 2987.25,1891.25 2968.53,1909.91 2946.2,1909.91 C 2925.26,1909.91 2907.48,1893.5 2905.34,1873.21 L 2905.18,1870.05 L 2909.12,1868.6 C 2924.23,1862.15 2935.77,1848.55 2939.2,1832.27 L 2939.74,1828.85 L 2942.05,1828.51 C 2943.41,1828.38 2944.8,1828.31 2946.2,1828.31 C 2968.6,1828.31 2987.25,1845.97 2987.25,1869.11 Z M 2771.16,1858.5 L 2768.88,1857.65 C 2757.86,1852.94 2749.18,1843.52 2745.53,1832.11 L 2744.9,1829.72 L 2747.12,1830.39 C 2758.15,1834.93 2766.8,1844.09 2770.44,1855.71 L 2771.16,1858.5 Z M 2877.42,1861.1 L 2873.74,1859.74 C 2861.5,1854.5 2852.13,1843.45 2849.35,1830.32 L 2853.01,1831.43 C 2865.26,1836.47 2874.59,1847.22 2877.36,1860.71 L 2877.42,1861.1 Z M 2797.41,1858.82 L 2797.95,1856.75 C 2801.59,1845.13 2810.25,1835.97 2821.27,1831.43 L 2824.35,1830.5 L 2823.93,1832.11 C 2820.27,1843.52 2811.58,1852.94 2800.55,1857.65 L 2797.41,1858.82 Z M 2906.36,1859.22 L 2907,1856.75 C 2909.83,1847.72 2915.7,1840.16 2923.36,1835.12 L 2929.37,1831.94 L 2928.76,1834.19 C 2925.92,1843.07 2920.04,1850.74 2912.38,1855.93 L 2906.36,1859.22 Z" stroke-width="0.5" fill="#ffffff" fill-rule="evenodd" marker-start="none" marker-end="none"/>
   <path d="M 2675.82,2009.25 L 2675.82,1760.24 L 3001.61,1760.24 L 3001.61,2009.25 L 2675.82,2009.25 Z" stroke-width="0.494" stroke-linejoin="miter" stroke-linecap="round" marker-start="none" marker-end="none"/>
  </g>
 </g>
</svg>
