<?xml version="1.0" standalone="no"?>
<!DOCTYPE svg PUBLIC "-//W3C//DTD SVG 1.1//EN" "http://www.w3.org/Graphics/SVG/1.1/DTD/svg11.dtd">
<!--Generator: Xara Designer (www.xara.com), SVG filter version: 6.3.0.31-->
<svg fill="none" fill-rule="evenodd" stroke="black" stroke-width="0.501" stroke-linejoin="bevel" stroke-miterlimit="10" font-family="Times New Roman" font-size="16" style="font-variant-ligatures:none" xmlns:xlink="http://www.w3.org/1999/xlink" xmlns="http://www.w3.org/2000/svg" version="1.1" overflow="visible" width="325.792pt" height="249.007pt" viewBox="2675.82 -2009.26 325.792 249.007">
 <defs>
	</defs>
 <g id="Layer 1" transform="scale(1 -1)">
  <g id="Group" stroke-linecap="round" stroke="none">
   <path d="M 2675.82,2009.26 L 2675.82,1760.25 L 3001.61,1760.25 L 3001.61,2009.26 L 2675.82,2009.26 Z" stroke-width="0.494" stroke-linejoin="miter" marker-start="none" marker-end="none"/>
   <path d="M 2760.08,1799.48 C 2743.95,1808.31 2734.53,1824.65 2733.79,1841.78 C 2724.8,1841.36 2715.58,1843.32 2707.11,1847.96 C 2682.57,1861.4 2673.57,1892.23 2687.01,1916.77 C 2700.45,1941.3 2731.28,1950.31 2755.81,1936.87 C 2771.94,1928.03 2781.36,1911.69 2782.1,1894.56 C 2783.65,1894.64 2785.2,1894.64 2786.75,1894.57 C 2787.06,1902.11 2789.07,1909.7 2792.95,1916.77 C 2806.39,1941.3 2837.21,1950.31 2861.75,1936.87 C 2877.88,1928.03 2887.29,1911.69 2888.04,1894.56 C 2889.58,1894.64 2891.14,1894.64 2892.69,1894.57 C 2893,1902.11 2895.01,1909.7 2898.88,1916.77 C 2912.32,1941.3 2943.15,1950.31 2967.69,1936.87 C 2992.22,1923.43 3001.23,1892.6 2987.79,1868.06 C 2978.19,1850.54 2959.72,1840.94 2941.01,1841.78 C 2940.7,1834.23 2938.69,1826.64 2934.82,1819.58 C 2921.38,1795.04 2890.55,1786.04 2866.01,1799.48 C 2849.89,1808.31 2840.47,1824.65 2839.72,1841.78 C 2838.18,1841.71 2836.63,1841.7 2835.08,1841.78 C 2834.76,1834.23 2832.75,1826.64 2828.88,1819.58 C 2815.44,1795.04 2784.62,1786.04 2760.08,1799.48 Z M 2820.24,1824.31 C 2823.53,1830.31 2825.16,1836.79 2825.26,1843.19 C 2821.1,1844.22 2816.99,1845.8 2813.05,1847.96 C 2798.69,1855.83 2789.65,1869.64 2787.31,1884.67 C 2785.39,1884.8 2783.47,1884.8 2781.56,1884.67 C 2780.69,1879 2778.83,1873.38 2775.91,1868.06 C 2768.82,1855.12 2756.89,1846.49 2743.6,1843.21 C 2743.86,1829.04 2751.5,1815.4 2764.81,1808.11 C 2784.58,1797.28 2809.42,1804.54 2820.24,1824.31 Z M 2926.18,1824.31 C 2929.47,1830.31 2931.09,1836.79 2931.2,1843.19 C 2927.03,1844.22 2922.93,1845.8 2918.98,1847.96 C 2904.62,1855.83 2895.59,1869.64 2893.25,1884.67 C 2891.33,1884.8 2889.4,1884.8 2887.5,1884.67 C 2886.62,1879 2884.76,1873.38 2881.85,1868.06 C 2874.76,1855.12 2862.83,1846.49 2849.53,1843.21 C 2849.8,1829.04 2857.44,1815.4 2870.75,1808.11 C 2890.52,1797.28 2915.35,1804.54 2926.18,1824.31 Z M 2734.33,1851.68 C 2735.2,1857.35 2737.06,1862.96 2739.98,1868.28 C 2747.07,1881.23 2759,1889.85 2772.29,1893.13 C 2772.03,1907.3 2764.39,1920.94 2751.08,1928.23 C 2731.31,1939.06 2706.47,1931.81 2695.65,1912.04 C 2684.82,1892.27 2692.07,1867.43 2711.84,1856.6 C 2718.97,1852.69 2726.77,1851.14 2734.33,1851.68 Z M 2840.27,1851.68 C 2841.14,1857.35 2843,1862.96 2845.91,1868.28 C 2853.01,1881.23 2864.94,1889.85 2878.23,1893.13 C 2877.97,1907.3 2870.33,1920.94 2857.02,1928.23 C 2837.25,1939.06 2812.41,1931.81 2801.58,1912.04 C 2798.29,1906.03 2796.67,1899.56 2796.56,1893.15 C 2800.73,1892.12 2804.84,1890.54 2808.78,1888.38 C 2823.14,1880.52 2832.18,1866.7 2834.51,1851.67 C 2836.44,1851.54 2838.36,1851.54 2840.27,1851.68 Z M 2979.15,1872.79 C 2989.98,1892.56 2982.73,1917.4 2962.96,1928.23 C 2943.19,1939.06 2918.35,1931.81 2907.52,1912.04 C 2904.23,1906.03 2902.61,1899.56 2902.5,1893.15 C 2906.67,1892.12 2910.78,1890.54 2914.72,1888.38 C 2929.08,1880.52 2938.12,1866.7 2940.45,1851.67 C 2955.87,1850.6 2971.24,1858.36 2979.15,1872.79 Z M 2804.05,1879.74 C 2802.01,1880.86 2799.91,1881.79 2797.78,1882.53 C 2800.45,1871.86 2807.38,1862.29 2817.78,1856.6 C 2819.82,1855.48 2821.92,1854.55 2824.05,1853.81 C 2821.38,1864.48 2814.45,1874.05 2804.05,1879.74 Z M 2909.99,1879.74 C 2907.95,1880.86 2905.85,1881.79 2903.72,1882.53 C 2906.38,1871.86 2913.32,1862.29 2923.71,1856.6 C 2925.76,1855.48 2927.85,1854.55 2929.98,1853.81 C 2927.32,1864.48 2920.38,1874.05 2909.99,1879.74 Z M 2767.28,1872.79 C 2768.99,1875.93 2770.26,1879.2 2771.09,1882.52 C 2761.83,1879.32 2753.69,1872.81 2748.62,1863.55 C 2746.9,1860.41 2745.63,1857.14 2744.8,1853.82 C 2754.06,1857.02 2762.2,1863.53 2767.28,1872.79 Z M 2873.21,1872.79 C 2874.93,1875.93 2876.2,1879.2 2877.03,1882.52 C 2867.77,1879.32 2859.62,1872.81 2854.55,1863.55 C 2852.83,1860.41 2851.57,1857.14 2850.74,1853.82 C 2859.99,1857.02 2868.14,1863.53 2873.21,1872.79 Z" fill="#ffffff" stroke-linejoin="round" stroke-width="0.644" marker-start="none" marker-end="none"/>
  </g>
 </g>
</svg>
