<?xml version="1.0" standalone="no"?>
<!DOCTYPE svg PUBLIC "-//W3C//DTD SVG 1.1//EN" "http://www.w3.org/Graphics/SVG/1.1/DTD/svg11.dtd">
<!--Generator: Xara Designer (www.xara.com), SVG filter version: 6.3.0.31-->
<svg fill="none" fill-rule="evenodd" stroke="black" stroke-width="0.501" stroke-linejoin="bevel" stroke-miterlimit="10" font-family="Times New Roman" font-size="16" style="font-variant-ligatures:none" xmlns:xlink="http://www.w3.org/1999/xlink" xmlns="http://www.w3.org/2000/svg" version="1.1" overflow="visible" width="249.007pt" height="249.007pt" viewBox="341.247 -299.493 249.007 249.007">
 <defs>
	</defs>
 <g id="Layer 1" transform="scale(1 -1)">
  <g id="Group" stroke-linejoin="miter" stroke="none">
   <path d="M 341.247,299.493 L 341.247,50.486 L 590.254,50.486 L 590.254,299.493 L 341.247,299.493 Z" stroke-width="0.485" stroke-linecap="round" fill="#ffffff" marker-start="none" marker-end="none"/>
   <path d="M 353.393,62.632 L 353.393,287.348 L 578.109,287.348 L 578.109,62.632 L 353.393,62.632 Z M 440.684,92.844 L 440.684,156.978 L 451.822,156.978 C 466.853,156.725 473.853,151.168 478.229,130.833 C 480.512,121.371 482.577,113.414 484.403,107.162 C 486.451,100.147 488.196,95.28 489.605,92.844 L 527.325,92.844 C 524.403,99.142 519.429,120.436 514.022,138.832 C 509.908,153.823 503.629,164.708 492.261,169.306 L 492.261,170.035 C 500.529,173.022 509.048,179.21 514.647,188.056 C 518.546,194.215 521.03,201.661 521.03,210.212 C 521.03,216.755 520.02,222.607 518.08,227.769 C 515.57,234.445 511.502,239.965 506.047,244.325 C 494.433,253.521 477.492,257.144 453.273,257.144 C 433.668,257.144 416.013,255.693 404.169,253.759 L 404.169,92.844 L 440.684,92.844 Z M 440.684,183.568 L 440.684,228.612 C 443.348,229.088 448.437,229.825 457.395,229.825 C 464.677,229.723 470.706,228.28 475.215,225.477 C 481.207,221.752 484.516,215.625 484.516,207.049 C 484.516,198.516 480.625,191.795 473.564,187.768 C 468.81,185.058 462.621,183.568 455.215,183.568 L 440.684,183.568 Z" stroke-width="0.25" fill-rule="nonzero" fill="#36397f" marker-start="none" marker-end="none"/>
  </g>
 </g>
</svg>
