<?xml version="1.0" standalone="no"?>
<!DOCTYPE svg PUBLIC "-//W3C//DTD SVG 1.1//EN" "http://www.w3.org/Graphics/SVG/1.1/DTD/svg11.dtd">
<!--Generator: Xara Designer (www.xara.com), SVG filter version: 6.3.0.31-->
<svg fill="none" fill-rule="evenodd" stroke="black" stroke-width="0.501" stroke-linejoin="bevel" stroke-miterlimit="10" font-family="Times New Roman" font-size="16" style="font-variant-ligatures:none" xmlns:xlink="http://www.w3.org/1999/xlink" xmlns="http://www.w3.org/2000/svg" version="1.1" overflow="visible" width="476.838pt" height="249.007pt" viewBox="639.384 -1713.8 476.838 249.007">
 <defs>
	</defs>
 <g id="Layer 1" transform="scale(1 -1)">
  <g id="Group" stroke="none">
   <path d="M 639.384,1713.8 L 639.384,1464.79 L 1116.22,1464.79 L 1116.22,1713.8 L 639.384,1713.8 Z" stroke-width="0.597" stroke-linejoin="miter" marker-start="none" marker-end="none"/>
   <path d="M 748.955,1465.92 L 748.955,1466.11 C 689.093,1466.11 640.51,1511.44 640.51,1567.29 C 640.51,1623.14 689.093,1668.47 748.955,1668.47 C 749.674,1668.47 750.395,1668.47 751.114,1668.45 L 1003.91,1668.45 C 1004.63,1668.47 1005.35,1668.47 1006.07,1668.47 C 1065.93,1668.47 1114.51,1623.14 1114.51,1567.29 C 1114.51,1511.44 1065.93,1466.11 1006.07,1466.11 L 1006.07,1465.92 L 748.955,1465.92 Z" fill="#16bbe7" stroke-width="0.484" stroke-linecap="round" stroke-linejoin="miter" marker-start="none" marker-end="none"/>
   <path d="M 762.194,1543.85 L 805.697,1546.57 C 806.642,1539.51 808.56,1534.13 811.451,1530.42 C 816.162,1524.43 822.892,1521.44 831.64,1521.44 C 838.169,1521.44 843.196,1522.97 846.728,1526.03 C 850.259,1529.09 852.028,1532.65 852.028,1536.68 C 852.028,1540.52 850.345,1543.95 846.981,1546.98 C 843.618,1550.01 835.812,1552.86 823.564,1555.56 C 803.512,1560.07 789.214,1566.05 780.667,1573.53 C 772.054,1580.99 767.747,1590.51 767.747,1602.09 C 767.747,1609.69 769.949,1616.88 774.356,1623.64 C 778.763,1630.4 785.393,1635.72 794.241,1639.59 C 803.093,1643.46 815.22,1645.39 830.63,1645.39 C 849.539,1645.39 863.957,1641.87 873.88,1634.84 C 883.808,1627.81 889.711,1616.63 891.594,1601.28 L 848.496,1598.76 C 847.354,1605.42 844.948,1610.27 841.279,1613.29 C 837.612,1616.32 832.548,1617.83 826.088,1617.83 C 820.77,1617.83 816.765,1616.71 814.075,1614.45 C 811.382,1612.2 810.038,1609.46 810.038,1606.23 C 810.038,1603.87 811.146,1601.75 813.369,1599.87 C 815.522,1597.92 820.638,1596.1 828.712,1594.42 C 848.697,1590.11 863.013,1585.75 871.66,1581.35 C 880.308,1576.94 886.599,1571.47 890.535,1564.94 C 894.471,1558.42 896.441,1551.12 896.441,1543.04 C 896.441,1533.55 893.817,1524.81 888.568,1516.8 C 883.32,1508.79 875.984,1502.72 866.564,1498.58 C 857.141,1494.44 845.266,1492.37 830.934,1492.37 C 805.766,1492.37 788.336,1497.22 778.648,1506.91 C 768.956,1516.6 763.472,1528.91 762.194,1543.85 Z M 996.2,1645.39 L 996.2,1494.89 L 954.616,1494.89 L 954.616,1593.51 C 947.889,1588.39 941.377,1584.26 935.083,1581.09 C 928.793,1577.93 920.903,1574.9 911.414,1572.01 L 911.414,1605.72 C 925.411,1610.23 936.278,1615.65 944.018,1621.97 C 951.756,1628.3 957.814,1636.11 962.187,1645.39 L 996.2,1645.39 Z" stroke-width="5.169" stroke-linecap="round" fill-rule="nonzero" fill="#ffffff" stroke-linejoin="round" marker-start="none" marker-end="none"/>
  </g>
 </g>
</svg>
