<?xml version="1.0" standalone="no"?>
<!DOCTYPE svg PUBLIC "-//W3C//DTD SVG 1.1//EN" "http://www.w3.org/Graphics/SVG/1.1/DTD/svg11.dtd">
<!--Generator: Xara Designer (www.xara.com), SVG filter version: 6.3.0.31-->
<svg fill="none" fill-rule="evenodd" stroke="black" stroke-width="0.501" stroke-linejoin="bevel" stroke-miterlimit="10" font-family="Times New Roman" font-size="16" style="font-variant-ligatures:none" xmlns:xlink="http://www.w3.org/1999/xlink" xmlns="http://www.w3.org/2000/svg" version="1.1" overflow="visible" width="474.003pt" height="249.007pt" viewBox="639.384 -1713.79 474.003 249.007">
 <defs>
	</defs>
 <g id="Layer 1" transform="scale(1 -1)">
  <g id="Group" stroke="none">
   <path d="M 639.384,1713.79 L 639.384,1464.78 L 1113.39,1464.78 L 1113.39,1713.79 L 639.384,1713.79 Z" stroke-width="0.597" stroke-linejoin="miter" marker-start="none" marker-end="none"/>
   <path d="M 747.83,1464.78 L 747.83,1464.98 C 687.968,1464.98 639.385,1510.31 639.385,1566.16 C 639.385,1622.01 687.968,1667.34 747.83,1667.34 C 748.549,1667.34 749.27,1667.33 749.989,1667.32 L 1002.78,1667.32 C 1003.5,1667.33 1004.22,1667.34 1004.94,1667.34 C 1064.8,1667.34 1113.39,1622.01 1113.39,1566.16 C 1113.39,1510.31 1064.8,1464.98 1004.94,1464.98 L 1004.94,1464.78 L 747.83,1464.78 Z" fill="#16bbe7" stroke-width="0.484" stroke-linecap="round" stroke-linejoin="miter" marker-start="none" marker-end="none"/>
   <path d="M 759.383,1541.03 L 802.886,1543.76 C 803.831,1536.69 805.749,1531.31 808.64,1527.61 C 813.351,1521.62 820.081,1518.62 828.829,1518.62 C 835.358,1518.62 840.385,1520.15 843.917,1523.21 C 847.448,1526.28 849.217,1529.83 849.217,1533.86 C 849.217,1537.7 847.534,1541.13 844.17,1544.16 C 840.807,1547.19 833.001,1550.05 820.753,1552.74 C 800.701,1557.25 786.403,1563.24 777.856,1570.71 C 769.243,1578.17 764.936,1587.69 764.936,1599.27 C 764.936,1606.87 767.138,1614.06 771.545,1620.82 C 775.952,1627.58 782.582,1632.9 791.43,1636.77 C 800.282,1640.64 812.409,1642.57 827.819,1642.57 C 846.728,1642.57 861.146,1639.06 871.069,1632.02 C 880.997,1624.99 886.9,1613.81 888.783,1598.46 L 845.685,1595.94 C 844.543,1602.6 842.137,1607.45 838.468,1610.47 C 834.801,1613.5 829.737,1615.02 823.277,1615.02 C 817.959,1615.02 813.954,1613.89 811.264,1611.64 C 808.571,1609.38 807.227,1606.64 807.227,1603.41 C 807.227,1601.05 808.335,1598.93 810.558,1597.05 C 812.711,1595.1 817.827,1593.28 825.901,1591.6 C 845.886,1587.29 860.202,1582.93 868.849,1578.53 C 877.497,1574.12 883.788,1568.65 887.724,1562.12 C 891.66,1555.6 893.63,1548.3 893.63,1540.22 C 893.63,1530.73 891.006,1521.99 885.757,1513.98 C 880.509,1505.97 873.173,1499.9 863.753,1495.76 C 854.33,1491.62 842.455,1489.55 828.123,1489.55 C 802.955,1489.55 785.525,1494.4 775.837,1504.09 C 766.145,1513.78 760.661,1526.09 759.383,1541.03 Z M 993.389,1642.57 L 993.389,1492.08 L 951.805,1492.08 L 951.805,1590.69 C 945.078,1585.58 938.566,1581.44 932.272,1578.27 C 925.982,1575.11 918.092,1572.08 908.603,1569.19 L 908.603,1602.91 C 922.6,1607.41 933.467,1612.83 941.207,1619.16 C 948.945,1625.48 955.003,1633.29 959.376,1642.57 L 993.389,1642.57 Z" stroke-width="5.169" stroke-linecap="round" fill-rule="nonzero" fill="#ffffff" stroke-linejoin="round" marker-start="none" marker-end="none"/>
  </g>
 </g>
</svg>
