<?xml version="1.0" standalone="no"?>
<!DOCTYPE svg PUBLIC "-//W3C//DTD SVG 1.1//EN" "http://www.w3.org/Graphics/SVG/1.1/DTD/svg11.dtd">
<!--Generator: Xara Designer (www.xara.com), SVG filter version: 6.3.0.31-->
<svg fill="none" fill-rule="evenodd" stroke="black" stroke-width="0.501" stroke-linejoin="bevel" stroke-miterlimit="10" font-family="Times New Roman" font-size="16" style="font-variant-ligatures:none" xmlns:xlink="http://www.w3.org/1999/xlink" xmlns="http://www.w3.org/2000/svg" version="1.1" overflow="visible" width="663.732pt" height="249.007pt" viewBox="639.384 -893.5 663.732 249.007">
 <defs>
	</defs>
 <g id="Layer 1" transform="scale(1 -1)">
  <g id="Group" stroke="none">
   <path d="M 639.384,893.5 L 639.384,644.493 L 1303.12,644.493 L 1303.12,893.5 L 639.384,893.5 Z" stroke-width="0.597" stroke-linejoin="miter" marker-start="none" marker-end="none"/>
   <path d="M 749.63,646.293 L 749.63,646.491 C 689.768,646.491 641.185,691.82 641.185,747.671 C 641.185,803.522 689.768,848.851 749.63,848.851 C 750.349,848.851 751.07,848.844 751.789,848.831 L 1004.58,848.831 C 1005.3,848.844 1006.02,848.851 1006.74,848.851 C 1066.6,848.851 1115.19,803.522 1115.19,747.671 C 1115.19,691.82 1066.6,646.491 1006.74,646.491 L 1006.74,646.293 L 749.63,646.293 Z" fill="#16bbe7" stroke-width="0.484" stroke-linecap="round" stroke-linejoin="miter" marker-start="none" marker-end="none"/>
   <path d="M 761.183,722.541 L 804.686,725.266 C 805.631,718.2 807.549,712.817 810.44,709.116 C 815.151,703.127 821.881,700.132 830.629,700.132 C 837.158,700.132 842.185,701.662 845.717,704.726 C 849.248,707.786 851.017,711.338 851.017,715.375 C 851.017,719.211 849.334,722.642 845.97,725.671 C 842.607,728.697 834.801,731.556 822.553,734.249 C 802.501,738.757 788.203,744.746 779.656,752.217 C 771.043,759.684 766.736,769.205 766.736,780.781 C 766.736,788.384 768.938,795.567 773.345,802.332 C 777.752,809.093 784.382,814.41 793.23,818.278 C 802.082,822.148 814.209,824.083 829.619,824.083 C 848.528,824.083 862.946,820.566 872.869,813.535 C 882.797,806.503 888.7,795.318 890.583,779.974 L 847.485,777.451 C 846.343,784.114 843.937,788.958 840.268,791.984 C 836.601,795.013 831.537,796.526 825.077,796.526 C 819.759,796.526 815.754,795.401 813.064,793.147 C 810.371,790.893 809.027,788.151 809.027,784.918 C 809.027,782.564 810.135,780.445 812.358,778.562 C 814.511,776.609 819.627,774.792 827.701,773.11 C 847.686,768.803 862.002,764.445 870.649,760.038 C 879.297,755.63 885.588,750.164 889.524,743.635 C 893.46,737.109 895.43,729.808 895.43,721.734 C 895.43,712.245 892.806,703.497 887.557,695.49 C 882.309,687.482 874.973,681.41 865.553,677.27 C 856.13,673.132 844.255,671.062 829.923,671.062 C 804.755,671.062 787.325,675.909 777.637,685.599 C 767.945,695.289 762.461,707.603 761.183,722.541 Z M 995.189,824.083 L 995.189,673.586 L 953.605,673.586 L 953.605,772.202 C 946.878,767.086 940.366,762.949 934.072,759.785 C 927.782,756.624 919.892,753.595 910.403,750.701 L 910.403,784.416 C 924.4,788.924 935.267,794.341 943.007,800.666 C 950.745,806.991 956.803,814.798 961.176,824.083 L 995.189,824.083 Z" stroke-width="5.169" stroke-linecap="round" fill-rule="nonzero" fill="#ffffff" stroke-linejoin="round" marker-start="none" marker-end="none"/>
   <path d="M 1128.29,777.787 L 1133.77,776.138 L 1154.24,753.899 C 1160.51,755.102 1167.58,755.961 1176.44,756.038 C 1186.17,756.122 1196.59,756.176 1206.98,756.211 C 1206.99,756.231 1207,756.251 1207.01,756.271 L 1207.01,781.229 L 1185.36,830.916 L 1178.98,838.135 L 1182.64,838.176 L 1191.36,832.51 L 1229.06,778.992 L 1232.91,782.212 C 1237.15,783.583 1248.42,785.108 1250.99,782.212 L 1250.99,772.763 C 1246.66,770.269 1239.36,771.666 1233.53,772.658 L 1245.07,756.271 C 1256.83,756.272 1266.98,756.263 1273.94,756.263 C 1292.9,756.263 1299.93,750.31 1302.03,747.722 C 1302.1,747.623 1302.1,747.522 1302.03,747.423 C 1299.93,744.835 1292.9,738.881 1273.94,738.881 C 1266.98,738.881 1256.83,738.872 1245.07,738.873 L 1233.53,722.486 C 1239.36,723.478 1246.66,724.875 1250.99,722.381 L 1250.99,712.932 C 1248.42,710.036 1237.15,711.561 1232.91,712.932 L 1229.06,716.152 L 1191.36,662.634 L 1182.64,656.968 L 1178.98,657.009 L 1185.36,664.228 L 1207.01,713.915 L 1207.01,738.873 C 1207,738.893 1206.99,738.913 1206.98,738.933 C 1196.59,738.968 1186.17,739.022 1176.44,739.106 C 1167.58,739.183 1160.51,740.042 1154.24,741.245 L 1133.77,719.006 L 1128.29,717.357 L 1138.57,745.009 C 1135.85,745.721 1133.11,746.42 1130.24,747.056 L 1130.24,748.088 C 1133.11,748.724 1135.85,749.423 1138.57,750.135 L 1128.29,777.787 Z" fill="#ffffff" stroke-linejoin="miter" marker-start="none" marker-end="none"/>
  </g>
 </g>
</svg>
