<?xml version="1.0" standalone="no"?>
<!DOCTYPE svg PUBLIC "-//W3C//DTD SVG 1.1//EN" "http://www.w3.org/Graphics/SVG/1.1/DTD/svg11.dtd">
<!--Generator: Xara Designer (www.xara.com), SVG filter version: 6.3.0.31-->
<svg fill="none" fill-rule="evenodd" stroke="black" stroke-width="0.501" stroke-linejoin="bevel" stroke-miterlimit="10" font-family="Times New Roman" font-size="16" style="font-variant-ligatures:none" xmlns:xlink="http://www.w3.org/1999/xlink" xmlns="http://www.w3.org/2000/svg" version="1.1" overflow="visible" width="660.897pt" height="249.007pt" viewBox="639.384 -893.492 660.897 249.007">
 <defs>
	</defs>
 <g id="Layer 1" transform="scale(1 -1)">
  <g id="Group" stroke="none">
   <path d="M 639.384,893.492 L 639.384,644.485 L 1300.28,644.485 L 1300.28,893.492 L 639.384,893.492 Z" stroke-width="0.597" stroke-linejoin="miter" marker-start="none" marker-end="none"/>
   <path d="M 747.83,644.485 L 747.83,644.683 C 687.968,644.683 639.385,690.012 639.385,745.863 C 639.385,801.714 687.968,847.043 747.83,847.043 C 748.549,847.043 749.27,847.036 749.989,847.023 L 1002.78,847.023 C 1003.5,847.036 1004.22,847.043 1004.94,847.043 C 1064.8,847.043 1113.39,801.714 1113.39,745.863 C 1113.39,690.012 1064.8,644.683 1004.94,644.683 L 1004.94,644.485 L 747.83,644.485 Z" fill="#16bbe7" stroke-width="0.484" stroke-linecap="round" stroke-linejoin="miter" marker-start="none" marker-end="none"/>
   <path d="M 759.383,720.733 L 802.886,723.458 C 803.831,716.392 805.749,711.009 808.64,707.308 C 813.351,701.319 820.081,698.324 828.829,698.324 C 835.358,698.324 840.385,699.854 843.917,702.918 C 847.448,705.978 849.217,709.53 849.217,713.567 C 849.217,717.403 847.534,720.834 844.17,723.863 C 840.807,726.889 833.001,729.748 820.753,732.441 C 800.701,736.949 786.403,742.938 777.856,750.409 C 769.243,757.876 764.936,767.397 764.936,778.973 C 764.936,786.576 767.138,793.759 771.545,800.524 C 775.952,807.285 782.582,812.602 791.43,816.47 C 800.282,820.34 812.409,822.275 827.819,822.275 C 846.728,822.275 861.146,818.758 871.069,811.727 C 880.997,804.695 886.9,793.51 888.783,778.166 L 845.685,775.643 C 844.543,782.306 842.137,787.15 838.468,790.176 C 834.801,793.205 829.737,794.718 823.277,794.718 C 817.959,794.718 813.954,793.593 811.264,791.339 C 808.571,789.085 807.227,786.343 807.227,783.11 C 807.227,780.756 808.335,778.637 810.558,776.754 C 812.711,774.801 817.827,772.984 825.901,771.302 C 845.886,766.995 860.202,762.637 868.849,758.23 C 877.497,753.822 883.788,748.356 887.724,741.827 C 891.66,735.301 893.63,728 893.63,719.926 C 893.63,710.437 891.006,701.689 885.757,693.682 C 880.509,685.674 873.173,679.602 863.753,675.462 C 854.33,671.324 842.455,669.254 828.123,669.254 C 802.955,669.254 785.525,674.101 775.837,683.791 C 766.145,693.481 760.661,705.795 759.383,720.733 Z M 993.389,822.275 L 993.389,671.778 L 951.805,671.778 L 951.805,770.394 C 945.078,765.278 938.566,761.141 932.272,757.977 C 925.982,754.816 918.092,751.787 908.603,748.893 L 908.603,782.608 C 922.6,787.116 933.467,792.533 941.207,798.858 C 948.945,805.183 955.003,812.99 959.376,822.275 L 993.389,822.275 Z" stroke-width="5.169" stroke-linecap="round" fill-rule="nonzero" fill="#ffffff" stroke-linejoin="round" marker-start="none" marker-end="none"/>
   <path d="M 1126.49,775.979 L 1131.96,774.33 L 1152.44,752.091 C 1158.7,753.294 1165.78,754.153 1174.64,754.23 C 1184.37,754.314 1194.79,754.368 1205.18,754.403 C 1205.19,754.423 1205.2,754.443 1205.21,754.463 L 1205.21,779.421 L 1183.56,829.108 L 1177.18,836.327 L 1180.84,836.368 L 1189.56,830.702 L 1227.26,777.184 L 1231.11,780.404 C 1235.35,781.775 1246.62,783.3 1249.19,780.404 L 1249.19,770.955 C 1244.86,768.461 1237.56,769.858 1231.73,770.85 L 1243.27,754.463 C 1255.03,754.464 1265.18,754.455 1272.14,754.455 C 1291.1,754.455 1298.13,748.502 1300.23,745.914 C 1300.3,745.815 1300.3,745.714 1300.23,745.615 C 1298.13,743.027 1291.1,737.073 1272.14,737.073 C 1265.18,737.073 1255.03,737.064 1243.27,737.065 L 1231.73,720.678 C 1237.56,721.67 1244.86,723.067 1249.19,720.573 L 1249.19,711.124 C 1246.62,708.228 1235.35,709.753 1231.11,711.124 L 1227.26,714.344 L 1189.56,660.826 L 1180.84,655.16 L 1177.18,655.201 L 1183.56,662.42 L 1205.21,712.107 L 1205.21,737.065 C 1205.2,737.085 1205.19,737.105 1205.18,737.125 C 1194.79,737.16 1184.37,737.214 1174.64,737.298 C 1165.78,737.375 1158.7,738.234 1152.44,739.437 L 1131.96,717.198 L 1126.49,715.549 L 1136.77,743.201 C 1134.05,743.913 1131.31,744.612 1128.44,745.248 L 1128.44,746.28 C 1131.31,746.916 1134.05,747.615 1136.77,748.327 L 1126.49,775.979 Z" fill="#ffffff" stroke-linejoin="miter" marker-start="none" marker-end="none"/>
  </g>
 </g>
</svg>
