<?xml version="1.0" standalone="no"?>
<!DOCTYPE svg PUBLIC "-//W3C//DTD SVG 1.1//EN" "http://www.w3.org/Graphics/SVG/1.1/DTD/svg11.dtd">
<!--Generator: Xara Designer (www.xara.com), SVG filter version: 6.3.0.31-->
<svg fill="none" fill-rule="evenodd" stroke="black" stroke-width="0.501" stroke-linejoin="bevel" stroke-miterlimit="10" font-family="Times New Roman" font-size="16" style="font-variant-ligatures:none" xmlns:xlink="http://www.w3.org/1999/xlink" xmlns="http://www.w3.org/2000/svg" version="1.1" overflow="visible" width="148.623pt" height="55.758pt" viewBox="276.927 -258.266 148.623 55.758">
 <defs>
	</defs>
 <g id="Layer 1" transform="scale(1 -1)">
  <g id="Group" stroke="none">
   <path d="M 276.927,258.266 L 276.927,202.508 L 425.55,202.508 L 425.55,258.266 L 276.927,258.266 Z" stroke-width="0.597" stroke-linejoin="miter" marker-start="none" marker-end="none"/>
   <path d="M 301.613,202.911 L 301.613,202.956 C 288.209,202.956 277.33,213.105 277.33,225.612 C 277.33,238.118 288.209,248.268 301.613,248.268 C 301.774,248.268 301.936,248.266 302.097,248.263 L 358.702,248.263 C 358.863,248.266 359.024,248.268 359.186,248.268 C 372.59,248.268 383.469,238.118 383.469,225.612 C 383.469,213.105 372.59,202.956 359.186,202.956 L 359.186,202.911 L 301.613,202.911 Z" fill="#16bbe7" stroke-width="0.484" stroke-linecap="round" stroke-linejoin="miter" marker-start="none" marker-end="none"/>
   <path d="M 304.2,219.985 L 313.941,220.595 C 314.153,219.013 314.583,217.807 315.23,216.978 C 316.285,215.637 317.792,214.967 319.751,214.967 C 321.212,214.967 322.338,215.31 323.129,215.995 C 323.92,216.681 324.316,217.476 324.316,218.38 C 324.316,219.239 323.939,220.007 323.186,220.686 C 322.433,221.363 320.685,222.003 317.942,222.606 C 313.452,223.616 310.251,224.957 308.337,226.63 C 306.408,228.302 305.444,230.434 305.444,233.026 C 305.444,234.728 305.937,236.336 306.924,237.852 C 307.91,239.365 309.395,240.556 311.376,241.422 C 313.358,242.289 316.074,242.722 319.524,242.722 C 323.758,242.722 326.987,241.934 329.209,240.36 C 331.432,238.786 332.754,236.281 333.175,232.845 L 323.525,232.28 C 323.269,233.772 322.731,234.857 321.909,235.534 C 321.088,236.212 319.954,236.551 318.508,236.551 C 317.317,236.551 316.42,236.3 315.818,235.795 C 315.215,235.29 314.913,234.676 314.913,233.952 C 314.913,233.425 315.161,232.95 315.659,232.529 C 316.141,232.092 317.287,231.685 319.095,231.308 C 323.57,230.343 326.775,229.368 328.712,228.381 C 330.648,227.394 332.057,226.17 332.938,224.708 C 333.82,223.247 334.261,221.612 334.261,219.804 C 334.261,217.679 333.673,215.72 332.498,213.927 C 331.323,212.134 329.68,210.775 327.571,209.848 C 325.461,208.921 322.802,208.458 319.593,208.458 C 313.957,208.458 310.054,209.543 307.885,211.712 C 305.715,213.882 304.486,216.64 304.2,219.985 Z M 356.599,242.722 L 356.599,209.023 L 347.287,209.023 L 347.287,231.105 C 345.781,229.959 344.323,229.033 342.914,228.324 C 341.505,227.617 339.738,226.938 337.613,226.29 L 337.613,233.84 C 340.748,234.849 343.181,236.062 344.914,237.478 C 346.647,238.895 348.003,240.643 348.983,242.722 L 356.599,242.722 Z" fill="#feffff" stroke-width="5.169" stroke-linecap="round" fill-rule="nonzero" stroke-linejoin="round" marker-start="none" marker-end="none"/>
   <path d="M 386.403,232.355 L 387.629,231.986 L 392.213,227.006 C 393.616,227.276 395.2,227.468 397.185,227.485 C 399.363,227.504 401.697,227.516 404.023,227.524 C 404.025,227.528 404.028,227.533 404.03,227.537 L 404.03,233.126 L 399.181,244.252 L 397.753,245.868 L 398.573,245.878 L 400.525,244.609 L 408.968,232.625 L 409.83,233.346 C 410.779,233.653 413.301,233.994 413.878,233.346 L 413.878,231.23 C 412.909,230.672 411.273,230.985 409.967,231.207 L 412.553,227.537 C 415.186,227.537 417.458,227.536 419.017,227.536 C 423.261,227.536 424.837,226.203 425.306,225.623 C 425.323,225.601 425.321,225.578 425.306,225.556 C 424.837,224.977 423.261,223.643 419.017,223.643 C 417.458,223.643 415.186,223.642 412.553,223.642 L 409.967,219.972 C 411.273,220.194 412.909,220.507 413.878,219.949 L 413.878,217.833 C 413.301,217.185 410.779,217.526 409.83,217.833 L 408.968,218.554 L 400.525,206.57 L 398.573,205.301 L 397.753,205.311 L 399.181,206.927 L 404.03,218.053 L 404.03,223.642 C 404.028,223.646 404.025,223.651 404.023,223.655 C 401.697,223.663 399.363,223.675 397.185,223.694 C 395.2,223.711 393.616,223.903 392.213,224.173 L 387.629,219.193 L 386.403,218.824 L 388.704,225.016 C 388.094,225.175 387.481,225.332 386.839,225.474 L 386.839,225.705 C 387.481,225.847 388.094,226.004 388.704,226.163 L 386.403,232.355 Z" fill="#ffffff" stroke-linejoin="miter" marker-start="none" marker-end="none"/>
  </g>
 </g>
</svg>
