<?xml version="1.0" standalone="no"?>
<!DOCTYPE svg PUBLIC "-//W3C//DTD SVG 1.1//EN" "http://www.w3.org/Graphics/SVG/1.1/DTD/svg11.dtd">
<!--Generator: Xara Designer (www.xara.com), SVG filter version: 6.3.0.31-->
<svg fill="none" fill-rule="evenodd" stroke="black" stroke-width="0.501" stroke-linejoin="bevel" stroke-miterlimit="10" font-family="Times New Roman" font-size="16" style="font-variant-ligatures:none" xmlns:xlink="http://www.w3.org/1999/xlink" xmlns="http://www.w3.org/2000/svg" version="1.1" overflow="visible" width="476.838pt" height="249.007pt" viewBox="1135.88 -1713.8 476.838 249.007">
 <defs>
	</defs>
 <g id="Layer 1" transform="scale(1 -1)">
  <g id="Group" stroke="none">
   <path d="M 1135.88,1713.8 L 1135.88,1464.79 L 1612.72,1464.79 L 1612.72,1713.8 L 1135.88,1713.8 Z" stroke-width="0.597" stroke-linejoin="miter" marker-start="none" marker-end="none"/>
   <path d="M 1245.74,1466.2 L 1245.74,1466.4 C 1185.88,1466.4 1137.29,1511.72 1137.29,1567.58 C 1137.29,1623.43 1185.88,1668.76 1245.74,1668.76 C 1246.46,1668.76 1247.18,1668.75 1247.9,1668.74 L 1500.69,1668.74 C 1501.41,1668.75 1502.13,1668.76 1502.85,1668.76 C 1562.71,1668.76 1611.29,1623.43 1611.29,1567.58 C 1611.29,1511.72 1562.71,1466.4 1502.85,1466.4 L 1502.85,1466.2 L 1245.74,1466.2 Z" fill="#75b82a" stroke-width="0.484" stroke-linecap="round" stroke-linejoin="miter" marker-start="none" marker-end="none"/>
   <path d="M 1242.19,1543.85 L 1285.69,1546.57 C 1286.64,1539.51 1288.56,1534.13 1291.45,1530.42 C 1296.16,1524.43 1302.89,1521.44 1311.64,1521.44 C 1318.17,1521.44 1323.19,1522.97 1326.73,1526.03 C 1330.26,1529.09 1332.03,1532.65 1332.03,1536.68 C 1332.03,1540.52 1330.34,1543.95 1326.98,1546.98 C 1323.62,1550.01 1315.81,1552.86 1303.56,1555.56 C 1283.51,1560.07 1269.21,1566.05 1260.66,1573.53 C 1252.05,1580.99 1247.74,1590.51 1247.74,1602.09 C 1247.74,1609.69 1249.95,1616.88 1254.35,1623.64 C 1258.76,1630.4 1265.39,1635.72 1274.24,1639.59 C 1283.09,1643.46 1295.22,1645.39 1310.63,1645.39 C 1329.54,1645.39 1343.95,1641.87 1353.88,1634.84 C 1363.81,1627.81 1369.71,1616.63 1371.59,1601.28 L 1328.49,1598.76 C 1327.35,1605.42 1324.94,1610.27 1321.28,1613.29 C 1317.61,1616.32 1312.55,1617.83 1306.09,1617.83 C 1300.77,1617.83 1296.76,1616.71 1294.07,1614.45 C 1291.38,1612.2 1290.04,1609.46 1290.04,1606.23 C 1290.04,1603.87 1291.14,1601.75 1293.37,1599.87 C 1295.52,1597.92 1300.64,1596.1 1308.71,1594.42 C 1328.69,1590.11 1343.01,1585.75 1351.66,1581.35 C 1360.31,1576.94 1366.6,1571.47 1370.53,1564.94 C 1374.47,1558.42 1376.44,1551.12 1376.44,1543.04 C 1376.44,1533.55 1373.81,1524.81 1368.57,1516.8 C 1363.32,1508.79 1355.98,1502.72 1346.56,1498.58 C 1337.14,1494.44 1325.26,1492.37 1310.93,1492.37 C 1285.76,1492.37 1268.33,1497.22 1258.65,1506.91 C 1248.95,1516.6 1243.47,1528.91 1242.19,1543.85 Z M 1509.2,1494.89 L 1385.86,1494.89 C 1387.27,1507.07 1391.56,1518.53 1398.73,1529.26 C 1405.9,1540 1419.34,1552.66 1439.05,1567.27 C 1451.1,1576.22 1458.8,1583.01 1462.17,1587.66 C 1465.53,1592.3 1467.21,1596.71 1467.21,1600.88 C 1467.21,1605.39 1465.55,1609.24 1462.22,1612.43 C 1458.89,1615.63 1454.7,1617.23 1449.65,1617.23 C 1444.4,1617.23 1440.11,1615.58 1436.78,1612.28 C 1433.45,1608.99 1431.22,1603.17 1430.07,1594.82 L 1388.89,1598.15 C 1390.5,1609.73 1393.46,1618.76 1397.77,1625.25 C 1402.08,1631.75 1408.15,1636.73 1415.99,1640.19 C 1423.83,1643.66 1434.68,1645.39 1448.54,1645.39 C 1463.01,1645.39 1474.26,1643.74 1482.3,1640.44 C 1490.35,1637.15 1496.67,1632.08 1501.28,1625.25 C 1505.89,1618.43 1508.2,1610.77 1508.2,1602.29 C 1508.2,1593.28 1505.55,1584.66 1500.27,1576.45 C 1494.99,1568.24 1485.38,1559.22 1471.45,1549.4 C 1463.18,1543.68 1457.64,1539.68 1454.85,1537.39 C 1452.06,1535.1 1448.78,1532.11 1445.01,1528.41 L 1509.2,1528.41 L 1509.2,1494.89 Z" stroke-width="5.169" stroke-linecap="round" fill-rule="nonzero" fill="#ffffff" stroke-linejoin="round" marker-start="none" marker-end="none"/>
  </g>
 </g>
</svg>
