<?xml version="1.0" standalone="no"?>
<!DOCTYPE svg PUBLIC "-//W3C//DTD SVG 1.1//EN" "http://www.w3.org/Graphics/SVG/1.1/DTD/svg11.dtd">
<!--Generator: Xara Designer (www.xara.com), SVG filter version: 6.3.0.31-->
<svg fill="none" fill-rule="evenodd" stroke="black" stroke-width="0.501" stroke-linejoin="bevel" stroke-miterlimit="10" font-family="Times New Roman" font-size="16" style="font-variant-ligatures:none" xmlns:xlink="http://www.w3.org/1999/xlink" xmlns="http://www.w3.org/2000/svg" version="1.1" overflow="visible" width="474.003pt" height="249.007pt" viewBox="1135.88 -1713.79 474.003 249.007">
 <defs>
	</defs>
 <g id="Layer 1" transform="scale(1 -1)">
  <g id="Group" stroke="none">
   <path d="M 1135.88,1713.79 L 1135.88,1464.78 L 1609.89,1464.78 L 1609.89,1713.79 L 1135.88,1713.79 Z" stroke-width="0.597" stroke-linejoin="miter" marker-start="none" marker-end="none"/>
   <path d="M 1244.33,1464.78 L 1244.33,1464.98 C 1184.47,1464.98 1135.89,1510.31 1135.89,1566.16 C 1135.89,1622.01 1184.47,1667.34 1244.33,1667.34 C 1245.05,1667.34 1245.77,1667.33 1246.49,1667.32 L 1499.28,1667.32 C 1500,1667.33 1500.72,1667.34 1501.44,1667.34 C 1561.3,1667.34 1609.89,1622.01 1609.89,1566.16 C 1609.89,1510.31 1561.3,1464.98 1501.44,1464.98 L 1501.44,1464.78 L 1244.33,1464.78 Z" fill="#75b82a" stroke-width="0.484" stroke-linecap="round" stroke-linejoin="miter" marker-start="none" marker-end="none"/>
   <path d="M 1239.38,1541.03 L 1282.88,1543.76 C 1283.83,1536.69 1285.75,1531.31 1288.64,1527.61 C 1293.35,1521.62 1300.08,1518.62 1308.83,1518.62 C 1315.36,1518.62 1320.38,1520.15 1323.91,1523.21 C 1327.44,1526.28 1329.21,1529.83 1329.21,1533.86 C 1329.21,1537.7 1327.53,1541.13 1324.17,1544.16 C 1320.8,1547.19 1313,1550.05 1300.75,1552.74 C 1280.7,1557.25 1266.4,1563.24 1257.85,1570.71 C 1249.24,1578.17 1244.93,1587.69 1244.93,1599.27 C 1244.93,1606.87 1247.14,1614.06 1251.54,1620.82 C 1255.95,1627.58 1262.58,1632.9 1271.43,1636.77 C 1280.28,1640.64 1292.41,1642.57 1307.82,1642.57 C 1326.73,1642.57 1341.14,1639.06 1351.07,1632.02 C 1360.99,1624.99 1366.9,1613.81 1368.78,1598.46 L 1325.68,1595.94 C 1324.54,1602.6 1322.13,1607.45 1318.46,1610.47 C 1314.8,1613.5 1309.73,1615.02 1303.27,1615.02 C 1297.96,1615.02 1293.95,1613.89 1291.26,1611.64 C 1288.57,1609.38 1287.22,1606.64 1287.22,1603.41 C 1287.22,1601.05 1288.33,1598.93 1290.56,1597.05 C 1292.71,1595.1 1297.82,1593.28 1305.9,1591.6 C 1325.88,1587.29 1340.2,1582.93 1348.85,1578.53 C 1357.49,1574.12 1363.79,1568.65 1367.72,1562.12 C 1371.66,1555.6 1373.63,1548.3 1373.63,1540.22 C 1373.63,1530.73 1371,1521.99 1365.75,1513.98 C 1360.51,1505.97 1353.17,1499.9 1343.75,1495.76 C 1334.33,1491.62 1322.45,1489.55 1308.12,1489.55 C 1282.95,1489.55 1265.52,1494.4 1255.83,1504.09 C 1246.14,1513.78 1240.66,1526.09 1239.38,1541.03 Z M 1506.39,1492.08 L 1383.05,1492.08 C 1384.46,1504.25 1388.75,1515.71 1395.92,1526.44 C 1403.09,1537.18 1416.53,1549.84 1436.24,1564.45 C 1448.29,1573.4 1455.99,1580.19 1459.36,1584.84 C 1462.72,1589.48 1464.4,1593.89 1464.4,1598.06 C 1464.4,1602.57 1462.74,1606.42 1459.41,1609.62 C 1456.08,1612.81 1451.89,1614.41 1446.84,1614.41 C 1441.59,1614.41 1437.3,1612.76 1433.97,1609.47 C 1430.64,1606.17 1428.41,1600.35 1427.26,1592 L 1386.08,1595.33 C 1387.69,1606.91 1390.65,1615.94 1394.96,1622.43 C 1399.27,1628.93 1405.34,1633.91 1413.18,1637.37 C 1421.02,1640.84 1431.87,1642.57 1445.73,1642.57 C 1460.2,1642.57 1471.45,1640.92 1479.49,1637.63 C 1487.54,1634.33 1493.86,1629.26 1498.47,1622.43 C 1503.08,1615.61 1505.39,1607.95 1505.39,1599.47 C 1505.39,1590.46 1502.74,1581.84 1497.46,1573.63 C 1492.18,1565.42 1482.57,1556.41 1468.64,1546.58 C 1460.37,1540.86 1454.83,1536.86 1452.04,1534.57 C 1449.25,1532.28 1445.97,1529.29 1442.2,1525.59 L 1506.39,1525.59 L 1506.39,1492.08 Z" stroke-width="5.169" stroke-linecap="round" fill-rule="nonzero" fill="#ffffff" stroke-linejoin="round" marker-start="none" marker-end="none"/>
  </g>
 </g>
</svg>
