<?xml version="1.0" standalone="no"?>
<!DOCTYPE svg PUBLIC "-//W3C//DTD SVG 1.1//EN" "http://www.w3.org/Graphics/SVG/1.1/DTD/svg11.dtd">
<!--Generator: Xara Designer (www.xara.com), SVG filter version: 6.3.0.31-->
<svg fill="none" fill-rule="evenodd" stroke="black" stroke-width="0.501" stroke-linejoin="bevel" stroke-miterlimit="10" font-family="Times New Roman" font-size="16" style="font-variant-ligatures:none" xmlns:xlink="http://www.w3.org/1999/xlink" xmlns="http://www.w3.org/2000/svg" version="1.1" overflow="visible" width="476.838pt" height="249.007pt" viewBox="639.384 -1439.57 476.838 249.007">
 <defs>
	</defs>
 <g id="Layer 1" transform="scale(1 -1)">
  <g id="Group" stroke="none">
   <path d="M 639.384,1439.57 L 639.384,1190.56 L 1116.22,1190.56 L 1116.22,1439.57 L 639.384,1439.57 Z" stroke-width="0.597" stroke-linejoin="miter" marker-start="none" marker-end="none"/>
   <path d="M 750.08,1192.81 L 750.08,1193.01 C 690.218,1193.01 641.635,1238.34 641.635,1294.19 C 641.635,1350.04 690.218,1395.37 750.08,1395.37 C 750.799,1395.37 751.52,1395.37 752.239,1395.35 L 1005.03,1395.35 C 1005.75,1395.37 1006.47,1395.37 1007.19,1395.37 C 1067.05,1395.37 1115.64,1350.04 1115.64,1294.19 C 1115.64,1238.34 1067.05,1193.01 1007.19,1193.01 L 1007.19,1192.81 L 750.08,1192.81 Z" fill="#ea516d" stroke-width="0.484" stroke-linecap="round" stroke-linejoin="miter" marker-start="none" marker-end="none"/>
   <path d="M 694.943,1269.06 L 738.445,1271.79 C 739.39,1264.72 741.308,1259.34 744.199,1255.64 C 748.91,1249.65 755.64,1246.65 764.389,1246.65 C 770.917,1246.65 775.945,1248.18 779.476,1251.25 C 783.008,1254.31 784.776,1257.86 784.776,1261.9 C 784.776,1265.73 783.094,1269.16 779.729,1272.19 C 776.367,1275.22 768.56,1278.08 756.312,1280.77 C 736.26,1285.28 721.962,1291.27 713.415,1298.74 C 704.802,1306.2 700.495,1315.73 700.495,1327.3 C 700.495,1334.9 702.697,1342.09 707.105,1348.85 C 711.512,1355.61 718.141,1360.93 726.99,1364.8 C 735.841,1368.67 747.969,1370.6 763.378,1370.6 C 782.287,1370.6 796.705,1367.09 806.628,1360.06 C 816.556,1353.02 822.459,1341.84 824.343,1326.5 L 781.245,1323.97 C 780.102,1330.64 777.696,1335.48 774.027,1338.5 C 770.36,1341.53 765.296,1343.05 758.836,1343.05 C 753.519,1343.05 749.513,1341.92 746.823,1339.67 C 744.13,1337.41 742.786,1334.67 742.786,1331.44 C 742.786,1329.08 743.895,1326.96 746.117,1325.08 C 748.27,1323.13 753.386,1321.31 761.46,1319.63 C 781.446,1315.32 795.761,1310.96 804.409,1306.56 C 813.056,1302.15 819.347,1296.68 823.283,1290.16 C 827.219,1283.63 829.189,1276.33 829.189,1268.25 C 829.189,1258.77 826.565,1250.02 821.316,1242.01 C 816.068,1234 808.732,1227.93 799.312,1223.79 C 789.89,1219.65 778.015,1217.58 763.682,1217.58 C 738.514,1217.58 721.084,1222.43 711.397,1232.12 C 701.704,1241.81 696.22,1254.12 694.943,1269.06 Z M 947.388,1220.11 L 837.255,1220.11 C 838.519,1232.29 842.349,1243.74 848.748,1254.48 C 855.147,1265.21 867.149,1277.88 884.753,1292.48 C 895.51,1301.43 902.388,1308.23 905.392,1312.87 C 908.394,1317.51 909.897,1321.92 909.897,1326.09 C 909.897,1330.6 908.409,1334.45 905.436,1337.65 C 902.463,1340.84 898.722,1342.44 894.215,1342.44 C 889.529,1342.44 885.699,1340.79 882.725,1337.5 C 879.752,1334.2 877.755,1328.38 876.731,1320.04 L 839.96,1323.37 C 841.401,1334.94 844.046,1343.97 847.892,1350.46 C 851.737,1356.96 857.159,1361.94 864.16,1365.4 C 871.159,1368.87 880.847,1370.6 893.223,1370.6 C 906.141,1370.6 916.19,1368.95 923.371,1365.66 C 930.551,1362.36 936.199,1357.3 940.316,1350.46 C 944.43,1343.64 946.489,1335.98 946.489,1327.5 C 946.489,1318.49 944.13,1309.87 939.413,1301.66 C 934.697,1293.45 926.119,1284.44 913.683,1274.61 C 906.292,1268.89 901.352,1264.89 898.858,1262.6 C 896.366,1260.31 893.436,1257.32 890.07,1253.62 L 947.388,1253.62 L 947.388,1220.11 Z M 954.359,1294.7 C 954.359,1322.83 958.882,1342.51 967.923,1353.75 C 976.965,1364.98 990.739,1370.6 1009.25,1370.6 C 1018.14,1370.6 1025.44,1369.37 1031.15,1366.92 C 1036.86,1364.46 1041.51,1361.27 1045.12,1357.33 C 1048.72,1353.39 1051.56,1349.25 1053.63,1344.92 C 1055.71,1340.57 1057.37,1335.51 1058.64,1329.72 C 1061.1,1318.69 1062.33,1307.18 1062.33,1295.2 C 1062.33,1268.36 1058.27,1248.7 1050.16,1236.26 C 1042.05,1223.81 1028.08,1217.58 1008.26,1217.58 C 997.137,1217.58 988.155,1219.57 981.307,1223.54 C 974.458,1227.51 968.841,1233.33 964.455,1241 C 961.271,1246.45 958.791,1253.9 957.018,1263.36 C 955.247,1272.81 954.359,1283.26 954.359,1294.7 Z M 990.769,1294.6 C 990.772,1275.75 992.26,1262.89 995.23,1255.99 C 998.206,1249.09 1002.52,1245.65 1008.16,1245.65 C 1011.89,1245.65 1015.12,1247.11 1017.85,1250.04 C 1020.59,1252.96 1022.6,1257.59 1023.89,1263.91 C 1025.18,1270.24 1025.83,1280.1 1025.83,1293.49 C 1025.83,1313.14 1024.34,1326.34 1021.37,1333.1 C 1018.39,1339.87 1013.93,1343.25 1007.98,1343.25 C 1001.92,1343.25 997.529,1339.8 994.825,1332.9 C 992.123,1326.01 990.772,1313.24 990.769,1294.6 Z" stroke-width="5.169" stroke-linecap="round" fill-rule="nonzero" fill="#ffffff" stroke-linejoin="round" marker-start="none" marker-end="none"/>
  </g>
 </g>
</svg>
