<?xml version="1.0" standalone="no"?>
<!DOCTYPE svg PUBLIC "-//W3C//DTD SVG 1.1//EN" "http://www.w3.org/Graphics/SVG/1.1/DTD/svg11.dtd">
<!--Generator: Xara Designer (www.xara.com), SVG filter version: 6.3.0.31-->
<svg fill="none" fill-rule="evenodd" stroke="black" stroke-width="0.501" stroke-linejoin="bevel" stroke-miterlimit="10" font-family="Times New Roman" font-size="16" style="font-variant-ligatures:none" xmlns:xlink="http://www.w3.org/1999/xlink" xmlns="http://www.w3.org/2000/svg" version="1.1" overflow="visible" width="474.003pt" height="249.007pt" viewBox="639.384 -1439.56 474.003 249.007">
 <defs>
	</defs>
 <g id="Layer 1" transform="scale(1 -1)">
  <g id="Group" stroke="none">
   <path d="M 639.384,1439.56 L 639.384,1190.56 L 1113.39,1190.56 L 1113.39,1439.56 L 639.384,1439.56 Z" stroke-width="0.597" stroke-linejoin="miter" marker-start="none" marker-end="none"/>
   <path d="M 747.83,1190.56 L 747.83,1190.75 C 687.968,1190.75 639.385,1236.08 639.385,1291.93 C 639.385,1347.79 687.968,1393.11 747.83,1393.11 C 748.549,1393.11 749.27,1393.11 749.989,1393.09 L 1002.78,1393.09 C 1003.5,1393.11 1004.22,1393.11 1004.94,1393.11 C 1064.8,1393.11 1113.39,1347.79 1113.39,1291.93 C 1113.39,1236.08 1064.8,1190.75 1004.94,1190.75 L 1004.94,1190.56 L 747.83,1190.56 Z" fill="#ea516d" stroke-width="0.484" stroke-linecap="round" stroke-linejoin="miter" marker-start="none" marker-end="none"/>
   <path d="M 692.693,1266.8 L 736.195,1269.53 C 737.14,1262.46 739.058,1257.08 741.949,1253.38 C 746.66,1247.39 753.39,1244.39 762.139,1244.39 C 768.667,1244.39 773.695,1245.93 777.226,1248.99 C 780.758,1252.05 782.526,1255.6 782.526,1259.64 C 782.526,1263.47 780.844,1266.9 777.479,1269.93 C 774.117,1272.96 766.31,1275.82 754.062,1278.51 C 734.01,1283.02 719.712,1289.01 711.165,1296.48 C 702.552,1303.95 698.245,1313.47 698.245,1325.04 C 698.245,1332.65 700.447,1339.83 704.855,1346.59 C 709.262,1353.36 715.891,1358.67 724.74,1362.54 C 733.591,1366.41 745.719,1368.35 761.128,1368.35 C 780.037,1368.35 794.455,1364.83 804.378,1357.8 C 814.306,1350.77 820.209,1339.58 822.093,1324.24 L 778.995,1321.71 C 777.852,1328.38 775.446,1333.22 771.777,1336.25 C 768.11,1339.28 763.046,1340.79 756.586,1340.79 C 751.269,1340.79 747.263,1339.66 744.573,1337.41 C 741.88,1335.16 740.536,1332.41 740.536,1329.18 C 740.536,1326.83 741.645,1324.71 743.867,1322.82 C 746.02,1320.87 751.136,1319.05 759.21,1317.37 C 779.196,1313.07 793.511,1308.71 802.159,1304.3 C 810.806,1299.89 817.097,1294.43 821.033,1287.9 C 824.969,1281.37 826.939,1274.07 826.939,1266 C 826.939,1256.51 824.315,1247.76 819.066,1239.75 C 813.818,1231.74 806.482,1225.67 797.062,1221.53 C 787.64,1217.4 775.765,1215.33 761.432,1215.33 C 736.264,1215.33 718.834,1220.17 709.147,1229.86 C 699.454,1239.55 693.97,1251.87 692.693,1266.8 Z M 945.138,1217.85 L 835.005,1217.85 C 836.269,1230.03 840.099,1241.48 846.498,1252.22 C 852.897,1262.95 864.899,1275.62 882.503,1290.22 C 893.26,1299.17 900.138,1305.97 903.142,1310.61 C 906.144,1315.25 907.647,1319.66 907.647,1323.83 C 907.647,1328.34 906.159,1332.19 903.186,1335.39 C 900.213,1338.58 896.472,1340.18 891.965,1340.18 C 887.279,1340.18 883.449,1338.54 880.475,1335.24 C 877.502,1331.94 875.505,1326.12 874.481,1317.78 L 837.71,1321.11 C 839.151,1332.68 841.796,1341.72 845.642,1348.21 C 849.487,1354.7 854.909,1359.68 861.91,1363.15 C 868.909,1366.61 878.597,1368.35 890.973,1368.35 C 903.891,1368.35 913.94,1366.69 921.121,1363.4 C 928.301,1360.1 933.949,1355.04 938.066,1348.21 C 942.18,1341.38 944.239,1333.73 944.239,1325.24 C 944.239,1316.23 941.88,1307.62 937.163,1299.4 C 932.447,1291.2 923.869,1282.18 911.433,1272.35 C 904.042,1266.63 899.102,1262.63 896.608,1260.34 C 894.116,1258.06 891.186,1255.06 887.82,1251.36 L 945.138,1251.36 L 945.138,1217.85 Z M 952.109,1292.44 C 952.109,1320.57 956.632,1340.25 965.673,1351.49 C 974.715,1362.73 988.489,1368.35 1007,1368.35 C 1015.89,1368.35 1023.19,1367.12 1028.9,1364.66 C 1034.61,1362.2 1039.26,1359.01 1042.87,1355.07 C 1046.47,1351.14 1049.31,1347 1051.38,1342.66 C 1053.46,1338.32 1055.12,1333.26 1056.39,1327.47 C 1058.85,1316.43 1060.08,1304.92 1060.08,1292.94 C 1060.08,1266.1 1056.02,1246.45 1047.91,1234 C 1039.8,1221.55 1025.83,1215.33 1006.01,1215.33 C 994.887,1215.33 985.905,1217.31 979.057,1221.28 C 972.208,1225.25 966.591,1231.07 962.205,1238.74 C 959.021,1244.19 956.541,1251.64 954.768,1261.1 C 952.997,1270.55 952.109,1281 952.109,1292.44 Z M 988.519,1292.34 C 988.522,1273.5 990.01,1260.63 992.98,1253.73 C 995.956,1246.84 1000.27,1243.39 1005.91,1243.39 C 1009.64,1243.39 1012.87,1244.85 1015.6,1247.78 C 1018.34,1250.7 1020.35,1255.33 1021.64,1261.66 C 1022.93,1267.98 1023.58,1277.84 1023.58,1291.23 C 1023.58,1310.88 1022.09,1324.08 1019.12,1330.85 C 1016.14,1337.61 1011.68,1340.99 1005.73,1340.99 C 999.666,1340.99 995.279,1337.54 992.575,1330.65 C 989.873,1323.75 988.522,1310.98 988.519,1292.34 Z" stroke-width="5.169" stroke-linecap="round" fill-rule="nonzero" fill="#ffffff" stroke-linejoin="round" marker-start="none" marker-end="none"/>
  </g>
 </g>
</svg>
