<?xml version="1.0" standalone="no"?>
<!DOCTYPE svg PUBLIC "-//W3C//DTD SVG 1.1//EN" "http://www.w3.org/Graphics/SVG/1.1/DTD/svg11.dtd">
<!--Generator: Xara Designer (www.xara.com), SVG filter version: 6.3.0.31-->
<svg fill="none" fill-rule="evenodd" stroke="black" stroke-width="0.501" stroke-linejoin="bevel" stroke-miterlimit="10" font-family="Times New Roman" font-size="16" style="font-variant-ligatures:none" xmlns:xlink="http://www.w3.org/1999/xlink" xmlns="http://www.w3.org/2000/svg" version="1.1" overflow="visible" width="476.838pt" height="249.007pt" viewBox="1630.88 -1713.8 476.838 249.007">
 <defs>
	</defs>
 <g id="Layer 1" transform="scale(1 -1)">
  <g id="Group" stroke="none">
   <path d="M 1630.88,1713.8 L 1630.88,1464.79 L 2107.72,1464.79 L 2107.72,1713.8 L 1630.88,1713.8 Z" stroke-width="0.597" stroke-linejoin="miter" marker-start="none" marker-end="none"/>
   <path d="M 1740.45,1465.92 L 1740.45,1466.11 C 1680.59,1466.11 1632.01,1511.44 1632.01,1567.29 C 1632.01,1623.14 1680.59,1668.47 1740.45,1668.47 C 1741.17,1668.47 1741.9,1668.47 1742.61,1668.45 L 1995.41,1668.45 C 1996.13,1668.47 1996.85,1668.47 1997.57,1668.47 C 2057.43,1668.47 2106.01,1623.14 2106.01,1567.29 C 2106.01,1511.44 2057.43,1466.11 1997.57,1466.11 L 1997.57,1465.92 L 1740.45,1465.92 Z" fill="#951b81" stroke-width="0.484" stroke-linecap="round" stroke-linejoin="miter" marker-start="none" marker-end="none"/>
   <path d="M 1737.54,1544.55 L 1781.05,1547.28 C 1781.99,1540.21 1783.91,1534.83 1786.8,1531.13 C 1791.51,1525.14 1798.24,1522.15 1806.99,1522.15 C 1813.52,1522.15 1818.54,1523.68 1822.08,1526.74 C 1825.61,1529.8 1827.38,1533.35 1827.38,1537.39 C 1827.38,1541.22 1825.69,1544.66 1822.33,1547.68 C 1818.97,1550.71 1811.16,1553.57 1798.91,1556.26 C 1778.86,1560.77 1764.56,1566.76 1756.02,1574.23 C 1747.4,1581.7 1743.1,1591.22 1743.1,1602.79 C 1743.1,1610.4 1745.3,1617.58 1749.7,1624.35 C 1754.11,1631.11 1760.74,1636.42 1769.59,1640.29 C 1778.44,1644.16 1790.57,1646.1 1805.98,1646.1 C 1824.89,1646.1 1839.31,1642.58 1849.23,1635.55 C 1859.16,1628.52 1865.06,1617.33 1866.94,1601.99 L 1823.84,1599.46 C 1822.7,1606.13 1820.3,1610.97 1816.63,1614 C 1812.96,1617.03 1807.9,1618.54 1801.44,1618.54 C 1796.12,1618.54 1792.11,1617.41 1789.42,1615.16 C 1786.73,1612.91 1785.39,1610.16 1785.39,1606.93 C 1785.39,1604.58 1786.49,1602.46 1788.72,1600.58 C 1790.87,1598.62 1795.99,1596.81 1804.06,1595.12 C 1824.05,1590.82 1838.36,1586.46 1847.01,1582.05 C 1855.66,1577.64 1861.95,1572.18 1865.88,1565.65 C 1869.82,1559.12 1871.79,1551.82 1871.79,1543.75 C 1871.79,1534.26 1869.17,1525.51 1863.92,1517.5 C 1858.67,1509.5 1851.33,1503.42 1841.91,1499.28 C 1832.49,1495.15 1820.61,1493.08 1806.28,1493.08 C 1781.11,1493.08 1763.68,1497.92 1754,1507.61 C 1744.3,1517.3 1738.82,1529.62 1737.54,1544.55 Z M 1924.11,1600.78 L 1885.25,1607.74 C 1888.48,1620.12 1894.69,1629.61 1903.87,1636.2 C 1913.06,1642.8 1926.06,1646.1 1942.88,1646.1 C 1962.2,1646.1 1976.16,1642.5 1984.77,1635.3 C 1993.39,1628.1 1997.69,1619.05 1997.69,1608.14 C 1997.69,1601.75 1995.94,1595.96 1992.44,1590.78 C 1988.94,1585.6 1983.66,1581.06 1976.6,1577.16 C 1982.32,1575.74 1986.69,1574.1 1989.72,1572.21 C 1994.63,1569.18 1998.45,1565.19 2001.18,1560.25 C 2003.9,1555.3 2005.26,1549.4 2005.26,1542.54 C 2005.26,1533.92 2003.01,1525.66 1998.5,1517.76 C 1993.99,1509.85 1987.5,1503.76 1979.02,1499.49 C 1970.54,1495.21 1959.4,1493.08 1945.61,1493.08 C 1932.15,1493.08 1921.53,1494.66 1913.76,1497.82 C 1905.99,1500.98 1899.6,1505.61 1894.59,1511.7 C 1889.57,1517.79 1885.72,1525.44 1883.03,1534.66 L 1924.11,1540.11 C 1925.72,1531.84 1928.23,1526.1 1931.63,1522.9 C 1935.03,1519.71 1939.35,1518.11 1944.6,1518.11 C 1950.12,1518.11 1954.71,1520.13 1958.38,1524.16 C 1962.05,1528.2 1963.88,1533.58 1963.88,1540.31 C 1963.88,1547.18 1962.11,1552.49 1958.58,1556.26 C 1955.05,1560.03 1950.25,1561.91 1944.19,1561.92 C 1940.97,1561.91 1936.52,1561.11 1930.87,1559.49 L 1932.99,1588.86 C 1935.28,1588.53 1937.06,1588.36 1938.34,1588.36 C 1943.73,1588.36 1948.22,1590.08 1951.82,1593.51 C 1955.42,1596.94 1957.22,1601.01 1957.22,1605.72 C 1957.22,1610.23 1955.87,1613.83 1953.18,1616.52 C 1950.49,1619.21 1946.79,1620.56 1942.08,1620.56 C 1937.23,1620.56 1933.29,1619.1 1930.27,1616.17 C 1927.24,1613.24 1925.19,1608.11 1924.11,1600.78 Z" stroke-width="5.169" stroke-linecap="round" fill-rule="nonzero" fill="#ffffff" stroke-linejoin="round" marker-start="none" marker-end="none"/>
  </g>
 </g>
</svg>
