<?xml version="1.0" standalone="no"?>
<!DOCTYPE svg PUBLIC "-//W3C//DTD SVG 1.1//EN" "http://www.w3.org/Graphics/SVG/1.1/DTD/svg11.dtd">
<!--Generator: Xara Designer (www.xara.com), SVG filter version: 6.3.0.31-->
<svg fill="none" fill-rule="evenodd" stroke="black" stroke-width="0.501" stroke-linejoin="bevel" stroke-miterlimit="10" font-family="Times New Roman" font-size="16" style="font-variant-ligatures:none" xmlns:xlink="http://www.w3.org/1999/xlink" xmlns="http://www.w3.org/2000/svg" version="1.1" overflow="visible" width="474.003pt" height="249.007pt" viewBox="1630.88 -1713.79 474.003 249.007">
 <defs>
	</defs>
 <g id="Layer 1" transform="scale(1 -1)">
  <g id="Group" stroke="none">
   <path d="M 1630.88,1713.79 L 1630.88,1464.78 L 2104.89,1464.78 L 2104.89,1713.79 L 1630.88,1713.79 Z" stroke-width="0.597" stroke-linejoin="miter" marker-start="none" marker-end="none"/>
   <path d="M 1739.33,1464.78 L 1739.33,1464.98 C 1679.47,1464.98 1630.89,1510.31 1630.89,1566.16 C 1630.89,1622.01 1679.47,1667.34 1739.33,1667.34 C 1740.05,1667.34 1740.77,1667.33 1741.49,1667.32 L 1994.28,1667.32 C 1995,1667.33 1995.72,1667.34 1996.44,1667.34 C 2056.3,1667.34 2104.89,1622.01 2104.89,1566.16 C 2104.89,1510.31 2056.3,1464.98 1996.44,1464.98 L 1996.44,1464.78 L 1739.33,1464.78 Z" fill="#951b81" stroke-width="0.484" stroke-linecap="round" stroke-linejoin="miter" marker-start="none" marker-end="none"/>
   <path d="M 1734.03,1541.03 L 1777.53,1543.76 C 1778.47,1536.69 1780.39,1531.31 1783.28,1527.61 C 1787.99,1521.62 1794.72,1518.62 1803.47,1518.62 C 1810,1518.62 1815.03,1520.15 1818.56,1523.21 C 1822.09,1526.28 1823.86,1529.83 1823.86,1533.86 C 1823.86,1537.7 1822.18,1541.13 1818.81,1544.16 C 1815.45,1547.19 1807.64,1550.05 1795.4,1552.74 C 1775.34,1557.25 1761.05,1563.24 1752.5,1570.71 C 1743.89,1578.17 1739.58,1587.69 1739.58,1599.27 C 1739.58,1606.87 1741.78,1614.06 1746.19,1620.82 C 1750.6,1627.58 1757.23,1632.9 1766.07,1636.77 C 1774.93,1640.64 1787.05,1642.57 1802.46,1642.57 C 1821.37,1642.57 1835.79,1639.06 1845.71,1632.02 C 1855.64,1624.99 1861.54,1613.81 1863.43,1598.46 L 1820.33,1595.94 C 1819.19,1602.6 1816.78,1607.45 1813.11,1610.47 C 1809.44,1613.5 1804.38,1615.02 1797.92,1615.02 C 1792.6,1615.02 1788.6,1613.89 1785.91,1611.64 C 1783.21,1609.38 1781.87,1606.64 1781.87,1603.41 C 1781.87,1601.05 1782.98,1598.93 1785.2,1597.05 C 1787.35,1595.1 1792.47,1593.28 1800.54,1591.6 C 1820.53,1587.29 1834.85,1582.93 1843.49,1578.53 C 1852.14,1574.12 1858.43,1568.65 1862.37,1562.12 C 1866.3,1555.6 1868.27,1548.3 1868.27,1540.22 C 1868.27,1530.73 1865.65,1521.99 1860.4,1513.98 C 1855.15,1505.97 1847.82,1499.9 1838.4,1495.76 C 1828.97,1491.62 1817.1,1489.55 1802.77,1489.55 C 1777.6,1489.55 1760.17,1494.4 1750.48,1504.09 C 1740.79,1513.78 1735.3,1526.09 1734.03,1541.03 Z M 1920.59,1597.25 L 1881.73,1604.22 C 1884.96,1616.6 1891.17,1626.09 1900.36,1632.68 C 1909.54,1639.27 1922.55,1642.57 1939.37,1642.57 C 1958.68,1642.57 1972.64,1638.97 1981.26,1631.77 C 1989.87,1624.57 1994.18,1615.52 1994.18,1604.62 C 1994.18,1598.23 1992.43,1592.44 1988.93,1587.26 C 1985.43,1582.08 1980.15,1577.54 1973.08,1573.63 C 1978.8,1572.22 1983.17,1570.57 1986.2,1568.69 C 1991.11,1565.66 1994.93,1561.67 1997.66,1556.73 C 2000.38,1551.78 2001.75,1545.87 2001.75,1539.01 C 2001.75,1530.4 1999.49,1522.14 1994.98,1514.23 C 1990.48,1506.32 1983.98,1500.24 1975.5,1495.96 C 1967.02,1491.69 1955.89,1489.55 1942.09,1489.55 C 1928.63,1489.55 1918.02,1491.13 1910.25,1494.29 C 1902.47,1497.46 1896.08,1502.08 1891.07,1508.17 C 1886.06,1514.26 1882.2,1521.92 1879.51,1531.14 L 1920.59,1536.59 C 1922.21,1528.31 1924.71,1522.58 1928.11,1519.38 C 1931.51,1516.18 1935.83,1514.58 1941.08,1514.58 C 1946.6,1514.58 1951.19,1516.6 1954.86,1520.64 C 1958.53,1524.68 1960.36,1530.06 1960.36,1536.79 C 1960.36,1543.65 1958.6,1548.97 1955.06,1552.74 C 1951.53,1556.51 1946.74,1558.39 1940.68,1558.39 C 1937.45,1558.39 1933.01,1557.58 1927.36,1555.97 L 1929.48,1585.34 C 1931.77,1585 1933.55,1584.84 1934.83,1584.84 C 1940.21,1584.84 1944.7,1586.55 1948.3,1589.99 C 1951.9,1593.42 1953.7,1597.49 1953.7,1602.2 C 1953.7,1606.71 1952.35,1610.31 1949.66,1613 C 1946.97,1615.69 1943.27,1617.04 1938.56,1617.03 C 1933.71,1617.04 1929.78,1615.57 1926.75,1612.64 C 1923.72,1609.72 1921.67,1604.59 1920.59,1597.25 Z" stroke-width="5.169" stroke-linecap="round" fill-rule="nonzero" fill="#ffffff" stroke-linejoin="round" marker-start="none" marker-end="none"/>
  </g>
 </g>
</svg>
