<?xml version="1.0" standalone="no"?>
<!DOCTYPE svg PUBLIC "-//W3C//DTD SVG 1.1//EN" "http://www.w3.org/Graphics/SVG/1.1/DTD/svg11.dtd">
<!--Generator: Xara Designer (www.xara.com), SVG filter version: 6.3.0.31-->
<svg fill="none" fill-rule="evenodd" stroke="black" stroke-width="0.501" stroke-linejoin="bevel" stroke-miterlimit="10" font-family="Times New Roman" font-size="16" style="font-variant-ligatures:none" xmlns:xlink="http://www.w3.org/1999/xlink" xmlns="http://www.w3.org/2000/svg" version="1.1" overflow="visible" width="476.838pt" height="249.007pt" viewBox="2127.38 -1713.8 476.838 249.007">
 <defs>
	</defs>
 <g id="Layer 1" transform="scale(1 -1)">
  <g id="Group" stroke="none">
   <path d="M 2127.38,1713.8 L 2127.38,1464.79 L 2604.22,1464.79 L 2604.22,1713.8 L 2127.38,1713.8 Z" stroke-width="0.597" stroke-linejoin="miter" marker-start="none" marker-end="none"/>
   <path d="M 2237.63,1466.59 L 2237.63,1466.79 C 2177.77,1466.79 2129.18,1512.12 2129.18,1567.97 C 2129.18,1623.82 2177.77,1669.15 2237.63,1669.15 C 2238.35,1669.15 2239.07,1669.14 2239.79,1669.13 L 2492.58,1669.13 C 2493.3,1669.14 2494.02,1669.15 2494.74,1669.15 C 2554.6,1669.15 2603.19,1623.82 2603.19,1567.97 C 2603.19,1512.12 2554.6,1466.79 2494.74,1466.79 L 2494.74,1466.59 L 2237.63,1466.59 Z" fill="#e3051c" stroke-width="0.484" stroke-linecap="round" stroke-linejoin="miter" marker-start="none" marker-end="none"/>
   <path d="M 2231.32,1543.85 L 2274.82,1546.57 C 2275.77,1539.51 2277.68,1534.13 2280.58,1530.42 C 2285.29,1524.43 2292.02,1521.44 2300.76,1521.44 C 2307.29,1521.44 2312.32,1522.97 2315.85,1526.03 C 2319.38,1529.09 2321.15,1532.65 2321.15,1536.68 C 2321.15,1540.52 2319.47,1543.95 2316.11,1546.98 C 2312.74,1550.01 2304.94,1552.86 2292.69,1555.56 C 2272.64,1560.07 2258.34,1566.05 2249.79,1573.53 C 2241.18,1580.99 2236.87,1590.51 2236.87,1602.09 C 2236.87,1609.69 2239.07,1616.88 2243.48,1623.64 C 2247.89,1630.4 2254.52,1635.72 2263.37,1639.59 C 2272.22,1643.46 2284.34,1645.39 2299.75,1645.39 C 2318.66,1645.39 2333.08,1641.87 2343,1634.84 C 2352.93,1627.81 2358.84,1616.63 2360.72,1601.28 L 2317.62,1598.76 C 2316.48,1605.42 2314.07,1610.27 2310.4,1613.29 C 2306.74,1616.32 2301.67,1617.83 2295.21,1617.83 C 2289.89,1617.83 2285.89,1616.71 2283.2,1614.45 C 2280.51,1612.2 2279.16,1609.46 2279.16,1606.23 C 2279.16,1603.87 2280.27,1601.75 2282.49,1599.87 C 2284.65,1597.92 2289.76,1596.1 2297.84,1594.42 C 2317.82,1590.11 2332.14,1585.75 2340.78,1581.35 C 2349.43,1576.94 2355.72,1571.47 2359.66,1564.94 C 2363.6,1558.42 2365.57,1551.12 2365.57,1543.04 C 2365.57,1533.55 2362.94,1524.81 2357.69,1516.8 C 2352.44,1508.79 2345.11,1502.72 2335.69,1498.58 C 2326.26,1494.44 2314.39,1492.37 2300.06,1492.37 C 2274.89,1492.37 2257.46,1497.22 2247.77,1506.91 C 2238.08,1516.6 2232.6,1528.91 2231.32,1543.85 Z M 2448.67,1522.55 L 2373.78,1522.55 L 2373.78,1556.36 L 2448.67,1645.39 L 2484.5,1645.39 L 2484.5,1554.45 L 2503.08,1554.45 L 2503.08,1522.55 L 2484.5,1522.55 L 2484.5,1494.89 L 2448.67,1494.89 L 2448.67,1522.55 Z M 2448.67,1554.45 L 2448.67,1600.98 L 2409.1,1554.45 L 2448.67,1554.45 Z" stroke-width="5.169" stroke-linecap="round" fill-rule="nonzero" fill="#ffffff" stroke-linejoin="round" marker-start="none" marker-end="none"/>
  </g>
 </g>
</svg>
