<?xml version="1.0" standalone="no"?>
<!DOCTYPE svg PUBLIC "-//W3C//DTD SVG 1.1//EN" "http://www.w3.org/Graphics/SVG/1.1/DTD/svg11.dtd">
<!--Generator: Xara Designer (www.xara.com), SVG filter version: 6.3.0.31-->
<svg fill="none" fill-rule="evenodd" stroke="black" stroke-width="0.501" stroke-linejoin="bevel" stroke-miterlimit="10" font-family="Times New Roman" font-size="16" style="font-variant-ligatures:none" xmlns:xlink="http://www.w3.org/1999/xlink" xmlns="http://www.w3.org/2000/svg" version="1.1" overflow="visible" width="474.003pt" height="249.007pt" viewBox="2127.38 -1713.79 474.003 249.007">
 <defs>
	</defs>
 <g id="Layer 1" transform="scale(1 -1)">
  <g id="Group" stroke="none">
   <path d="M 2127.38,1713.79 L 2127.38,1464.78 L 2601.39,1464.78 L 2601.39,1713.79 L 2127.38,1713.79 Z" stroke-width="0.597" stroke-linejoin="miter" marker-start="none" marker-end="none"/>
   <path d="M 2235.83,1464.78 L 2235.83,1464.98 C 2175.97,1464.98 2127.39,1510.31 2127.39,1566.16 C 2127.39,1622.01 2175.97,1667.34 2235.83,1667.34 C 2236.55,1667.34 2237.27,1667.33 2237.99,1667.32 L 2490.78,1667.32 C 2491.5,1667.33 2492.22,1667.34 2492.94,1667.34 C 2552.8,1667.34 2601.39,1622.01 2601.39,1566.16 C 2601.39,1510.31 2552.8,1464.98 2492.94,1464.98 L 2492.94,1464.78 L 2235.83,1464.78 Z" fill="#e3051c" stroke-width="0.484" stroke-linecap="round" stroke-linejoin="miter" marker-start="none" marker-end="none"/>
   <path d="M 2228.51,1541.03 L 2272.01,1543.76 C 2272.95,1536.69 2274.87,1531.31 2277.76,1527.61 C 2282.47,1521.62 2289.2,1518.62 2297.95,1518.62 C 2304.48,1518.62 2309.51,1520.15 2313.04,1523.21 C 2316.57,1526.28 2318.34,1529.83 2318.34,1533.86 C 2318.34,1537.7 2316.66,1541.13 2313.29,1544.16 C 2309.93,1547.19 2302.13,1550.05 2289.88,1552.74 C 2269.83,1557.25 2255.53,1563.24 2246.98,1570.71 C 2238.37,1578.17 2234.06,1587.69 2234.06,1599.27 C 2234.06,1606.87 2236.26,1614.06 2240.67,1620.82 C 2245.08,1627.58 2251.71,1632.9 2260.55,1636.77 C 2269.41,1640.64 2281.53,1642.57 2296.94,1642.57 C 2315.85,1642.57 2330.27,1639.06 2340.19,1632.02 C 2350.12,1624.99 2356.02,1613.81 2357.91,1598.46 L 2314.81,1595.94 C 2313.67,1602.6 2311.26,1607.45 2307.59,1610.47 C 2303.93,1613.5 2298.86,1615.02 2292.4,1615.02 C 2287.08,1615.02 2283.08,1613.89 2280.39,1611.64 C 2277.7,1609.38 2276.35,1606.64 2276.35,1603.41 C 2276.35,1601.05 2277.46,1598.93 2279.68,1597.05 C 2281.84,1595.1 2286.95,1593.28 2295.03,1591.6 C 2315.01,1587.29 2329.33,1582.93 2337.97,1578.53 C 2346.62,1574.12 2352.91,1568.65 2356.85,1562.12 C 2360.78,1555.6 2362.75,1548.3 2362.75,1540.22 C 2362.75,1530.73 2360.13,1521.99 2354.88,1513.98 C 2349.63,1505.97 2342.3,1499.9 2332.88,1495.76 C 2323.45,1491.62 2311.58,1489.55 2297.25,1489.55 C 2272.08,1489.55 2254.65,1494.4 2244.96,1504.09 C 2235.27,1513.78 2229.78,1526.09 2228.51,1541.03 Z M 2445.86,1519.73 L 2370.97,1519.73 L 2370.97,1553.55 L 2445.86,1642.57 L 2481.69,1642.57 L 2481.69,1551.63 L 2500.26,1551.63 L 2500.26,1519.73 L 2481.69,1519.73 L 2481.69,1492.08 L 2445.86,1492.08 L 2445.86,1519.73 Z M 2445.86,1551.63 L 2445.86,1598.16 L 2406.29,1551.63 L 2445.86,1551.63 Z" stroke-width="5.169" stroke-linecap="round" fill-rule="nonzero" fill="#ffffff" stroke-linejoin="round" marker-start="none" marker-end="none"/>
  </g>
 </g>
</svg>
