<?xml version="1.0" standalone="no"?>
<!DOCTYPE svg PUBLIC "-//W3C//DTD SVG 1.1//EN" "http://www.w3.org/Graphics/SVG/1.1/DTD/svg11.dtd">
<!--Generator: Xara Designer (www.xara.com), SVG filter version: 6.3.0.31-->
<svg fill="none" fill-rule="evenodd" stroke="black" stroke-width="0.501" stroke-linejoin="bevel" stroke-miterlimit="10" font-family="Times New Roman" font-size="16" style="font-variant-ligatures:none" xmlns:xlink="http://www.w3.org/1999/xlink" xmlns="http://www.w3.org/2000/svg" version="1.1" overflow="visible" width="474.003pt" height="249.007pt" viewBox="1135.88 -1439.56 474.003 249.007">
 <defs>
	</defs>
 <g id="Layer 1" transform="scale(1 -1)">
  <g id="Group" stroke="none">
   <path d="M 1135.88,1439.56 L 1135.88,1190.56 L 1609.89,1190.56 L 1609.89,1439.56 L 1135.88,1439.56 Z" stroke-width="0.597" stroke-linejoin="miter" marker-start="none" marker-end="none"/>
   <path d="M 1244.33,1190.56 L 1244.33,1190.75 C 1184.47,1190.75 1135.89,1236.08 1135.89,1291.93 C 1135.89,1347.79 1184.47,1393.11 1244.33,1393.11 C 1245.05,1393.11 1245.77,1393.11 1246.49,1393.09 L 1499.28,1393.09 C 1500,1393.11 1500.72,1393.11 1501.44,1393.11 C 1561.3,1393.11 1609.89,1347.79 1609.89,1291.93 C 1609.89,1236.08 1561.3,1190.75 1501.44,1190.75 L 1501.44,1190.56 L 1244.33,1190.56 Z" fill="#00975e" stroke-width="0.484" stroke-linecap="round" stroke-linejoin="miter" marker-start="none" marker-end="none"/>
   <path d="M 1238.47,1266.8 L 1281.97,1269.53 C 1282.92,1262.46 1284.84,1257.08 1287.73,1253.38 C 1292.44,1247.39 1299.17,1244.4 1307.92,1244.4 C 1314.45,1244.4 1319.47,1245.93 1323.01,1248.99 C 1326.54,1252.05 1328.31,1255.6 1328.31,1259.64 C 1328.31,1263.47 1326.62,1266.91 1323.26,1269.93 C 1319.9,1272.96 1312.09,1275.82 1299.84,1278.51 C 1279.79,1283.02 1265.49,1289.01 1256.94,1296.48 C 1248.33,1303.95 1244.02,1313.47 1244.02,1325.04 C 1244.02,1332.65 1246.23,1339.83 1250.63,1346.6 C 1255.04,1353.36 1261.67,1358.67 1270.52,1362.54 C 1279.37,1366.41 1291.5,1368.35 1306.91,1368.35 C 1325.82,1368.35 1340.23,1364.83 1350.16,1357.8 C 1360.09,1350.77 1365.99,1339.58 1367.87,1324.24 L 1324.77,1321.71 C 1323.63,1328.38 1321.23,1333.22 1317.56,1336.25 C 1313.89,1339.28 1308.83,1340.79 1302.37,1340.79 C 1297.05,1340.79 1293.04,1339.66 1290.35,1337.41 C 1287.66,1335.16 1286.32,1332.41 1286.32,1329.18 C 1286.32,1326.83 1287.42,1324.71 1289.65,1322.83 C 1291.8,1320.87 1296.92,1319.06 1304.99,1317.37 C 1324.97,1313.07 1339.29,1308.71 1347.94,1304.3 C 1356.59,1299.89 1362.88,1294.43 1366.81,1287.9 C 1370.75,1281.37 1372.72,1274.07 1372.72,1266 C 1372.72,1256.51 1370.09,1247.76 1364.85,1239.75 C 1359.6,1231.75 1352.26,1225.67 1342.84,1221.53 C 1333.42,1217.4 1321.54,1215.33 1307.21,1215.33 C 1282.04,1215.33 1264.61,1220.17 1254.93,1229.86 C 1245.23,1239.55 1239.75,1251.87 1238.47,1266.8 Z M 1504.17,1332.52 L 1463.29,1327.47 C 1462.22,1333.19 1460.42,1337.22 1457.89,1339.58 C 1455.37,1341.93 1452.26,1343.11 1448.56,1343.11 C 1441.89,1343.11 1436.71,1339.75 1433.01,1333.02 C 1430.32,1328.17 1428.34,1317.81 1427.06,1301.93 C 1431.97,1306.91 1437.01,1310.59 1442.2,1312.98 C 1447.38,1315.37 1453.37,1316.57 1460.16,1316.57 C 1473.35,1316.57 1484.51,1311.85 1493.63,1302.43 C 1502.74,1293.01 1507.3,1281.07 1507.3,1266.6 C 1507.3,1256.84 1505,1247.93 1500.39,1239.85 C 1495.78,1231.78 1489.39,1225.67 1481.21,1221.53 C 1473.03,1217.4 1462.79,1215.33 1450.47,1215.33 C 1435.67,1215.33 1423.8,1217.85 1414.84,1222.9 C 1405.89,1227.94 1398.74,1236 1393.39,1247.07 C 1388.04,1258.14 1385.37,1272.79 1385.37,1291.03 C 1385.37,1317.74 1390.99,1337.31 1402.23,1349.72 C 1413.46,1362.14 1429.04,1368.35 1448.96,1368.35 C 1460.74,1368.35 1470.04,1366.98 1476.87,1364.26 C 1483.7,1361.53 1489.37,1357.55 1493.88,1352.3 C 1498.38,1347.05 1501.82,1340.46 1504.17,1332.52 Z M 1428.47,1266.6 C 1428.47,1258.59 1430.49,1252.32 1434.53,1247.78 C 1438.56,1243.24 1443.51,1240.96 1449.37,1240.96 C 1454.75,1240.96 1459.26,1243.01 1462.89,1247.12 C 1466.52,1251.23 1468.34,1257.35 1468.34,1265.49 C 1468.34,1273.84 1466.45,1280.19 1462.69,1284.57 C 1458.92,1288.94 1454.24,1291.13 1448.66,1291.13 C 1442.94,1291.13 1438.15,1289.01 1434.28,1284.77 C 1430.4,1280.53 1428.47,1274.48 1428.47,1266.6 Z" stroke-width="5.169" stroke-linecap="round" fill-rule="nonzero" fill="#ffffff" stroke-linejoin="round" marker-start="none" marker-end="none"/>
  </g>
 </g>
</svg>
