<?xml version="1.0" standalone="no"?>
<!DOCTYPE svg PUBLIC "-//W3C//DTD SVG 1.1//EN" "http://www.w3.org/Graphics/SVG/1.1/DTD/svg11.dtd">
<!--Generator: Xara Designer (www.xara.com), SVG filter version: 6.3.0.31-->
<svg fill="none" fill-rule="evenodd" stroke="black" stroke-width="0.501" stroke-linejoin="bevel" stroke-miterlimit="10" font-family="Times New Roman" font-size="16" style="font-variant-ligatures:none" xmlns:xlink="http://www.w3.org/1999/xlink" xmlns="http://www.w3.org/2000/svg" version="1.1" overflow="visible" width="476.838pt" height="249.007pt" viewBox="1135.88 -1439.57 476.838 249.007">
 <defs>
	</defs>
 <g id="Layer 1" transform="scale(1 -1)">
  <g id="Group" stroke="none">
   <path d="M 1135.88,1439.57 L 1135.88,1190.56 L 1612.72,1190.56 L 1612.72,1439.57 L 1135.88,1439.57 Z" stroke-width="0.597" stroke-linejoin="miter" marker-start="none" marker-end="none"/>
   <path d="M 1246.13,1192.36 L 1246.13,1192.56 C 1186.27,1192.56 1137.68,1237.89 1137.68,1293.74 C 1137.68,1349.59 1186.27,1394.92 1246.13,1394.92 C 1246.85,1394.92 1247.57,1394.92 1248.29,1394.9 L 1501.08,1394.9 C 1501.8,1394.92 1502.52,1394.92 1503.24,1394.92 C 1563.1,1394.92 1611.69,1349.59 1611.69,1293.74 C 1611.69,1237.89 1563.1,1192.56 1503.24,1192.56 L 1503.24,1192.36 L 1246.13,1192.36 Z" fill="#00975e" stroke-width="0.484" stroke-linecap="round" stroke-linejoin="miter" marker-start="none" marker-end="none"/>
   <path d="M 1240.27,1268.61 L 1283.77,1271.34 C 1284.72,1264.27 1286.64,1258.89 1289.53,1255.19 C 1294.24,1249.2 1300.97,1246.2 1309.72,1246.2 C 1316.25,1246.2 1321.27,1247.73 1324.81,1250.8 C 1328.34,1253.86 1330.11,1257.41 1330.11,1261.45 C 1330.11,1265.28 1328.42,1268.71 1325.06,1271.74 C 1321.69,1274.77 1313.89,1277.63 1301.64,1280.32 C 1281.59,1284.83 1267.29,1290.82 1258.74,1298.29 C 1250.13,1305.76 1245.82,1315.28 1245.82,1326.85 C 1245.82,1334.45 1248.03,1341.64 1252.43,1348.4 C 1256.84,1355.16 1263.47,1360.48 1272.32,1364.35 C 1281.17,1368.22 1293.3,1370.15 1308.71,1370.15 C 1327.62,1370.15 1342.03,1366.64 1351.96,1359.61 C 1361.89,1352.57 1367.79,1341.39 1369.67,1326.05 L 1326.57,1323.52 C 1325.43,1330.18 1323.03,1335.03 1319.36,1338.06 C 1315.69,1341.08 1310.63,1342.6 1304.17,1342.6 C 1298.85,1342.6 1294.84,1341.47 1292.15,1339.22 C 1289.46,1336.96 1288.12,1334.22 1288.12,1330.99 C 1288.12,1328.64 1289.22,1326.52 1291.45,1324.63 C 1293.6,1322.68 1298.71,1320.86 1306.79,1319.18 C 1326.77,1314.87 1341.09,1310.52 1349.74,1306.11 C 1358.39,1301.7 1364.68,1296.24 1368.61,1289.71 C 1372.55,1283.18 1374.52,1275.88 1374.52,1267.81 C 1374.52,1258.32 1371.89,1249.57 1366.65,1241.56 C 1361.4,1233.55 1354.06,1227.48 1344.64,1223.34 C 1335.22,1219.2 1323.34,1217.13 1309.01,1217.13 C 1283.84,1217.13 1266.41,1221.98 1256.73,1231.67 C 1247.03,1241.36 1241.55,1253.67 1240.27,1268.61 Z M 1505.97,1334.32 L 1465.09,1329.28 C 1464.02,1335 1462.22,1339.03 1459.69,1341.39 C 1457.17,1343.74 1454.06,1344.92 1450.36,1344.92 C 1443.69,1344.92 1438.51,1341.56 1434.81,1334.83 C 1432.12,1329.98 1430.14,1319.62 1428.86,1303.74 C 1433.77,1308.72 1438.81,1312.4 1444,1314.79 C 1449.18,1317.18 1455.17,1318.37 1461.96,1318.37 C 1475.15,1318.37 1486.31,1313.66 1495.43,1304.24 C 1504.54,1294.82 1509.1,1282.88 1509.1,1268.41 C 1509.1,1258.65 1506.8,1249.74 1502.19,1241.66 C 1497.58,1233.59 1491.18,1227.48 1483.01,1223.34 C 1474.83,1219.2 1464.59,1217.13 1452.27,1217.13 C 1437.47,1217.13 1425.6,1219.66 1416.64,1224.7 C 1407.69,1229.75 1400.54,1237.81 1395.19,1248.88 C 1389.84,1259.95 1387.17,1274.6 1387.17,1292.84 C 1387.17,1319.55 1392.79,1339.12 1404.03,1351.53 C 1415.27,1363.95 1430.84,1370.15 1450.76,1370.15 C 1462.54,1370.15 1471.84,1368.79 1478.67,1366.07 C 1485.5,1363.34 1491.17,1359.35 1495.68,1354.11 C 1500.18,1348.86 1503.62,1342.26 1505.97,1334.32 Z M 1430.27,1268.41 C 1430.27,1260.4 1432.29,1254.13 1436.33,1249.59 C 1440.36,1245.04 1445.31,1242.77 1451.17,1242.77 C 1456.55,1242.77 1461.06,1244.82 1464.69,1248.93 C 1468.32,1253.03 1470.14,1259.16 1470.14,1267.3 C 1470.14,1275.64 1468.25,1282 1464.49,1286.38 C 1460.72,1290.75 1456.04,1292.94 1450.46,1292.94 C 1444.74,1292.94 1439.94,1290.82 1436.08,1286.58 C 1432.2,1282.34 1430.27,1276.28 1430.27,1268.41 Z" stroke-width="5.169" stroke-linecap="round" fill-rule="nonzero" fill="#ffffff" stroke-linejoin="round" marker-start="none" marker-end="none"/>
  </g>
 </g>
</svg>
