<?xml version="1.0" standalone="no"?>
<!DOCTYPE svg PUBLIC "-//W3C//DTD SVG 1.1//EN" "http://www.w3.org/Graphics/SVG/1.1/DTD/svg11.dtd">
<!--Generator: Xara Designer (www.xara.com), SVG filter version: 6.3.0.31-->
<svg fill="none" fill-rule="evenodd" stroke="black" stroke-width="0.501" stroke-linejoin="bevel" stroke-miterlimit="10" font-family="Times New Roman" font-size="16" style="font-variant-ligatures:none" xmlns:xlink="http://www.w3.org/1999/xlink" xmlns="http://www.w3.org/2000/svg" version="1.1" overflow="visible" width="474.003pt" height="249.007pt" viewBox="1630.88 -1439.56 474.003 249.007">
 <defs>
	</defs>
 <g id="Layer 1" transform="scale(1 -1)">
  <g id="Group" stroke="none">
   <path d="M 1630.88,1439.56 L 1630.88,1190.56 L 2104.89,1190.56 L 2104.89,1439.56 L 1630.88,1439.56 Z" stroke-width="0.597" stroke-linejoin="miter" marker-start="none" marker-end="none"/>
   <path d="M 1739.33,1190.56 L 1739.33,1190.75 C 1679.47,1190.75 1630.89,1236.08 1630.89,1291.93 C 1630.89,1347.79 1679.47,1393.11 1739.33,1393.11 C 1740.05,1393.11 1740.77,1393.11 1741.49,1393.09 L 1994.28,1393.09 C 1995,1393.11 1995.72,1393.11 1996.44,1393.11 C 2056.3,1393.11 2104.89,1347.79 2104.89,1291.93 C 2104.89,1236.08 2056.3,1190.75 1996.44,1190.75 L 1996.44,1190.56 L 1739.33,1190.56 Z" fill="#892d23" stroke-width="0.484" stroke-linecap="round" stroke-linejoin="miter" marker-start="none" marker-end="none"/>
   <path d="M 1734.18,1266.8 L 1777.68,1269.53 C 1778.63,1262.46 1780.54,1257.08 1783.43,1253.38 C 1788.15,1247.39 1794.88,1244.4 1803.62,1244.4 C 1810.15,1244.4 1815.18,1245.93 1818.71,1248.99 C 1822.24,1252.05 1824.01,1255.6 1824.01,1259.64 C 1824.01,1263.47 1822.33,1266.91 1818.97,1269.93 C 1815.6,1272.96 1807.8,1275.82 1795.55,1278.51 C 1775.5,1283.02 1761.2,1289.01 1752.65,1296.48 C 1744.04,1303.95 1739.73,1313.47 1739.73,1325.04 C 1739.73,1332.65 1741.93,1339.83 1746.34,1346.6 C 1750.75,1353.36 1757.38,1358.67 1766.23,1362.54 C 1775.08,1366.41 1787.2,1368.35 1802.61,1368.35 C 1821.52,1368.35 1835.94,1364.83 1845.86,1357.8 C 1855.79,1350.77 1861.69,1339.58 1863.58,1324.24 L 1820.48,1321.71 C 1819.34,1328.38 1816.93,1333.22 1813.26,1336.25 C 1809.6,1339.28 1804.53,1340.79 1798.07,1340.79 C 1792.75,1340.79 1788.75,1339.66 1786.06,1337.41 C 1783.37,1335.16 1782.02,1332.41 1782.02,1329.18 C 1782.02,1326.83 1783.13,1324.71 1785.35,1322.83 C 1787.51,1320.87 1792.62,1319.06 1800.7,1317.37 C 1820.68,1313.07 1835,1308.71 1843.64,1304.3 C 1852.29,1299.89 1858.58,1294.43 1862.52,1287.9 C 1866.45,1281.37 1868.43,1274.07 1868.43,1266 C 1868.43,1256.51 1865.8,1247.76 1860.55,1239.75 C 1855.3,1231.75 1847.97,1225.67 1838.55,1221.53 C 1829.13,1217.4 1817.25,1215.33 1802.92,1215.33 C 1777.75,1215.33 1760.32,1220.17 1750.63,1229.86 C 1740.94,1239.55 1735.46,1251.87 1734.18,1266.8 Z M 1881.58,1365.82 L 2001.6,1365.82 L 2001.6,1338.07 C 1991.17,1328.65 1982.45,1318.45 1975.45,1307.48 C 1966.98,1294.16 1960.28,1279.32 1955.37,1262.97 C 1951.46,1250.25 1948.84,1235.21 1947.49,1217.85 L 1906.51,1217.85 C 1909.74,1242.01 1914.82,1262.26 1921.75,1278.61 C 1928.68,1294.97 1939.65,1312.46 1954.66,1331.1 L 1881.58,1331.1 L 1881.58,1365.82 Z" stroke-width="5.169" stroke-linecap="round" fill-rule="nonzero" fill="#ffffff" stroke-linejoin="round" marker-start="none" marker-end="none"/>
  </g>
 </g>
</svg>
