<?xml version="1.0" standalone="no"?>
<!DOCTYPE svg PUBLIC "-//W3C//DTD SVG 1.1//EN" "http://www.w3.org/Graphics/SVG/1.1/DTD/svg11.dtd">
<!--Generator: Xara Designer (www.xara.com), SVG filter version: 6.3.0.31-->
<svg fill="none" fill-rule="evenodd" stroke="black" stroke-width="0.501" stroke-linejoin="bevel" stroke-miterlimit="10" font-family="Times New Roman" font-size="16" style="font-variant-ligatures:none" xmlns:xlink="http://www.w3.org/1999/xlink" xmlns="http://www.w3.org/2000/svg" version="1.1" overflow="visible" width="476.838pt" height="249.007pt" viewBox="1630.88 -1439.57 476.838 249.007">
 <defs>
	</defs>
 <g id="Layer 1" transform="scale(1 -1)">
  <g id="Group" stroke="none">
   <path d="M 1630.88,1439.57 L 1630.88,1190.56 L 2107.72,1190.56 L 2107.72,1439.57 L 1630.88,1439.57 Z" stroke-width="0.597" stroke-linejoin="miter" marker-start="none" marker-end="none"/>
   <path d="M 1741.13,1192.36 L 1741.13,1192.56 C 1681.27,1192.56 1632.68,1237.89 1632.68,1293.74 C 1632.68,1349.59 1681.27,1394.92 1741.13,1394.92 C 1741.85,1394.92 1742.57,1394.92 1743.29,1394.9 L 1996.08,1394.9 C 1996.8,1394.92 1997.52,1394.92 1998.24,1394.92 C 2058.1,1394.92 2106.69,1349.59 2106.69,1293.74 C 2106.69,1237.89 2058.1,1192.56 1998.24,1192.56 L 1998.24,1192.36 L 1741.13,1192.36 Z" fill="#892d23" stroke-width="0.484" stroke-linecap="round" stroke-linejoin="miter" marker-start="none" marker-end="none"/>
   <path d="M 1735.98,1268.61 L 1779.48,1271.34 C 1780.43,1264.27 1782.34,1258.89 1785.24,1255.19 C 1789.95,1249.2 1796.68,1246.2 1805.42,1246.2 C 1811.95,1246.2 1816.98,1247.73 1820.51,1250.8 C 1824.04,1253.86 1825.81,1257.41 1825.81,1261.45 C 1825.81,1265.28 1824.13,1268.71 1820.77,1271.74 C 1817.4,1274.77 1809.6,1277.63 1797.35,1280.32 C 1777.3,1284.83 1763,1290.82 1754.45,1298.29 C 1745.84,1305.76 1741.53,1315.28 1741.53,1326.85 C 1741.53,1334.45 1743.73,1341.64 1748.14,1348.4 C 1752.55,1355.16 1759.18,1360.48 1768.03,1364.35 C 1776.88,1368.22 1789,1370.15 1804.41,1370.15 C 1823.32,1370.15 1837.74,1366.64 1847.66,1359.61 C 1857.59,1352.57 1863.5,1341.39 1865.38,1326.05 L 1822.28,1323.52 C 1821.14,1330.18 1818.73,1335.03 1815.06,1338.06 C 1811.4,1341.08 1806.33,1342.6 1799.87,1342.6 C 1794.55,1342.6 1790.55,1341.47 1787.86,1339.22 C 1785.17,1336.96 1783.82,1334.22 1783.82,1330.99 C 1783.82,1328.64 1784.93,1326.52 1787.15,1324.63 C 1789.31,1322.68 1794.42,1320.86 1802.5,1319.18 C 1822.48,1314.87 1836.8,1310.52 1845.44,1306.11 C 1854.09,1301.7 1860.38,1296.24 1864.32,1289.71 C 1868.26,1283.18 1870.23,1275.88 1870.23,1267.81 C 1870.23,1258.32 1867.6,1249.57 1862.35,1241.56 C 1857.1,1233.55 1849.77,1227.48 1840.35,1223.34 C 1830.93,1219.2 1819.05,1217.13 1804.72,1217.13 C 1779.55,1217.13 1762.12,1221.98 1752.43,1231.67 C 1742.74,1241.36 1737.26,1253.67 1735.98,1268.61 Z M 1883.38,1367.63 L 2003.4,1367.63 L 2003.4,1339.87 C 1992.97,1330.45 1984.25,1320.26 1977.25,1309.29 C 1968.78,1295.96 1962.08,1281.13 1957.17,1264.78 C 1953.26,1252.06 1950.64,1237.02 1949.29,1219.66 L 1908.31,1219.66 C 1911.54,1243.81 1916.62,1264.07 1923.55,1280.42 C 1930.48,1296.78 1941.45,1314.27 1956.46,1332.91 L 1883.38,1332.91 L 1883.38,1367.63 Z" stroke-width="5.169" stroke-linecap="round" fill-rule="nonzero" fill="#ffffff" stroke-linejoin="round" marker-start="none" marker-end="none"/>
  </g>
 </g>
</svg>
