<?xml version="1.0" standalone="no"?>
<!DOCTYPE svg PUBLIC "-//W3C//DTD SVG 1.1//EN" "http://www.w3.org/Graphics/SVG/1.1/DTD/svg11.dtd">
<!--Generator: Xara Designer (www.xara.com), SVG filter version: 6.3.0.31-->
<svg fill="none" fill-rule="evenodd" stroke="black" stroke-width="0.501" stroke-linejoin="bevel" stroke-miterlimit="10" font-family="Times New Roman" font-size="16" style="font-variant-ligatures:none" xmlns:xlink="http://www.w3.org/1999/xlink" xmlns="http://www.w3.org/2000/svg" version="1.1" overflow="visible" width="476.838pt" height="249.007pt" viewBox="2127.38 -1439.57 476.838 249.007">
 <defs>
	</defs>
 <g id="Layer 1" transform="scale(1 -1)">
  <g id="Group" stroke="none">
   <path d="M 2127.38,1439.57 L 2127.38,1190.56 L 2604.22,1190.56 L 2604.22,1439.57 L 2127.38,1439.57 Z" stroke-width="0.597" stroke-linejoin="miter" marker-start="none" marker-end="none"/>
   <path d="M 2237.63,1192.36 L 2237.63,1192.56 C 2177.77,1192.56 2129.18,1237.89 2129.18,1293.74 C 2129.18,1349.59 2177.77,1394.92 2237.63,1394.92 C 2238.35,1394.92 2239.07,1394.92 2239.79,1394.9 L 2492.58,1394.9 C 2493.3,1394.92 2494.02,1394.92 2494.74,1394.92 C 2554.6,1394.92 2603.19,1349.59 2603.19,1293.74 C 2603.19,1237.89 2554.6,1192.56 2494.74,1192.56 L 2494.74,1192.36 L 2237.63,1192.36 Z" fill="#000000" stroke-width="0.484" stroke-linecap="round" stroke-linejoin="miter" marker-start="none" marker-end="none"/>
   <path d="M 2232.53,1268.61 L 2276.03,1271.34 C 2276.98,1264.27 2278.89,1258.89 2281.78,1255.19 C 2286.5,1249.2 2293.23,1246.2 2301.97,1246.2 C 2308.5,1246.2 2313.53,1247.73 2317.06,1250.8 C 2320.59,1253.86 2322.36,1257.41 2322.36,1261.45 C 2322.36,1265.28 2320.68,1268.71 2317.32,1271.74 C 2313.95,1274.77 2306.15,1277.63 2293.9,1280.32 C 2273.85,1284.83 2259.55,1290.82 2251,1298.29 C 2242.39,1305.76 2238.08,1315.28 2238.08,1326.85 C 2238.08,1334.45 2240.28,1341.64 2244.69,1348.4 C 2249.1,1355.16 2255.73,1360.48 2264.58,1364.35 C 2273.43,1368.22 2285.55,1370.15 2300.96,1370.15 C 2319.87,1370.15 2334.29,1366.64 2344.21,1359.61 C 2354.14,1352.57 2360.05,1341.39 2361.93,1326.05 L 2318.83,1323.52 C 2317.69,1330.18 2315.28,1335.03 2311.61,1338.06 C 2307.95,1341.08 2302.88,1342.6 2296.42,1342.6 C 2291.1,1342.6 2287.1,1341.47 2284.41,1339.22 C 2281.72,1336.96 2280.37,1334.22 2280.37,1330.99 C 2280.37,1328.64 2281.48,1326.52 2283.7,1324.63 C 2285.86,1322.68 2290.97,1320.86 2299.05,1319.18 C 2319.03,1314.87 2333.35,1310.52 2341.99,1306.11 C 2350.64,1301.7 2356.93,1296.24 2360.87,1289.71 C 2364.8,1283.18 2366.78,1275.88 2366.78,1267.81 C 2366.78,1258.32 2364.15,1249.57 2358.9,1241.56 C 2353.65,1233.55 2346.32,1227.48 2336.9,1223.34 C 2327.47,1219.2 2315.6,1217.13 2301.27,1217.13 C 2276.1,1217.13 2258.67,1221.98 2248.98,1231.67 C 2239.29,1241.36 2233.81,1253.67 2232.53,1268.61 Z M 2403.95,1299.19 C 2397.49,1302.63 2392.78,1306.46 2389.82,1310.7 C 2385.78,1316.49 2383.77,1323.15 2383.77,1330.69 C 2383.77,1343.07 2389.59,1353.2 2401.23,1361.07 C 2410.31,1367.13 2422.33,1370.15 2437.26,1370.15 C 2457.05,1370.15 2471.67,1366.38 2481.12,1358.85 C 2490.57,1351.31 2495.3,1341.82 2495.3,1330.38 C 2495.3,1323.72 2493.42,1317.5 2489.65,1311.71 C 2486.82,1307.41 2482.38,1303.23 2476.33,1299.19 C 2484.34,1295.36 2490.31,1290.28 2494.24,1283.95 C 2498.18,1277.63 2500.15,1270.63 2500.15,1262.96 C 2500.15,1255.56 2498.45,1248.64 2495.05,1242.21 C 2491.65,1235.79 2487.48,1230.83 2482.53,1227.33 C 2477.59,1223.83 2471.43,1221.26 2464.06,1219.61 C 2456.7,1217.96 2448.84,1217.13 2440.49,1217.13 C 2424.81,1217.13 2412.84,1218.99 2404.56,1222.69 C 2396.28,1226.39 2389.99,1231.84 2385.68,1239.04 C 2381.38,1246.24 2379.22,1254.28 2379.22,1263.16 C 2379.22,1271.84 2381.25,1279.19 2385.28,1285.22 C 2389.32,1291.24 2395.54,1295.9 2403.95,1299.19 Z M 2422.43,1328.27 C 2422.43,1323.15 2424.03,1319.03 2427.22,1315.9 C 2430.42,1312.77 2434.67,1311.21 2439.99,1311.21 C 2444.7,1311.21 2448.57,1312.76 2451.6,1315.85 C 2454.63,1318.94 2456.14,1322.95 2456.14,1327.86 C 2456.14,1332.98 2454.56,1337.13 2451.4,1340.33 C 2448.23,1343.53 2444.19,1345.12 2439.28,1345.12 C 2434.3,1345.12 2430.25,1343.56 2427.12,1340.43 C 2423.99,1337.3 2422.43,1333.24 2422.43,1328.27 Z M 2420.21,1264.58 C 2420.2,1258.05 2422.19,1252.71 2426.16,1248.58 C 2430.13,1244.43 2434.67,1242.37 2439.79,1242.37 C 2444.7,1242.37 2449.11,1244.47 2453.01,1248.68 C 2456.91,1252.88 2458.86,1258.22 2458.86,1264.68 C 2458.86,1271.2 2456.9,1276.55 2452.96,1280.73 C 2449.02,1284.9 2444.46,1286.98 2439.28,1286.98 C 2434.17,1286.98 2429.71,1284.96 2425.91,1280.93 C 2422.1,1276.89 2420.2,1271.44 2420.21,1264.58 Z" stroke-width="5.169" stroke-linecap="round" fill-rule="nonzero" fill="#f0a800" stroke-linejoin="round" marker-start="none" marker-end="none"/>
  </g>
 </g>
</svg>
