<?xml version="1.0" standalone="no"?>
<!DOCTYPE svg PUBLIC "-//W3C//DTD SVG 1.1//EN" "http://www.w3.org/Graphics/SVG/1.1/DTD/svg11.dtd">
<!--Generator: Xara Designer (www.xara.com), SVG filter version: 6.3.0.31-->
<svg fill="none" fill-rule="evenodd" stroke="black" stroke-width="0.501" stroke-linejoin="bevel" stroke-miterlimit="10" font-family="Times New Roman" font-size="16" style="font-variant-ligatures:none" xmlns:xlink="http://www.w3.org/1999/xlink" xmlns="http://www.w3.org/2000/svg" version="1.1" overflow="visible" width="474.003pt" height="249.007pt" viewBox="2127.38 -1439.56 474.003 249.007">
 <defs>
	</defs>
 <g id="Layer 1" transform="scale(1 -1)">
  <g id="Group" stroke="none">
   <path d="M 2127.38,1439.56 L 2127.38,1190.56 L 2601.39,1190.56 L 2601.39,1439.56 L 2127.38,1439.56 Z" stroke-width="0.597" stroke-linejoin="miter" marker-start="none" marker-end="none"/>
   <path d="M 2235.83,1190.56 L 2235.83,1190.75 C 2175.97,1190.75 2127.39,1236.08 2127.39,1291.93 C 2127.39,1347.79 2175.97,1393.11 2235.83,1393.11 C 2236.55,1393.11 2237.27,1393.11 2237.99,1393.09 L 2490.78,1393.09 C 2491.5,1393.11 2492.22,1393.11 2492.94,1393.11 C 2552.8,1393.11 2601.39,1347.79 2601.39,1291.93 C 2601.39,1236.08 2552.8,1190.75 2492.94,1190.75 L 2492.94,1190.56 L 2235.83,1190.56 Z" fill="#000000" stroke-width="0.484" stroke-linecap="round" stroke-linejoin="miter" marker-start="none" marker-end="none"/>
   <path d="M 2230.73,1266.8 L 2274.23,1269.53 C 2275.18,1262.46 2277.09,1257.08 2279.99,1253.38 C 2284.7,1247.39 2291.43,1244.4 2300.17,1244.4 C 2306.7,1244.4 2311.73,1245.93 2315.26,1248.99 C 2318.79,1252.05 2320.56,1255.6 2320.56,1259.64 C 2320.56,1263.47 2318.88,1266.91 2315.51,1269.93 C 2312.15,1272.96 2304.35,1275.82 2292.1,1278.51 C 2272.05,1283.02 2257.75,1289.01 2249.2,1296.48 C 2240.59,1303.95 2236.28,1313.47 2236.28,1325.04 C 2236.28,1332.65 2238.48,1339.83 2242.89,1346.6 C 2247.3,1353.36 2253.93,1358.67 2262.78,1362.54 C 2271.63,1366.41 2283.75,1368.35 2299.16,1368.35 C 2318.07,1368.35 2332.49,1364.83 2342.41,1357.8 C 2352.34,1350.77 2358.24,1339.58 2360.13,1324.24 L 2317.03,1321.71 C 2315.89,1328.38 2313.48,1333.22 2309.81,1336.25 C 2306.15,1339.28 2301.08,1340.79 2294.62,1340.79 C 2289.3,1340.79 2285.3,1339.66 2282.61,1337.41 C 2279.92,1335.16 2278.57,1332.41 2278.57,1329.18 C 2278.57,1326.83 2279.68,1324.71 2281.9,1322.83 C 2284.06,1320.87 2289.17,1319.06 2297.25,1317.37 C 2317.23,1313.07 2331.55,1308.71 2340.19,1304.3 C 2348.84,1299.89 2355.13,1294.43 2359.07,1287.9 C 2363.01,1281.37 2364.97,1274.07 2364.97,1266 C 2364.97,1256.51 2362.35,1247.76 2357.1,1239.75 C 2351.85,1231.75 2344.52,1225.67 2335.1,1221.53 C 2325.68,1217.4 2313.8,1215.33 2299.47,1215.33 C 2274.3,1215.33 2256.87,1220.17 2247.18,1229.86 C 2237.49,1239.55 2232.01,1251.87 2230.73,1266.8 Z M 2402.15,1297.39 C 2395.69,1300.82 2390.99,1304.65 2388.02,1308.89 C 2383.99,1314.68 2381.97,1321.34 2381.97,1328.88 C 2381.97,1341.26 2387.79,1351.39 2399.43,1359.26 C 2408.51,1365.32 2420.53,1368.35 2435.46,1368.35 C 2455.25,1368.35 2469.87,1364.58 2479.32,1357.04 C 2488.77,1349.5 2493.5,1340.01 2493.5,1328.58 C 2493.5,1321.92 2491.62,1315.69 2487.85,1309.91 C 2485.02,1305.6 2480.58,1301.42 2474.53,1297.39 C 2482.53,1293.55 2488.51,1288.47 2492.44,1282.15 C 2496.38,1275.82 2498.35,1268.82 2498.35,1261.15 C 2498.35,1253.75 2496.65,1246.84 2493.25,1240.41 C 2489.85,1233.98 2485.68,1229.02 2480.74,1225.52 C 2475.79,1222.02 2469.63,1219.45 2462.26,1217.8 C 2454.9,1216.15 2447.04,1215.33 2438.69,1215.33 C 2423.01,1215.33 2411.04,1217.18 2402.76,1220.88 C 2394.48,1224.58 2388.19,1230.03 2383.88,1237.23 C 2379.58,1244.43 2377.42,1252.47 2377.42,1261.35 C 2377.42,1270.03 2379.45,1277.38 2383.48,1283.41 C 2387.52,1289.43 2393.74,1294.09 2402.15,1297.39 Z M 2420.63,1326.46 C 2420.63,1321.34 2422.22,1317.22 2425.42,1314.09 C 2428.62,1310.96 2432.87,1309.4 2438.19,1309.4 C 2442.9,1309.4 2446.77,1310.95 2449.8,1314.04 C 2452.83,1317.14 2454.34,1321.14 2454.34,1326.06 C 2454.34,1331.17 2452.76,1335.32 2449.6,1338.52 C 2446.43,1341.72 2442.39,1343.31 2437.48,1343.31 C 2432.5,1343.31 2428.45,1341.75 2425.32,1338.62 C 2422.19,1335.49 2420.63,1331.43 2420.63,1326.46 Z M 2418.41,1262.77 C 2418.4,1256.24 2420.39,1250.9 2424.36,1246.77 C 2428.33,1242.63 2432.87,1240.56 2437.99,1240.56 C 2442.9,1240.56 2447.31,1242.66 2451.21,1246.87 C 2455.11,1251.07 2457.06,1256.41 2457.06,1262.87 C 2457.06,1269.4 2455.1,1274.75 2451.16,1278.92 C 2447.22,1283.09 2442.66,1285.17 2437.48,1285.17 C 2432.37,1285.17 2427.91,1283.16 2424.11,1279.12 C 2420.3,1275.08 2418.4,1269.63 2418.41,1262.77 Z" stroke-width="5.169" stroke-linecap="round" fill-rule="nonzero" fill="#f0a800" stroke-linejoin="round" marker-start="none" marker-end="none"/>
  </g>
 </g>
</svg>
