<?xml version="1.0" standalone="no"?>
<!DOCTYPE svg PUBLIC "-//W3C//DTD SVG 1.1//EN" "http://www.w3.org/Graphics/SVG/1.1/DTD/svg11.dtd">
<!--Generator: Xara Designer (www.xara.com), SVG filter version: 6.3.0.31-->
<svg fill="none" fill-rule="evenodd" stroke="black" stroke-width="0.501" stroke-linejoin="bevel" stroke-miterlimit="10" font-family="Times New Roman" font-size="16" style="font-variant-ligatures:none" xmlns:xlink="http://www.w3.org/1999/xlink" xmlns="http://www.w3.org/2000/svg" version="1.1" overflow="visible" width="663.73pt" height="249.007pt" viewBox="1630.89 -893.5 663.73 249.007">
 <defs>
	</defs>
 <g id="Layer 1" transform="scale(1 -1)">
  <g id="Group" stroke="none">
   <path d="M 2119.79,777.787 L 2125.26,776.138 L 2145.74,753.899 C 2152,755.102 2159.08,755.961 2167.94,756.038 C 2177.67,756.122 2188.09,756.176 2198.48,756.211 C 2198.49,756.231 2198.5,756.251 2198.51,756.271 L 2198.51,781.229 L 2176.86,830.916 L 2170.48,838.135 L 2174.14,838.176 L 2182.86,832.51 L 2220.56,778.992 L 2224.41,782.212 C 2228.65,783.583 2239.92,785.108 2242.49,782.212 L 2242.49,772.763 C 2238.16,770.269 2230.86,771.666 2225.02,772.658 L 2236.57,756.271 C 2248.33,756.272 2258.48,756.263 2265.44,756.263 C 2284.4,756.263 2291.43,750.31 2293.53,747.722 C 2293.6,747.623 2293.59,747.522 2293.53,747.423 C 2291.43,744.835 2284.4,738.881 2265.44,738.881 C 2258.48,738.881 2248.33,738.872 2236.57,738.873 L 2225.02,722.486 C 2230.86,723.478 2238.16,724.875 2242.49,722.381 L 2242.49,712.932 C 2239.92,710.036 2228.65,711.561 2224.41,712.932 L 2220.56,716.152 L 2182.86,662.634 L 2174.14,656.968 L 2170.48,657.009 L 2176.86,664.228 L 2198.51,713.915 L 2198.51,738.873 C 2198.5,738.893 2198.49,738.913 2198.48,738.933 C 2188.09,738.968 2177.67,739.022 2167.94,739.106 C 2159.08,739.183 2152,740.042 2145.74,741.245 L 2125.26,719.006 L 2119.79,717.357 L 2130.07,745.009 C 2127.34,745.721 2124.61,746.42 2121.74,747.056 L 2121.74,748.088 C 2124.61,748.724 2127.34,749.423 2130.07,750.135 L 2119.79,777.787 Z" fill="#ffffff" stroke-linejoin="miter" marker-start="none" marker-end="none"/>
   <path d="M 1741.13,646.293 L 1741.13,646.491 C 1681.27,646.491 1632.68,691.82 1632.68,747.671 C 1632.68,803.522 1681.27,848.851 1741.13,848.851 C 1741.85,848.851 1742.57,848.844 1743.29,848.831 L 1996.08,848.831 C 1996.8,848.844 1997.52,848.851 1998.24,848.851 C 2058.1,848.851 2106.69,803.522 2106.69,747.671 C 2106.69,691.82 2058.1,646.491 1998.24,646.491 L 1998.24,646.293 L 1741.13,646.293 Z" fill="#000000" stroke-width="0.484" stroke-linecap="round" stroke-linejoin="miter" marker-start="none" marker-end="none"/>
   <path d="M 1736.03,722.541 L 1779.53,725.266 C 1780.48,718.2 1782.39,712.817 1785.28,709.116 C 1790,703.127 1796.73,700.132 1805.47,700.132 C 1812,700.132 1817.03,701.662 1820.56,704.726 C 1824.09,707.786 1825.86,711.338 1825.86,715.375 C 1825.86,719.211 1824.18,722.642 1820.81,725.671 C 1817.45,728.697 1809.65,731.556 1797.4,734.249 C 1777.35,738.757 1763.05,744.746 1754.5,752.217 C 1745.89,759.684 1741.58,769.205 1741.58,780.781 C 1741.58,788.384 1743.78,795.567 1748.19,802.332 C 1752.6,809.093 1759.23,814.41 1768.07,818.278 C 1776.93,822.148 1789.05,824.083 1804.46,824.083 C 1823.37,824.083 1837.79,820.566 1847.71,813.535 C 1857.64,806.503 1863.54,795.318 1865.43,779.974 L 1822.33,777.451 C 1821.19,784.114 1818.78,788.958 1815.11,791.984 C 1811.44,795.013 1806.38,796.526 1799.92,796.526 C 1794.6,796.526 1790.6,795.401 1787.91,793.147 C 1785.22,790.893 1783.87,788.151 1783.87,784.918 C 1783.87,782.564 1784.98,780.445 1787.2,778.562 C 1789.36,776.609 1794.47,774.792 1802.55,773.11 C 1822.53,768.803 1836.85,764.445 1845.49,760.038 C 1854.14,755.63 1860.43,750.164 1864.37,743.635 C 1868.3,737.109 1870.27,729.808 1870.27,721.734 C 1870.27,712.245 1867.65,703.497 1862.4,695.49 C 1857.15,687.482 1849.82,681.41 1840.4,677.27 C 1830.97,673.132 1819.1,671.062 1804.77,671.062 C 1779.6,671.062 1762.17,675.909 1752.48,685.599 C 1742.79,695.289 1737.31,707.603 1736.03,722.541 Z M 1907.45,753.124 C 1900.99,756.555 1896.28,760.391 1893.32,764.631 C 1889.28,770.417 1887.27,777.08 1887.27,784.617 C 1887.27,797 1893.09,807.126 1904.73,814.999 C 1913.81,821.054 1925.82,824.083 1940.76,824.083 C 1960.55,824.083 1975.16,820.313 1984.62,812.777 C 1994.07,805.24 1998.8,795.751 1998.8,784.313 C 1998.8,777.652 1996.92,771.43 1993.15,765.642 C 1990.32,761.335 1985.88,757.161 1979.82,753.124 C 1987.83,749.288 1993.81,744.209 1997.74,737.884 C 2001.68,731.559 2003.65,724.559 2003.65,716.888 C 2003.65,709.486 2001.95,702.573 1998.55,696.144 C 1995.15,689.719 1990.98,684.757 1986.03,681.258 C 1981.09,677.761 1974.93,675.185 1967.56,673.534 C 1960.19,671.886 1952.34,671.062 1943.99,671.062 C 1928.31,671.062 1916.34,672.914 1908.06,676.615 C 1899.78,680.316 1893.49,685.765 1889.18,692.966 C 1884.88,700.167 1882.72,708.209 1882.72,717.089 C 1882.72,725.771 1884.75,733.121 1888.78,739.145 C 1892.82,745.165 1899.04,749.825 1907.45,753.124 Z M 1925.93,782.194 C 1925.93,777.08 1927.52,772.96 1930.72,769.828 C 1933.92,766.701 1938.17,765.137 1943.49,765.137 C 1948.2,765.137 1952.07,766.684 1955.1,769.779 C 1958.12,772.874 1959.64,776.879 1959.64,781.792 C 1959.64,786.905 1958.06,791.06 1954.89,794.255 C 1951.73,797.454 1947.69,799.05 1942.78,799.05 C 1937.8,799.05 1933.75,797.485 1930.62,794.356 C 1927.49,791.226 1925.93,787.172 1925.93,782.194 Z M 1923.7,718.504 C 1923.7,711.975 1925.69,706.641 1929.66,702.504 C 1933.63,698.364 1938.17,696.296 1943.29,696.296 C 1948.2,696.296 1952.61,698.398 1956.51,702.604 C 1960.41,706.81 1962.36,712.145 1962.36,718.605 C 1962.36,725.134 1960.4,730.482 1956.46,734.654 C 1952.52,738.826 1947.96,740.91 1942.78,740.91 C 1937.67,740.91 1933.21,738.892 1929.41,734.855 C 1925.6,730.816 1923.7,725.366 1923.7,718.504 Z" stroke-width="5.169" stroke-linecap="round" fill-rule="nonzero" fill="#f0a800" stroke-linejoin="round" marker-start="none" marker-end="none"/>
   <path d="M 1630.89,893.5 L 1630.89,644.493 L 2294.62,644.493 L 2294.62,893.5 L 1630.89,893.5 Z" stroke-width="0.597" stroke-linejoin="miter" marker-start="none" marker-end="none"/>
  </g>
 </g>
</svg>
