<?xml version="1.0" standalone="no"?>
<!DOCTYPE svg PUBLIC "-//W3C//DTD SVG 1.1//EN" "http://www.w3.org/Graphics/SVG/1.1/DTD/svg11.dtd">
<!--Generator: Xara Designer (www.xara.com), SVG filter version: 6.3.0.31-->
<svg fill="none" fill-rule="evenodd" stroke="black" stroke-width="0.501" stroke-linejoin="bevel" stroke-miterlimit="10" font-family="Times New Roman" font-size="16" style="font-variant-ligatures:none" xmlns:xlink="http://www.w3.org/1999/xlink" xmlns="http://www.w3.org/2000/svg" version="1.1" overflow="visible" width="660.896pt" height="249.007pt" viewBox="1630.88 -893.492 660.896 249.007">
 <defs>
	</defs>
 <g id="Layer 1" transform="scale(1 -1)">
  <g id="Group" stroke="none">
   <path d="M 2117.99,775.979 L 2123.46,774.33 L 2143.94,752.091 C 2150.2,753.294 2157.28,754.153 2166.14,754.23 C 2175.87,754.314 2186.29,754.368 2196.68,754.403 C 2196.69,754.423 2196.7,754.443 2196.71,754.463 L 2196.71,779.421 L 2175.05,829.108 L 2168.68,836.327 L 2172.34,836.368 L 2181.05,830.702 L 2218.76,777.184 L 2222.61,780.404 C 2226.85,781.775 2238.12,783.3 2240.69,780.404 L 2240.69,770.955 C 2236.36,768.461 2229.06,769.858 2223.22,770.85 L 2234.77,754.463 C 2246.53,754.464 2256.68,754.455 2263.64,754.455 C 2282.6,754.455 2289.63,748.502 2291.73,745.914 C 2291.8,745.815 2291.79,745.714 2291.73,745.615 C 2289.63,743.027 2282.6,737.073 2263.64,737.073 C 2256.68,737.073 2246.53,737.064 2234.77,737.065 L 2223.22,720.678 C 2229.06,721.67 2236.36,723.067 2240.69,720.573 L 2240.69,711.124 C 2238.12,708.228 2226.85,709.753 2222.61,711.124 L 2218.76,714.344 L 2181.05,660.826 L 2172.34,655.16 L 2168.68,655.201 L 2175.05,662.42 L 2196.71,712.107 L 2196.71,737.065 C 2196.7,737.085 2196.69,737.105 2196.68,737.125 C 2186.29,737.16 2175.87,737.214 2166.14,737.298 C 2157.28,737.375 2150.2,738.234 2143.94,739.437 L 2123.46,717.198 L 2117.99,715.549 L 2128.27,743.201 C 2125.54,743.913 2122.81,744.612 2119.94,745.248 L 2119.94,746.28 C 2122.81,746.916 2125.54,747.615 2128.27,748.327 L 2117.99,775.979 Z" fill="#ffffff" stroke-linejoin="miter" marker-start="none" marker-end="none"/>
   <path d="M 1739.33,644.485 L 1739.33,644.683 C 1679.47,644.683 1630.88,690.012 1630.88,745.863 C 1630.88,801.714 1679.47,847.043 1739.33,847.043 C 1740.05,847.043 1740.77,847.036 1741.49,847.023 L 1994.28,847.023 C 1995,847.036 1995.72,847.043 1996.44,847.043 C 2056.3,847.043 2104.89,801.714 2104.89,745.863 C 2104.89,690.012 2056.3,644.683 1996.44,644.683 L 1996.44,644.485 L 1739.33,644.485 Z" fill="#000000" stroke-width="0.484" stroke-linecap="round" stroke-linejoin="miter" marker-start="none" marker-end="none"/>
   <path d="M 1734.23,720.733 L 1777.73,723.458 C 1778.68,716.392 1780.59,711.009 1783.48,707.308 C 1788.19,701.319 1794.93,698.324 1803.67,698.324 C 1810.2,698.324 1815.23,699.854 1818.76,702.918 C 1822.29,705.978 1824.06,709.53 1824.06,713.567 C 1824.06,717.403 1822.38,720.834 1819.01,723.863 C 1815.65,726.889 1807.85,729.748 1795.6,732.441 C 1775.55,736.949 1761.25,742.938 1752.7,750.409 C 1744.09,757.876 1739.78,767.397 1739.78,778.973 C 1739.78,786.576 1741.98,793.759 1746.39,800.524 C 1750.8,807.285 1757.43,812.602 1766.27,816.47 C 1775.13,820.34 1787.25,822.275 1802.66,822.275 C 1821.57,822.275 1835.99,818.758 1845.91,811.727 C 1855.84,804.695 1861.74,793.51 1863.63,778.166 L 1820.53,775.643 C 1819.39,782.306 1816.98,787.15 1813.31,790.176 C 1809.65,793.205 1804.58,794.718 1798.12,794.718 C 1792.8,794.718 1788.8,793.593 1786.11,791.339 C 1783.42,789.085 1782.07,786.343 1782.07,783.11 C 1782.07,780.756 1783.18,778.637 1785.4,776.754 C 1787.56,774.801 1792.67,772.984 1800.75,771.302 C 1820.73,766.995 1835.05,762.637 1843.69,758.23 C 1852.34,753.822 1858.63,748.356 1862.57,741.827 C 1866.5,735.301 1868.47,728 1868.47,719.926 C 1868.47,710.437 1865.85,701.689 1860.6,693.682 C 1855.35,685.674 1848.02,679.602 1838.6,675.462 C 1829.17,671.324 1817.3,669.254 1802.97,669.254 C 1777.8,669.254 1760.37,674.101 1750.68,683.791 C 1740.99,693.481 1735.51,705.795 1734.23,720.733 Z M 1905.65,751.316 C 1899.19,754.747 1894.48,758.583 1891.52,762.823 C 1887.48,768.609 1885.47,775.272 1885.47,782.809 C 1885.47,795.192 1891.29,805.318 1902.93,813.191 C 1912.01,819.246 1924.02,822.275 1938.96,822.275 C 1958.75,822.275 1973.36,818.505 1982.82,810.969 C 1992.27,803.432 1997,793.943 1997,782.505 C 1997,775.844 1995.12,769.622 1991.35,763.834 C 1988.52,759.527 1984.08,755.353 1978.02,751.316 C 1986.03,747.48 1992.01,742.401 1995.94,736.076 C 1999.88,729.751 2001.85,722.751 2001.85,715.08 C 2001.85,707.678 2000.15,700.765 1996.75,694.336 C 1993.35,687.911 1989.18,682.949 1984.23,679.45 C 1979.29,675.953 1973.13,673.377 1965.76,671.726 C 1958.39,670.078 1950.54,669.254 1942.19,669.254 C 1926.51,669.254 1914.54,671.106 1906.26,674.807 C 1897.98,678.508 1891.69,683.957 1887.38,691.158 C 1883.08,698.359 1880.92,706.401 1880.92,715.281 C 1880.92,723.963 1882.94,731.313 1886.98,737.337 C 1891.02,743.357 1897.24,748.017 1905.65,751.316 Z M 1924.13,780.386 C 1924.13,775.272 1925.72,771.152 1928.92,768.02 C 1932.12,764.893 1936.37,763.329 1941.69,763.329 C 1946.4,763.329 1950.27,764.876 1953.3,767.971 C 1956.32,771.066 1957.84,775.071 1957.84,779.984 C 1957.84,785.097 1956.26,789.252 1953.09,792.447 C 1949.93,795.646 1945.89,797.242 1940.98,797.242 C 1936,797.242 1931.95,795.677 1928.82,792.548 C 1925.69,789.418 1924.13,785.364 1924.13,780.386 Z M 1921.91,716.696 C 1921.9,710.167 1923.89,704.833 1927.86,700.696 C 1931.83,696.556 1936.37,694.488 1941.49,694.488 C 1946.4,694.488 1950.81,696.59 1954.71,700.796 C 1958.61,705.002 1960.56,710.337 1960.56,716.797 C 1960.56,723.326 1958.6,728.674 1954.66,732.846 C 1950.72,737.018 1946.16,739.102 1940.98,739.102 C 1935.87,739.102 1931.41,737.084 1927.61,733.047 C 1923.8,729.008 1921.9,723.558 1921.91,716.696 Z" stroke-width="5.169" stroke-linecap="round" fill-rule="nonzero" fill="#f0a800" stroke-linejoin="round" marker-start="none" marker-end="none"/>
   <path d="M 1630.89,893.492 L 1630.89,644.485 L 2291.78,644.485 L 2291.78,893.492 L 1630.89,893.492 Z" stroke-width="0.597" stroke-linejoin="miter" marker-start="none" marker-end="none"/>
  </g>
 </g>
</svg>
