<?xml version="1.0" standalone="no"?>
<!DOCTYPE svg PUBLIC "-//W3C//DTD SVG 1.1//EN" "http://www.w3.org/Graphics/SVG/1.1/DTD/svg11.dtd">
<!--Generator: Xara Designer (www.xara.com), SVG filter version: 6.3.0.31-->
<svg fill="none" fill-rule="evenodd" stroke="black" stroke-width="0.501" stroke-linejoin="bevel" stroke-miterlimit="10" font-family="Times New Roman" font-size="16" style="font-variant-ligatures:none" xmlns:xlink="http://www.w3.org/1999/xlink" xmlns="http://www.w3.org/2000/svg" version="1.1" overflow="visible" width="213.935pt" height="249.007pt" viewBox="266.881 -893.5 213.935 249.007">
 <defs>
	</defs>
 <g id="Layer 1" transform="scale(1 -1)">
  <g id="Group" stroke="none" stroke-width="0.485">
   <rect x="266.882" y="644.494" width="213.935" height="249.007" stroke-linejoin="miter" stroke-linecap="round"/>
   <path d="M 317.177,697.544 L 317.241,727.715 C 329.889,709.538 352.867,695.564 376.015,695.564 C 390.206,695.564 401.547,703.721 401.547,712.281 C 401.547,745.007 315.931,724.795 315.931,781.161 C 315.931,810.803 344.872,826.653 370.821,826.653 C 392.467,826.653 411.872,819.598 427.264,807.663 L 427.207,782.485 C 413.878,796.849 393.821,809.495 370.29,809.495 C 357.019,809.495 349.441,802.403 349.441,794.155 C 349.441,791.313 349.759,788.911 350.964,786.775 C 364.375,762.991 428.301,777.851 435.842,734.139 C 436.23,731.729 436.434,729.143 436.434,726.365 C 436.434,703.127 413.926,676.111 376.015,676.111 C 354.919,676.111 330.517,685.604 317.177,697.544 Z" stroke-linejoin="round" stroke-linecap="square" fill="#ffffff" marker-start="none" marker-end="none"/>
   <path d="M 267.794,751.382 C 267.794,809.887 315.277,857.37 373.783,857.37 C 432.288,857.37 479.771,809.887 479.771,751.382 C 479.771,692.876 432.288,645.393 373.783,645.393 C 315.277,645.393 267.794,692.876 267.794,751.382 Z M 469.432,751.382 C 469.432,804.18 426.581,847.031 373.783,847.031 C 320.984,847.031 278.133,804.18 278.133,751.382 C 278.133,698.583 320.984,655.732 373.783,655.732 C 426.581,655.732 469.432,698.583 469.432,751.382 Z" stroke-linejoin="round" stroke-linecap="square" fill="#ffffff" marker-start="none" marker-end="none"/>
  </g>
 </g>
</svg>
