<?xml version="1.0" standalone="no"?>
<!DOCTYPE svg PUBLIC "-//W3C//DTD SVG 1.1//EN" "http://www.w3.org/Graphics/SVG/1.1/DTD/svg11.dtd">
<!--Generator: Xara Designer (www.xara.com), SVG filter version: 6.3.0.31-->
<svg fill="none" fill-rule="evenodd" stroke="black" stroke-width="0.501" stroke-linejoin="bevel" stroke-miterlimit="10" font-family="Times New Roman" font-size="16" style="font-variant-ligatures:none" xmlns:xlink="http://www.w3.org/1999/xlink" xmlns="http://www.w3.org/2000/svg" version="1.1" overflow="visible" width="303.187pt" height="249.007pt" viewBox="410.41 -893.5 303.187 249.007">
 <defs>
	</defs>
 <g id="Layer 1" transform="scale(1 -1)">
  <g id="Group" stroke="none" stroke-width="0.485">
   <rect x="410.411" y="644.494" width="303.186" height="249.007" stroke-linejoin="miter" stroke-linecap="round"/>
   <path d="M 460.707,697.544 L 460.771,727.715 C 473.419,709.538 496.397,695.564 519.545,695.564 C 533.736,695.564 545.077,703.721 545.077,712.281 C 545.077,745.007 459.461,724.795 459.461,781.161 C 459.461,810.803 488.402,826.653 514.351,826.653 C 535.997,826.653 555.402,819.598 570.794,807.663 L 570.737,782.485 C 557.408,796.849 537.351,809.495 513.82,809.495 C 500.549,809.495 492.971,802.403 492.971,794.155 C 492.971,791.313 493.289,788.911 494.494,786.775 C 507.905,762.991 571.831,777.851 579.372,734.139 C 579.76,731.729 579.964,729.143 579.964,726.365 C 579.964,703.127 557.456,676.111 519.545,676.111 C 498.449,676.111 474.047,685.604 460.707,697.544 Z" stroke-linejoin="round" stroke-linecap="square" fill="#ffffff" marker-start="none" marker-end="none"/>
   <path d="M 411.324,751.382 C 411.324,809.887 458.807,857.37 517.313,857.37 C 575.818,857.37 623.301,809.887 623.301,751.382 C 623.301,692.876 575.818,645.393 517.313,645.393 C 458.807,645.393 411.324,692.876 411.324,751.382 Z M 612.962,751.382 C 612.962,804.18 570.111,847.031 517.313,847.031 C 464.514,847.031 421.663,804.18 421.663,751.382 C 421.663,698.583 464.514,655.732 517.313,655.732 C 570.111,655.732 612.962,698.583 612.962,751.382 Z" stroke-linejoin="round" stroke-linecap="square" fill="#ffffff" marker-start="none" marker-end="none"/>
  </g>
 </g>
</svg>
