<?xml version="1.0" standalone="no"?>
<!DOCTYPE svg PUBLIC "-//W3C//DTD SVG 1.1//EN" "http://www.w3.org/Graphics/SVG/1.1/DTD/svg11.dtd">
<!--Generator: Xara Designer (www.xara.com), SVG filter version: 6.3.0.31-->
<svg fill="none" fill-rule="evenodd" stroke="black" stroke-width="0.501" stroke-linejoin="bevel" stroke-miterlimit="10" font-family="Times New Roman" font-size="16" style="font-variant-ligatures:none" xmlns:xlink="http://www.w3.org/1999/xlink" xmlns="http://www.w3.org/2000/svg" version="1.1" overflow="visible" width="251.495pt" height="251.495pt" viewBox="340.004 -2010.5 251.495 251.495">
 <defs>
	</defs>
 <g id="Layer 1" transform="scale(1 -1)">
  <g id="Group" stroke="none">
   <path d="M 465.751,2009.26 C 534.477,2009.26 590.255,1953.48 590.255,1884.76 C 590.255,1816.03 534.477,1760.25 465.751,1760.25 C 397.025,1760.25 341.247,1816.03 341.247,1884.76 C 341.247,1953.48 397.025,2009.26 465.751,2009.26 Z" stroke-linejoin="round" stroke-linecap="square" stroke-width="0.485" fill="#ffffff" marker-start="none" marker-end="none"/>
   <path d="M 353.392,1884.76 C 353.392,1946.78 403.729,1997.12 465.751,1997.12 C 527.773,1997.12 578.11,1946.78 578.11,1884.76 C 578.11,1822.73 527.773,1772.4 465.751,1772.4 C 403.729,1772.4 353.392,1822.73 353.392,1884.76 Z M 537.128,1855.37 C 537.128,1858.63 536.888,1861.67 536.433,1864.5 C 527.574,1915.85 452.481,1898.39 436.727,1926.33 C 435.312,1928.84 434.938,1931.66 434.938,1935 C 434.938,1944.69 443.84,1953.02 459.429,1953.02 C 487.071,1953.02 510.632,1938.17 526.289,1921.29 L 526.356,1950.87 C 508.275,1964.89 485.48,1973.18 460.053,1973.18 C 429.571,1973.18 395.574,1954.56 395.574,1919.74 C 395.574,1853.53 496.146,1877.27 496.146,1838.83 C 496.146,1828.77 482.824,1819.19 466.154,1819.19 C 438.963,1819.19 411.97,1835.6 397.113,1856.95 L 397.038,1821.51 C 412.708,1807.49 441.373,1796.34 466.154,1796.34 C 510.688,1796.34 537.128,1828.07 537.128,1855.37 Z" stroke-linejoin="round" stroke-linecap="square" stroke-width="0.485" fill="#408335" marker-start="none" marker-end="none"/>
   <path d="M 340.004,2010.5 L 340.004,1759.01 L 591.499,1759.01 L 591.499,2010.5 L 340.004,2010.5 Z" stroke-width="0.499" stroke-linejoin="miter" stroke-linecap="round" marker-start="none" marker-end="none"/>
  </g>
 </g>
</svg>
