<?xml version="1.0" standalone="no"?>
<!DOCTYPE svg PUBLIC "-//W3C//DTD SVG 1.1//EN" "http://www.w3.org/Graphics/SVG/1.1/DTD/svg11.dtd">
<!--Generator: Xara Designer (www.xara.com), SVG filter version: 6.3.0.31-->
<svg fill="none" fill-rule="evenodd" stroke="black" stroke-width="0.501" stroke-linejoin="bevel" stroke-miterlimit="10" font-family="Times New Roman" font-size="16" style="font-variant-ligatures:none" xmlns:xlink="http://www.w3.org/1999/xlink" xmlns="http://www.w3.org/2000/svg" version="1.1" overflow="visible" width="213.937pt" height="249.007pt" viewBox="266.879 -1439.57 213.937 249.007">
 <defs>
	</defs>
 <g id="Layer 1" transform="scale(1 -1)">
  <g id="Group" stroke-linejoin="miter" stroke="none">
   <rect x="266.88" y="1190.565" width="213.937" height="249.007" stroke-width="0.485" stroke-linecap="round"/>
   <path d="M 317.172,1243.84 L 317.236,1274.01 C 329.884,1255.84 352.862,1241.86 376.01,1241.86 C 390.201,1241.86 401.542,1250.02 401.542,1258.58 C 401.542,1291.3 315.926,1271.09 315.926,1327.46 C 315.926,1357.1 344.867,1372.95 370.816,1372.95 C 392.462,1372.95 411.867,1365.9 427.259,1353.96 L 427.202,1328.78 C 413.873,1343.15 393.816,1355.79 370.285,1355.79 C 357.014,1355.79 349.436,1348.7 349.436,1340.45 C 349.436,1337.61 349.754,1335.21 350.959,1333.07 C 364.37,1309.29 428.296,1324.15 435.837,1280.44 C 436.225,1278.03 436.429,1275.44 436.429,1272.66 C 436.429,1249.42 413.921,1222.41 376.01,1222.41 C 354.914,1222.41 330.512,1231.9 317.172,1243.84 Z" stroke-opacity="0.501961" fill="#ffffff" stroke-width="0" fill-rule="evenodd" marker-start="none" marker-end="none" fill-opacity="0.501961"/>
   <path d="M 267.789,1297.68 C 267.789,1356.18 315.272,1403.67 373.778,1403.67 C 432.283,1403.67 479.766,1356.18 479.766,1297.68 C 479.766,1239.17 432.283,1191.69 373.778,1191.69 C 315.272,1191.69 267.789,1239.17 267.789,1297.68 Z M 469.427,1297.68 C 469.427,1350.48 426.576,1393.33 373.778,1393.33 C 320.979,1393.33 278.128,1350.48 278.128,1297.68 C 278.128,1244.88 320.979,1202.03 373.778,1202.03 C 426.576,1202.03 469.427,1244.88 469.427,1297.68 Z" stroke-opacity="0.501961" fill="#ffffff" stroke-width="0" fill-rule="evenodd" marker-start="none" marker-end="none" fill-opacity="0.501961"/>
  </g>
 </g>
</svg>
