<?xml version="1.0" standalone="no"?>
<!DOCTYPE svg PUBLIC "-//W3C//DTD SVG 1.1//EN" "http://www.w3.org/Graphics/SVG/1.1/DTD/svg11.dtd">
<!--Generator: Xara Designer (www.xara.com), SVG filter version: 6.3.0.31-->
<svg fill="none" fill-rule="evenodd" stroke="black" stroke-width="0.501" stroke-linejoin="bevel" stroke-miterlimit="10" font-family="Times New Roman" font-size="16" style="font-variant-ligatures:none" xmlns:xlink="http://www.w3.org/1999/xlink" xmlns="http://www.w3.org/2000/svg" version="1.1" overflow="visible" width="212.436pt" height="249.007pt" viewBox="266.88 -1439.56 212.436 249.007">
 <defs>
	</defs>
 <g id="Layer 1" transform="scale(1 -1)">
  <g id="Group" stroke-linejoin="miter" stroke="none">
   <rect x="266.88" y="1190.558" width="212.436" height="249.007" stroke-width="0.485" stroke-linecap="round"/>
   <path d="M 316.422,1242.71 L 316.486,1272.88 C 329.134,1254.7 352.112,1240.73 375.26,1240.73 C 389.451,1240.73 400.792,1248.89 400.792,1257.44 C 400.792,1290.17 315.176,1269.96 315.176,1326.33 C 315.176,1355.97 344.117,1371.82 370.066,1371.82 C 391.712,1371.82 411.117,1364.76 426.509,1352.83 L 426.452,1327.65 C 413.123,1342.01 393.066,1354.66 369.535,1354.66 C 356.264,1354.66 348.686,1347.57 348.686,1339.32 C 348.686,1336.48 349.004,1334.08 350.209,1331.94 C 363.62,1308.16 427.546,1323.02 435.087,1279.3 C 435.475,1276.89 435.679,1274.31 435.679,1271.53 C 435.679,1248.29 413.171,1221.28 375.26,1221.28 C 354.164,1221.28 329.762,1230.77 316.422,1242.71 Z" stroke-opacity="0.501961" fill="#ffffff" stroke-width="0" fill-rule="evenodd" marker-start="none" marker-end="none" fill-opacity="0.501961"/>
   <path d="M 267.039,1296.55 C 267.039,1355.05 314.522,1402.53 373.028,1402.53 C 431.533,1402.53 479.016,1355.05 479.016,1296.55 C 479.016,1238.04 431.533,1190.56 373.028,1190.56 C 314.522,1190.56 267.039,1238.04 267.039,1296.55 Z M 468.677,1296.55 C 468.677,1349.34 425.826,1392.19 373.028,1392.19 C 320.229,1392.19 277.378,1349.34 277.378,1296.55 C 277.378,1243.75 320.229,1200.9 373.028,1200.9 C 425.826,1200.9 468.677,1243.75 468.677,1296.55 Z" stroke-opacity="0.501961" fill="#ffffff" stroke-width="0" fill-rule="evenodd" marker-start="none" marker-end="none" fill-opacity="0.501961"/>
  </g>
 </g>
</svg>
