<?xml version="1.0" standalone="no"?>
<!DOCTYPE svg PUBLIC "-//W3C//DTD SVG 1.1//EN" "http://www.w3.org/Graphics/SVG/1.1/DTD/svg11.dtd">
<!--Generator: Xara Designer (www.xara.com), SVG filter version: 6.3.0.31-->
<svg fill="none" fill-rule="evenodd" stroke="black" stroke-width="0.501" stroke-linejoin="bevel" stroke-miterlimit="10" font-family="Times New Roman" font-size="16" style="font-variant-ligatures:none" xmlns:xlink="http://www.w3.org/1999/xlink" xmlns="http://www.w3.org/2000/svg" version="1.1" overflow="visible" width="249.008pt" height="249.008pt" viewBox="341.247 -2009.25 249.008 249.008">
 <defs>
	</defs>
 <g id="Layer 1" transform="scale(1 -1)">
  <g id="Group" stroke-linejoin="round" stroke-linecap="square" stroke="none" stroke-width="0.485">
   <path d="M 465.751,2009.25 C 534.477,2009.25 590.255,1953.47 590.255,1884.75 C 590.255,1816.02 534.477,1760.24 465.751,1760.24 C 397.025,1760.24 341.247,1816.02 341.247,1884.75 C 341.247,1953.47 397.025,2009.25 465.751,2009.25 Z" fill="#ffffff" marker-start="none" marker-end="none"/>
   <path d="M 353.392,1884.75 C 353.392,1946.77 403.729,1997.11 465.751,1997.11 C 527.773,1997.11 578.11,1946.77 578.11,1884.75 C 578.11,1822.73 527.773,1772.39 465.751,1772.39 C 403.729,1772.39 353.392,1822.73 353.392,1884.75 Z M 537.128,1855.36 C 537.128,1858.62 536.888,1861.66 536.433,1864.49 C 527.574,1915.84 452.481,1898.39 436.727,1926.32 C 435.312,1928.83 434.938,1931.66 434.938,1934.99 C 434.938,1944.68 443.84,1953.01 459.429,1953.01 C 487.071,1953.01 510.632,1938.16 526.289,1921.29 L 526.356,1950.86 C 508.275,1964.88 485.48,1973.17 460.053,1973.17 C 429.571,1973.17 395.574,1954.55 395.574,1919.73 C 395.574,1853.52 496.146,1877.26 496.146,1838.82 C 496.146,1828.76 482.824,1819.18 466.154,1819.18 C 438.963,1819.18 411.97,1835.6 397.113,1856.95 L 397.038,1821.51 C 412.708,1807.48 441.373,1796.33 466.154,1796.33 C 510.688,1796.33 537.128,1828.06 537.128,1855.36 Z" fill="#408335" marker-start="none" marker-end="none"/>
  </g>
 </g>
</svg>
