<?xml version="1.0" standalone="no"?>
<!DOCTYPE svg PUBLIC "-//W3C//DTD SVG 1.1//EN" "http://www.w3.org/Graphics/SVG/1.1/DTD/svg11.dtd">
<!--Generator: Xara Designer (www.xara.com), SVG filter version: 6.3.0.31-->
<svg fill="none" fill-rule="evenodd" stroke="black" stroke-width="0.501" stroke-linejoin="bevel" stroke-miterlimit="10" font-family="Times New Roman" font-size="16" style="font-variant-ligatures:none" xmlns:xlink="http://www.w3.org/1999/xlink" xmlns="http://www.w3.org/2000/svg" version="1.1" overflow="visible" width="551.821pt" height="249.011pt" viewBox="17.245 -596.492 551.821 249.011">
 <defs>
	</defs>
 <g id="Layer 1" transform="scale(1 -1)">
  <g id="Group" stroke-linejoin="miter" stroke="none">
   <path d="M 17.246,471.861 L 89.202,347.483 L 232.896,347.608 L 304.633,472.113 L 232.677,596.492 L 88.982,596.366 L 17.246,471.861 Z" fill="#ffffff" stroke-width="0.811" marker-start="none" marker-end="none"/>
   <path d="M 96.201,359.63 L 31.264,471.873 L 96.003,584.231 L 225.679,584.345 L 290.614,472.101 L 225.876,359.742 L 96.201,359.63 Z M 104.238,436.066 C 107.704,436.97 110.794,438.364 113.507,440.248 C 116.22,442.132 118.386,444.563 120.006,447.539 C 121.627,450.516 122.437,454.114 122.437,458.334 C 122.437,462.554 121.683,465.983 120.176,468.621 C 118.669,471.258 116.804,473.387 114.581,475.007 C 112.358,476.628 109.927,477.946 107.29,478.964 C 104.652,479.981 102.222,480.998 99.999,482.016 C 97.776,483.033 95.911,484.22 94.404,485.576 C 92.896,486.933 92.143,488.817 92.143,491.228 C 92.143,492.961 92.444,494.393 93.047,495.524 C 93.65,496.654 94.46,497.539 95.477,498.18 C 96.495,498.821 97.682,499.273 99.038,499.536 C 100.395,499.8 101.826,499.932 103.334,499.932 C 105.67,499.932 107.968,499.725 110.229,499.31 C 112.49,498.896 114.675,498.237 116.785,497.332 L 120.063,510.218 C 116.898,511.047 113.752,511.65 110.624,512.027 C 107.497,512.404 104.313,512.592 101.073,512.592 C 97.606,512.592 94.234,512.121 90.956,511.179 C 87.678,510.237 84.777,508.824 82.252,506.94 C 79.728,505.056 77.693,502.701 76.148,499.876 C 74.603,497.05 73.831,493.715 73.831,489.872 C 73.831,485.576 74.566,482.166 76.035,479.642 C 77.504,477.117 79.332,475.083 81.517,473.538 C 83.703,471.993 86.076,470.787 88.639,469.921 C 91.201,469.054 93.575,468.112 95.76,467.095 C 97.945,466.077 99.773,464.872 101.242,463.478 C 102.712,462.083 103.447,460.068 103.447,457.43 C 103.447,455.32 103.013,453.587 102.147,452.23 C 101.28,450.874 100.168,449.819 98.812,449.065 C 97.456,448.312 95.911,447.803 94.177,447.539 C 92.444,447.276 90.711,447.144 88.978,447.144 C 86.566,447.144 84.023,447.389 81.348,447.878 C 78.673,448.368 76.242,449.141 74.057,450.196 L 73.831,436.857 C 76.996,435.878 80.236,435.275 83.552,435.049 C 86.868,434.823 90.184,434.71 93.499,434.71 C 97.192,434.71 100.771,435.162 104.238,436.066 Z M 181.441,435.953 L 181.441,448.952 L 154.199,448.952 L 154.199,468.508 L 178.05,468.508 L 178.05,481.168 L 154.199,481.168 L 154.199,498.463 L 180.084,498.463 L 180.084,511.349 L 136,511.349 L 136,435.953 L 181.441,435.953 Z M 230.396,435.953 L 251.647,511.347 L 233.109,511.347 L 219.544,450.761 L 205.98,511.347 L 186.763,511.347 L 208.014,435.953 L 230.396,435.953 Z" stroke-width="0.732" fill="#933588" marker-start="none" marker-end="none"/>
   <path d="M 17.245,596.488 L 17.245,347.481 L 569.066,347.481 L 569.066,596.488 L 17.245,596.488 Z" stroke-width="0.597" marker-start="none" marker-end="none"/>
   <path d="M 444.561,596.489 C 513.287,596.489 569.065,540.711 569.065,471.985 C 569.065,403.259 513.287,347.481 444.561,347.481 C 375.835,347.481 320.057,403.259 320.057,471.985 C 320.057,540.711 375.835,596.489 444.561,596.489 Z" stroke-linecap="round" fill="#ffffff" stroke-width="0.485" marker-start="none" marker-end="none"/>
   <path d="M 380.048,379.984 C 329.264,415.595 316.949,485.714 352.56,536.498 C 388.171,587.282 458.29,599.597 509.074,563.986 C 559.858,528.375 572.173,458.256 536.562,407.472 C 500.951,356.688 430.832,344.373 380.048,379.984 Z M 477.516,460.733 L 477.516,511.429 L 462.441,511.429 L 462.441,461.687 C 462.441,451.815 459.824,442.83 449.054,442.83 C 438.403,442.83 435.669,451.816 435.669,461.687 L 435.669,511.429 L 420.591,511.429 L 420.591,460.733 C 420.591,441.929 429.764,430.725 449.054,430.725 C 467.748,430.725 477.516,441.928 477.516,460.733 Z M 538.874,455.384 C 538.874,482.371 507.133,473.214 507.133,490.694 C 507.133,499.442 513.03,501.344 520.631,501.344 C 525.144,501.344 529.54,500.631 533.573,498.852 L 536.577,510.476 C 531.106,511.905 525.512,512.735 519.804,512.735 C 505.284,512.735 491.932,505.712 491.932,489.627 C 491.932,462.04 523.199,472.266 523.199,454.318 C 523.199,444.615 515.516,442.003 507.32,442.003 C 502.332,442.003 496.751,442.952 492.245,445.089 L 491.966,432.985 C 497.561,431.202 503.514,430.725 509.459,430.725 C 524.688,430.725 538.874,438.343 538.874,455.384 Z M 406.152,455.624 C 406.152,465.969 398.424,472.624 389.033,474.052 C 397.59,477.376 403.299,482.488 403.299,491.882 C 403.178,506.267 392.478,511.379 379.52,511.379 L 354.198,511.379 L 354.198,432.082 L 381.185,432.082 C 395.335,432.082 406.152,441.115 406.152,455.624 Z M 369.178,443.493 L 369.178,467.391 L 379.402,467.391 C 386.178,467.391 390.816,462.877 390.816,455.982 C 390.816,448.608 386.89,443.493 379.046,443.493 L 369.178,443.493 Z M 369.178,478.566 L 369.178,500.088 L 377.618,500.088 C 384.395,500.088 388.319,496.64 388.319,489.98 C 388.319,482.727 383.684,478.566 376.547,478.566 L 369.178,478.566 Z" stroke-linecap="round" fill="#00586a" stroke-width="0.5" marker-start="none" marker-end="none"/>
  </g>
 </g>
</svg>
