<?xml version="1.0" standalone="no"?>
<!DOCTYPE svg PUBLIC "-//W3C//DTD SVG 1.1//EN" "http://www.w3.org/Graphics/SVG/1.1/DTD/svg11.dtd">
<!--Generator: Xara Designer (www.xara.com), SVG filter version: 6.3.0.31-->
<svg fill="none" fill-rule="evenodd" stroke="black" stroke-width="0.501" stroke-linejoin="bevel" stroke-miterlimit="10" font-family="Times New Roman" font-size="16" style="font-variant-ligatures:none" xmlns:xlink="http://www.w3.org/1999/xlink" xmlns="http://www.w3.org/2000/svg" version="1.1" overflow="visible" width="557.337pt" height="251.495pt" viewBox="14.487 -597.74 557.337 251.495">
 <defs>
	</defs>
 <g id="Layer 1" transform="scale(1 -1)">
  <g id="Group" stroke-linejoin="miter" stroke="none">
   <path d="M 17.246,471.869 L 89.202,347.491 L 232.896,347.616 L 304.633,472.121 L 232.677,596.5 L 88.982,596.374 L 17.246,471.869 Z" fill="#ffffff" stroke-width="0.811" marker-start="none" marker-end="none"/>
   <path d="M 96.201,359.638 L 31.264,471.881 L 96.003,584.239 L 225.679,584.353 L 290.614,472.109 L 225.876,359.75 L 96.201,359.638 Z M 104.238,436.074 C 107.704,436.978 110.794,438.372 113.507,440.256 C 116.22,442.14 118.386,444.571 120.006,447.547 C 121.627,450.524 122.437,454.122 122.437,458.342 C 122.437,462.562 121.683,465.991 120.176,468.629 C 118.669,471.266 116.804,473.395 114.581,475.015 C 112.358,476.636 109.927,477.954 107.29,478.972 C 104.652,479.989 102.222,481.006 99.999,482.024 C 97.776,483.041 95.911,484.228 94.404,485.584 C 92.896,486.941 92.143,488.825 92.143,491.236 C 92.143,492.969 92.444,494.401 93.047,495.532 C 93.65,496.662 94.46,497.547 95.477,498.188 C 96.495,498.829 97.682,499.281 99.038,499.544 C 100.395,499.808 101.826,499.94 103.334,499.94 C 105.67,499.94 107.968,499.733 110.229,499.318 C 112.49,498.904 114.675,498.245 116.785,497.34 L 120.063,510.226 C 116.898,511.055 113.752,511.658 110.624,512.035 C 107.497,512.412 104.313,512.6 101.073,512.6 C 97.606,512.6 94.234,512.129 90.956,511.187 C 87.678,510.245 84.777,508.832 82.252,506.948 C 79.728,505.064 77.693,502.709 76.148,499.884 C 74.603,497.058 73.831,493.723 73.831,489.88 C 73.831,485.584 74.566,482.174 76.035,479.65 C 77.504,477.125 79.332,475.091 81.517,473.546 C 83.703,472.001 86.076,470.795 88.639,469.929 C 91.201,469.062 93.575,468.12 95.76,467.103 C 97.945,466.085 99.773,464.88 101.242,463.486 C 102.712,462.091 103.447,460.076 103.447,457.438 C 103.447,455.328 103.013,453.595 102.147,452.238 C 101.28,450.882 100.168,449.827 98.812,449.073 C 97.456,448.32 95.911,447.811 94.177,447.547 C 92.444,447.284 90.711,447.152 88.978,447.152 C 86.566,447.152 84.023,447.397 81.348,447.886 C 78.673,448.376 76.242,449.149 74.057,450.204 L 73.831,436.865 C 76.996,435.886 80.236,435.283 83.552,435.057 C 86.868,434.831 90.184,434.718 93.499,434.718 C 97.192,434.718 100.771,435.17 104.238,436.074 Z M 181.441,435.961 L 181.441,448.96 L 154.199,448.96 L 154.199,468.516 L 178.05,468.516 L 178.05,481.176 L 154.199,481.176 L 154.199,498.471 L 180.084,498.471 L 180.084,511.357 L 136,511.357 L 136,435.961 L 181.441,435.961 Z M 230.396,435.961 L 251.647,511.355 L 233.109,511.355 L 219.544,450.769 L 205.98,511.355 L 186.763,511.355 L 208.014,435.961 L 230.396,435.961 Z" stroke-width="0.732" fill="#933588" marker-start="none" marker-end="none"/>
   <path d="M 14.487,597.74 L 14.487,346.245 L 571.824,346.245 L 571.824,597.74 L 14.487,597.74 Z" stroke-width="0.603" marker-start="none" marker-end="none"/>
   <path d="M 444.561,596.497 C 513.287,596.497 569.065,540.719 569.065,471.993 C 569.065,403.267 513.287,347.489 444.561,347.489 C 375.835,347.489 320.057,403.267 320.057,471.993 C 320.057,540.719 375.835,596.497 444.561,596.497 Z" stroke-linecap="round" fill="#ffffff" stroke-width="0.485" marker-start="none" marker-end="none"/>
   <path d="M 380.048,379.992 C 329.264,415.603 316.949,485.722 352.56,536.506 C 388.171,587.29 458.29,599.605 509.074,563.994 C 559.858,528.383 572.173,458.264 536.562,407.48 C 500.951,356.696 430.832,344.381 380.048,379.992 Z M 477.516,460.741 L 477.516,511.437 L 462.441,511.437 L 462.441,461.695 C 462.441,451.823 459.824,442.838 449.054,442.838 C 438.403,442.838 435.669,451.824 435.669,461.695 L 435.669,511.437 L 420.591,511.437 L 420.591,460.741 C 420.591,441.937 429.764,430.733 449.054,430.733 C 467.748,430.733 477.516,441.936 477.516,460.741 Z M 538.874,455.392 C 538.874,482.379 507.133,473.222 507.133,490.702 C 507.133,499.45 513.03,501.352 520.631,501.352 C 525.144,501.352 529.54,500.639 533.573,498.86 L 536.577,510.484 C 531.106,511.913 525.512,512.743 519.804,512.743 C 505.284,512.743 491.932,505.72 491.932,489.635 C 491.932,462.048 523.199,472.274 523.199,454.326 C 523.199,444.623 515.516,442.011 507.32,442.011 C 502.332,442.011 496.751,442.96 492.245,445.097 L 491.966,432.993 C 497.561,431.21 503.514,430.733 509.459,430.733 C 524.688,430.733 538.874,438.351 538.874,455.392 Z M 406.152,455.632 C 406.152,465.977 398.424,472.632 389.033,474.06 C 397.59,477.384 403.299,482.496 403.299,491.89 C 403.178,506.275 392.478,511.387 379.52,511.387 L 354.198,511.387 L 354.198,432.09 L 381.185,432.09 C 395.335,432.09 406.152,441.123 406.152,455.632 Z M 369.178,443.501 L 369.178,467.399 L 379.402,467.399 C 386.178,467.399 390.816,462.885 390.816,455.99 C 390.816,448.616 386.89,443.501 379.046,443.501 L 369.178,443.501 Z M 369.178,478.574 L 369.178,500.096 L 377.618,500.096 C 384.395,500.096 388.319,496.648 388.319,489.988 C 388.319,482.735 383.684,478.574 376.547,478.574 L 369.178,478.574 Z" stroke-linecap="round" fill="#00586a" stroke-width="0.5" marker-start="none" marker-end="none"/>
  </g>
 </g>
</svg>
