<?xml version="1.0" standalone="no"?>
<!DOCTYPE svg PUBLIC "-//W3C//DTD SVG 1.1//EN" "http://www.w3.org/Graphics/SVG/1.1/DTD/svg11.dtd">
<!--Generator: Xara Designer (www.xara.com), SVG filter version: 6.3.0.31-->
<svg fill="none" fill-rule="evenodd" stroke="black" stroke-width="0.501" stroke-linejoin="bevel" stroke-miterlimit="10" font-family="Times New Roman" font-size="16" style="font-variant-ligatures:none" xmlns:xlink="http://www.w3.org/1999/xlink" xmlns="http://www.w3.org/2000/svg" version="1.1" overflow="visible" width="557.357pt" height="251.495pt" viewBox="3955.4 -3233.2 557.357 251.495">
 <defs>
	</defs>
 <g id="Layer 1" transform="scale(1 -1)">
  <g id="Group" stroke-linejoin="miter" stroke="none">
   <path d="M 3956.41,3231.76 L 3956.41,2982.76 L 4205.42,2982.76 L 4205.42,3231.76 L 3956.41,3231.76 Z" stroke-width="0.485" stroke-linecap="round" fill="#ffffff" marker-start="none" marker-end="none"/>
   <path d="M 3968.55,2994.9 L 3968.55,3219.62 L 4193.27,3219.62 L 4193.27,2994.9 L 3968.55,2994.9 Z M 4086.46,3084.95 L 4087.44,3078.58 L 4099.64,3078.58 C 4099.2,3081.87 4098.65,3085.28 4098.65,3088.58 L 4098.65,3118.24 C 4098.65,3127.69 4092.17,3133.62 4079.54,3133.62 C 4073.82,3133.62 4067.12,3132.96 4061.85,3130.55 L 4064.04,3121.43 C 4067.78,3123.4 4072.94,3124.28 4076.9,3124.28 C 4082.61,3124.28 4086.01,3121.76 4086.01,3116.15 L 4086.01,3110.11 C 4084.04,3110.44 4081.51,3110.99 4077.67,3110.99 C 4065.36,3110.99 4056.9,3104.95 4056.9,3093.74 C 4056.9,3083.75 4062.28,3077.6 4072.83,3077.6 C 4078.87,3077.6 4083.38,3080.23 4086.46,3084.95 Z M 4004.23,3078.58 L 4004.23,3140.65 L 4020.05,3140.65 L 4020.05,3151.97 L 3974.57,3151.97 L 3974.57,3140.65 L 3990.39,3140.65 L 3990.39,3078.58 L 4004.23,3078.58 Z M 4154.11,3078.58 L 4154.11,3112.74 C 4154.11,3118.13 4156.09,3124.28 4161.9,3124.28 C 4166.85,3124.28 4168.82,3120.44 4168.82,3115.72 L 4168.82,3078.58 L 4181.9,3078.58 L 4181.9,3116.7 C 4181.9,3126.15 4177.29,3133.62 4167.18,3133.62 C 4159.93,3133.62 4155.21,3130 4153.23,3125.39 C 4151.47,3129.22 4148.06,3133.62 4139.5,3133.62 C 4133.12,3133.62 4128.07,3130.33 4125.87,3125.39 L 4124.88,3132.63 L 4113.35,3132.63 L 4113.35,3078.58 L 4126.43,3078.58 L 4126.43,3112.53 C 4126.43,3117.91 4128.51,3124.28 4134.22,3124.28 C 4139.17,3124.28 4141.14,3120.88 4141.14,3115.72 L 4141.14,3078.58 L 4154.11,3078.58 Z M 4036.51,3078.58 L 4036.51,3108.13 C 4036.51,3114.95 4038.27,3121.98 4046.07,3121.98 C 4047.28,3121.98 4048.49,3121.76 4049.7,3121.43 L 4053.43,3132.96 C 4052.44,3133.4 4050.36,3133.62 4049.37,3133.62 C 4043.66,3133.62 4039.7,3131.2 4036.29,3125.49 L 4035.31,3132.63 L 4023.44,3132.63 L 4023.44,3078.58 L 4036.51,3078.58 Z M 4070.09,3094.4 C 4070.09,3099.13 4072.83,3103.41 4078.98,3103.41 C 4082.17,3103.41 4084.59,3102.96 4086.01,3102.42 L 4086.01,3094.84 C 4086.01,3090 4081.84,3086.38 4076.9,3086.38 C 4072.06,3086.38 4070.09,3089.79 4070.09,3094.4 Z" stroke-width="0" fill-rule="evenodd" fill="#d82020" marker-start="none" marker-end="none"/>
   <path d="M 4221.62,3107.26 L 4293.47,2982.82 L 4437.16,2982.82 L 4509.01,3107.26 L 4437.16,3231.7 L 4293.47,3231.7 L 4221.62,3107.26 Z" fill="#ffffff" stroke-width="0.811" marker-start="none" marker-end="none"/>
   <path d="M 4300.48,2994.96 L 4235.64,3107.26 L 4300.48,3219.56 L 4430.15,3219.56 L 4494.99,3107.26 L 4430.15,2994.96 L 4300.48,2994.96 Z M 4308.58,3071.39 C 4312.05,3072.29 4315.14,3073.68 4317.86,3075.56 C 4320.57,3077.44 4322.74,3079.87 4324.36,3082.85 C 4325.98,3085.82 4326.8,3089.42 4326.8,3093.64 C 4326.81,3097.86 4326.06,3101.29 4324.55,3103.93 C 4323.05,3106.57 4321.18,3108.7 4318.96,3110.32 C 4316.74,3111.94 4314.31,3113.26 4311.67,3114.28 C 4309.04,3115.3 4306.61,3116.32 4304.39,3117.34 C 4302.16,3118.36 4300.3,3119.55 4298.79,3120.91 C 4297.29,3122.26 4296.53,3124.15 4296.54,3126.56 C 4296.54,3128.29 4296.84,3129.72 4297.44,3130.85 C 4298.05,3131.98 4298.86,3132.87 4299.88,3133.51 C 4300.9,3134.15 4302.08,3134.6 4303.44,3134.86 C 4304.8,3135.12 4306.23,3135.25 4307.74,3135.25 C 4310.07,3135.25 4312.37,3135.04 4314.63,3134.63 C 4316.89,3134.21 4319.07,3133.55 4321.18,3132.64 L 4324.47,3145.53 C 4321.31,3146.36 4318.16,3146.96 4315.04,3147.34 C 4311.91,3147.72 4308.73,3147.91 4305.48,3147.92 C 4302.02,3147.92 4298.65,3147.45 4295.37,3146.51 C 4292.09,3145.57 4289.19,3144.16 4286.66,3142.28 C 4284.13,3140.4 4282.1,3138.05 4280.55,3135.22 C 4279,3132.4 4278.23,3129.06 4278.22,3125.22 C 4278.22,3120.92 4278.95,3117.51 4280.42,3114.99 C 4281.89,3112.46 4283.71,3110.43 4285.9,3108.88 C 4288.08,3107.33 4290.45,3106.12 4293.02,3105.26 C 4295.57,3104.39 4297.95,3103.44 4300.13,3102.42 C 4302.32,3101.4 4304.14,3100.2 4305.61,3098.8 C 4307.08,3097.41 4307.81,3095.39 4307.81,3092.75 C 4307.81,3090.64 4307.37,3088.91 4306.51,3087.55 C 4305.64,3086.2 4304.53,3085.14 4303.17,3084.39 C 4301.81,3083.64 4300.27,3083.13 4298.53,3082.87 C 4296.8,3082.61 4295.07,3082.48 4293.33,3082.48 C 4290.92,3082.48 4288.38,3082.73 4285.7,3083.22 C 4283.03,3083.71 4280.6,3084.49 4278.42,3085.54 L 4278.18,3072.2 C 4281.34,3071.22 4284.58,3070.62 4287.9,3070.39 C 4291.21,3070.16 4294.53,3070.04 4297.84,3070.04 C 4301.54,3070.04 4305.12,3070.49 4308.58,3071.39 Z M 4385.79,3071.21 L 4385.8,3084.2 L 4358.56,3084.23 L 4358.57,3103.78 L 4382.42,3103.76 L 4382.44,3116.42 L 4358.58,3116.45 L 4358.6,3133.74 L 4384.48,3133.72 L 4384.49,3146.6 L 4340.41,3146.64 L 4340.35,3071.24 L 4385.79,3071.21 Z M 4434.74,3071.16 L 4456.06,3146.54 L 4437.52,3146.56 L 4423.9,3085.98 L 4410.39,3146.58 L 4391.17,3146.6 L 4412.36,3071.18 L 4434.74,3071.16 Z" stroke-width="0.732" fill="#933588" marker-start="none" marker-end="none"/>
   <path d="M 3955.4,3233.2 L 3955.4,2981.7 L 4512.76,2981.7 L 4512.76,3233.2 L 3955.4,3233.2 Z" stroke-width="0.603" marker-start="none" marker-end="none"/>
  </g>
 </g>
</svg>
