<?xml version="1.0" standalone="no"?>
<!DOCTYPE svg PUBLIC "-//W3C//DTD SVG 1.1//EN" "http://www.w3.org/Graphics/SVG/1.1/DTD/svg11.dtd">
<!--Generator: Xara Designer (www.xara.com), SVG filter version: 6.3.0.31-->
<svg fill="none" fill-rule="evenodd" stroke="black" stroke-width="0.501" stroke-linejoin="bevel" stroke-miterlimit="10" font-family="Times New Roman" font-size="16" style="font-variant-ligatures:none" xmlns:xlink="http://www.w3.org/1999/xlink" xmlns="http://www.w3.org/2000/svg" version="1.1" overflow="visible" width="124.803pt" height="56.314pt" viewBox="956.998 -782.17 124.803 56.314">
 <defs>
	</defs>
 <g id="Layer 1" transform="scale(1 -1)">
  <g id="Group" stroke-linejoin="miter" stroke="none">
   <path d="M 1025.08,781.849 L 1025.08,726.091 L 1080.84,726.091 L 1080.84,781.849 L 1025.08,781.849 Z" stroke-width="0.485" stroke-linecap="round" fill="#ffffff" marker-start="none" marker-end="none"/>
   <path d="M 1027.8,728.811 L 1027.8,779.13 L 1078.12,779.13 L 1078.12,728.811 L 1027.8,728.811 Z M 1054.2,748.975 L 1054.42,747.548 L 1057.15,747.548 C 1057.06,748.285 1056.93,749.048 1056.93,749.787 L 1056.93,756.428 C 1056.93,758.544 1055.48,759.873 1052.65,759.873 C 1051.37,759.873 1049.87,759.726 1048.69,759.184 L 1049.18,757.142 C 1050.02,757.584 1051.18,757.781 1052.06,757.781 C 1053.34,757.781 1054.1,757.216 1054.1,755.961 L 1054.1,754.608 C 1053.66,754.682 1053.09,754.805 1052.23,754.805 C 1049.48,754.805 1047.58,753.452 1047.58,750.943 C 1047.58,748.706 1048.79,747.327 1051.15,747.327 C 1052.5,747.327 1053.51,747.917 1054.2,748.975 Z M 1035.79,747.548 L 1035.79,761.446 L 1039.33,761.446 L 1039.33,763.981 L 1029.15,763.981 L 1029.15,761.446 L 1032.69,761.446 L 1032.69,747.548 L 1035.79,747.548 Z M 1069.35,747.548 L 1069.35,755.197 C 1069.35,756.404 1069.79,757.781 1071.1,757.781 C 1072.2,757.781 1072.65,756.921 1072.65,755.863 L 1072.65,747.548 L 1075.57,747.548 L 1075.57,756.084 C 1075.57,758.2 1074.54,759.873 1072.28,759.873 C 1070.65,759.873 1069.6,759.061 1069.15,758.029 C 1068.76,758.888 1068,759.873 1066.08,759.873 C 1064.65,759.873 1063.52,759.136 1063.03,758.029 L 1062.81,759.652 L 1060.22,759.652 L 1060.22,747.548 L 1063.15,747.548 L 1063.15,755.149 C 1063.15,756.355 1063.62,757.781 1064.9,757.781 C 1066.01,757.781 1066.45,757.019 1066.45,755.863 L 1066.45,747.548 L 1069.35,747.548 Z M 1043.02,747.548 L 1043.02,754.165 C 1043.02,755.692 1043.41,757.265 1045.16,757.265 C 1045.43,757.265 1045.7,757.216 1045.97,757.142 L 1046.81,759.726 C 1046.59,759.823 1046.12,759.873 1045.9,759.873 C 1044.62,759.873 1043.73,759.331 1042.97,758.053 L 1042.75,759.652 L 1040.09,759.652 L 1040.09,747.548 L 1043.02,747.548 Z M 1050.54,751.091 C 1050.54,752.149 1051.15,753.107 1052.53,753.107 C 1053.24,753.107 1053.78,753.008 1054.1,752.886 L 1054.1,751.189 C 1054.1,750.106 1053.17,749.295 1052.06,749.295 C 1050.98,749.295 1050.54,750.058 1050.54,751.091 Z" stroke-width="0" fill-rule="evenodd" fill="#d82020" marker-start="none" marker-end="none"/>
   <path d="M 957.456,753.969 L 973.544,726.105 L 1005.72,726.104 L 1021.81,753.97 L 1005.72,781.834 L 973.544,781.834 L 957.456,753.969 Z" fill="#ffffff" stroke-width="0.811" marker-start="none" marker-end="none"/>
   <path d="M 975.114,728.823 L 960.595,753.969 L 975.114,779.116 L 1004.15,779.116 L 1018.67,753.969 L 1004.15,728.823 L 975.114,728.823 Z M 976.929,745.937 C 977.705,746.139 978.397,746.45 979.005,746.872 C 979.613,747.293 980.098,747.837 980.462,748.503 C 980.825,749.169 981.007,749.975 981.008,750.92 C 981.009,751.865 980.841,752.633 980.504,753.223 C 980.167,753.814 979.75,754.292 979.252,754.655 C 978.755,755.018 978.21,755.314 977.62,755.542 C 977.03,755.771 976.486,755.999 975.988,756.227 C 975.491,756.455 975.074,756.721 974.736,757.025 C 974.399,757.33 974.23,757.751 974.231,758.291 C 974.232,758.679 974.299,759 974.434,759.253 C 974.569,759.506 974.751,759.704 974.979,759.847 C 975.207,759.991 975.473,760.092 975.776,760.15 C 976.08,760.209 976.401,760.238 976.739,760.238 C 977.262,760.238 977.776,760.191 978.282,760.097 C 978.789,760.004 979.278,759.856 979.75,759.653 L 980.487,762.538 C 979.778,762.725 979.074,762.86 978.373,762.945 C 977.673,763.03 976.96,763.073 976.235,763.073 C 975.458,763.074 974.703,762.97 973.969,762.759 C 973.235,762.549 972.585,762.233 972.019,761.811 C 971.454,761.39 970.997,760.863 970.651,760.231 C 970.305,759.598 970.131,758.852 970.131,757.991 C 970.129,757.029 970.293,756.265 970.622,755.7 C 970.95,755.134 971.359,754.679 971.848,754.332 C 972.337,753.986 972.868,753.715 973.442,753.521 C 974.016,753.326 974.547,753.115 975.036,752.887 C 975.525,752.659 975.934,752.388 976.263,752.076 C 976.592,751.763 976.756,751.312 976.756,750.721 C 976.755,750.249 976.658,749.86 976.464,749.557 C 976.269,749.254 976.02,749.017 975.716,748.849 C 975.412,748.68 975.066,748.567 974.678,748.508 C 974.29,748.45 973.902,748.42 973.514,748.421 C 972.974,748.421 972.404,748.476 971.806,748.587 C 971.207,748.697 970.662,748.87 970.173,749.107 L 970.12,746.12 C 970.829,745.9 971.554,745.765 972.296,745.713 C 973.039,745.662 973.781,745.636 974.524,745.635 C 975.351,745.635 976.152,745.735 976.929,745.937 Z M 994.216,745.897 L 994.218,748.807 L 988.118,748.813 L 988.122,753.192 L 993.463,753.187 L 993.465,756.022 L 988.125,756.026 L 988.128,759.899 L 993.924,759.895 L 993.927,762.78 L 984.055,762.788 L 984.041,745.905 L 994.216,745.897 Z M 1005.18,745.887 L 1009.95,762.765 L 1005.8,762.769 L 1002.75,749.205 L 999.725,762.774 L 995.422,762.778 L 1000.17,745.891 L 1005.18,745.887 Z" stroke-width="0.732" fill="#933588" marker-start="none" marker-end="none"/>
   <path d="M 956.998,782.17 L 956.998,725.856 L 1081.8,725.856 L 1081.8,782.17 L 956.998,782.17 Z" stroke-width="0.603" marker-start="none" marker-end="none"/>
  </g>
 </g>
</svg>
