<?xml version="1.0" standalone="no"?>
<!DOCTYPE svg PUBLIC "-//W3C//DTD SVG 1.1//EN" "http://www.w3.org/Graphics/SVG/1.1/DTD/svg11.dtd">
<!--Generator: Xara Designer (www.xara.com), SVG filter version: 6.3.0.31-->
<svg fill="none" fill-rule="evenodd" stroke="black" stroke-width="0.501" stroke-linejoin="bevel" stroke-miterlimit="10" font-family="Times New Roman" font-size="16" style="font-variant-ligatures:none" xmlns:xlink="http://www.w3.org/1999/xlink" xmlns="http://www.w3.org/2000/svg" version="1.1" overflow="visible" width="248.321pt" height="249.007pt" viewBox="3975 -1509.62 248.321 249.007">
 <defs>
	</defs>
 <g id="Layer 1" transform="scale(1 -1)">
  <g id="Group" stroke="none">
   <path d="M 3975,1509.62 L 3975,1260.61 L 4223.32,1260.61 L 4223.32,1509.62 L 3975,1509.62 Z" fill="#ffffff" stroke-linejoin="miter" marker-start="none" marker-end="none"/>
   <path d="M 3984,1269.51 L 3984,1500.73 L 4214.32,1500.73 L 4214.32,1269.51 L 3984,1269.51 Z" fill="#002a6c" stroke-linejoin="miter" marker-start="none" marker-end="none"/>
   <path d="M 4107.95,1475.25 L 4107.95,1371.3 L 4131.86,1371.3 L 4131.86,1349.64 L 4107.95,1349.64 L 4107.95,1314.28 L 4082.7,1314.28 L 4082.7,1349.64 L 4009.85,1349.64 L 4009.85,1371.53 C 4016.43,1378.94 4023.19,1386.96 4030.11,1395.61 C 4037.03,1404.25 4043.69,1413.08 4050.09,1422.1 C 4056.49,1431.11 4062.42,1440.15 4067.88,1449.2 C 4073.34,1458.26 4077.94,1466.94 4081.69,1475.25 L 4107.95,1475.25 Z M 4082.7,1371.3 L 4082.7,1438.88 C 4074.54,1424.21 4066.47,1411.41 4058.51,1400.49 C 4050.54,1389.56 4043.08,1379.83 4036.11,1371.3 L 4082.7,1371.3 Z" fill-rule="nonzero" stroke-linejoin="round" stroke-linecap="round" stroke-width="0.25" fill="#ffffff" marker-start="none" marker-end="none"/>
  </g>
 </g>
</svg>
