<?xml version="1.0" standalone="no"?>
<!DOCTYPE svg PUBLIC "-//W3C//DTD SVG 1.1//EN" "http://www.w3.org/Graphics/SVG/1.1/DTD/svg11.dtd">
<!--Generator: Xara Designer (www.xara.com), SVG filter version: 6.3.0.31-->
<svg fill="none" fill-rule="evenodd" stroke="black" stroke-width="0.501" stroke-linejoin="bevel" stroke-miterlimit="10" font-family="Times New Roman" font-size="16" style="font-variant-ligatures:none" xmlns:xlink="http://www.w3.org/1999/xlink" xmlns="http://www.w3.org/2000/svg" version="1.1" overflow="visible" width="248.321pt" height="249.007pt" viewBox="3975 -373.621 248.321 249.007">
 <defs>
	</defs>
 <g id="Layer 1" transform="scale(1 -1)">
  <g id="Group" stroke="none">
   <path d="M 3975,373.621 L 3975,124.614 L 4223.32,124.614 L 4223.32,373.621 L 3975,373.621 Z" fill="#ffffff" stroke-linejoin="miter" marker-start="none" marker-end="none"/>
   <path d="M 3984,133.505 L 3984,364.731 L 4214.32,364.731 L 4214.32,133.505 L 3984,133.505 Z" fill="#002a6c" stroke-linejoin="miter" marker-start="none" marker-end="none"/>
   <path d="M 4014.22,223.182 C 4014.22,227.821 4014.81,232.31 4015.96,236.649 C 4017.12,240.992 4018.86,244.996 4021.18,248.661 C 4023.51,252.33 4026.42,255.621 4029.94,258.54 C 4033.46,261.458 4037.57,263.814 4042.29,265.612 C 4035.33,269.501 4029.79,274.498 4025.67,280.596 C 4021.56,286.694 4019.5,293.447 4019.5,300.858 C 4019.5,306.768 4020.72,312.231 4023.15,317.244 C 4025.58,322.26 4028.95,326.599 4033.25,330.268 C 4037.55,333.933 4042.62,336.797 4048.46,338.853 C 4054.3,340.913 4060.66,341.941 4067.54,341.941 C 4074.5,341.941 4080.92,340.893 4086.8,338.796 C 4092.67,336.701 4097.76,333.818 4102.06,330.153 C 4106.36,326.487 4109.71,322.148 4112.1,317.132 C 4114.5,312.119 4115.7,306.695 4115.7,300.858 C 4115.7,293.447 4113.64,286.694 4109.52,280.596 C 4105.41,274.498 4099.95,269.501 4093.14,265.612 C 4097.78,263.814 4101.87,261.477 4105.43,258.594 C 4108.98,255.714 4111.96,252.438 4114.35,248.773 C 4116.75,245.104 4118.54,241.1 4119.74,236.761 C 4120.94,232.422 4121.54,227.898 4121.54,223.182 C 4121.54,216.148 4120.22,209.711 4117.61,203.875 C 4114.98,198.038 4111.32,193.041 4106.61,188.887 C 4101.89,184.733 4096.24,181.499 4089.66,179.178 C 4083.07,176.86 4075.81,175.697 4067.88,175.697 C 4060.02,175.697 4052.82,176.86 4046.27,179.178 C 4039.72,181.499 4034.07,184.733 4029.32,188.887 C 4024.57,193.041 4020.87,198.038 4018.21,203.875 C 4015.55,209.711 4014.22,216.148 4014.22,223.182 Z M 4039.59,225.426 C 4039.59,220.861 4040.27,216.745 4041.61,213.076 C 4042.96,209.411 4044.87,206.304 4047.34,203.76 C 4049.81,201.215 4052.78,199.27 4056.26,197.923 C 4059.74,196.579 4063.61,195.905 4067.88,195.905 C 4072,195.905 4075.78,196.598 4079.22,197.98 C 4082.66,199.366 4085.63,201.349 4088.14,203.929 C 4090.65,206.512 4092.61,209.615 4094.03,213.246 C 4095.45,216.876 4096.17,220.937 4096.17,225.426 C 4096.17,229.542 4095.49,233.415 4094.15,237.042 C 4092.8,240.672 4090.89,243.833 4088.42,246.528 C 4085.95,249.223 4082.98,251.356 4079.5,252.927 C 4076.02,254.497 4072.15,255.283 4067.88,255.283 C 4063.84,255.283 4060.08,254.555 4056.6,253.096 C 4053.12,251.637 4050.13,249.577 4047.62,246.921 C 4045.11,244.264 4043.15,241.103 4041.73,237.435 C 4040.31,233.769 4039.59,229.766 4039.59,225.426 Z M 4045.09,298.163 C 4045.09,294.798 4045.69,291.672 4046.89,288.789 C 4048.09,285.909 4049.69,283.403 4051.71,281.27 C 4053.74,279.137 4056.11,277.47 4058.84,276.273 C 4061.58,275.076 4064.51,274.478 4067.66,274.478 C 4070.8,274.478 4073.73,275.095 4076.47,276.33 C 4079.2,277.563 4081.59,279.249 4083.65,281.381 C 4085.71,283.514 4087.33,286.021 4088.54,288.901 C 4089.73,291.784 4090.33,294.871 4090.33,298.163 C 4090.33,301.532 4089.75,304.673 4088.59,307.592 C 4087.43,310.51 4085.84,313.016 4083.82,315.111 C 4081.8,317.209 4079.4,318.856 4076.64,320.05 C 4073.87,321.251 4070.88,321.848 4067.66,321.848 C 4064.29,321.848 4061.22,321.232 4058.45,319.996 C 4055.68,318.76 4053.31,317.059 4051.32,314.887 C 4049.34,312.719 4047.81,310.194 4046.72,307.311 C 4045.64,304.431 4045.09,301.382 4045.09,298.163 Z" fill-rule="nonzero" stroke-linejoin="round" stroke-linecap="round" stroke-width="0.25" fill="#ffffff" marker-start="none" marker-end="none"/>
  </g>
 </g>
</svg>
