<?xml version="1.0" standalone="no"?>
<!DOCTYPE svg PUBLIC "-//W3C//DTD SVG 1.1//EN" "http://www.w3.org/Graphics/SVG/1.1/DTD/svg11.dtd">
<!--Generator: Xara Designer (www.xara.com), SVG filter version: 6.3.0.31-->
<svg fill="none" fill-rule="evenodd" stroke="black" stroke-width="0.501" stroke-linejoin="bevel" stroke-miterlimit="10" font-family="Times New Roman" font-size="16" style="font-variant-ligatures:none" xmlns:xlink="http://www.w3.org/1999/xlink" xmlns="http://www.w3.org/2000/svg" version="1.1" overflow="visible" width="338.321pt" height="249.007pt" viewBox="4267.96 -941.621 338.321 249.007">
 <defs>
	</defs>
 <g id="Layer 1" transform="scale(1 -1)">
  <g id="Group" stroke="none">
   <path d="M 4267.96,941.621 L 4267.96,692.614 L 4606.28,692.614 L 4606.28,941.621 L 4267.96,941.621 Z" fill="#ffffff" stroke-linejoin="miter" marker-start="none" marker-end="none"/>
   <path d="M 4276.96,701.505 L 4276.96,932.731 L 4597.28,932.731 L 4597.28,701.505 L 4276.96,701.505 Z" fill="#002a6c" stroke-linejoin="miter" marker-start="none" marker-end="none"/>
   <path d="M 4366.01,910.838 L 4366.01,746.28 L 4339.96,746.28 L 4339.96,878.96 C 4335.25,875.592 4330.18,872.728 4324.75,870.371 C 4319.33,868.015 4313.14,865.94 4306.18,864.142 L 4306.18,886.368 C 4310.52,887.788 4314.7,889.286 4318.75,890.857 C 4322.79,892.431 4326.77,894.19 4330.7,896.135 C 4334.63,898.079 4338.6,900.247 4342.6,902.645 C 4346.61,905.036 4350.74,907.769 4355.01,910.838 L 4366.01,910.838 Z" fill-rule="nonzero" stroke-linejoin="round" stroke-linecap="round" stroke-width="0.25" fill="#ffffff" marker-start="none" marker-end="none"/>
   <path d="M 4493.41,907.246 L 4493.41,803.302 L 4517.32,803.302 L 4517.32,781.638 L 4493.41,781.638 L 4493.41,746.28 L 4468.15,746.28 L 4468.15,781.638 L 4395.3,781.638 L 4395.3,803.529 C 4401.89,810.936 4408.64,818.96 4415.56,827.606 C 4422.49,836.249 4429.15,845.081 4435.55,854.097 C 4441.94,863.114 4447.87,872.15 4453.34,881.205 C 4458.8,890.26 4463.4,898.941 4467.14,907.246 L 4493.41,907.246 Z M 4468.15,803.302 L 4468.15,870.876 C 4460,856.211 4451.93,843.414 4443.96,832.488 C 4435.99,821.562 4428.53,811.833 4421.57,803.302 L 4468.15,803.302 Z" fill-rule="nonzero" stroke-linejoin="round" stroke-linecap="round" stroke-width="0.25" fill="#ffffff" marker-start="none" marker-end="none"/>
  </g>
 </g>
</svg>
