<?xml version="1.0" standalone="no"?>
<!DOCTYPE svg PUBLIC "-//W3C//DTD SVG 1.1//EN" "http://www.w3.org/Graphics/SVG/1.1/DTD/svg11.dtd">
<!--Generator: Xara Designer (www.xara.com), SVG filter version: 6.3.0.31-->
<svg fill="none" fill-rule="evenodd" stroke="black" stroke-width="0.501" stroke-linejoin="bevel" stroke-miterlimit="10" font-family="Times New Roman" font-size="16" style="font-variant-ligatures:none" xmlns:xlink="http://www.w3.org/1999/xlink" xmlns="http://www.w3.org/2000/svg" version="1.1" overflow="visible" width="248.321pt" height="249.007pt" viewBox="3975 -2077.62 248.321 249.007">
 <defs>
	</defs>
 <g id="Layer 1" transform="scale(1 -1)">
  <g id="Group" stroke="none">
   <path d="M 3975,2077.62 L 3975,1828.61 L 4223.32,1828.61 L 4223.32,2077.62 L 3975,2077.62 Z" fill="#ffffff" stroke-linejoin="miter" marker-start="none" marker-end="none"/>
   <path d="M 3984,1837.51 L 3984,2068.73 L 4214.32,2068.73 L 4214.32,1837.51 L 3984,1837.51 Z" fill="#002a6c" stroke-linejoin="miter" marker-start="none" marker-end="none"/>
   <path d="M 4116.03,1882.28 L 4015.01,1882.28 L 4015.01,1894.74 C 4015.01,1899.83 4015.72,1904.6 4017.14,1909.05 C 4018.57,1913.5 4020.47,1917.69 4022.87,1921.62 C 4025.26,1925.55 4028.07,1929.26 4031.29,1932.74 C 4034.51,1936.22 4037.95,1939.58 4041.61,1942.84 C 4045.28,1946.09 4049.02,1949.24 4052.84,1952.27 C 4056.66,1955.3 4060.4,1958.35 4064.06,1961.42 C 4067.51,1964.34 4070.65,1967.2 4073.49,1970.01 C 4076.34,1972.81 4078.77,1975.71 4080.79,1978.7 C 4082.81,1981.69 4084.38,1984.86 4085.5,1988.19 C 4086.63,1991.52 4087.19,1995.13 4087.19,1999.02 C 4087.19,2003.29 4086.53,2007.01 4085.22,2010.19 C 4083.92,2013.37 4082.08,2016.03 4079.72,2018.16 C 4077.36,2020.29 4074.58,2021.9 4071.36,2022.98 C 4068.14,2024.07 4064.63,2024.61 4060.81,2024.61 C 4054.22,2024.61 4047.53,2023.08 4040.72,2020.01 C 4033.91,2016.94 4027.36,2012.34 4021.07,2006.21 L 4021.07,2031.23 C 4024.36,2033.71 4027.69,2035.86 4031.06,2037.69 C 4034.43,2039.52 4037.91,2041.06 4041.5,2042.29 C 4045.09,2043.53 4048.87,2044.44 4052.84,2045.04 C 4056.81,2045.64 4061.03,2045.94 4065.52,2045.94 C 4072.78,2045.94 4079.37,2044.99 4085.28,2043.08 C 4091.19,2041.17 4096.24,2038.36 4100.43,2034.66 C 4104.62,2030.95 4107.86,2026.33 4110.14,2020.8 C 4112.42,2015.26 4113.57,2008.9 4113.57,2001.71 C 4113.57,1995.2 4112.76,1989.35 4111.15,1984.15 C 4109.54,1978.95 4107.26,1974.1 4104.3,1969.61 C 4101.35,1965.12 4097.78,1960.85 4093.59,1956.82 C 4089.4,1952.77 4084.72,1948.62 4079.55,1944.35 C 4075.21,1940.83 4070.89,1937.41 4066.59,1934.09 C 4062.29,1930.75 4058.41,1927.5 4054.97,1924.32 C 4051.53,1921.14 4048.74,1917.96 4046.61,1914.78 C 4044.48,1911.6 4043.41,1908.4 4043.41,1905.18 L 4043.41,1904.62 L 4116.03,1904.62 L 4116.03,1882.28 Z" fill-rule="nonzero" stroke-linejoin="round" stroke-linecap="round" stroke-width="0.25" fill="#ffffff" marker-start="none" marker-end="none"/>
  </g>
 </g>
</svg>
