<?xml version="1.0" standalone="no"?>
<!DOCTYPE svg PUBLIC "-//W3C//DTD SVG 1.1//EN" "http://www.w3.org/Graphics/SVG/1.1/DTD/svg11.dtd">
<!--Generator: Xara Designer (www.xara.com), SVG filter version: 6.3.0.31-->
<svg fill="none" fill-rule="evenodd" stroke="black" stroke-width="0.501" stroke-linejoin="bevel" stroke-miterlimit="10" font-family="Times New Roman" font-size="16" style="font-variant-ligatures:none" xmlns:xlink="http://www.w3.org/1999/xlink" xmlns="http://www.w3.org/2000/svg" version="1.1" overflow="visible" width="248.321pt" height="249.007pt" viewBox="3975 -941.621 248.321 249.007">
 <defs>
	</defs>
 <g id="Layer 1" transform="scale(1 -1)">
  <g id="Group" stroke="none">
   <path d="M 3975,941.621 L 3975,692.614 L 4223.32,692.614 L 4223.32,941.621 L 3975,941.621 Z" fill="#ffffff" stroke-linejoin="miter" marker-start="none" marker-end="none"/>
   <path d="M 3984,701.505 L 3984,932.731 L 4214.32,932.731 L 4214.32,701.505 L 3984,701.505 Z" fill="#002a6c" stroke-linejoin="miter" marker-start="none" marker-end="none"/>
   <path d="M 4123.55,798.027 C 4123.55,789.943 4122.23,782.574 4119.57,775.913 C 4116.91,769.256 4113.23,763.512 4108.51,758.685 C 4103.8,753.857 4098.21,750.115 4091.73,747.459 C 4085.26,744.802 4078.24,743.474 4070.69,743.474 C 4062.61,743.474 4055.18,745.045 4048.4,748.19 C 4041.63,751.332 4035.8,756.009 4030.89,762.219 C 4025.99,768.429 4022.19,776.156 4019.5,785.4 C 4016.81,794.643 4015.46,805.361 4015.46,817.558 C 4015.46,832.45 4017.24,845.659 4020.79,857.182 C 4024.35,868.708 4029.23,878.363 4035.44,886.144 C 4041.65,893.928 4048.95,899.838 4057.33,903.877 C 4065.71,907.92 4074.76,909.941 4084.49,909.941 C 4090.55,909.941 4096.07,909.529 4101.05,908.705 C 4106.02,907.881 4110.01,906.757 4113.01,905.337 L 4113.01,881.878 C 4109.19,883.823 4105.11,885.47 4100.77,886.818 C 4096.43,888.165 4091.45,888.839 4085.84,888.836 C 4079.55,888.839 4073.76,887.565 4068.44,885.02 C 4063.13,882.476 4058.54,878.753 4054.69,873.852 C 4050.84,868.951 4047.81,862.89 4045.6,855.668 C 4043.39,848.446 4042.25,840.122 4042.17,830.694 L 4042.85,830.694 C 4046.29,836.007 4050.95,840.196 4056.82,843.264 C 4062.7,846.332 4069.6,847.865 4077.53,847.865 C 4084.57,847.865 4090.91,846.725 4096.56,844.442 C 4102.21,842.159 4107.04,838.867 4111.04,834.563 C 4115.05,830.263 4118.13,825.023 4120.3,818.851 C 4122.47,812.676 4123.55,805.735 4123.55,798.027 Z M 4097.29,795.894 C 4097.29,800.537 4096.75,804.764 4095.66,808.58 C 4094.58,812.395 4092.93,815.668 4090.72,818.401 C 4088.52,821.131 4085.75,823.245 4082.42,824.742 C 4079.09,826.24 4075.18,826.99 4070.69,826.987 C 4066.2,826.99 4062.25,826.185 4058.84,824.573 C 4055.44,822.967 4052.58,820.853 4050.26,818.232 C 4047.94,815.614 4046.2,812.619 4045.04,809.253 C 4043.88,805.885 4043.3,802.443 4043.3,798.925 C 4043.3,795.109 4043.84,791.198 4044.92,787.194 C 4046.01,783.19 4047.68,779.544 4049.92,776.252 C 4052.17,772.96 4055.03,770.246 4058.51,768.113 C 4061.99,765.98 4066.12,764.914 4070.91,764.914 C 4075.18,764.914 4078.96,765.699 4082.25,767.27 C 4085.54,768.841 4088.29,771.012 4090.5,773.781 C 4092.7,776.549 4094.39,779.822 4095.55,783.602 C 4096.71,787.382 4097.29,791.482 4097.29,795.894 Z" fill-rule="nonzero" stroke-linejoin="round" stroke-linecap="round" stroke-width="0.25" fill="#ffffff" marker-start="none" marker-end="none"/>
  </g>
 </g>
</svg>
