<?xml version="1.0" standalone="no"?>
<!DOCTYPE svg PUBLIC "-//W3C//DTD SVG 1.1//EN" "http://www.w3.org/Graphics/SVG/1.1/DTD/svg11.dtd">
<!--Generator: Xara Designer (www.xara.com), SVG filter version: 6.3.0.31-->
<svg fill="none" fill-rule="evenodd" stroke="black" stroke-width="0.501" stroke-linejoin="bevel" stroke-miterlimit="10" font-family="Times New Roman" font-size="16" style="font-variant-ligatures:none" xmlns:xlink="http://www.w3.org/1999/xlink" xmlns="http://www.w3.org/2000/svg" version="1.1" overflow="visible" width="338.321pt" height="249.007pt" viewBox="4267.96 -373.621 338.321 249.007">
 <defs>
	</defs>
 <g id="Layer 1" transform="scale(1 -1)">
  <g id="Group" stroke="none">
   <path d="M 4267.96,373.621 L 4267.96,124.614 L 4606.28,124.614 L 4606.28,373.621 L 4267.96,373.621 Z" fill="#ffffff" stroke-linejoin="miter" marker-start="none" marker-end="none"/>
   <path d="M 4276.96,133.505 L 4276.96,364.731 L 4597.28,364.731 L 4597.28,133.505 L 4276.96,133.505 Z" fill="#002a6c" stroke-linejoin="miter" marker-start="none" marker-end="none"/>
   <path d="M 4366.01,342.838 L 4366.01,178.28 L 4339.96,178.28 L 4339.96,310.96 C 4335.25,307.592 4330.18,304.728 4324.75,302.371 C 4319.33,300.015 4313.14,297.94 4306.18,296.142 L 4306.18,318.368 C 4310.52,319.789 4314.7,321.286 4318.75,322.857 C 4322.79,324.431 4326.77,326.19 4330.7,328.135 C 4334.63,330.079 4338.6,332.247 4342.6,334.645 C 4346.61,337.036 4350.74,339.769 4355.01,342.838 L 4366.01,342.838 Z" fill-rule="nonzero" stroke-linejoin="round" stroke-linecap="round" stroke-width="0.25" fill="#ffffff" marker-start="none" marker-end="none"/>
   <path d="M 4509.01,230.027 C 4509.01,221.943 4507.68,214.574 4505.03,207.914 C 4502.37,201.256 4498.68,195.512 4493.97,190.685 C 4489.26,185.857 4483.66,182.115 4477.19,179.459 C 4470.72,176.802 4463.7,175.474 4456.14,175.474 C 4448.06,175.474 4440.64,177.045 4433.86,180.19 C 4427.09,183.332 4421.25,188.009 4416.35,194.219 C 4411.45,200.429 4407.65,208.156 4404.96,217.4 C 4402.26,226.643 4400.92,237.361 4400.92,249.558 C 4400.92,264.45 4402.69,277.659 4406.25,289.182 C 4409.8,300.708 4414.68,310.363 4420.9,318.144 C 4427.11,325.928 4434.4,331.838 4442.78,335.877 C 4451.17,339.92 4460.22,341.941 4469.95,341.941 C 4476.01,341.941 4481.53,341.529 4486.51,340.705 C 4491.48,339.881 4495.47,338.757 4498.46,337.337 L 4498.46,313.879 C 4494.65,315.823 4490.57,317.47 4486.23,318.818 C 4481.89,320.165 4476.91,320.839 4471.3,320.836 C 4465.01,320.839 4459.21,319.565 4453.9,317.02 C 4448.59,314.476 4444,310.753 4440.15,305.852 C 4436.29,300.951 4433.26,294.891 4431.05,287.668 C 4428.85,280.446 4427.7,272.122 4427.63,262.694 L 4428.3,262.694 C 4431.75,268.007 4436.41,272.196 4442.28,275.264 C 4448.15,278.332 4455.06,279.865 4462.99,279.865 C 4470.03,279.865 4476.37,278.725 4482.01,276.442 C 4487.67,274.159 4492.49,270.867 4496.49,266.563 C 4500.5,262.263 4503.59,257.023 4505.76,250.851 C 4507.93,244.676 4509.01,237.735 4509.01,230.027 Z M 4482.75,227.894 C 4482.75,232.537 4482.2,236.764 4481.12,240.58 C 4480.03,244.395 4478.39,247.668 4476.18,250.401 C 4473.97,253.131 4471.2,255.245 4467.87,256.742 C 4464.54,258.24 4460.63,258.99 4456.14,258.987 C 4451.65,258.99 4447.71,258.185 4444.3,256.573 C 4440.9,254.967 4438.03,252.853 4435.71,250.232 C 4433.39,247.614 4431.65,244.619 4430.49,241.253 C 4429.33,237.885 4428.75,234.443 4428.75,230.925 C 4428.75,227.109 4429.29,223.198 4430.38,219.194 C 4431.47,215.19 4433.13,211.544 4435.38,208.252 C 4437.62,204.96 4440.48,202.246 4443.96,200.113 C 4447.44,197.98 4451.58,196.914 4456.37,196.914 C 4460.63,196.914 4464.41,197.7 4467.7,199.27 C 4471,200.841 4473.74,203.012 4475.95,205.781 C 4478.16,208.549 4479.85,211.822 4481.01,215.602 C 4482.17,219.382 4482.75,223.482 4482.75,227.894 Z" fill-rule="nonzero" stroke-linejoin="round" stroke-linecap="round" stroke-width="0.25" fill="#ffffff" marker-start="none" marker-end="none"/>
  </g>
 </g>
</svg>
