<?xml version="1.0" standalone="no"?>
<!DOCTYPE svg PUBLIC "-//W3C//DTD SVG 1.1//EN" "http://www.w3.org/Graphics/SVG/1.1/DTD/svg11.dtd">
<!--Generator: Xara Designer (www.xara.com), SVG filter version: 6.3.0.31-->
<svg fill="none" fill-rule="evenodd" stroke="black" stroke-width="0.501" stroke-linejoin="bevel" stroke-miterlimit="10" font-family="Times New Roman" font-size="16" style="font-variant-ligatures:none" xmlns:xlink="http://www.w3.org/1999/xlink" xmlns="http://www.w3.org/2000/svg" version="1.1" overflow="visible" width="338.321pt" height="249.007pt" viewBox="4267.96 -1509.62 338.321 249.007">
 <defs>
	</defs>
 <g id="Layer 1" transform="scale(1 -1)">
  <g id="Group" stroke="none">
   <path d="M 4267.96,1509.62 L 4267.96,1260.61 L 4606.28,1260.61 L 4606.28,1509.62 L 4267.96,1509.62 Z" fill="#ffffff" stroke-linejoin="miter" marker-start="none" marker-end="none"/>
   <path d="M 4276.96,1269.51 L 4276.96,1500.73 L 4597.28,1500.73 L 4597.28,1269.51 L 4276.96,1269.51 Z" fill="#002a6c" stroke-linejoin="miter" marker-start="none" marker-end="none"/>
   <path d="M 4366.01,1478.84 L 4366.01,1314.28 L 4339.96,1314.28 L 4339.96,1446.96 C 4335.25,1443.59 4330.18,1440.73 4324.75,1438.37 C 4319.33,1436.02 4313.14,1433.94 4306.18,1432.14 L 4306.18,1454.37 C 4310.52,1455.79 4314.7,1457.29 4318.75,1458.86 C 4322.79,1460.43 4326.77,1462.19 4330.7,1464.14 C 4334.63,1466.08 4338.6,1468.25 4342.6,1470.65 C 4346.61,1473.04 4350.74,1475.77 4355.01,1478.84 L 4366.01,1478.84 Z" fill-rule="nonzero" stroke-linejoin="round" stroke-linecap="round" stroke-width="0.25" fill="#ffffff" marker-start="none" marker-end="none"/>
   <path d="M 4501.49,1314.28 L 4400.47,1314.28 L 4400.47,1326.74 C 4400.47,1331.83 4401.18,1336.6 4402.6,1341.05 C 4404.02,1345.5 4405.93,1349.69 4408.32,1353.62 C 4410.72,1357.55 4413.53,1361.26 4416.74,1364.74 C 4419.96,1368.22 4423.4,1371.58 4427.07,1374.84 C 4430.74,1378.09 4434.48,1381.24 4438.29,1384.27 C 4442.11,1387.3 4445.86,1390.35 4449.52,1393.42 C 4452.96,1396.34 4456.1,1399.2 4458.95,1402.01 C 4461.79,1404.81 4464.22,1407.71 4466.24,1410.7 C 4468.27,1413.69 4469.84,1416.86 4470.96,1420.19 C 4472.08,1423.52 4472.64,1427.13 4472.64,1431.02 C 4472.64,1435.29 4471.99,1439.01 4470.68,1442.19 C 4469.37,1445.37 4467.53,1448.03 4465.18,1450.16 C 4462.82,1452.29 4460.03,1453.9 4456.82,1454.98 C 4453.6,1456.07 4450.08,1456.61 4446.26,1456.61 C 4439.68,1456.61 4432.98,1455.08 4426.17,1452.01 C 4419.36,1448.94 4412.81,1444.34 4406.53,1438.2 L 4406.53,1463.23 C 4409.82,1465.71 4413.15,1467.86 4416.52,1469.69 C 4419.88,1471.52 4423.36,1473.06 4426.96,1474.29 C 4430.55,1475.53 4434.33,1476.44 4438.29,1477.04 C 4442.26,1477.64 4446.49,1477.94 4450.98,1477.94 C 4458.24,1477.94 4464.82,1476.99 4470.73,1475.08 C 4476.64,1473.17 4481.69,1470.36 4485.89,1466.66 C 4490.08,1462.95 4493.31,1458.33 4495.6,1452.8 C 4497.88,1447.26 4499.02,1440.9 4499.02,1433.71 C 4499.02,1427.2 4498.22,1421.35 4496.61,1416.15 C 4495,1410.95 4492.72,1406.1 4489.76,1401.61 C 4486.81,1397.12 4483.23,1392.85 4479.04,1388.82 C 4474.85,1384.77 4470.18,1380.62 4465.01,1376.35 C 4460.67,1372.84 4456.35,1369.41 4452.05,1366.09 C 4447.74,1362.75 4443.87,1359.5 4440.43,1356.32 C 4436.98,1353.14 4434.2,1349.96 4432.07,1346.78 C 4429.93,1343.6 4428.87,1340.4 4428.87,1337.18 L 4428.87,1336.62 L 4501.49,1336.62 L 4501.49,1314.28 Z" fill-rule="nonzero" stroke-linejoin="round" stroke-linecap="round" stroke-width="0.25" fill="#ffffff" marker-start="none" marker-end="none"/>
  </g>
 </g>
</svg>
