<?xml version="1.0" standalone="no"?>
<!DOCTYPE svg PUBLIC "-//W3C//DTD SVG 1.1//EN" "http://www.w3.org/Graphics/SVG/1.1/DTD/svg11.dtd">
<!--Generator: Xara Designer (www.xara.com), SVG filter version: 6.3.0.31-->
<svg fill="none" fill-rule="evenodd" stroke="black" stroke-width="0.501" stroke-linejoin="bevel" stroke-miterlimit="10" font-family="Times New Roman" font-size="16" style="font-variant-ligatures:none" xmlns:xlink="http://www.w3.org/1999/xlink" xmlns="http://www.w3.org/2000/svg" version="1.1" overflow="visible" width="75.756pt" height="55.758pt" viewBox="961.386 -722.596 75.756 55.758">
 <defs>
	</defs>
 <g id="Layer 1" transform="scale(1 -1)">
  <g id="Group" stroke-linejoin="miter" stroke="none">
   <path d="M 961.386,666.838 L 961.386,722.596 L 1037.14,722.596 L 1037.14,666.838 L 961.386,666.838 Z" stroke-opacity="0.749020" fill="#ffffff" marker-start="none" marker-end="none" fill-opacity="0.749020"/>
   <path d="M 963.401,668.829 L 963.401,720.605 L 1035.13,720.605 L 1035.13,668.829 L 963.401,668.829 Z M 982.596,685.039 C 983.457,685.522 984.112,686.223 984.563,687.145 C 985.012,688.066 985.237,689.174 985.237,690.468 L 985.237,697.443 L 979.413,697.443 L 979.413,694.86 L 982.49,694.86 L 982.49,690.402 C 982.49,689.678 982.372,689.061 982.136,688.551 C 981.899,688.041 981.56,687.652 981.116,687.383 C 980.671,687.114 980.131,686.98 979.495,686.98 C 978.848,686.98 978.295,687.103 977.834,687.351 C 977.374,687.597 977.021,687.953 976.773,688.42 C 976.526,688.886 976.403,689.447 976.403,690.106 L 976.403,702.592 C 976.403,703.327 976.521,703.956 976.756,704.476 C 976.993,704.997 977.335,705.391 977.785,705.66 C 978.234,705.929 978.771,706.063 979.397,706.063 C 979.978,706.063 980.469,705.937 980.87,705.685 C 981.27,705.433 981.573,705.06 981.782,704.566 C 981.99,704.073 982.095,703.475 982.095,702.772 L 982.095,701.605 L 985.04,701.605 L 985.04,702.772 C 985.04,704.024 984.817,705.096 984.374,705.989 C 983.929,706.884 983.285,707.564 982.44,708.03 C 981.596,708.495 980.581,708.729 979.397,708.729 C 978.19,708.729 977.156,708.487 976.296,708.005 C 975.435,707.521 974.78,706.823 974.329,705.908 C 973.88,704.991 973.656,703.886 973.656,702.592 L 973.656,690.106 C 973.656,688.889 973.883,687.846 974.338,686.98 C 974.793,686.113 975.459,685.453 976.336,684.998 C 977.213,684.542 978.268,684.314 979.495,684.315 C 980.702,684.314 981.736,684.556 982.596,685.039 Z M 1005.06,685.598 C 1005.94,686.454 1006.38,687.665 1006.38,689.233 L 1006.38,689.348 L 1003.7,689.348 L 1003.7,689.233 C 1003.7,688.489 1003.49,687.911 1003.08,687.498 C 1002.67,687.087 1002.09,686.882 1001.34,686.882 C 1000.54,686.882 999.923,687.148 999.484,687.68 C 999.046,688.211 998.826,688.955 998.826,689.908 L 998.826,692.014 L 1006.33,692.014 L 1006.33,696.391 C 1006.33,697.563 1006.13,698.564 1005.73,699.393 C 1005.33,700.22 1004.75,700.851 1003.98,701.284 C 1003.22,701.718 1002.3,701.934 1001.21,701.934 C 1000.15,701.934 999.237,701.701 998.48,701.235 C 997.723,700.769 997.145,700.086 996.744,699.187 C 996.343,698.287 996.144,697.202 996.144,695.93 L 996.144,689.99 C 996.144,688.795 996.349,687.773 996.76,686.922 C 997.172,686.073 997.765,685.425 998.537,684.982 C 999.311,684.537 1000.25,684.314 1001.34,684.315 C 1002.94,684.314 1004.18,684.742 1005.06,685.598 Z M 1023.51,684.891 C 1024.28,685.274 1024.87,685.839 1025.26,686.585 C 1025.66,687.331 1025.85,688.242 1025.85,689.316 C 1025.85,690.446 1025.65,691.34 1025.24,691.997 C 1024.83,692.655 1024.33,693.136 1023.73,693.437 C 1023.14,693.739 1022.38,694.032 1021.45,694.318 C 1021.42,694.317 1021.16,694.389 1021.13,694.399 C 1020.54,694.576 1020.05,694.758 1019.67,694.951 C 1019.29,695.143 1018.98,695.406 1018.74,695.741 C 1018.5,696.075 1018.39,696.505 1018.39,697.032 C 1018.39,697.843 1018.57,698.463 1018.94,698.891 C 1019.3,699.319 1019.85,699.533 1020.56,699.533 C 1021.27,699.533 1021.81,699.332 1022.19,698.932 C 1022.56,698.531 1022.75,697.947 1022.75,697.18 L 1022.75,697.114 L 1025.38,697.114 L 1025.38,697.163 C 1025.38,698.184 1025.19,699.05 1024.83,699.763 C 1024.46,700.476 1023.92,701.016 1023.2,701.383 C 1022.48,701.75 1021.6,701.934 1020.56,701.934 C 1019.53,701.934 1018.65,701.743 1017.93,701.359 C 1017.22,700.974 1016.67,700.412 1016.3,699.673 C 1015.92,698.932 1015.74,698.029 1015.74,696.966 C 1015.74,695.902 1015.94,695.047 1016.35,694.399 C 1016.77,693.752 1017.26,693.268 1017.85,692.943 C 1018.44,692.62 1019.18,692.311 1020.08,692.014 C 1020.12,692.003 1020.66,691.828 1020.72,691.817 C 1021.28,691.62 1021.73,691.428 1022.07,691.241 C 1022.41,691.054 1022.69,690.805 1022.9,690.492 C 1023.12,690.18 1023.22,689.788 1023.22,689.316 C 1023.22,688.472 1023.01,687.828 1022.57,687.383 C 1022.14,686.939 1021.51,686.717 1020.69,686.717 C 1019.87,686.717 1019.24,686.949 1018.81,687.417 C 1018.39,687.883 1018.17,688.554 1018.17,689.431 L 1018.17,689.497 L 1015.52,689.497 L 1015.52,689.431 C 1015.52,688.346 1015.72,687.418 1016.12,686.651 C 1016.52,685.883 1017.11,685.302 1017.88,684.907 C 1018.64,684.512 1019.58,684.314 1020.69,684.315 C 1021.8,684.314 1022.74,684.507 1023.51,684.891 Z M 994.006,684.562 L 994.006,687.145 L 993.002,687.145 C 992.497,687.145 992.111,687.315 991.842,687.654 C 991.573,687.995 991.438,688.467 991.438,689.069 L 991.438,708.481 L 988.692,708.481 L 988.692,689.086 C 988.692,687.649 989.04,686.536 989.736,685.746 C 990.432,684.956 991.417,684.562 992.689,684.562 L 994.006,684.562 Z M 1012.58,684.562 L 1012.58,701.637 L 1009.83,701.637 L 1009.83,684.562 L 1012.58,684.562 Z M 998.826,694.401 L 998.826,696.111 C 998.826,697.174 999.034,697.992 999.45,698.561 C 999.867,699.132 1000.45,699.416 1001.21,699.416 C 1001.99,699.416 1002.59,699.149 1003.01,698.611 C 1003.44,698.074 1003.65,697.312 1003.65,696.325 L 1003.65,694.401 L 998.826,694.401 Z M 1012.58,705.159 L 1012.58,707.906 L 1009.83,707.906 L 1009.83,705.159 L 1012.58,705.159 Z" fill="#002a6c" marker-start="none" marker-end="none"/>
  </g>
 </g>
</svg>
