<?xml version="1.0" standalone="no"?>
<!DOCTYPE svg PUBLIC "-//W3C//DTD SVG 1.1//EN" "http://www.w3.org/Graphics/SVG/1.1/DTD/svg11.dtd">
<!--Generator: Xara Designer (www.xara.com), SVG filter version: 6.3.0.31-->
<svg fill="none" fill-rule="evenodd" stroke="black" stroke-width="0.501" stroke-linejoin="bevel" stroke-miterlimit="10" font-family="Times New Roman" font-size="16" style="font-variant-ligatures:none" xmlns:xlink="http://www.w3.org/1999/xlink" xmlns="http://www.w3.org/2000/svg" version="1.1" overflow="visible" width="248.321pt" height="249.007pt" viewBox="4267.96 -2361.62 248.321 249.007">
 <defs>
	</defs>
 <g id="Layer 1" transform="scale(1 -1)">
  <g id="Group" stroke="none">
   <path d="M 4267.96,2361.62 L 4267.96,2112.61 L 4516.28,2112.61 L 4516.28,2361.62 L 4267.96,2361.62 Z" fill="#ffffff" stroke-linejoin="miter" marker-start="none" marker-end="none"/>
   <path d="M 4276.96,2121.51 L 4276.96,2352.73 L 4507.28,2352.73 L 4507.28,2121.51 L 4276.96,2121.51 Z" fill="#002a6c" stroke-linejoin="miter" marker-start="none" marker-end="none"/>
   <path d="M 4414.5,2255.52 C 4414.5,2239.43 4412.76,2225.59 4409.28,2213.99 C 4405.8,2202.39 4401.01,2192.85 4394.91,2185.36 C 4388.81,2177.88 4381.66,2172.36 4373.47,2168.81 C 4365.27,2165.25 4356.47,2163.47 4347.04,2163.47 C 4343.97,2163.47 4340.88,2163.66 4337.77,2164.04 C 4334.67,2164.41 4331.71,2164.9 4328.91,2165.49 C 4326.1,2166.09 4323.56,2166.75 4321.27,2167.46 C 4318.99,2168.17 4317.1,2168.86 4315.61,2169.54 L 4315.61,2192.99 C 4317.18,2192.02 4319.12,2191.03 4321.44,2190.02 C 4323.76,2189.01 4326.29,2188.11 4329.02,2187.33 C 4331.75,2186.54 4334.59,2185.9 4337.55,2185.42 C 4340.5,2184.93 4343.37,2184.69 4346.14,2184.69 C 4352.5,2184.69 4358.28,2185.93 4363.48,2188.39 C 4368.68,2190.87 4373.11,2194.53 4376.78,2199.39 C 4380.45,2204.26 4383.28,2210.3 4385.26,2217.52 C 4387.24,2224.74 4388.23,2233.11 4388.23,2242.61 L 4387.78,2242.61 C 4386.43,2240.22 4384.66,2237.95 4382.45,2235.82 C 4380.24,2233.69 4377.72,2231.82 4374.87,2230.2 C 4372.03,2228.6 4368.87,2227.31 4365.39,2226.34 C 4361.91,2225.36 4358.19,2224.87 4354.22,2224.88 C 4347.49,2224.87 4341.22,2226.05 4335.42,2228.41 C 4329.62,2230.77 4324.59,2234.12 4320.32,2238.45 C 4316.06,2242.8 4312.71,2248.08 4310.27,2254.29 C 4307.84,2260.5 4306.63,2267.42 4306.62,2275.05 C 4306.63,2283.43 4308.01,2291.01 4310.78,2297.78 C 4313.55,2304.55 4317.36,2310.31 4322.23,2315.07 C 4327.09,2319.82 4332.82,2323.49 4339.4,2326.07 C 4345.99,2328.65 4353.13,2329.94 4360.84,2329.94 C 4368.1,2329.94 4374.96,2328.57 4381.44,2325.84 C 4387.91,2323.11 4393.6,2318.77 4398.5,2312.82 C 4403.4,2306.87 4407.29,2299.18 4410.18,2289.76 C 4413.06,2280.33 4414.5,2268.91 4414.5,2255.52 Z M 4387.33,2272.69 C 4387.33,2278.08 4386.64,2282.98 4385.26,2287.4 C 4383.87,2291.82 4381.94,2295.59 4379.48,2298.73 C 4377,2301.88 4374.07,2304.31 4370.66,2306.03 C 4367.26,2307.75 4363.53,2308.61 4359.49,2308.61 C 4355.9,2308.61 4352.48,2307.88 4349.22,2306.43 C 4345.97,2304.97 4343.13,2302.89 4340.69,2300.19 C 4338.26,2297.5 4336.33,2294.24 4334.91,2290.43 C 4333.49,2286.61 4332.78,2282.39 4332.78,2277.74 C 4332.78,2272.66 4333.47,2268.17 4334.86,2264.27 C 4336.24,2260.38 4338.17,2257.11 4340.64,2254.45 C 4343.11,2251.8 4346.08,2249.77 4349.56,2248.39 C 4353.04,2247.01 4356.87,2246.31 4361.07,2246.31 C 4364.81,2246.31 4368.27,2247.01 4371.45,2248.39 C 4374.63,2249.77 4377.4,2251.65 4379.76,2254.01 C 4382.11,2256.36 4383.97,2259.15 4385.31,2262.37 C 4386.66,2265.58 4387.33,2269.02 4387.33,2272.69 Z" fill-rule="nonzero" stroke-linejoin="round" stroke-linecap="round" stroke-width="0.25" fill="#ffffff" marker-start="none" marker-end="none"/>
  </g>
 </g>
</svg>
