<?xml version="1.0" standalone="no"?>
<!DOCTYPE svg PUBLIC "-//W3C//DTD SVG 1.1//EN" "http://www.w3.org/Graphics/SVG/1.1/DTD/svg11.dtd">
<!--Generator: Xara Designer (www.xara.com), SVG filter version: 6.3.0.31-->
<svg fill="none" fill-rule="evenodd" stroke="black" stroke-width="0.501" stroke-linejoin="bevel" stroke-miterlimit="10" font-family="Times New Roman" font-size="16" style="font-variant-ligatures:none" xmlns:xlink="http://www.w3.org/1999/xlink" xmlns="http://www.w3.org/2000/svg" version="1.1" overflow="visible" width="75.756pt" height="55.758pt" viewBox="961.386 -722.596 75.756 55.758">
 <defs>
	</defs>
 <g id="Layer 1" transform="scale(1 -1)">
  <g id="Group" stroke-linejoin="miter" stroke="none">
   <path d="M 961.386,666.838 L 961.386,722.596 L 1037.14,722.596 L 1037.14,666.838 L 961.386,666.838 Z" stroke-opacity="0.749020" fill="#ffffff" marker-start="none" marker-end="none" fill-opacity="0.749020"/>
   <path d="M 963.401,668.829 L 963.401,720.605 L 1035.13,720.605 L 1035.13,668.829 L 963.401,668.829 Z M 982.596,685.78 C 983.457,686.263 984.112,686.964 984.563,687.886 C 985.012,688.807 985.237,689.915 985.237,691.209 L 985.237,698.184 L 979.413,698.184 L 979.413,695.601 L 982.49,695.601 L 982.49,691.143 C 982.49,690.419 982.372,689.802 982.136,689.292 C 981.899,688.782 981.56,688.393 981.116,688.124 C 980.671,687.855 980.131,687.721 979.495,687.721 C 978.848,687.721 978.295,687.844 977.834,688.092 C 977.374,688.338 977.021,688.694 976.773,689.161 C 976.526,689.627 976.403,690.188 976.403,690.847 L 976.403,703.333 C 976.403,704.068 976.521,704.697 976.756,705.217 C 976.993,705.738 977.335,706.132 977.785,706.401 C 978.234,706.67 978.771,706.804 979.397,706.804 C 979.978,706.804 980.469,706.678 980.87,706.426 C 981.27,706.174 981.573,705.801 981.782,705.307 C 981.99,704.814 982.095,704.216 982.095,703.513 L 982.095,702.346 L 985.04,702.346 L 985.04,703.513 C 985.04,704.765 984.817,705.837 984.374,706.73 C 983.929,707.625 983.285,708.305 982.44,708.771 C 981.596,709.236 980.581,709.47 979.397,709.47 C 978.19,709.47 977.156,709.228 976.296,708.746 C 975.435,708.262 974.78,707.564 974.329,706.649 C 973.88,705.732 973.656,704.627 973.656,703.333 L 973.656,690.847 C 973.656,689.63 973.883,688.587 974.338,687.721 C 974.793,686.854 975.459,686.194 976.336,685.739 C 977.213,685.283 978.268,685.055 979.495,685.056 C 980.702,685.055 981.736,685.297 982.596,685.78 Z M 1005.06,686.339 C 1005.94,687.195 1006.38,688.406 1006.38,689.974 L 1006.38,690.089 L 1003.7,690.089 L 1003.7,689.974 C 1003.7,689.23 1003.49,688.652 1003.08,688.239 C 1002.67,687.828 1002.09,687.623 1001.34,687.623 C 1000.54,687.623 999.923,687.889 999.484,688.421 C 999.046,688.952 998.826,689.696 998.826,690.649 L 998.826,692.755 L 1006.33,692.755 L 1006.33,697.132 C 1006.33,698.304 1006.13,699.305 1005.73,700.134 C 1005.33,700.961 1004.75,701.592 1003.98,702.025 C 1003.22,702.459 1002.3,702.675 1001.21,702.675 C 1000.15,702.675 999.237,702.442 998.48,701.976 C 997.723,701.51 997.145,700.827 996.744,699.928 C 996.343,699.028 996.144,697.943 996.144,696.671 L 996.144,690.731 C 996.144,689.536 996.349,688.514 996.76,687.663 C 997.172,686.814 997.765,686.166 998.537,685.723 C 999.311,685.278 1000.25,685.055 1001.34,685.056 C 1002.94,685.055 1004.18,685.483 1005.06,686.339 Z M 1023.51,685.632 C 1024.28,686.015 1024.87,686.58 1025.26,687.326 C 1025.66,688.072 1025.85,688.983 1025.85,690.057 C 1025.85,691.187 1025.65,692.081 1025.24,692.738 C 1024.83,693.396 1024.33,693.877 1023.73,694.178 C 1023.14,694.48 1022.38,694.773 1021.45,695.059 C 1021.42,695.058 1021.16,695.13 1021.13,695.14 C 1020.54,695.317 1020.05,695.499 1019.67,695.692 C 1019.29,695.884 1018.98,696.147 1018.74,696.482 C 1018.5,696.816 1018.39,697.246 1018.39,697.773 C 1018.39,698.584 1018.57,699.204 1018.94,699.632 C 1019.3,700.06 1019.85,700.274 1020.56,700.274 C 1021.27,700.274 1021.81,700.073 1022.19,699.673 C 1022.56,699.272 1022.75,698.688 1022.75,697.921 L 1022.75,697.855 L 1025.38,697.855 L 1025.38,697.904 C 1025.38,698.925 1025.19,699.791 1024.83,700.504 C 1024.46,701.217 1023.92,701.757 1023.2,702.124 C 1022.48,702.491 1021.6,702.675 1020.56,702.675 C 1019.53,702.675 1018.65,702.484 1017.93,702.1 C 1017.22,701.715 1016.67,701.153 1016.3,700.414 C 1015.92,699.673 1015.74,698.77 1015.74,697.707 C 1015.74,696.643 1015.94,695.788 1016.35,695.14 C 1016.77,694.493 1017.26,694.009 1017.85,693.684 C 1018.44,693.361 1019.18,693.052 1020.08,692.755 C 1020.12,692.744 1020.66,692.569 1020.72,692.558 C 1021.28,692.361 1021.73,692.169 1022.07,691.982 C 1022.41,691.795 1022.69,691.546 1022.9,691.233 C 1023.12,690.921 1023.22,690.529 1023.22,690.057 C 1023.22,689.213 1023.01,688.569 1022.57,688.124 C 1022.14,687.68 1021.51,687.458 1020.69,687.458 C 1019.87,687.458 1019.24,687.69 1018.81,688.158 C 1018.39,688.624 1018.17,689.295 1018.17,690.172 L 1018.17,690.238 L 1015.52,690.238 L 1015.52,690.172 C 1015.52,689.087 1015.72,688.159 1016.12,687.392 C 1016.52,686.624 1017.11,686.043 1017.88,685.648 C 1018.64,685.253 1019.58,685.055 1020.69,685.056 C 1021.8,685.055 1022.74,685.248 1023.51,685.632 Z M 994.006,685.303 L 994.006,687.886 L 993.002,687.886 C 992.497,687.886 992.111,688.056 991.842,688.395 C 991.573,688.736 991.438,689.208 991.438,689.81 L 991.438,709.222 L 988.692,709.222 L 988.692,689.827 C 988.692,688.39 989.04,687.277 989.736,686.487 C 990.432,685.697 991.417,685.303 992.689,685.303 L 994.006,685.303 Z M 1012.58,685.303 L 1012.58,702.378 L 1009.83,702.378 L 1009.83,685.303 L 1012.58,685.303 Z M 998.826,695.142 L 998.826,696.852 C 998.826,697.915 999.034,698.733 999.45,699.302 C 999.867,699.873 1000.45,700.157 1001.21,700.157 C 1001.99,700.157 1002.59,699.89 1003.01,699.352 C 1003.44,698.815 1003.65,698.053 1003.65,697.066 L 1003.65,695.142 L 998.826,695.142 Z M 1012.58,705.9 L 1012.58,708.647 L 1009.83,708.647 L 1009.83,705.9 L 1012.58,705.9 Z" fill="#002a6c" marker-start="none" marker-end="none"/>
  </g>
 </g>
</svg>
