<?xml version="1.0" standalone="no"?>
<!DOCTYPE svg PUBLIC "-//W3C//DTD SVG 1.1//EN" "http://www.w3.org/Graphics/SVG/1.1/DTD/svg11.dtd">
<!--Generator: Xara Designer (www.xara.com), SVG filter version: 6.3.0.31-->
<svg fill="none" fill-rule="evenodd" stroke="black" stroke-width="0.501" stroke-linejoin="bevel" stroke-miterlimit="10" font-family="Times New Roman" font-size="16" style="font-variant-ligatures:none" xmlns:xlink="http://www.w3.org/1999/xlink" xmlns="http://www.w3.org/2000/svg" version="1.1" overflow="visible" width="709.279pt" height="249.007pt" viewBox="2426.81 -3231.76 709.279 249.007">
 <defs>
	</defs>
 <g id="Layer 1" transform="scale(1 -1)">
  <g id="Group" stroke="none">
   <rect x="-112.359" y="-230.136" width="224.719" height="460.272" transform="translate(2905.95 3107.26) rotate(90)" fill="#e0818c" stroke-linejoin="miter"/>
   <path d="M 2774.2,3026.21 L 2774.2,3043.98 C 2774.2,3053.38 2776.1,3062.1 2780.12,3069.93 C 2783.77,3077.06 2788.32,3083.57 2793.76,3089.46 C 2798.96,3095.09 2804.63,3100.33 2810.75,3105.17 C 2816.34,3109.6 2821.47,3114 2826.16,3118.38 C 2830.63,3122.56 2834.27,3126.75 2837.13,3130.94 C 2839.4,3134.26 2840.49,3137.78 2840.49,3141.73 C 2840.49,3145.35 2839.45,3147.27 2838.1,3148.56 C 2837.01,3149.6 2834.38,3151.01 2828.32,3151.01 C 2824.19,3151.01 2819.78,3150.65 2815.06,3149.91 C 2811.33,3149.33 2805.92,3147.43 2798.61,3143.62 C 2793.71,3141.07 2787.68,3143.51 2785.94,3148.76 L 2777.54,3174.22 C 2776.15,3178.41 2778.04,3183 2781.97,3185.01 C 2790.12,3189.18 2798.98,3191.93 2808.52,3193.35 C 2817.55,3194.68 2826.24,3195.36 2834.57,3195.36 C 2842.76,3195.36 2850.5,3194.45 2857.74,3192.55 C 2865.08,3190.62 2871.69,3187.62 2877.43,3183.44 C 2883.36,3179.11 2888,3173.54 2891.34,3166.87 C 2894.8,3159.95 2896.37,3152.12 2896.37,3143.65 C 2896.37,3135.02 2894.39,3126.84 2890.44,3119.22 C 2886.81,3112.24 2882.32,3105.69 2876.99,3099.57 C 2871.79,3093.6 2866.13,3088.07 2860,3082.96 C 2854.3,3078.21 2849.04,3073.7 2844.23,3069.45 C 2841.91,3067.39 2839.8,3065.41 2837.91,3063.52 L 2836.35,3061.84 L 2889.32,3061.84 C 2894.27,3061.84 2898.29,3057.82 2898.29,3052.87 L 2898.29,3026.21 C 2898.29,3021.26 2894.27,3017.24 2889.32,3017.24 L 2783.18,3017.24 C 2778.22,3017.24 2774.2,3021.26 2774.2,3026.21 Z" fill="#a5555f" stroke-linejoin="round" stroke-width="0.242" marker-start="none" marker-end="none"/>
   <path d="M 2783.18,3026.21 L 2783.18,3043.98 C 2783.18,3052.15 2784.82,3059.43 2788.1,3065.84 C 2791.38,3072.24 2795.46,3078.09 2800.35,3083.37 C 2805.23,3088.65 2810.55,3093.58 2816.32,3098.14 C 2822.08,3102.7 2827.4,3107.26 2832.29,3111.83 C 2837.17,3116.39 2841.25,3121.07 2844.53,3125.88 C 2847.82,3130.68 2849.46,3135.96 2849.46,3141.73 C 2849.46,3147.33 2847.74,3151.77 2844.29,3155.05 C 2840.85,3158.34 2835.53,3159.98 2828.32,3159.98 C 2823.68,3159.98 2818.8,3159.58 2813.68,3158.78 C 2808.55,3157.98 2802.15,3155.58 2794.46,3151.57 L 2786.06,3177.03 C 2793.26,3180.71 2801.19,3183.19 2809.83,3184.47 C 2818.48,3185.75 2826.72,3186.39 2834.57,3186.39 C 2842.09,3186.39 2849.06,3185.55 2855.46,3183.87 C 2861.86,3182.19 2867.43,3179.63 2872.15,3176.19 C 2876.87,3172.75 2880.6,3168.3 2883.32,3162.86 C 2886.04,3157.42 2887.4,3151.01 2887.4,3143.65 C 2887.4,3136.44 2885.76,3129.68 2882.48,3123.35 C 2879.2,3117.03 2875.11,3111.07 2870.23,3105.46 C 2865.35,3099.86 2860.02,3094.66 2854.26,3089.85 C 2848.5,3085.05 2843.17,3080.49 2838.29,3076.17 C 2833.41,3071.84 2829.32,3067.76 2826.04,3063.92 C 2822.76,3060.08 2821.12,3056.39 2821.12,3052.87 L 2889.32,3052.87 L 2889.32,3026.21 L 2783.18,3026.21 Z" stroke-linejoin="round" stroke-width="0.242" fill-rule="nonzero" stroke-linecap="round" fill="#ffffff" marker-start="none" marker-end="none"/>
   <path d="M 2939.47,3015.89 C 2933.18,3016.76 2925.88,3018.39 2917.63,3020.7 C 2913.42,3021.88 2910.67,3025.93 2911.13,3030.28 L 2914.01,3057.42 C 2914.64,3063.31 2920.72,3066.99 2926.23,3064.81 C 2932.58,3062.3 2938.2,3060.82 2943.12,3060.21 C 2948.81,3059.51 2953.08,3059.2 2956.07,3059.2 C 2964.78,3059.2 2969.38,3061.4 2971.86,3064.05 C 2974.86,3067.24 2976.64,3071.56 2976.64,3077.85 C 2976.64,3082.93 2975.1,3086.34 2972.42,3088.92 C 2969.95,3091.31 2965.84,3093.13 2958.71,3093.13 C 2954.47,3093.13 2949.61,3092.84 2944.1,3092.22 C 2938.67,3091.62 2932.63,3090.63 2925.97,3089.24 C 2920.28,3088.05 2914.97,3092.51 2915.17,3098.32 L 2918.05,3184.05 C 2918.21,3188.88 2922.18,3192.72 2927.01,3192.72 L 3016.59,3192.72 C 3021.54,3192.72 3025.56,3188.7 3025.56,3183.75 L 3025.56,3157.1 C 3025.56,3152.14 3021.54,3148.13 3016.59,3148.13 L 2968.51,3148.13 L 2968.32,3135.53 L 2975.05,3135.81 C 2982.54,3135.81 2989.75,3134.66 2996.65,3132.33 C 3003.63,3129.97 3009.88,3126.44 3015.29,3121.7 C 3020.86,3116.83 3025.17,3110.75 3028.28,3103.67 C 3031.52,3096.31 3033,3088.03 3033,3079.05 C 3033,3059.76 3026.59,3043.63 3013.17,3031.75 C 2999.63,3019.75 2979.84,3014.6 2955.59,3014.6 C 2950.89,3014.6 2945.49,3015.05 2939.47,3015.89 Z" fill="#a5555f" stroke-linejoin="round" stroke-width="0.242" marker-start="none" marker-end="none"/>
   <path d="M 3024.03,3079.05 C 3024.03,3061.92 3018.43,3048.39 3007.22,3038.46 C 2996.02,3028.54 2978.81,3023.57 2955.59,3023.57 C 2951.43,3023.57 2946.47,3023.97 2940.7,3024.77 C 2934.94,3025.57 2928.05,3027.09 2920.05,3029.34 L 2922.93,3056.47 C 2929.82,3053.75 2936.18,3052.03 2942.02,3051.31 C 2947.87,3050.59 2952.55,3050.23 2956.07,3050.23 C 2966.16,3050.23 2973.6,3052.79 2978.41,3057.91 C 2983.21,3063.04 2985.61,3069.68 2985.61,3077.85 C 2985.61,3085.05 2983.29,3090.89 2978.65,3095.38 C 2974,3099.86 2967.36,3102.1 2958.71,3102.1 C 2954.07,3102.1 2948.87,3101.78 2943.11,3101.14 C 2937.34,3100.5 2931.02,3099.46 2924.13,3098.02 L 2927.01,3183.75 L 3016.59,3183.75 L 3016.59,3157.1 L 2959.67,3157.1 L 2959.19,3125.64 C 2960.95,3125.95 2963.32,3126.24 2966.28,3126.48 C 2969.24,3126.72 2972.16,3126.84 2975.05,3126.84 C 2981.61,3126.84 2987.85,3125.84 2993.78,3123.84 C 2999.7,3121.83 3004.9,3118.87 3009.39,3114.95 C 3013.87,3111.03 3017.43,3106.06 3020.07,3100.06 C 3022.72,3094.06 3024.03,3087.05 3024.03,3079.05 Z" stroke-linejoin="round" stroke-width="0.242" fill-rule="nonzero" stroke-linecap="round" fill="#ffffff" marker-start="none" marker-end="none"/>
   <path d="M 2426.81,3231.76 L 2426.81,2982.76 L 2675.82,2982.76 L 2675.82,3231.76 L 2426.81,3231.76 Z" stroke-linejoin="miter" stroke-width="0.485" stroke-linecap="round" fill="#ffffff" marker-start="none" marker-end="none"/>
   <path d="M 2438.95,2994.9 L 2438.95,3219.62 L 2663.67,3219.62 L 2663.67,2994.9 L 2438.95,2994.9 Z M 2556.86,3084.95 L 2557.84,3078.58 L 2570.04,3078.58 C 2569.6,3081.87 2569.05,3085.28 2569.05,3088.58 L 2569.05,3118.24 C 2569.05,3127.69 2562.57,3133.62 2549.94,3133.62 C 2544.22,3133.62 2537.52,3132.96 2532.25,3130.55 L 2534.44,3121.43 C 2538.18,3123.4 2543.34,3124.28 2547.3,3124.28 C 2553.01,3124.28 2556.41,3121.76 2556.41,3116.15 L 2556.41,3110.11 C 2554.44,3110.44 2551.91,3110.99 2548.07,3110.99 C 2535.76,3110.99 2527.3,3104.95 2527.3,3093.74 C 2527.3,3083.75 2532.68,3077.6 2543.23,3077.6 C 2549.27,3077.6 2553.78,3080.23 2556.86,3084.95 Z M 2474.63,3078.58 L 2474.63,3140.65 L 2490.45,3140.65 L 2490.45,3151.97 L 2444.97,3151.97 L 2444.97,3140.65 L 2460.79,3140.65 L 2460.79,3078.58 L 2474.63,3078.58 Z M 2624.51,3078.58 L 2624.51,3112.74 C 2624.51,3118.13 2626.49,3124.28 2632.3,3124.28 C 2637.25,3124.28 2639.22,3120.44 2639.22,3115.72 L 2639.22,3078.58 L 2652.3,3078.58 L 2652.3,3116.7 C 2652.3,3126.15 2647.69,3133.62 2637.58,3133.62 C 2630.33,3133.62 2625.61,3130 2623.63,3125.39 C 2621.87,3129.22 2618.46,3133.62 2609.9,3133.62 C 2603.53,3133.62 2598.47,3130.33 2596.27,3125.39 L 2595.28,3132.63 L 2583.75,3132.63 L 2583.75,3078.58 L 2596.83,3078.58 L 2596.83,3112.53 C 2596.83,3117.91 2598.91,3124.28 2604.62,3124.28 C 2609.57,3124.28 2611.54,3120.88 2611.54,3115.72 L 2611.54,3078.58 L 2624.51,3078.58 Z M 2506.91,3078.58 L 2506.91,3108.13 C 2506.91,3114.95 2508.67,3121.98 2516.47,3121.98 C 2517.68,3121.98 2518.89,3121.76 2520.1,3121.43 L 2523.84,3132.96 C 2522.84,3133.4 2520.76,3133.62 2519.77,3133.62 C 2514.06,3133.62 2510.1,3131.2 2506.7,3125.49 L 2505.71,3132.63 L 2493.84,3132.63 L 2493.84,3078.58 L 2506.91,3078.58 Z M 2540.49,3094.4 C 2540.49,3099.13 2543.23,3103.41 2549.39,3103.41 C 2552.57,3103.41 2554.99,3102.96 2556.41,3102.42 L 2556.41,3094.84 C 2556.41,3090 2552.24,3086.38 2547.3,3086.38 C 2542.46,3086.38 2540.49,3089.79 2540.49,3094.4 Z" stroke-linejoin="miter" stroke-width="0" fill-rule="evenodd" fill="#d82020" marker-start="none" marker-end="none"/>
  </g>
 </g>
</svg>
