<?xml version="1.0" standalone="no"?>
<!DOCTYPE svg PUBLIC "-//W3C//DTD SVG 1.1//EN" "http://www.w3.org/Graphics/SVG/1.1/DTD/svg11.dtd">
<!--Generator: Xara Designer (www.xara.com), SVG filter version: 6.3.0.31-->
<svg fill="none" fill-rule="evenodd" stroke="black" stroke-width="0.501" stroke-linejoin="bevel" stroke-miterlimit="10" font-family="Times New Roman" font-size="16" style="font-variant-ligatures:none" xmlns:xlink="http://www.w3.org/1999/xlink" xmlns="http://www.w3.org/2000/svg" version="1.1" overflow="visible" width="709.269pt" height="249.007pt" viewBox="17.872 -2967.15 709.269 249.007">
 <defs>
	</defs>
 <g id="Layer 1" transform="scale(1 -1)">
  <g id="Group" stroke="none">
   <rect x="-112.357" y="-230.131" width="224.714" height="460.262" transform="translate(497.01 2842.65) rotate(90)" fill="#ffffff" stroke-linejoin="miter"/>
   <path d="M 381.44,2761.6 L 381.44,2788.26 L 415.781,2788.26 L 415.781,2888.88 L 378.798,2868.23 L 376.637,2897.29 L 416.741,2919.14 L 453.724,2919.14 L 453.724,2788.26 L 485.182,2788.26 L 485.182,2761.6 L 381.44,2761.6 Z" stroke-linejoin="round" stroke-width="0.243" fill="#f1919c" fill-rule="nonzero" stroke-linecap="round" marker-start="none" marker-end="none"/>
   <path d="M 615.09,2814.43 C 615.09,2797.31 609.486,2783.78 598.28,2773.85 C 587.074,2763.93 569.863,2758.96 546.649,2758.96 C 542.486,2758.96 537.523,2759.36 531.76,2760.16 C 525.996,2760.96 519.112,2762.49 511.107,2764.73 L 513.989,2791.86 C 520.873,2789.14 527.237,2787.42 533.081,2786.7 C 538.924,2785.98 543.607,2785.62 547.129,2785.62 C 557.215,2785.62 564.66,2788.18 569.463,2793.3 C 574.265,2798.43 576.666,2805.07 576.666,2813.24 C 576.666,2820.44 574.346,2826.28 569.702,2830.77 C 565.06,2835.25 558.416,2837.49 549.771,2837.49 C 545.128,2837.49 539.925,2837.17 534.162,2836.53 C 528.398,2835.89 522.074,2834.85 515.19,2833.41 L 518.072,2919.14 L 607.645,2919.14 L 607.645,2892.48 L 550.731,2892.48 L 550.251,2861.02 C 552.012,2861.34 554.373,2861.62 557.336,2861.86 C 560.297,2862.11 563.219,2862.22 566.101,2862.22 C 572.665,2862.22 578.909,2861.22 584.832,2859.22 C 590.756,2857.22 595.958,2854.26 600.442,2850.34 C 604.924,2846.42 608.486,2841.45 611.127,2835.45 C 613.77,2829.45 615.09,2822.44 615.09,2814.43 Z" stroke-linejoin="round" stroke-width="0.243" fill="#f1919c" fill-rule="nonzero" stroke-linecap="round" marker-start="none" marker-end="none"/>
   <path d="M 266.879,2730.29 L 266.879,2748.94 L 266.88,2748.94 L 266.88,2955.01 L 727.139,2955.01 L 727.139,2730.29 L 266.879,2730.29 Z M 708.493,2748.94 L 708.493,2936.36 L 285.526,2936.36 L 285.526,2748.94 L 708.493,2748.94 Z" stroke-linejoin="miter" fill="#f1919c" marker-start="none" marker-end="none"/>
   <path d="M 17.872,2967.15 L 17.872,2718.15 L 266.879,2718.15 L 266.879,2967.15 L 17.872,2967.15 Z" stroke-linejoin="miter" stroke-width="0.485" stroke-linecap="round" fill="#ffffff" marker-start="none" marker-end="none"/>
   <path d="M 30.018,2730.29 L 30.018,2955.01 L 254.737,2955.01 L 254.737,2730.29 L 30.018,2730.29 Z M 147.921,2820.34 L 148.907,2813.97 L 161.102,2813.97 C 160.664,2817.26 160.117,2820.67 160.117,2823.97 L 160.117,2853.63 C 160.117,2863.08 153.629,2869.01 141,2869.01 C 135.281,2869.01 128.582,2868.36 123.309,2865.94 L 125.507,2856.82 C 129.243,2858.79 134.404,2859.67 138.362,2859.67 C 144.075,2859.67 147.477,2857.15 147.477,2851.54 L 147.477,2845.5 C 145.5,2845.83 142.971,2846.38 139.132,2846.38 C 126.827,2846.38 118.367,2840.34 118.367,2829.13 C 118.367,2819.14 123.747,2812.99 134.295,2812.99 C 140.334,2812.99 144.84,2815.62 147.921,2820.34 Z M 65.697,2813.97 L 65.697,2876.04 L 81.518,2876.04 L 81.518,2887.36 L 36.035,2887.36 L 36.035,2876.04 L 51.855,2876.04 L 51.855,2813.97 L 65.697,2813.97 Z M 215.574,2813.97 L 215.574,2848.13 C 215.574,2853.52 217.55,2859.67 223.367,2859.67 C 228.312,2859.67 230.288,2855.83 230.288,2851.11 L 230.288,2813.97 L 243.366,2813.97 L 243.366,2852.09 C 243.366,2861.54 238.757,2869.01 228.647,2869.01 C 221.39,2869.01 216.673,2865.39 214.691,2860.78 C 212.936,2864.62 209.525,2869.01 200.962,2869.01 C 194.588,2869.01 189.53,2865.72 187.337,2860.78 L 186.346,2868.03 L 174.81,2868.03 L 174.81,2813.97 L 187.889,2813.97 L 187.889,2847.92 C 187.889,2853.3 189.974,2859.67 195.682,2859.67 C 200.632,2859.67 202.604,2856.27 202.604,2851.11 L 202.604,2813.97 L 215.574,2813.97 Z M 97.977,2813.97 L 97.977,2843.52 C 97.977,2850.34 99.737,2857.37 107.535,2857.37 C 108.743,2857.37 109.951,2857.15 111.161,2856.82 L 114.898,2868.36 C 113.907,2868.79 111.82,2869.01 110.831,2869.01 C 105.12,2869.01 101.164,2866.6 97.758,2860.88 L 96.769,2868.03 L 84.904,2868.03 L 84.904,2813.97 L 97.977,2813.97 Z M 131.55,2829.8 C 131.55,2834.52 134.295,2838.8 140.448,2838.8 C 143.632,2838.8 146.052,2838.36 147.477,2837.81 L 147.477,2830.23 C 147.477,2825.4 143.301,2821.77 138.362,2821.77 C 133.526,2821.77 131.55,2825.18 131.55,2829.8 Z" stroke-linejoin="miter" stroke-width="0" fill-rule="evenodd" fill="#d82020" marker-start="none" marker-end="none"/>
   <path d="M 381.44,2761.6 L 381.44,2788.26 L 415.781,2788.26 L 415.781,2888.88 L 378.798,2868.23 L 376.637,2897.29 L 416.741,2919.14 L 453.724,2919.14 L 453.724,2788.26 L 485.182,2788.26 L 485.182,2761.6 L 381.44,2761.6 Z M 480.226,2766.56 L 480.226,2783.3 L 453.724,2783.3 C 450.987,2783.3 448.768,2785.52 448.768,2788.26 L 448.768,2914.18 L 418.003,2914.18 L 381.817,2894.46 L 383.163,2876.34 L 413.364,2893.21 C 416.661,2895.05 420.737,2892.66 420.737,2888.88 L 420.737,2788.26 C 420.737,2785.52 418.516,2783.3 415.781,2783.3 L 386.396,2783.3 L 386.396,2766.56 L 480.226,2766.56 Z" fill="#88444c" stroke-linejoin="round" stroke-width="0.243" stroke-linecap="round" fill-rule="nonzero" marker-start="none" marker-end="none"/>
   <path d="M 531.76,2760.16 C 525.996,2760.96 519.112,2762.49 511.107,2764.73 L 513.989,2791.86 C 520.873,2789.14 527.237,2787.42 533.081,2786.7 C 538.924,2785.98 543.607,2785.62 547.129,2785.62 C 557.215,2785.62 564.66,2788.18 569.463,2793.3 C 574.265,2798.43 576.666,2805.07 576.666,2813.24 C 576.666,2820.44 574.346,2826.28 569.702,2830.77 C 565.06,2835.25 558.416,2837.49 549.771,2837.49 C 545.128,2837.49 539.925,2837.17 534.162,2836.53 C 528.398,2835.89 522.074,2834.85 515.19,2833.41 L 518.072,2919.14 L 607.645,2919.14 L 607.645,2892.48 L 550.731,2892.48 L 550.251,2861.02 C 552.012,2861.34 554.373,2861.62 557.336,2861.86 C 560.297,2862.11 563.219,2862.22 566.101,2862.22 C 572.665,2862.22 578.909,2861.22 584.832,2859.22 C 590.756,2857.22 595.958,2854.26 600.442,2850.34 C 604.924,2846.42 608.486,2841.45 611.127,2835.45 C 613.77,2829.45 615.09,2822.44 615.09,2814.43 C 615.09,2797.31 609.486,2783.78 598.28,2773.85 C 587.074,2763.93 569.863,2758.96 546.649,2758.96 C 542.486,2758.96 537.523,2759.36 531.76,2760.16 Z M 594.993,2777.56 C 604.979,2786.41 610.134,2798.5 610.134,2814.43 C 610.134,2821.9 608.902,2828.2 606.591,2833.45 C 604.212,2838.86 601.06,2843.21 597.177,2846.61 C 593.209,2850.08 588.583,2852.72 583.245,2854.53 C 577.858,2856.35 572.152,2857.27 566.101,2857.27 C 563.356,2857.27 560.568,2857.15 557.736,2856.92 C 554.846,2856.69 552.666,2856.43 551.136,2856.15 C 548.066,2855.59 545.248,2857.98 545.295,2861.1 L 545.775,2892.56 C 545.817,2895.26 548.025,2897.44 550.731,2897.44 L 602.689,2897.44 L 602.689,2914.18 L 522.864,2914.18 L 520.35,2839.42 L 524.29,2840.16 C 527.531,2840.69 530.639,2841.12 533.614,2841.45 C 539.516,2842.11 544.907,2842.45 549.771,2842.45 C 559.253,2842.45 567.3,2839.97 573.145,2834.33 C 578.873,2828.8 581.622,2821.61 581.622,2813.24 C 581.622,2804.03 578.88,2796.1 573.078,2789.91 C 566.991,2783.42 557.978,2780.66 547.129,2780.66 C 543.314,2780.66 538.405,2781.05 532.474,2781.78 C 529.298,2782.17 526.016,2782.83 522.63,2783.74 L 518.265,2785.21 L 516.488,2768.47 L 523.343,2766.74 C 526.674,2766.01 529.706,2765.45 532.442,2765.07 C 538.06,2764.29 542.783,2763.92 546.649,2763.92 C 569.29,2763.92 585.078,2768.78 594.993,2777.56 Z" fill="#88444c" stroke-linejoin="round" stroke-width="0.243" stroke-linecap="round" fill-rule="nonzero" marker-start="none" marker-end="none"/>
  </g>
 </g>
</svg>
