<?xml version="1.0" standalone="no"?>
<!DOCTYPE svg PUBLIC "-//W3C//DTD SVG 1.1//EN" "http://www.w3.org/Graphics/SVG/1.1/DTD/svg11.dtd">
<!--Generator: Xara Designer (www.xara.com), SVG filter version: 6.3.0.31-->
<svg fill="none" fill-rule="evenodd" stroke="black" stroke-width="0.501" stroke-linejoin="bevel" stroke-miterlimit="10" font-family="Times New Roman" font-size="16" style="font-variant-ligatures:none" xmlns:xlink="http://www.w3.org/1999/xlink" xmlns="http://www.w3.org/2000/svg" version="1.1" overflow="visible" width="709.282pt" height="249.007pt" viewBox="805.559 -3231.76 709.282 249.007">
 <defs>
	</defs>
 <g id="Layer 1" transform="scale(1 -1)">
  <g id="Group" stroke="none">
   <rect x="-112.359" y="-230.137" width="224.719" height="460.274" transform="translate(1284.7 3107.26) rotate(90)" fill="#784b36" stroke-linejoin="miter"/>
   <path d="M 1169.13,3026.21 L 1169.13,3052.87 L 1203.47,3052.87 L 1203.47,3153.49 L 1166.49,3132.84 L 1164.33,3161.9 L 1204.43,3183.75 L 1241.42,3183.75 L 1241.42,3052.87 L 1272.88,3052.87 L 1272.88,3026.21 L 1169.13,3026.21 Z" fill-rule="nonzero" stroke-linejoin="round" stroke-linecap="round" stroke-width="0.243" fill="#ffffff" marker-start="none" marker-end="none"/>
   <path d="M 1403.99,3167.67 C 1399.18,3156.46 1394.3,3144.37 1389.34,3131.4 C 1384.38,3118.44 1379.41,3105.35 1374.45,3092.14 C 1369.49,3078.93 1364.6,3065.97 1359.8,3053.24 C 1355,3040.51 1350.51,3028.87 1346.35,3018.3 L 1310.57,3032.22 C 1314.57,3042.15 1318.89,3052.67 1323.54,3063.8 C 1328.18,3074.92 1332.9,3086.01 1337.71,3097.05 C 1342.51,3108.1 1347.23,3118.78 1351.87,3129.11 C 1356.52,3139.43 1360.76,3148.76 1364.6,3157.08 L 1297.6,3157.08 L 1297.6,3183.75 L 1403.99,3183.75 L 1403.99,3167.67 Z" fill-rule="nonzero" stroke-linejoin="round" stroke-linecap="round" stroke-width="0.243" fill="#ffffff" marker-start="none" marker-end="none"/>
   <path d="M 805.559,3231.76 L 805.559,2982.76 L 1054.57,2982.76 L 1054.57,3231.76 L 805.559,3231.76 Z" stroke-linejoin="miter" stroke-width="0.485" stroke-linecap="round" fill="#ffffff" marker-start="none" marker-end="none"/>
   <path d="M 817.705,2994.9 L 817.705,3219.62 L 1042.42,3219.62 L 1042.42,2994.9 L 817.705,2994.9 Z M 935.608,3084.95 L 936.594,3078.58 L 948.789,3078.58 C 948.351,3081.87 947.804,3085.28 947.804,3088.58 L 947.804,3118.24 C 947.804,3127.69 941.316,3133.62 928.687,3133.62 C 922.968,3133.62 916.269,3132.96 910.996,3130.55 L 913.194,3121.43 C 916.93,3123.4 922.091,3124.28 926.049,3124.28 C 931.762,3124.28 935.164,3121.76 935.164,3116.15 L 935.164,3110.11 C 933.187,3110.44 930.658,3110.99 926.819,3110.99 C 914.514,3110.99 906.054,3104.95 906.054,3093.74 C 906.054,3083.75 911.434,3077.6 921.982,3077.6 C 928.021,3077.6 932.527,3080.23 935.608,3084.95 Z M 853.384,3078.58 L 853.384,3140.65 L 869.205,3140.65 L 869.205,3151.97 L 823.722,3151.97 L 823.722,3140.65 L 839.542,3140.65 L 839.542,3078.58 L 853.384,3078.58 Z M 1003.26,3078.58 L 1003.26,3112.74 C 1003.26,3118.13 1005.24,3124.28 1011.05,3124.28 C 1016,3124.28 1017.98,3120.44 1017.98,3115.72 L 1017.98,3078.58 L 1031.05,3078.58 L 1031.05,3116.7 C 1031.05,3126.15 1026.44,3133.62 1016.33,3133.62 C 1009.08,3133.62 1004.36,3130 1002.38,3125.39 C 1000.62,3129.22 997.212,3133.62 988.649,3133.62 C 982.275,3133.62 977.217,3130.33 975.024,3125.39 L 974.033,3132.63 L 962.497,3132.63 L 962.497,3078.58 L 975.576,3078.58 L 975.576,3112.53 C 975.576,3117.91 977.661,3124.28 983.369,3124.28 C 988.319,3124.28 990.291,3120.88 990.291,3115.72 L 990.291,3078.58 L 1003.26,3078.58 Z M 885.664,3078.58 L 885.664,3108.13 C 885.664,3114.95 887.424,3121.98 895.222,3121.98 C 896.43,3121.98 897.638,3121.76 898.848,3121.43 L 902.585,3132.96 C 901.594,3133.4 899.507,3133.62 898.518,3133.62 C 892.807,3133.62 888.851,3131.2 885.445,3125.49 L 884.456,3132.63 L 872.591,3132.63 L 872.591,3078.58 L 885.664,3078.58 Z M 919.237,3094.4 C 919.237,3099.13 921.982,3103.41 928.135,3103.41 C 931.319,3103.41 933.739,3102.96 935.164,3102.42 L 935.164,3094.84 C 935.164,3090 930.988,3086.38 926.049,3086.38 C 921.213,3086.38 919.237,3089.79 919.237,3094.4 Z" stroke-linejoin="miter" stroke-width="0" fill-rule="evenodd" fill="#d82020" marker-start="none" marker-end="none"/>
  </g>
 </g>
</svg>
