<?xml version="1.0" standalone="no"?>
<!DOCTYPE svg PUBLIC "-//W3C//DTD SVG 1.1//EN" "http://www.w3.org/Graphics/SVG/1.1/DTD/svg11.dtd">
<!--Generator: Xara Designer (www.xara.com), SVG filter version: 6.3.0.31-->
<svg fill="none" fill-rule="evenodd" stroke="black" stroke-width="0.501" stroke-linejoin="bevel" stroke-miterlimit="10" font-family="Times New Roman" font-size="16" style="font-variant-ligatures:none" xmlns:xlink="http://www.w3.org/1999/xlink" xmlns="http://www.w3.org/2000/svg" version="1.1" overflow="visible" width="709.279pt" height="249.007pt" viewBox="1630.88 -3231.76 709.279 249.007">
 <defs>
	</defs>
 <g id="Layer 1" transform="scale(1 -1)">
  <g id="Group" stroke="none">
   <rect x="-112.359" y="-230.136" width="224.719" height="460.272" transform="translate(2110.03 3107.26) rotate(90)" fill="#16bbe7" stroke-linejoin="miter"/>
   <path d="M 1978.73,3026.21 L 1978.73,3043.99 C 1978.73,3053.32 1980.62,3061.96 1984.59,3069.72 C 1988.23,3076.82 1992.76,3083.3 1998.17,3089.15 C 2003.35,3094.76 2009,3099.99 2015.1,3104.82 C 2020.7,3109.25 2025.85,3113.66 2030.55,3118.05 C 2035.04,3122.25 2038.69,3126.46 2041.58,3130.68 C 2043.9,3134.08 2045.01,3137.69 2045.01,3141.73 C 2045.01,3145.45 2043.95,3147.5 2042.49,3148.89 C 2041.28,3150.04 2038.51,3151.46 2032.4,3151.46 C 2028.24,3151.46 2023.8,3151.1 2019.06,3150.36 C 2015.26,3149.77 2009.81,3147.84 2002.47,3144.02 C 1997.82,3141.6 1992.09,3143.92 1990.45,3148.9 L 1982.04,3174.36 C 1980.73,3178.35 1982.52,3182.7 1986.26,3184.61 C 1994.35,3188.75 2003.17,3191.49 2012.66,3192.9 C 2021.67,3194.23 2030.34,3194.91 2038.64,3194.91 C 2046.8,3194.91 2054.5,3194 2061.7,3192.11 C 2068.99,3190.19 2075.55,3187.22 2081.24,3183.07 C 2087.11,3178.79 2091.7,3173.28 2095.01,3166.67 C 2098.43,3159.82 2099.99,3152.06 2099.99,3143.65 C 2099.99,3135.09 2098.03,3126.98 2094.11,3119.43 C 2090.5,3112.48 2086.03,3105.96 2080.72,3099.87 C 2075.54,3093.92 2069.89,3088.4 2063.79,3083.31 C 2058.08,3078.55 2052.82,3074.05 2048.01,3069.79 C 2045.68,3067.72 2043.56,3065.74 2041.66,3063.84 L 2039.38,3061.39 L 2093.4,3061.39 C 2098.1,3061.39 2101.91,3057.57 2101.91,3052.87 L 2101.91,3026.21 C 2101.91,3021.51 2098.1,3017.7 2093.4,3017.7 L 1987.25,3017.7 C 1982.55,3017.7 1978.73,3021.51 1978.73,3026.21 Z" fill="#0283a5" stroke-linejoin="round" stroke-width="0.243" marker-start="none" marker-end="none"/>
   <path d="M 1987.25,3026.21 L 1987.25,3043.99 C 1987.25,3052.15 1988.89,3059.43 1992.17,3065.84 C 1995.46,3072.24 1999.54,3078.09 2004.42,3083.37 C 2009.3,3088.65 2014.63,3093.58 2020.39,3098.14 C 2026.16,3102.7 2031.48,3107.26 2036.36,3111.83 C 2041.24,3116.39 2045.33,3121.07 2048.61,3125.88 C 2051.89,3130.68 2053.53,3135.96 2053.53,3141.73 C 2053.53,3147.33 2051.81,3151.77 2048.37,3155.05 C 2044.93,3158.34 2039.6,3159.98 2032.4,3159.98 C 2027.76,3159.98 2022.87,3159.58 2017.75,3158.78 C 2012.63,3157.98 2006.22,3155.58 1998.54,3151.57 L 1990.13,3177.03 C 1997.34,3180.71 2005.26,3183.19 2013.91,3184.47 C 2022.55,3185.75 2030.8,3186.39 2038.64,3186.39 C 2046.17,3186.39 2053.13,3185.55 2059.53,3183.87 C 2065.94,3182.19 2071.5,3179.63 2076.23,3176.19 C 2080.95,3172.75 2084.67,3168.3 2087.39,3162.86 C 2090.11,3157.42 2091.47,3151.01 2091.47,3143.65 C 2091.47,3136.44 2089.83,3129.68 2086.55,3123.35 C 2083.27,3117.03 2079.19,3111.07 2074.3,3105.46 C 2069.42,3099.86 2064.1,3094.66 2058.33,3089.85 C 2052.57,3085.05 2047.25,3080.49 2042.36,3076.17 C 2037.48,3071.84 2033.4,3067.76 2030.12,3063.92 C 2026.83,3060.08 2025.19,3056.39 2025.19,3052.87 L 2093.4,3052.87 L 2093.4,3026.21 L 1987.25,3026.21 Z" stroke-linejoin="round" stroke-width="0.243" fill-rule="nonzero" stroke-linecap="round" fill="#ffffff" marker-start="none" marker-end="none"/>
   <path d="M 2151.15,3019.53 C 2143.97,3022.48 2137.71,3026.52 2132.51,3031.72 C 2127.43,3036.8 2123.42,3042.7 2120.52,3049.34 C 2117.8,3055.57 2115.71,3062.11 2114.24,3068.97 C 2112.79,3075.71 2111.85,3082.54 2111.42,3089.45 C 2111.01,3096.1 2110.8,3102.56 2110.8,3108.83 C 2110.8,3117.79 2111.57,3127.04 2113.07,3136.57 C 2114.65,3146.6 2117.75,3155.91 2122.42,3164.43 C 2127.28,3173.31 2134.12,3180.59 2142.78,3186.21 C 2152.1,3192.26 2163.71,3194.91 2176.96,3194.91 C 2190.31,3194.91 2202,3192.32 2211.32,3186.37 C 2220.01,3180.82 2226.87,3173.57 2231.74,3164.67 C 2236.41,3156.13 2239.48,3146.79 2240.98,3136.74 C 2242.39,3127.22 2243.11,3117.92 2243.11,3108.83 C 2243.11,3099.51 2242.53,3089.74 2241.38,3079.53 C 2240.16,3068.76 2237.41,3058.67 2233.08,3049.3 C 2228.54,3039.48 2221.84,3031.34 2213.06,3024.97 C 2203.53,3018.04 2191.19,3015.05 2176.96,3015.05 C 2167.37,3015.05 2158.68,3016.45 2151.15,3019.53 Z M 2178.74,3059.25 C 2179.97,3060.49 2181.27,3062.35 2182.47,3065.13 C 2183.7,3067.99 2184.69,3071.29 2185.39,3075.07 C 2186.15,3079.19 2186.76,3083.34 2187.22,3087.53 C 2187.68,3091.72 2187.94,3095.63 2188.01,3099.27 C 2188.09,3103.17 2188.13,3106.34 2188.13,3108.83 C 2188.13,3112.07 2187.95,3116.53 2187.55,3122.29 C 2187.18,3127.7 2186.41,3132.88 2185.24,3137.85 C 2184.15,3142.48 2182.54,3146.24 2180.54,3149.28 C 2179.34,3151.1 2178.35,3151.46 2176.96,3151.46 C 2175.57,3151.46 2174.57,3151.1 2173.38,3149.28 C 2171.37,3146.24 2169.77,3142.48 2168.68,3137.85 C 2167.51,3132.88 2166.73,3127.7 2166.36,3122.29 C 2165.97,3116.53 2165.78,3112.07 2165.78,3108.83 C 2165.78,3106.34 2165.82,3103.16 2165.9,3099.27 C 2165.97,3095.63 2166.24,3091.72 2166.69,3087.53 C 2167.15,3083.34 2167.76,3079.19 2168.52,3075.07 C 2169.23,3071.24 2170.2,3067.89 2171.39,3064.98 C 2172.51,3062.26 2173.74,3060.44 2174.94,3059.25 C 2175.42,3058.77 2175.9,3058.51 2176.96,3058.51 C 2177.73,3058.51 2178.17,3058.68 2178.74,3059.25 Z" fill="#0283a5" stroke-linejoin="round" stroke-width="0.243" marker-start="none" marker-end="none"/>
   <path d="M 2196.65,3108.83 C 2196.65,3112.35 2196.45,3117.03 2196.05,3122.87 C 2195.65,3128.72 2194.81,3134.36 2193.53,3139.81 C 2192.25,3145.25 2190.29,3149.97 2187.64,3153.97 C 2185,3157.98 2181.44,3159.98 2176.96,3159.98 C 2172.47,3159.98 2168.91,3157.98 2166.27,3153.97 C 2163.63,3149.97 2161.67,3145.25 2160.39,3139.81 C 2159.11,3134.36 2158.27,3128.72 2157.87,3122.87 C 2157.47,3117.03 2157.27,3112.35 2157.27,3108.83 C 2157.27,3106.26 2157.3,3103.02 2157.39,3099.1 C 2157.47,3095.18 2157.75,3091.01 2158.23,3086.61 C 2158.71,3082.21 2159.35,3077.85 2160.15,3073.52 C 2160.95,3069.2 2162.07,3065.28 2163.51,3061.76 C 2164.95,3058.23 2166.75,3055.39 2168.91,3053.23 C 2171.07,3051.07 2173.76,3049.99 2176.96,3049.99 C 2180,3049.99 2182.6,3051.07 2184.76,3053.23 C 2186.92,3055.39 2188.76,3058.23 2190.29,3061.76 C 2191.81,3065.28 2192.97,3069.2 2193.77,3073.52 C 2194.57,3077.85 2195.21,3082.21 2195.69,3086.61 C 2196.17,3091.01 2196.45,3095.18 2196.53,3099.1 C 2196.61,3103.02 2196.65,3106.26 2196.65,3108.83 Z M 2234.59,3108.83 C 2234.59,3099.86 2234.03,3090.41 2232.91,3080.49 C 2231.79,3070.56 2229.27,3061.36 2225.35,3052.87 C 2221.43,3044.39 2215.66,3037.38 2208.06,3031.86 C 2200.45,3026.33 2190.09,3023.57 2176.96,3023.57 C 2168.15,3023.57 2160.63,3024.85 2154.38,3027.42 C 2148.14,3029.98 2142.86,3033.42 2138.53,3037.74 C 2134.21,3042.06 2130.81,3047.07 2128.33,3052.75 C 2125.85,3058.43 2123.93,3064.44 2122.56,3070.76 C 2121.2,3077.09 2120.32,3083.49 2119.92,3089.97 C 2119.52,3096.46 2119.32,3102.74 2119.32,3108.83 C 2119.32,3117.31 2120.04,3126.12 2121.48,3135.24 C 2122.92,3144.37 2125.73,3152.73 2129.89,3160.34 C 2134.05,3167.94 2139.89,3174.19 2147.42,3179.07 C 2154.94,3183.95 2164.79,3186.39 2176.96,3186.39 C 2189.28,3186.39 2199.21,3183.99 2206.74,3179.19 C 2214.26,3174.39 2220.11,3168.18 2224.27,3160.58 C 2228.43,3152.97 2231.19,3144.61 2232.55,3135.48 C 2233.91,3126.36 2234.59,3117.47 2234.59,3108.83 Z" stroke-linejoin="round" stroke-width="0.243" fill-rule="nonzero" stroke-linecap="round" fill="#ffffff" marker-start="none" marker-end="none"/>
   <path d="M 1630.88,3231.76 L 1630.88,2982.76 L 1879.89,2982.76 L 1879.89,3231.76 L 1630.88,3231.76 Z" stroke-linejoin="miter" stroke-width="0.485" stroke-linecap="round" fill="#ffffff" marker-start="none" marker-end="none"/>
   <path d="M 1643.03,2994.9 L 1643.03,3219.62 L 1867.75,3219.62 L 1867.75,2994.9 L 1643.03,2994.9 Z M 1760.93,3084.95 L 1761.92,3078.58 L 1774.11,3078.58 C 1773.68,3081.87 1773.13,3085.28 1773.13,3088.58 L 1773.13,3118.24 C 1773.13,3127.69 1766.64,3133.62 1754.01,3133.62 C 1748.29,3133.62 1741.59,3132.96 1736.32,3130.55 L 1738.52,3121.43 C 1742.26,3123.4 1747.42,3124.28 1751.37,3124.28 C 1757.09,3124.28 1760.49,3121.76 1760.49,3116.15 L 1760.49,3110.11 C 1758.51,3110.44 1755.98,3110.99 1752.14,3110.99 C 1739.84,3110.99 1731.38,3104.95 1731.38,3093.74 C 1731.38,3083.75 1736.76,3077.6 1747.31,3077.6 C 1753.35,3077.6 1757.85,3080.23 1760.93,3084.95 Z M 1678.71,3078.58 L 1678.71,3140.65 L 1694.53,3140.65 L 1694.53,3151.97 L 1649.05,3151.97 L 1649.05,3140.65 L 1664.87,3140.65 L 1664.87,3078.58 L 1678.71,3078.58 Z M 1828.59,3078.58 L 1828.59,3112.74 C 1828.59,3118.13 1830.56,3124.28 1836.38,3124.28 C 1841.32,3124.28 1843.3,3120.44 1843.3,3115.72 L 1843.3,3078.58 L 1856.38,3078.58 L 1856.38,3116.7 C 1856.38,3126.15 1851.77,3133.62 1841.66,3133.62 C 1834.4,3133.62 1829.68,3130 1827.7,3125.39 C 1825.95,3129.22 1822.54,3133.62 1813.97,3133.62 C 1807.6,3133.62 1802.54,3130.33 1800.35,3125.39 L 1799.36,3132.63 L 1787.82,3132.63 L 1787.82,3078.58 L 1800.9,3078.58 L 1800.9,3112.53 C 1800.9,3117.91 1802.99,3124.28 1808.69,3124.28 C 1813.64,3124.28 1815.62,3120.88 1815.62,3115.72 L 1815.62,3078.58 L 1828.59,3078.58 Z M 1710.99,3078.58 L 1710.99,3108.13 C 1710.99,3114.95 1712.75,3121.98 1720.55,3121.98 C 1721.76,3121.98 1722.96,3121.76 1724.17,3121.43 L 1727.91,3132.96 C 1726.92,3133.4 1724.83,3133.62 1723.84,3133.62 C 1718.13,3133.62 1714.18,3131.2 1710.77,3125.49 L 1709.78,3132.63 L 1697.92,3132.63 L 1697.92,3078.58 L 1710.99,3078.58 Z M 1744.56,3094.4 C 1744.56,3099.13 1747.31,3103.41 1753.46,3103.41 C 1756.64,3103.41 1759.06,3102.96 1760.49,3102.42 L 1760.49,3094.84 C 1760.49,3090 1756.31,3086.38 1751.37,3086.38 C 1746.54,3086.38 1744.56,3089.79 1744.56,3094.4 Z" stroke-linejoin="miter" stroke-width="0" fill-rule="evenodd" fill="#d82020" marker-start="none" marker-end="none"/>
  </g>
 </g>
</svg>
