<?xml version="1.0" standalone="no"?>
<!DOCTYPE svg PUBLIC "-//W3C//DTD SVG 1.1//EN" "http://www.w3.org/Graphics/SVG/1.1/DTD/svg11.dtd">
<!--Generator: Xara Designer (www.xara.com), SVG filter version: 6.3.0.31-->
<svg fill="none" fill-rule="evenodd" stroke="black" stroke-width="0.501" stroke-linejoin="bevel" stroke-miterlimit="10" font-family="Times New Roman" font-size="16" style="font-variant-ligatures:none" xmlns:xlink="http://www.w3.org/1999/xlink" xmlns="http://www.w3.org/2000/svg" version="1.1" overflow="visible" width="249.007pt" height="249.007pt" viewBox="17.245 -2009.25 249.007 249.007">
 <defs>
	</defs>
 <g id="Layer 1" transform="scale(1 -1)">
  <g id="Group" stroke-linejoin="miter" stroke="none">
   <path d="M 17.245,2009.25 L 17.245,1760.24 L 266.252,1760.24 L 266.252,2009.25 L 17.245,2009.25 Z" stroke-width="0.485" stroke-linecap="round" fill="#ffffff" marker-start="none" marker-end="none"/>
   <path d="M 29.391,1772.39 L 29.391,1997.11 L 254.11,1997.11 L 254.11,1772.39 L 29.391,1772.39 Z M 147.294,1862.44 L 148.28,1856.07 L 160.475,1856.07 C 160.037,1859.36 159.49,1862.77 159.49,1866.07 L 159.49,1895.73 C 159.49,1905.18 153.002,1911.11 140.373,1911.11 C 134.654,1911.11 127.955,1910.45 122.682,1908.03 L 124.88,1898.91 C 128.616,1900.89 133.777,1901.77 137.735,1901.77 C 143.448,1901.77 146.85,1899.24 146.85,1893.64 L 146.85,1887.6 C 144.873,1887.93 142.344,1888.48 138.505,1888.48 C 126.2,1888.48 117.74,1882.44 117.74,1871.23 C 117.74,1861.24 123.12,1855.08 133.668,1855.08 C 139.707,1855.08 144.213,1857.71 147.294,1862.44 Z M 65.07,1856.07 L 65.07,1918.14 L 80.891,1918.14 L 80.891,1929.46 L 35.408,1929.46 L 35.408,1918.14 L 51.228,1918.14 L 51.228,1856.07 L 65.07,1856.07 Z M 214.947,1856.07 L 214.947,1890.23 C 214.947,1895.62 216.923,1901.77 222.74,1901.77 C 227.685,1901.77 229.661,1897.93 229.661,1893.2 L 229.661,1856.07 L 242.739,1856.07 L 242.739,1894.19 C 242.739,1903.64 238.13,1911.11 228.02,1911.11 C 220.763,1911.11 216.046,1907.48 214.064,1902.87 C 212.309,1906.71 208.898,1911.11 200.335,1911.11 C 193.961,1911.11 188.903,1907.82 186.71,1902.87 L 185.719,1910.12 L 174.183,1910.12 L 174.183,1856.07 L 187.262,1856.07 L 187.262,1890.02 C 187.262,1895.4 189.347,1901.77 195.055,1901.77 C 200.005,1901.77 201.977,1898.36 201.977,1893.2 L 201.977,1856.07 L 214.947,1856.07 Z M 97.35,1856.07 L 97.35,1885.62 C 97.35,1892.44 99.11,1899.46 106.908,1899.46 C 108.116,1899.46 109.324,1899.24 110.534,1898.91 L 114.271,1910.45 C 113.28,1910.89 111.193,1911.11 110.204,1911.11 C 104.493,1911.11 100.537,1908.69 97.131,1902.98 L 96.142,1910.12 L 84.277,1910.12 L 84.277,1856.07 L 97.35,1856.07 Z M 130.923,1871.89 C 130.923,1876.62 133.668,1880.9 139.821,1880.9 C 143.005,1880.9 145.425,1880.45 146.85,1879.91 L 146.85,1872.33 C 146.85,1867.49 142.674,1863.87 137.735,1863.87 C 132.899,1863.87 130.923,1867.28 130.923,1871.89 Z" stroke-width="0" fill-rule="evenodd" fill="#d82020" marker-start="none" marker-end="none"/>
  </g>
 </g>
</svg>
