<?xml version="1.0" standalone="no"?>
<!DOCTYPE svg PUBLIC "-//W3C//DTD SVG 1.1//EN" "http://www.w3.org/Graphics/SVG/1.1/DTD/svg11.dtd">
<!--Generator: Xara Designer (www.xara.com), SVG filter version: 6.3.0.31-->
<svg fill="none" fill-rule="evenodd" stroke="black" stroke-width="0.501" stroke-linejoin="bevel" stroke-miterlimit="10" font-family="Times New Roman" font-size="16" style="font-variant-ligatures:none" xmlns:xlink="http://www.w3.org/1999/xlink" xmlns="http://www.w3.org/2000/svg" version="1.1" overflow="visible" width="709.281pt" height="249.007pt" viewBox="805.559 -2967.15 709.281 249.007">
 <defs>
	</defs>
 <g id="Layer 1" transform="scale(1 -1)">
  <g id="Group" stroke="none">
   <rect x="-112.359" y="-230.137" width="224.719" height="460.275" transform="translate(1284.7 2842.65) rotate(90)" fill="#13a538" stroke-linejoin="miter"/>
   <path d="M 1169.13,2761.6 L 1169.13,2788.26 L 1203.47,2788.26 L 1203.47,2888.89 L 1166.49,2868.23 L 1164.33,2897.29 L 1204.43,2919.14 L 1241.42,2919.14 L 1241.42,2788.26 L 1272.88,2788.26 L 1272.88,2761.6 L 1169.13,2761.6 Z" fill-rule="nonzero" stroke-linejoin="round" stroke-linecap="round" stroke-width="0.242" fill="#ffffff" marker-start="none" marker-end="none"/>
   <path d="M 1370.61,2808.68 C 1370.61,2812.2 1370.25,2815.52 1369.53,2818.64 C 1368.81,2821.76 1367.68,2824.52 1366.16,2826.93 C 1364.64,2829.33 1362.68,2831.21 1360.28,2832.57 C 1357.88,2833.93 1355,2834.61 1351.63,2834.61 C 1344.75,2834.61 1339.87,2832.09 1336.99,2827.05 C 1334.1,2822 1332.66,2815.88 1332.66,2808.68 C 1332.66,2805.31 1332.98,2802.03 1333.62,2798.83 C 1334.26,2795.63 1335.3,2792.74 1336.74,2790.18 C 1338.19,2787.62 1340.11,2785.58 1342.51,2784.06 C 1344.91,2782.54 1347.95,2781.78 1351.63,2781.78 C 1355.64,2781.78 1358.88,2782.54 1361.36,2784.06 C 1363.84,2785.58 1365.76,2787.62 1367.12,2790.18 C 1368.48,2792.74 1369.41,2795.63 1369.89,2798.83 C 1370.37,2802.03 1370.61,2805.31 1370.61,2808.68 Z M 1367.73,2877.84 C 1367.73,2880.56 1367.44,2883.2 1366.88,2885.76 C 1366.32,2888.33 1365.4,2890.57 1364.12,2892.49 C 1362.84,2894.41 1361.16,2895.97 1359.08,2897.17 C 1357,2898.37 1354.52,2898.97 1351.63,2898.97 C 1345.87,2898.97 1341.75,2896.85 1339.27,2892.61 C 1336.79,2888.37 1335.54,2883.44 1335.54,2877.84 C 1335.54,2875.28 1335.79,2872.67 1336.27,2870.03 C 1336.74,2867.39 1337.63,2864.95 1338.91,2862.71 C 1340.19,2860.47 1341.83,2858.63 1343.83,2857.19 C 1345.83,2855.74 1348.43,2855.03 1351.63,2855.03 C 1354.68,2855.03 1357.2,2855.66 1359.2,2856.95 C 1361.2,2858.23 1362.84,2859.95 1364.12,2862.11 C 1365.4,2864.27 1366.32,2866.71 1366.88,2869.43 C 1367.44,2872.16 1367.73,2874.96 1367.73,2877.84 Z M 1407.59,2805.79 C 1407.59,2799.23 1406.27,2793.06 1403.63,2787.3 C 1400.99,2781.54 1397.18,2776.57 1392.22,2772.41 C 1387.26,2768.25 1381.33,2764.97 1374.45,2762.57 C 1367.56,2760.16 1359.96,2758.96 1351.63,2758.96 C 1343.47,2758.96 1335.99,2760 1329.18,2762.09 C 1322.38,2764.17 1316.49,2767.21 1311.53,2771.21 C 1306.57,2775.21 1302.68,2780.14 1299.88,2785.98 C 1297.08,2791.82 1295.68,2798.43 1295.68,2805.79 C 1295.68,2811.72 1296.72,2817.04 1298.8,2821.76 C 1300.88,2826.49 1303.44,2830.53 1306.49,2833.89 C 1309.53,2837.25 1312.85,2839.97 1316.45,2842.05 C 1320.05,2844.14 1323.46,2845.58 1326.66,2846.38 C 1324.26,2847.34 1321.54,2848.7 1318.49,2850.46 C 1315.45,2852.22 1312.53,2854.5 1309.73,2857.31 C 1306.93,2860.11 1304.6,2863.47 1302.76,2867.39 C 1300.92,2871.32 1300,2875.92 1300,2881.2 C 1300,2887.6 1301.4,2893.33 1304.2,2898.37 C 1307.01,2903.41 1310.77,2907.66 1315.49,2911.1 C 1320.21,2914.54 1325.7,2917.18 1331.94,2919.02 C 1338.19,2920.87 1344.75,2921.78 1351.63,2921.78 C 1358.68,2921.78 1365.32,2920.95 1371.57,2919.26 C 1377.81,2917.58 1383.29,2915.02 1388.02,2911.58 C 1392.74,2908.14 1396.46,2903.89 1399.18,2898.85 C 1401.91,2893.81 1403.27,2887.93 1403.27,2881.2 C 1403.27,2875.6 1402.27,2870.79 1400.27,2866.79 C 1398.26,2862.79 1395.9,2859.47 1393.18,2856.83 C 1390.46,2854.18 1387.54,2852.06 1384.42,2850.46 C 1381.29,2848.86 1378.69,2847.74 1376.61,2847.1 C 1380.29,2845.66 1383.97,2843.86 1387.66,2841.7 C 1391.34,2839.53 1394.66,2836.85 1397.62,2833.65 C 1400.59,2830.45 1402.99,2826.57 1404.83,2822 C 1406.67,2817.44 1407.59,2812.04 1407.59,2805.79 Z" fill-rule="nonzero" stroke-linejoin="round" stroke-linecap="round" stroke-width="0.242" fill="#ffffff" marker-start="none" marker-end="none"/>
   <path d="M 805.559,2967.15 L 805.559,2718.15 L 1054.57,2718.15 L 1054.57,2967.15 L 805.559,2967.15 Z" stroke-linejoin="miter" stroke-width="0.485" stroke-linecap="round" fill="#ffffff" marker-start="none" marker-end="none"/>
   <path d="M 817.705,2730.29 L 817.705,2955.01 L 1042.42,2955.01 L 1042.42,2730.29 L 817.705,2730.29 Z M 935.608,2820.34 L 936.594,2813.97 L 948.789,2813.97 C 948.351,2817.26 947.804,2820.67 947.804,2823.97 L 947.804,2853.63 C 947.804,2863.08 941.316,2869.01 928.687,2869.01 C 922.968,2869.01 916.269,2868.36 910.996,2865.94 L 913.194,2856.82 C 916.93,2858.79 922.091,2859.67 926.049,2859.67 C 931.762,2859.67 935.164,2857.15 935.164,2851.54 L 935.164,2845.5 C 933.187,2845.83 930.658,2846.38 926.819,2846.38 C 914.514,2846.38 906.054,2840.34 906.054,2829.13 C 906.054,2819.14 911.434,2812.99 921.982,2812.99 C 928.021,2812.99 932.527,2815.62 935.608,2820.34 Z M 853.384,2813.97 L 853.384,2876.04 L 869.205,2876.04 L 869.205,2887.36 L 823.722,2887.36 L 823.722,2876.04 L 839.542,2876.04 L 839.542,2813.97 L 853.384,2813.97 Z M 1003.26,2813.97 L 1003.26,2848.13 C 1003.26,2853.52 1005.24,2859.67 1011.05,2859.67 C 1016,2859.67 1017.98,2855.83 1017.98,2851.11 L 1017.98,2813.97 L 1031.05,2813.97 L 1031.05,2852.09 C 1031.05,2861.54 1026.44,2869.01 1016.33,2869.01 C 1009.08,2869.01 1004.36,2865.39 1002.38,2860.78 C 1000.62,2864.62 997.212,2869.01 988.649,2869.01 C 982.275,2869.01 977.217,2865.72 975.024,2860.78 L 974.033,2868.03 L 962.497,2868.03 L 962.497,2813.97 L 975.576,2813.97 L 975.576,2847.92 C 975.576,2853.3 977.661,2859.67 983.369,2859.67 C 988.319,2859.67 990.291,2856.27 990.291,2851.11 L 990.291,2813.97 L 1003.26,2813.97 Z M 885.664,2813.97 L 885.664,2843.52 C 885.664,2850.34 887.424,2857.37 895.222,2857.37 C 896.43,2857.37 897.638,2857.15 898.848,2856.82 L 902.585,2868.36 C 901.594,2868.79 899.507,2869.01 898.518,2869.01 C 892.807,2869.01 888.851,2866.6 885.445,2860.88 L 884.456,2868.03 L 872.591,2868.03 L 872.591,2813.97 L 885.664,2813.97 Z M 919.237,2829.8 C 919.237,2834.52 921.982,2838.8 928.135,2838.8 C 931.319,2838.8 933.739,2838.36 935.164,2837.81 L 935.164,2830.23 C 935.164,2825.4 930.988,2821.77 926.049,2821.77 C 921.213,2821.77 919.237,2825.18 919.237,2829.8 Z" stroke-linejoin="miter" stroke-width="0" fill-rule="evenodd" fill="#d82020" marker-start="none" marker-end="none"/>
  </g>
 </g>
</svg>
