<?xml version="1.0" standalone="no"?>
<!DOCTYPE svg PUBLIC "-//W3C//DTD SVG 1.1//EN" "http://www.w3.org/Graphics/SVG/1.1/DTD/svg11.dtd">
<!--Generator: Xara Designer (www.xara.com), SVG filter version: 6.3.0.31-->
<svg fill="none" fill-rule="evenodd" stroke="black" stroke-width="0.501" stroke-linejoin="bevel" stroke-miterlimit="10" font-family="Times New Roman" font-size="16" style="font-variant-ligatures:none" xmlns:xlink="http://www.w3.org/1999/xlink" xmlns="http://www.w3.org/2000/svg" version="1.1" overflow="visible" width="709.279pt" height="249.007pt" viewBox="3216.91 -3231.76 709.279 249.007">
 <defs>
	</defs>
 <g id="Layer 1" transform="scale(1 -1)">
  <g id="Group" stroke="none">
   <rect x="-112.359" y="-230.136" width="224.719" height="460.272" transform="translate(3696.05 3107.26) rotate(90)" fill="#ffffff" stroke-linejoin="miter"/>
   <path d="M 3573.27,3026.21 L 3573.27,3043.98 C 3573.27,3052.15 3574.92,3059.43 3578.2,3065.84 C 3581.48,3072.24 3585.56,3078.09 3590.45,3083.37 C 3595.33,3088.65 3600.65,3093.58 3606.41,3098.14 C 3612.18,3102.7 3617.5,3107.26 3622.39,3111.83 C 3627.27,3116.39 3631.35,3121.07 3634.63,3125.88 C 3637.92,3130.68 3639.56,3135.96 3639.56,3141.73 C 3639.56,3147.33 3637.83,3151.77 3634.39,3155.05 C 3630.95,3158.34 3625.63,3159.98 3618.42,3159.98 C 3613.78,3159.98 3608.9,3159.58 3603.77,3158.78 C 3598.65,3157.98 3592.25,3155.58 3584.56,3151.57 L 3576.16,3177.03 C 3583.36,3180.71 3591.28,3183.19 3599.93,3184.47 C 3608.58,3185.75 3616.82,3186.39 3624.67,3186.39 C 3632.19,3186.39 3639.16,3185.55 3645.56,3183.87 C 3651.96,3182.19 3657.53,3179.63 3662.25,3176.19 C 3666.97,3172.75 3670.7,3168.3 3673.42,3162.86 C 3676.14,3157.42 3677.5,3151.01 3677.5,3143.65 C 3677.5,3136.44 3675.86,3129.68 3672.58,3123.35 C 3669.29,3117.03 3665.21,3111.07 3660.33,3105.46 C 3655.45,3099.86 3650.12,3094.66 3644.36,3089.85 C 3638.6,3085.05 3633.27,3080.49 3628.39,3076.17 C 3623.51,3071.84 3619.42,3067.76 3616.14,3063.92 C 3612.86,3060.08 3611.22,3056.39 3611.22,3052.87 L 3679.42,3052.87 L 3679.42,3026.21 L 3573.27,3026.21 Z" fill-rule="nonzero" stroke-linejoin="round" stroke-linecap="round" stroke-width="0.242" fill="#e30615" marker-start="none" marker-end="none"/>
   <path d="M 3780.99,3136.92 C 3780.99,3140.13 3780.71,3143.33 3780.15,3146.53 C 3779.59,3149.73 3778.63,3152.57 3777.27,3155.05 C 3775.91,3157.53 3774.11,3159.58 3771.87,3161.18 C 3769.63,3162.78 3766.74,3163.58 3763.22,3163.58 C 3760.02,3163.58 3757.3,3162.82 3755.06,3161.3 C 3752.82,3159.78 3750.97,3157.78 3749.53,3155.29 C 3748.09,3152.81 3747.05,3149.97 3746.41,3146.77 C 3745.77,3143.57 3745.45,3140.28 3745.45,3136.92 C 3745.45,3133.4 3745.73,3129.92 3746.29,3126.48 C 3746.85,3123.03 3747.81,3119.99 3749.17,3117.35 C 3750.53,3114.71 3752.34,3112.59 3754.58,3110.99 C 3756.82,3109.39 3759.7,3108.59 3763.22,3108.59 C 3765.78,3108.59 3768.15,3109.35 3770.31,3110.87 C 3772.47,3112.39 3774.35,3114.43 3775.95,3116.99 C 3777.55,3119.55 3778.79,3122.55 3779.67,3126 C 3780.55,3129.44 3780.99,3133.08 3780.99,3136.92 Z M 3818.46,3128.28 C 3818.46,3117.39 3816.82,3106.62 3813.53,3095.98 C 3810.25,3085.33 3805.73,3075.2 3799.97,3065.6 C 3794.2,3055.99 3787.36,3047.07 3779.43,3038.82 C 3771.51,3030.58 3762.98,3023.41 3753.86,3017.33 L 3721.44,3033.9 C 3726.4,3036.94 3731.92,3041.14 3738.01,3046.51 C 3744.09,3051.87 3749.89,3057.67 3755.42,3063.92 C 3760.94,3070.16 3765.78,3076.57 3769.95,3083.13 C 3774.11,3089.69 3776.75,3095.78 3777.87,3101.38 C 3773.71,3095.62 3768.99,3091.58 3763.7,3089.25 C 3758.42,3086.93 3753.14,3085.77 3747.85,3085.77 C 3740.81,3085.77 3734.72,3086.97 3729.6,3089.37 C 3724.48,3091.78 3720.28,3095.1 3716.99,3099.34 C 3713.71,3103.58 3711.31,3108.67 3709.79,3114.59 C 3708.27,3120.51 3707.51,3127 3707.51,3134.04 C 3707.51,3140.76 3708.71,3147.29 3711.11,3153.61 C 3713.51,3159.94 3717.03,3165.5 3721.68,3170.3 C 3726.32,3175.11 3732.12,3178.99 3739.09,3181.95 C 3746.05,3184.91 3754.1,3186.39 3763.22,3186.39 C 3773.31,3186.39 3781.87,3184.83 3788.92,3181.71 C 3795.96,3178.59 3801.65,3174.39 3805.97,3169.1 C 3810.29,3163.82 3813.45,3157.66 3815.45,3150.61 C 3817.46,3143.57 3818.46,3136.12 3818.46,3128.28 Z" fill-rule="nonzero" stroke-linejoin="round" stroke-linecap="round" stroke-width="0.242" fill="#e30615" marker-start="none" marker-end="none"/>
   <path d="M 3465.92,2994.9 L 3465.92,3013.55 L 3465.92,3013.55 L 3465.92,3219.62 L 3926.18,3219.62 L 3926.18,2994.9 L 3465.92,2994.9 Z M 3907.54,3013.55 L 3907.54,3200.97 L 3484.56,3200.97 L 3484.56,3013.55 L 3907.54,3013.55 Z" fill="#e30615" stroke-linejoin="miter" marker-start="none" marker-end="none"/>
   <path d="M 3216.91,3231.76 L 3216.91,2982.76 L 3465.92,2982.76 L 3465.92,3231.76 L 3216.91,3231.76 Z" stroke-linejoin="miter" stroke-width="0.485" stroke-linecap="round" fill="#ffffff" marker-start="none" marker-end="none"/>
   <path d="M 3229.05,2994.9 L 3229.05,3219.62 L 3453.77,3219.62 L 3453.77,2994.9 L 3229.05,2994.9 Z M 3346.96,3084.95 L 3347.94,3078.58 L 3360.14,3078.58 C 3359.7,3081.87 3359.15,3085.28 3359.15,3088.58 L 3359.15,3118.24 C 3359.15,3127.69 3352.67,3133.62 3340.04,3133.62 C 3334.32,3133.62 3327.62,3132.96 3322.35,3130.55 L 3324.54,3121.43 C 3328.28,3123.4 3333.44,3124.28 3337.4,3124.28 C 3343.11,3124.28 3346.51,3121.76 3346.51,3116.15 L 3346.51,3110.11 C 3344.54,3110.44 3342.01,3110.99 3338.17,3110.99 C 3325.86,3110.99 3317.4,3104.95 3317.4,3093.74 C 3317.4,3083.75 3322.78,3077.6 3333.33,3077.6 C 3339.37,3077.6 3343.88,3080.23 3346.96,3084.95 Z M 3264.73,3078.58 L 3264.73,3140.65 L 3280.55,3140.65 L 3280.55,3151.97 L 3235.07,3151.97 L 3235.07,3140.65 L 3250.89,3140.65 L 3250.89,3078.58 L 3264.73,3078.58 Z M 3414.61,3078.58 L 3414.61,3112.74 C 3414.61,3118.13 3416.59,3124.28 3422.4,3124.28 C 3427.35,3124.28 3429.32,3120.44 3429.32,3115.72 L 3429.32,3078.58 L 3442.4,3078.58 L 3442.4,3116.7 C 3442.4,3126.15 3437.79,3133.62 3427.68,3133.62 C 3420.43,3133.62 3415.71,3130 3413.73,3125.39 C 3411.97,3129.22 3408.56,3133.62 3400,3133.62 C 3393.62,3133.62 3388.57,3130.33 3386.37,3125.39 L 3385.38,3132.63 L 3373.85,3132.63 L 3373.85,3078.58 L 3386.93,3078.58 L 3386.93,3112.53 C 3386.93,3117.91 3389.01,3124.28 3394.72,3124.28 C 3399.67,3124.28 3401.64,3120.88 3401.64,3115.72 L 3401.64,3078.58 L 3414.61,3078.58 Z M 3297.01,3078.58 L 3297.01,3108.13 C 3297.01,3114.95 3298.77,3121.98 3306.57,3121.98 C 3307.78,3121.98 3308.99,3121.76 3310.2,3121.43 L 3313.93,3132.96 C 3312.94,3133.4 3310.86,3133.62 3309.87,3133.62 C 3304.16,3133.62 3300.2,3131.2 3296.79,3125.49 L 3295.81,3132.63 L 3283.94,3132.63 L 3283.94,3078.58 L 3297.01,3078.58 Z M 3330.59,3094.4 C 3330.59,3099.13 3333.33,3103.41 3339.48,3103.41 C 3342.67,3103.41 3345.09,3102.96 3346.51,3102.42 L 3346.51,3094.84 C 3346.51,3090 3342.34,3086.38 3337.4,3086.38 C 3332.56,3086.38 3330.59,3089.79 3330.59,3094.4 Z" stroke-linejoin="miter" stroke-width="0" fill-rule="evenodd" fill="#d82020" marker-start="none" marker-end="none"/>
  </g>
 </g>
</svg>
