<?xml version="1.0" standalone="no"?>
<!DOCTYPE svg PUBLIC "-//W3C//DTD SVG 1.1//EN" "http://www.w3.org/Graphics/SVG/1.1/DTD/svg11.dtd">
<!--Generator: Xara Designer (www.xara.com), SVG filter version: 6.3.0.31-->
<svg fill="none" fill-rule="evenodd" stroke="black" stroke-width="0.501" stroke-linejoin="bevel" stroke-miterlimit="10" font-family="Times New Roman" font-size="16" style="font-variant-ligatures:none" xmlns:xlink="http://www.w3.org/1999/xlink" xmlns="http://www.w3.org/2000/svg" version="1.1" overflow="visible" width="158.824pt" height="55.757pt" viewBox="436.492 -659.284 158.824 55.757">
 <defs>
	</defs>
 <g id="Layer 1" transform="scale(1 -1)">
  <g id="Group" stroke="none">
   <rect x="-25.16" y="-51.533" width="50.32" height="103.066" transform="translate(543.783 631.405) rotate(90)" fill="#bacb06" stroke-linejoin="miter"/>
   <path d="M 514.294,612.715 L 514.294,616.813 C 514.294,619.067 514.749,621.181 515.728,623.09 C 516.597,624.786 517.68,626.336 518.974,627.737 C 520.197,629.059 521.528,630.291 522.965,631.427 C 524.242,632.439 525.413,633.443 526.48,634.44 C 527.481,635.375 528.286,636.306 528.916,637.228 C 529.367,637.888 529.578,638.574 529.578,639.353 C 529.578,640.047 529.389,640.31 529.229,640.462 C 529.145,640.542 528.731,640.849 527.418,640.849 C 526.503,640.849 525.518,640.77 524.458,640.604 C 523.698,640.486 522.524,640.082 520.863,639.217 C 519.381,638.445 517.558,639.186 517.034,640.772 L 515.095,646.642 C 514.675,647.912 515.245,649.3 516.437,649.908 C 518.38,650.901 520.493,651.558 522.756,651.893 C 524.867,652.206 526.902,652.365 528.858,652.365 C 530.793,652.365 532.634,652.15 534.365,651.695 C 536.126,651.232 537.726,650.509 539.122,649.492 C 540.577,648.431 541.712,647.064 542.526,645.439 C 543.376,643.736 543.753,641.827 543.753,639.796 C 543.753,637.705 543.273,635.716 542.313,633.866 C 541.453,632.209 540.388,630.656 539.127,629.209 C 537.905,627.805 536.573,626.506 535.135,625.307 C 533.823,624.213 532.616,623.179 531.513,622.202 L 530.843,621.575 L 541.484,621.575 C 542.981,621.575 544.196,620.36 544.196,618.863 L 544.196,612.715 C 544.196,611.217 542.981,610.002 541.484,610.002 L 517.007,610.002 C 515.509,610.002 514.294,611.217 514.294,612.715 Z" stroke-linejoin="round" stroke-width="0.25" fill="#a7b606" marker-start="none" marker-end="none"/>
   <path d="M 515.198,612.715 L 515.198,616.813 C 515.198,618.943 515.627,620.912 516.532,622.677 C 517.364,624.301 518.4,625.783 519.638,627.123 C 520.829,628.411 522.125,629.61 523.526,630.719 C 524.82,631.744 526.01,632.764 527.097,633.779 C 528.14,634.753 528.99,635.734 529.662,636.718 C 530.216,637.527 530.482,638.391 530.482,639.353 C 530.482,640.246 530.224,640.763 529.853,641.117 C 529.532,641.422 528.847,641.753 527.418,641.753 C 526.451,641.753 525.419,641.669 524.318,641.498 C 523.418,641.357 522.143,640.903 520.445,640.019 C 519.457,639.504 518.242,639.998 517.892,641.055 L 515.953,646.925 C 515.674,647.772 516.054,648.697 516.848,649.103 C 518.698,650.048 520.715,650.677 522.888,650.998 C 524.961,651.306 526.951,651.461 528.858,651.461 C 530.726,651.461 532.489,651.253 534.135,650.821 C 535.801,650.383 537.296,649.703 538.59,648.761 C 539.923,647.789 540.965,646.536 541.717,645.034 C 542.493,643.481 542.849,641.716 542.849,639.796 C 542.849,637.848 542.403,636.002 541.511,634.282 C 540.685,632.692 539.661,631.198 538.445,629.803 C 537.255,628.436 535.958,627.17 534.557,626.001 C 533.239,624.903 532.025,623.863 530.914,622.879 C 530.374,622.401 529.885,621.942 529.444,621.501 L 528.671,620.671 L 541.484,620.671 C 542.482,620.671 543.292,619.861 543.292,618.863 L 543.292,612.715 C 543.292,611.716 542.482,610.906 541.484,610.906 L 517.007,610.906 C 516.008,610.906 515.198,611.716 515.198,612.715 Z" stroke-linejoin="round" stroke-width="0.25" fill="#94a106" marker-start="none" marker-end="none"/>
   <path d="M 516.103,612.715 L 516.103,616.813 C 516.103,618.819 516.506,620.644 517.337,622.265 C 518.131,623.815 519.12,625.23 520.302,626.509 C 521.461,627.762 522.722,628.93 524.087,630.009 C 525.399,631.048 526.608,632.085 527.714,633.118 C 528.799,634.131 529.694,635.162 530.409,636.208 C 531.064,637.166 531.387,638.207 531.387,639.353 C 531.387,640.445 531.059,641.216 530.477,641.771 C 529.92,642.302 528.963,642.658 527.418,642.658 C 526.399,642.658 525.32,642.569 524.179,642.391 C 523.138,642.228 521.762,641.725 520.027,640.821 C 519.533,640.564 518.926,640.81 518.751,641.339 L 516.812,647.209 C 516.672,647.632 516.862,648.095 517.259,648.298 C 519.015,649.195 520.937,649.795 523.021,650.104 C 525.054,650.406 527,650.557 528.858,650.557 C 530.659,650.557 532.344,650.356 533.905,649.946 C 535.477,649.533 536.865,648.898 538.057,648.03 C 539.268,647.147 540.218,646.008 540.908,644.63 C 541.61,643.226 541.945,641.605 541.945,639.796 C 541.945,637.991 541.532,636.288 540.708,634.699 C 539.916,633.175 538.934,631.74 537.763,630.397 C 536.605,629.067 535.343,627.834 533.977,626.696 C 532.654,625.593 531.433,624.547 530.315,623.557 C 529.212,622.581 528.302,621.669 527.579,620.822 C 527.409,620.624 527.267,620.435 527.149,620.254 L 526.88,619.767 L 541.484,619.767 C 541.982,619.767 542.388,619.361 542.388,618.863 L 542.388,612.715 C 542.388,612.216 541.982,611.811 541.484,611.811 L 517.007,611.811 C 516.508,611.811 516.103,612.216 516.103,612.715 Z" stroke-linejoin="round" stroke-width="0.25" stroke-linecap="round" fill-rule="nonzero" fill="#808c06" marker-start="none" marker-end="none"/>
   <path d="M 555.272,609.684 C 554.389,609.76 553.491,609.856 552.573,609.971 C 551.614,610.091 550.676,610.251 549.762,610.455 C 548.849,610.658 548.016,610.896 547.295,611.184 C 546.245,611.603 545.597,612.666 545.707,613.792 L 546.316,620.05 C 546.486,621.8 548.345,622.854 549.934,622.102 C 551.113,621.544 552.304,621.187 553.513,621.021 C 554.935,620.826 556.007,620.74 556.766,620.74 C 558.963,620.74 559.774,621.236 560.026,621.507 C 560.445,621.958 560.813,622.733 560.813,624.179 C 560.813,624.617 560.681,624.968 560.191,625.371 C 559.715,625.762 558.982,626.066 557.763,626.066 L 552.17,626.066 C 550.766,626.066 549.627,627.205 549.627,628.609 L 549.627,634.701 C 549.627,636.104 550.766,637.243 552.17,637.243 L 557.874,637.243 C 559.146,637.243 559.585,637.575 559.748,637.757 C 560.113,638.162 560.315,638.643 560.315,639.353 C 560.315,639.881 560.162,640.225 559.842,640.544 C 559.683,640.703 559.216,641.019 557.93,641.019 C 556.689,641.019 555.493,640.927 554.336,640.745 C 553.254,640.575 552.087,640.252 550.832,639.757 C 549.342,639.168 547.683,640.091 547.397,641.667 L 546.29,647.758 C 546.06,649.021 546.81,650.259 548.036,650.64 C 549.842,651.202 551.696,651.603 553.594,651.843 C 555.448,652.078 557.263,652.195 559.037,652.195 C 560.951,652.195 562.773,651.992 564.492,651.567 C 566.249,651.133 567.846,650.443 569.245,649.465 C 570.679,648.46 571.822,647.172 572.655,645.625 C 573.54,643.981 573.928,642.118 573.928,640.128 C 573.928,638.595 573.614,637.132 572.912,635.808 C 572.308,634.668 571.545,633.657 570.616,632.802 L 570.173,632.451 L 571.467,631.348 C 572.435,630.379 573.201,629.25 573.765,627.98 C 574.369,626.621 574.648,625.157 574.648,623.625 C 574.648,619.21 573.155,615.518 569.893,613.001 C 566.776,610.594 562.582,609.563 557.653,609.563 C 556.964,609.563 556.165,609.606 555.272,609.684 Z" stroke-linejoin="round" stroke-width="0.25" fill="#a7b606" marker-start="none" marker-end="none"/>
   <path d="M 555.345,610.528 C 554.474,610.604 553.586,610.698 552.679,610.812 C 551.744,610.929 550.832,611.085 549.946,611.282 C 549.06,611.479 548.275,611.706 547.609,611.971 C 546.909,612.25 546.477,612.959 546.55,613.71 L 547.159,619.968 C 547.273,621.134 548.512,621.837 549.572,621.336 C 550.825,620.742 552.099,620.36 553.397,620.182 C 554.838,619.984 555.952,619.893 556.766,619.893 C 559.043,619.893 560.153,620.399 560.647,620.93 C 561.252,621.581 561.661,622.587 561.661,624.179 C 561.661,624.889 561.4,625.474 560.729,626.026 C 560.067,626.57 559.129,626.914 557.763,626.914 L 552.17,626.914 C 551.234,626.914 550.475,627.673 550.475,628.609 L 550.475,634.701 C 550.475,635.636 551.234,636.396 552.17,636.396 L 557.874,636.396 C 559.288,636.396 559.999,636.767 560.379,637.19 C 560.892,637.762 561.163,638.449 561.163,639.353 C 561.163,640.098 560.925,640.66 560.441,641.144 C 560.064,641.52 559.341,641.867 557.93,641.867 C 556.647,641.867 555.406,641.771 554.205,641.582 C 553.052,641.401 551.825,641.06 550.521,640.545 C 549.528,640.153 548.422,640.768 548.231,641.818 L 547.124,647.909 C 546.971,648.752 547.47,649.577 548.288,649.831 C 550.046,650.378 551.851,650.768 553.701,651.002 C 555.521,651.233 557.301,651.348 559.037,651.348 C 560.891,651.348 562.644,651.151 564.289,650.744 C 565.959,650.332 567.457,649.681 568.759,648.771 C 570.084,647.842 571.138,646.654 571.909,645.223 C 572.714,643.727 573.081,642.008 573.081,640.128 C 573.081,638.712 572.791,637.389 572.163,636.205 C 571.601,635.143 570.895,634.211 570.042,633.426 C 569.63,633.046 569.196,632.702 568.73,632.389 L 569.484,631.928 C 569.973,631.575 570.434,631.182 570.868,630.749 C 571.759,629.856 572.467,628.815 572.99,627.636 C 573.541,626.398 573.801,625.052 573.801,623.625 C 573.801,619.414 572.387,615.996 569.375,613.672 C 566.461,611.421 562.477,610.411 557.653,610.411 C 556.996,610.411 556.224,610.451 555.345,610.528 Z" stroke-linejoin="round" stroke-width="0.25" fill="#94a106" marker-start="none" marker-end="none"/>
   <path d="M 555.419,611.372 C 554.558,611.447 553.681,611.54 552.784,611.653 C 551.874,611.767 550.988,611.918 550.13,612.109 C 549.272,612.3 548.533,612.515 547.923,612.758 C 547.573,612.898 547.357,613.252 547.394,613.628 L 548.003,619.886 C 548.06,620.469 548.679,620.82 549.209,620.57 C 550.537,619.941 551.894,619.533 553.282,619.342 C 554.74,619.142 555.897,619.045 556.766,619.045 C 559.123,619.045 560.532,619.561 561.268,620.353 C 562.059,621.205 562.508,622.441 562.508,624.179 C 562.508,625.161 562.119,625.98 561.267,626.681 C 560.419,627.377 559.276,627.761 557.763,627.761 L 552.17,627.761 C 551.702,627.761 551.322,628.141 551.322,628.609 L 551.322,634.701 C 551.322,635.168 551.702,635.548 552.17,635.548 L 557.874,635.548 C 559.43,635.548 560.413,635.96 561.009,636.624 C 561.672,637.362 562.01,638.254 562.01,639.353 C 562.01,640.316 561.688,641.095 561.04,641.743 C 560.445,642.337 559.466,642.714 557.93,642.714 C 556.605,642.714 555.32,642.615 554.073,642.419 C 552.851,642.227 551.563,641.868 550.21,641.333 C 549.713,641.137 549.16,641.445 549.065,641.97 L 547.958,648.061 C 547.881,648.482 548.131,648.895 548.54,649.022 C 550.249,649.554 552.006,649.933 553.807,650.161 C 555.594,650.388 557.338,650.5 559.037,650.5 C 560.831,650.5 562.515,650.31 564.086,649.921 C 565.668,649.531 567.068,648.919 568.273,648.077 C 569.489,647.224 570.454,646.137 571.163,644.821 C 571.888,643.473 572.233,641.898 572.233,640.128 C 572.233,638.829 571.968,637.646 571.414,636.602 C 570.894,635.619 570.245,634.765 569.468,634.049 C 569.086,633.698 568.686,633.38 568.267,633.098 L 566.961,632.358 L 567.556,632.109 C 568.561,631.605 569.466,630.952 570.269,630.15 C 571.083,629.334 571.733,628.38 572.216,627.292 C 572.713,626.174 572.953,624.948 572.953,623.625 C 572.953,619.618 571.619,616.474 568.857,614.343 C 566.145,612.248 562.372,611.258 557.653,611.258 C 557.029,611.258 556.283,611.297 555.419,611.372 Z" stroke-linejoin="round" stroke-width="0.25" stroke-linecap="round" fill-rule="nonzero" fill="#808c06" marker-start="none" marker-end="none"/>
   <path d="M 572.105,623.625 C 572.105,619.823 570.85,616.952 568.339,615.014 C 565.829,613.076 562.266,612.106 557.652,612.106 C 557.061,612.106 556.341,612.143 555.492,612.217 C 554.642,612.291 553.775,612.383 552.889,612.494 C 552.003,612.605 551.144,612.752 550.314,612.937 C 549.483,613.122 548.791,613.325 548.237,613.546 L 548.846,619.804 C 550.249,619.14 551.689,618.706 553.166,618.503 C 554.642,618.3 555.842,618.198 556.765,618.198 C 559.202,618.198 560.91,618.724 561.888,619.777 C 562.866,620.829 563.355,622.296 563.355,624.179 C 563.355,625.434 562.838,626.486 561.805,627.336 C 560.771,628.185 559.423,628.609 557.762,628.609 L 552.169,628.609 L 552.169,634.701 L 557.873,634.701 C 559.571,634.701 560.826,635.153 561.639,636.058 C 562.451,636.962 562.857,638.06 562.857,639.353 C 562.857,640.534 562.451,641.531 561.639,642.343 C 560.826,643.155 559.59,643.562 557.929,643.562 C 556.562,643.562 555.233,643.46 553.941,643.257 C 552.649,643.054 551.301,642.676 549.898,642.122 L 548.791,648.213 C 550.452,648.73 552.16,649.099 553.913,649.321 C 555.667,649.543 557.375,649.653 559.036,649.653 C 560.771,649.653 562.386,649.469 563.882,649.099 C 565.377,648.73 566.678,648.158 567.786,647.383 C 568.893,646.607 569.77,645.62 570.416,644.42 C 571.062,643.22 571.385,641.789 571.385,640.128 C 571.385,638.947 571.145,637.904 570.665,636.999 C 570.186,636.095 569.595,635.319 568.893,634.673 C 568.192,634.027 567.426,633.51 566.595,633.123 C 565.765,632.735 565.017,632.467 564.352,632.32 C 565.312,632.135 566.253,631.812 567.176,631.351 C 568.099,630.889 568.93,630.289 569.669,629.551 C 570.407,628.812 570.998,627.945 571.441,626.948 C 571.884,625.951 572.105,624.844 572.105,623.625 Z" stroke-linejoin="round" stroke-width="0.25" fill-rule="nonzero" stroke-linecap="round" fill="#ffffff" marker-start="none" marker-end="none"/>
   <path d="M 436.492,659.284 L 436.492,603.527 L 492.25,603.527 L 492.25,659.284 L 436.492,659.284 Z" stroke-linejoin="miter" stroke-width="0.485" stroke-linecap="round" fill="#ffffff" marker-start="none" marker-end="none"/>
   <path d="M 439.212,606.246 L 439.212,656.565 L 489.531,656.565 L 489.531,606.246 L 439.212,606.246 Z M 465.613,626.41 L 465.834,624.984 L 468.564,624.983 C 468.466,625.721 468.344,626.483 468.344,627.223 L 468.344,633.864 C 468.344,635.98 466.891,637.309 464.063,637.309 C 462.782,637.309 461.282,637.161 460.102,636.62 L 460.594,634.578 C 461.43,635.02 462.586,635.217 463.472,635.217 C 464.752,635.217 465.513,634.651 465.513,633.396 L 465.513,632.044 C 465.071,632.118 464.504,632.241 463.645,632.241 C 460.889,632.241 458.995,630.888 458.995,628.378 C 458.995,626.141 460.2,624.763 462.562,624.763 C 463.914,624.763 464.923,625.352 465.613,626.41 Z M 447.201,624.983 L 447.201,638.882 L 450.744,638.882 L 450.744,641.417 L 440.559,641.417 L 440.559,638.882 L 444.101,638.882 L 444.101,624.983 L 447.201,624.983 Z M 480.762,624.983 L 480.762,632.633 C 480.762,633.84 481.204,635.217 482.507,635.217 C 483.614,635.217 484.056,634.357 484.056,633.299 L 484.056,624.984 L 486.985,624.983 L 486.985,633.52 C 486.985,635.636 485.953,637.309 483.689,637.309 C 482.064,637.309 481.008,636.497 480.564,635.464 C 480.171,636.324 479.407,637.309 477.49,637.309 C 476.062,637.309 474.93,636.572 474.439,635.464 L 474.217,637.087 L 471.634,637.087 L 471.634,624.984 L 474.562,624.984 L 474.562,632.585 C 474.562,633.791 475.029,635.217 476.307,635.217 C 477.416,635.217 477.857,634.454 477.857,633.299 L 477.857,624.983 L 480.762,624.983 Z M 454.429,624.984 L 454.429,631.601 C 454.429,633.127 454.823,634.701 456.57,634.701 C 456.84,634.701 457.11,634.651 457.381,634.578 L 458.218,637.161 C 457.996,637.259 457.529,637.309 457.307,637.309 C 456.029,637.309 455.143,636.767 454.38,635.488 L 454.159,637.087 L 451.502,637.087 L 451.502,624.984 L 454.429,624.984 Z M 461.947,628.527 C 461.947,629.585 462.562,630.543 463.939,630.543 C 464.652,630.543 465.194,630.443 465.513,630.322 L 465.513,628.625 C 465.513,627.542 464.578,626.73 463.472,626.73 C 462.39,626.73 461.947,627.493 461.947,628.527 Z" stroke-linejoin="miter" stroke-width="0" fill-rule="evenodd" fill="#d82020" marker-start="none" marker-end="none"/>
   <path d="M 517.007,612.715 L 517.007,616.813 C 517.007,618.696 517.385,620.376 518.142,621.853 C 518.899,623.33 519.84,624.677 520.966,625.896 C 522.093,627.114 523.32,628.25 524.649,629.301 C 525.978,630.354 527.206,631.406 528.332,632.458 C 529.458,633.51 530.399,634.59 531.156,635.698 C 531.913,636.805 532.291,638.024 532.291,639.353 C 532.291,640.645 531.894,641.67 531.101,642.426 C 530.307,643.183 529.079,643.562 527.418,643.562 C 526.347,643.562 525.222,643.469 524.04,643.285 C 522.858,643.1 521.382,642.546 519.61,641.623 L 517.671,647.493 C 519.333,648.342 521.16,648.915 523.154,649.21 C 525.148,649.506 527.049,649.653 528.858,649.653 C 530.593,649.653 532.199,649.46 533.676,649.072 C 535.153,648.684 536.436,648.093 537.525,647.3 C 538.614,646.506 539.472,645.481 540.1,644.226 C 540.727,642.971 541.041,641.494 541.041,639.796 C 541.041,638.135 540.663,636.575 539.906,635.116 C 539.149,633.658 538.208,632.283 537.082,630.991 C 535.956,629.698 534.728,628.499 533.399,627.391 C 532.07,626.283 530.842,625.231 529.716,624.234 C 528.59,623.238 527.649,622.296 526.892,621.41 C 526.135,620.524 525.757,619.675 525.757,618.863 L 541.484,618.863 L 541.484,612.715 L 517.007,612.715 Z" stroke-linejoin="round" stroke-width="0.25" fill-rule="nonzero" stroke-linecap="round" fill="#ffffff" marker-start="none" marker-end="none"/>
  </g>
 </g>
</svg>
