<?xml version="1.0" standalone="no"?>
<!DOCTYPE svg PUBLIC "-//W3C//DTD SVG 1.1//EN" "http://www.w3.org/Graphics/SVG/1.1/DTD/svg11.dtd">
<!--Generator: Xara Designer (www.xara.com), SVG filter version: 6.3.0.31-->
<svg fill="none" fill-rule="evenodd" stroke="black" stroke-width="0.501" stroke-linejoin="bevel" stroke-miterlimit="10" font-family="Times New Roman" font-size="16" style="font-variant-ligatures:none" xmlns:xlink="http://www.w3.org/1999/xlink" xmlns="http://www.w3.org/2000/svg" version="1.1" overflow="visible" width="709.279pt" height="249.007pt" viewBox="17.873 -2684.4 709.279 249.007">
 <defs>
	</defs>
 <g id="Layer 1" transform="scale(1 -1)">
  <g id="Group" stroke="none">
   <rect x="-112.359" y="-230.136" width="224.719" height="460.272" transform="translate(497.016 2559.9) rotate(90)" fill="#0064ae" stroke-linejoin="miter"/>
   <path d="M 381.444,2478.85 L 381.444,2505.51 L 415.785,2505.51 L 415.785,2606.13 L 378.802,2585.48 L 376.641,2614.54 L 416.745,2636.39 L 453.729,2636.39 L 453.729,2505.51 L 485.188,2505.51 L 485.188,2478.85 L 381.444,2478.85 Z" fill-rule="nonzero" stroke-linejoin="round" stroke-linecap="round" stroke-width="0.243" fill="#ffffff" marker-start="none" marker-end="none"/>
   <path d="M 581.478,2527.37 C 581.478,2530.89 581.197,2534.25 580.637,2537.45 C 580.077,2540.65 579.116,2543.49 577.755,2545.98 C 576.394,2548.46 574.593,2550.42 572.352,2551.86 C 570.111,2553.3 567.23,2554.02 563.707,2554.02 C 558.583,2554.02 554.341,2551.54 550.979,2546.58 C 547.616,2541.61 545.935,2535.21 545.935,2527.37 C 545.935,2524.16 546.216,2520.88 546.776,2517.52 C 547.337,2514.16 548.297,2511.12 549.658,2508.39 C 551.019,2505.67 552.82,2503.43 555.061,2501.67 C 557.303,2499.91 560.185,2499.03 563.707,2499.03 C 567.23,2499.03 570.15,2499.79 572.471,2501.31 C 574.793,2502.83 576.594,2504.91 577.875,2507.55 C 579.156,2510.2 580.077,2513.24 580.637,2516.68 C 581.197,2520.12 581.478,2523.68 581.478,2527.37 Z M 619.421,2528.09 C 619.421,2521.68 618.301,2515.36 616.059,2509.11 C 613.819,2502.87 610.416,2497.31 605.853,2492.42 C 601.29,2487.54 595.527,2483.62 588.563,2480.66 C 581.597,2477.69 573.312,2476.21 563.707,2476.21 C 553.62,2476.21 545.055,2477.77 538.011,2480.9 C 530.966,2484.02 525.282,2488.22 520.96,2493.5 C 516.638,2498.79 513.475,2504.95 511.474,2512 C 509.473,2519.04 508.472,2526.48 508.472,2534.33 C 508.472,2545.22 510.153,2556.02 513.516,2566.75 C 516.878,2577.48 521.52,2587.68 527.444,2597.37 C 533.367,2607.05 540.332,2616.02 548.337,2624.27 C 556.342,2632.51 564.987,2639.51 574.273,2645.28 L 605.493,2628.71 C 600.53,2625.67 595.006,2621.46 588.923,2616.1 C 582.838,2610.74 577.034,2604.93 571.511,2598.69 C 565.989,2592.45 561.145,2586.04 556.983,2579.48 C 552.82,2572.91 550.178,2566.83 549.057,2561.23 C 553.22,2566.99 557.943,2571.03 563.227,2573.35 C 568.51,2575.68 573.793,2576.84 579.076,2576.84 C 586.12,2576.84 592.164,2575.64 597.208,2573.23 C 602.251,2570.83 606.413,2567.47 609.695,2563.15 C 612.978,2558.83 615.419,2553.66 617.019,2547.66 C 618.62,2541.65 619.421,2535.13 619.421,2528.09 Z" fill-rule="nonzero" stroke-linejoin="round" stroke-linecap="round" stroke-width="0.243" fill="#ffffff" marker-start="none" marker-end="none"/>
   <path d="M 17.873,2684.4 L 17.873,2435.4 L 266.88,2435.4 L 266.88,2684.4 L 17.873,2684.4 Z" stroke-linejoin="miter" stroke-width="0.485" stroke-linecap="round" fill="#ffffff" marker-start="none" marker-end="none"/>
   <path d="M 30.019,2447.54 L 30.019,2672.26 L 254.738,2672.26 L 254.738,2447.54 L 30.019,2447.54 Z M 147.922,2537.59 L 148.908,2531.22 L 161.103,2531.22 C 160.665,2534.51 160.118,2537.92 160.118,2541.22 L 160.118,2570.88 C 160.118,2580.33 153.63,2586.26 141.001,2586.26 C 135.282,2586.26 128.583,2585.61 123.31,2583.19 L 125.508,2574.07 C 129.244,2576.04 134.405,2576.92 138.363,2576.92 C 144.076,2576.92 147.478,2574.4 147.478,2568.79 L 147.478,2562.75 C 145.501,2563.08 142.972,2563.63 139.133,2563.63 C 126.828,2563.63 118.368,2557.59 118.368,2546.38 C 118.368,2536.39 123.748,2530.24 134.296,2530.24 C 140.335,2530.24 144.841,2532.87 147.922,2537.59 Z M 65.698,2531.22 L 65.698,2593.29 L 81.519,2593.29 L 81.519,2604.61 L 36.036,2604.61 L 36.036,2593.29 L 51.856,2593.29 L 51.856,2531.22 L 65.698,2531.22 Z M 215.575,2531.22 L 215.575,2565.38 C 215.575,2570.77 217.551,2576.92 223.368,2576.92 C 228.313,2576.92 230.289,2573.08 230.289,2568.36 L 230.289,2531.22 L 243.367,2531.22 L 243.367,2569.34 C 243.367,2578.79 238.758,2586.26 228.648,2586.26 C 221.391,2586.26 216.674,2582.64 214.692,2578.03 C 212.937,2581.87 209.526,2586.26 200.963,2586.26 C 194.589,2586.26 189.531,2582.97 187.338,2578.03 L 186.347,2585.28 L 174.811,2585.28 L 174.811,2531.22 L 187.89,2531.22 L 187.89,2565.17 C 187.89,2570.55 189.975,2576.92 195.683,2576.92 C 200.633,2576.92 202.605,2573.52 202.605,2568.36 L 202.605,2531.22 L 215.575,2531.22 Z M 97.978,2531.22 L 97.978,2560.77 C 97.978,2567.59 99.738,2574.62 107.536,2574.62 C 108.744,2574.62 109.952,2574.4 111.162,2574.07 L 114.899,2585.61 C 113.908,2586.04 111.821,2586.26 110.832,2586.26 C 105.121,2586.26 101.165,2583.85 97.759,2578.13 L 96.77,2585.28 L 84.905,2585.28 L 84.905,2531.22 L 97.978,2531.22 Z M 131.551,2547.05 C 131.551,2551.77 134.296,2556.05 140.449,2556.05 C 143.633,2556.05 146.053,2555.61 147.478,2555.06 L 147.478,2547.48 C 147.478,2542.65 143.302,2539.02 138.363,2539.02 C 133.527,2539.02 131.551,2542.43 131.551,2547.05 Z" stroke-linejoin="miter" stroke-width="0" fill-rule="evenodd" fill="#d82020" marker-start="none" marker-end="none"/>
  </g>
 </g>
</svg>
