<?xml version="1.0" standalone="no"?>
<!DOCTYPE svg PUBLIC "-//W3C//DTD SVG 1.1//EN" "http://www.w3.org/Graphics/SVG/1.1/DTD/svg11.dtd">
<!--Generator: Xara Designer (www.xara.com), SVG filter version: 6.3.0.31-->
<svg fill="none" fill-rule="evenodd" stroke="black" stroke-width="0.501" stroke-linejoin="bevel" stroke-miterlimit="10" font-family="Times New Roman" font-size="16" style="font-variant-ligatures:none" xmlns:xlink="http://www.w3.org/1999/xlink" xmlns="http://www.w3.org/2000/svg" version="1.1" overflow="visible" width="709.288pt" height="249.007pt" viewBox="2426.81 -2967.15 709.288 249.007">
 <defs>
	</defs>
 <g id="Layer 1" transform="scale(1 -1)">
  <g id="Group" stroke="none">
   <rect x="-112.361" y="-230.14" width="224.722" height="460.281" transform="translate(2905.96 2842.65) rotate(90)" fill="#f7a500" stroke-linejoin="miter"/>
   <path d="M 2773.83,2761.6 L 2773.83,2779.37 C 2773.83,2788.82 2775.74,2797.6 2779.78,2805.49 C 2783.45,2812.65 2788.02,2819.19 2793.48,2825.1 C 2798.7,2830.75 2804.38,2836 2810.52,2840.86 C 2816.1,2845.28 2821.23,2849.67 2825.91,2854.05 C 2830.36,2858.21 2833.98,2862.38 2836.82,2866.54 C 2839.05,2869.8 2840.11,2873.25 2840.11,2877.12 C 2840.11,2880.66 2839.11,2882.47 2837.85,2883.68 C 2836.85,2884.62 2834.34,2886.02 2828.33,2886.02 C 2824.22,2886.02 2819.82,2885.67 2815.12,2884.93 C 2811.45,2884.36 2806.09,2882.47 2798.78,2878.67 C 2793.68,2876.01 2787.39,2878.56 2785.59,2884.03 L 2777.18,2909.49 C 2775.74,2913.86 2777.7,2918.64 2781.8,2920.74 C 2789.98,2924.92 2798.89,2927.69 2808.47,2929.11 C 2817.51,2930.45 2826.22,2931.13 2834.57,2931.13 C 2842.79,2931.13 2850.56,2930.21 2857.84,2928.3 C 2865.22,2926.36 2871.88,2923.35 2877.66,2919.13 C 2883.64,2914.77 2888.32,2909.15 2891.68,2902.43 C 2895.18,2895.44 2896.75,2887.55 2896.75,2879.04 C 2896.75,2870.35 2894.76,2862.11 2890.78,2854.44 C 2887.14,2847.43 2882.63,2840.85 2877.28,2834.71 C 2872.07,2828.73 2866.39,2823.18 2860.25,2818.06 C 2854.54,2813.31 2849.29,2808.81 2844.49,2804.55 C 2842.17,2802.5 2840.06,2800.53 2838.18,2798.64 L 2837.22,2797.61 L 2889.33,2797.61 C 2894.49,2797.61 2898.67,2793.42 2898.67,2788.26 L 2898.67,2761.6 C 2898.67,2756.44 2894.49,2752.25 2889.33,2752.25 L 2783.18,2752.25 C 2778.02,2752.25 2773.83,2756.44 2773.83,2761.6 Z" fill="#ae7400" stroke-linejoin="round" stroke-width="0.243" marker-start="none" marker-end="none"/>
   <path d="M 2783.18,2761.6 L 2783.18,2779.37 C 2783.18,2787.54 2784.82,2794.82 2788.1,2801.23 C 2791.38,2807.63 2795.47,2813.47 2800.35,2818.76 C 2805.23,2824.04 2810.55,2828.96 2816.32,2833.53 C 2822.08,2838.09 2827.41,2842.65 2832.29,2847.22 C 2837.17,2851.78 2841.26,2856.46 2844.54,2861.26 C 2847.82,2866.07 2849.46,2871.35 2849.46,2877.12 C 2849.46,2882.72 2847.74,2887.16 2844.3,2890.44 C 2840.85,2893.73 2835.53,2895.37 2828.33,2895.37 C 2823.68,2895.37 2818.8,2894.97 2813.68,2894.17 C 2808.55,2893.37 2802.15,2890.96 2794.46,2886.96 L 2786.06,2912.42 C 2793.26,2916.1 2801.19,2918.58 2809.84,2919.86 C 2818.48,2921.14 2826.72,2921.78 2834.57,2921.78 C 2842.1,2921.78 2849.06,2920.94 2855.46,2919.26 C 2861.87,2917.58 2867.43,2915.02 2872.16,2911.58 C 2876.88,2908.14 2880.6,2903.69 2883.32,2898.25 C 2886.04,2892.81 2887.4,2886.4 2887.4,2879.04 C 2887.4,2871.83 2885.76,2865.07 2882.48,2858.74 C 2879.2,2852.42 2875.12,2846.46 2870.23,2840.85 C 2865.35,2835.25 2860.03,2830.05 2854.26,2825.24 C 2848.5,2820.44 2843.18,2815.88 2838.29,2811.55 C 2833.41,2807.23 2829.33,2803.15 2826.05,2799.3 C 2822.76,2795.46 2821.12,2791.78 2821.12,2788.26 L 2889.33,2788.26 L 2889.33,2761.6 L 2783.18,2761.6 Z" stroke-linejoin="round" stroke-width="0.243" fill-rule="nonzero" stroke-linecap="round" fill="#ffffff" marker-start="none" marker-end="none"/>
   <path d="M 2964.22,2744.97 L 2928.43,2758.9 C 2923.58,2760.79 2921.21,2766.28 2923.15,2771.11 C 2927.17,2781.07 2931.51,2791.63 2936.16,2802.78 C 2940.83,2813.95 2945.57,2825.08 2950.39,2836.17 C 2955.21,2847.24 2959.94,2857.97 2964.6,2868.33 C 2966.93,2873.5 2969.16,2878.43 2971.29,2883.11 L 2918.85,2883.12 C 2913.69,2883.12 2909.51,2887.3 2909.51,2892.47 L 2909.51,2919.14 C 2909.51,2924.3 2913.69,2928.49 2918.85,2928.49 L 3025.24,2928.49 C 3030.4,2928.49 3034.59,2924.3 3034.59,2919.14 L 3034.59,2903.05 C 3034.59,2901.79 3034.33,2900.53 3033.83,2899.37 C 3029.09,2888.29 3024.25,2876.32 3019.32,2863.45 C 3014.37,2850.5 3009.41,2837.43 3004.45,2824.24 C 2999.49,2811.03 2994.6,2798.06 2989.8,2785.32 C 2984.98,2772.57 2980.49,2760.88 2976.3,2750.26 C 2974.42,2745.47 2969.01,2743.11 2964.22,2744.97 Z" fill="#ae7400" stroke-linejoin="round" stroke-width="0.243" marker-start="none" marker-end="none"/>
   <path d="M 3025.24,2903.05 C 3020.44,2891.85 3015.56,2879.76 3010.59,2866.79 C 3005.63,2853.82 3000.67,2840.74 2995.7,2827.53 C 2990.74,2814.32 2985.86,2801.35 2981.05,2788.63 C 2976.25,2775.9 2971.77,2764.25 2967.61,2753.69 L 2931.82,2767.61 C 2935.83,2777.54 2940.15,2788.06 2944.79,2799.18 C 2949.43,2810.31 2954.16,2821.39 2958.96,2832.44 C 2963.76,2843.48 2968.49,2854.17 2973.13,2864.49 C 2977.77,2874.82 2982.01,2884.14 2985.86,2892.47 L 2918.85,2892.47 L 2918.85,2919.14 L 3025.24,2919.14 L 3025.24,2903.05 Z" stroke-linejoin="round" stroke-width="0.243" fill-rule="nonzero" stroke-linecap="round" fill="#ffffff" marker-start="none" marker-end="none"/>
   <path d="M 2426.81,2967.15 L 2426.81,2718.15 L 2675.82,2718.15 L 2675.82,2967.15 L 2426.81,2967.15 Z" stroke-linejoin="miter" stroke-width="0.485" stroke-linecap="round" fill="#ffffff" marker-start="none" marker-end="none"/>
   <path d="M 2438.95,2730.29 L 2438.95,2955.01 L 2663.67,2955.01 L 2663.67,2730.29 L 2438.95,2730.29 Z M 2556.86,2820.34 L 2557.84,2813.97 L 2570.04,2813.97 C 2569.6,2817.26 2569.05,2820.67 2569.05,2823.97 L 2569.05,2853.63 C 2569.05,2863.08 2562.57,2869.01 2549.94,2869.01 C 2544.22,2869.01 2537.52,2868.36 2532.25,2865.94 L 2534.44,2856.82 C 2538.18,2858.79 2543.34,2859.67 2547.3,2859.67 C 2553.01,2859.67 2556.41,2857.15 2556.41,2851.54 L 2556.41,2845.5 C 2554.44,2845.83 2551.91,2846.38 2548.07,2846.38 C 2535.76,2846.38 2527.3,2840.34 2527.3,2829.13 C 2527.3,2819.14 2532.68,2812.99 2543.23,2812.99 C 2549.27,2812.99 2553.78,2815.62 2556.86,2820.34 Z M 2474.63,2813.97 L 2474.63,2876.04 L 2490.45,2876.04 L 2490.45,2887.36 L 2444.97,2887.36 L 2444.97,2876.04 L 2460.79,2876.04 L 2460.79,2813.97 L 2474.63,2813.97 Z M 2624.51,2813.97 L 2624.51,2848.13 C 2624.51,2853.52 2626.49,2859.67 2632.3,2859.67 C 2637.25,2859.67 2639.22,2855.83 2639.22,2851.11 L 2639.22,2813.97 L 2652.3,2813.97 L 2652.3,2852.09 C 2652.3,2861.54 2647.69,2869.01 2637.58,2869.01 C 2630.33,2869.01 2625.61,2865.39 2623.63,2860.78 C 2621.87,2864.62 2618.46,2869.01 2609.9,2869.01 C 2603.53,2869.01 2598.47,2865.72 2596.27,2860.78 L 2595.28,2868.03 L 2583.75,2868.03 L 2583.75,2813.97 L 2596.83,2813.97 L 2596.83,2847.92 C 2596.83,2853.3 2598.91,2859.67 2604.62,2859.67 C 2609.57,2859.67 2611.54,2856.27 2611.54,2851.11 L 2611.54,2813.97 L 2624.51,2813.97 Z M 2506.91,2813.97 L 2506.91,2843.52 C 2506.91,2850.34 2508.67,2857.37 2516.47,2857.37 C 2517.68,2857.37 2518.89,2857.15 2520.1,2856.82 L 2523.84,2868.36 C 2522.84,2868.79 2520.76,2869.01 2519.77,2869.01 C 2514.06,2869.01 2510.1,2866.6 2506.7,2860.88 L 2505.71,2868.03 L 2493.84,2868.03 L 2493.84,2813.97 L 2506.91,2813.97 Z M 2540.49,2829.8 C 2540.49,2834.52 2543.23,2838.8 2549.39,2838.8 C 2552.57,2838.8 2554.99,2838.36 2556.41,2837.81 L 2556.41,2830.23 C 2556.41,2825.4 2552.24,2821.77 2547.3,2821.77 C 2542.46,2821.77 2540.49,2825.18 2540.49,2829.8 Z" stroke-linejoin="miter" stroke-width="0" fill-rule="evenodd" fill="#d82020" marker-start="none" marker-end="none"/>
  </g>
 </g>
</svg>
