<?xml version="1.0" standalone="no"?>
<!DOCTYPE svg PUBLIC "-//W3C//DTD SVG 1.1//EN" "http://www.w3.org/Graphics/SVG/1.1/DTD/svg11.dtd">
<!--Generator: Xara Designer (www.xara.com), SVG filter version: 6.3.0.31-->
<svg fill="none" fill-rule="evenodd" stroke="black" stroke-width="0.501" stroke-linejoin="bevel" stroke-miterlimit="10" font-family="Times New Roman" font-size="16" style="font-variant-ligatures:none" xmlns:xlink="http://www.w3.org/1999/xlink" xmlns="http://www.w3.org/2000/svg" version="1.1" overflow="visible" width="709.278pt" height="249.007pt" viewBox="805.559 -2684.4 709.278 249.007">
 <defs>
	</defs>
 <g id="Layer 1" transform="scale(1 -1)">
  <g id="Group" stroke="none">
   <rect x="-112.359" y="-230.135" width="224.718" height="460.271" transform="translate(1284.7 2559.9) rotate(90)" fill="#e30615" stroke-linejoin="miter"/>
   <path d="M 1169.13,2478.86 L 1169.13,2505.51 L 1203.47,2505.51 L 1203.47,2606.13 L 1166.49,2585.48 L 1164.33,2614.54 L 1204.43,2636.39 L 1241.42,2636.39 L 1241.42,2505.51 L 1272.87,2505.51 L 1272.87,2478.86 L 1169.13,2478.86 Z" fill-rule="nonzero" stroke-linejoin="round" stroke-linecap="round" stroke-width="0.242" fill="#ffffff" marker-start="none" marker-end="none"/>
   <path d="M 1369.64,2589.56 C 1369.64,2592.77 1369.36,2595.97 1368.8,2599.17 C 1368.24,2602.37 1367.28,2605.21 1365.92,2607.7 C 1364.56,2610.18 1362.76,2612.22 1360.52,2613.82 C 1358.28,2615.42 1355.39,2616.22 1351.87,2616.22 C 1348.67,2616.22 1345.95,2615.46 1343.71,2613.94 C 1341.47,2612.42 1339.62,2610.42 1338.18,2607.94 C 1336.74,2605.45 1335.7,2602.61 1335.06,2599.41 C 1334.42,2596.21 1334.1,2592.93 1334.1,2589.56 C 1334.1,2586.04 1334.38,2582.56 1334.94,2579.12 C 1335.5,2575.68 1336.46,2572.63 1337.82,2569.99 C 1339.18,2567.35 1340.99,2565.23 1343.23,2563.63 C 1345.47,2562.03 1348.35,2561.23 1351.87,2561.23 C 1354.43,2561.23 1356.8,2561.99 1358.96,2563.51 C 1361.12,2565.03 1363,2567.07 1364.6,2569.63 C 1366.2,2572.19 1367.44,2575.2 1368.32,2578.64 C 1369.2,2582.08 1369.64,2585.72 1369.64,2589.56 Z M 1407.11,2580.92 C 1407.11,2570.03 1405.47,2559.26 1402.18,2548.62 C 1398.9,2537.97 1394.38,2527.85 1388.62,2518.24 C 1382.85,2508.63 1376.01,2499.71 1368.08,2491.46 C 1360.16,2483.22 1351.63,2476.05 1342.51,2469.97 L 1310.09,2486.54 C 1315.05,2489.58 1320.57,2493.78 1326.66,2499.15 C 1332.74,2504.51 1338.55,2510.31 1344.07,2516.56 C 1349.59,2522.8 1354.43,2529.21 1358.6,2535.77 C 1362.76,2542.34 1365.4,2548.42 1366.52,2554.02 C 1362.36,2548.26 1357.64,2544.22 1352.35,2541.89 C 1347.07,2539.57 1341.79,2538.41 1336.5,2538.41 C 1329.46,2538.41 1323.38,2539.61 1318.25,2542.01 C 1313.13,2544.42 1308.93,2547.74 1305.64,2551.98 C 1302.36,2556.22 1299.96,2561.31 1298.44,2567.23 C 1296.92,2573.15 1296.16,2579.64 1296.16,2586.68 C 1296.16,2593.41 1297.36,2599.93 1299.76,2606.26 C 1302.16,2612.58 1305.68,2618.14 1310.33,2622.94 C 1314.97,2627.75 1320.77,2631.63 1327.74,2634.59 C 1334.7,2637.55 1342.75,2639.03 1351.87,2639.03 C 1361.96,2639.03 1370.52,2637.47 1377.57,2634.35 C 1384.61,2631.23 1390.3,2627.03 1394.62,2621.74 C 1398.94,2616.46 1402.1,2610.3 1404.11,2603.25 C 1406.11,2596.21 1407.11,2588.76 1407.11,2580.92 Z" fill-rule="nonzero" stroke-linejoin="round" stroke-linecap="round" stroke-width="0.242" fill="#ffffff" marker-start="none" marker-end="none"/>
   <path d="M 805.559,2684.4 L 805.559,2435.4 L 1054.57,2435.4 L 1054.57,2684.4 L 805.559,2684.4 Z" stroke-linejoin="miter" stroke-width="0.485" stroke-linecap="round" fill="#ffffff" marker-start="none" marker-end="none"/>
   <path d="M 817.705,2447.54 L 817.705,2672.26 L 1042.42,2672.26 L 1042.42,2447.54 L 817.705,2447.54 Z M 935.608,2537.59 L 936.594,2531.22 L 948.789,2531.22 C 948.351,2534.51 947.804,2537.92 947.804,2541.22 L 947.804,2570.88 C 947.804,2580.33 941.316,2586.26 928.687,2586.26 C 922.968,2586.26 916.269,2585.61 910.996,2583.19 L 913.194,2574.07 C 916.93,2576.04 922.091,2576.92 926.049,2576.92 C 931.762,2576.92 935.164,2574.4 935.164,2568.79 L 935.164,2562.75 C 933.187,2563.08 930.658,2563.63 926.819,2563.63 C 914.514,2563.63 906.054,2557.59 906.054,2546.38 C 906.054,2536.39 911.434,2530.24 921.982,2530.24 C 928.021,2530.24 932.527,2532.87 935.608,2537.59 Z M 853.384,2531.22 L 853.384,2593.29 L 869.205,2593.29 L 869.205,2604.61 L 823.722,2604.61 L 823.722,2593.29 L 839.542,2593.29 L 839.542,2531.22 L 853.384,2531.22 Z M 1003.26,2531.22 L 1003.26,2565.38 C 1003.26,2570.77 1005.24,2576.92 1011.05,2576.92 C 1016,2576.92 1017.98,2573.08 1017.98,2568.36 L 1017.98,2531.22 L 1031.05,2531.22 L 1031.05,2569.34 C 1031.05,2578.79 1026.44,2586.26 1016.33,2586.26 C 1009.08,2586.26 1004.36,2582.64 1002.38,2578.03 C 1000.62,2581.87 997.212,2586.26 988.649,2586.26 C 982.275,2586.26 977.217,2582.97 975.024,2578.03 L 974.033,2585.28 L 962.497,2585.28 L 962.497,2531.22 L 975.576,2531.22 L 975.576,2565.17 C 975.576,2570.55 977.661,2576.92 983.369,2576.92 C 988.319,2576.92 990.291,2573.52 990.291,2568.36 L 990.291,2531.22 L 1003.26,2531.22 Z M 885.664,2531.22 L 885.664,2560.77 C 885.664,2567.59 887.424,2574.62 895.222,2574.62 C 896.43,2574.62 897.638,2574.4 898.848,2574.07 L 902.585,2585.61 C 901.594,2586.04 899.507,2586.26 898.518,2586.26 C 892.807,2586.26 888.851,2583.85 885.445,2578.13 L 884.456,2585.28 L 872.591,2585.28 L 872.591,2531.22 L 885.664,2531.22 Z M 919.237,2547.05 C 919.237,2551.77 921.982,2556.05 928.135,2556.05 C 931.319,2556.05 933.739,2555.61 935.164,2555.06 L 935.164,2547.48 C 935.164,2542.65 930.988,2539.02 926.049,2539.02 C 921.213,2539.02 919.237,2542.43 919.237,2547.05 Z" stroke-linejoin="miter" stroke-width="0" fill-rule="evenodd" fill="#d82020" marker-start="none" marker-end="none"/>
  </g>
 </g>
</svg>
