<?xml version="1.0" standalone="no"?>
<!DOCTYPE svg PUBLIC "-//W3C//DTD SVG 1.1//EN" "http://www.w3.org/Graphics/SVG/1.1/DTD/svg11.dtd">
<!--Generator: Xara Designer (www.xara.com), SVG filter version: 6.3.0.31-->
<svg fill="none" fill-rule="evenodd" stroke="black" stroke-width="0.501" stroke-linejoin="bevel" stroke-miterlimit="10" font-family="Times New Roman" font-size="16" style="font-variant-ligatures:none" xmlns:xlink="http://www.w3.org/1999/xlink" xmlns="http://www.w3.org/2000/svg" version="1.1" overflow="visible" width="158.824pt" height="55.757pt" viewBox="614.715 -722.597 158.824 55.757">
 <defs>
	</defs>
 <g id="Layer 1" transform="scale(1 -1)">
  <g id="Group" stroke="none">
   <path d="M 614.715,722.597 L 614.715,666.84 L 670.473,666.84 L 670.473,722.597 L 614.715,722.597 Z" stroke-linejoin="miter" stroke-width="0.485" stroke-linecap="round" fill="#ffffff" marker-start="none" marker-end="none"/>
   <path d="M 617.435,669.56 L 617.435,719.879 L 667.754,719.879 L 667.754,669.56 L 617.435,669.56 Z M 643.836,689.724 L 644.057,688.297 L 646.787,688.297 C 646.689,689.034 646.567,689.797 646.567,690.536 L 646.567,697.177 C 646.567,699.293 645.114,700.622 642.286,700.622 C 641.006,700.622 639.506,700.475 638.325,699.933 L 638.817,697.891 C 639.653,698.333 640.809,698.53 641.695,698.53 C 642.975,698.53 643.736,697.965 643.736,696.71 L 643.736,695.357 C 643.294,695.431 642.727,695.554 641.868,695.554 C 639.113,695.554 637.218,694.201 637.218,691.692 C 637.218,689.454 638.423,688.076 640.785,688.076 C 642.137,688.076 643.146,688.666 643.836,689.724 Z M 625.424,688.297 L 625.424,702.195 L 628.967,702.195 L 628.967,704.73 L 618.783,704.73 L 618.783,702.195 L 622.325,702.195 L 622.325,688.297 L 625.424,688.297 Z M 658.985,688.297 L 658.985,695.946 C 658.985,697.153 659.427,698.53 660.73,698.53 C 661.837,698.53 662.279,697.67 662.279,696.612 L 662.279,688.297 L 665.208,688.297 L 665.208,696.833 C 665.208,698.949 664.176,700.622 661.912,700.622 C 660.287,700.622 659.231,699.81 658.787,698.777 C 658.394,699.637 657.63,700.622 655.713,700.622 C 654.286,700.622 653.153,699.885 652.662,698.777 L 652.44,700.401 L 649.857,700.401 L 649.857,688.297 L 652.786,688.297 L 652.786,695.898 C 652.786,697.104 653.252,698.53 654.531,698.53 C 655.639,698.53 656.08,697.768 656.08,696.612 L 656.08,688.297 L 658.985,688.297 Z M 632.653,688.297 L 632.653,694.914 C 632.653,696.441 633.046,698.014 634.793,698.014 C 635.063,698.014 635.334,697.965 635.604,697.891 L 636.442,700.475 C 636.22,700.572 635.752,700.622 635.531,700.622 C 634.252,700.622 633.366,700.08 632.604,698.801 L 632.382,700.401 L 629.725,700.401 L 629.725,688.297 L 632.653,688.297 Z M 640.17,691.84 C 640.17,692.898 640.785,693.856 642.162,693.856 C 642.875,693.856 643.417,693.757 643.736,693.635 L 643.736,691.938 C 643.736,690.855 642.801,690.044 641.695,690.044 C 640.613,690.044 640.17,690.806 640.17,691.84 Z" stroke-linejoin="miter" stroke-width="0" fill-rule="evenodd" fill="#d82020" marker-start="none" marker-end="none"/>
   <rect x="-25.159" y="-51.533" width="50.319" height="103.066" transform="translate(722.006 694.719) rotate(90)" fill="#ffb107" stroke-linejoin="miter"/>
   <path d="M 691.454,676.57 L 691.454,680.549 C 691.454,682.796 691.907,684.916 692.892,686.838 C 693.755,688.52 694.83,690.057 696.11,691.444 C 697.314,692.747 698.624,693.956 700.034,695.074 C 701.267,696.05 702.395,697.016 703.421,697.975 C 704.375,698.867 705.136,699.747 705.727,700.612 C 706.117,701.183 706.296,701.766 706.296,702.436 C 706.296,703.017 706.144,703.151 706.089,703.205 C 706.118,703.176 705.844,703.464 704.623,703.464 C 703.758,703.464 702.824,703.389 701.814,703.231 C 701.142,703.126 700.049,702.759 698.452,701.927 C 696.781,701.057 694.725,701.893 694.135,703.682 L 692.254,709.382 C 691.781,710.814 692.424,712.378 693.767,713.065 C 695.698,714.051 697.795,714.702 700.033,715.033 C 702.101,715.34 704.098,715.497 706.021,715.497 C 707.932,715.497 709.756,715.283 711.475,714.832 C 713.229,714.371 714.834,713.649 716.239,712.624 C 717.709,711.553 718.855,710.172 719.673,708.536 C 720.535,706.812 720.911,704.891 720.911,702.866 C 720.911,700.767 720.427,698.768 719.464,696.912 C 718.612,695.271 717.559,693.736 716.313,692.306 C 715.111,690.927 713.802,689.649 712.389,688.471 C 711.753,687.941 711.143,687.425 710.559,686.924 L 709.035,685.598 L 718.282,685.598 C 719.97,685.598 721.341,684.227 721.341,682.539 L 721.341,676.57 C 721.341,674.881 719.97,673.511 718.282,673.511 L 694.513,673.511 C 692.824,673.511 691.454,674.881 691.454,676.57 Z" stroke-linejoin="round" stroke-width="0.243" fill="#e59f06" marker-start="none" marker-end="none"/>
   <path d="M 692.473,676.57 L 692.473,680.549 C 692.473,682.657 692.898,684.614 693.8,686.373 C 694.619,687.973 695.641,689.433 696.859,690.752 C 698.026,692.015 699.297,693.189 700.667,694.274 C 701.92,695.266 703.069,696.25 704.117,697.231 C 705.118,698.166 705.929,699.101 706.569,700.037 C 707.074,700.776 707.315,701.559 707.315,702.436 C 707.315,703.242 707.086,703.663 706.792,703.943 C 706.555,704.169 705.974,704.483 704.623,704.483 C 703.7,704.483 702.712,704.403 701.657,704.238 C 700.826,704.109 699.62,703.684 697.981,702.831 C 696.867,702.251 695.496,702.809 695.103,704.001 L 693.222,709.701 C 692.907,710.656 693.335,711.699 694.231,712.157 C 696.056,713.089 698.046,713.708 700.182,714.025 C 702.207,714.325 704.153,714.477 706.021,714.477 C 707.857,714.477 709.593,714.272 711.216,713.846 C 712.864,713.413 714.349,712.74 715.638,711.801 C 716.971,710.829 718.012,709.577 718.761,708.08 C 719.539,706.524 719.891,704.766 719.891,702.866 C 719.891,700.929 719.446,699.091 718.559,697.382 C 717.746,695.816 716.739,694.348 715.544,692.976 C 714.378,691.638 713.109,690.397 711.736,689.254 C 710.459,688.189 709.282,687.18 708.206,686.227 C 707.685,685.766 707.213,685.323 706.79,684.9 L 706.49,684.578 L 718.282,684.578 C 719.407,684.578 720.321,683.664 720.321,682.539 L 720.321,676.57 C 720.321,675.444 719.407,674.53 718.282,674.53 L 694.513,674.53 C 693.387,674.53 692.473,675.444 692.473,676.57 Z" stroke-linejoin="round" stroke-width="0.243" fill="#cb8c04" marker-start="none" marker-end="none"/>
   <path d="M 693.493,676.57 L 693.493,680.549 C 693.493,682.517 693.889,684.311 694.707,685.908 C 695.485,687.424 696.453,688.808 697.609,690.06 C 698.739,691.283 699.97,692.421 701.301,693.475 C 702.572,694.481 703.743,695.484 704.813,696.485 C 705.861,697.464 706.724,698.456 707.411,699.462 C 708.031,700.369 708.335,701.351 708.335,702.436 C 708.335,703.466 708.028,704.174 707.495,704.681 C 706.991,705.162 706.105,705.503 704.623,705.503 C 703.641,705.503 702.601,705.418 701.5,705.246 C 700.51,705.092 699.19,704.611 697.51,703.736 C 696.953,703.446 696.268,703.725 696.071,704.321 L 694.19,710.021 C 694.033,710.498 694.247,711.02 694.695,711.248 C 696.414,712.127 698.296,712.714 700.332,713.016 C 702.312,713.31 704.208,713.457 706.021,713.457 C 707.781,713.457 709.429,713.261 710.957,712.86 C 712.499,712.455 713.864,711.832 715.037,710.976 C 716.232,710.105 717.17,708.982 717.848,707.623 C 718.542,706.236 718.871,704.64 718.871,702.866 C 718.871,701.091 718.464,699.414 717.653,697.852 C 716.879,696.361 715.919,694.959 714.775,693.646 C 713.645,692.349 712.414,691.147 711.083,690.037 C 709.799,688.967 708.615,687.952 707.53,686.991 C 706.462,686.046 705.584,685.166 704.887,684.35 C 704.725,684.161 704.591,683.982 704.48,683.813 L 704.34,683.558 L 718.282,683.558 C 718.844,683.558 719.301,683.101 719.301,682.539 L 719.301,676.57 C 719.301,676.007 718.844,675.55 718.282,675.55 L 694.513,675.55 C 693.95,675.55 693.493,676.007 693.493,676.57 Z" stroke-linejoin="round" stroke-width="0.243" stroke-linecap="round" fill-rule="nonzero" fill="#b17a03" marker-start="none" marker-end="none"/>
   <path d="M 734.746,672.066 L 726.734,675.184 C 725.213,675.775 724.468,677.498 725.079,679.012 C 725.98,681.246 726.952,683.614 727.996,686.114 C 729.041,688.619 730.104,691.114 731.185,693.601 C 732.266,696.084 733.329,698.488 734.373,700.812 L 735.335,702.941 L 724.894,702.941 C 723.275,702.941 721.962,704.254 721.962,705.873 L 721.962,711.847 C 721.962,713.465 723.275,714.778 724.894,714.778 L 748.716,714.778 C 750.334,714.778 751.647,713.465 751.647,711.847 L 751.647,708.245 C 751.647,707.848 751.566,707.455 751.41,707.09 C 750.352,704.62 749.272,701.948 748.173,699.076 C 747.064,696.178 745.955,693.253 744.846,690.302 C 743.734,687.342 742.64,684.437 741.564,681.585 C 740.484,678.725 739.475,676.104 738.537,673.723 C 737.946,672.222 736.25,671.48 734.746,672.066 Z" stroke-linejoin="round" stroke-width="0.243" fill="#e59f06" marker-start="none" marker-end="none"/>
   <path d="M 735.101,672.976 L 727.089,676.094 C 726.075,676.489 725.578,677.637 725.985,678.646 C 726.884,680.877 727.855,683.241 728.898,685.738 C 729.941,688.238 731.002,690.729 732.081,693.211 C 733.16,695.691 734.221,698.091 735.264,700.411 C 735.785,701.569 736.283,702.672 736.76,703.719 L 736.851,703.918 L 724.894,703.918 C 723.815,703.918 722.939,704.794 722.939,705.873 L 722.939,711.847 C 722.939,712.925 723.815,713.801 724.894,713.801 L 748.716,713.801 C 749.794,713.801 750.67,712.925 750.67,711.847 L 750.67,708.245 C 750.67,707.98 750.616,707.718 750.512,707.475 C 749.448,704.991 748.364,702.308 747.261,699.425 C 746.151,696.525 745.041,693.598 743.931,690.645 C 742.82,687.686 741.725,684.781 740.65,681.93 C 739.571,679.074 738.564,676.457 737.628,674.081 C 737.234,673.08 736.103,672.586 735.101,672.976 Z" stroke-linejoin="round" stroke-width="0.243" fill="#cb8c04" marker-start="none" marker-end="none"/>
   <path d="M 735.455,673.887 L 727.443,677.005 C 726.936,677.202 726.688,677.776 726.891,678.281 C 727.789,680.507 728.759,682.868 729.8,685.362 C 730.841,687.857 731.901,690.344 732.978,692.821 C 734.055,695.298 735.115,697.694 736.155,700.01 C 736.675,701.167 737.173,702.268 737.649,703.313 L 738.374,704.896 L 724.894,704.896 C 724.354,704.896 723.917,705.333 723.917,705.873 L 723.917,711.847 C 723.917,712.386 724.354,712.824 724.894,712.824 L 748.716,712.824 C 749.255,712.824 749.693,712.386 749.693,711.847 L 749.693,708.245 C 749.693,708.112 749.666,707.981 749.614,707.86 C 748.544,705.363 747.455,702.668 746.348,699.774 C 745.238,696.873 744.126,693.944 743.016,690.989 C 741.905,688.03 740.811,685.126 739.736,682.276 C 738.658,679.423 737.653,676.81 736.719,674.439 C 736.521,673.939 735.956,673.692 735.455,673.887 Z" stroke-linejoin="round" stroke-width="0.243" stroke-linecap="round" fill-rule="nonzero" fill="#b17a03" marker-start="none" marker-end="none"/>
   <path d="M 694.513,676.57 L 694.513,680.549 C 694.513,682.378 694.88,684.009 695.615,685.443 C 696.35,686.877 697.265,688.185 698.358,689.369 C 699.451,690.552 700.644,691.654 701.934,692.676 C 703.225,693.698 704.417,694.719 705.51,695.741 C 706.604,696.763 707.518,697.811 708.253,698.887 C 708.988,699.962 709.355,701.145 709.355,702.436 C 709.355,703.691 708.97,704.686 708.199,705.42 C 707.428,706.155 706.236,706.523 704.623,706.523 C 703.583,706.523 702.49,706.433 701.343,706.254 C 700.195,706.075 698.761,705.537 697.04,704.641 L 695.159,710.341 C 696.772,711.165 698.547,711.721 700.482,712.008 C 702.418,712.295 704.264,712.438 706.021,712.438 C 707.706,712.438 709.266,712.25 710.699,711.874 C 712.134,711.497 713.38,710.924 714.437,710.153 C 715.495,709.382 716.328,708.387 716.937,707.168 C 717.547,705.949 717.852,704.515 717.852,702.866 C 717.852,701.253 717.484,699.738 716.749,698.322 C 716.014,696.906 715.1,695.571 714.007,694.316 C 712.913,693.061 711.721,691.896 710.431,690.821 C 709.14,689.745 707.948,688.723 706.855,687.755 C 705.761,686.787 704.847,685.873 704.112,685.013 C 703.377,684.152 703.01,683.328 703.01,682.539 L 718.282,682.539 L 718.282,676.57 L 694.513,676.57 Z" stroke-linejoin="round" stroke-width="0.243" fill-rule="nonzero" stroke-linecap="round" fill="#ffffff" marker-start="none" marker-end="none"/>
   <path d="M 748.716,708.245 C 747.641,705.735 746.547,703.028 745.436,700.124 C 744.325,697.221 743.213,694.29 742.102,691.333 C 740.991,688.375 739.897,685.471 738.822,682.621 C 737.746,679.772 736.742,677.164 735.81,674.798 L 727.798,677.916 C 728.694,680.138 729.662,682.495 730.702,684.986 C 731.741,687.477 732.799,689.959 733.874,692.432 C 734.95,694.905 736.008,697.298 737.047,699.61 C 738.087,701.922 739.037,704.01 739.897,705.873 L 724.894,705.873 L 724.894,711.847 L 748.716,711.847 L 748.716,708.245 Z" stroke-linejoin="round" stroke-width="0.243" fill-rule="nonzero" stroke-linecap="round" fill="#ffffff" marker-start="none" marker-end="none"/>
  </g>
 </g>
</svg>
