<?xml version="1.0" standalone="no"?>
<!DOCTYPE svg PUBLIC "-//W3C//DTD SVG 1.1//EN" "http://www.w3.org/Graphics/SVG/1.1/DTD/svg11.dtd">
<!--Generator: Xara Designer (www.xara.com), SVG filter version: 6.3.0.31-->
<svg fill="none" fill-rule="evenodd" stroke="black" stroke-width="0.501" stroke-linejoin="bevel" stroke-miterlimit="10" font-family="Times New Roman" font-size="16" style="font-variant-ligatures:none" xmlns:xlink="http://www.w3.org/1999/xlink" xmlns="http://www.w3.org/2000/svg" version="1.1" overflow="visible" width="158.822pt" height="55.758pt" viewBox="614.715 -781.849 158.822 55.758">
 <defs>
	</defs>
 <g id="Layer 1" transform="scale(1 -1)">
  <g id="Group" stroke="none">
   <rect x="-25.159" y="-51.531" width="50.319" height="103.063" transform="translate(722.005 753.97) rotate(90)" fill="#e0818c" stroke-linejoin="miter"/>
   <path d="M 690.658,735.822 L 690.658,739.801 C 690.658,742.157 691.134,744.405 692.184,746.453 C 693.079,748.199 694.195,749.796 695.527,751.236 C 696.757,752.568 698.096,753.807 699.54,754.949 C 700.756,755.912 701.867,756.866 702.878,757.81 C 703.793,758.665 704.514,759.502 705.069,760.314 C 705.371,760.755 705.5,761.182 705.5,761.687 L 705.49,761.835 L 705.413,761.857 C 705.249,761.888 704.993,761.919 704.622,761.919 C 703.802,761.919 702.908,761.848 701.938,761.696 C 701.389,761.61 700.384,761.287 698.82,760.472 C 696.714,759.376 694.123,760.429 693.379,762.683 L 691.497,768.383 C 690.901,770.187 691.71,772.158 693.402,773.024 C 695.417,774.054 697.599,774.73 699.917,775.072 C 702.019,775.384 704.055,775.544 706.02,775.544 C 707.99,775.544 709.883,775.324 711.677,774.853 C 713.515,774.37 715.211,773.608 716.705,772.52 C 718.283,771.371 719.511,769.889 720.385,768.144 C 721.311,766.288 721.706,764.241 721.706,762.118 C 721.706,759.893 721.192,757.768 720.169,755.797 C 719.287,754.099 718.198,752.51 716.912,751.035 C 715.683,749.623 714.343,748.316 712.898,747.11 L 711.163,745.646 L 718.281,745.646 C 720.408,745.646 722.136,743.918 722.136,741.791 L 722.136,735.822 C 722.136,733.694 720.408,731.967 718.281,731.967 L 694.513,731.967 C 692.385,731.967 690.658,733.694 690.658,735.822 Z" stroke-linejoin="round" stroke-width="0.242" fill="#e0818c" marker-start="none" marker-end="none"/>
   <path d="M 691.622,735.822 L 691.622,739.801 C 691.622,742.025 692.071,744.119 693.042,746.013 C 693.897,747.681 694.962,749.206 696.235,750.582 C 697.431,751.876 698.733,753.081 700.138,754.193 C 701.373,755.171 702.505,756.142 703.536,757.105 C 704.496,758.002 705.265,758.892 705.865,759.77 C 706.275,760.37 706.464,760.985 706.464,761.687 C 706.464,762.303 706.3,762.486 706.202,762.58 C 706.19,762.591 705.868,762.883 704.622,762.883 C 703.747,762.883 702.803,762.808 701.788,762.648 C 701.09,762.539 699.978,762.162 698.375,761.327 C 696.796,760.505 694.852,761.295 694.294,762.985 L 692.412,768.685 C 691.965,770.038 692.572,771.516 693.841,772.165 C 695.756,773.145 697.836,773.79 700.058,774.118 C 702.119,774.424 704.107,774.58 706.02,774.58 C 707.919,774.58 709.728,774.368 711.433,773.921 C 713.169,773.464 714.753,772.75 716.137,771.74 C 717.586,770.686 718.715,769.327 719.522,767.712 C 720.37,766.016 720.742,764.123 720.742,762.118 C 720.742,760.046 720.264,758.073 719.313,756.242 C 718.468,754.614 717.423,753.088 716.185,751.668 C 714.99,750.296 713.687,749.024 712.28,747.851 C 711.008,746.791 709.839,745.788 708.77,744.842 L 708.599,744.682 L 718.281,744.682 C 719.876,744.682 721.172,743.386 721.172,741.791 L 721.172,735.822 C 721.172,734.226 719.876,732.931 718.281,732.931 L 694.513,732.931 C 692.917,732.931 691.622,734.226 691.622,735.822 Z" stroke-linejoin="round" stroke-width="0.242" fill="#ca6f7a" marker-start="none" marker-end="none"/>
   <path d="M 692.585,735.822 L 692.585,739.801 C 692.585,741.893 693.007,743.833 693.899,745.574 C 694.714,747.164 695.729,748.616 696.942,749.928 C 698.104,751.185 699.369,752.356 700.736,753.438 C 701.99,754.43 703.141,755.418 704.194,756.401 C 705.198,757.339 706.015,758.282 706.66,759.226 C 707.179,759.984 707.427,760.789 707.427,761.687 C 707.427,762.516 707.189,762.97 706.867,763.277 C 706.603,763.529 705.99,763.846 704.622,763.846 C 703.692,763.846 702.698,763.766 701.64,763.6 C 700.792,763.468 699.572,763.037 697.93,762.182 C 696.877,761.634 695.581,762.16 695.209,763.287 L 693.327,768.987 C 693.029,769.889 693.434,770.875 694.28,771.308 C 696.094,772.235 698.072,772.851 700.199,773.165 C 702.218,773.465 704.159,773.616 706.02,773.616 C 707.847,773.616 709.574,773.412 711.188,772.989 C 712.824,772.559 714.294,771.891 715.57,770.962 C 716.888,770.002 717.919,768.764 718.661,767.282 C 719.428,765.744 719.778,764.004 719.778,762.118 C 719.778,760.199 719.337,758.379 718.458,756.685 C 717.65,755.128 716.648,753.666 715.459,752.301 C 714.298,750.968 713.031,749.732 711.664,748.591 C 710.385,747.526 709.208,746.517 708.131,745.564 C 707.609,745.101 707.136,744.657 706.71,744.231 L 706.232,743.718 L 718.281,743.718 C 719.344,743.718 720.208,742.854 720.208,741.791 L 720.208,735.822 C 720.208,734.758 719.344,733.894 718.281,733.894 L 694.513,733.894 C 693.449,733.894 692.585,734.758 692.585,735.822 Z" stroke-linejoin="round" stroke-width="0.242" fill="#b45d67" marker-start="none" marker-end="none"/>
   <path d="M 693.549,735.822 L 693.549,739.801 C 693.549,741.761 693.943,743.546 694.757,745.134 C 695.532,746.646 696.497,748.026 697.65,749.274 C 698.777,750.494 700.006,751.631 701.335,752.682 C 702.607,753.689 703.779,754.694 704.852,755.697 C 705.9,756.676 706.766,757.672 707.456,758.682 C 708.083,759.599 708.391,760.593 708.391,761.687 C 708.391,762.729 708.079,763.453 707.532,763.974 C 707.015,764.468 706.113,764.81 704.622,764.81 C 703.637,764.81 702.593,764.726 701.49,764.553 C 700.493,764.397 699.166,763.913 697.484,763.037 C 696.958,762.763 696.311,763.026 696.125,763.589 L 694.243,769.289 C 694.094,769.74 694.296,770.233 694.719,770.449 C 696.432,771.326 698.309,771.912 700.34,772.212 C 702.318,772.505 704.211,772.652 706.02,772.652 C 707.776,772.652 709.419,772.456 710.943,772.056 C 712.478,771.653 713.836,771.033 715.003,770.182 C 716.191,769.318 717.122,768.201 717.798,766.85 C 718.487,765.472 718.814,763.885 718.814,762.118 C 718.814,760.352 718.41,758.684 717.603,757.13 C 716.831,755.643 715.873,754.244 714.732,752.935 C 713.605,751.64 712.375,750.44 711.046,749.331 C 709.762,748.262 708.577,747.246 707.492,746.285 C 706.423,745.339 705.542,744.456 704.843,743.639 C 704.68,743.448 704.545,743.267 704.433,743.096 L 704.244,742.754 L 718.281,742.754 C 718.812,742.754 719.244,742.322 719.244,741.791 L 719.244,735.822 C 719.244,735.29 718.812,734.858 718.281,734.858 L 694.513,734.858 C 693.981,734.858 693.549,735.29 693.549,735.822 Z" stroke-linejoin="round" stroke-width="0.242" stroke-linecap="round" fill-rule="nonzero" fill="#9e4b55" marker-start="none" marker-end="none"/>
   <path d="M 729.295,731.97 C 727.795,732.18 726.089,732.561 724.201,733.091 C 722.527,733.559 721.436,735.169 721.619,736.896 L 722.264,742.973 C 722.513,745.314 724.929,746.776 727.118,745.909 C 728.444,745.384 729.573,745.093 730.518,744.977 C 731.765,744.822 732.649,744.761 733.228,744.761 C 734.936,744.761 735.477,745.192 735.63,745.355 C 735.986,745.736 736.28,746.303 736.28,747.384 C 736.28,748.153 736.069,748.494 735.807,748.746 C 735.632,748.916 735.153,749.253 733.819,749.253 C 732.939,749.253 731.908,749.191 730.717,749.058 C 729.559,748.93 728.257,748.717 726.804,748.414 C 724.546,747.942 722.438,749.714 722.516,752.02 L 723.161,771.217 C 723.225,773.136 724.801,774.66 726.721,774.66 L 746.779,774.66 C 748.745,774.66 750.341,773.064 750.341,771.098 L 750.341,765.129 C 750.341,763.162 748.745,761.567 746.779,761.567 L 740.737,761.567 L 742.81,761.055 C 744.557,760.465 746.137,759.574 747.512,758.372 C 748.945,757.116 750.038,755.566 750.819,753.792 C 751.647,751.907 752.008,749.833 752.008,747.653 C 752.008,742.96 750.43,738.897 747.043,735.898 C 743.606,732.853 738.729,731.669 733.12,731.669 C 731.975,731.669 730.692,731.777 729.295,731.97 Z" stroke-linejoin="round" stroke-width="0.242" fill="#e0818c" marker-start="none" marker-end="none"/>
   <path d="M 729.417,732.852 C 727.97,733.054 726.305,733.426 724.441,733.948 C 723.186,734.3 722.367,735.507 722.505,736.802 L 723.15,742.879 C 723.336,744.635 725.149,745.731 726.79,745.081 C 728.17,744.535 729.373,744.22 730.409,744.093 C 731.672,743.937 732.597,743.87 733.228,743.87 C 735.073,743.87 735.896,744.337 736.279,744.746 C 736.816,745.319 737.17,746.116 737.17,747.384 C 737.17,748.364 736.882,748.947 736.426,749.387 C 736.035,749.765 735.304,750.143 733.819,750.143 C 732.899,750.143 731.834,750.079 730.619,749.943 C 729.427,749.811 728.097,749.594 726.622,749.285 C 724.928,748.932 723.347,750.261 723.406,751.99 L 724.051,771.187 C 724.099,772.626 725.281,773.769 726.721,773.769 L 746.779,773.769 C 748.253,773.769 749.45,772.572 749.45,771.098 L 749.45,765.129 C 749.45,763.654 748.253,762.457 746.779,762.457 L 736.665,762.457 L 736.642,760.989 L 737.476,761.024 C 739.22,761.024 740.909,760.759 742.525,760.211 C 744.167,759.657 745.643,758.823 746.925,757.702 C 748.251,756.54 749.27,755.1 750.004,753.433 C 750.773,751.683 751.117,749.736 751.117,747.653 C 751.117,743.174 749.62,739.369 746.453,736.565 C 743.248,733.725 738.626,732.559 733.12,732.559 C 732.028,732.559 730.788,732.662 729.417,732.852 Z" stroke-linejoin="round" stroke-width="0.242" fill="#ca6f7a" marker-start="none" marker-end="none"/>
   <path d="M 729.54,733.734 C 728.145,733.929 726.521,734.29 724.681,734.806 C 723.844,735.04 723.299,735.845 723.39,736.708 L 724.035,742.785 C 724.16,743.956 725.368,744.687 726.462,744.253 C 727.896,743.686 729.173,743.348 730.3,743.209 C 731.578,743.051 732.544,742.98 733.228,742.98 C 735.211,742.98 736.315,743.482 736.929,744.137 C 737.645,744.902 738.061,745.929 738.061,747.384 C 738.061,748.575 737.695,749.399 737.044,750.027 C 736.437,750.614 735.454,751.034 733.819,751.034 C 732.859,751.034 731.761,750.967 730.52,750.828 C 729.296,750.693 727.937,750.47 726.44,750.157 C 725.311,749.921 724.257,750.807 724.296,751.96 L 724.941,771.157 C 724.973,772.117 725.761,772.879 726.721,772.879 L 746.779,772.879 C 747.762,772.879 748.56,772.081 748.56,771.098 L 748.56,765.129 C 748.56,764.145 747.762,763.348 746.779,763.348 L 735.788,763.348 L 735.737,760.063 L 737.476,760.134 C 739.129,760.134 740.72,759.882 742.24,759.368 C 743.777,758.849 745.149,758.072 746.339,757.032 C 747.557,755.964 748.502,754.634 749.189,753.075 C 749.898,751.46 750.227,749.639 750.227,747.653 C 750.227,743.388 748.81,739.842 745.862,737.231 C 742.889,734.597 738.524,733.45 733.12,733.45 C 732.081,733.45 730.884,733.548 729.54,733.734 Z" stroke-linejoin="round" stroke-width="0.242" fill="#b45d67" marker-start="none" marker-end="none"/>
   <path d="M 729.663,734.616 C 728.32,734.804 726.737,735.154 724.921,735.663 C 724.503,735.78 724.23,736.183 724.276,736.614 L 724.921,742.691 C 724.983,743.277 725.587,743.642 726.134,743.425 C 727.622,742.837 728.973,742.475 730.191,742.325 C 731.484,742.165 732.491,742.089 733.228,742.089 C 735.348,742.089 736.734,742.627 737.579,743.528 C 738.474,744.485 738.951,745.742 738.951,747.384 C 738.951,748.786 738.508,749.852 737.663,750.668 C 736.84,751.463 735.604,751.924 733.819,751.924 C 732.819,751.924 731.687,751.855 730.422,751.713 C 729.164,751.574 727.777,751.346 726.258,751.029 C 725.693,750.911 725.166,751.354 725.186,751.93 L 725.831,771.127 C 725.847,771.607 726.241,771.988 726.721,771.988 L 746.779,771.988 C 747.27,771.988 747.669,771.589 747.669,771.098 L 747.669,765.129 C 747.669,764.637 747.27,764.238 746.779,764.238 L 734.911,764.238 L 734.832,759.1 L 735.44,759.16 C 736.127,759.216 736.807,759.243 737.476,759.243 C 739.037,759.243 740.532,759.006 741.955,758.524 C 743.387,758.041 744.655,757.321 745.752,756.362 C 746.863,755.388 747.734,754.168 748.374,752.716 C 749.024,751.236 749.336,749.542 749.336,747.653 C 749.336,743.602 748,740.314 745.272,737.898 C 742.531,735.469 738.421,734.34 733.12,734.34 C 732.134,734.34 730.98,734.434 729.663,734.616 Z" stroke-linejoin="round" stroke-width="0.242" stroke-linecap="round" fill-rule="nonzero" fill="#9e4b55" marker-start="none" marker-end="none"/>
   <path d="M 694.513,735.822 L 694.513,739.801 C 694.513,741.63 694.88,743.261 695.615,744.695 C 696.35,746.129 697.264,747.437 698.358,748.62 C 699.451,749.803 700.643,750.906 701.933,751.927 C 703.224,752.949 704.416,753.971 705.51,754.993 C 706.603,756.014 707.517,757.063 708.252,758.139 C 708.987,759.214 709.355,760.397 709.355,761.687 C 709.355,762.942 708.969,763.937 708.198,764.672 C 707.428,765.407 706.236,765.774 704.622,765.774 C 703.583,765.774 702.489,765.685 701.342,765.505 C 700.195,765.326 698.761,764.788 697.04,763.892 L 695.158,769.592 C 696.771,770.417 698.546,770.973 700.482,771.259 C 702.418,771.546 704.264,771.689 706.02,771.689 C 707.705,771.689 709.265,771.501 710.699,771.125 C 712.133,770.748 713.378,770.175 714.436,769.404 C 715.494,768.634 716.327,767.639 716.937,766.42 C 717.546,765.201 717.851,763.767 717.851,762.118 C 717.851,760.505 717.483,758.99 716.748,757.574 C 716.013,756.158 715.099,754.822 714.006,753.568 C 712.913,752.313 711.72,751.148 710.43,750.072 C 709.139,748.997 707.947,747.975 706.854,747.007 C 705.761,746.039 704.846,745.125 704.111,744.265 C 703.376,743.404 703.009,742.58 703.009,741.791 L 718.281,741.791 L 718.281,735.822 L 694.513,735.822 Z" stroke-linejoin="round" stroke-width="0.242" fill-rule="nonzero" stroke-linecap="round" fill="#ffffff" marker-start="none" marker-end="none"/>
   <path d="M 748.446,747.653 C 748.446,743.817 747.191,740.787 744.682,738.565 C 742.173,736.342 738.319,735.231 733.12,735.231 C 732.188,735.231 731.077,735.32 729.786,735.499 C 728.496,735.679 726.954,736.019 725.162,736.521 L 725.807,742.598 C 727.348,741.988 728.774,741.603 730.082,741.442 C 731.391,741.28 732.439,741.199 733.228,741.199 C 735.486,741.199 737.153,741.773 738.229,742.92 C 739.304,744.068 739.842,745.555 739.842,747.384 C 739.842,748.997 739.322,750.305 738.282,751.309 C 737.243,752.313 735.755,752.815 733.819,752.815 C 732.78,752.815 731.614,752.743 730.324,752.599 C 729.033,752.456 727.617,752.223 726.076,751.901 L 726.721,771.098 L 746.779,771.098 L 746.779,765.129 L 734.034,765.129 L 733.927,758.085 C 734.321,758.156 734.85,758.219 735.513,758.273 C 736.176,758.327 736.831,758.353 737.476,758.353 C 738.946,758.353 740.344,758.13 741.67,757.681 C 742.997,757.233 744.162,756.57 745.166,755.692 C 746.169,754.813 746.967,753.702 747.559,752.358 C 748.15,751.013 748.446,749.445 748.446,747.653 Z" stroke-linejoin="round" stroke-width="0.242" fill-rule="nonzero" stroke-linecap="round" fill="#ffffff" marker-start="none" marker-end="none"/>
   <path d="M 614.715,781.849 L 614.715,726.091 L 670.473,726.091 L 670.473,781.849 L 614.715,781.849 Z" stroke-linejoin="miter" stroke-width="0.485" stroke-linecap="round" fill="#ffffff" marker-start="none" marker-end="none"/>
   <path d="M 617.435,728.811 L 617.435,779.13 L 667.754,779.13 L 667.754,728.811 L 617.435,728.811 Z M 643.836,748.975 L 644.057,747.548 L 646.787,747.548 C 646.689,748.285 646.567,749.048 646.567,749.787 L 646.567,756.428 C 646.567,758.544 645.114,759.873 642.286,759.873 C 641.006,759.873 639.506,759.726 638.325,759.184 L 638.817,757.142 C 639.653,757.584 640.809,757.781 641.695,757.781 C 642.975,757.781 643.736,757.216 643.736,755.961 L 643.736,754.608 C 643.294,754.682 642.727,754.805 641.868,754.805 C 639.113,754.805 637.218,753.452 637.218,750.943 C 637.218,748.706 638.423,747.327 640.785,747.327 C 642.137,747.327 643.146,747.917 643.836,748.975 Z M 625.424,747.548 L 625.424,761.446 L 628.967,761.446 L 628.967,763.981 L 618.783,763.981 L 618.783,761.446 L 622.325,761.446 L 622.325,747.548 L 625.424,747.548 Z M 658.985,747.548 L 658.985,755.197 C 658.985,756.404 659.427,757.781 660.73,757.781 C 661.837,757.781 662.279,756.921 662.279,755.863 L 662.279,747.548 L 665.208,747.548 L 665.208,756.084 C 665.208,758.2 664.176,759.873 661.912,759.873 C 660.287,759.873 659.231,759.061 658.787,758.029 C 658.394,758.888 657.63,759.873 655.713,759.873 C 654.286,759.873 653.153,759.136 652.662,758.029 L 652.44,759.652 L 649.857,759.652 L 649.857,747.548 L 652.786,747.548 L 652.786,755.149 C 652.786,756.355 653.252,757.781 654.531,757.781 C 655.639,757.781 656.08,757.019 656.08,755.863 L 656.08,747.548 L 658.985,747.548 Z M 632.653,747.548 L 632.653,754.165 C 632.653,755.692 633.046,757.265 634.793,757.265 C 635.063,757.265 635.334,757.216 635.604,757.142 L 636.442,759.726 C 636.22,759.823 635.752,759.873 635.531,759.873 C 634.252,759.873 633.366,759.331 632.604,758.053 L 632.382,759.652 L 629.725,759.652 L 629.725,747.548 L 632.653,747.548 Z M 640.17,751.091 C 640.17,752.149 640.785,753.107 642.162,753.107 C 642.875,753.107 643.417,753.008 643.736,752.886 L 643.736,751.189 C 643.736,750.106 642.801,749.295 641.695,749.295 C 640.613,749.295 640.17,750.058 640.17,751.091 Z" stroke-linejoin="miter" stroke-width="0" fill-rule="evenodd" fill="#d82020" marker-start="none" marker-end="none"/>
  </g>
 </g>
</svg>
