<?xml version="1.0" standalone="no"?>
<!DOCTYPE svg PUBLIC "-//W3C//DTD SVG 1.1//EN" "http://www.w3.org/Graphics/SVG/1.1/DTD/svg11.dtd">
<!--Generator: Xara Designer (www.xara.com), SVG filter version: 6.3.0.31-->
<svg fill="none" fill-rule="evenodd" stroke="black" stroke-width="0.501" stroke-linejoin="bevel" stroke-miterlimit="10" font-family="Times New Roman" font-size="16" style="font-variant-ligatures:none" xmlns:xlink="http://www.w3.org/1999/xlink" xmlns="http://www.w3.org/2000/svg" version="1.1" overflow="visible" width="709.281pt" height="249.007pt" viewBox="2426.81 -2684.4 709.281 249.007">
 <defs>
	</defs>
 <g id="Layer 1" transform="scale(1 -1)">
  <g id="Group" stroke="none">
   <rect x="-112.359" y="-230.137" width="224.719" height="460.274" transform="translate(2905.95 2559.9) rotate(90)" fill="#ffffff" stroke-linejoin="miter"/>
   <path d="M 2783.18,2478.85 L 2783.18,2496.63 C 2783.18,2504.79 2784.82,2512.08 2788.1,2518.48 C 2791.38,2524.88 2795.46,2530.73 2800.35,2536.01 C 2805.23,2541.29 2810.55,2546.22 2816.32,2550.78 C 2822.08,2555.34 2827.4,2559.91 2832.29,2564.47 C 2837.17,2569.03 2841.25,2573.71 2844.53,2578.52 C 2847.82,2583.32 2849.46,2588.6 2849.46,2594.37 C 2849.46,2599.97 2847.74,2604.41 2844.29,2607.7 C 2840.85,2610.98 2835.53,2612.62 2828.32,2612.62 C 2823.68,2612.62 2818.8,2612.22 2813.68,2611.42 C 2808.55,2610.62 2802.15,2608.22 2794.46,2604.21 L 2786.06,2629.67 C 2793.26,2633.35 2801.19,2635.83 2809.83,2637.11 C 2818.48,2638.4 2826.72,2639.03 2834.57,2639.03 C 2842.09,2639.03 2849.06,2638.2 2855.46,2636.51 C 2861.87,2634.83 2867.43,2632.27 2872.15,2628.83 C 2876.88,2625.39 2880.6,2620.94 2883.32,2615.5 C 2886.04,2610.06 2887.4,2603.65 2887.4,2596.29 C 2887.4,2589.08 2885.76,2582.32 2882.48,2575.99 C 2879.2,2569.67 2875.11,2563.71 2870.23,2558.1 C 2865.35,2552.5 2860.02,2547.3 2854.26,2542.49 C 2848.5,2537.69 2843.17,2533.13 2838.29,2528.81 C 2833.41,2524.48 2829.32,2520.4 2826.04,2516.56 C 2822.76,2512.72 2821.12,2509.03 2821.12,2505.51 L 2889.32,2505.51 L 2889.32,2478.85 L 2783.18,2478.85 Z" fill-rule="nonzero" stroke-linejoin="round" stroke-linecap="round" stroke-width="0.242" fill="#f7a500" marker-start="none" marker-end="none"/>
   <path d="M 2991.86,2525.93 C 2991.86,2529.45 2991.5,2532.77 2990.78,2535.89 C 2990.05,2539.01 2988.93,2541.77 2987.41,2544.18 C 2985.89,2546.58 2983.93,2548.46 2981.53,2549.82 C 2979.13,2551.18 2976.25,2551.86 2972.88,2551.86 C 2966,2551.86 2961.12,2549.34 2958.24,2544.3 C 2955.35,2539.25 2953.91,2533.13 2953.91,2525.93 C 2953.91,2522.56 2954.23,2519.28 2954.87,2516.08 C 2955.51,2512.88 2956.55,2509.99 2957.99,2507.43 C 2959.43,2504.87 2961.36,2502.83 2963.76,2501.31 C 2966.16,2499.79 2969.2,2499.03 2972.88,2499.03 C 2976.89,2499.03 2980.13,2499.79 2982.61,2501.31 C 2985.09,2502.83 2987.01,2504.87 2988.37,2507.43 C 2989.74,2509.99 2990.66,2512.88 2991.14,2516.08 C 2991.62,2519.28 2991.86,2522.56 2991.86,2525.93 Z M 2988.97,2595.09 C 2988.97,2597.81 2988.69,2600.45 2988.13,2603.01 C 2987.57,2605.57 2986.65,2607.82 2985.37,2609.74 C 2984.09,2611.66 2982.41,2613.22 2980.33,2614.42 C 2978.25,2615.62 2975.77,2616.22 2972.88,2616.22 C 2967.12,2616.22 2963,2614.1 2960.52,2609.86 C 2958.03,2605.61 2956.8,2600.69 2956.8,2595.09 C 2956.8,2592.53 2957.03,2589.92 2957.51,2587.28 C 2957.99,2584.64 2958.88,2582.2 2960.16,2579.96 C 2961.44,2577.72 2963.08,2575.88 2965.08,2574.43 C 2967.08,2572.99 2969.68,2572.27 2972.88,2572.27 C 2975.93,2572.27 2978.45,2572.91 2980.45,2574.19 C 2982.45,2575.47 2984.09,2577.2 2985.37,2579.36 C 2986.65,2581.52 2987.57,2583.96 2988.13,2586.68 C 2988.69,2589.4 2988.97,2592.21 2988.97,2595.09 Z M 3028.84,2523.04 C 3028.84,2516.48 3027.52,2510.31 3024.88,2504.55 C 3022.24,2498.79 3018.43,2493.82 3013.47,2489.66 C 3008.51,2485.5 3002.58,2482.22 2995.7,2479.82 C 2988.81,2477.41 2981.21,2476.21 2972.88,2476.21 C 2964.72,2476.21 2957.23,2477.25 2950.43,2479.34 C 2943.63,2481.42 2937.74,2484.46 2932.78,2488.46 C 2927.82,2492.46 2923.93,2497.39 2921.13,2503.23 C 2918.33,2509.07 2916.93,2515.68 2916.93,2523.04 C 2916.93,2528.97 2917.97,2534.29 2920.05,2539.01 C 2922.13,2543.74 2924.69,2547.78 2927.74,2551.14 C 2930.78,2554.5 2934.1,2557.22 2937.7,2559.3 C 2941.3,2561.39 2944.71,2562.83 2947.91,2563.63 C 2945.51,2564.59 2942.79,2565.95 2939.74,2567.71 C 2936.7,2569.47 2933.78,2571.75 2930.98,2574.55 C 2928.18,2577.36 2925.85,2580.72 2924.01,2584.64 C 2922.17,2588.56 2921.25,2593.17 2921.25,2598.45 C 2921.25,2604.85 2922.65,2610.58 2925.45,2615.62 C 2928.26,2620.66 2932.02,2624.91 2936.74,2628.35 C 2941.46,2631.79 2946.95,2634.43 2953.19,2636.27 C 2959.43,2638.11 2966,2639.03 2972.88,2639.03 C 2979.93,2639.03 2986.57,2638.2 2992.82,2636.51 C 2999.06,2634.83 3004.54,2632.27 3009.27,2628.83 C 3013.99,2625.39 3017.71,2621.14 3020.43,2616.1 C 3023.16,2611.06 3024.52,2605.17 3024.52,2598.45 C 3024.52,2592.85 3023.52,2588.04 3021.51,2584.04 C 3019.51,2580.04 3017.15,2576.72 3014.43,2574.08 C 3011.71,2571.43 3008.79,2569.31 3005.66,2567.71 C 3002.54,2566.11 2999.94,2564.99 2997.86,2564.35 C 3001.54,2562.91 3005.22,2561.11 3008.91,2558.95 C 3012.59,2556.78 3015.91,2554.1 3018.87,2550.9 C 3021.84,2547.7 3024.24,2543.82 3026.08,2539.25 C 3027.92,2534.69 3028.84,2529.29 3028.84,2523.04 Z" fill-rule="nonzero" stroke-linejoin="round" stroke-linecap="round" stroke-width="0.242" fill="#f7a500" marker-start="none" marker-end="none"/>
   <path d="M 2675.82,2447.54 L 2675.82,2466.19 L 2675.82,2466.19 L 2675.82,2672.26 L 3136.09,2672.26 L 3136.09,2447.54 L 2675.82,2447.54 Z M 3117.44,2466.19 L 3117.44,2653.62 L 2694.46,2653.62 L 2694.46,2466.19 L 3117.44,2466.19 Z" fill="#f7a500" stroke-linejoin="miter" marker-start="none" marker-end="none"/>
   <path d="M 2426.81,2684.4 L 2426.81,2435.4 L 2675.82,2435.4 L 2675.82,2684.4 L 2426.81,2684.4 Z" stroke-linejoin="miter" stroke-width="0.485" stroke-linecap="round" fill="#ffffff" marker-start="none" marker-end="none"/>
   <path d="M 2438.95,2447.54 L 2438.95,2672.26 L 2663.67,2672.26 L 2663.67,2447.54 L 2438.95,2447.54 Z M 2556.86,2537.59 L 2557.84,2531.22 L 2570.04,2531.22 C 2569.6,2534.51 2569.05,2537.92 2569.05,2541.22 L 2569.05,2570.88 C 2569.05,2580.33 2562.57,2586.26 2549.94,2586.26 C 2544.22,2586.26 2537.52,2585.61 2532.25,2583.19 L 2534.44,2574.07 C 2538.18,2576.04 2543.34,2576.92 2547.3,2576.92 C 2553.01,2576.92 2556.41,2574.4 2556.41,2568.79 L 2556.41,2562.75 C 2554.44,2563.08 2551.91,2563.63 2548.07,2563.63 C 2535.76,2563.63 2527.3,2557.59 2527.3,2546.38 C 2527.3,2536.39 2532.68,2530.24 2543.23,2530.24 C 2549.27,2530.24 2553.78,2532.87 2556.86,2537.59 Z M 2474.63,2531.22 L 2474.63,2593.29 L 2490.45,2593.29 L 2490.45,2604.61 L 2444.97,2604.61 L 2444.97,2593.29 L 2460.79,2593.29 L 2460.79,2531.22 L 2474.63,2531.22 Z M 2624.51,2531.22 L 2624.51,2565.38 C 2624.51,2570.77 2626.49,2576.92 2632.3,2576.92 C 2637.25,2576.92 2639.22,2573.08 2639.22,2568.36 L 2639.22,2531.22 L 2652.3,2531.22 L 2652.3,2569.34 C 2652.3,2578.79 2647.69,2586.26 2637.58,2586.26 C 2630.33,2586.26 2625.61,2582.64 2623.63,2578.03 C 2621.87,2581.87 2618.46,2586.26 2609.9,2586.26 C 2603.53,2586.26 2598.47,2582.97 2596.27,2578.03 L 2595.28,2585.28 L 2583.75,2585.28 L 2583.75,2531.22 L 2596.83,2531.22 L 2596.83,2565.17 C 2596.83,2570.55 2598.91,2576.92 2604.62,2576.92 C 2609.57,2576.92 2611.54,2573.52 2611.54,2568.36 L 2611.54,2531.22 L 2624.51,2531.22 Z M 2506.91,2531.22 L 2506.91,2560.77 C 2506.91,2567.59 2508.67,2574.62 2516.47,2574.62 C 2517.68,2574.62 2518.89,2574.4 2520.1,2574.07 L 2523.84,2585.61 C 2522.84,2586.04 2520.76,2586.26 2519.77,2586.26 C 2514.06,2586.26 2510.1,2583.85 2506.7,2578.13 L 2505.71,2585.28 L 2493.84,2585.28 L 2493.84,2531.22 L 2506.91,2531.22 Z M 2540.49,2547.05 C 2540.49,2551.77 2543.23,2556.05 2549.39,2556.05 C 2552.57,2556.05 2554.99,2555.61 2556.41,2555.06 L 2556.41,2547.48 C 2556.41,2542.65 2552.24,2539.02 2547.3,2539.02 C 2542.46,2539.02 2540.49,2542.43 2540.49,2547.05 Z" stroke-linejoin="miter" stroke-width="0" fill-rule="evenodd" fill="#d82020" marker-start="none" marker-end="none"/>
  </g>
 </g>
</svg>
