<?xml version="1.0" standalone="no"?>
<!DOCTYPE svg PUBLIC "-//W3C//DTD SVG 1.1//EN" "http://www.w3.org/Graphics/SVG/1.1/DTD/svg11.dtd">
<!--Generator: Xara Designer (www.xara.com), SVG filter version: 6.3.0.31-->
<svg fill="none" fill-rule="evenodd" stroke="black" stroke-width="0.501" stroke-linejoin="bevel" stroke-miterlimit="10" font-family="Times New Roman" font-size="16" style="font-variant-ligatures:none" xmlns:xlink="http://www.w3.org/1999/xlink" xmlns="http://www.w3.org/2000/svg" version="1.1" overflow="visible" width="709.28pt" height="249.007pt" viewBox="1630.88 -2967.15 709.28 249.007">
 <defs>
	</defs>
 <g id="Layer 1" transform="scale(1 -1)">
  <g id="Group" stroke="none">
   <rect x="-112.359" y="-230.136" width="224.718" height="460.272" transform="translate(2110.03 2842.65) rotate(90)" fill="#b38819" stroke-linejoin="miter"/>
   <path d="M 1987.25,2761.61 L 1987.25,2779.38 C 1987.25,2787.54 1988.89,2794.83 1992.17,2801.23 C 1995.46,2807.63 1999.54,2813.48 2004.42,2818.76 C 2009.3,2824.04 2014.63,2828.97 2020.39,2833.53 C 2026.15,2838.09 2031.48,2842.66 2036.36,2847.22 C 2041.24,2851.78 2045.33,2856.46 2048.61,2861.27 C 2051.89,2866.07 2053.53,2871.35 2053.53,2877.12 C 2053.53,2882.72 2051.81,2887.16 2048.37,2890.45 C 2044.93,2893.73 2039.6,2895.37 2032.4,2895.37 C 2027.76,2895.37 2022.87,2894.97 2017.75,2894.17 C 2012.63,2893.37 2006.22,2890.97 1998.54,2886.96 L 1990.13,2912.42 C 1997.34,2916.1 2005.26,2918.58 2013.91,2919.86 C 2022.55,2921.15 2030.8,2921.78 2038.64,2921.78 C 2046.17,2921.78 2053.13,2920.95 2059.53,2919.26 C 2065.94,2917.58 2071.5,2915.02 2076.23,2911.58 C 2080.95,2908.14 2084.67,2903.69 2087.39,2898.25 C 2090.11,2892.81 2091.47,2886.4 2091.47,2879.04 C 2091.47,2871.83 2089.83,2865.07 2086.55,2858.74 C 2083.27,2852.42 2079.19,2846.46 2074.3,2840.85 C 2069.42,2835.25 2064.1,2830.05 2058.34,2825.24 C 2052.57,2820.44 2047.25,2815.88 2042.36,2811.56 C 2037.48,2807.23 2033.4,2803.15 2030.12,2799.31 C 2026.83,2795.47 2025.19,2791.78 2025.19,2788.26 L 2093.4,2788.26 L 2093.4,2761.61 L 1987.25,2761.61 Z" fill-rule="nonzero" stroke-linejoin="round" stroke-linecap="round" stroke-width="0.242" fill="#ffffff" marker-start="none" marker-end="none"/>
   <path d="M 2129.89,2761.61 L 2129.89,2788.26 L 2164.23,2788.26 L 2164.23,2888.88 L 2127.25,2868.23 L 2125.09,2897.29 L 2165.19,2919.14 L 2202.17,2919.14 L 2202.17,2788.26 L 2233.63,2788.26 L 2233.63,2761.61 L 2129.89,2761.61 Z" fill-rule="nonzero" stroke-linejoin="round" stroke-linecap="round" stroke-width="0.242" fill="#ffffff" marker-start="none" marker-end="none"/>
   <path d="M 1630.88,2967.15 L 1630.88,2718.15 L 1879.89,2718.15 L 1879.89,2967.15 L 1630.88,2967.15 Z" stroke-linejoin="miter" stroke-width="0.485" stroke-linecap="round" fill="#ffffff" marker-start="none" marker-end="none"/>
   <path d="M 1643.03,2730.29 L 1643.03,2955.01 L 1867.75,2955.01 L 1867.75,2730.29 L 1643.03,2730.29 Z M 1760.93,2820.34 L 1761.92,2813.97 L 1774.11,2813.97 C 1773.68,2817.26 1773.13,2820.67 1773.13,2823.97 L 1773.13,2853.63 C 1773.13,2863.08 1766.64,2869.01 1754.01,2869.01 C 1748.29,2869.01 1741.59,2868.36 1736.32,2865.94 L 1738.52,2856.82 C 1742.26,2858.79 1747.42,2859.67 1751.37,2859.67 C 1757.09,2859.67 1760.49,2857.15 1760.49,2851.54 L 1760.49,2845.5 C 1758.51,2845.83 1755.98,2846.38 1752.14,2846.38 C 1739.84,2846.38 1731.38,2840.34 1731.38,2829.13 C 1731.38,2819.14 1736.76,2812.99 1747.31,2812.99 C 1753.35,2812.99 1757.85,2815.62 1760.93,2820.34 Z M 1678.71,2813.97 L 1678.71,2876.04 L 1694.53,2876.04 L 1694.53,2887.36 L 1649.05,2887.36 L 1649.05,2876.04 L 1664.87,2876.04 L 1664.87,2813.97 L 1678.71,2813.97 Z M 1828.59,2813.97 L 1828.59,2848.13 C 1828.59,2853.52 1830.56,2859.67 1836.38,2859.67 C 1841.32,2859.67 1843.3,2855.83 1843.3,2851.11 L 1843.3,2813.97 L 1856.38,2813.97 L 1856.38,2852.09 C 1856.38,2861.54 1851.77,2869.01 1841.66,2869.01 C 1834.4,2869.01 1829.68,2865.39 1827.7,2860.78 C 1825.95,2864.62 1822.54,2869.01 1813.97,2869.01 C 1807.6,2869.01 1802.54,2865.72 1800.35,2860.78 L 1799.36,2868.03 L 1787.82,2868.03 L 1787.82,2813.97 L 1800.9,2813.97 L 1800.9,2847.92 C 1800.9,2853.3 1802.99,2859.67 1808.69,2859.67 C 1813.64,2859.67 1815.62,2856.27 1815.62,2851.11 L 1815.62,2813.97 L 1828.59,2813.97 Z M 1710.99,2813.97 L 1710.99,2843.52 C 1710.99,2850.34 1712.75,2857.37 1720.55,2857.37 C 1721.76,2857.37 1722.96,2857.15 1724.17,2856.82 L 1727.91,2868.36 C 1726.92,2868.79 1724.83,2869.01 1723.84,2869.01 C 1718.13,2869.01 1714.18,2866.6 1710.77,2860.88 L 1709.78,2868.03 L 1697.92,2868.03 L 1697.92,2813.97 L 1710.99,2813.97 Z M 1744.56,2829.8 C 1744.56,2834.52 1747.31,2838.8 1753.46,2838.8 C 1756.64,2838.8 1759.06,2838.36 1760.49,2837.81 L 1760.49,2830.23 C 1760.49,2825.4 1756.31,2821.77 1751.37,2821.77 C 1746.54,2821.77 1744.56,2825.18 1744.56,2829.8 Z" stroke-linejoin="miter" stroke-width="0" fill-rule="evenodd" fill="#d82020" marker-start="none" marker-end="none"/>
  </g>
 </g>
</svg>
