<?xml version="1.0" standalone="no"?>
<!DOCTYPE svg PUBLIC "-//W3C//DTD SVG 1.1//EN" "http://www.w3.org/Graphics/SVG/1.1/DTD/svg11.dtd">
<!--Generator: Xara Designer (www.xara.com), SVG filter version: 6.3.0.31-->
<svg fill="none" fill-rule="evenodd" stroke="black" stroke-width="0.501" stroke-linejoin="bevel" stroke-miterlimit="10" font-family="Times New Roman" font-size="16" style="font-variant-ligatures:none" xmlns:xlink="http://www.w3.org/1999/xlink" xmlns="http://www.w3.org/2000/svg" version="1.1" overflow="visible" width="709.29pt" height="249.007pt" viewBox="1630.88 -2684.4 709.29 249.007">
 <defs>
	</defs>
 <g id="Layer 1" transform="scale(1 -1)">
  <g id="Group" stroke="none">
   <rect x="-112.362" y="-230.141" width="224.724" height="460.282" transform="translate(2110.03 2559.9) rotate(90)" fill="#a9b908" stroke-linejoin="miter"/>
   <path d="M 1980.13,2476.43 L 1980.13,2494.74 C 1980.13,2504.56 1982.11,2513.71 1986.33,2521.95 C 1990.14,2529.38 1994.89,2536.17 2000.55,2542.3 C 2005.95,2548.15 2011.83,2553.58 2018.17,2558.6 C 2023.91,2563.14 2029.18,2567.66 2033.98,2572.15 C 2038.53,2576.4 2042.22,2580.66 2045.12,2584.9 C 2047.34,2588.14 2048.39,2591.56 2048.39,2595.39 C 2048.39,2598.88 2047.41,2600.56 2046.27,2601.65 C 2045.43,2602.44 2043.05,2603.86 2036.95,2603.86 C 2032.76,2603.86 2028.27,2603.5 2023.46,2602.75 C 2019.78,2602.18 2014.34,2600.28 2006.85,2596.37 C 2001.21,2593.44 1994.27,2596.26 1992.27,2602.3 L 1983.62,2628.51 C 1982.02,2633.34 1984.19,2638.63 1988.72,2640.94 C 1997.22,2645.28 2006.47,2648.16 2016.39,2649.63 C 2025.74,2651.01 2034.74,2651.72 2043.38,2651.72 C 2051.89,2651.72 2059.96,2650.77 2067.52,2648.78 C 2075.19,2646.77 2082.13,2643.62 2088.17,2639.23 C 2094.42,2634.67 2099.31,2628.79 2102.82,2621.78 C 2106.47,2614.46 2108.11,2606.23 2108.11,2597.37 C 2108.11,2588.32 2106.03,2579.72 2101.88,2571.72 C 2098.11,2564.45 2093.43,2557.63 2087.89,2551.26 C 2082.5,2545.08 2076.62,2539.33 2070.27,2534.04 C 2064.4,2529.15 2059,2524.52 2054.06,2520.14 L 2047.73,2514.21 L 2099.77,2514.21 C 2105.47,2514.21 2110.09,2509.59 2110.09,2503.89 L 2110.09,2476.43 C 2110.09,2470.73 2105.47,2466.11 2099.77,2466.11 L 1990.45,2466.11 C 1984.75,2466.11 1980.13,2470.73 1980.13,2476.43 Z" fill="#828f00" stroke-linejoin="round" stroke-width="0.25" marker-start="none" marker-end="none"/>
   <path d="M 1990.45,2476.43 L 1990.45,2494.74 C 1990.45,2503.14 1992.14,2510.65 1995.52,2517.24 C 1998.9,2523.84 2003.11,2529.85 2008.14,2535.3 C 2013.17,2540.74 2018.65,2545.81 2024.58,2550.51 C 2030.52,2555.2 2036,2559.9 2041.03,2564.6 C 2046.06,2569.3 2050.26,2574.12 2053.64,2579.07 C 2057.02,2584.02 2058.71,2589.46 2058.71,2595.39 C 2058.71,2601.16 2056.94,2605.74 2053.4,2609.12 C 2049.85,2612.5 2044.37,2614.19 2036.95,2614.19 C 2032.17,2614.19 2027.14,2613.78 2021.86,2612.95 C 2016.59,2612.13 2009.99,2609.66 2002.08,2605.53 L 1993.42,2631.75 C 2000.84,2635.54 2009,2638.1 2017.91,2639.42 C 2026.81,2640.73 2035.3,2641.39 2043.38,2641.39 C 2051.13,2641.39 2058.3,2640.53 2064.9,2638.8 C 2071.49,2637.07 2077.22,2634.43 2082.08,2630.88 C 2086.95,2627.34 2090.78,2622.76 2093.58,2617.16 C 2096.39,2611.55 2097.79,2604.96 2097.79,2597.37 C 2097.79,2589.95 2096.1,2582.99 2092.72,2576.47 C 2089.34,2569.96 2085.13,2563.82 2080.11,2558.05 C 2075.08,2552.28 2069.59,2546.92 2063.66,2541.97 C 2057.72,2537.03 2052.24,2532.33 2047.21,2527.88 C 2042.18,2523.42 2037.98,2519.22 2034.6,2515.26 C 2031.22,2511.31 2029.53,2507.51 2029.53,2503.89 L 2099.77,2503.89 L 2099.77,2476.43 L 1990.45,2476.43 Z" stroke-linejoin="round" stroke-width="0.25" fill-rule="nonzero" stroke-linecap="round" fill="#ffffff" marker-start="none" marker-end="none"/>
   <path d="M 2161.43,2463.92 C 2157.51,2464.26 2153.5,2464.69 2149.42,2465.2 C 2145.16,2465.73 2141,2466.45 2136.96,2467.34 C 2132.92,2468.24 2129.25,2469.29 2126.1,2470.55 C 2121.83,2472.26 2119.2,2476.58 2119.65,2481.14 L 2122.37,2509.09 C 2123.06,2516.2 2130.61,2520.48 2137.07,2517.42 C 2142.42,2514.89 2147.84,2513.26 2153.35,2512.51 C 2159.72,2511.63 2164.56,2511.24 2168.01,2511.24 C 2177.92,2511.24 2181.91,2513.47 2183.33,2515 C 2185.43,2517.25 2187.12,2521 2187.12,2527.63 C 2187.12,2529.92 2186.38,2531.77 2183.97,2533.75 C 2181.61,2535.68 2178.09,2537.09 2172.47,2537.09 L 2147.49,2537.09 C 2141.79,2537.09 2137.16,2541.71 2137.16,2547.41 L 2137.16,2574.62 C 2137.16,2580.32 2141.79,2584.94 2147.49,2584.94 L 2172.96,2584.94 C 2178.82,2584.94 2181.11,2586.48 2182.1,2587.58 C 2183.91,2589.6 2184.89,2591.99 2184.89,2595.39 C 2184.89,2598.02 2184.11,2599.82 2182.48,2601.45 C 2181.51,2602.42 2179.11,2603.86 2173.21,2603.86 C 2167.62,2603.86 2162.22,2603.45 2157,2602.63 C 2152.09,2601.86 2146.8,2600.39 2141.14,2598.15 C 2135.09,2595.76 2128.35,2599.51 2127.19,2605.91 L 2122.24,2633.12 C 2121.31,2638.25 2124.35,2643.27 2129.33,2644.82 C 2137.34,2647.31 2145.56,2649.09 2153.98,2650.15 C 2162.22,2651.19 2170.28,2651.72 2178.16,2651.72 C 2186.63,2651.72 2194.69,2650.82 2202.27,2648.95 C 2210.01,2647.03 2217.03,2644 2223.15,2639.71 C 2229.43,2635.32 2234.43,2629.68 2238.07,2622.92 C 2241.93,2615.76 2243.63,2607.61 2243.63,2598.86 C 2243.63,2592.15 2242.26,2585.79 2239.21,2580.04 C 2236.56,2575.05 2233.22,2570.63 2229.17,2566.9 L 2226.25,2564.58 L 2226.43,2564.47 C 2228.73,2562.81 2230.9,2560.95 2232.94,2558.92 C 2237.17,2554.68 2240.52,2549.75 2242.99,2544.19 C 2245.62,2538.27 2246.85,2531.87 2246.85,2525.16 C 2246.85,2505.68 2240.27,2489.53 2226.01,2478.52 C 2212.34,2467.96 2193.86,2463.39 2171.97,2463.39 C 2168.94,2463.39 2165.41,2463.58 2161.43,2463.92 Z" fill="#828f00" stroke-linejoin="round" stroke-width="0.25" marker-start="none" marker-end="none"/>
   <path d="M 2236.52,2525.16 C 2236.52,2508.17 2230.92,2495.35 2219.7,2486.7 C 2208.49,2478.04 2192.58,2473.71 2171.97,2473.71 C 2169.33,2473.71 2166.12,2473.88 2162.33,2474.21 C 2158.53,2474.54 2154.66,2474.95 2150.7,2475.45 C 2146.75,2475.94 2142.91,2476.6 2139.2,2477.42 C 2135.49,2478.25 2132.4,2479.16 2129.93,2480.14 L 2132.65,2508.09 C 2138.91,2505.12 2145.34,2503.18 2151.94,2502.28 C 2158.53,2501.37 2163.89,2500.92 2168.01,2500.92 C 2178.9,2500.92 2186.52,2503.27 2190.89,2507.97 C 2195.26,2512.67 2197.45,2519.22 2197.45,2527.63 C 2197.45,2533.23 2195.14,2537.93 2190.52,2541.72 C 2185.9,2545.52 2179.89,2547.41 2172.47,2547.41 L 2147.49,2547.41 L 2147.49,2574.62 L 2172.96,2574.62 C 2180.55,2574.62 2186.15,2576.64 2189.78,2580.68 C 2193.41,2584.72 2195.22,2589.62 2195.22,2595.39 C 2195.22,2600.67 2193.41,2605.12 2189.78,2608.75 C 2186.15,2612.38 2180.63,2614.19 2173.21,2614.19 C 2167.11,2614.19 2161.17,2613.74 2155.4,2612.83 C 2149.63,2611.92 2143.61,2610.23 2137.35,2607.76 L 2132.4,2634.96 C 2139.82,2637.27 2147.45,2638.92 2155.28,2639.91 C 2163.11,2640.9 2170.74,2641.39 2178.16,2641.39 C 2185.9,2641.39 2193.12,2640.57 2199.8,2638.92 C 2206.47,2637.27 2212.28,2634.72 2217.23,2631.25 C 2222.18,2627.79 2226.09,2623.38 2228.98,2618.02 C 2231.86,2612.66 2233.31,2606.28 2233.31,2598.86 C 2233.31,2593.58 2232.24,2588.92 2230.09,2584.88 C 2227.95,2580.84 2225.31,2577.38 2222.18,2574.49 C 2219.04,2571.61 2215.62,2569.3 2211.91,2567.57 C 2208.2,2565.84 2204.87,2564.64 2201.9,2563.98 C 2206.18,2563.16 2210.39,2561.72 2214.51,2559.66 C 2218.63,2557.6 2222.34,2554.92 2225.64,2551.62 C 2228.94,2548.32 2231.58,2544.45 2233.55,2539.99 C 2235.53,2535.54 2236.52,2530.6 2236.52,2525.16 Z" stroke-linejoin="round" stroke-width="0.25" fill-rule="nonzero" stroke-linecap="round" fill="#ffffff" marker-start="none" marker-end="none"/>
   <path d="M 1630.88,2684.4 L 1630.88,2435.4 L 1879.89,2435.4 L 1879.89,2684.4 L 1630.88,2684.4 Z" stroke-linejoin="miter" stroke-width="0.485" stroke-linecap="round" fill="#ffffff" marker-start="none" marker-end="none"/>
   <path d="M 1643.03,2447.54 L 1643.03,2672.26 L 1867.75,2672.26 L 1867.75,2447.54 L 1643.03,2447.54 Z M 1760.93,2537.59 L 1761.92,2531.22 L 1774.11,2531.22 C 1773.68,2534.51 1773.13,2537.92 1773.13,2541.22 L 1773.13,2570.88 C 1773.13,2580.33 1766.64,2586.26 1754.01,2586.26 C 1748.29,2586.26 1741.59,2585.61 1736.32,2583.19 L 1738.52,2574.07 C 1742.26,2576.04 1747.42,2576.92 1751.37,2576.92 C 1757.09,2576.92 1760.49,2574.4 1760.49,2568.79 L 1760.49,2562.75 C 1758.51,2563.08 1755.98,2563.63 1752.14,2563.63 C 1739.84,2563.63 1731.38,2557.59 1731.38,2546.38 C 1731.38,2536.39 1736.76,2530.24 1747.31,2530.24 C 1753.35,2530.24 1757.85,2532.87 1760.93,2537.59 Z M 1678.71,2531.22 L 1678.71,2593.29 L 1694.53,2593.29 L 1694.53,2604.61 L 1649.05,2604.61 L 1649.05,2593.29 L 1664.87,2593.29 L 1664.87,2531.22 L 1678.71,2531.22 Z M 1828.59,2531.22 L 1828.59,2565.38 C 1828.59,2570.77 1830.56,2576.92 1836.38,2576.92 C 1841.32,2576.92 1843.3,2573.08 1843.3,2568.36 L 1843.3,2531.22 L 1856.38,2531.22 L 1856.38,2569.34 C 1856.38,2578.79 1851.77,2586.26 1841.66,2586.26 C 1834.4,2586.26 1829.68,2582.64 1827.7,2578.03 C 1825.95,2581.87 1822.54,2586.26 1813.97,2586.26 C 1807.6,2586.26 1802.54,2582.97 1800.35,2578.03 L 1799.36,2585.28 L 1787.82,2585.28 L 1787.82,2531.22 L 1800.9,2531.22 L 1800.9,2565.17 C 1800.9,2570.55 1802.99,2576.92 1808.69,2576.92 C 1813.64,2576.92 1815.62,2573.52 1815.62,2568.36 L 1815.62,2531.22 L 1828.59,2531.22 Z M 1710.99,2531.22 L 1710.99,2560.77 C 1710.99,2567.59 1712.75,2574.62 1720.55,2574.62 C 1721.76,2574.62 1722.96,2574.4 1724.17,2574.07 L 1727.91,2585.61 C 1726.92,2586.04 1724.83,2586.26 1723.84,2586.26 C 1718.13,2586.26 1714.18,2583.85 1710.77,2578.13 L 1709.78,2585.28 L 1697.92,2585.28 L 1697.92,2531.22 L 1710.99,2531.22 Z M 1744.56,2547.05 C 1744.56,2551.77 1747.31,2556.05 1753.46,2556.05 C 1756.64,2556.05 1759.06,2555.61 1760.49,2555.06 L 1760.49,2547.48 C 1760.49,2542.65 1756.31,2539.02 1751.37,2539.02 C 1746.54,2539.02 1744.56,2542.43 1744.56,2547.05 Z" stroke-linejoin="miter" stroke-width="0" fill-rule="evenodd" fill="#d82020" marker-start="none" marker-end="none"/>
  </g>
 </g>
</svg>
