<?xml version="1.0" standalone="no"?>
<!DOCTYPE svg PUBLIC "-//W3C//DTD SVG 1.1//EN" "http://www.w3.org/Graphics/SVG/1.1/DTD/svg11.dtd">
<!--Generator: Xara Designer (www.xara.com), SVG filter version: 6.3.0.31-->
<svg fill="none" fill-rule="evenodd" stroke="black" stroke-width="0.501" stroke-linejoin="bevel" stroke-miterlimit="10" font-family="Times New Roman" font-size="16" style="font-variant-ligatures:none" xmlns:xlink="http://www.w3.org/1999/xlink" xmlns="http://www.w3.org/2000/svg" version="1.1" overflow="visible" width="158.822pt" height="55.758pt" viewBox="436.492 -781.849 158.822 55.758">
 <defs>
	</defs>
 <g id="Layer 1" transform="scale(1 -1)">
  <g id="Group" stroke="none">
   <path d="M 436.492,781.849 L 436.492,726.091 L 492.25,726.091 L 492.25,781.849 L 436.492,781.849 Z" stroke-linejoin="miter" stroke-width="0.485" stroke-linecap="round" fill="#ffffff" marker-start="none" marker-end="none"/>
   <path d="M 439.212,728.811 L 439.212,779.13 L 489.531,779.13 L 489.531,728.811 L 439.212,728.811 Z M 465.613,748.975 L 465.834,747.548 L 468.564,747.548 C 468.466,748.285 468.344,749.048 468.344,749.787 L 468.344,756.428 C 468.344,758.544 466.891,759.873 464.063,759.873 C 462.782,759.873 461.282,759.726 460.102,759.184 L 460.594,757.142 C 461.43,757.584 462.586,757.781 463.472,757.781 C 464.752,757.781 465.513,757.216 465.513,755.961 L 465.513,754.608 C 465.071,754.682 464.504,754.805 463.645,754.805 C 460.889,754.805 458.995,753.452 458.995,750.943 C 458.995,748.706 460.2,747.327 462.562,747.327 C 463.914,747.327 464.923,747.917 465.613,748.975 Z M 447.201,747.548 L 447.201,761.446 L 450.744,761.446 L 450.744,763.981 L 440.559,763.981 L 440.559,761.446 L 444.101,761.446 L 444.101,747.548 L 447.201,747.548 Z M 480.762,747.548 L 480.762,755.197 C 480.762,756.404 481.204,757.781 482.507,757.781 C 483.614,757.781 484.056,756.921 484.056,755.863 L 484.056,747.548 L 486.985,747.548 L 486.985,756.084 C 486.985,758.2 485.953,759.873 483.689,759.873 C 482.064,759.873 481.008,759.061 480.564,758.029 C 480.171,758.888 479.407,759.873 477.49,759.873 C 476.062,759.873 474.93,759.136 474.439,758.029 L 474.217,759.652 L 471.634,759.652 L 471.634,747.548 L 474.562,747.548 L 474.562,755.149 C 474.562,756.355 475.029,757.781 476.307,757.781 C 477.416,757.781 477.857,757.019 477.857,755.863 L 477.857,747.548 L 480.762,747.548 Z M 454.429,747.548 L 454.429,754.165 C 454.429,755.692 454.823,757.265 456.57,757.265 C 456.84,757.265 457.11,757.216 457.381,757.142 L 458.218,759.726 C 457.996,759.823 457.529,759.873 457.307,759.873 C 456.029,759.873 455.143,759.331 454.38,758.053 L 454.159,759.652 L 451.502,759.652 L 451.502,747.548 L 454.429,747.548 Z M 461.947,751.091 C 461.947,752.149 462.562,753.107 463.939,753.107 C 464.652,753.107 465.194,753.008 465.513,752.886 L 465.513,751.189 C 465.513,750.106 464.578,749.295 463.472,749.295 C 462.39,749.295 461.947,750.058 461.947,751.091 Z" stroke-linejoin="miter" stroke-width="0" fill-rule="evenodd" fill="#d82020" marker-start="none" marker-end="none"/>
   <rect x="-25.159" y="-51.531" width="50.319" height="103.063" transform="translate(543.782 753.97) rotate(90)" fill="#16bbe7" stroke-linejoin="miter"/>
   <path d="M 512.851,735.822 L 512.851,739.802 C 512.851,742.1 513.315,744.281 514.331,746.263 C 515.209,747.976 516.303,749.541 517.609,750.953 C 518.825,752.271 520.149,753.494 521.576,754.623 C 522.799,755.592 523.919,756.553 524.939,757.506 C 525.873,758.379 526.615,759.238 527.189,760.079 C 527.537,760.587 527.692,761.095 527.692,761.687 C 527.692,761.935 527.661,762.067 527.635,762.132 L 527.614,762.163 L 527.57,762.183 C 527.437,762.235 527.092,762.335 526.399,762.335 C 525.554,762.335 524.64,762.262 523.65,762.107 C 523.036,762.011 521.985,761.664 520.405,760.842 C 518.527,759.863 516.215,760.802 515.551,762.813 L 513.669,768.513 C 513.137,770.123 513.859,771.881 515.369,772.653 C 517.34,773.662 519.478,774.324 521.754,774.66 C 523.838,774.969 525.855,775.128 527.797,775.128 C 529.737,775.128 531.592,774.911 533.348,774.451 C 535.141,773.979 536.79,773.238 538.238,772.183 C 539.758,771.076 540.944,769.648 541.789,767.957 C 542.683,766.17 543.066,764.188 543.066,762.118 C 543.066,759.96 542.569,757.901 541.577,755.989 C 540.711,754.321 539.64,752.759 538.374,751.308 C 537.16,749.914 535.837,748.622 534.408,747.43 C 533.773,746.901 533.165,746.387 532.582,745.887 L 531.827,745.23 L 540.058,745.23 C 541.956,745.23 543.497,743.689 543.497,741.791 L 543.497,735.822 C 543.497,733.923 541.956,732.383 540.058,732.383 L 516.29,732.383 C 514.391,732.383 512.851,733.923 512.851,735.822 Z" stroke-linejoin="round" stroke-width="0.243" fill="#16bbe7" marker-start="none" marker-end="none"/>
   <path d="M 513.711,735.822 L 513.711,739.802 C 513.711,741.983 514.151,744.026 515.096,745.871 C 515.938,747.514 516.988,749.015 518.24,750.37 C 519.426,751.654 520.717,752.847 522.11,753.949 C 523.349,754.931 524.488,755.907 525.526,756.877 C 526.5,757.787 527.285,758.694 527.899,759.594 C 528.344,760.244 528.552,760.92 528.552,761.687 C 528.552,762.373 528.364,762.644 528.195,762.805 C 528.1,762.895 527.683,763.195 526.399,763.195 C 525.505,763.195 524.547,763.118 523.517,762.957 C 522.77,762.84 521.623,762.445 520.008,761.604 C 518.599,760.87 516.866,761.575 516.368,763.083 L 514.486,768.783 C 514.087,769.99 514.628,771.309 515.76,771.888 C 517.642,772.85 519.689,773.486 521.88,773.81 C 523.927,774.113 525.901,774.268 527.797,774.268 C 529.673,774.268 531.454,774.058 533.129,773.619 C 534.833,773.171 536.381,772.472 537.731,771.488 C 539.135,770.465 540.233,769.145 541.02,767.573 C 541.842,765.927 542.206,764.083 542.206,762.118 C 542.206,760.096 541.742,758.173 540.814,756.385 C 539.98,754.78 538.949,753.275 537.726,751.873 C 536.542,750.514 535.252,749.253 533.858,748.09 C 532.583,747.029 531.411,746.024 530.34,745.076 L 529.586,744.37 L 540.058,744.37 C 541.481,744.37 542.637,743.214 542.637,741.791 L 542.637,735.822 C 542.637,734.398 541.481,733.243 540.058,733.243 L 516.29,733.243 C 514.866,733.243 513.711,734.398 513.711,735.822 Z" stroke-linejoin="round" stroke-width="0.243" fill="#14afd7" marker-start="none" marker-end="none"/>
   <path d="M 514.57,735.822 L 514.57,739.802 C 514.57,741.865 514.986,743.771 515.861,745.479 C 516.668,747.052 517.672,748.489 518.872,749.786 C 520.026,751.037 521.284,752.2 522.643,753.275 C 523.9,754.27 525.056,755.262 526.113,756.249 C 527.126,757.196 527.954,758.15 528.609,759.109 C 529.15,759.9 529.411,760.746 529.411,761.687 C 529.411,762.563 529.158,763.075 528.788,763.427 C 528.468,763.732 527.792,764.054 526.399,764.054 C 525.456,764.054 524.453,763.973 523.384,763.806 C 522.504,763.668 521.261,763.226 519.611,762.367 C 518.672,761.877 517.516,762.347 517.184,763.352 L 515.302,769.052 C 515.036,769.857 515.397,770.736 516.152,771.122 C 517.944,772.039 519.9,772.648 522.006,772.959 C 524.016,773.257 525.948,773.408 527.797,773.408 C 529.609,773.408 531.316,773.206 532.911,772.788 C 534.525,772.363 535.972,771.706 537.225,770.793 C 538.514,769.855 539.524,768.643 540.251,767.188 C 541.003,765.685 541.346,763.977 541.346,762.118 C 541.346,760.232 540.914,758.445 540.051,756.781 C 539.25,755.239 538.258,753.79 537.078,752.438 C 535.924,751.113 534.667,749.885 533.307,748.751 C 532.027,747.685 530.849,746.674 529.771,745.719 C 529.245,745.254 528.769,744.807 528.34,744.378 L 527.532,743.51 L 540.058,743.51 C 541.007,743.51 541.777,742.74 541.777,741.791 L 541.777,735.822 C 541.777,734.872 541.007,734.102 540.058,734.102 L 516.29,734.102 C 515.34,734.102 514.57,734.872 514.57,735.822 Z" stroke-linejoin="round" stroke-width="0.243" fill="#12a2c8" marker-start="none" marker-end="none"/>
   <path d="M 515.43,735.822 L 515.43,739.802 C 515.43,741.747 515.821,743.516 516.627,745.087 C 517.397,746.59 518.356,747.963 519.503,749.203 C 520.627,750.42 521.852,751.553 523.177,752.6 C 524.45,753.609 525.624,754.616 526.7,755.621 C 527.753,756.605 528.624,757.606 529.319,758.623 C 529.957,759.557 530.271,760.571 530.271,761.687 C 530.271,762.752 529.952,763.506 529.381,764.049 C 528.836,764.569 527.902,764.914 526.399,764.914 C 525.407,764.914 524.359,764.829 523.251,764.655 C 522.238,764.497 520.898,764.007 519.214,763.129 C 518.744,762.885 518.166,763.119 518,763.622 L 516.118,769.322 C 515.986,769.724 516.166,770.164 516.543,770.357 C 518.246,771.228 520.112,771.81 522.132,772.109 C 524.105,772.401 525.994,772.548 527.797,772.548 C 529.545,772.548 531.178,772.353 532.693,771.956 C 534.217,771.555 535.563,770.94 536.719,770.098 C 537.891,769.244 538.813,768.141 539.482,766.804 C 540.162,765.443 540.486,763.872 540.486,762.118 C 540.486,760.368 540.087,758.717 539.287,757.178 C 538.52,755.699 537.566,754.306 536.429,753.003 C 535.306,751.713 534.082,750.516 532.757,749.411 C 531.471,748.341 530.286,747.325 529.2,746.363 C 528.129,745.414 527.244,744.528 526.541,743.706 C 526.212,743.321 525.988,742.97 525.846,742.65 L 540.058,742.65 C 540.532,742.65 540.917,742.265 540.917,741.791 L 540.917,735.822 C 540.917,735.347 540.532,734.962 540.058,734.962 L 516.29,734.962 C 515.815,734.962 515.43,735.347 515.43,735.822 Z" stroke-linejoin="round" stroke-width="0.243" stroke-linecap="round" fill-rule="nonzero" fill="#1095b8" marker-start="none" marker-end="none"/>
   <path d="M 552.324,732.707 C 550.526,733.445 548.923,734.471 547.578,735.816 C 546.282,737.112 545.263,738.615 544.526,740.3 C 543.869,741.806 543.367,743.383 543.012,745.027 C 542.669,746.624 542.447,748.239 542.345,749.873 C 542.252,751.395 542.205,752.877 542.205,754.32 C 542.205,756.426 542.383,758.59 542.733,760.806 C 543.117,763.238 543.873,765.516 545.02,767.611 C 546.253,769.864 547.987,771.706 550.162,773.117 C 552.617,774.711 555.583,775.347 558.769,775.347 C 561.969,775.347 564.948,774.728 567.405,773.159 C 569.592,771.763 571.334,769.924 572.571,767.665 C 573.722,765.56 574.471,763.271 574.835,760.828 C 575.164,758.619 575.333,756.448 575.333,754.32 C 575.333,752.16 575.197,749.908 574.932,747.564 C 574.64,744.978 573.977,742.535 572.925,740.256 C 571.782,737.785 570.088,735.728 567.881,734.126 C 565.35,732.286 562.181,731.573 558.769,731.573 C 556.46,731.573 554.276,731.905 552.324,732.707 Z M 558.935,747.081 C 559.098,747.961 559.229,748.847 559.326,749.742 C 559.424,750.633 559.478,751.457 559.493,752.217 C 559.511,753.082 559.52,753.781 559.52,754.32 C 559.52,754.989 559.481,755.944 559.394,757.216 C 559.317,758.336 559.157,759.402 558.918,760.42 L 558.768,760.892 L 558.618,760.42 C 558.38,759.401 558.219,758.335 558.143,757.216 C 558.055,755.943 558.017,754.988 558.017,754.32 C 558.017,753.781 558.025,753.082 558.043,752.217 C 558.058,751.459 558.113,750.635 558.21,749.742 C 558.308,748.846 558.438,747.96 558.601,747.082 L 558.766,746.369 L 558.935,747.081 Z" stroke-linejoin="round" stroke-width="0.243" fill="#16bbe7" marker-start="none" marker-end="none"/>
   <path d="M 552.671,733.553 C 550.974,734.25 549.476,735.212 548.225,736.463 C 547.01,737.677 546.056,739.084 545.364,740.666 C 544.733,742.114 544.248,743.632 543.906,745.219 C 543.572,746.771 543.357,748.341 543.258,749.93 C 543.166,751.434 543.119,752.897 543.119,754.32 C 543.119,756.374 543.293,758.49 543.637,760.663 C 544.005,762.998 544.729,765.175 545.822,767.172 C 546.98,769.287 548.607,771.018 550.66,772.35 C 552.922,773.819 555.698,774.432 558.769,774.432 C 561.859,774.432 564.649,773.834 566.913,772.388 C 568.975,771.072 570.608,769.346 571.769,767.226 C 572.865,765.221 573.581,763.037 573.93,760.693 C 574.254,758.526 574.418,756.4 574.418,754.32 C 574.418,752.198 574.285,749.98 574.024,747.667 C 573.742,745.171 573.103,742.824 572.095,740.64 C 571.018,738.311 569.425,736.376 567.344,734.866 C 565.02,733.177 562.062,732.487 558.769,732.487 C 556.544,732.487 554.485,732.808 552.671,733.553 Z M 559.234,744.869 C 559.483,745.443 559.688,746.12 559.835,746.914 C 560.002,747.817 560.136,748.725 560.235,749.643 C 560.335,750.558 560.391,751.408 560.408,752.199 C 560.425,753.067 560.434,753.772 560.434,754.32 C 560.434,755.019 560.394,755.998 560.306,757.278 C 560.226,758.445 560.059,759.561 559.808,760.629 C 559.584,761.583 559.258,762.332 558.872,762.918 L 558.758,763.029 L 558.665,762.918 C 558.278,762.332 557.953,761.584 557.728,760.629 C 557.478,759.56 557.31,758.445 557.231,757.278 C 557.142,755.997 557.102,755.018 557.102,754.32 C 557.102,753.772 557.111,753.067 557.128,752.199 C 557.145,751.41 557.201,750.559 557.301,749.643 C 557.401,748.724 557.535,747.816 557.702,746.916 C 557.852,746.103 558.055,745.409 558.297,744.819 C 558.405,744.553 558.515,744.344 558.618,744.18 L 558.743,744.019 L 558.888,744.206 C 558.997,744.375 559.115,744.594 559.234,744.869 Z" stroke-linejoin="round" stroke-width="0.243" fill="#14afd7" marker-start="none" marker-end="none"/>
   <path d="M 553.019,734.399 C 551.421,735.055 550.028,735.953 548.871,737.109 C 547.739,738.241 546.849,739.553 546.202,741.032 C 545.596,742.421 545.13,743.882 544.8,745.412 C 544.476,746.919 544.267,748.443 544.171,749.986 C 544.08,751.473 544.034,752.917 544.034,754.32 C 544.034,756.323 544.203,758.391 544.54,760.521 C 544.893,762.758 545.585,764.834 546.624,766.733 C 547.707,768.711 549.228,770.331 551.158,771.583 C 553.228,772.927 555.813,773.518 558.769,773.518 C 561.749,773.518 564.35,772.94 566.421,771.617 C 568.357,770.382 569.882,768.768 570.967,766.787 C 572.008,764.883 572.692,762.802 573.026,760.558 C 573.343,758.432 573.504,756.352 573.504,754.32 C 573.504,752.236 573.373,750.053 573.115,747.769 C 572.843,745.365 572.229,743.113 571.265,741.023 C 570.254,738.838 568.762,737.025 566.806,735.606 C 564.69,734.067 561.944,733.402 558.769,733.402 C 556.628,733.402 554.694,733.711 553.019,734.399 Z M 559.223,743.164 C 559.507,743.449 559.802,743.877 560.074,744.506 C 560.353,745.151 560.576,745.896 560.734,746.748 C 560.905,747.672 561.042,748.603 561.144,749.544 C 561.247,750.482 561.305,751.36 561.322,752.18 C 561.34,753.051 561.349,753.764 561.349,754.32 C 561.349,755.049 561.307,756.051 561.219,757.341 C 561.135,758.555 560.961,759.72 560.698,760.838 C 560.453,761.881 560.09,762.733 559.635,763.422 C 559.354,763.848 559.108,763.945 558.769,763.945 C 558.428,763.945 558.182,763.847 557.902,763.422 C 557.447,762.733 557.084,761.881 556.838,760.838 C 556.576,759.719 556.401,758.555 556.318,757.341 C 556.229,756.05 556.188,755.048 556.188,754.32 C 556.188,753.764 556.196,753.051 556.214,752.18 C 556.231,751.361 556.29,750.483 556.392,749.544 C 556.495,748.603 556.631,747.672 556.803,746.749 C 556.963,745.885 557.181,745.129 557.45,744.473 C 557.703,743.855 557.984,743.44 558.26,743.165 C 558.383,743.041 558.51,742.975 558.769,742.975 C 558.963,742.975 559.08,743.022 559.223,743.164 Z" stroke-linejoin="round" stroke-width="0.243" fill="#12a2c8" marker-start="none" marker-end="none"/>
   <path d="M 553.366,735.245 C 551.868,735.86 550.58,736.694 549.518,737.756 C 548.468,738.806 547.642,740.022 547.04,741.398 C 546.46,742.729 546.012,744.131 545.694,745.604 C 545.38,747.066 545.177,748.545 545.084,750.042 C 544.994,751.512 544.948,752.937 544.948,754.32 C 544.948,756.271 545.113,758.291 545.443,760.378 C 545.781,762.518 546.441,764.493 547.426,766.294 C 548.434,768.134 549.848,769.643 551.656,770.816 C 553.533,772.035 555.928,772.603 558.769,772.603 C 561.639,772.603 564.051,772.046 565.929,770.846 C 567.739,769.691 569.156,768.19 570.165,766.348 C 571.151,764.544 571.802,762.567 572.121,760.423 C 572.432,758.339 572.589,756.304 572.589,754.32 C 572.589,752.274 572.461,750.125 572.206,747.872 C 571.945,745.558 571.355,743.402 570.435,741.407 C 569.49,739.364 568.099,737.674 566.269,736.346 C 564.36,734.958 561.826,734.316 558.769,734.316 C 556.712,734.316 554.903,734.614 553.366,735.245 Z M 559.87,742.518 C 560.253,742.902 560.607,743.434 560.913,744.143 C 561.223,744.86 561.465,745.672 561.633,746.582 C 561.808,747.528 561.949,748.481 562.053,749.445 C 562.159,750.407 562.219,751.312 562.236,752.161 C 562.254,753.036 562.263,753.755 562.263,754.32 C 562.263,755.079 562.22,756.104 562.131,757.403 C 562.044,758.665 561.863,759.879 561.588,761.047 C 561.323,762.178 560.921,763.133 560.398,763.926 C 559.962,764.587 559.44,764.859 558.769,764.859 C 558.096,764.859 557.574,764.586 557.139,763.926 C 556.615,763.133 556.214,762.178 555.948,761.047 C 555.674,759.878 555.492,758.665 555.406,757.403 C 555.316,756.104 555.273,755.078 555.273,754.32 C 555.273,753.755 555.282,753.036 555.3,752.161 C 555.317,751.312 555.378,750.407 555.483,749.445 C 555.588,748.481 555.728,747.528 555.904,746.582 C 556.073,745.666 556.308,744.849 556.604,744.127 C 556.891,743.423 557.233,742.898 557.613,742.518 C 557.917,742.214 558.281,742.06 558.769,742.06 C 559.206,742.06 559.556,742.204 559.87,742.518 Z" stroke-linejoin="round" stroke-width="0.243" stroke-linecap="round" fill-rule="nonzero" fill="#1095b8" marker-start="none" marker-end="none"/>
   <path d="M 563.178,754.32 C 563.178,755.109 563.133,756.158 563.044,757.466 C 562.954,758.775 562.766,760.038 562.479,761.257 C 562.193,762.476 561.753,763.534 561.162,764.43 C 560.57,765.326 559.773,765.774 558.769,765.774 C 557.765,765.774 556.967,765.326 556.376,764.43 C 555.784,763.534 555.345,762.476 555.058,761.257 C 554.772,760.038 554.583,758.775 554.494,757.466 C 554.404,756.158 554.359,755.109 554.359,754.32 C 554.359,753.747 554.368,753.021 554.386,752.143 C 554.404,751.264 554.467,750.332 554.574,749.346 C 554.682,748.36 554.825,747.384 555.005,746.416 C 555.184,745.448 555.435,744.569 555.758,743.781 C 556.08,742.992 556.483,742.356 556.967,741.872 C 557.452,741.387 558.052,741.146 558.769,741.146 C 559.45,741.146 560.032,741.387 560.517,741.872 C 561,742.356 561.412,742.992 561.753,743.781 C 562.094,744.569 562.354,745.448 562.533,746.416 C 562.712,747.384 562.856,748.36 562.963,749.346 C 563.071,750.332 563.133,751.264 563.151,752.143 C 563.169,753.021 563.178,753.747 563.178,754.32 Z M 571.675,754.32 C 571.675,752.313 571.549,750.198 571.298,747.975 C 571.047,745.752 570.482,743.691 569.605,741.791 C 568.726,739.891 567.436,738.323 565.732,737.086 C 564.03,735.849 561.708,735.231 558.769,735.231 C 556.797,735.231 555.112,735.517 553.714,736.091 C 552.316,736.665 551.133,737.435 550.165,738.403 C 549.197,739.371 548.435,740.492 547.879,741.764 C 547.324,743.037 546.894,744.381 546.589,745.797 C 546.284,747.214 546.087,748.647 545.997,750.099 C 545.908,751.551 545.863,752.958 545.863,754.32 C 545.863,756.22 546.024,758.192 546.347,760.236 C 546.669,762.279 547.297,764.152 548.229,765.855 C 549.161,767.558 550.469,768.956 552.154,770.049 C 553.839,771.143 556.044,771.689 558.769,771.689 C 561.529,771.689 563.752,771.152 565.437,770.076 C 567.122,769.001 568.43,767.612 569.363,765.909 C 570.294,764.206 570.913,762.333 571.217,760.289 C 571.522,758.246 571.675,756.256 571.675,754.32 Z" stroke-linejoin="round" stroke-width="0.243" fill-rule="nonzero" stroke-linecap="round" fill="#ffffff" marker-start="none" marker-end="none"/>
   <path d="M 516.29,735.822 L 516.29,739.802 C 516.29,741.63 516.657,743.261 517.392,744.695 C 518.127,746.129 519.041,747.437 520.135,748.62 C 521.228,749.804 522.42,750.906 523.711,751.927 C 525.001,752.949 526.193,753.971 527.287,754.993 C 528.38,756.014 529.294,757.063 530.029,758.139 C 530.764,759.214 531.131,760.397 531.131,761.687 C 531.131,762.942 530.746,763.937 529.975,764.672 C 529.204,765.407 528.012,765.774 526.399,765.774 C 525.359,765.774 524.266,765.685 523.119,765.505 C 521.972,765.326 520.537,764.788 518.817,763.892 L 516.935,769.592 C 518.548,770.417 520.323,770.973 522.258,771.259 C 524.194,771.546 526.041,771.689 527.797,771.689 C 529.482,771.689 531.041,771.501 532.475,771.125 C 533.909,770.748 535.155,770.175 536.213,769.404 C 537.27,768.634 538.104,767.639 538.714,766.42 C 539.323,765.201 539.627,763.767 539.627,762.118 C 539.627,760.505 539.26,758.99 538.525,757.574 C 537.79,756.158 536.876,754.822 535.782,753.568 C 534.689,752.313 533.497,751.148 532.207,750.072 C 530.916,748.997 529.724,747.975 528.631,747.007 C 527.538,746.039 526.623,745.125 525.888,744.265 C 525.153,743.405 524.786,742.58 524.786,741.791 L 540.058,741.791 L 540.058,735.822 L 516.29,735.822 Z" stroke-linejoin="round" stroke-width="0.243" fill-rule="nonzero" stroke-linecap="round" fill="#ffffff" marker-start="none" marker-end="none"/>
  </g>
 </g>
</svg>
