<?xml version="1.0" standalone="no"?>
<!DOCTYPE svg PUBLIC "-//W3C//DTD SVG 1.1//EN" "http://www.w3.org/Graphics/SVG/1.1/DTD/svg11.dtd">
<!--Generator: Xara Designer (www.xara.com), SVG filter version: 6.3.0.31-->
<svg fill="none" fill-rule="evenodd" stroke="black" stroke-width="0.501" stroke-linejoin="bevel" stroke-miterlimit="10" font-family="Times New Roman" font-size="16" style="font-variant-ligatures:none" xmlns:xlink="http://www.w3.org/1999/xlink" xmlns="http://www.w3.org/2000/svg" version="1.1" overflow="visible" width="709.28pt" height="249.007pt" viewBox="17.872 -3231.76 709.28 249.007">
 <defs>
	</defs>
 <g id="Layer 1" transform="scale(1 -1)">
  <g id="Group" stroke="none">
   <rect x="-112.359" y="-230.136" width="224.718" height="460.272" transform="translate(497.016 3107.26) rotate(90)" fill="#96368b" stroke-linejoin="miter"/>
   <path d="M 381.443,3026.21 L 381.443,3052.87 L 415.783,3052.87 L 415.783,3153.49 L 378.801,3132.84 L 376.64,3161.9 L 416.744,3183.75 L 453.729,3183.75 L 453.729,3052.87 L 485.187,3052.87 L 485.187,3026.21 L 381.443,3026.21 Z" fill-rule="nonzero" stroke-linejoin="round" stroke-linecap="round" stroke-width="0.243" fill="#ffffff" marker-start="none" marker-end="none"/>
   <path d="M 509.672,3026.21 L 509.672,3043.99 C 509.672,3052.15 511.313,3059.43 514.595,3065.84 C 517.877,3072.24 521.96,3078.09 526.844,3083.37 C 531.727,3088.65 537.049,3093.58 542.813,3098.14 C 548.577,3102.7 553.9,3107.26 558.783,3111.83 C 563.666,3116.39 567.749,3121.07 571.031,3125.88 C 574.313,3130.68 575.954,3135.96 575.954,3141.73 C 575.954,3147.33 574.233,3151.77 570.79,3155.06 C 567.348,3158.34 562.025,3159.98 554.822,3159.98 C 550.177,3159.98 545.295,3159.58 540.171,3158.78 C 535.048,3157.98 528.644,3155.58 520.959,3151.57 L 512.554,3177.03 C 519.759,3180.71 527.684,3183.19 536.33,3184.47 C 544.974,3185.75 553.219,3186.39 561.064,3186.39 C 568.589,3186.39 575.553,3185.55 581.957,3183.87 C 588.361,3182.19 593.925,3179.63 598.648,3176.19 C 603.372,3172.75 607.093,3168.3 609.815,3162.86 C 612.537,3157.42 613.897,3151.01 613.897,3143.65 C 613.897,3136.44 612.256,3129.68 608.974,3123.35 C 605.693,3117.03 601.61,3111.07 596.726,3105.46 C 591.844,3099.86 586.519,3094.66 580.757,3089.85 C 574.993,3085.05 569.67,3080.49 564.786,3076.17 C 559.904,3071.84 555.822,3067.76 552.539,3063.92 C 549.256,3060.08 547.615,3056.39 547.615,3052.87 L 615.819,3052.87 L 615.819,3026.21 L 509.672,3026.21 Z" fill-rule="nonzero" stroke-linejoin="round" stroke-linecap="round" stroke-width="0.243" fill="#ffffff" marker-start="none" marker-end="none"/>
   <path d="M 17.872,3231.76 L 17.872,2982.76 L 266.879,2982.76 L 266.879,3231.76 L 17.872,3231.76 Z" stroke-linejoin="miter" stroke-width="0.485" stroke-linecap="round" fill="#ffffff" marker-start="none" marker-end="none"/>
   <path d="M 30.018,2994.9 L 30.018,3219.62 L 254.737,3219.62 L 254.737,2994.9 L 30.018,2994.9 Z M 147.921,3084.95 L 148.907,3078.58 L 161.102,3078.58 C 160.664,3081.87 160.117,3085.28 160.117,3088.58 L 160.117,3118.24 C 160.117,3127.69 153.629,3133.62 141,3133.62 C 135.281,3133.62 128.582,3132.96 123.309,3130.55 L 125.507,3121.43 C 129.243,3123.4 134.404,3124.28 138.362,3124.28 C 144.075,3124.28 147.477,3121.76 147.477,3116.15 L 147.477,3110.11 C 145.5,3110.44 142.971,3110.99 139.132,3110.99 C 126.827,3110.99 118.367,3104.95 118.367,3093.74 C 118.367,3083.75 123.747,3077.6 134.295,3077.6 C 140.334,3077.6 144.84,3080.23 147.921,3084.95 Z M 65.697,3078.58 L 65.697,3140.65 L 81.518,3140.65 L 81.518,3151.97 L 36.035,3151.97 L 36.035,3140.65 L 51.855,3140.65 L 51.855,3078.58 L 65.697,3078.58 Z M 215.574,3078.58 L 215.574,3112.74 C 215.574,3118.13 217.55,3124.28 223.367,3124.28 C 228.312,3124.28 230.288,3120.44 230.288,3115.72 L 230.288,3078.58 L 243.366,3078.58 L 243.366,3116.7 C 243.366,3126.15 238.757,3133.62 228.647,3133.62 C 221.39,3133.62 216.673,3130 214.691,3125.39 C 212.936,3129.22 209.525,3133.62 200.962,3133.62 C 194.588,3133.62 189.53,3130.33 187.337,3125.39 L 186.346,3132.63 L 174.81,3132.63 L 174.81,3078.58 L 187.889,3078.58 L 187.889,3112.53 C 187.889,3117.91 189.974,3124.28 195.682,3124.28 C 200.632,3124.28 202.604,3120.88 202.604,3115.72 L 202.604,3078.58 L 215.574,3078.58 Z M 97.977,3078.58 L 97.977,3108.13 C 97.977,3114.95 99.737,3121.98 107.535,3121.98 C 108.743,3121.98 109.951,3121.76 111.161,3121.43 L 114.898,3132.96 C 113.907,3133.4 111.82,3133.62 110.831,3133.62 C 105.12,3133.62 101.164,3131.2 97.758,3125.49 L 96.769,3132.63 L 84.904,3132.63 L 84.904,3078.58 L 97.977,3078.58 Z M 131.55,3094.4 C 131.55,3099.13 134.295,3103.41 140.448,3103.41 C 143.632,3103.41 146.052,3102.96 147.477,3102.42 L 147.477,3094.84 C 147.477,3090 143.301,3086.38 138.362,3086.38 C 133.526,3086.38 131.55,3089.79 131.55,3094.4 Z" stroke-linejoin="miter" stroke-width="0" fill-rule="evenodd" fill="#d82020" marker-start="none" marker-end="none"/>
  </g>
 </g>
</svg>
