<?xml version="1.0" standalone="no"?>
<!DOCTYPE svg PUBLIC "-//W3C//DTD SVG 1.1//EN" "http://www.w3.org/Graphics/SVG/1.1/DTD/svg11.dtd">
<!--Generator: Xara Designer (www.xara.com), SVG filter version: 6.3.0.31-->
<svg fill="none" fill-rule="evenodd" stroke="black" stroke-width="0.501" stroke-linejoin="bevel" stroke-miterlimit="10" font-family="Times New Roman" font-size="16" style="font-variant-ligatures:none" xmlns:xlink="http://www.w3.org/1999/xlink" xmlns="http://www.w3.org/2000/svg" version="1.1" overflow="visible" width="474.003pt" height="249.007pt" viewBox="639.384 -2361.61 474.003 249.007">
 <defs>
	</defs>
 <g id="Layer 1" transform="scale(1 -1)">
  <g id="Group" stroke="none">
   <path d="M 639.384,2361.61 L 639.384,2112.61 L 1113.39,2112.61 L 1113.39,2361.61 L 639.384,2361.61 Z" fill="#ffffff" stroke-width="0.597" stroke-linejoin="miter" marker-start="none" marker-end="none"/>
   <path d="M 651.984,2349.47 L 651.984,2124.75 L 1100.79,2124.75 L 1100.79,2349.47 L 651.984,2349.47 Z" fill="#53822f" stroke-width="0.597" stroke-linejoin="miter" marker-start="none" marker-end="none"/>
   <path d="M 868.003,2216.82 C 868.003,2207.49 866.604,2199.18 863.806,2191.87 C 861.008,2184.56 857.005,2178.38 851.797,2173.33 C 846.589,2168.28 840.292,2164.47 832.908,2161.91 C 825.524,2159.34 817.245,2158.06 808.073,2158.06 C 789.107,2158.06 774.377,2163.15 763.883,2173.33 C 753.39,2183.51 748.143,2198.01 748.143,2216.82 L 748.143,2316.16 L 785.92,2316.16 L 785.92,2219.15 C 785.92,2214.49 786.231,2210.14 786.853,2206.1 C 787.475,2202.05 788.641,2198.55 790.351,2195.6 C 792.061,2192.65 794.315,2190.32 797.113,2188.61 C 799.912,2186.9 803.565,2186.04 808.073,2186.04 C 812.271,2186.04 815.769,2186.9 818.567,2188.61 C 821.365,2190.32 823.658,2192.65 825.446,2195.6 C 827.234,2198.55 828.477,2202.05 829.177,2206.1 C 829.877,2210.14 830.226,2214.49 830.226,2219.15 L 830.226,2316.16 L 868.003,2316.16 L 868.003,2216.82 Z M 903.891,2160.62 L 903.891,2186.51 L 937.238,2186.51 L 937.238,2284.21 L 901.326,2264.16 L 899.228,2292.38 L 938.171,2313.6 L 974.082,2313.6 L 974.082,2186.51 L 1004.63,2186.51 L 1004.63,2160.62 L 903.891,2160.62 Z" stroke-width="5.83" stroke-linecap="round" fill-rule="nonzero" fill="#ffffff" stroke-linejoin="round" marker-start="none" marker-end="none"/>
  </g>
 </g>
</svg>
