<?xml version="1.0" standalone="no"?>
<!DOCTYPE svg PUBLIC "-//W3C//DTD SVG 1.1//EN" "http://www.w3.org/Graphics/SVG/1.1/DTD/svg11.dtd">
<!--Generator: Xara Designer (www.xara.com), SVG filter version: 6.3.0.31-->
<svg fill="none" fill-rule="evenodd" stroke="black" stroke-width="0.501" stroke-linejoin="bevel" stroke-miterlimit="10" font-family="Times New Roman" font-size="16" style="font-variant-ligatures:none" xmlns:xlink="http://www.w3.org/1999/xlink" xmlns="http://www.w3.org/2000/svg" version="1.1" overflow="visible" width="474.003pt" height="249.007pt" viewBox="1135.88 -2361.61 474.003 249.007">
 <defs>
	</defs>
 <g id="Layer 1" transform="scale(1 -1)">
  <g id="Group" stroke="none">
   <path d="M 1135.88,2361.61 L 1135.88,2112.61 L 1609.89,2112.61 L 1609.89,2361.61 L 1135.88,2361.61 Z" fill="#ffffff" stroke-width="0.597" stroke-linejoin="miter" marker-start="none" marker-end="none"/>
   <path d="M 1148.48,2349.47 L 1148.48,2124.75 L 1597.29,2124.75 L 1597.29,2349.47 L 1148.48,2349.47 Z" fill="#c20831" stroke-width="0.597" stroke-linejoin="miter" marker-start="none" marker-end="none"/>
   <path d="M 1366.84,2216.82 C 1366.84,2207.49 1365.44,2199.18 1362.64,2191.87 C 1359.84,2184.56 1355.84,2178.38 1350.63,2173.33 C 1345.42,2168.28 1339.12,2164.47 1331.74,2161.91 C 1324.36,2159.34 1316.08,2158.06 1306.91,2158.06 C 1287.94,2158.06 1273.21,2163.15 1262.71,2173.33 C 1252.22,2183.51 1246.98,2198.01 1246.98,2216.82 L 1246.98,2316.16 L 1284.75,2316.16 L 1284.75,2219.15 C 1284.75,2214.49 1285.06,2210.14 1285.68,2206.1 C 1286.31,2202.05 1287.47,2198.55 1289.18,2195.6 C 1290.89,2192.65 1293.15,2190.32 1295.94,2188.61 C 1298.74,2186.9 1302.4,2186.04 1306.91,2186.04 C 1311.1,2186.04 1314.6,2186.9 1317.4,2188.61 C 1320.2,2190.32 1322.49,2192.65 1324.28,2195.6 C 1326.07,2198.55 1327.31,2202.05 1328.01,2206.1 C 1328.71,2210.14 1329.06,2214.49 1329.06,2219.15 L 1329.06,2316.16 L 1366.84,2316.16 L 1366.84,2216.82 Z M 1395.73,2160.62 L 1395.73,2177.88 C 1395.73,2185.81 1397.32,2192.88 1400.51,2199.1 C 1403.69,2205.32 1407.66,2210.99 1412.4,2216.12 C 1417.14,2221.25 1422.31,2226.03 1427.91,2230.46 C 1433.51,2234.89 1438.67,2239.33 1443.42,2243.76 C 1448.16,2248.19 1452.12,2252.73 1455.31,2257.4 C 1458.5,2262.06 1460.09,2267.19 1460.09,2272.79 C 1460.09,2278.23 1458.42,2282.54 1455.08,2285.73 C 1451.73,2288.92 1446.56,2290.51 1439.57,2290.51 C 1435.06,2290.51 1430.32,2290.12 1425.34,2289.35 C 1420.37,2288.57 1414.15,2286.24 1406.69,2282.35 L 1398.53,2307.07 C 1405.52,2310.64 1413.22,2313.05 1421.61,2314.3 C 1430.01,2315.54 1438.01,2316.16 1445.63,2316.16 C 1452.94,2316.16 1459.7,2315.35 1465.92,2313.71 C 1472.14,2312.08 1477.54,2309.59 1482.13,2306.25 C 1486.71,2302.91 1490.33,2298.6 1492.97,2293.31 C 1495.61,2288.02 1496.93,2281.8 1496.93,2274.65 C 1496.93,2267.66 1495.34,2261.09 1492.15,2254.95 C 1488.96,2248.81 1485,2243.02 1480.26,2237.58 C 1475.52,2232.14 1470.35,2227.08 1464.75,2222.42 C 1459.16,2217.76 1453.99,2213.32 1449.25,2209.13 C 1444.5,2204.93 1440.54,2200.97 1437.35,2197.23 C 1434.17,2193.5 1432.57,2189.93 1432.57,2186.51 L 1498.8,2186.51 L 1498.8,2160.62 L 1395.73,2160.62 Z" stroke-width="5.83" stroke-linecap="round" fill-rule="nonzero" fill="#ffffff" stroke-linejoin="round" marker-start="none" marker-end="none"/>
  </g>
 </g>
</svg>
