<?xml version="1.0" standalone="no"?>
<!DOCTYPE svg PUBLIC "-//W3C//DTD SVG 1.1//EN" "http://www.w3.org/Graphics/SVG/1.1/DTD/svg11.dtd">
<!--Generator: Xara Designer (www.xara.com), SVG filter version: 6.3.0.31-->
<svg fill="none" fill-rule="evenodd" stroke="black" stroke-width="0.501" stroke-linejoin="bevel" stroke-miterlimit="10" font-family="Times New Roman" font-size="16" style="font-variant-ligatures:none" xmlns:xlink="http://www.w3.org/1999/xlink" xmlns="http://www.w3.org/2000/svg" version="1.1" overflow="visible" width="474.003pt" height="249.007pt" viewBox="1630.88 -2361.61 474.003 249.007">
 <defs>
	</defs>
 <g id="Layer 1" transform="scale(1 -1)">
  <g id="Group" stroke="none">
   <path d="M 1630.88,2361.61 L 1630.88,2112.61 L 2104.89,2112.61 L 2104.89,2361.61 L 1630.88,2361.61 Z" fill="#ffffff" stroke-width="0.597" stroke-linejoin="miter" marker-start="none" marker-end="none"/>
   <path d="M 1643.48,2349.47 L 1643.48,2124.75 L 2092.29,2124.75 L 2092.29,2349.47 L 1643.48,2349.47 Z" fill="#ec6825" stroke-width="0.597" stroke-linejoin="miter" marker-start="none" marker-end="none"/>
   <path d="M 1863.12,2216.82 C 1863.12,2207.49 1861.72,2199.18 1858.92,2191.87 C 1856.12,2184.56 1852.12,2178.38 1846.91,2173.33 C 1841.7,2168.28 1835.41,2164.47 1828.02,2161.91 C 1820.64,2159.34 1812.36,2158.06 1803.19,2158.06 C 1784.22,2158.06 1769.49,2163.15 1759,2173.33 C 1748.5,2183.51 1743.26,2198.01 1743.26,2216.82 L 1743.26,2316.16 L 1781.03,2316.16 L 1781.03,2219.15 C 1781.03,2214.49 1781.35,2210.14 1781.97,2206.1 C 1782.59,2202.05 1783.76,2198.55 1785.47,2195.6 C 1787.18,2192.65 1789.43,2190.32 1792.23,2188.61 C 1795.03,2186.9 1798.68,2186.04 1803.19,2186.04 C 1807.39,2186.04 1810.88,2186.9 1813.68,2188.61 C 1816.48,2190.32 1818.77,2192.65 1820.56,2195.6 C 1822.35,2198.55 1823.59,2202.05 1824.29,2206.1 C 1824.99,2210.14 1825.34,2214.49 1825.34,2219.15 L 1825.34,2316.16 L 1863.12,2316.16 L 1863.12,2216.82 Z M 1992.52,2206.56 C 1992.52,2190.55 1987.23,2178.46 1976.66,2170.3 C 1966.09,2162.14 1951.09,2158.06 1931.65,2158.06 C 1929.17,2158.06 1926.13,2158.21 1922.56,2158.52 C 1918.98,2158.84 1915.33,2159.22 1911.6,2159.69 C 1907.87,2160.16 1904.25,2160.78 1900.75,2161.56 C 1897.26,2162.33 1894.34,2163.19 1892.01,2164.12 L 1894.58,2190.47 C 1900.48,2187.67 1906.55,2185.85 1912.76,2184.99 C 1918.98,2184.14 1924.04,2183.71 1927.92,2183.71 C 1938.18,2183.71 1945.37,2185.92 1949.49,2190.36 C 1953.61,2194.79 1955.67,2200.97 1955.67,2208.89 C 1955.67,2214.18 1953.5,2218.61 1949.14,2222.19 C 1944.79,2225.76 1939.11,2227.55 1932.12,2227.55 L 1908.57,2227.55 L 1908.57,2253.2 L 1932.59,2253.2 C 1939.74,2253.2 1945.02,2255.1 1948.44,2258.91 C 1951.86,2262.72 1953.57,2267.35 1953.57,2272.79 C 1953.57,2277.76 1951.86,2281.96 1948.44,2285.38 C 1945.02,2288.8 1939.81,2290.51 1932.82,2290.51 C 1927.07,2290.51 1921.47,2290.08 1916.03,2289.23 C 1910.59,2288.37 1904.91,2286.78 1899.01,2284.45 L 1894.34,2310.1 C 1901.34,2312.28 1908.53,2313.83 1915.91,2314.76 C 1923.3,2315.7 1930.49,2316.16 1937.48,2316.16 C 1944.79,2316.16 1951.59,2315.38 1957.89,2313.83 C 1964.18,2312.28 1969.66,2309.87 1974.33,2306.6 C 1978.99,2303.34 1982.68,2299.18 1985.4,2294.13 C 1988.12,2289.07 1989.48,2283.05 1989.48,2276.05 C 1989.48,2271.08 1988.47,2266.69 1986.45,2262.88 C 1984.43,2259.07 1981.94,2255.8 1978.99,2253.08 C 1976.04,2250.36 1972.81,2248.19 1969.31,2246.55 C 1965.82,2244.92 1962.67,2243.8 1959.87,2243.17 C 1963.91,2242.4 1967.88,2241.03 1971.76,2239.09 C 1975.65,2237.15 1979.15,2234.62 1982.26,2231.51 C 1985.36,2228.4 1987.85,2224.75 1989.72,2220.55 C 1991.58,2216.36 1992.52,2211.69 1992.52,2206.56 Z" stroke-width="5.83" stroke-linecap="round" fill-rule="nonzero" fill="#ffffff" stroke-linejoin="round" marker-start="none" marker-end="none"/>
  </g>
 </g>
</svg>
