<?xml version="1.0" standalone="no"?>
<!DOCTYPE svg PUBLIC "-//W3C//DTD SVG 1.1//EN" "http://www.w3.org/Graphics/SVG/1.1/DTD/svg11.dtd">
<!--Generator: Xara Designer (www.xara.com), SVG filter version: 6.3.0.31-->
<svg fill="none" fill-rule="evenodd" stroke="black" stroke-width="0.501" stroke-linejoin="bevel" stroke-miterlimit="10" font-family="Times New Roman" font-size="16" style="font-variant-ligatures:none" xmlns:xlink="http://www.w3.org/1999/xlink" xmlns="http://www.w3.org/2000/svg" version="1.1" overflow="visible" width="474.003pt" height="249.007pt" viewBox="2127.38 -2361.61 474.003 249.007">
 <defs>
	</defs>
 <g id="Layer 1" transform="scale(1 -1)">
  <g id="Group" stroke="none">
   <path d="M 2127.38,2361.61 L 2127.38,2112.61 L 2601.39,2112.61 L 2601.39,2361.61 L 2127.38,2361.61 Z" fill="#ffffff" stroke-width="0.597" stroke-linejoin="miter" marker-start="none" marker-end="none"/>
   <path d="M 2139.98,2349.47 L 2139.98,2124.75 L 2588.79,2124.75 L 2588.79,2349.47 L 2139.98,2349.47 Z" fill="#00a983" stroke-width="0.597" stroke-linejoin="miter" marker-start="none" marker-end="none"/>
   <path d="M 2355.07,2216.82 C 2355.07,2207.49 2353.67,2199.18 2350.87,2191.87 C 2348.08,2184.56 2344.07,2178.38 2338.86,2173.33 C 2333.66,2168.28 2327.36,2164.47 2319.97,2161.91 C 2312.59,2159.34 2304.31,2158.06 2295.14,2158.06 C 2276.17,2158.06 2261.44,2163.15 2250.95,2173.33 C 2240.46,2183.51 2235.21,2198.01 2235.21,2216.82 L 2235.21,2316.16 L 2272.99,2316.16 L 2272.99,2219.15 C 2272.99,2214.49 2273.3,2210.14 2273.92,2206.1 C 2274.54,2202.05 2275.71,2198.55 2277.42,2195.6 C 2279.13,2192.65 2281.38,2190.32 2284.18,2188.61 C 2286.98,2186.9 2290.63,2186.04 2295.14,2186.04 C 2299.34,2186.04 2302.84,2186.9 2305.63,2188.61 C 2308.43,2190.32 2310.72,2192.65 2312.51,2195.6 C 2314.3,2198.55 2315.54,2202.05 2316.24,2206.1 C 2316.94,2210.14 2317.29,2214.49 2317.29,2219.15 L 2317.29,2316.16 L 2355.07,2316.16 L 2355.07,2216.82 Z M 2440.63,2287.25 L 2438.53,2287.25 L 2405.18,2223.12 L 2440.63,2223.12 L 2440.63,2287.25 Z M 2476.31,2198.63 L 2476.31,2160.62 L 2440.63,2160.62 L 2440.63,2198.63 L 2378.37,2198.63 L 2378.37,2217.52 L 2431.3,2313.6 L 2475.14,2313.6 L 2475.14,2223.12 L 2493.56,2223.12 L 2493.56,2198.63 L 2476.31,2198.63 Z" stroke-width="5.83" stroke-linecap="round" fill-rule="nonzero" fill="#ffffff" stroke-linejoin="round" marker-start="none" marker-end="none"/>
  </g>
 </g>
</svg>
