<?xml version="1.0" standalone="no"?>
<!DOCTYPE svg PUBLIC "-//W3C//DTD SVG 1.1//EN" "http://www.w3.org/Graphics/SVG/1.1/DTD/svg11.dtd">
<!--Generator: Xara Designer (www.xara.com), SVG filter version: 6.3.0.31-->
<svg fill="none" fill-rule="evenodd" stroke="black" stroke-width="0.501" stroke-linejoin="bevel" stroke-miterlimit="10" font-family="Times New Roman" font-size="16" style="font-variant-ligatures:none" xmlns:xlink="http://www.w3.org/1999/xlink" xmlns="http://www.w3.org/2000/svg" version="1.1" overflow="visible" width="474.003pt" height="249.007pt" viewBox="639.384 -2009.25 474.003 249.007">
 <defs>
	</defs>
 <g id="Layer 1" transform="scale(1 -1)">
  <g id="Group" stroke="none">
   <path d="M 639.384,2009.25 L 639.384,1760.24 L 1113.39,1760.24 L 1113.39,2009.25 L 639.384,2009.25 Z" fill="#ffffff" stroke-width="0.597" stroke-linejoin="miter" marker-start="none" marker-end="none"/>
   <path d="M 651.984,1997.11 L 651.984,1772.39 L 1100.79,1772.39 L 1100.79,1997.11 L 651.984,1997.11 Z" fill="#bc7b00" stroke-width="0.597" stroke-linejoin="miter" marker-start="none" marker-end="none"/>
   <path d="M 870.684,1864.46 C 870.684,1855.13 869.285,1846.82 866.487,1839.51 C 863.689,1832.2 859.686,1826.02 854.478,1820.97 C 849.27,1815.92 842.973,1812.11 835.589,1809.54 C 828.205,1806.98 819.926,1805.7 810.754,1805.7 C 791.788,1805.7 777.058,1810.79 766.564,1820.97 C 756.071,1831.15 750.824,1845.65 750.824,1864.46 L 750.824,1963.8 L 788.601,1963.8 L 788.601,1866.79 C 788.601,1862.13 788.912,1857.78 789.534,1853.73 C 790.156,1849.69 791.322,1846.19 793.032,1843.24 C 794.742,1840.29 796.996,1837.95 799.794,1836.24 C 802.593,1834.53 806.246,1833.68 810.754,1833.68 C 814.952,1833.68 818.45,1834.53 821.248,1836.24 C 824.046,1837.95 826.339,1840.29 828.127,1843.24 C 829.915,1846.19 831.158,1849.69 831.858,1853.73 C 832.558,1857.78 832.907,1862.13 832.907,1866.79 L 832.907,1963.8 L 870.684,1963.8 L 870.684,1864.46 Z M 1001.95,1859.56 C 1001.95,1842.93 996.507,1829.79 985.624,1820.15 C 974.742,1810.52 958.03,1805.7 935.488,1805.7 C 931.446,1805.7 926.627,1806.09 921.03,1806.86 C 915.434,1807.64 908.749,1809.12 900.976,1811.29 L 903.774,1837.64 C 910.459,1835 916.639,1833.33 922.313,1832.63 C 927.987,1831.93 932.534,1831.58 935.955,1831.58 C 945.749,1831.58 952.978,1834.07 957.641,1839.04 C 962.305,1844.02 964.637,1850.47 964.637,1858.4 C 964.637,1865.39 962.383,1871.07 957.875,1875.42 C 953.366,1879.77 946.915,1881.95 938.52,1881.95 C 934.011,1881.95 928.959,1881.64 923.362,1881.02 C 917.766,1880.4 911.625,1879.38 904.94,1877.99 L 907.738,1961.24 L 994.719,1961.24 L 994.719,1935.35 L 939.452,1935.35 L 938.986,1904.8 C 940.696,1905.11 942.989,1905.39 945.865,1905.62 C 948.741,1905.85 951.578,1905.97 954.377,1905.97 C 960.751,1905.97 966.814,1905 972.566,1903.05 C 978.318,1901.11 983.37,1898.23 987.723,1894.43 C 992.076,1890.62 995.535,1885.8 998.1,1879.97 C 1000.67,1874.14 1001.95,1867.34 1001.95,1859.56 Z" stroke-width="5.83" stroke-linecap="round" fill-rule="nonzero" fill="#ffffff" stroke-linejoin="round" marker-start="none" marker-end="none"/>
  </g>
 </g>
</svg>
