<?xml version="1.0" standalone="no"?>
<!DOCTYPE svg PUBLIC "-//W3C//DTD SVG 1.1//EN" "http://www.w3.org/Graphics/SVG/1.1/DTD/svg11.dtd">
<!--Generator: Xara Designer (www.xara.com), SVG filter version: 6.3.0.31-->
<svg fill="none" fill-rule="evenodd" stroke="black" stroke-width="0.501" stroke-linejoin="bevel" stroke-miterlimit="10" font-family="Times New Roman" font-size="16" style="font-variant-ligatures:none" xmlns:xlink="http://www.w3.org/1999/xlink" xmlns="http://www.w3.org/2000/svg" version="1.1" overflow="visible" width="474.003pt" height="249.007pt" viewBox="1135.88 -2009.25 474.003 249.007">
 <defs>
	</defs>
 <g id="Layer 1" transform="scale(1 -1)">
  <g id="Group" stroke="none">
   <path d="M 1135.88,2009.25 L 1135.88,1760.24 L 1609.89,1760.24 L 1609.89,2009.25 L 1135.88,2009.25 Z" fill="#ffffff" stroke-width="0.597" stroke-linejoin="miter" marker-start="none" marker-end="none"/>
   <path d="M 1148.48,1997.11 L 1148.48,1772.39 L 1597.29,1772.39 L 1597.29,1997.11 L 1148.48,1997.11 Z" fill="#0064ae" stroke-width="0.597" stroke-linejoin="miter" marker-start="none" marker-end="none"/>
   <path d="M 1365.09,1864.46 C 1365.09,1855.13 1363.69,1846.82 1360.89,1839.51 C 1358.09,1832.2 1354.09,1826.02 1348.88,1820.97 C 1343.67,1815.92 1337.38,1812.11 1329.99,1809.54 C 1322.61,1806.98 1314.33,1805.7 1305.16,1805.7 C 1286.19,1805.7 1271.46,1810.79 1260.97,1820.97 C 1250.47,1831.15 1245.23,1845.65 1245.23,1864.46 L 1245.23,1963.8 L 1283,1963.8 L 1283,1866.79 C 1283,1862.13 1283.31,1857.78 1283.94,1853.73 C 1284.56,1849.69 1285.72,1846.19 1287.43,1843.24 C 1289.14,1840.29 1291.4,1837.95 1294.2,1836.24 C 1297,1834.53 1300.65,1833.68 1305.16,1833.68 C 1309.35,1833.68 1312.85,1834.53 1315.65,1836.24 C 1318.45,1837.95 1320.74,1840.29 1322.53,1843.24 C 1324.32,1846.19 1325.56,1849.69 1326.26,1853.73 C 1326.96,1857.78 1327.31,1862.13 1327.31,1866.79 L 1327.31,1963.8 L 1365.09,1963.8 L 1365.09,1864.46 Z M 1463.7,1855.37 C 1463.7,1858.79 1463.43,1862.05 1462.89,1865.16 C 1462.34,1868.27 1461.41,1871.03 1460.09,1873.44 C 1458.77,1875.85 1457.02,1877.75 1454.84,1879.15 C 1452.67,1880.55 1449.87,1881.25 1446.45,1881.25 C 1441.47,1881.25 1437.35,1878.84 1434.09,1874.02 C 1430.82,1869.2 1429.19,1862.98 1429.19,1855.37 C 1429.19,1852.26 1429.46,1849.07 1430.01,1845.81 C 1430.55,1842.54 1431.48,1839.59 1432.81,1836.94 C 1434.13,1834.3 1435.88,1832.12 1438.05,1830.41 C 1440.23,1828.7 1443.03,1827.85 1446.45,1827.85 C 1449.87,1827.85 1452.7,1828.59 1454.96,1830.06 C 1457.21,1831.54 1458.96,1833.56 1460.2,1836.13 C 1461.45,1838.69 1462.34,1841.65 1462.89,1844.99 C 1463.43,1848.33 1463.7,1851.79 1463.7,1855.37 Z M 1500.55,1856.07 C 1500.55,1849.85 1499.46,1843.71 1497.28,1837.64 C 1495.11,1831.58 1491.8,1826.18 1487.37,1821.44 C 1482.94,1816.69 1477.35,1812.89 1470.58,1810.01 C 1463.82,1807.13 1455.77,1805.7 1446.45,1805.7 C 1436.65,1805.7 1428.34,1807.21 1421.5,1810.24 C 1414.66,1813.28 1409.14,1817.36 1404.94,1822.49 C 1400.74,1827.62 1397.67,1833.6 1395.73,1840.44 C 1393.78,1847.28 1392.81,1854.51 1392.81,1862.13 C 1392.81,1872.7 1394.44,1883.19 1397.71,1893.61 C 1400.97,1904.03 1405.48,1913.94 1411.24,1923.34 C 1416.99,1932.75 1423.75,1941.45 1431.52,1949.46 C 1439.3,1957.47 1447.69,1964.27 1456.71,1969.86 L 1487.02,1953.77 C 1482.2,1950.82 1476.84,1946.74 1470.93,1941.53 C 1465.02,1936.32 1459.39,1930.69 1454.03,1924.62 C 1448.66,1918.56 1443.96,1912.34 1439.92,1905.97 C 1435.88,1899.59 1433.31,1893.69 1432.22,1888.25 C 1436.26,1893.84 1440.85,1897.77 1445.98,1900.02 C 1451.11,1902.28 1456.24,1903.4 1461.37,1903.4 C 1468.21,1903.4 1474.08,1902.24 1478.98,1899.91 C 1483.87,1897.57 1487.92,1894.31 1491.1,1890.11 C 1494.29,1885.91 1496.66,1880.9 1498.21,1875.07 C 1499.77,1869.24 1500.55,1862.91 1500.55,1856.07 Z" stroke-width="5.83" stroke-linecap="round" fill-rule="nonzero" fill="#ffffff" stroke-linejoin="round" marker-start="none" marker-end="none"/>
  </g>
 </g>
</svg>
