<?xml version="1.0" standalone="no"?>
<!DOCTYPE svg PUBLIC "-//W3C//DTD SVG 1.1//EN" "http://www.w3.org/Graphics/SVG/1.1/DTD/svg11.dtd">
<!--Generator: Xara Designer (www.xara.com), SVG filter version: 6.3.0.31-->
<svg fill="none" fill-rule="evenodd" stroke="black" stroke-width="0.501" stroke-linejoin="bevel" stroke-miterlimit="10" font-family="Times New Roman" font-size="16" style="font-variant-ligatures:none" xmlns:xlink="http://www.w3.org/1999/xlink" xmlns="http://www.w3.org/2000/svg" version="1.1" overflow="visible" width="474.003pt" height="249.007pt" viewBox="1630.88 -2009.25 474.003 249.007">
 <defs>
	</defs>
 <g id="Layer 1" transform="scale(1 -1)">
  <g id="Group" stroke="none">
   <path d="M 1630.88,2009.25 L 1630.88,1760.24 L 2104.89,1760.24 L 2104.89,2009.25 L 1630.88,2009.25 Z" fill="#ffffff" stroke-width="0.597" stroke-linejoin="miter" marker-start="none" marker-end="none"/>
   <path d="M 1643.48,1997.11 L 1643.48,1772.39 L 2092.29,1772.39 L 2092.29,1997.11 L 1643.48,1997.11 Z" fill="#53822f" stroke-width="0.597" stroke-linejoin="miter" marker-start="none" marker-end="none"/>
   <path d="M 1643.49,1772.39 L 2092.29,1772.39 L 2092.29,1997.11 L 1643.49,1772.39 Z" fill="#c20831" stroke-width="0.597" stroke-linejoin="miter" marker-start="none" marker-end="none"/>
   <path d="M 1861.6,1864.46 C 1861.6,1855.13 1860.2,1846.82 1857.4,1839.51 C 1854.61,1832.2 1850.6,1826.02 1845.4,1820.97 C 1840.19,1815.92 1833.89,1812.11 1826.51,1809.54 C 1819.12,1806.98 1810.84,1805.7 1801.67,1805.7 C 1782.7,1805.7 1767.98,1810.79 1757.48,1820.97 C 1746.99,1831.15 1741.74,1845.65 1741.74,1864.46 L 1741.74,1963.8 L 1779.52,1963.8 L 1779.52,1866.79 C 1779.52,1862.13 1779.83,1857.78 1780.45,1853.73 C 1781.07,1849.69 1782.24,1846.19 1783.95,1843.24 C 1785.66,1840.29 1787.91,1837.95 1790.71,1836.24 C 1793.51,1834.53 1797.16,1833.68 1801.67,1833.68 C 1805.87,1833.68 1809.37,1834.53 1812.17,1836.24 C 1814.96,1837.95 1817.26,1840.29 1819.04,1843.24 C 1820.83,1846.19 1822.08,1849.69 1822.78,1853.73 C 1823.48,1857.78 1823.82,1862.13 1823.82,1866.79 L 1823.82,1963.8 L 1861.6,1963.8 L 1861.6,1864.46 Z M 1994.03,1945.61 C 1989.37,1934.73 1984.63,1922.99 1979.81,1910.4 C 1974.99,1897.81 1970.17,1885.1 1965.35,1872.28 C 1960.53,1859.45 1955.79,1846.86 1951.12,1834.5 C 1946.46,1822.15 1942.11,1810.84 1938.07,1800.58 L 1903.32,1814.1 C 1907.21,1823.74 1911.4,1833.95 1915.91,1844.76 C 1920.42,1855.56 1925.01,1866.32 1929.67,1877.05 C 1934.33,1887.77 1938.92,1898.15 1943.43,1908.17 C 1947.94,1918.2 1952.06,1927.25 1955.79,1935.33 L 1890.73,1935.33 L 1890.73,1961.24 L 1994.03,1961.24 L 1994.03,1945.61 Z" stroke-width="5.83" stroke-linecap="round" fill-rule="nonzero" fill="#ffffff" stroke-linejoin="round" marker-start="none" marker-end="none"/>
  </g>
 </g>
</svg>
