<?xml version="1.0" standalone="no"?>
<!DOCTYPE svg PUBLIC "-//W3C//DTD SVG 1.1//EN" "http://www.w3.org/Graphics/SVG/1.1/DTD/svg11.dtd">
<!--Generator: Xara Designer (www.xara.com), SVG filter version: 6.3.0.31-->
<svg fill="none" fill-rule="evenodd" stroke="black" stroke-width="0.501" stroke-linejoin="bevel" stroke-miterlimit="10" font-family="Times New Roman" font-size="16" style="font-variant-ligatures:none" xmlns:xlink="http://www.w3.org/1999/xlink" xmlns="http://www.w3.org/2000/svg" version="1.1" overflow="visible" width="474.003pt" height="249.007pt" viewBox="2127.38 -2009.25 474.003 249.007">
 <defs>
	</defs>
 <g id="Layer 1" transform="scale(1 -1)">
  <g id="Group" stroke="none">
   <path d="M 2127.38,2009.25 L 2127.38,1760.24 L 2601.39,1760.24 L 2601.39,2009.25 L 2127.38,2009.25 Z" fill="#ffffff" stroke-width="0.597" stroke-linejoin="miter" marker-start="none" marker-end="none"/>
   <path d="M 2139.98,1997.11 L 2139.98,1772.39 L 2588.79,1772.39 L 2588.79,1997.11 L 2139.98,1997.11 Z" fill="#c20831" stroke-width="0.597" stroke-linejoin="miter" marker-start="none" marker-end="none"/>
   <path d="M 2139.99,1772.39 L 2588.79,1772.39 L 2588.79,1997.11 L 2139.99,1772.39 Z" fill="#ec6825" stroke-width="0.597" stroke-linejoin="miter" marker-start="none" marker-end="none"/>
   <path d="M 2356.35,1864.46 C 2356.35,1855.13 2354.95,1846.82 2352.16,1839.51 C 2349.36,1832.2 2345.35,1826.02 2340.15,1820.97 C 2334.94,1815.92 2328.64,1812.11 2321.26,1809.55 C 2313.87,1806.98 2305.59,1805.7 2296.42,1805.7 C 2277.46,1805.7 2262.73,1810.79 2252.23,1820.97 C 2241.74,1831.15 2236.49,1845.65 2236.49,1864.46 L 2236.49,1963.8 L 2274.27,1963.8 L 2274.27,1866.79 C 2274.27,1862.13 2274.58,1857.78 2275.2,1853.73 C 2275.82,1849.69 2276.99,1846.19 2278.7,1843.24 C 2280.41,1840.29 2282.66,1837.95 2285.46,1836.25 C 2288.26,1834.54 2291.91,1833.68 2296.42,1833.68 C 2300.62,1833.68 2304.12,1834.54 2306.92,1836.25 C 2309.71,1837.95 2312.01,1840.29 2313.8,1843.24 C 2315.58,1846.19 2316.83,1849.69 2317.53,1853.73 C 2318.23,1857.78 2318.58,1862.13 2318.58,1866.79 L 2318.58,1963.8 L 2356.35,1963.8 L 2356.35,1864.46 Z M 2456.37,1853.97 C 2456.37,1857.39 2456.02,1860.61 2455.32,1863.65 C 2454.62,1866.68 2453.53,1869.36 2452.05,1871.69 C 2450.58,1874.02 2448.67,1875.85 2446.34,1877.17 C 2444.01,1878.49 2441.21,1879.15 2437.95,1879.15 C 2431.26,1879.15 2426.52,1876.7 2423.72,1871.81 C 2420.92,1866.91 2419.52,1860.96 2419.52,1853.97 C 2419.52,1850.7 2419.84,1847.52 2420.46,1844.41 C 2421.08,1841.3 2422.09,1838.5 2423.49,1836.01 C 2424.89,1833.52 2426.75,1831.54 2429.09,1830.07 C 2431.42,1828.59 2434.37,1827.85 2437.95,1827.85 C 2441.83,1827.85 2444.98,1828.59 2447.39,1830.07 C 2449.8,1831.54 2451.67,1833.52 2452.99,1836.01 C 2454.31,1838.5 2455.2,1841.3 2455.67,1844.41 C 2456.14,1847.52 2456.37,1850.7 2456.37,1853.97 Z M 2453.57,1921.13 C 2453.57,1923.77 2453.3,1926.34 2452.75,1928.82 C 2452.21,1931.31 2451.32,1933.49 2450.07,1935.35 C 2448.83,1937.22 2447.2,1938.73 2445.18,1939.9 C 2443.15,1941.07 2440.74,1941.65 2437.95,1941.65 C 2432.35,1941.65 2428.35,1939.59 2425.94,1935.47 C 2423.53,1931.35 2422.32,1926.57 2422.32,1921.13 C 2422.32,1918.64 2422.55,1916.11 2423.02,1913.55 C 2423.49,1910.98 2424.34,1908.61 2425.59,1906.44 C 2426.83,1904.26 2428.42,1902.47 2430.37,1901.07 C 2432.31,1899.67 2434.84,1898.97 2437.95,1898.97 C 2440.9,1898.97 2443.35,1899.6 2445.29,1900.84 C 2447.24,1902.08 2448.83,1903.75 2450.07,1905.85 C 2451.32,1907.95 2452.21,1910.32 2452.75,1912.97 C 2453.3,1915.61 2453.57,1918.33 2453.57,1921.13 Z M 2492.28,1851.17 C 2492.28,1844.8 2491,1838.81 2488.43,1833.21 C 2485.87,1827.62 2482.18,1822.8 2477.36,1818.76 C 2472.54,1814.71 2466.78,1811.53 2460.1,1809.19 C 2453.41,1806.86 2446.03,1805.7 2437.95,1805.7 C 2430.02,1805.7 2422.75,1806.71 2416.14,1808.73 C 2409.53,1810.75 2403.82,1813.7 2399,1817.59 C 2394.18,1821.48 2390.41,1826.26 2387.69,1831.93 C 2384.97,1837.61 2383.61,1844.02 2383.61,1851.17 C 2383.61,1856.92 2384.62,1862.09 2386.64,1866.68 C 2388.67,1871.26 2391.15,1875.19 2394.11,1878.45 C 2397.06,1881.72 2400.29,1884.36 2403.78,1886.38 C 2407.28,1888.4 2410.59,1889.8 2413.69,1890.58 C 2411.36,1891.51 2408.72,1892.83 2405.77,1894.54 C 2402.81,1896.25 2399.97,1898.47 2397.25,1901.19 C 2394.53,1903.91 2392.28,1907.17 2390.49,1910.98 C 2388.7,1914.79 2387.81,1919.26 2387.81,1924.39 C 2387.81,1930.61 2389.17,1936.17 2391.89,1941.07 C 2394.61,1945.96 2398.26,1950.08 2402.85,1953.42 C 2407.44,1956.77 2412.76,1959.33 2418.82,1961.12 C 2424.89,1962.91 2431.26,1963.8 2437.95,1963.8 C 2444.79,1963.8 2451.24,1962.98 2457.3,1961.35 C 2463.36,1959.72 2468.69,1957.23 2473.27,1953.89 C 2477.86,1950.55 2481.47,1946.43 2484.12,1941.53 C 2486.76,1936.63 2488.08,1930.92 2488.08,1924.39 C 2488.08,1918.95 2487.11,1914.29 2485.17,1910.4 C 2483.22,1906.51 2480.93,1903.29 2478.29,1900.72 C 2475.65,1898.16 2472.81,1896.1 2469.78,1894.54 C 2466.74,1892.99 2464.22,1891.9 2462.2,1891.28 C 2465.77,1889.88 2469.35,1888.13 2472.93,1886.03 C 2476.5,1883.93 2479.73,1881.33 2482.6,1878.22 C 2485.48,1875.11 2487.81,1871.34 2489.6,1866.91 C 2491.39,1862.48 2492.28,1857.23 2492.28,1851.17 Z" stroke-width="5.83" stroke-linecap="round" fill-rule="nonzero" fill="#ffffff" stroke-linejoin="round" marker-start="none" marker-end="none"/>
  </g>
 </g>
</svg>
