<?xml version="1.0" standalone="no"?>
<!DOCTYPE svg PUBLIC "-//W3C//DTD SVG 1.1//EN" "http://www.w3.org/Graphics/SVG/1.1/DTD/svg11.dtd">
<!--Generator: Xara Designer (www.xara.com), SVG filter version: 6.3.0.31-->
<svg fill="none" fill-rule="evenodd" stroke="black" stroke-width="0.501" stroke-linejoin="bevel" stroke-miterlimit="10" font-family="Times New Roman" font-size="16" style="font-variant-ligatures:none" xmlns:xlink="http://www.w3.org/1999/xlink" xmlns="http://www.w3.org/2000/svg" version="1.1" overflow="visible" width="249.007pt" height="249.007pt" viewBox="17.245 -2361.61 249.007 249.007">
 <defs>
	</defs>
 <g id="Layer 1" transform="scale(1 -1)">
  <g id="Group" stroke-linejoin="miter" stroke="none">
   <path d="M 17.245,2361.61 L 17.245,2112.6 L 266.252,2112.6 L 266.252,2361.61 L 17.245,2361.61 Z" stroke-width="0.485" stroke-linecap="round" fill="#ffffff" marker-start="none" marker-end="none"/>
   <path d="M 29.391,2124.75 L 29.391,2349.47 L 254.11,2349.47 L 254.11,2124.75 L 29.391,2124.75 Z M 202.846,2216.43 L 202.846,2317.71 L 164.329,2317.71 L 164.329,2218.81 C 164.329,2199.8 158.862,2185.05 141.753,2185.05 C 123.683,2185.05 119.166,2199.54 119.166,2218.81 L 119.166,2317.71 L 80.646,2317.71 L 80.646,2216.43 C 80.646,2178.15 103.23,2156.52 141.75,2156.52 C 179.315,2156.51 202.846,2178.15 202.846,2216.43 Z" stroke-width="0" fill-rule="evenodd" fill="#0068b0" marker-start="none" marker-end="none"/>
  </g>
 </g>
</svg>
