<?xml version="1.0" standalone="no"?>
<!DOCTYPE svg PUBLIC "-//W3C//DTD SVG 1.1//EN" "http://www.w3.org/Graphics/SVG/1.1/DTD/svg11.dtd">
<!--Generator: Xara Designer (www.xara.com), SVG filter version: 6.3.0.31-->
<svg fill="none" fill-rule="evenodd" stroke="black" stroke-width="0.501" stroke-linejoin="bevel" stroke-miterlimit="10" font-family="Times New Roman" font-size="16" style="font-variant-ligatures:none" xmlns:xlink="http://www.w3.org/1999/xlink" xmlns="http://www.w3.org/2000/svg" version="1.1" overflow="visible" width="212.434pt" height="249.007pt" viewBox="17.245 -1439.56 212.434 249.007">
 <defs>
	</defs>
 <g id="Layer 1" transform="scale(1 -1)">
  <g id="Group" stroke-linejoin="miter" stroke="none">
   <path d="M 17.245,1190.56 L 17.245,1402.99 L 229.679,1402.99 L 229.679,1190.56 L 17.245,1190.56 Z M 219.32,1200.92 L 219.32,1392.63 L 27.607,1392.63 L 27.607,1200.92 L 219.32,1200.92 Z" stroke-opacity="0.501961" stroke-width="0.485" stroke-linecap="round" fill="#ffffff" marker-start="none" marker-end="none" fill-opacity="0.501961"/>
   <path d="M 71.334,1279.13 L 71.334,1365.54 L 104.196,1365.54 L 104.196,1281.16 C 104.196,1264.73 108.05,1252.37 123.466,1252.37 C 138.062,1252.37 142.726,1264.94 142.726,1281.16 L 142.726,1365.54 L 175.586,1365.54 L 175.586,1279.13 C 175.586,1246.47 155.511,1228.02 123.463,1228.02 C 90.601,1228.02 71.334,1246.47 71.334,1279.13 Z" stroke-opacity="0.501961" fill-rule="evenodd" stroke-width="0" fill="#ffffff" marker-start="none" marker-end="none" fill-opacity="0.501961"/>
   <rect x="17.248" y="1190.558" width="212.431" height="249.007" stroke-width="0.485" stroke-linecap="round"/>
  </g>
 </g>
</svg>
