<?xml version="1.0" standalone="no"?>
<!DOCTYPE svg PUBLIC "-//W3C//DTD SVG 1.1//EN" "http://www.w3.org/Graphics/SVG/1.1/DTD/svg11.dtd">
<!--Generator: Xara Designer (www.xara.com), SVG filter version: 6.3.0.31-->
<svg fill="none" fill-rule="evenodd" stroke="black" stroke-width="0.501" stroke-linejoin="bevel" stroke-miterlimit="10" font-family="Times New Roman" font-size="16" style="font-variant-ligatures:none" xmlns:xlink="http://www.w3.org/1999/xlink" xmlns="http://www.w3.org/2000/svg" version="1.1" overflow="visible" width="308.809pt" height="249.007pt" viewBox="17.243 -893.5 308.809 249.007">
 <defs>
	</defs>
 <g id="Layer 1" transform="scale(1 -1)">
  <g id="Group" stroke-linejoin="miter" stroke="none">
   <path d="M 17.245,644.495 L 17.245,856.929 L 229.679,856.929 L 229.679,644.495 L 17.245,644.495 Z M 219.32,654.857 L 219.32,846.57 L 27.607,846.57 L 27.607,654.857 L 219.32,654.857 Z" stroke-width="0.485" stroke-linecap="round" fill="#ffffff" marker-start="none" marker-end="none"/>
   <path d="M 71.334,733.071 L 71.334,819.473 L 104.196,819.473 L 104.196,735.1 C 104.196,718.666 108.05,706.303 123.466,706.303 C 138.062,706.303 142.726,718.881 142.726,735.1 L 142.726,819.473 L 175.586,819.473 L 175.586,733.071 C 175.586,700.412 155.511,681.957 123.463,681.96 C 90.601,681.96 71.334,700.412 71.334,733.071 Z" fill-rule="evenodd" stroke-width="0" fill="#ffffff" marker-start="none" marker-end="none"/>
   <rect x="17.244" y="644.494" width="308.809" height="249.007" stroke-width="0.485" stroke-linecap="round"/>
  </g>
 </g>
</svg>
