<?xml version="1.0" standalone="no"?>
<!DOCTYPE svg PUBLIC "-//W3C//DTD SVG 1.1//EN" "http://www.w3.org/Graphics/SVG/1.1/DTD/svg11.dtd">
<!--Generator: Xara Designer (www.xara.com), SVG filter version: 6.3.0.31-->
<svg fill="none" fill-rule="evenodd" stroke="black" stroke-width="0.501" stroke-linejoin="bevel" stroke-miterlimit="10" font-family="Times New Roman" font-size="16" style="font-variant-ligatures:none" xmlns:xlink="http://www.w3.org/1999/xlink" xmlns="http://www.w3.org/2000/svg" version="1.1" overflow="visible" width="468.633pt" height="249.007pt" viewBox="17.245 -1170.06 468.633 249.007">
 <defs>
	</defs>
 <g id="Layer 1" transform="scale(1 -1)">
  <g id="Group" stroke="none">
   <path d="M 19.119,922.93 L 19.119,1135.36 L 231.553,1135.36 L 231.553,922.93 L 19.119,922.93 Z M 221.194,933.292 L 221.194,1125.01 L 29.481,1125.01 L 29.481,933.292 L 221.194,933.292 Z" stroke-linejoin="miter" stroke-width="0.485" stroke-linecap="round" fill="#ffffff" marker-start="none" marker-end="none"/>
   <path d="M 73.208,1011.51 L 73.208,1097.91 L 106.07,1097.91 L 106.07,1013.54 C 106.07,997.101 109.924,984.738 125.34,984.738 C 139.936,984.738 144.6,997.316 144.6,1013.54 L 144.6,1097.91 L 177.46,1097.91 L 177.46,1011.51 C 177.46,978.847 157.385,960.392 125.337,960.395 C 92.475,960.395 73.208,978.847 73.208,1011.51 Z" stroke-linejoin="miter" fill-rule="evenodd" stroke-width="0" fill="#ffffff" marker-start="none" marker-end="none"/>
   <rect x="17.246" y="921.055" width="468.632" height="249.007" stroke-linejoin="miter" stroke-width="0.485" stroke-linecap="round"/>
   <path d="M 318.367,975.309 L 318.431,1005.48 C 331.079,987.303 354.057,973.329 377.205,973.329 C 391.396,973.329 402.737,981.486 402.737,990.046 C 402.737,1022.77 317.121,1002.56 317.121,1058.93 C 317.121,1088.57 346.062,1104.42 372.011,1104.42 C 393.657,1104.42 413.062,1097.36 428.454,1085.43 L 428.397,1060.25 C 415.068,1074.61 395.011,1087.26 371.48,1087.26 C 358.209,1087.26 350.631,1080.17 350.631,1071.92 C 350.631,1069.08 350.949,1066.68 352.154,1064.54 C 365.565,1040.76 429.491,1055.62 437.032,1011.9 C 437.42,1009.49 437.624,1006.91 437.624,1004.13 C 437.624,980.892 415.116,953.876 377.205,953.876 C 356.109,953.876 331.707,963.369 318.367,975.309 Z" stroke-linejoin="round" stroke-linecap="square" stroke-width="0.485" fill="#ffffff" marker-start="none" marker-end="none"/>
   <path d="M 268.984,1029.15 C 268.984,1087.65 316.467,1135.14 374.973,1135.14 C 433.478,1135.14 480.961,1087.65 480.961,1029.15 C 480.961,970.641 433.478,923.158 374.973,923.158 C 316.467,923.158 268.984,970.641 268.984,1029.15 Z M 470.622,1029.15 C 470.622,1081.94 427.771,1124.8 374.973,1124.8 C 322.174,1124.8 279.323,1081.94 279.323,1029.15 C 279.323,976.348 322.174,933.497 374.973,933.497 C 427.771,933.497 470.622,976.348 470.622,1029.15 Z" stroke-linejoin="round" stroke-linecap="square" stroke-width="0.485" fill="#ffffff" marker-start="none" marker-end="none"/>
  </g>
 </g>
</svg>
