<?xml version="1.0" standalone="no"?>
<!DOCTYPE svg PUBLIC "-//W3C//DTD SVG 1.1//EN" "http://www.w3.org/Graphics/SVG/1.1/DTD/svg11.dtd">
<!--Generator: Xara Designer (www.xara.com), SVG filter version: 6.3.0.31-->
<svg fill="none" fill-rule="evenodd" stroke="black" stroke-width="0.501" stroke-linejoin="bevel" stroke-miterlimit="10" font-family="Times New Roman" font-size="16" style="font-variant-ligatures:none" xmlns:xlink="http://www.w3.org/1999/xlink" xmlns="http://www.w3.org/2000/svg" version="1.1" overflow="visible" width="465.821pt" height="249.007pt" viewBox="17.245 -1713.8 465.821 249.007">
 <defs>
	</defs>
 <g id="Layer 1" transform="scale(1 -1)">
  <g id="Group" stroke-linejoin="miter" stroke="none">
   <path d="M 18.745,1466.29 L 18.745,1678.73 L 231.179,1678.73 L 231.179,1466.29 L 18.745,1466.29 Z M 220.82,1476.65 L 220.82,1668.37 L 29.107,1668.37 L 29.107,1476.65 L 220.82,1476.65 Z" stroke-opacity="0.501961" stroke-width="0.485" stroke-linecap="round" fill="#ffffff" marker-start="none" marker-end="none" fill-opacity="0.501961"/>
   <path d="M 72.834,1554.87 L 72.834,1641.27 L 105.696,1641.27 L 105.696,1556.9 C 105.696,1540.46 109.55,1528.1 124.966,1528.1 C 139.562,1528.1 144.226,1540.68 144.226,1556.9 L 144.226,1641.27 L 177.086,1641.27 L 177.086,1554.87 C 177.086,1522.21 157.011,1503.75 124.963,1503.76 C 92.101,1503.76 72.834,1522.21 72.834,1554.87 Z" stroke-opacity="0.501961" fill-rule="evenodd" stroke-width="0" fill="#ffffff" marker-start="none" marker-end="none" fill-opacity="0.501961"/>
   <rect x="17.246" y="1464.791" width="465.82" height="249.007" stroke-width="0.485" stroke-linecap="round"/>
   <path d="M 317.763,1518.44 L 317.827,1548.61 C 330.475,1530.43 353.453,1516.46 376.601,1516.46 C 390.792,1516.46 402.133,1524.62 402.133,1533.18 C 402.133,1565.9 316.517,1545.69 316.517,1602.06 C 316.517,1631.7 345.458,1647.55 371.407,1647.55 C 393.053,1647.55 412.458,1640.5 427.85,1628.56 L 427.793,1603.38 C 414.464,1617.75 394.407,1630.39 370.876,1630.39 C 357.605,1630.39 350.027,1623.3 350.027,1615.05 C 350.027,1612.21 350.345,1609.81 351.55,1607.67 C 364.961,1583.89 428.887,1598.75 436.428,1555.04 C 436.816,1552.63 437.02,1550.04 437.02,1547.26 C 437.02,1524.02 414.512,1497.01 376.601,1497.01 C 355.505,1497.01 331.103,1506.5 317.763,1518.44 Z" stroke-opacity="0.501961" fill="#ffffff" stroke-width="0" fill-rule="evenodd" marker-start="none" marker-end="none" fill-opacity="0.501961"/>
   <path d="M 268.38,1572.28 C 268.38,1630.78 315.863,1678.27 374.369,1678.27 C 432.874,1678.27 480.357,1630.78 480.357,1572.28 C 480.357,1513.77 432.874,1466.29 374.369,1466.29 C 315.863,1466.29 268.38,1513.77 268.38,1572.28 Z M 470.018,1572.28 C 470.018,1625.08 427.167,1667.93 374.369,1667.93 C 321.57,1667.93 278.719,1625.08 278.719,1572.28 C 278.719,1519.48 321.57,1476.63 374.369,1476.63 C 427.167,1476.63 470.018,1519.48 470.018,1572.28 Z" stroke-opacity="0.501961" fill="#ffffff" stroke-width="0" fill-rule="evenodd" marker-start="none" marker-end="none" fill-opacity="0.501961"/>
  </g>
 </g>
</svg>
