<?xml version="1.0" standalone="no"?>
<!DOCTYPE svg PUBLIC "-//W3C//DTD SVG 1.1//EN" "http://www.w3.org/Graphics/SVG/1.1/DTD/svg11.dtd">
<!--Generator: Xara Designer (www.xara.com), SVG filter version: 6.3.0.31-->
<svg fill="none" fill-rule="evenodd" stroke="black" stroke-width="0.501" stroke-linejoin="bevel" stroke-miterlimit="10" font-family="Times New Roman" font-size="16" style="font-variant-ligatures:none" xmlns:xlink="http://www.w3.org/1999/xlink" xmlns="http://www.w3.org/2000/svg" version="1.1" overflow="visible" width="462.071pt" height="249.007pt" viewBox="17.245 -1713.79 462.071 249.007">
 <defs>
	</defs>
 <g id="Layer 1" transform="scale(1 -1)">
  <g id="Group" stroke-linejoin="miter" stroke="none">
   <path d="M 17.245,1464.78 L 17.245,1677.22 L 229.679,1677.22 L 229.679,1464.78 L 17.245,1464.78 Z M 219.32,1475.15 L 219.32,1666.86 L 27.607,1666.86 L 27.607,1475.15 L 219.32,1475.15 Z" stroke-opacity="0.501961" stroke-width="0.485" stroke-linecap="round" fill="#ffffff" marker-start="none" marker-end="none" fill-opacity="0.501961"/>
   <path d="M 71.334,1553.36 L 71.334,1639.76 L 104.196,1639.76 L 104.196,1555.39 C 104.196,1538.95 108.05,1526.59 123.466,1526.59 C 138.062,1526.59 142.726,1539.17 142.726,1555.39 L 142.726,1639.76 L 175.586,1639.76 L 175.586,1553.36 C 175.586,1520.7 155.511,1502.25 123.463,1502.25 C 90.601,1502.25 71.334,1520.7 71.334,1553.36 Z" stroke-opacity="0.501961" fill-rule="evenodd" stroke-width="0" fill="#ffffff" marker-start="none" marker-end="none" fill-opacity="0.501961"/>
   <rect x="17.246" y="1464.783" width="462.07" height="249.007" stroke-width="0.485" stroke-linecap="round"/>
   <path d="M 316.263,1516.93 L 316.327,1547.1 C 328.975,1528.93 351.953,1514.95 375.101,1514.95 C 389.292,1514.95 400.633,1523.11 400.633,1531.67 C 400.633,1564.4 315.017,1544.18 315.017,1600.55 C 315.017,1630.19 343.958,1646.04 369.907,1646.04 C 391.553,1646.04 410.958,1638.99 426.35,1627.05 L 426.293,1601.87 C 412.964,1616.24 392.907,1628.88 369.376,1628.88 C 356.105,1628.88 348.527,1621.79 348.527,1613.54 C 348.527,1610.7 348.845,1608.3 350.05,1606.16 C 363.461,1582.38 427.387,1597.24 434.928,1553.53 C 435.316,1551.12 435.52,1548.53 435.52,1545.75 C 435.52,1522.52 413.012,1495.5 375.101,1495.5 C 354.005,1495.5 329.603,1504.99 316.263,1516.93 Z" stroke-opacity="0.501961" fill="#ffffff" stroke-width="0" fill-rule="evenodd" marker-start="none" marker-end="none" fill-opacity="0.501961"/>
   <path d="M 266.88,1570.77 C 266.88,1629.28 314.363,1676.76 372.869,1676.76 C 431.374,1676.76 478.857,1629.28 478.857,1570.77 C 478.857,1512.27 431.374,1464.78 372.869,1464.78 C 314.363,1464.78 266.88,1512.27 266.88,1570.77 Z M 468.518,1570.77 C 468.518,1623.57 425.667,1666.42 372.869,1666.42 C 320.07,1666.42 277.219,1623.57 277.219,1570.77 C 277.219,1517.97 320.07,1475.12 372.869,1475.12 C 425.667,1475.12 468.518,1517.97 468.518,1570.77 Z" stroke-opacity="0.501961" fill="#ffffff" stroke-width="0" fill-rule="evenodd" marker-start="none" marker-end="none" fill-opacity="0.501961"/>
  </g>
 </g>
</svg>
