<?xml version="1.0" standalone="no"?>
<!DOCTYPE svg PUBLIC "-//W3C//DTD SVG 1.1//EN" "http://www.w3.org/Graphics/SVG/1.1/DTD/svg11.dtd">
<!--Generator: Xara Designer (www.xara.com), SVG filter version: 6.3.0.31-->
<svg fill="none" fill-rule="evenodd" stroke="black" stroke-width="0.501" stroke-linejoin="bevel" stroke-miterlimit="10" font-family="Times New Roman" font-size="16" style="font-variant-ligatures:none" xmlns:xlink="http://www.w3.org/1999/xlink" xmlns="http://www.w3.org/2000/svg" version="1.1" overflow="visible" width="462.071pt" height="249.007pt" viewBox="17.245 -1170.05 462.071 249.007">
 <defs>
	</defs>
 <g id="Layer 1" transform="scale(1 -1)">
  <g id="Group" stroke="none">
   <path d="M 17.245,921.048 L 17.245,1133.48 L 229.679,1133.48 L 229.679,921.048 L 17.245,921.048 Z M 219.32,931.41 L 219.32,1123.12 L 27.607,1123.12 L 27.607,931.41 L 219.32,931.41 Z" stroke-linejoin="miter" stroke-width="0.485" stroke-linecap="round" fill="#ffffff" marker-start="none" marker-end="none"/>
   <path d="M 71.334,1009.62 L 71.334,1096.03 L 104.196,1096.03 L 104.196,1011.65 C 104.196,995.219 108.05,982.856 123.466,982.856 C 138.062,982.856 142.726,995.434 142.726,1011.65 L 142.726,1096.03 L 175.586,1096.03 L 175.586,1009.62 C 175.586,976.965 155.511,958.51 123.463,958.513 C 90.601,958.513 71.334,976.965 71.334,1009.62 Z" stroke-linejoin="miter" fill-rule="evenodd" stroke-width="0" fill="#ffffff" marker-start="none" marker-end="none"/>
   <rect x="17.246" y="921.047" width="462.07" height="249.007" stroke-linejoin="miter" stroke-width="0.485" stroke-linecap="round"/>
   <path d="M 316.493,973.427 L 316.557,1003.6 C 329.205,985.421 352.183,971.447 375.331,971.447 C 389.522,971.447 400.863,979.604 400.863,988.164 C 400.863,1020.89 315.247,1000.68 315.247,1057.04 C 315.247,1086.69 344.188,1102.54 370.137,1102.54 C 391.783,1102.54 411.188,1095.48 426.58,1083.55 L 426.523,1058.37 C 413.194,1072.73 393.137,1085.38 369.606,1085.38 C 356.335,1085.38 348.757,1078.29 348.757,1070.04 C 348.757,1067.2 349.075,1064.79 350.28,1062.66 C 363.691,1038.87 427.617,1053.73 435.158,1010.02 C 435.546,1007.61 435.75,1005.03 435.75,1002.25 C 435.75,979.01 413.242,951.994 375.331,951.994 C 354.235,951.994 329.833,961.487 316.493,973.427 Z" stroke-linejoin="round" stroke-linecap="square" stroke-width="0.485" fill="#ffffff" marker-start="none" marker-end="none"/>
   <path d="M 267.11,1027.27 C 267.11,1085.77 314.593,1133.25 373.099,1133.25 C 431.604,1133.25 479.087,1085.77 479.087,1027.27 C 479.087,968.759 431.604,921.276 373.099,921.276 C 314.593,921.276 267.11,968.759 267.11,1027.27 Z M 468.748,1027.27 C 468.748,1080.06 425.897,1122.91 373.099,1122.91 C 320.3,1122.91 277.449,1080.06 277.449,1027.27 C 277.449,974.466 320.3,931.615 373.099,931.615 C 425.897,931.615 468.748,974.466 468.748,1027.27 Z" stroke-linejoin="round" stroke-linecap="square" stroke-width="0.485" fill="#ffffff" marker-start="none" marker-end="none"/>
  </g>
 </g>
</svg>
