<?xml version="1.0" standalone="no"?>
<!DOCTYPE svg PUBLIC "-//W3C//DTD SVG 1.1//EN" "http://www.w3.org/Graphics/SVG/1.1/DTD/svg11.dtd">
<!--Generator: Xara Designer (www.xara.com), SVG filter version: 6.3.0.31-->
<svg fill="none" fill-rule="evenodd" stroke="black" stroke-width="0.501" stroke-linejoin="bevel" stroke-miterlimit="10" font-family="Times New Roman" font-size="16" style="font-variant-ligatures:none" xmlns:xlink="http://www.w3.org/1999/xlink" xmlns="http://www.w3.org/2000/svg" version="1.1" overflow="visible" width="171.625pt" height="249.007pt" viewBox="3558.31 -2967.15 171.625 249.007">
 <defs>
	</defs>
 <g id="Layer 1" transform="scale(1 -1)">
  <g id="Group" stroke-linejoin="miter" stroke="none">
   <rect x="3558.314" y="2718.147" width="171.624" height="249.007" stroke-linecap="round" stroke-width="0.5"/>
   <path d="M 3559.95,2724.09 L 3559.95,2747.59 C 3559.95,2750.15 3562.34,2752.23 3565.28,2752.23 L 3576.51,2752.23 C 3599.15,2821.18 3604.85,2806.22 3619.22,2825.08 C 3625.7,2834.84 3626.73,2851.27 3619.22,2860.22 C 3604.15,2878.18 3605.74,2865.32 3576.51,2933.07 L 3565.28,2933.07 C 3562.34,2933.07 3559.95,2935.15 3559.95,2937.7 L 3559.95,2961.21 C 3559.95,2963.77 3562.34,2965.84 3565.28,2965.84 L 3723,2965.84 C 3725.94,2965.84 3728.33,2963.77 3728.33,2961.21 L 3728.33,2937.7 C 3728.33,2935.15 3725.94,2933.07 3723,2933.07 L 3711.77,2933.07 C 3682.54,2865.32 3684.13,2878.18 3669.06,2860.22 C 3661.55,2851.27 3662.58,2834.84 3669.06,2825.08 C 3683.43,2806.22 3689.13,2821.18 3711.77,2752.23 L 3723,2752.23 C 3725.94,2752.23 3728.33,2750.15 3728.33,2747.59 L 3728.33,2724.09 C 3728.33,2721.53 3725.94,2719.46 3723,2719.46 L 3565.28,2719.46 C 3562.34,2719.46 3559.95,2721.53 3559.95,2724.09 Z M 3658.7,2829.26 C 3655.19,2839.04 3655.4,2848.32 3659.61,2856.44 C 3668.85,2874.27 3683.85,2871.89 3699.53,2933.07 L 3588.75,2933.07 C 3604.43,2871.89 3619.43,2874.27 3628.67,2856.44 C 3632.88,2848.32 3633.09,2839.04 3629.58,2829.26 C 3622.81,2810.36 3596.96,2812.8 3588.75,2752.23 L 3699.53,2752.23 C 3691.32,2812.8 3665.47,2810.36 3658.7,2829.26 Z" stroke-width="0" fill="#ffffff" marker-start="none" marker-end="none"/>
   <path d="M 3644.09,2752.23 L 3598.37,2752.23 C 3611.81,2763.37 3625.42,2772.9 3638.29,2789.1 L 3638.29,2864.69 C 3628.53,2870.72 3622.33,2878.91 3614.68,2891.28 C 3634.07,2889.88 3653.7,2889.9 3673.57,2891.28 C 3665.93,2878.91 3659.73,2870.72 3649.97,2864.69 L 3649.97,2789.1 C 3660.94,2774.87 3675.78,2763.86 3689.88,2752.23 L 3644.16,2752.23 L 3644.09,2752.23 Z" stroke-opacity="0.501961" stroke-width="0" fill="#ffffff" marker-start="none" marker-end="none" fill-opacity="0.501961"/>
  </g>
 </g>
</svg>
