<?xml version="1.0" standalone="no"?>
<!DOCTYPE svg PUBLIC "-//W3C//DTD SVG 1.1//EN" "http://www.w3.org/Graphics/SVG/1.1/DTD/svg11.dtd">
<!--Generator: Xara Designer (www.xara.com), SVG filter version: 6.3.0.31-->
<svg fill="none" fill-rule="evenodd" stroke="black" stroke-width="0.501" stroke-linejoin="bevel" stroke-miterlimit="10" font-family="Times New Roman" font-size="16" style="font-variant-ligatures:none" xmlns:xlink="http://www.w3.org/1999/xlink" xmlns="http://www.w3.org/2000/svg" version="1.1" overflow="visible" width="171.625pt" height="249.007pt" viewBox="3444.93 -2967.15 171.625 249.007">
 <defs>
	</defs>
 <g id="Layer 1" transform="scale(1 -1)">
  <g id="Group" stroke-linejoin="miter" stroke="none">
   <rect x="3444.926" y="2718.147" width="171.624" height="249.007" stroke-linecap="round" stroke-width="0.5"/>
   <path d="M 3446.56,2724.09 L 3446.56,2747.59 C 3446.56,2750.15 3448.95,2752.23 3451.89,2752.23 L 3463.12,2752.23 C 3485.76,2821.18 3497.13,2806.22 3511.5,2825.08 C 3517.98,2834.84 3519.01,2851.27 3511.5,2860.22 C 3496.43,2878.18 3492.35,2865.32 3463.12,2933.07 L 3451.89,2933.07 C 3448.95,2933.07 3446.56,2935.15 3446.56,2937.7 L 3446.56,2961.21 C 3446.56,2963.77 3448.95,2965.84 3451.89,2965.84 L 3609.61,2965.84 C 3612.55,2965.84 3614.94,2963.77 3614.94,2961.21 L 3614.94,2937.7 C 3614.94,2935.15 3612.55,2933.07 3609.61,2933.07 L 3598.38,2933.07 C 3569.15,2865.32 3565.08,2878.18 3550,2860.22 C 3542.49,2851.27 3543.52,2834.84 3550,2825.08 C 3564.37,2806.22 3575.74,2821.18 3598.38,2752.23 L 3609.61,2752.23 C 3612.55,2752.23 3614.94,2750.15 3614.94,2747.59 L 3614.94,2724.09 C 3614.94,2721.53 3612.55,2719.46 3609.61,2719.46 L 3451.89,2719.46 C 3448.95,2719.46 3446.56,2721.53 3446.56,2724.09 Z M 3539.64,2829.26 C 3536.13,2839.04 3536.34,2848.32 3540.55,2856.44 C 3549.79,2874.27 3570.46,2871.89 3586.14,2933.07 L 3475.37,2933.07 C 3491.04,2871.89 3511.72,2874.27 3520.95,2856.44 C 3525.16,2848.32 3525.37,2839.04 3521.87,2829.26 C 3515.09,2810.36 3483.57,2812.8 3475.37,2752.23 L 3586.14,2752.23 C 3577.93,2812.8 3546.42,2810.36 3539.64,2829.26 Z" stroke-width="0" fill="#ffffff" marker-start="none" marker-end="none"/>
   <path d="M 3530.7,2752.23 L 3484.99,2752.23 L 3527.74,2789.1 L 3527.74,2864.69 C 3517.98,2870.72 3508.94,2878.91 3501.3,2891.28 C 3520.68,2889.88 3540.31,2889.9 3560.18,2891.28 C 3552.54,2878.91 3543.5,2870.72 3533.74,2864.69 L 3533.74,2789.1 L 3576.49,2752.23 L 3530.77,2752.23 L 3530.7,2752.23 Z" stroke-opacity="0.501961" stroke-width="0" fill="#ffffff" marker-start="none" marker-end="none" fill-opacity="0.501961"/>
  </g>
 </g>
</svg>
