<?xml version="1.0" standalone="no"?>
<!DOCTYPE svg PUBLIC "-//W3C//DTD SVG 1.1//EN" "http://www.w3.org/Graphics/SVG/1.1/DTD/svg11.dtd">
<!--Generator: Xara Designer (www.xara.com), SVG filter version: 6.3.0.31-->
<svg fill="none" fill-rule="evenodd" stroke="black" stroke-width="0.501" stroke-linejoin="bevel" stroke-miterlimit="10" font-family="Times New Roman" font-size="16" style="font-variant-ligatures:none" xmlns:xlink="http://www.w3.org/1999/xlink" xmlns="http://www.w3.org/2000/svg" version="1.1" overflow="visible" width="237.462pt" height="249.007pt" viewBox="2675.82 -2361.61 237.462 249.007">
 <defs>
	</defs>
 <g id="Layer 1" transform="scale(1 -1)">
  <g id="Group" stroke-linejoin="miter" stroke="none">
   <path d="M 2897.87,2140.2 C 2896.39,2149.42 2893.86,2159.76 2887.09,2171.6 C 2882,2180.46 2882.51,2186.77 2883.98,2195.63 C 2885.79,2206.46 2887.84,2231.38 2876.34,2248.02 C 2864.82,2264.64 2842.88,2262.41 2826.41,2264.36 C 2820.35,2267.74 2806.01,2277.09 2797.94,2277.09 C 2789.9,2277.09 2788.91,2276.12 2783.97,2280.61 C 2779.03,2285.11 2773.45,2285.47 2763.91,2284.49 C 2754.36,2283.53 2747.56,2274.03 2737.66,2267.46 C 2726.67,2258.24 2725.71,2230.67 2726.13,2224.92 C 2727.14,2211.76 2721.73,2207.77 2723.89,2183.76 C 2726.26,2157.52 2710.8,2157.33 2706.79,2164.01 C 2695.41,2182.88 2699.86,2171.63 2695.3,2170.59 C 2684.87,2168.22 2692.97,2162.69 2696.34,2156.32 C 2706.35,2137.34 2734.85,2148.03 2737.07,2168.05 C 2744.7,2236.83 2756.42,2217.8 2761.74,2214.65 C 2763.08,2209.73 2766.38,2206.3 2764.4,2199.51 C 2760.28,2185.26 2753.51,2157.27 2749.93,2152.42 C 2746.34,2147.55 2741.43,2133.73 2743.36,2129.84 C 2745.33,2125.83 2763.91,2126.42 2769.85,2128.37 C 2780.78,2131.95 2775.91,2135.77 2773.93,2144.17 C 2771.97,2152.55 2771.32,2151.57 2775.42,2155.46 C 2779.51,2159.32 2776.85,2168.08 2781.3,2175.48 C 2781.3,2175.48 2785.09,2173.06 2786.43,2158.37 C 2787.79,2143.73 2784.84,2141.13 2780.86,2135.3 C 2772.4,2122.86 2787.39,2122.98 2800.93,2123.53 C 2812.93,2124.01 2814.63,2124.24 2815.12,2130.68 C 2815.72,2138.31 2809.47,2166.26 2806.5,2178.53 C 2803.53,2190.77 2810.95,2184.36 2819.98,2181.43 C 2829.03,2178.53 2839.56,2193.69 2845.99,2183.17 C 2847.09,2181.32 2848.56,2179.45 2850.42,2177.53 L 2853.47,2174.39 C 2853.5,2167.91 2854.06,2159.7 2853.15,2153.54 C 2852.08,2146.13 2846.67,2140.85 2846.67,2137.31 C 2846.67,2133.79 2846.21,2131.86 2854.61,2131.33 C 2858.82,2131.05 2863.92,2130.58 2867.95,2131.35 C 2867.71,2125.26 2867.87,2121.35 2888.55,2125.47 C 2901.28,2128.01 2899.37,2130.99 2897.87,2140.2 Z" fill="#ffffff" stroke-width="2.692" marker-start="none" marker-end="none"/>
   <path d="M 2675.82,2361.61 L 2675.82,2112.61 L 2913.28,2112.61 L 2913.28,2361.61 L 2675.82,2361.61 Z" stroke-width="0.494" stroke-linecap="round" marker-start="none" marker-end="none"/>
  </g>
 </g>
</svg>
