<?xml version="1.0" standalone="no"?>
<!DOCTYPE svg PUBLIC "-//W3C//DTD SVG 1.1//EN" "http://www.w3.org/Graphics/SVG/1.1/DTD/svg11.dtd">
<!--Generator: Xara Designer (www.xara.com), SVG filter version: 6.3.0.31-->
<svg fill="none" fill-rule="evenodd" stroke="black" stroke-width="0.501" stroke-linejoin="bevel" stroke-miterlimit="10" font-family="Times New Roman" font-size="16" style="font-variant-ligatures:none" xmlns:xlink="http://www.w3.org/1999/xlink" xmlns="http://www.w3.org/2000/svg" version="1.1" overflow="visible" width="237.462pt" height="249.007pt" viewBox="2675.82 -2361.62 237.462 249.007">
 <defs>
	</defs>
 <g id="Layer 1" transform="scale(1 -1)">
  <g id="Group" stroke-linejoin="miter" stroke="none">
   <path d="M 2897.87,2163.54 C 2896.39,2172.76 2893.86,2183.11 2887.09,2194.95 C 2882,2203.81 2882.51,2210.12 2883.98,2218.98 C 2885.79,2229.81 2887.84,2254.73 2876.34,2271.37 C 2864.82,2287.99 2842.88,2285.76 2826.41,2287.71 C 2820.35,2291.09 2806.01,2300.43 2797.94,2300.43 C 2789.9,2300.43 2788.91,2299.47 2783.97,2303.96 C 2779.03,2308.46 2773.45,2308.82 2763.91,2307.83 C 2754.36,2306.88 2747.56,2297.38 2737.66,2290.81 C 2726.67,2281.59 2725.71,2254.01 2726.13,2248.27 C 2727.14,2235.11 2721.73,2231.12 2723.89,2207.11 C 2726.26,2180.87 2710.8,2180.68 2706.79,2187.36 C 2695.41,2206.22 2699.86,2194.98 2695.3,2193.93 C 2684.87,2191.57 2692.97,2186.04 2696.34,2179.67 C 2706.35,2160.69 2734.85,2171.38 2737.07,2191.39 C 2744.7,2260.18 2756.42,2241.15 2761.74,2238 C 2763.08,2233.08 2766.38,2229.65 2764.4,2222.86 C 2760.28,2208.61 2753.51,2180.62 2749.93,2175.77 C 2746.34,2170.9 2741.43,2157.08 2743.36,2153.18 C 2745.33,2149.18 2763.91,2149.77 2769.85,2151.72 C 2780.78,2155.3 2775.91,2159.12 2773.93,2167.52 C 2771.97,2175.9 2771.32,2174.92 2775.42,2178.81 C 2779.51,2182.67 2776.85,2191.43 2781.3,2198.83 C 2781.3,2198.83 2785.09,2196.41 2786.43,2181.72 C 2787.79,2167.08 2784.84,2164.48 2780.86,2158.65 C 2772.4,2146.21 2787.39,2146.33 2800.93,2146.87 C 2812.93,2147.36 2814.63,2147.59 2815.12,2154.02 C 2815.72,2161.66 2809.47,2189.6 2806.5,2201.88 C 2803.53,2214.12 2810.95,2207.7 2819.98,2204.78 C 2829.03,2201.88 2839.56,2217.03 2845.99,2206.52 C 2847.09,2204.67 2848.56,2202.8 2850.42,2200.88 L 2853.47,2197.74 C 2853.5,2191.25 2854.06,2183.05 2853.15,2176.89 C 2852.08,2169.48 2846.67,2164.2 2846.67,2160.66 C 2846.67,2157.14 2846.21,2155.21 2854.61,2154.68 C 2858.82,2154.4 2863.92,2153.93 2867.95,2154.69 C 2867.71,2148.6 2867.87,2144.7 2888.55,2148.82 C 2901.28,2151.36 2899.37,2154.34 2897.87,2163.54 Z" fill="#ffffff" stroke-width="2.692" marker-start="none" marker-end="none"/>
   <path d="M 2675.82,2361.62 L 2675.82,2112.61 L 2913.28,2112.61 L 2913.28,2361.62 L 2675.82,2361.62 Z" stroke-width="0.494" stroke-linecap="round" marker-start="none" marker-end="none"/>
  </g>
 </g>
</svg>
